  0
SECTION
  2
HEADER
  9
$ACADVER
  1
AC1014
  9
$HANDSEED
  5
FFFF
  9
$MEASUREMENT
 70
     1
  0
ENDSEC
  0
SECTION
  2
TABLES
  0
TABLE
  2
VPORT
  5
8
330
0
100
AcDbSymbolTable
 70
     4
  0
VPORT
  5
2E
330
8
100
AcDbSymbolTableRecord
100
AcDbViewportTableRecord
  2
*ACTIVE
 70
     0
 10
0.0
 20
0.0
 11
1.0
 21
1.0
 12
210.0
 22
148.5
 13
0.0
 23
0.0
 14
10.0
 24
10.0
 15
10.0
 25
10.0
 16
0.0
 26
0.0
 36
1.0
 17
0.0
 27
0.0
 37
0.0
 40
341.0
 41
1.24
 42
50.0
 43
0.0
 44
0.0
 50
0.0
 51
0.0
 71
     0
 72
   100
 73
     1
 74
     3
 75
     0
 76
     0
 77
     0
 78
     0
  0
ENDTAB
  0
TABLE
  2
LTYPE
  5
5
330
0
100
AcDbSymbolTable
 70
     1
  0
LTYPE
  5
14
330
5
100
AcDbSymbolTableRecord
100
AcDbLinetypeTableRecord
  2
BYBLOCK
 70
     0
  3

 72
    65
 73
     0
 40
0.0
  0
LTYPE
  5
15
330
5
100
AcDbSymbolTableRecord
100
AcDbLinetypeTableRecord
  2
BYLAYER
 70
     0
  3

 72
    65
 73
     0
 40
0.0
  0
LTYPE
  5
16
330
5
100
AcDbSymbolTableRecord
100
AcDbLinetypeTableRecord
  2
CONTINUOUS
 70
     0
  3
Solid line
 72
    65
 73
     0
 40
0.0
  0
ENDTAB
  0
TABLE
  2
LAYER
  5
2
100
AcDbSymbolTable
 70
2
  0
LAYER
  5
50
100
AcDbSymbolTableRecord
100
AcDbLayerTableRecord
  2
0
 70
0
  6
CONTINUOUS
  0
LAYER
  5
51
100
AcDbSymbolTableRecord
100
AcDbLayerTableRecord
  2
Layer_1
 70
0
  6
CONTINUOUS
  0
ENDTAB
  0
TABLE
  2
STYLE
  5
3
330
0
100
AcDbSymbolTable
 70
     1
  0
STYLE
  5
11
330
3
100
AcDbSymbolTableRecord
100
AcDbTextStyleTableRecord
  2
STANDARD
 70
     0
 40
0.0
 41
1.0
 50
0.0
 71
     0
 42
2.5
  3
txt
  4

  0
ENDTAB
  0
TABLE
  2
VIEW
  5
6
330
0
100
AcDbSymbolTable
 70
     0
  0
ENDTAB
  0
TABLE
  2
UCS
  5
7
330
0
100
AcDbSymbolTable
 70
     0
  0
ENDTAB
  0
TABLE
  2
APPID
  5
9
330
0
100
AcDbSymbolTable
 70
     2
  0
APPID
  5
12
330
9
100
AcDbSymbolTableRecord
100
AcDbRegAppTableRecord
  2
ACAD
 70
     0
  0
ENDTAB
  0
TABLE
  2
DIMSTYLE
  5
A
330
0
100
AcDbSymbolTable
 70
     1
  0
DIMSTYLE
105
27
330
A
100
AcDbSymbolTableRecord
100
AcDbDimStyleTableRecord
  2
ISO-25
 70
     0
  3

  4

  5

  6

  7

 40
1.0
 41
2.5
 42
0.625
 43
3.75
 44
1.25
 45
0.0
 46
0.0
 47
0.0
 48
0.0
140
2.5
141
2.5
142
0.0
143
0.03937007874016
144
1.0
145
0.0
146
1.0
147
0.625
 71
     0
 72
     0
 73
     0
 74
     0
 75
     0
 76
     0
 77
     1
 78
     8
170
     0
171
     3
172
     1
173
     0
174
     0
175
     0
176
     0
177
     0
178
     0
270
     2
271
     2
272
     2
273
     2
274
     3
340
11
275
     0
280
     0
281
     0
282
     0
283
     0
284
     8
285
     0
286
     0
287
     3
288
     0
  0
ENDTAB
  0
TABLE
  2
BLOCK_RECORD
  5
1
330
0
100
AcDbSymbolTable
 70
     1
  0
BLOCK_RECORD
  5
1F
330
1
100
AcDbSymbolTableRecord
100
AcDbBlockTableRecord
  2
*MODEL_SPACE
  0
BLOCK_RECORD
  5
1B
330
1
100
AcDbSymbolTableRecord
100
AcDbBlockTableRecord
  2
*PAPER_SPACE
  0
ENDTAB
  0
ENDSEC
  0
SECTION
  2
BLOCKS
  0
BLOCK
  5
20
330
1F
100
AcDbEntity
  8
0
100
AcDbBlockBegin
  2
*MODEL_SPACE
 70
     0
 10
0.0
 20
0.0
 30
0.0
  3
*MODEL_SPACE
  1

  0
ENDBLK
  5
21
330
1F
100
AcDbEntity
  8
0
100
AcDbBlockEnd
  0
BLOCK
  5
1C
330
1B
100
AcDbEntity
 67
     1
  8
0
100
AcDbBlockBegin
  2
*PAPER_SPACE
  1

  0
ENDBLK
  5
1D
330
1B
100
AcDbEntity
 67
     1
  8
0
100
AcDbBlockEnd
  0
ENDSEC
  0
SECTION
  2
ENTITIES
  0
SPLINE
  5
100
100
AcDbEntity
  8
Layer_1
 62
7
100
AcDbSpline
 70
8
 71
3
 72
8
 73
4
 74
0
 40
0
 40
0
 40
0
 40
0
 40
1
 40
1
 40
1
 40
1
 10
658.741712
 20
517.872408
 30
0.0
 10
648.394760
 20
517.872410
 30
0.0
 10
638.471591
 20
513.762100
 30
0.0
 10
631.155190
 20
506.445701
 30
0.0
  0
SPLINE
  5
101
100
AcDbEntity
  8
Layer_1
 62
7
100
AcDbSpline
 70
8
 71
3
 72
8
 73
4
 74
0
 40
0
 40
0
 40
0
 40
0
 40
1
 40
1
 40
1
 40
1
 10
1155.987701
 20
506.445701
 30
0.0
 10
1148.671305
 20
513.762095
 30
0.0
 10
1138.748146
 20
517.872404
 30
0.0
 10
1128.401201
 20
517.872408
 30
0.0
  0
SPLINE
  5
102
100
AcDbEntity
  8
Layer_1
 62
7
100
AcDbSpline
 70
8
 71
3
 72
8
 73
4
 74
0
 40
0
 40
0
 40
0
 40
0
 40
1
 40
1
 40
1
 40
1
 10
1499.513796
 20
146.759789
 30
0.0
 10
1499.513799
 20
157.106739
 30
0.0
 10
1495.403492
 20
167.029907
 30
0.0
 10
1488.087097
 20
174.346308
 30
0.0
  0
SPLINE
  5
103
100
AcDbEntity
  8
Layer_1
 62
7
100
AcDbSpline
 70
8
 71
3
 72
8
 73
4
 74
0
 40
0
 40
0
 40
0
 40
0
 40
1
 40
1
 40
1
 40
1
 10
1488.087097
 20
-350.486191
 30
0.0
 10
1495.403491
 20
-343.169791
 30
0.0
 10
1499.513798
 20
-333.246625
 30
0.0
 10
1499.513796
 20
-322.899676
 30
0.0
  0
SPLINE
  5
104
100
AcDbEntity
  8
Layer_1
 62
7
100
AcDbSpline
 70
8
 71
3
 72
8
 73
4
 74
0
 40
0
 40
0
 40
0
 40
0
 40
1
 40
1
 40
1
 40
1
 10
1128.401201
 20
-694.012309
 30
0.0
 10
1138.748145
 20
-694.012307
 30
0.0
 10
1148.671304
 20
-689.902001
 30
0.0
 10
1155.987701
 20
-682.585609
 30
0.0
  0
SPLINE
  5
105
100
AcDbEntity
  8
Layer_1
 62
7
100
AcDbSpline
 70
8
 71
3
 72
8
 73
4
 74
0
 40
0
 40
0
 40
0
 40
0
 40
1
 40
1
 40
1
 40
1
 10
631.155190
 20
-682.585609
 30
0.0
 10
638.471592
 20
-689.902006
 30
0.0
 10
648.394761
 20
-694.012313
 30
0.0
 10
658.741712
 20
-694.012309
 30
0.0
  0
SPLINE
  5
106
100
AcDbEntity
  8
Layer_1
 62
7
100
AcDbSpline
 70
8
 71
3
 72
8
 73
4
 74
0
 40
0
 40
0
 40
0
 40
0
 40
1
 40
1
 40
1
 40
1
 10
287.629087
 20
-322.899676
 30
0.0
 10
287.629087
 20
-333.246627
 30
0.0
 10
291.739398
 20
-343.169792
 30
0.0
 10
299.055796
 20
-350.486191
 30
0.0
  0
SPLINE
  5
107
100
AcDbEntity
  8
Layer_1
 62
7
100
AcDbSpline
 70
8
 71
3
 72
8
 73
4
 74
0
 40
0
 40
0
 40
0
 40
0
 40
1
 40
1
 40
1
 40
1
 10
299.055796
 20
174.346308
 30
0.0
 10
291.739397
 20
167.029908
 30
0.0
 10
287.629086
 20
157.106741
 30
0.0
 10
287.629087
 20
146.759789
 30
0.0
  0
SPLINE
  5
108
100
AcDbEntity
  8
Layer_1
 62
7
100
AcDbSpline
 70
8
 71
3
 72
8
 73
4
 74
0
 40
0
 40
0
 40
0
 40
0
 40
1
 40
1
 40
1
 40
1
 10
1142.916026
 20
503.636043
 30
0.0
 10
1142.921853
 20
505.158990
 30
0.0
 10
1142.112715
 20
506.568750
 30
0.0
 10
1140.794767
 20
507.331911
 30
0.0
  0
SPLINE
  5
109
100
AcDbEntity
  8
Layer_1
 62
7
100
AcDbSpline
 70
8
 71
3
 72
8
 73
4
 74
0
 40
0
 40
0
 40
0
 40
0
 40
1
 40
1
 40
1
 40
1
 10
1140.794767
 20
507.331911
 30
0.0
 10
1139.476820
 20
508.095071
 30
0.0
 10
1137.851357
 20
508.095071
 30
0.0
 10
1136.533409
 20
507.331911
 30
0.0
  0
SPLINE
  5
10a
100
AcDbEntity
  8
Layer_1
 62
7
100
AcDbSpline
 70
8
 71
3
 72
8
 73
4
 74
0
 40
0
 40
0
 40
0
 40
0
 40
1
 40
1
 40
1
 40
1
 10
1136.533409
 20
507.331911
 30
0.0
 10
1135.215462
 20
506.568750
 30
0.0
 10
1134.406324
 20
505.158990
 30
0.0
 10
1134.412151
 20
503.636043
 30
0.0
  0
SPLINE
  5
10b
100
AcDbEntity
  8
Layer_1
 62
7
100
AcDbSpline
 70
8
 71
3
 72
8
 73
4
 74
0
 40
0
 40
0
 40
0
 40
0
 40
1
 40
1
 40
1
 40
1
 10
1134.412151
 20
503.636043
 30
0.0
 10
1134.406324
 20
502.113097
 30
0.0
 10
1135.215462
 20
500.703336
 30
0.0
 10
1136.533409
 20
499.940176
 30
0.0
  0
SPLINE
  5
10c
100
AcDbEntity
  8
Layer_1
 62
7
100
AcDbSpline
 70
8
 71
3
 72
8
 73
4
 74
0
 40
0
 40
0
 40
0
 40
0
 40
1
 40
1
 40
1
 40
1
 10
1136.533409
 20
499.940176
 30
0.0
 10
1137.851357
 20
499.177015
 30
0.0
 10
1139.476820
 20
499.177015
 30
0.0
 10
1140.794767
 20
499.940176
 30
0.0
  0
SPLINE
  5
10d
100
AcDbEntity
  8
Layer_1
 62
7
100
AcDbSpline
 70
8
 71
3
 72
8
 73
4
 74
0
 40
0
 40
0
 40
0
 40
0
 40
1
 40
1
 40
1
 40
1
 10
1140.794767
 20
499.940176
 30
0.0
 10
1142.112715
 20
500.703336
 30
0.0
 10
1142.921853
 20
502.113097
 30
0.0
 10
1142.916026
 20
503.636043
 30
0.0
  0
SPLINE
  5
10e
100
AcDbEntity
  8
Layer_1
 62
7
100
AcDbSpline
 70
8
 71
3
 72
8
 73
4
 74
0
 40
0
 40
0
 40
0
 40
0
 40
1
 40
1
 40
1
 40
1
 10
652.730762
 20
503.636043
 30
0.0
 10
652.731665
 20
505.155726
 30
0.0
 10
651.921442
 20
506.560358
 30
0.0
 10
650.605508
 20
507.320460
 30
0.0
  0
SPLINE
  5
10f
100
AcDbEntity
  8
Layer_1
 62
7
100
AcDbSpline
 70
8
 71
3
 72
8
 73
4
 74
0
 40
0
 40
0
 40
0
 40
0
 40
1
 40
1
 40
1
 40
1
 10
650.605508
 20
507.320460
 30
0.0
 10
649.289574
 20
508.080562
 30
0.0
 10
647.668015
 20
508.080562
 30
0.0
 10
646.352081
 20
507.320460
 30
0.0
  0
SPLINE
  5
110
100
AcDbEntity
  8
Layer_1
 62
7
100
AcDbSpline
 70
8
 71
3
 72
8
 73
4
 74
0
 40
0
 40
0
 40
0
 40
0
 40
1
 40
1
 40
1
 40
1
 10
646.352081
 20
507.320460
 30
0.0
 10
645.036147
 20
506.560358
 30
0.0
 10
644.225925
 20
505.155726
 30
0.0
 10
644.226827
 20
503.636043
 30
0.0
  0
SPLINE
  5
111
100
AcDbEntity
  8
Layer_1
 62
7
100
AcDbSpline
 70
8
 71
3
 72
8
 73
4
 74
0
 40
0
 40
0
 40
0
 40
0
 40
1
 40
1
 40
1
 40
1
 10
644.226827
 20
503.636043
 30
0.0
 10
644.225925
 20
502.116360
 30
0.0
 10
645.036147
 20
500.711728
 30
0.0
 10
646.352081
 20
499.951626
 30
0.0
  0
SPLINE
  5
112
100
AcDbEntity
  8
Layer_1
 62
7
100
AcDbSpline
 70
8
 71
3
 72
8
 73
4
 74
0
 40
0
 40
0
 40
0
 40
0
 40
1
 40
1
 40
1
 40
1
 10
646.352081
 20
499.951626
 30
0.0
 10
647.668015
 20
499.191524
 30
0.0
 10
649.289574
 20
499.191524
 30
0.0
 10
650.605508
 20
499.951626
 30
0.0
  0
SPLINE
  5
113
100
AcDbEntity
  8
Layer_1
 62
7
100
AcDbSpline
 70
8
 71
3
 72
8
 73
4
 74
0
 40
0
 40
0
 40
0
 40
0
 40
1
 40
1
 40
1
 40
1
 10
650.605508
 20
499.951626
 30
0.0
 10
651.921442
 20
500.711728
 30
0.0
 10
652.731665
 20
502.116360
 30
0.0
 10
652.730762
 20
503.636043
 30
0.0
  0
LWPOLYLINE
  5
114
100
AcDbEntity
  8
Layer_1
 62
7
100
AcDbPolyline
 90
1
 70
1
 10
1142.916026
 20
503.636043
 30
0.0
  0
SPLINE
  5
115
100
AcDbEntity
  8
Layer_1
 62
7
100
AcDbSpline
 70
8
 71
3
 72
8
 73
4
 74
0
 40
0
 40
0
 40
0
 40
0
 40
1
 40
1
 40
1
 40
1
 10
306.117422
 20
157.022702
 30
0.0
 10
306.117422
 20
158.541784
 30
0.0
 10
305.307001
 20
159.945473
 30
0.0
 10
303.991438
 20
160.705014
 30
0.0
  0
SPLINE
  5
116
100
AcDbEntity
  8
Layer_1
 62
7
100
AcDbSpline
 70
8
 71
3
 72
8
 73
4
 74
0
 40
0
 40
0
 40
0
 40
0
 40
1
 40
1
 40
1
 40
1
 10
303.991438
 20
160.705014
 30
0.0
 10
302.675874
 20
161.464555
 30
0.0
 10
301.055033
 20
161.464555
 30
0.0
 10
299.739469
 20
160.705014
 30
0.0
  0
SPLINE
  5
117
100
AcDbEntity
  8
Layer_1
 62
7
100
AcDbSpline
 70
8
 71
3
 72
8
 73
4
 74
0
 40
0
 40
0
 40
0
 40
0
 40
1
 40
1
 40
1
 40
1
 10
299.739469
 20
160.705014
 30
0.0
 10
298.423905
 20
159.945473
 30
0.0
 10
297.613485
 20
158.541784
 30
0.0
 10
297.613485
 20
157.022702
 30
0.0
  0
SPLINE
  5
118
100
AcDbEntity
  8
Layer_1
 62
7
100
AcDbSpline
 70
8
 71
3
 72
8
 73
4
 74
0
 40
0
 40
0
 40
0
 40
0
 40
1
 40
1
 40
1
 40
1
 10
297.613485
 20
157.022702
 30
0.0
 10
297.613485
 20
155.503619
 30
0.0
 10
298.423905
 20
154.099930
 30
0.0
 10
299.739469
 20
153.340389
 30
0.0
  0
SPLINE
  5
119
100
AcDbEntity
  8
Layer_1
 62
7
100
AcDbSpline
 70
8
 71
3
 72
8
 73
4
 74
0
 40
0
 40
0
 40
0
 40
0
 40
1
 40
1
 40
1
 40
1
 10
299.739469
 20
153.340389
 30
0.0
 10
301.055033
 20
152.580848
 30
0.0
 10
302.675874
 20
152.580848
 30
0.0
 10
303.991438
 20
153.340389
 30
0.0
  0
SPLINE
  5
11a
100
AcDbEntity
  8
Layer_1
 62
7
100
AcDbSpline
 70
8
 71
3
 72
8
 73
4
 74
0
 40
0
 40
0
 40
0
 40
0
 40
1
 40
1
 40
1
 40
1
 10
303.991438
 20
153.340389
 30
0.0
 10
305.307001
 20
154.099930
 30
0.0
 10
306.117422
 20
155.503619
 30
0.0
 10
306.117422
 20
157.022702
 30
0.0
  0
LWPOLYLINE
  5
11b
100
AcDbEntity
  8
Layer_1
 62
7
100
AcDbPolyline
 90
1
 70
1
 10
652.730762
 20
503.636043
 30
0.0
  0
SPLINE
  5
11c
100
AcDbEntity
  8
Layer_1
 62
7
100
AcDbSpline
 70
8
 71
3
 72
8
 73
4
 74
0
 40
0
 40
0
 40
0
 40
0
 40
1
 40
1
 40
1
 40
1
 10
306.117422
 20
-333.162586
 30
0.0
 10
306.117422
 20
-331.643504
 30
0.0
 10
305.307001
 20
-330.239815
 30
0.0
 10
303.991438
 20
-329.480274
 30
0.0
  0
SPLINE
  5
11d
100
AcDbEntity
  8
Layer_1
 62
7
100
AcDbSpline
 70
8
 71
3
 72
8
 73
4
 74
0
 40
0
 40
0
 40
0
 40
0
 40
1
 40
1
 40
1
 40
1
 10
303.991438
 20
-329.480274
 30
0.0
 10
302.675874
 20
-328.720732
 30
0.0
 10
301.055033
 20
-328.720732
 30
0.0
 10
299.739469
 20
-329.480274
 30
0.0
  0
SPLINE
  5
11e
100
AcDbEntity
  8
Layer_1
 62
7
100
AcDbSpline
 70
8
 71
3
 72
8
 73
4
 74
0
 40
0
 40
0
 40
0
 40
0
 40
1
 40
1
 40
1
 40
1
 10
299.739469
 20
-329.480274
 30
0.0
 10
298.423905
 20
-330.239815
 30
0.0
 10
297.613485
 20
-331.643504
 30
0.0
 10
297.613485
 20
-333.162586
 30
0.0
  0
SPLINE
  5
11f
100
AcDbEntity
  8
Layer_1
 62
7
100
AcDbSpline
 70
8
 71
3
 72
8
 73
4
 74
0
 40
0
 40
0
 40
0
 40
0
 40
1
 40
1
 40
1
 40
1
 10
297.613485
 20
-333.162586
 30
0.0
 10
297.613485
 20
-334.681668
 30
0.0
 10
298.423905
 20
-336.085358
 30
0.0
 10
299.739469
 20
-336.844899
 30
0.0
  0
SPLINE
  5
120
100
AcDbEntity
  8
Layer_1
 62
7
100
AcDbSpline
 70
8
 71
3
 72
8
 73
4
 74
0
 40
0
 40
0
 40
0
 40
0
 40
1
 40
1
 40
1
 40
1
 10
299.739469
 20
-336.844899
 30
0.0
 10
301.055033
 20
-337.604440
 30
0.0
 10
302.675874
 20
-337.604440
 30
0.0
 10
303.991438
 20
-336.844899
 30
0.0
  0
SPLINE
  5
121
100
AcDbEntity
  8
Layer_1
 62
7
100
AcDbSpline
 70
8
 71
3
 72
8
 73
4
 74
0
 40
0
 40
0
 40
0
 40
0
 40
1
 40
1
 40
1
 40
1
 10
303.991438
 20
-336.844899
 30
0.0
 10
305.307001
 20
-336.085358
 30
0.0
 10
306.117422
 20
-334.681668
 30
0.0
 10
306.117422
 20
-333.162586
 30
0.0
  0
LWPOLYLINE
  5
122
100
AcDbEntity
  8
Layer_1
 62
7
100
AcDbPolyline
 90
1
 70
1
 10
306.117422
 20
157.022702
 30
0.0
  0
SPLINE
  5
123
100
AcDbEntity
  8
Layer_1
 62
7
100
AcDbSpline
 70
8
 71
3
 72
8
 73
4
 74
0
 40
0
 40
0
 40
0
 40
0
 40
1
 40
1
 40
1
 40
1
 10
652.730762
 20
-679.775959
 30
0.0
 10
652.731665
 20
-678.256276
 30
0.0
 10
651.921442
 20
-676.851645
 30
0.0
 10
650.605508
 20
-676.091543
 30
0.0
  0
SPLINE
  5
124
100
AcDbEntity
  8
Layer_1
 62
7
100
AcDbSpline
 70
8
 71
3
 72
8
 73
4
 74
0
 40
0
 40
0
 40
0
 40
0
 40
1
 40
1
 40
1
 40
1
 10
650.605508
 20
-676.091543
 30
0.0
 10
649.289574
 20
-675.331440
 30
0.0
 10
647.668015
 20
-675.331440
 30
0.0
 10
646.352081
 20
-676.091543
 30
0.0
  0
SPLINE
  5
125
100
AcDbEntity
  8
Layer_1
 62
7
100
AcDbSpline
 70
8
 71
3
 72
8
 73
4
 74
0
 40
0
 40
0
 40
0
 40
0
 40
1
 40
1
 40
1
 40
1
 10
646.352081
 20
-676.091543
 30
0.0
 10
645.036147
 20
-676.851645
 30
0.0
 10
644.225925
 20
-678.256276
 30
0.0
 10
644.226827
 20
-679.775959
 30
0.0
  0
SPLINE
  5
126
100
AcDbEntity
  8
Layer_1
 62
7
100
AcDbSpline
 70
8
 71
3
 72
8
 73
4
 74
0
 40
0
 40
0
 40
0
 40
0
 40
1
 40
1
 40
1
 40
1
 10
644.226827
 20
-679.775959
 30
0.0
 10
644.225925
 20
-681.295643
 30
0.0
 10
645.036147
 20
-682.700274
 30
0.0
 10
646.352081
 20
-683.460376
 30
0.0
  0
SPLINE
  5
127
100
AcDbEntity
  8
Layer_1
 62
7
100
AcDbSpline
 70
8
 71
3
 72
8
 73
4
 74
0
 40
0
 40
0
 40
0
 40
0
 40
1
 40
1
 40
1
 40
1
 10
646.352081
 20
-683.460376
 30
0.0
 10
647.668015
 20
-684.220479
 30
0.0
 10
649.289574
 20
-684.220479
 30
0.0
 10
650.605508
 20
-683.460376
 30
0.0
  0
SPLINE
  5
128
100
AcDbEntity
  8
Layer_1
 62
7
100
AcDbSpline
 70
8
 71
3
 72
8
 73
4
 74
0
 40
0
 40
0
 40
0
 40
0
 40
1
 40
1
 40
1
 40
1
 10
650.605508
 20
-683.460376
 30
0.0
 10
651.921442
 20
-682.700274
 30
0.0
 10
652.731665
 20
-681.295643
 30
0.0
 10
652.730762
 20
-679.775959
 30
0.0
  0
LWPOLYLINE
  5
129
100
AcDbEntity
  8
Layer_1
 62
7
100
AcDbPolyline
 90
1
 70
1
 10
306.117422
 20
-333.162586
 30
0.0
  0
SPLINE
  5
12a
100
AcDbEntity
  8
Layer_1
 62
7
100
AcDbSpline
 70
8
 71
3
 72
8
 73
4
 74
0
 40
0
 40
0
 40
0
 40
0
 40
1
 40
1
 40
1
 40
1
 10
1142.916026
 20
-679.775959
 30
0.0
 10
1142.921853
 20
-678.253013
 30
0.0
 10
1142.112715
 20
-676.843252
 30
0.0
 10
1140.794767
 20
-676.080092
 30
0.0
  0
SPLINE
  5
12b
100
AcDbEntity
  8
Layer_1
 62
7
100
AcDbSpline
 70
8
 71
3
 72
8
 73
4
 74
0
 40
0
 40
0
 40
0
 40
0
 40
1
 40
1
 40
1
 40
1
 10
1140.794767
 20
-676.080092
 30
0.0
 10
1139.476820
 20
-675.316932
 30
0.0
 10
1137.851357
 20
-675.316932
 30
0.0
 10
1136.533409
 20
-676.080092
 30
0.0
  0
SPLINE
  5
12c
100
AcDbEntity
  8
Layer_1
 62
7
100
AcDbSpline
 70
8
 71
3
 72
8
 73
4
 74
0
 40
0
 40
0
 40
0
 40
0
 40
1
 40
1
 40
1
 40
1
 10
1136.533409
 20
-676.080092
 30
0.0
 10
1135.215462
 20
-676.843252
 30
0.0
 10
1134.406324
 20
-678.253013
 30
0.0
 10
1134.412151
 20
-679.775959
 30
0.0
  0
SPLINE
  5
12d
100
AcDbEntity
  8
Layer_1
 62
7
100
AcDbSpline
 70
8
 71
3
 72
8
 73
4
 74
0
 40
0
 40
0
 40
0
 40
0
 40
1
 40
1
 40
1
 40
1
 10
1134.412151
 20
-679.775959
 30
0.0
 10
1134.406324
 20
-681.298906
 30
0.0
 10
1135.215462
 20
-682.708666
 30
0.0
 10
1136.533409
 20
-683.471827
 30
0.0
  0
SPLINE
  5
12e
100
AcDbEntity
  8
Layer_1
 62
7
100
AcDbSpline
 70
8
 71
3
 72
8
 73
4
 74
0
 40
0
 40
0
 40
0
 40
0
 40
1
 40
1
 40
1
 40
1
 10
1136.533409
 20
-683.471827
 30
0.0
 10
1137.851357
 20
-684.234987
 30
0.0
 10
1139.476820
 20
-684.234987
 30
0.0
 10
1140.794767
 20
-683.471827
 30
0.0
  0
SPLINE
  5
12f
100
AcDbEntity
  8
Layer_1
 62
7
100
AcDbSpline
 70
8
 71
3
 72
8
 73
4
 74
0
 40
0
 40
0
 40
0
 40
0
 40
1
 40
1
 40
1
 40
1
 10
1140.794767
 20
-683.471827
 30
0.0
 10
1142.112715
 20
-682.708666
 30
0.0
 10
1142.921853
 20
-681.298906
 30
0.0
 10
1142.916026
 20
-679.775959
 30
0.0
  0
LWPOLYLINE
  5
130
100
AcDbEntity
  8
Layer_1
 62
7
100
AcDbPolyline
 90
1
 70
1
 10
652.730762
 20
-679.775959
 30
0.0
  0
SPLINE
  5
131
100
AcDbEntity
  8
Layer_1
 62
7
100
AcDbSpline
 70
8
 71
3
 72
8
 73
4
 74
0
 40
0
 40
0
 40
0
 40
0
 40
1
 40
1
 40
1
 40
1
 10
1489.529422
 20
-333.162586
 30
0.0
 10
1489.529422
 20
-331.643502
 30
0.0
 10
1488.719000
 20
-330.239810
 30
0.0
 10
1487.403434
 20
-329.480268
 30
0.0
  0
SPLINE
  5
132
100
AcDbEntity
  8
Layer_1
 62
7
100
AcDbSpline
 70
8
 71
3
 72
8
 73
4
 74
0
 40
0
 40
0
 40
0
 40
0
 40
1
 40
1
 40
1
 40
1
 10
1487.403434
 20
-329.480268
 30
0.0
 10
1486.087868
 20
-328.720726
 30
0.0
 10
1484.467025
 20
-328.720726
 30
0.0
 10
1483.151459
 20
-329.480268
 30
0.0
  0
SPLINE
  5
133
100
AcDbEntity
  8
Layer_1
 62
7
100
AcDbSpline
 70
8
 71
3
 72
8
 73
4
 74
0
 40
0
 40
0
 40
0
 40
0
 40
1
 40
1
 40
1
 40
1
 10
1483.151459
 20
-329.480268
 30
0.0
 10
1481.835893
 20
-330.239810
 30
0.0
 10
1481.025472
 20
-331.643502
 30
0.0
 10
1481.025472
 20
-333.162586
 30
0.0
  0
SPLINE
  5
134
100
AcDbEntity
  8
Layer_1
 62
7
100
AcDbSpline
 70
8
 71
3
 72
8
 73
4
 74
0
 40
0
 40
0
 40
0
 40
0
 40
1
 40
1
 40
1
 40
1
 10
1481.025472
 20
-333.162586
 30
0.0
 10
1481.025472
 20
-334.681671
 30
0.0
 10
1481.835893
 20
-336.085362
 30
0.0
 10
1483.151459
 20
-336.844905
 30
0.0
  0
SPLINE
  5
135
100
AcDbEntity
  8
Layer_1
 62
7
100
AcDbSpline
 70
8
 71
3
 72
8
 73
4
 74
0
 40
0
 40
0
 40
0
 40
0
 40
1
 40
1
 40
1
 40
1
 10
1483.151459
 20
-336.844905
 30
0.0
 10
1484.467025
 20
-337.604447
 30
0.0
 10
1486.087868
 20
-337.604447
 30
0.0
 10
1487.403434
 20
-336.844905
 30
0.0
  0
SPLINE
  5
136
100
AcDbEntity
  8
Layer_1
 62
7
100
AcDbSpline
 70
8
 71
3
 72
8
 73
4
 74
0
 40
0
 40
0
 40
0
 40
0
 40
1
 40
1
 40
1
 40
1
 10
1487.403434
 20
-336.844905
 30
0.0
 10
1488.719000
 20
-336.085362
 30
0.0
 10
1489.529422
 20
-334.681671
 30
0.0
 10
1489.529422
 20
-333.162586
 30
0.0
  0
LWPOLYLINE
  5
137
100
AcDbEntity
  8
Layer_1
 62
7
100
AcDbPolyline
 90
1
 70
1
 10
1142.916026
 20
-679.775959
 30
0.0
  0
SPLINE
  5
138
100
AcDbEntity
  8
Layer_1
 62
7
100
AcDbSpline
 70
8
 71
3
 72
8
 73
4
 74
0
 40
0
 40
0
 40
0
 40
0
 40
1
 40
1
 40
1
 40
1
 10
1489.529422
 20
157.022702
 30
0.0
 10
1489.529422
 20
158.541786
 30
0.0
 10
1488.719000
 20
159.945478
 30
0.0
 10
1487.403434
 20
160.705020
 30
0.0
  0
SPLINE
  5
139
100
AcDbEntity
  8
Layer_1
 62
7
100
AcDbSpline
 70
8
 71
3
 72
8
 73
4
 74
0
 40
0
 40
0
 40
0
 40
0
 40
1
 40
1
 40
1
 40
1
 10
1487.403434
 20
160.705020
 30
0.0
 10
1486.087868
 20
161.464562
 30
0.0
 10
1484.467025
 20
161.464562
 30
0.0
 10
1483.151459
 20
160.705020
 30
0.0
  0
SPLINE
  5
13a
100
AcDbEntity
  8
Layer_1
 62
7
100
AcDbSpline
 70
8
 71
3
 72
8
 73
4
 74
0
 40
0
 40
0
 40
0
 40
0
 40
1
 40
1
 40
1
 40
1
 10
1483.151459
 20
160.705020
 30
0.0
 10
1481.835893
 20
159.945478
 30
0.0
 10
1481.025472
 20
158.541786
 30
0.0
 10
1481.025472
 20
157.022702
 30
0.0
  0
SPLINE
  5
13b
100
AcDbEntity
  8
Layer_1
 62
7
100
AcDbSpline
 70
8
 71
3
 72
8
 73
4
 74
0
 40
0
 40
0
 40
0
 40
0
 40
1
 40
1
 40
1
 40
1
 10
1481.025472
 20
157.022702
 30
0.0
 10
1481.025472
 20
155.503617
 30
0.0
 10
1481.835893
 20
154.099925
 30
0.0
 10
1483.151459
 20
153.340383
 30
0.0
  0
SPLINE
  5
13c
100
AcDbEntity
  8
Layer_1
 62
7
100
AcDbSpline
 70
8
 71
3
 72
8
 73
4
 74
0
 40
0
 40
0
 40
0
 40
0
 40
1
 40
1
 40
1
 40
1
 10
1483.151459
 20
153.340383
 30
0.0
 10
1484.467025
 20
152.580841
 30
0.0
 10
1486.087868
 20
152.580841
 30
0.0
 10
1487.403434
 20
153.340383
 30
0.0
  0
SPLINE
  5
13d
100
AcDbEntity
  8
Layer_1
 62
7
100
AcDbSpline
 70
8
 71
3
 72
8
 73
4
 74
0
 40
0
 40
0
 40
0
 40
0
 40
1
 40
1
 40
1
 40
1
 10
1487.403434
 20
153.340383
 30
0.0
 10
1488.719000
 20
154.099925
 30
0.0
 10
1489.529422
 20
155.503617
 30
0.0
 10
1489.529422
 20
157.022702
 30
0.0
  0
LWPOLYLINE
  5
13e
100
AcDbEntity
  8
Layer_1
 62
7
100
AcDbPolyline
 90
1
 70
1
 10
1489.529422
 20
-333.162586
 30
0.0
  0
LWPOLYLINE
  5
13f
100
AcDbEntity
  8
Layer_1
 62
7
100
AcDbPolyline
 90
1
 70
1
 10
1489.529422
 20
157.022702
 30
0.0
  0
LWPOLYLINE
  5
140
100
AcDbEntity
  8
Layer_1
 62
7
100
AcDbPolyline
 90
2
 70
0
 10
1499.513796
 20
146.759789
 30
0.0
 10
1499.513796
 20
118.413333
 30
0.0
  0
LWPOLYLINE
  5
141
100
AcDbEntity
  8
Layer_1
 62
7
100
AcDbPolyline
 90
3
 70
0
 10
1485.340597
 20
118.413333
 30
0.0
 10
1485.340597
 20
35.820024
 30
0.0
 10
1499.513796
 20
35.820024
 30
0.0
  0
LWPOLYLINE
  5
142
100
AcDbEntity
  8
Layer_1
 62
7
100
AcDbPolyline
 90
4
 70
0
 10
1499.513796
 20
-46.773290
 30
0.0
 10
1485.340597
 20
-46.773290
 30
0.0
 10
1485.340597
 20
-129.366596
 30
0.0
 10
1499.513796
 20
-129.366596
 30
0.0
  0
LWPOLYLINE
  5
143
100
AcDbEntity
  8
Layer_1
 62
7
100
AcDbPolyline
 90
4
 70
0
 10
1499.513796
 20
-211.959910
 30
0.0
 10
1485.340597
 20
-211.959910
 30
0.0
 10
1485.340597
 20
-294.553217
 30
0.0
 10
1499.513796
 20
-294.553217
 30
0.0
  0
LWPOLYLINE
  5
144
100
AcDbEntity
  8
Layer_1
 62
7
100
AcDbPolyline
 90
2
 70
0
 10
1485.340597
 20
118.413333
 30
0.0
 10
1499.513796
 20
118.413333
 30
0.0
  0
LWPOLYLINE
  5
145
100
AcDbEntity
  8
Layer_1
 62
7
100
AcDbPolyline
 90
2
 70
0
 10
1499.513796
 20
-211.959910
 30
0.0
 10
1499.513796
 20
-129.366596
 30
0.0
  0
LWPOLYLINE
  5
146
100
AcDbEntity
  8
Layer_1
 62
7
100
AcDbPolyline
 90
2
 70
0
 10
1499.513796
 20
-46.773290
 30
0.0
 10
1499.513796
 20
35.820024
 30
0.0
  0
LWPOLYLINE
  5
147
100
AcDbEntity
  8
Layer_1
 62
7
100
AcDbPolyline
 90
2
 70
0
 10
1499.513796
 20
-294.553217
 30
0.0
 10
1499.513796
 20
-322.899676
 30
0.0
  0
LWPOLYLINE
  5
148
100
AcDbEntity
  8
Layer_1
 62
7
100
AcDbPolyline
 90
2
 70
0
 10
1155.987701
 20
506.445701
 30
0.0
 10
1176.031675
 20
486.401726
 30
0.0
  0
LWPOLYLINE
  5
149
100
AcDbEntity
  8
Layer_1
 62
7
100
AcDbPolyline
 90
3
 70
0
 10
1166.009651
 20
476.379746
 30
0.0
 10
1224.412000
 20
417.977457
 30
0.0
 10
1234.433950
 20
427.999437
 30
0.0
  0
LWPOLYLINE
  5
14a
100
AcDbEntity
  8
Layer_1
 62
7
100
AcDbPolyline
 90
2
 70
0
 10
1292.836224
 20
369.597147
 30
0.0
 10
1234.433950
 20
427.999437
 30
0.0
  0
LWPOLYLINE
  5
14b
100
AcDbEntity
  8
Layer_1
 62
7
100
AcDbPolyline
 90
4
 70
0
 10
1292.836224
 20
369.597147
 30
0.0
 10
1282.814274
 20
359.575167
 30
0.0
 10
1341.216548
 20
301.172871
 30
0.0
 10
1351.238498
 20
311.194858
 30
0.0
  0
LWPOLYLINE
  5
14c
100
AcDbEntity
  8
Layer_1
 62
7
100
AcDbPolyline
 90
2
 70
0
 10
1409.640848
 20
252.792569
 30
0.0
 10
1351.238498
 20
311.194858
 30
0.0
  0
LWPOLYLINE
  5
14d
100
AcDbEntity
  8
Layer_1
 62
7
100
AcDbPolyline
 90
2
 70
0
 10
1399.618823
 20
242.770581
 30
0.0
 10
1458.021097
 20
184.368294
 30
0.0
  0
LWPOLYLINE
  5
14e
100
AcDbEntity
  8
Layer_1
 62
7
100
AcDbPolyline
 90
2
 70
0
 10
1468.043122
 20
194.390280
 30
0.0
 10
1488.087097
 20
174.346308
 30
0.0
  0
LWPOLYLINE
  5
14f
100
AcDbEntity
  8
Layer_1
 62
7
100
AcDbPolyline
 90
2
 70
0
 10
1166.009651
 20
476.379746
 30
0.0
 10
1176.031675
 20
486.401726
 30
0.0
  0
LWPOLYLINE
  5
150
100
AcDbEntity
  8
Layer_1
 62
7
100
AcDbPolyline
 90
2
 70
0
 10
1458.021097
 20
184.368294
 30
0.0
 10
1468.043122
 20
194.390280
 30
0.0
  0
LWPOLYLINE
  5
151
100
AcDbEntity
  8
Layer_1
 62
7
100
AcDbPolyline
 90
2
 70
0
 10
1409.640848
 20
252.792569
 30
0.0
 10
1399.618823
 20
242.770581
 30
0.0
  0
LWPOLYLINE
  5
152
100
AcDbEntity
  8
Layer_1
 62
7
100
AcDbPolyline
 90
2
 70
0
 10
658.741712
 20
517.872408
 30
0.0
 10
687.088164
 20
517.872408
 30
0.0
  0
LWPOLYLINE
  5
153
100
AcDbEntity
  8
Layer_1
 62
7
100
AcDbPolyline
 90
3
 70
0
 10
687.088164
 20
503.699186
 30
0.0
 10
769.681478
 20
503.699186
 30
0.0
 10
769.681478
 20
517.872408
 30
0.0
  0
LWPOLYLINE
  5
154
100
AcDbEntity
  8
Layer_1
 62
7
100
AcDbPolyline
 90
2
 70
0
 10
852.274785
 20
517.872408
 30
0.0
 10
769.681478
 20
517.872408
 30
0.0
  0
LWPOLYLINE
  5
155
100
AcDbEntity
  8
Layer_1
 62
7
100
AcDbPolyline
 90
4
 70
0
 10
852.274785
 20
517.872408
 30
0.0
 10
852.274785
 20
503.699186
 30
0.0
 10
934.868098
 20
503.699186
 30
0.0
 10
934.868098
 20
517.872408
 30
0.0
  0
LWPOLYLINE
  5
156
100
AcDbEntity
  8
Layer_1
 62
7
100
AcDbPolyline
 90
2
 70
0
 10
1017.461405
 20
517.872408
 30
0.0
 10
934.868098
 20
517.872408
 30
0.0
  0
LWPOLYLINE
  5
157
100
AcDbEntity
  8
Layer_1
 62
7
100
AcDbPolyline
 90
2
 70
0
 10
1017.461405
 20
503.699186
 30
0.0
 10
1100.054726
 20
503.699186
 30
0.0
  0
LWPOLYLINE
  5
158
100
AcDbEntity
  8
Layer_1
 62
7
100
AcDbPolyline
 90
2
 70
0
 10
1100.054726
 20
517.872408
 30
0.0
 10
1128.401201
 20
517.872408
 30
0.0
  0
LWPOLYLINE
  5
159
100
AcDbEntity
  8
Layer_1
 62
7
100
AcDbPolyline
 90
2
 70
0
 10
687.088164
 20
503.699186
 30
0.0
 10
687.088164
 20
517.872408
 30
0.0
  0
LWPOLYLINE
  5
15a
100
AcDbEntity
  8
Layer_1
 62
7
100
AcDbPolyline
 90
2
 70
0
 10
1100.054726
 20
503.699186
 30
0.0
 10
1100.054726
 20
517.872408
 30
0.0
  0
LWPOLYLINE
  5
15b
100
AcDbEntity
  8
Layer_1
 62
7
100
AcDbPolyline
 90
2
 70
0
 10
1017.461405
 20
517.872408
 30
0.0
 10
1017.461405
 20
503.699186
 30
0.0
  0
LWPOLYLINE
  5
15c
100
AcDbEntity
  8
Layer_1
 62
7
100
AcDbPolyline
 90
2
 70
0
 10
299.055796
 20
174.346308
 30
0.0
 10
319.099768
 20
194.390280
 30
0.0
  0
LWPOLYLINE
  5
15d
100
AcDbEntity
  8
Layer_1
 62
7
100
AcDbPolyline
 90
3
 70
0
 10
329.121754
 20
184.368294
 30
0.0
 10
387.524045
 20
242.770581
 30
0.0
 10
377.502058
 20
252.792569
 30
0.0
  0
LWPOLYLINE
  5
15e
100
AcDbEntity
  8
Layer_1
 62
7
100
AcDbPolyline
 90
2
 70
0
 10
435.904347
 20
311.194858
 30
0.0
 10
377.502058
 20
252.792569
 30
0.0
  0
LWPOLYLINE
  5
15f
100
AcDbEntity
  8
Layer_1
 62
7
100
AcDbPolyline
 90
4
 70
0
 10
435.904347
 20
311.194858
 30
0.0
 10
445.926335
 20
301.172871
 30
0.0
 10
504.328624
 20
359.575167
 30
0.0
 10
494.306637
 20
369.597147
 30
0.0
  0
LWPOLYLINE
  5
160
100
AcDbEntity
  8
Layer_1
 62
7
100
AcDbPolyline
 90
2
 70
0
 10
552.708926
 20
427.999437
 30
0.0
 10
494.306637
 20
369.597147
 30
0.0
  0
LWPOLYLINE
  5
161
100
AcDbEntity
  8
Layer_1
 62
7
100
AcDbPolyline
 90
2
 70
0
 10
562.730913
 20
417.977457
 30
0.0
 10
621.133202
 20
476.379746
 30
0.0
  0
LWPOLYLINE
  5
162
100
AcDbEntity
  8
Layer_1
 62
7
100
AcDbPolyline
 90
2
 70
0
 10
611.111215
 20
486.401726
 30
0.0
 10
631.155190
 20
506.445701
 30
0.0
  0
LWPOLYLINE
  5
163
100
AcDbEntity
  8
Layer_1
 62
7
100
AcDbPolyline
 90
2
 70
0
 10
329.121754
 20
184.368294
 30
0.0
 10
319.099768
 20
194.390280
 30
0.0
  0
LWPOLYLINE
  5
164
100
AcDbEntity
  8
Layer_1
 62
7
100
AcDbPolyline
 90
2
 70
0
 10
621.133202
 20
476.379746
 30
0.0
 10
611.111215
 20
486.401726
 30
0.0
  0
LWPOLYLINE
  5
165
100
AcDbEntity
  8
Layer_1
 62
7
100
AcDbPolyline
 90
2
 70
0
 10
552.708926
 20
427.999437
 30
0.0
 10
562.730913
 20
417.977457
 30
0.0
  0
LWPOLYLINE
  5
166
100
AcDbEntity
  8
Layer_1
 62
7
100
AcDbPolyline
 90
2
 70
0
 10
287.629087
 20
-322.899676
 30
0.0
 10
287.629087
 20
-294.553217
 30
0.0
  0
LWPOLYLINE
  5
167
100
AcDbEntity
  8
Layer_1
 62
7
100
AcDbPolyline
 90
3
 70
0
 10
301.802315
 20
-294.553217
 30
0.0
 10
301.802315
 20
-211.959910
 30
0.0
 10
287.629087
 20
-211.959910
 30
0.0
  0
LWPOLYLINE
  5
168
100
AcDbEntity
  8
Layer_1
 62
7
100
AcDbPolyline
 90
2
 70
0
 10
287.629087
 20
-129.366596
 30
0.0
 10
287.629087
 20
-211.959910
 30
0.0
  0
LWPOLYLINE
  5
169
100
AcDbEntity
  8
Layer_1
 62
7
100
AcDbPolyline
 90
4
 70
0
 10
287.629087
 20
-129.366596
 30
0.0
 10
301.802315
 20
-129.366596
 30
0.0
 10
301.802315
 20
-46.773290
 30
0.0
 10
287.629087
 20
-46.773290
 30
0.0
  0
LWPOLYLINE
  5
16a
100
AcDbEntity
  8
Layer_1
 62
7
100
AcDbPolyline
 90
2
 70
0
 10
287.629087
 20
35.820024
 30
0.0
 10
287.629087
 20
-46.773290
 30
0.0
  0
LWPOLYLINE
  5
16b
100
AcDbEntity
  8
Layer_1
 62
7
100
AcDbPolyline
 90
2
 70
0
 10
301.802315
 20
35.820024
 30
0.0
 10
301.802315
 20
118.413333
 30
0.0
  0
LWPOLYLINE
  5
16c
100
AcDbEntity
  8
Layer_1
 62
7
100
AcDbPolyline
 90
2
 70
0
 10
287.629087
 20
118.413333
 30
0.0
 10
287.629087
 20
146.759789
 30
0.0
  0
LWPOLYLINE
  5
16d
100
AcDbEntity
  8
Layer_1
 62
7
100
AcDbPolyline
 90
2
 70
0
 10
301.802315
 20
-294.553217
 30
0.0
 10
287.629087
 20
-294.553217
 30
0.0
  0
LWPOLYLINE
  5
16e
100
AcDbEntity
  8
Layer_1
 62
7
100
AcDbPolyline
 90
2
 70
0
 10
301.802315
 20
118.413333
 30
0.0
 10
287.629087
 20
118.413333
 30
0.0
  0
LWPOLYLINE
  5
16f
100
AcDbEntity
  8
Layer_1
 62
7
100
AcDbPolyline
 90
2
 70
0
 10
287.629087
 20
35.820024
 30
0.0
 10
301.802315
 20
35.820024
 30
0.0
  0
LWPOLYLINE
  5
170
100
AcDbEntity
  8
Layer_1
 62
7
100
AcDbPolyline
 90
2
 70
0
 10
631.155190
 20
-682.585609
 30
0.0
 10
611.111215
 20
-662.541635
 30
0.0
  0
LWPOLYLINE
  5
171
100
AcDbEntity
  8
Layer_1
 62
7
100
AcDbPolyline
 90
3
 70
0
 10
621.133202
 20
-652.519610
 30
0.0
 10
562.730913
 20
-594.117343
 30
0.0
 10
552.708926
 20
-604.139360
 30
0.0
  0
LWPOLYLINE
  5
172
100
AcDbEntity
  8
Layer_1
 62
7
100
AcDbPolyline
 90
2
 70
0
 10
494.306637
 20
-545.737034
 30
0.0
 10
552.708926
 20
-604.139360
 30
0.0
  0
LWPOLYLINE
  5
173
100
AcDbEntity
  8
Layer_1
 62
7
100
AcDbPolyline
 90
4
 70
0
 10
494.306637
 20
-545.737034
 30
0.0
 10
504.328624
 20
-535.715054
 30
0.0
 10
445.926335
 20
-477.312757
 30
0.0
 10
435.904347
 20
-487.334744
 30
0.0
  0
LWPOLYLINE
  5
174
100
AcDbEntity
  8
Layer_1
 62
7
100
AcDbPolyline
 90
2
 70
0
 10
377.502058
 20
-428.932455
 30
0.0
 10
435.904347
 20
-487.334744
 30
0.0
  0
LWPOLYLINE
  5
175
100
AcDbEntity
  8
Layer_1
 62
7
100
AcDbPolyline
 90
2
 70
0
 10
387.524045
 20
-418.910468
 30
0.0
 10
329.121754
 20
-360.508178
 30
0.0
  0
LWPOLYLINE
  5
176
100
AcDbEntity
  8
Layer_1
 62
7
100
AcDbPolyline
 90
2
 70
0
 10
319.099768
 20
-370.530166
 30
0.0
 10
299.055796
 20
-350.486191
 30
0.0
  0
LWPOLYLINE
  5
177
100
AcDbEntity
  8
Layer_1
 62
7
100
AcDbPolyline
 90
2
 70
0
 10
621.133202
 20
-652.519610
 30
0.0
 10
611.111215
 20
-662.541635
 30
0.0
  0
LWPOLYLINE
  5
178
100
AcDbEntity
  8
Layer_1
 62
7
100
AcDbPolyline
 90
2
 70
0
 10
329.121754
 20
-360.508178
 30
0.0
 10
319.099768
 20
-370.530166
 30
0.0
  0
LWPOLYLINE
  5
179
100
AcDbEntity
  8
Layer_1
 62
7
100
AcDbPolyline
 90
2
 70
0
 10
377.502058
 20
-428.932455
 30
0.0
 10
387.524045
 20
-418.910468
 30
0.0
  0
LWPOLYLINE
  5
17a
100
AcDbEntity
  8
Layer_1
 62
7
100
AcDbPolyline
 90
2
 70
0
 10
1128.401201
 20
-694.012309
 30
0.0
 10
1100.054726
 20
-694.012309
 30
0.0
  0
LWPOLYLINE
  5
17b
100
AcDbEntity
  8
Layer_1
 62
7
100
AcDbPolyline
 90
3
 70
0
 10
1100.054726
 20
-679.839034
 30
0.0
 10
1017.461405
 20
-679.839034
 30
0.0
 10
1017.461405
 20
-694.012309
 30
0.0
  0
LWPOLYLINE
  5
17c
100
AcDbEntity
  8
Layer_1
 62
7
100
AcDbPolyline
 90
2
 70
0
 10
934.868098
 20
-694.012309
 30
0.0
 10
1017.461405
 20
-694.012309
 30
0.0
  0
LWPOLYLINE
  5
17d
100
AcDbEntity
  8
Layer_1
 62
7
100
AcDbPolyline
 90
4
 70
0
 10
934.868098
 20
-694.012309
 30
0.0
 10
934.868098
 20
-679.839034
 30
0.0
 10
852.274785
 20
-679.839034
 30
0.0
 10
852.274785
 20
-694.012309
 30
0.0
  0
LWPOLYLINE
  5
17e
100
AcDbEntity
  8
Layer_1
 62
7
100
AcDbPolyline
 90
2
 70
0
 10
769.681478
 20
-694.012309
 30
0.0
 10
852.274785
 20
-694.012309
 30
0.0
  0
LWPOLYLINE
  5
17f
100
AcDbEntity
  8
Layer_1
 62
7
100
AcDbPolyline
 90
2
 70
0
 10
769.681478
 20
-679.839034
 30
0.0
 10
687.088164
 20
-679.839034
 30
0.0
  0
LWPOLYLINE
  5
180
100
AcDbEntity
  8
Layer_1
 62
7
100
AcDbPolyline
 90
2
 70
0
 10
687.088164
 20
-694.012309
 30
0.0
 10
658.741712
 20
-694.012309
 30
0.0
  0
LWPOLYLINE
  5
181
100
AcDbEntity
  8
Layer_1
 62
7
100
AcDbPolyline
 90
2
 70
0
 10
1100.054726
 20
-679.839034
 30
0.0
 10
1100.054726
 20
-694.012309
 30
0.0
  0
LWPOLYLINE
  5
182
100
AcDbEntity
  8
Layer_1
 62
7
100
AcDbPolyline
 90
2
 70
0
 10
687.088164
 20
-679.839034
 30
0.0
 10
687.088164
 20
-694.012309
 30
0.0
  0
LWPOLYLINE
  5
183
100
AcDbEntity
  8
Layer_1
 62
7
100
AcDbPolyline
 90
2
 70
0
 10
769.681478
 20
-694.012309
 30
0.0
 10
769.681478
 20
-679.839034
 30
0.0
  0
LWPOLYLINE
  5
184
100
AcDbEntity
  8
Layer_1
 62
7
100
AcDbPolyline
 90
2
 70
0
 10
1488.087097
 20
-350.486191
 30
0.0
 10
1468.043122
 20
-370.530166
 30
0.0
  0
LWPOLYLINE
  5
185
100
AcDbEntity
  8
Layer_1
 62
7
100
AcDbPolyline
 90
3
 70
0
 10
1458.021097
 20
-360.508178
 30
0.0
 10
1399.618823
 20
-418.910468
 30
0.0
 10
1409.640848
 20
-428.932455
 30
0.0
  0
LWPOLYLINE
  5
186
100
AcDbEntity
  8
Layer_1
 62
7
100
AcDbPolyline
 90
2
 70
0
 10
1351.238498
 20
-487.334744
 30
0.0
 10
1409.640848
 20
-428.932455
 30
0.0
  0
LWPOLYLINE
  5
187
100
AcDbEntity
  8
Layer_1
 62
7
100
AcDbPolyline
 90
4
 70
0
 10
1351.238498
 20
-487.334744
 30
0.0
 10
1341.216548
 20
-477.312757
 30
0.0
 10
1282.814274
 20
-535.715054
 30
0.0
 10
1292.836224
 20
-545.737034
 30
0.0
  0
LWPOLYLINE
  5
188
100
AcDbEntity
  8
Layer_1
 62
7
100
AcDbPolyline
 90
2
 70
0
 10
1234.433950
 20
-604.139360
 30
0.0
 10
1292.836224
 20
-545.737034
 30
0.0
  0
LWPOLYLINE
  5
189
100
AcDbEntity
  8
Layer_1
 62
7
100
AcDbPolyline
 90
2
 70
0
 10
1224.412000
 20
-594.117343
 30
0.0
 10
1166.009651
 20
-652.519610
 30
0.0
  0
LWPOLYLINE
  5
18a
100
AcDbEntity
  8
Layer_1
 62
7
100
AcDbPolyline
 90
2
 70
0
 10
1176.031675
 20
-662.541635
 30
0.0
 10
1155.987701
 20
-682.585609
 30
0.0
  0
LWPOLYLINE
  5
18b
100
AcDbEntity
  8
Layer_1
 62
7
100
AcDbPolyline
 90
2
 70
0
 10
1458.021097
 20
-360.508178
 30
0.0
 10
1468.043122
 20
-370.530166
 30
0.0
  0
LWPOLYLINE
  5
18c
100
AcDbEntity
  8
Layer_1
 62
7
100
AcDbPolyline
 90
2
 70
0
 10
1166.009651
 20
-652.519610
 30
0.0
 10
1176.031675
 20
-662.541635
 30
0.0
  0
SPLINE
  5
18d
100
AcDbEntity
  8
Layer_1
 62
7
100
AcDbSpline
 70
8
 71
3
 72
8
 73
4
 74
0
 40
0
 40
0
 40
0
 40
0
 40
1
 40
1
 40
1
 40
1
 10
1170.866951
 20
-433.860773
 30
0.0
 10
1170.866951
 20
-433.860773
 30
0.0
 10
1211.008150
 20
-447.882562
 30
0.0
 10
1211.008150
 20
-447.882562
 30
0.0
  0
SPLINE
  5
18e
100
AcDbEntity
  8
Layer_1
 62
7
100
AcDbSpline
 70
8
 71
3
 72
8
 73
4
 74
0
 40
0
 40
0
 40
0
 40
0
 40
1
 40
1
 40
1
 40
1
 10
1211.008150
 20
-447.882562
 30
0.0
 10
1224.762331
 20
-462.993876
 30
0.0
 10
1226.502058
 20
-485.514179
 30
0.0
 10
1215.231958
 20
-502.558655
 30
0.0
  0
SPLINE
  5
18f
100
AcDbEntity
  8
Layer_1
 62
7
100
AcDbSpline
 70
8
 71
3
 72
8
 73
4
 74
0
 40
0
 40
0
 40
0
 40
0
 40
1
 40
1
 40
1
 40
1
 10
1215.231958
 20
-502.558655
 30
0.0
 10
1203.961858
 20
-519.603130
 30
0.0
 10
1182.558746
 20
-526.820992
 30
0.0
 10
1163.268248
 20
-520.082596
 30
0.0
  0
SPLINE
  5
190
100
AcDbEntity
  8
Layer_1
 62
7
100
AcDbSpline
 70
8
 71
3
 72
8
 73
4
 74
0
 40
0
 40
0
 40
0
 40
0
 40
1
 40
1
 40
1
 40
1
 10
1163.268248
 20
-520.082596
 30
0.0
 10
1143.977750
 20
-513.344199
 30
0.0
 10
1131.723973
 20
-494.369594
 30
0.0
 10
1133.517821
 20
-474.014953
 30
0.0
  0
SPLINE
  5
191
100
AcDbEntity
  8
Layer_1
 62
7
100
AcDbSpline
 70
8
 71
3
 72
8
 73
4
 74
0
 40
0
 40
0
 40
0
 40
0
 40
1
 40
1
 40
1
 40
1
 10
1133.517821
 20
-474.014953
 30
0.0
 10
1135.311669
 20
-453.660312
 30
0.0
 10
1150.695244
 20
-437.121377
 30
0.0
 10
1170.866951
 20
-433.860773
 30
0.0
  0
LWPOLYLINE
  5
192
100
AcDbEntity
  8
Layer_1
 62
7
100
AcDbPolyline
 90
2
 70
0
 10
1234.433950
 20
-604.139360
 30
0.0
 10
1224.412000
 20
-594.117343
 30
0.0
  0
LWPOLYLINE
  5
193
100
AcDbEntity
  8
Layer_1
 62
7
100
AcDbPolyline
 90
1
 70
1
 10
1170.866951
 20
-433.860773
 30
0.0
  0
LWPOLYLINE
  5
194
100
AcDbEntity
  8
Layer_1
 62
7
100
AcDbPolyline
 90
7
 70
1
 10
501.777821
 20
7.440819
 30
0.0
 10
394.061285
 20
7.440819
 30
0.0
 10
394.061285
 20
220.039240
 30
0.0
 10
439.415622
 20
220.039240
 30
0.0
 10
439.415622
 20
251.220344
 30
0.0
 10
501.777821
 20
251.220344
 30
0.0
 10
501.777821
 20
220.039240
 30
0.0
  0
LWPOLYLINE
  5
195
100
AcDbEntity
  8
Layer_1
 62
7
100
AcDbPolyline
 90
2
 70
0
 10
1347.727298
 20
220.039240
 30
0.0
 10
1393.081598
 20
220.039240
 30
0.0
  0
LWPOLYLINE
  5
196
100
AcDbEntity
  8
Layer_1
 62
7
100
AcDbPolyline
 90
3
 70
0
 10
1393.081598
 20
7.440819
 30
0.0
 10
1285.365024
 20
7.440819
 30
0.0
 10
1285.365024
 20
220.039240
 30
0.0
  0
SPLINE
  5
197
100
AcDbEntity
  8
Layer_1
 62
7
100
AcDbSpline
 70
8
 71
3
 72
8
 73
4
 74
0
 40
0
 40
0
 40
0
 40
0
 40
1
 40
1
 40
1
 40
1
 10
960.592303
 20
-545.209349
 30
0.0
 10
960.598490
 20
-521.406274
 30
0.0
 10
947.903254
 20
-499.408679
 30
0.0
 10
927.290217
 20
-487.505355
 30
0.0
  0
SPLINE
  5
198
100
AcDbEntity
  8
Layer_1
 62
7
100
AcDbSpline
 70
8
 71
3
 72
8
 73
4
 74
0
 40
0
 40
0
 40
0
 40
0
 40
1
 40
1
 40
1
 40
1
 10
927.290217
 20
-487.505355
 30
0.0
 10
906.677180
 20
-475.602031
 30
0.0
 10
881.279085
 20
-475.602031
 30
0.0
 10
860.666049
 20
-487.505355
 30
0.0
  0
SPLINE
  5
199
100
AcDbEntity
  8
Layer_1
 62
7
100
AcDbSpline
 70
8
 71
3
 72
8
 73
4
 74
0
 40
0
 40
0
 40
0
 40
0
 40
1
 40
1
 40
1
 40
1
 10
860.666049
 20
-487.505355
 30
0.0
 10
840.053012
 20
-499.408679
 30
0.0
 10
827.357776
 20
-521.406274
 30
0.0
 10
827.363962
 20
-545.209349
 30
0.0
  0
SPLINE
  5
19a
100
AcDbEntity
  8
Layer_1
 62
7
100
AcDbSpline
 70
8
 71
3
 72
8
 73
4
 74
0
 40
0
 40
0
 40
0
 40
0
 40
1
 40
1
 40
1
 40
1
 10
827.363962
 20
-545.209349
 30
0.0
 10
827.357776
 20
-569.012423
 30
0.0
 10
840.053012
 20
-591.010019
 30
0.0
 10
860.666049
 20
-602.913342
 30
0.0
  0
SPLINE
  5
19b
100
AcDbEntity
  8
Layer_1
 62
7
100
AcDbSpline
 70
8
 71
3
 72
8
 73
4
 74
0
 40
0
 40
0
 40
0
 40
0
 40
1
 40
1
 40
1
 40
1
 10
860.666049
 20
-602.913342
 30
0.0
 10
881.279085
 20
-614.816666
 30
0.0
 10
906.677180
 20
-614.816666
 30
0.0
 10
927.290217
 20
-602.913342
 30
0.0
  0
SPLINE
  5
19c
100
AcDbEntity
  8
Layer_1
 62
7
100
AcDbSpline
 70
8
 71
3
 72
8
 73
4
 74
0
 40
0
 40
0
 40
0
 40
0
 40
1
 40
1
 40
1
 40
1
 10
927.290217
 20
-602.913342
 30
0.0
 10
947.903254
 20
-591.010019
 30
0.0
 10
960.598490
 20
-569.012423
 30
0.0
 10
960.592303
 20
-545.209349
 30
0.0
  0
LWPOLYLINE
  5
19d
100
AcDbEntity
  8
Layer_1
 62
7
100
AcDbPolyline
 90
2
 70
0
 10
1393.081598
 20
220.039240
 30
0.0
 10
1393.081598
 20
7.440819
 30
0.0
  0
SPLINE
  5
19e
100
AcDbEntity
  8
Layer_1
 62
7
100
AcDbSpline
 70
8
 71
3
 72
8
 73
4
 74
0
 40
0
 40
0
 40
0
 40
0
 40
1
 40
1
 40
1
 40
1
 10
902.335574
 20
-465.079980
 30
0.0
 10
902.335574
 20
-463.459625
 30
0.0
 10
901.471125
 20
-461.962356
 30
0.0
 10
900.067857
 20
-461.152179
 30
0.0
  0
SPLINE
  5
19f
100
AcDbEntity
  8
Layer_1
 62
7
100
AcDbSpline
 70
8
 71
3
 72
8
 73
4
 74
0
 40
0
 40
0
 40
0
 40
0
 40
1
 40
1
 40
1
 40
1
 10
900.067857
 20
-461.152179
 30
0.0
 10
898.664589
 20
-460.342002
 30
0.0
 10
896.935691
 20
-460.342002
 30
0.0
 10
895.532423
 20
-461.152179
 30
0.0
  0
SPLINE
  5
1a0
100
AcDbEntity
  8
Layer_1
 62
7
100
AcDbSpline
 70
8
 71
3
 72
8
 73
4
 74
0
 40
0
 40
0
 40
0
 40
0
 40
1
 40
1
 40
1
 40
1
 10
895.532423
 20
-461.152179
 30
0.0
 10
894.129155
 20
-461.962356
 30
0.0
 10
893.264707
 20
-463.459625
 30
0.0
 10
893.264707
 20
-465.079980
 30
0.0
  0
SPLINE
  5
1a1
100
AcDbEntity
  8
Layer_1
 62
7
100
AcDbSpline
 70
8
 71
3
 72
8
 73
4
 74
0
 40
0
 40
0
 40
0
 40
0
 40
1
 40
1
 40
1
 40
1
 10
893.264707
 20
-465.079980
 30
0.0
 10
893.264707
 20
-466.700334
 30
0.0
 10
894.129155
 20
-468.197603
 30
0.0
 10
895.532423
 20
-469.007780
 30
0.0
  0
SPLINE
  5
1a2
100
AcDbEntity
  8
Layer_1
 62
7
100
AcDbSpline
 70
8
 71
3
 72
8
 73
4
 74
0
 40
0
 40
0
 40
0
 40
0
 40
1
 40
1
 40
1
 40
1
 10
895.532423
 20
-469.007780
 30
0.0
 10
896.935691
 20
-469.817958
 30
0.0
 10
898.664589
 20
-469.817958
 30
0.0
 10
900.067857
 20
-469.007780
 30
0.0
  0
SPLINE
  5
1a3
100
AcDbEntity
  8
Layer_1
 62
7
100
AcDbSpline
 70
8
 71
3
 72
8
 73
4
 74
0
 40
0
 40
0
 40
0
 40
0
 40
1
 40
1
 40
1
 40
1
 10
900.067857
 20
-469.007780
 30
0.0
 10
901.471125
 20
-468.197603
 30
0.0
 10
902.335574
 20
-466.700334
 30
0.0
 10
902.335574
 20
-465.079980
 30
0.0
  0
LWPOLYLINE
  5
1a4
100
AcDbEntity
  8
Layer_1
 62
7
100
AcDbPolyline
 90
1
 70
1
 10
960.592303
 20
-545.209349
 30
0.0
  0
SPLINE
  5
1a5
100
AcDbEntity
  8
Layer_1
 62
7
100
AcDbSpline
 70
8
 71
3
 72
8
 73
4
 74
0
 40
0
 40
0
 40
0
 40
0
 40
1
 40
1
 40
1
 40
1
 10
827.208487
 20
-581.964081
 30
0.0
 10
827.210352
 20
-580.342485
 30
0.0
 10
826.346313
 20
-578.843270
 30
0.0
 10
824.942280
 20
-578.031934
 30
0.0
  0
SPLINE
  5
1a6
100
AcDbEntity
  8
Layer_1
 62
7
100
AcDbSpline
 70
8
 71
3
 72
8
 73
4
 74
0
 40
0
 40
0
 40
0
 40
0
 40
1
 40
1
 40
1
 40
1
 10
824.942280
 20
-578.031934
 30
0.0
 10
823.538247
 20
-577.220597
 30
0.0
 10
821.807868
 20
-577.220597
 30
0.0
 10
820.403835
 20
-578.031934
 30
0.0
  0
SPLINE
  5
1a7
100
AcDbEntity
  8
Layer_1
 62
7
100
AcDbSpline
 70
8
 71
3
 72
8
 73
4
 74
0
 40
0
 40
0
 40
0
 40
0
 40
1
 40
1
 40
1
 40
1
 10
820.403835
 20
-578.031934
 30
0.0
 10
818.999802
 20
-578.843270
 30
0.0
 10
818.135762
 20
-580.342485
 30
0.0
 10
818.137627
 20
-581.964081
 30
0.0
  0
SPLINE
  5
1a8
100
AcDbEntity
  8
Layer_1
 62
7
100
AcDbSpline
 70
8
 71
3
 72
8
 73
4
 74
0
 40
0
 40
0
 40
0
 40
0
 40
1
 40
1
 40
1
 40
1
 10
818.137627
 20
-581.964081
 30
0.0
 10
818.135762
 20
-583.585676
 30
0.0
 10
818.999802
 20
-585.084891
 30
0.0
 10
820.403835
 20
-585.896228
 30
0.0
  0
SPLINE
  5
1a9
100
AcDbEntity
  8
Layer_1
 62
7
100
AcDbSpline
 70
8
 71
3
 72
8
 73
4
 74
0
 40
0
 40
0
 40
0
 40
0
 40
1
 40
1
 40
1
 40
1
 10
820.403835
 20
-585.896228
 30
0.0
 10
821.807868
 20
-586.707564
 30
0.0
 10
823.538247
 20
-586.707564
 30
0.0
 10
824.942280
 20
-585.896228
 30
0.0
  0
SPLINE
  5
1aa
100
AcDbEntity
  8
Layer_1
 62
7
100
AcDbSpline
 70
8
 71
3
 72
8
 73
4
 74
0
 40
0
 40
0
 40
0
 40
0
 40
1
 40
1
 40
1
 40
1
 10
824.942280
 20
-585.896228
 30
0.0
 10
826.346313
 20
-585.084891
 30
0.0
 10
827.210352
 20
-583.585676
 30
0.0
 10
827.208487
 20
-581.964081
 30
0.0
  0
LWPOLYLINE
  5
1ab
100
AcDbEntity
  8
Layer_1
 62
7
100
AcDbPolyline
 90
1
 70
1
 10
902.335574
 20
-465.079980
 30
0.0
  0
SPLINE
  5
1ac
100
AcDbEntity
  8
Layer_1
 62
7
100
AcDbSpline
 70
8
 71
3
 72
8
 73
4
 74
0
 40
0
 40
0
 40
0
 40
0
 40
1
 40
1
 40
1
 40
1
 10
965.996638
 20
-588.583993
 30
0.0
 10
965.996638
 20
-586.963639
 30
0.0
 10
965.132189
 20
-585.466370
 30
0.0
 10
963.728921
 20
-584.656192
 30
0.0
  0
SPLINE
  5
1ad
100
AcDbEntity
  8
Layer_1
 62
7
100
AcDbSpline
 70
8
 71
3
 72
8
 73
4
 74
0
 40
0
 40
0
 40
0
 40
0
 40
1
 40
1
 40
1
 40
1
 10
963.728921
 20
-584.656192
 30
0.0
 10
962.325653
 20
-583.846015
 30
0.0
 10
960.596756
 20
-583.846015
 30
0.0
 10
959.193488
 20
-584.656192
 30
0.0
  0
SPLINE
  5
1ae
100
AcDbEntity
  8
Layer_1
 62
7
100
AcDbSpline
 70
8
 71
3
 72
8
 73
4
 74
0
 40
0
 40
0
 40
0
 40
0
 40
1
 40
1
 40
1
 40
1
 10
959.193488
 20
-584.656192
 30
0.0
 10
957.790219
 20
-585.466370
 30
0.0
 10
956.925771
 20
-586.963639
 30
0.0
 10
956.925771
 20
-588.583993
 30
0.0
  0
SPLINE
  5
1af
100
AcDbEntity
  8
Layer_1
 62
7
100
AcDbSpline
 70
8
 71
3
 72
8
 73
4
 74
0
 40
0
 40
0
 40
0
 40
0
 40
1
 40
1
 40
1
 40
1
 10
956.925771
 20
-588.583993
 30
0.0
 10
956.925771
 20
-590.204348
 30
0.0
 10
957.790219
 20
-591.701617
 30
0.0
 10
959.193488
 20
-592.511794
 30
0.0
  0
SPLINE
  5
1b0
100
AcDbEntity
  8
Layer_1
 62
7
100
AcDbSpline
 70
8
 71
3
 72
8
 73
4
 74
0
 40
0
 40
0
 40
0
 40
0
 40
1
 40
1
 40
1
 40
1
 10
959.193488
 20
-592.511794
 30
0.0
 10
960.596756
 20
-593.321971
 30
0.0
 10
962.325653
 20
-593.321971
 30
0.0
 10
963.728921
 20
-592.511794
 30
0.0
  0
SPLINE
  5
1b1
100
AcDbEntity
  8
Layer_1
 62
7
100
AcDbSpline
 70
8
 71
3
 72
8
 73
4
 74
0
 40
0
 40
0
 40
0
 40
0
 40
1
 40
1
 40
1
 40
1
 10
963.728921
 20
-592.511794
 30
0.0
 10
965.132189
 20
-591.701617
 30
0.0
 10
965.996638
 20
-590.204348
 30
0.0
 10
965.996638
 20
-588.583993
 30
0.0
  0
LWPOLYLINE
  5
1b2
100
AcDbEntity
  8
Layer_1
 62
7
100
AcDbPolyline
 90
1
 70
1
 10
827.208487
 20
-581.964081
 30
0.0
  0
SPLINE
  5
1b3
100
AcDbEntity
  8
Layer_1
 62
7
100
AcDbSpline
 70
8
 71
3
 72
8
 73
4
 74
0
 40
0
 40
0
 40
0
 40
0
 40
1
 40
1
 40
1
 40
1
 10
384.353465
 20
184.845719
 30
0.0
 10
384.354571
 20
186.365537
 30
0.0
 10
383.544392
 20
187.770381
 30
0.0
 10
382.228375
 20
188.530609
 30
0.0
  0
SPLINE
  5
1b4
100
AcDbEntity
  8
Layer_1
 62
7
100
AcDbSpline
 70
8
 71
3
 72
8
 73
4
 74
0
 40
0
 40
0
 40
0
 40
0
 40
1
 40
1
 40
1
 40
1
 10
382.228375
 20
188.530609
 30
0.0
 10
380.912358
 20
189.290838
 30
0.0
 10
379.290638
 20
189.290838
 30
0.0
 10
377.974621
 20
188.530609
 30
0.0
  0
SPLINE
  5
1b5
100
AcDbEntity
  8
Layer_1
 62
7
100
AcDbSpline
 70
8
 71
3
 72
8
 73
4
 74
0
 40
0
 40
0
 40
0
 40
0
 40
1
 40
1
 40
1
 40
1
 10
377.974621
 20
188.530609
 30
0.0
 10
376.658603
 20
187.770381
 30
0.0
 10
375.848425
 20
186.365537
 30
0.0
 10
375.849531
 20
184.845719
 30
0.0
  0
SPLINE
  5
1b6
100
AcDbEntity
  8
Layer_1
 62
7
100
AcDbSpline
 70
8
 71
3
 72
8
 73
4
 74
0
 40
0
 40
0
 40
0
 40
0
 40
1
 40
1
 40
1
 40
1
 10
375.849531
 20
184.845719
 30
0.0
 10
375.848425
 20
183.325901
 30
0.0
 10
376.658603
 20
181.921057
 30
0.0
 10
377.974621
 20
181.160829
 30
0.0
  0
SPLINE
  5
1b7
100
AcDbEntity
  8
Layer_1
 62
7
100
AcDbSpline
 70
8
 71
3
 72
8
 73
4
 74
0
 40
0
 40
0
 40
0
 40
0
 40
1
 40
1
 40
1
 40
1
 10
377.974621
 20
181.160829
 30
0.0
 10
379.290638
 20
180.400600
 30
0.0
 10
380.912358
 20
180.400600
 30
0.0
 10
382.228375
 20
181.160829
 30
0.0
  0
SPLINE
  5
1b8
100
AcDbEntity
  8
Layer_1
 62
7
100
AcDbSpline
 70
8
 71
3
 72
8
 73
4
 74
0
 40
0
 40
0
 40
0
 40
0
 40
1
 40
1
 40
1
 40
1
 10
382.228375
 20
181.160829
 30
0.0
 10
383.544392
 20
181.921057
 30
0.0
 10
384.354571
 20
183.325901
 30
0.0
 10
384.353465
 20
184.845719
 30
0.0
  0
LWPOLYLINE
  5
1b9
100
AcDbEntity
  8
Layer_1
 62
7
100
AcDbPolyline
 90
1
 70
1
 10
965.996638
 20
-588.583993
 30
0.0
  0
SPLINE
  5
1ba
100
AcDbEntity
  8
Layer_1
 62
7
100
AcDbSpline
 70
8
 71
3
 72
8
 73
4
 74
0
 40
0
 40
0
 40
0
 40
0
 40
1
 40
1
 40
1
 40
1
 10
513.571144
 20
186.281471
 30
0.0
 10
513.572046
 20
187.801154
 30
0.0
 10
512.761823
 20
189.205786
 30
0.0
 10
511.445889
 20
189.965888
 30
0.0
  0
SPLINE
  5
1bb
100
AcDbEntity
  8
Layer_1
 62
7
100
AcDbSpline
 70
8
 71
3
 72
8
 73
4
 74
0
 40
0
 40
0
 40
0
 40
0
 40
1
 40
1
 40
1
 40
1
 10
511.445889
 20
189.965888
 30
0.0
 10
510.129955
 20
190.725990
 30
0.0
 10
508.508397
 20
190.725990
 30
0.0
 10
507.192463
 20
189.965888
 30
0.0
  0
SPLINE
  5
1bc
100
AcDbEntity
  8
Layer_1
 62
7
100
AcDbSpline
 70
8
 71
3
 72
8
 73
4
 74
0
 40
0
 40
0
 40
0
 40
0
 40
1
 40
1
 40
1
 40
1
 10
507.192463
 20
189.965888
 30
0.0
 10
505.876529
 20
189.205786
 30
0.0
 10
505.066306
 20
187.801154
 30
0.0
 10
505.067209
 20
186.281471
 30
0.0
  0
SPLINE
  5
1bd
100
AcDbEntity
  8
Layer_1
 62
7
100
AcDbSpline
 70
8
 71
3
 72
8
 73
4
 74
0
 40
0
 40
0
 40
0
 40
0
 40
1
 40
1
 40
1
 40
1
 10
505.067209
 20
186.281471
 30
0.0
 10
505.066306
 20
184.761788
 30
0.0
 10
505.876529
 20
183.357156
 30
0.0
 10
507.192463
 20
182.597054
 30
0.0
  0
SPLINE
  5
1be
100
AcDbEntity
  8
Layer_1
 62
7
100
AcDbSpline
 70
8
 71
3
 72
8
 73
4
 74
0
 40
0
 40
0
 40
0
 40
0
 40
1
 40
1
 40
1
 40
1
 10
507.192463
 20
182.597054
 30
0.0
 10
508.508397
 20
181.836952
 30
0.0
 10
510.129955
 20
181.836952
 30
0.0
 10
511.445889
 20
182.597054
 30
0.0
  0
SPLINE
  5
1bf
100
AcDbEntity
  8
Layer_1
 62
7
100
AcDbSpline
 70
8
 71
3
 72
8
 73
4
 74
0
 40
0
 40
0
 40
0
 40
0
 40
1
 40
1
 40
1
 40
1
 10
511.445889
 20
182.597054
 30
0.0
 10
512.761823
 20
183.357156
 30
0.0
 10
513.572046
 20
184.761788
 30
0.0
 10
513.571144
 20
186.281471
 30
0.0
  0
LWPOLYLINE
  5
1c0
100
AcDbEntity
  8
Layer_1
 62
7
100
AcDbPolyline
 90
1
 70
1
 10
384.353465
 20
184.845719
 30
0.0
  0
SPLINE
  5
1c1
100
AcDbEntity
  8
Layer_1
 62
7
100
AcDbSpline
 70
8
 71
3
 72
8
 73
4
 74
0
 40
0
 40
0
 40
0
 40
0
 40
1
 40
1
 40
1
 40
1
 10
578.400370
 20
-39.484265
 30
0.0
 10
578.400370
 20
-37.965182
 30
0.0
 10
577.589949
 20
-36.561491
 30
0.0
 10
576.274385
 20
-35.801950
 30
0.0
  0
SPLINE
  5
1c2
100
AcDbEntity
  8
Layer_1
 62
7
100
AcDbSpline
 70
8
 71
3
 72
8
 73
4
 74
0
 40
0
 40
0
 40
0
 40
0
 40
1
 40
1
 40
1
 40
1
 10
576.274385
 20
-35.801950
 30
0.0
 10
574.958820
 20
-35.042408
 30
0.0
 10
573.337978
 20
-35.042408
 30
0.0
 10
572.022414
 20
-35.801950
 30
0.0
  0
SPLINE
  5
1c3
100
AcDbEntity
  8
Layer_1
 62
7
100
AcDbSpline
 70
8
 71
3
 72
8
 73
4
 74
0
 40
0
 40
0
 40
0
 40
0
 40
1
 40
1
 40
1
 40
1
 10
572.022414
 20
-35.801950
 30
0.0
 10
570.706849
 20
-36.561491
 30
0.0
 10
569.896428
 20
-37.965182
 30
0.0
 10
569.896428
 20
-39.484265
 30
0.0
  0
SPLINE
  5
1c4
100
AcDbEntity
  8
Layer_1
 62
7
100
AcDbSpline
 70
8
 71
3
 72
8
 73
4
 74
0
 40
0
 40
0
 40
0
 40
0
 40
1
 40
1
 40
1
 40
1
 10
569.896428
 20
-39.484265
 30
0.0
 10
569.896428
 20
-41.003348
 30
0.0
 10
570.706849
 20
-42.407039
 30
0.0
 10
572.022414
 20
-43.166580
 30
0.0
  0
SPLINE
  5
1c5
100
AcDbEntity
  8
Layer_1
 62
7
100
AcDbSpline
 70
8
 71
3
 72
8
 73
4
 74
0
 40
0
 40
0
 40
0
 40
0
 40
1
 40
1
 40
1
 40
1
 10
572.022414
 20
-43.166580
 30
0.0
 10
573.337978
 20
-43.926122
 30
0.0
 10
574.958820
 20
-43.926122
 30
0.0
 10
576.274385
 20
-43.166580
 30
0.0
  0
SPLINE
  5
1c6
100
AcDbEntity
  8
Layer_1
 62
7
100
AcDbSpline
 70
8
 71
3
 72
8
 73
4
 74
0
 40
0
 40
0
 40
0
 40
0
 40
1
 40
1
 40
1
 40
1
 10
576.274385
 20
-43.166580
 30
0.0
 10
577.589949
 20
-42.407039
 30
0.0
 10
578.400370
 20
-41.003348
 30
0.0
 10
578.400370
 20
-39.484265
 30
0.0
  0
LWPOLYLINE
  5
1c7
100
AcDbEntity
  8
Layer_1
 62
7
100
AcDbPolyline
 90
1
 70
1
 10
513.571144
 20
186.281471
 30
0.0
  0
SPLINE
  5
1c8
100
AcDbEntity
  8
Layer_1
 62
7
100
AcDbSpline
 70
8
 71
3
 72
8
 73
4
 74
0
 40
0
 40
0
 40
0
 40
0
 40
1
 40
1
 40
1
 40
1
 10
421.313945
 20
-111.481594
 30
0.0
 10
421.314848
 20
-109.961911
 30
0.0
 10
420.504625
 20
-108.557279
 30
0.0
 10
419.188691
 20
-107.797177
 30
0.0
  0
SPLINE
  5
1c9
100
AcDbEntity
  8
Layer_1
 62
7
100
AcDbSpline
 70
8
 71
3
 72
8
 73
4
 74
0
 40
0
 40
0
 40
0
 40
0
 40
1
 40
1
 40
1
 40
1
 10
419.188691
 20
-107.797177
 30
0.0
 10
417.872757
 20
-107.037075
 30
0.0
 10
416.251198
 20
-107.037075
 30
0.0
 10
414.935264
 20
-107.797177
 30
0.0
  0
SPLINE
  5
1ca
100
AcDbEntity
  8
Layer_1
 62
7
100
AcDbSpline
 70
8
 71
3
 72
8
 73
4
 74
0
 40
0
 40
0
 40
0
 40
0
 40
1
 40
1
 40
1
 40
1
 10
414.935264
 20
-107.797177
 30
0.0
 10
413.619330
 20
-108.557279
 30
0.0
 10
412.809107
 20
-109.961911
 30
0.0
 10
412.810010
 20
-111.481594
 30
0.0
  0
SPLINE
  5
1cb
100
AcDbEntity
  8
Layer_1
 62
7
100
AcDbSpline
 70
8
 71
3
 72
8
 73
4
 74
0
 40
0
 40
0
 40
0
 40
0
 40
1
 40
1
 40
1
 40
1
 10
412.810010
 20
-111.481594
 30
0.0
 10
412.809107
 20
-113.001277
 30
0.0
 10
413.619330
 20
-114.405909
 30
0.0
 10
414.935264
 20
-115.166011
 30
0.0
  0
SPLINE
  5
1cc
100
AcDbEntity
  8
Layer_1
 62
7
100
AcDbSpline
 70
8
 71
3
 72
8
 73
4
 74
0
 40
0
 40
0
 40
0
 40
0
 40
1
 40
1
 40
1
 40
1
 10
414.935264
 20
-115.166011
 30
0.0
 10
416.251198
 20
-115.926113
 30
0.0
 10
417.872757
 20
-115.926113
 30
0.0
 10
419.188691
 20
-115.166011
 30
0.0
  0
SPLINE
  5
1cd
100
AcDbEntity
  8
Layer_1
 62
7
100
AcDbSpline
 70
8
 71
3
 72
8
 73
4
 74
0
 40
0
 40
0
 40
0
 40
0
 40
1
 40
1
 40
1
 40
1
 10
419.188691
 20
-115.166011
 30
0.0
 10
420.504625
 20
-114.405909
 30
0.0
 10
421.314848
 20
-113.001277
 30
0.0
 10
421.313945
 20
-111.481594
 30
0.0
  0
LWPOLYLINE
  5
1ce
100
AcDbEntity
  8
Layer_1
 62
7
100
AcDbPolyline
 90
1
 70
1
 10
578.400370
 20
-39.484265
 30
0.0
  0
SPLINE
  5
1cf
100
AcDbEntity
  8
Layer_1
 62
7
100
AcDbSpline
 70
8
 71
3
 72
8
 73
4
 74
0
 40
0
 40
0
 40
0
 40
0
 40
1
 40
1
 40
1
 40
1
 10
1411.293322
 20
184.845719
 30
0.0
 10
1411.299114
 20
186.368642
 30
0.0
 10
1410.489969
 20
187.778366
 30
0.0
 10
1409.172036
 20
188.541504
 30
0.0
  0
SPLINE
  5
1d0
100
AcDbEntity
  8
Layer_1
 62
7
100
AcDbSpline
 70
8
 71
3
 72
8
 73
4
 74
0
 40
0
 40
0
 40
0
 40
0
 40
1
 40
1
 40
1
 40
1
 10
1409.172036
 20
188.541504
 30
0.0
 10
1407.854102
 20
189.304643
 30
0.0
 10
1406.228668
 20
189.304643
 30
0.0
 10
1404.910735
 20
188.541504
 30
0.0
  0
SPLINE
  5
1d1
100
AcDbEntity
  8
Layer_1
 62
7
100
AcDbSpline
 70
8
 71
3
 72
8
 73
4
 74
0
 40
0
 40
0
 40
0
 40
0
 40
1
 40
1
 40
1
 40
1
 10
1404.910735
 20
188.541504
 30
0.0
 10
1403.592801
 20
187.778366
 30
0.0
 10
1402.783656
 20
186.368642
 30
0.0
 10
1402.789448
 20
184.845719
 30
0.0
  0
SPLINE
  5
1d2
100
AcDbEntity
  8
Layer_1
 62
7
100
AcDbSpline
 70
8
 71
3
 72
8
 73
4
 74
0
 40
0
 40
0
 40
0
 40
0
 40
1
 40
1
 40
1
 40
1
 10
1402.789448
 20
184.845719
 30
0.0
 10
1402.783656
 20
183.322796
 30
0.0
 10
1403.592801
 20
181.913072
 30
0.0
 10
1404.910735
 20
181.149934
 30
0.0
  0
SPLINE
  5
1d3
100
AcDbEntity
  8
Layer_1
 62
7
100
AcDbSpline
 70
8
 71
3
 72
8
 73
4
 74
0
 40
0
 40
0
 40
0
 40
0
 40
1
 40
1
 40
1
 40
1
 10
1404.910735
 20
181.149934
 30
0.0
 10
1406.228668
 20
180.386795
 30
0.0
 10
1407.854102
 20
180.386795
 30
0.0
 10
1409.172036
 20
181.149934
 30
0.0
  0
SPLINE
  5
1d4
100
AcDbEntity
  8
Layer_1
 62
7
100
AcDbSpline
 70
8
 71
3
 72
8
 73
4
 74
0
 40
0
 40
0
 40
0
 40
0
 40
1
 40
1
 40
1
 40
1
 10
1409.172036
 20
181.149934
 30
0.0
 10
1410.489969
 20
181.913072
 30
0.0
 10
1411.299114
 20
183.322796
 30
0.0
 10
1411.293322
 20
184.845719
 30
0.0
  0
LWPOLYLINE
  5
1d5
100
AcDbEntity
  8
Layer_1
 62
7
100
AcDbPolyline
 90
1
 70
1
 10
421.313945
 20
-111.481594
 30
0.0
  0
SPLINE
  5
1d6
100
AcDbEntity
  8
Layer_1
 62
7
100
AcDbSpline
 70
8
 71
3
 72
8
 73
4
 74
0
 40
0
 40
0
 40
0
 40
0
 40
1
 40
1
 40
1
 40
1
 10
1282.075674
 20
186.281471
 30
0.0
 10
1282.075674
 20
187.800555
 30
0.0
 10
1281.265252
 20
189.204247
 30
0.0
 10
1279.949687
 20
189.963789
 30
0.0
  0
SPLINE
  5
1d7
100
AcDbEntity
  8
Layer_1
 62
7
100
AcDbSpline
 70
8
 71
3
 72
8
 73
4
 74
0
 40
0
 40
0
 40
0
 40
0
 40
1
 40
1
 40
1
 40
1
 10
1279.949687
 20
189.963789
 30
0.0
 10
1278.634121
 20
190.723331
 30
0.0
 10
1277.013277
 20
190.723331
 30
0.0
 10
1275.697712
 20
189.963789
 30
0.0
  0
SPLINE
  5
1d8
100
AcDbEntity
  8
Layer_1
 62
7
100
AcDbSpline
 70
8
 71
3
 72
8
 73
4
 74
0
 40
0
 40
0
 40
0
 40
0
 40
1
 40
1
 40
1
 40
1
 10
1275.697712
 20
189.963789
 30
0.0
 10
1274.382146
 20
189.204247
 30
0.0
 10
1273.571724
 20
187.800555
 30
0.0
 10
1273.571724
 20
186.281471
 30
0.0
  0
SPLINE
  5
1d9
100
AcDbEntity
  8
Layer_1
 62
7
100
AcDbSpline
 70
8
 71
3
 72
8
 73
4
 74
0
 40
0
 40
0
 40
0
 40
0
 40
1
 40
1
 40
1
 40
1
 10
1273.571724
 20
186.281471
 30
0.0
 10
1273.571724
 20
184.762386
 30
0.0
 10
1274.382146
 20
183.358694
 30
0.0
 10
1275.697711
 20
182.599152
 30
0.0
  0
SPLINE
  5
1da
100
AcDbEntity
  8
Layer_1
 62
7
100
AcDbSpline
 70
8
 71
3
 72
8
 73
4
 74
0
 40
0
 40
0
 40
0
 40
0
 40
1
 40
1
 40
1
 40
1
 10
1275.697711
 20
182.599152
 30
0.0
 10
1277.013277
 20
181.839610
 30
0.0
 10
1278.634121
 20
181.839610
 30
0.0
 10
1279.949687
 20
182.599152
 30
0.0
  0
SPLINE
  5
1db
100
AcDbEntity
  8
Layer_1
 62
7
100
AcDbSpline
 70
8
 71
3
 72
8
 73
4
 74
0
 40
0
 40
0
 40
0
 40
0
 40
1
 40
1
 40
1
 40
1
 10
1279.949687
 20
182.599152
 30
0.0
 10
1281.265253
 20
183.358694
 30
0.0
 10
1282.075674
 20
184.762386
 30
0.0
 10
1282.075674
 20
186.281471
 30
0.0
  0
LWPOLYLINE
  5
1dc
100
AcDbEntity
  8
Layer_1
 62
7
100
AcDbPolyline
 90
1
 70
1
 10
1411.293322
 20
184.845719
 30
0.0
  0
SPLINE
  5
1dd
100
AcDbEntity
  8
Layer_1
 62
7
100
AcDbSpline
 70
8
 71
3
 72
8
 73
4
 74
0
 40
0
 40
0
 40
0
 40
0
 40
1
 40
1
 40
1
 40
1
 10
1217.246425
 20
-39.484265
 30
0.0
 10
1217.252252
 20
-37.961319
 30
0.0
 10
1216.443114
 20
-36.551558
 30
0.0
 10
1215.125167
 20
-35.788398
 30
0.0
  0
SPLINE
  5
1de
100
AcDbEntity
  8
Layer_1
 62
7
100
AcDbSpline
 70
8
 71
3
 72
8
 73
4
 74
0
 40
0
 40
0
 40
0
 40
0
 40
1
 40
1
 40
1
 40
1
 10
1215.125167
 20
-35.788398
 30
0.0
 10
1213.807219
 20
-35.025237
 30
0.0
 10
1212.181756
 20
-35.025237
 30
0.0
 10
1210.863808
 20
-35.788398
 30
0.0
  0
SPLINE
  5
1df
100
AcDbEntity
  8
Layer_1
 62
7
100
AcDbSpline
 70
8
 71
3
 72
8
 73
4
 74
0
 40
0
 40
0
 40
0
 40
0
 40
1
 40
1
 40
1
 40
1
 10
1210.863808
 20
-35.788398
 30
0.0
 10
1209.545861
 20
-36.551558
 30
0.0
 10
1208.736723
 20
-37.961319
 30
0.0
 10
1208.742550
 20
-39.484265
 30
0.0
  0
SPLINE
  5
1e0
100
AcDbEntity
  8
Layer_1
 62
7
100
AcDbSpline
 70
8
 71
3
 72
8
 73
4
 74
0
 40
0
 40
0
 40
0
 40
0
 40
1
 40
1
 40
1
 40
1
 10
1208.742550
 20
-39.484265
 30
0.0
 10
1208.736723
 20
-41.007212
 30
0.0
 10
1209.545861
 20
-42.416972
 30
0.0
 10
1210.863808
 20
-43.180132
 30
0.0
  0
SPLINE
  5
1e1
100
AcDbEntity
  8
Layer_1
 62
7
100
AcDbSpline
 70
8
 71
3
 72
8
 73
4
 74
0
 40
0
 40
0
 40
0
 40
0
 40
1
 40
1
 40
1
 40
1
 10
1210.863808
 20
-43.180132
 30
0.0
 10
1212.181756
 20
-43.943293
 30
0.0
 10
1213.807219
 20
-43.943293
 30
0.0
 10
1215.125167
 20
-43.180132
 30
0.0
  0
SPLINE
  5
1e2
100
AcDbEntity
  8
Layer_1
 62
7
100
AcDbSpline
 70
8
 71
3
 72
8
 73
4
 74
0
 40
0
 40
0
 40
0
 40
0
 40
1
 40
1
 40
1
 40
1
 10
1215.125167
 20
-43.180132
 30
0.0
 10
1216.443114
 20
-42.416972
 30
0.0
 10
1217.252252
 20
-41.007212
 30
0.0
 10
1217.246425
 20
-39.484265
 30
0.0
  0
LWPOLYLINE
  5
1e3
100
AcDbEntity
  8
Layer_1
 62
7
100
AcDbPolyline
 90
1
 70
1
 10
1282.075674
 20
186.281471
 30
0.0
  0
SPLINE
  5
1e4
100
AcDbEntity
  8
Layer_1
 62
7
100
AcDbSpline
 70
8
 71
3
 72
8
 73
4
 74
0
 40
0
 40
0
 40
0
 40
0
 40
1
 40
1
 40
1
 40
1
 10
1374.332873
 20
-111.481594
 30
0.0
 10
1374.332873
 20
-109.962510
 30
0.0
 10
1373.522451
 20
-108.558818
 30
0.0
 10
1372.206885
 20
-107.799276
 30
0.0
  0
SPLINE
  5
1e5
100
AcDbEntity
  8
Layer_1
 62
7
100
AcDbSpline
 70
8
 71
3
 72
8
 73
4
 74
0
 40
0
 40
0
 40
0
 40
0
 40
1
 40
1
 40
1
 40
1
 10
1372.206885
 20
-107.799276
 30
0.0
 10
1370.891320
 20
-107.039734
 30
0.0
 10
1369.270476
 20
-107.039734
 30
0.0
 10
1367.954911
 20
-107.799276
 30
0.0
  0
SPLINE
  5
1e6
100
AcDbEntity
  8
Layer_1
 62
7
100
AcDbSpline
 70
8
 71
3
 72
8
 73
4
 74
0
 40
0
 40
0
 40
0
 40
0
 40
1
 40
1
 40
1
 40
1
 10
1367.954911
 20
-107.799276
 30
0.0
 10
1366.639345
 20
-108.558818
 30
0.0
 10
1365.828923
 20
-109.962510
 30
0.0
 10
1365.828923
 20
-111.481594
 30
0.0
  0
SPLINE
  5
1e7
100
AcDbEntity
  8
Layer_1
 62
7
100
AcDbSpline
 70
8
 71
3
 72
8
 73
4
 74
0
 40
0
 40
0
 40
0
 40
0
 40
1
 40
1
 40
1
 40
1
 10
1365.828923
 20
-111.481594
 30
0.0
 10
1365.828923
 20
-113.000678
 30
0.0
 10
1366.639345
 20
-114.404370
 30
0.0
 10
1367.954911
 20
-115.163912
 30
0.0
  0
SPLINE
  5
1e8
100
AcDbEntity
  8
Layer_1
 62
7
100
AcDbSpline
 70
8
 71
3
 72
8
 73
4
 74
0
 40
0
 40
0
 40
0
 40
0
 40
1
 40
1
 40
1
 40
1
 10
1367.954911
 20
-115.163912
 30
0.0
 10
1369.270476
 20
-115.923455
 30
0.0
 10
1370.891320
 20
-115.923455
 30
0.0
 10
1372.206885
 20
-115.163912
 30
0.0
  0
SPLINE
  5
1e9
100
AcDbEntity
  8
Layer_1
 62
7
100
AcDbSpline
 70
8
 71
3
 72
8
 73
4
 74
0
 40
0
 40
0
 40
0
 40
0
 40
1
 40
1
 40
1
 40
1
 10
1372.206885
 20
-115.163912
 30
0.0
 10
1373.522451
 20
-114.404370
 30
0.0
 10
1374.332873
 20
-113.000678
 30
0.0
 10
1374.332873
 20
-111.481594
 30
0.0
  0
LWPOLYLINE
  5
1ea
100
AcDbEntity
  8
Layer_1
 62
7
100
AcDbPolyline
 90
1
 70
1
 10
1217.246425
 20
-39.484265
 30
0.0
  0
LWPOLYLINE
  5
1eb
100
AcDbEntity
  8
Layer_1
 62
7
100
AcDbPolyline
 90
1
 70
1
 10
1374.332873
 20
-111.481594
 30
0.0
  0
LWPOLYLINE
  5
1ec
100
AcDbEntity
  8
Layer_1
 62
7
100
AcDbPolyline
 90
2
 70
0
 10
501.777821
 20
37.502079
 30
0.0
 10
501.777821
 20
196.159269
 30
0.0
  0
SPLINE
  5
1ed
100
AcDbEntity
  8
Layer_1
 62
7
100
AcDbSpline
 70
8
 71
3
 72
8
 73
4
 74
0
 40
0
 40
0
 40
0
 40
0
 40
1
 40
1
 40
1
 40
1
 10
1129.997726
 20
-371.065973
 30
0.0
 10
1129.997726
 20
-369.546889
 30
0.0
 10
1129.187304
 20
-368.143197
 30
0.0
 10
1127.871739
 20
-367.383655
 30
0.0
  0
SPLINE
  5
1ee
100
AcDbEntity
  8
Layer_1
 62
7
100
AcDbSpline
 70
8
 71
3
 72
8
 73
4
 74
0
 40
0
 40
0
 40
0
 40
0
 40
1
 40
1
 40
1
 40
1
 10
1127.871739
 20
-367.383655
 30
0.0
 10
1126.556173
 20
-366.624113
 30
0.0
 10
1124.935329
 20
-366.624113
 30
0.0
 10
1123.619764
 20
-367.383655
 30
0.0
  0
SPLINE
  5
1ef
100
AcDbEntity
  8
Layer_1
 62
7
100
AcDbSpline
 70
8
 71
3
 72
8
 73
4
 74
0
 40
0
 40
0
 40
0
 40
0
 40
1
 40
1
 40
1
 40
1
 10
1123.619764
 20
-367.383655
 30
0.0
 10
1122.304198
 20
-368.143197
 30
0.0
 10
1121.493776
 20
-369.546889
 30
0.0
 10
1121.493776
 20
-371.065973
 30
0.0
  0
SPLINE
  5
1f0
100
AcDbEntity
  8
Layer_1
 62
7
100
AcDbSpline
 70
8
 71
3
 72
8
 73
4
 74
0
 40
0
 40
0
 40
0
 40
0
 40
1
 40
1
 40
1
 40
1
 10
1121.493776
 20
-371.065973
 30
0.0
 10
1121.493776
 20
-372.585058
 30
0.0
 10
1122.304198
 20
-373.988750
 30
0.0
 10
1123.619763
 20
-374.748292
 30
0.0
  0
SPLINE
  5
1f1
100
AcDbEntity
  8
Layer_1
 62
7
100
AcDbSpline
 70
8
 71
3
 72
8
 73
4
 74
0
 40
0
 40
0
 40
0
 40
0
 40
1
 40
1
 40
1
 40
1
 10
1123.619763
 20
-374.748292
 30
0.0
 10
1124.935329
 20
-375.507835
 30
0.0
 10
1126.556173
 20
-375.507835
 30
0.0
 10
1127.871739
 20
-374.748292
 30
0.0
  0
SPLINE
  5
1f2
100
AcDbEntity
  8
Layer_1
 62
7
100
AcDbSpline
 70
8
 71
3
 72
8
 73
4
 74
0
 40
0
 40
0
 40
0
 40
0
 40
1
 40
1
 40
1
 40
1
 10
1127.871739
 20
-374.748292
 30
0.0
 10
1129.187304
 20
-373.988750
 30
0.0
 10
1129.997726
 20
-372.585058
 30
0.0
 10
1129.997726
 20
-371.065973
 30
0.0
  0
LWPOLYLINE
  5
1f3
100
AcDbEntity
  8
Layer_1
 62
7
100
AcDbPolyline
 90
7
 70
1
 10
629.682782
 20
-139.304539
 30
0.0
 10
629.682782
 20
-130.800596
 30
0.0
 10
1236.296950
 20
-130.800596
 30
0.0
 10
1236.296950
 20
-337.050226
 30
0.0
 10
714.722154
 20
-337.050226
 30
0.0
 10
643.856012
 20
-312.217922
 30
0.0
 10
643.856012
 20
-139.304539
 30
0.0
  0
SPLINE
  5
1f4
100
AcDbEntity
  8
Layer_1
 62
7
100
AcDbSpline
 70
8
 71
3
 72
8
 73
4
 74
0
 40
0
 40
0
 40
0
 40
0
 40
1
 40
1
 40
1
 40
1
 10
1268.895399
 20
-150.643121
 30
0.0
 10
1268.895399
 20
-149.124037
 30
0.0
 10
1268.084977
 20
-147.720345
 30
0.0
 10
1266.769412
 20
-146.960803
 30
0.0
  0
SPLINE
  5
1f5
100
AcDbEntity
  8
Layer_1
 62
7
100
AcDbSpline
 70
8
 71
3
 72
8
 73
4
 74
0
 40
0
 40
0
 40
0
 40
0
 40
1
 40
1
 40
1
 40
1
 10
1266.769412
 20
-146.960803
 30
0.0
 10
1265.453846
 20
-146.201261
 30
0.0
 10
1263.833002
 20
-146.201261
 30
0.0
 10
1262.517437
 20
-146.960803
 30
0.0
  0
SPLINE
  5
1f6
100
AcDbEntity
  8
Layer_1
 62
7
100
AcDbSpline
 70
8
 71
3
 72
8
 73
4
 74
0
 40
0
 40
0
 40
0
 40
0
 40
1
 40
1
 40
1
 40
1
 10
1262.517437
 20
-146.960803
 30
0.0
 10
1261.201871
 20
-147.720345
 30
0.0
 10
1260.391449
 20
-149.124037
 30
0.0
 10
1260.391449
 20
-150.643121
 30
0.0
  0
SPLINE
  5
1f7
100
AcDbEntity
  8
Layer_1
 62
7
100
AcDbSpline
 70
8
 71
3
 72
8
 73
4
 74
0
 40
0
 40
0
 40
0
 40
0
 40
1
 40
1
 40
1
 40
1
 10
1260.391449
 20
-150.643121
 30
0.0
 10
1260.391449
 20
-152.162206
 30
0.0
 10
1261.201871
 20
-153.565898
 30
0.0
 10
1262.517437
 20
-154.325440
 30
0.0
  0
SPLINE
  5
1f8
100
AcDbEntity
  8
Layer_1
 62
7
100
AcDbSpline
 70
8
 71
3
 72
8
 73
4
 74
0
 40
0
 40
0
 40
0
 40
0
 40
1
 40
1
 40
1
 40
1
 10
1262.517437
 20
-154.325440
 30
0.0
 10
1263.833002
 20
-155.084982
 30
0.0
 10
1265.453846
 20
-155.084982
 30
0.0
 10
1266.769412
 20
-154.325440
 30
0.0
  0
SPLINE
  5
1f9
100
AcDbEntity
  8
Layer_1
 62
7
100
AcDbSpline
 70
8
 71
3
 72
8
 73
4
 74
0
 40
0
 40
0
 40
0
 40
0
 40
1
 40
1
 40
1
 40
1
 10
1266.769412
 20
-154.325440
 30
0.0
 10
1268.084978
 20
-153.565898
 30
0.0
 10
1268.895400
 20
-152.162206
 30
0.0
 10
1268.895399
 20
-150.643121
 30
0.0
  0
LWPOLYLINE
  5
1fa
100
AcDbEntity
  8
Layer_1
 62
7
100
AcDbPolyline
 90
1
 70
1
 10
1129.997726
 20
-371.065973
 30
0.0
  0
SPLINE
  5
1fb
100
AcDbEntity
  8
Layer_1
 62
7
100
AcDbSpline
 70
8
 71
3
 72
8
 73
4
 74
0
 40
0
 40
0
 40
0
 40
0
 40
1
 40
1
 40
1
 40
1
 10
622.596167
 20
-153.477761
 30
0.0
 10
622.597070
 20
-151.958078
 30
0.0
 10
621.786847
 20
-150.553446
 30
0.0
 10
620.470913
 20
-149.793344
 30
0.0
  0
SPLINE
  5
1fc
100
AcDbEntity
  8
Layer_1
 62
7
100
AcDbSpline
 70
8
 71
3
 72
8
 73
4
 74
0
 40
0
 40
0
 40
0
 40
0
 40
1
 40
1
 40
1
 40
1
 10
620.470913
 20
-149.793344
 30
0.0
 10
619.154979
 20
-149.033242
 30
0.0
 10
617.533421
 20
-149.033242
 30
0.0
 10
616.217487
 20
-149.793344
 30
0.0
  0
SPLINE
  5
1fd
100
AcDbEntity
  8
Layer_1
 62
7
100
AcDbSpline
 70
8
 71
3
 72
8
 73
4
 74
0
 40
0
 40
0
 40
0
 40
0
 40
1
 40
1
 40
1
 40
1
 10
616.217487
 20
-149.793344
 30
0.0
 10
614.901553
 20
-150.553446
 30
0.0
 10
614.091330
 20
-151.958078
 30
0.0
 10
614.092233
 20
-153.477761
 30
0.0
  0
SPLINE
  5
1fe
100
AcDbEntity
  8
Layer_1
 62
7
100
AcDbSpline
 70
8
 71
3
 72
8
 73
4
 74
0
 40
0
 40
0
 40
0
 40
0
 40
1
 40
1
 40
1
 40
1
 10
614.092233
 20
-153.477761
 30
0.0
 10
614.091330
 20
-154.997444
 30
0.0
 10
614.901553
 20
-156.402076
 30
0.0
 10
616.217487
 20
-157.162178
 30
0.0
  0
SPLINE
  5
1ff
100
AcDbEntity
  8
Layer_1
 62
7
100
AcDbSpline
 70
8
 71
3
 72
8
 73
4
 74
0
 40
0
 40
0
 40
0
 40
0
 40
1
 40
1
 40
1
 40
1
 10
616.217487
 20
-157.162178
 30
0.0
 10
617.533421
 20
-157.922280
 30
0.0
 10
619.154979
 20
-157.922280
 30
0.0
 10
620.470913
 20
-157.162178
 30
0.0
  0
SPLINE
  5
200
100
AcDbEntity
  8
Layer_1
 62
7
100
AcDbSpline
 70
8
 71
3
 72
8
 73
4
 74
0
 40
0
 40
0
 40
0
 40
0
 40
1
 40
1
 40
1
 40
1
 10
620.470913
 20
-157.162178
 30
0.0
 10
621.786847
 20
-156.402076
 30
0.0
 10
622.597070
 20
-154.997444
 30
0.0
 10
622.596167
 20
-153.477761
 30
0.0
  0
LWPOLYLINE
  5
201
100
AcDbEntity
  8
Layer_1
 62
7
100
AcDbPolyline
 90
1
 70
1
 10
1268.895399
 20
-150.643121
 30
0.0
  0
SPLINE
  5
202
100
AcDbEntity
  8
Layer_1
 62
7
100
AcDbSpline
 70
8
 71
3
 72
8
 73
4
 74
0
 40
0
 40
0
 40
0
 40
0
 40
1
 40
1
 40
1
 40
1
 10
758.659163
 20
-371.065973
 30
0.0
 10
758.659163
 20
-369.546890
 30
0.0
 10
757.848742
 20
-368.143200
 30
0.0
 10
756.533178
 20
-367.383658
 30
0.0
  0
SPLINE
  5
203
100
AcDbEntity
  8
Layer_1
 62
7
100
AcDbSpline
 70
8
 71
3
 72
8
 73
4
 74
0
 40
0
 40
0
 40
0
 40
0
 40
1
 40
1
 40
1
 40
1
 10
756.533178
 20
-367.383658
 30
0.0
 10
755.217613
 20
-366.624117
 30
0.0
 10
753.596771
 20
-366.624117
 30
0.0
 10
752.281206
 20
-367.383658
 30
0.0
  0
SPLINE
  5
204
100
AcDbEntity
  8
Layer_1
 62
7
100
AcDbSpline
 70
8
 71
3
 72
8
 73
4
 74
0
 40
0
 40
0
 40
0
 40
0
 40
1
 40
1
 40
1
 40
1
 10
752.281206
 20
-367.383658
 30
0.0
 10
750.965642
 20
-368.143200
 30
0.0
 10
750.155221
 20
-369.546890
 30
0.0
 10
750.155221
 20
-371.065973
 30
0.0
  0
SPLINE
  5
205
100
AcDbEntity
  8
Layer_1
 62
7
100
AcDbSpline
 70
8
 71
3
 72
8
 73
4
 74
0
 40
0
 40
0
 40
0
 40
0
 40
1
 40
1
 40
1
 40
1
 10
750.155221
 20
-371.065973
 30
0.0
 10
750.155221
 20
-372.585056
 30
0.0
 10
750.965642
 20
-373.988747
 30
0.0
 10
752.281206
 20
-374.748288
 30
0.0
  0
SPLINE
  5
206
100
AcDbEntity
  8
Layer_1
 62
7
100
AcDbSpline
 70
8
 71
3
 72
8
 73
4
 74
0
 40
0
 40
0
 40
0
 40
0
 40
1
 40
1
 40
1
 40
1
 10
752.281206
 20
-374.748288
 30
0.0
 10
753.596771
 20
-375.507830
 30
0.0
 10
755.217613
 20
-375.507830
 30
0.0
 10
756.533178
 20
-374.748288
 30
0.0
  0
SPLINE
  5
207
100
AcDbEntity
  8
Layer_1
 62
7
100
AcDbSpline
 70
8
 71
3
 72
8
 73
4
 74
0
 40
0
 40
0
 40
0
 40
0
 40
1
 40
1
 40
1
 40
1
 10
756.533178
 20
-374.748288
 30
0.0
 10
757.848742
 20
-373.988747
 30
0.0
 10
758.659163
 20
-372.585056
 30
0.0
 10
758.659163
 20
-371.065973
 30
0.0
  0
LWPOLYLINE
  5
208
100
AcDbEntity
  8
Layer_1
 62
7
100
AcDbPolyline
 90
1
 70
1
 10
622.596167
 20
-153.477761
 30
0.0
  0
SPLINE
  5
209
100
AcDbEntity
  8
Layer_1
 62
7
100
AcDbSpline
 70
8
 71
3
 72
8
 73
4
 74
0
 40
0
 40
0
 40
0
 40
0
 40
1
 40
1
 40
1
 40
1
 10
739.654433
 20
169.137298
 30
0.0
 10
739.655894
 20
171.127762
 30
0.0
 10
738.594833
 20
172.967652
 30
0.0
 10
736.871284
 20
173.963306
 30
0.0
  0
SPLINE
  5
20a
100
AcDbEntity
  8
Layer_1
 62
7
100
AcDbSpline
 70
8
 71
3
 72
8
 73
4
 74
0
 40
0
 40
0
 40
0
 40
0
 40
1
 40
1
 40
1
 40
1
 10
736.871284
 20
173.963306
 30
0.0
 10
735.147735
 20
174.958960
 30
0.0
 10
733.023812
 20
174.958960
 30
0.0
 10
731.300263
 20
173.963306
 30
0.0
  0
SPLINE
  5
20b
100
AcDbEntity
  8
Layer_1
 62
7
100
AcDbSpline
 70
8
 71
3
 72
8
 73
4
 74
0
 40
0
 40
0
 40
0
 40
0
 40
1
 40
1
 40
1
 40
1
 10
731.300263
 20
173.963306
 30
0.0
 10
729.576714
 20
172.967652
 30
0.0
 10
728.515653
 20
171.127762
 30
0.0
 10
728.517114
 20
169.137298
 30
0.0
  0
SPLINE
  5
20c
100
AcDbEntity
  8
Layer_1
 62
7
100
AcDbSpline
 70
8
 71
3
 72
8
 73
4
 74
0
 40
0
 40
0
 40
0
 40
0
 40
1
 40
1
 40
1
 40
1
 10
728.517114
 20
169.137298
 30
0.0
 10
728.515653
 20
167.146833
 30
0.0
 10
729.576714
 20
165.306943
 30
0.0
 10
731.300263
 20
164.311289
 30
0.0
  0
SPLINE
  5
20d
100
AcDbEntity
  8
Layer_1
 62
7
100
AcDbSpline
 70
8
 71
3
 72
8
 73
4
 74
0
 40
0
 40
0
 40
0
 40
0
 40
1
 40
1
 40
1
 40
1
 10
731.300263
 20
164.311289
 30
0.0
 10
733.023812
 20
163.315635
 30
0.0
 10
735.147735
 20
163.315635
 30
0.0
 10
736.871284
 20
164.311289
 30
0.0
  0
SPLINE
  5
20e
100
AcDbEntity
  8
Layer_1
 62
7
100
AcDbSpline
 70
8
 71
3
 72
8
 73
4
 74
0
 40
0
 40
0
 40
0
 40
0
 40
1
 40
1
 40
1
 40
1
 10
736.871284
 20
164.311289
 30
0.0
 10
738.594833
 20
165.306943
 30
0.0
 10
739.655894
 20
167.146833
 30
0.0
 10
739.654433
 20
169.137298
 30
0.0
  0
LWPOLYLINE
  5
20f
100
AcDbEntity
  8
Layer_1
 62
7
100
AcDbPolyline
 90
1
 70
1
 10
758.659163
 20
-371.065973
 30
0.0
  0
SPLINE
  5
210
100
AcDbEntity
  8
Layer_1
 62
7
100
AcDbSpline
 70
8
 71
3
 72
8
 73
4
 74
0
 40
0
 40
0
 40
0
 40
0
 40
1
 40
1
 40
1
 40
1
 10
884.036804
 20
171.026908
 30
0.0
 10
884.038265
 20
173.017372
 30
0.0
 10
882.977204
 20
174.857262
 30
0.0
 10
881.253655
 20
175.852916
 30
0.0
  0
SPLINE
  5
211
100
AcDbEntity
  8
Layer_1
 62
7
100
AcDbSpline
 70
8
 71
3
 72
8
 73
4
 74
0
 40
0
 40
0
 40
0
 40
0
 40
1
 40
1
 40
1
 40
1
 10
881.253655
 20
175.852916
 30
0.0
 10
879.530105
 20
176.848570
 30
0.0
 10
877.406183
 20
176.848570
 30
0.0
 10
875.682634
 20
175.852916
 30
0.0
  0
SPLINE
  5
212
100
AcDbEntity
  8
Layer_1
 62
7
100
AcDbSpline
 70
8
 71
3
 72
8
 73
4
 74
0
 40
0
 40
0
 40
0
 40
0
 40
1
 40
1
 40
1
 40
1
 10
875.682634
 20
175.852916
 30
0.0
 10
873.959084
 20
174.857262
 30
0.0
 10
872.898023
 20
173.017372
 30
0.0
 10
872.899484
 20
171.026908
 30
0.0
  0
SPLINE
  5
213
100
AcDbEntity
  8
Layer_1
 62
7
100
AcDbSpline
 70
8
 71
3
 72
8
 73
4
 74
0
 40
0
 40
0
 40
0
 40
0
 40
1
 40
1
 40
1
 40
1
 10
872.899484
 20
171.026908
 30
0.0
 10
872.898023
 20
169.036443
 30
0.0
 10
873.959084
 20
167.196553
 30
0.0
 10
875.682634
 20
166.200899
 30
0.0
  0
SPLINE
  5
214
100
AcDbEntity
  8
Layer_1
 62
7
100
AcDbSpline
 70
8
 71
3
 72
8
 73
4
 74
0
 40
0
 40
0
 40
0
 40
0
 40
1
 40
1
 40
1
 40
1
 10
875.682634
 20
166.200899
 30
0.0
 10
877.406183
 20
165.205245
 30
0.0
 10
879.530105
 20
165.205245
 30
0.0
 10
881.253655
 20
166.200899
 30
0.0
  0
SPLINE
  5
215
100
AcDbEntity
  8
Layer_1
 62
7
100
AcDbSpline
 70
8
 71
3
 72
8
 73
4
 74
0
 40
0
 40
0
 40
0
 40
0
 40
1
 40
1
 40
1
 40
1
 10
881.253655
 20
166.200899
 30
0.0
 10
882.977204
 20
167.196553
 30
0.0
 10
884.038265
 20
169.036443
 30
0.0
 10
884.036804
 20
171.026908
 30
0.0
  0
LWPOLYLINE
  5
216
100
AcDbEntity
  8
Layer_1
 62
7
100
AcDbPolyline
 90
1
 70
1
 10
739.654433
 20
169.137298
 30
0.0
  0
SPLINE
  5
217
100
AcDbEntity
  8
Layer_1
 62
7
100
AcDbSpline
 70
8
 71
3
 72
8
 73
4
 74
0
 40
0
 40
0
 40
0
 40
0
 40
1
 40
1
 40
1
 40
1
 10
649.683167
 20
10.376372
 30
0.0
 10
649.684628
 20
12.366836
 30
0.0
 10
648.623567
 20
14.206726
 30
0.0
 10
646.900018
 20
15.202380
 30
0.0
  0
SPLINE
  5
218
100
AcDbEntity
  8
Layer_1
 62
7
100
AcDbSpline
 70
8
 71
3
 72
8
 73
4
 74
0
 40
0
 40
0
 40
0
 40
0
 40
1
 40
1
 40
1
 40
1
 10
646.900018
 20
15.202380
 30
0.0
 10
645.176468
 20
16.198034
 30
0.0
 10
643.052546
 20
16.198034
 30
0.0
 10
641.328997
 20
15.202380
 30
0.0
  0
SPLINE
  5
219
100
AcDbEntity
  8
Layer_1
 62
7
100
AcDbSpline
 70
8
 71
3
 72
8
 73
4
 74
0
 40
0
 40
0
 40
0
 40
0
 40
1
 40
1
 40
1
 40
1
 10
641.328997
 20
15.202380
 30
0.0
 10
639.605447
 20
14.206726
 30
0.0
 10
638.544386
 20
12.366836
 30
0.0
 10
638.545847
 20
10.376372
 30
0.0
  0
SPLINE
  5
21a
100
AcDbEntity
  8
Layer_1
 62
7
100
AcDbSpline
 70
8
 71
3
 72
8
 73
4
 74
0
 40
0
 40
0
 40
0
 40
0
 40
1
 40
1
 40
1
 40
1
 10
638.545847
 20
10.376372
 30
0.0
 10
638.544386
 20
8.385908
 30
0.0
 10
639.605447
 20
6.546018
 30
0.0
 10
641.328997
 20
5.550364
 30
0.0
  0
SPLINE
  5
21b
100
AcDbEntity
  8
Layer_1
 62
7
100
AcDbSpline
 70
8
 71
3
 72
8
 73
4
 74
0
 40
0
 40
0
 40
0
 40
0
 40
1
 40
1
 40
1
 40
1
 10
641.328997
 20
5.550364
 30
0.0
 10
643.052546
 20
4.554710
 30
0.0
 10
645.176468
 20
4.554710
 30
0.0
 10
646.900018
 20
5.550364
 30
0.0
  0
SPLINE
  5
21c
100
AcDbEntity
  8
Layer_1
 62
7
100
AcDbSpline
 70
8
 71
3
 72
8
 73
4
 74
0
 40
0
 40
0
 40
0
 40
0
 40
1
 40
1
 40
1
 40
1
 10
646.900018
 20
5.550364
 30
0.0
 10
648.623567
 20
6.546018
 30
0.0
 10
649.684628
 20
8.385908
 30
0.0
 10
649.683167
 20
10.376372
 30
0.0
  0
LWPOLYLINE
  5
21d
100
AcDbEntity
  8
Layer_1
 62
7
100
AcDbPolyline
 90
1
 70
1
 10
884.036804
 20
171.026908
 30
0.0
  0
SPLINE
  5
21e
100
AcDbEntity
  8
Layer_1
 62
7
100
AcDbSpline
 70
8
 71
3
 72
8
 73
4
 74
0
 40
0
 40
0
 40
0
 40
0
 40
1
 40
1
 40
1
 40
1
 10
1096.922276
 20
10.435299
 30
0.0
 10
1096.922276
 20
12.424795
 30
0.0
 10
1095.860893
 20
14.263165
 30
0.0
 10
1094.137939
 20
15.257913
 30
0.0
  0
SPLINE
  5
21f
100
AcDbEntity
  8
Layer_1
 62
7
100
AcDbSpline
 70
8
 71
3
 72
8
 73
4
 74
0
 40
0
 40
0
 40
0
 40
0
 40
1
 40
1
 40
1
 40
1
 10
1094.137939
 20
15.257913
 30
0.0
 10
1092.414985
 20
16.252661
 30
0.0
 10
1090.292218
 20
16.252661
 30
0.0
 10
1088.569264
 20
15.257913
 30
0.0
  0
SPLINE
  5
220
100
AcDbEntity
  8
Layer_1
 62
7
100
AcDbSpline
 70
8
 71
3
 72
8
 73
4
 74
0
 40
0
 40
0
 40
0
 40
0
 40
1
 40
1
 40
1
 40
1
 10
1088.569264
 20
15.257913
 30
0.0
 10
1086.846310
 20
14.263165
 30
0.0
 10
1085.784927
 20
12.424795
 30
0.0
 10
1085.784927
 20
10.435299
 30
0.0
  0
SPLINE
  5
221
100
AcDbEntity
  8
Layer_1
 62
7
100
AcDbSpline
 70
8
 71
3
 72
8
 73
4
 74
0
 40
0
 40
0
 40
0
 40
0
 40
1
 40
1
 40
1
 40
1
 10
1085.784927
 20
10.435299
 30
0.0
 10
1085.784927
 20
8.445803
 30
0.0
 10
1086.846310
 20
6.607433
 30
0.0
 10
1088.569264
 20
5.612685
 30
0.0
  0
SPLINE
  5
222
100
AcDbEntity
  8
Layer_1
 62
7
100
AcDbSpline
 70
8
 71
3
 72
8
 73
4
 74
0
 40
0
 40
0
 40
0
 40
0
 40
1
 40
1
 40
1
 40
1
 10
1088.569264
 20
5.612685
 30
0.0
 10
1090.292218
 20
4.617937
 30
0.0
 10
1092.414985
 20
4.617937
 30
0.0
 10
1094.137939
 20
5.612685
 30
0.0
  0
SPLINE
  5
223
100
AcDbEntity
  8
Layer_1
 62
7
100
AcDbSpline
 70
8
 71
3
 72
8
 73
4
 74
0
 40
0
 40
0
 40
0
 40
0
 40
1
 40
1
 40
1
 40
1
 10
1094.137939
 20
5.612685
 30
0.0
 10
1095.860893
 20
6.607433
 30
0.0
 10
1096.922276
 20
8.445803
 30
0.0
 10
1096.922276
 20
10.435299
 30
0.0
  0
LWPOLYLINE
  5
224
100
AcDbEntity
  8
Layer_1
 62
7
100
AcDbPolyline
 90
1
 70
1
 10
649.683167
 20
10.376372
 30
0.0
  0
SPLINE
  5
225
100
AcDbEntity
  8
Layer_1
 62
7
100
AcDbSpline
 70
8
 71
3
 72
8
 73
4
 74
0
 40
0
 40
0
 40
0
 40
0
 40
1
 40
1
 40
1
 40
1
 10
804.851288
 20
410.082177
 30
0.0
 10
804.851288
 20
412.071669
 30
0.0
 10
803.789906
 20
413.910035
 30
0.0
 10
802.066956
 20
414.904781
 30
0.0
  0
SPLINE
  5
226
100
AcDbEntity
  8
Layer_1
 62
7
100
AcDbSpline
 70
8
 71
3
 72
8
 73
4
 74
0
 40
0
 40
0
 40
0
 40
0
 40
1
 40
1
 40
1
 40
1
 10
802.066956
 20
414.904781
 30
0.0
 10
800.344005
 20
415.899527
 30
0.0
 10
798.221243
 20
415.899527
 30
0.0
 10
796.498292
 20
414.904781
 30
0.0
  0
SPLINE
  5
227
100
AcDbEntity
  8
Layer_1
 62
7
100
AcDbSpline
 70
8
 71
3
 72
8
 73
4
 74
0
 40
0
 40
0
 40
0
 40
0
 40
1
 40
1
 40
1
 40
1
 10
796.498292
 20
414.904781
 30
0.0
 10
794.775342
 20
413.910035
 30
0.0
 10
793.713960
 20
412.071669
 30
0.0
 10
793.713960
 20
410.082177
 30
0.0
  0
SPLINE
  5
228
100
AcDbEntity
  8
Layer_1
 62
7
100
AcDbSpline
 70
8
 71
3
 72
8
 73
4
 74
0
 40
0
 40
0
 40
0
 40
0
 40
1
 40
1
 40
1
 40
1
 10
793.713960
 20
410.082177
 30
0.0
 10
793.713960
 20
408.092685
 30
0.0
 10
794.775342
 20
406.254319
 30
0.0
 10
796.498292
 20
405.259573
 30
0.0
  0
SPLINE
  5
229
100
AcDbEntity
  8
Layer_1
 62
7
100
AcDbSpline
 70
8
 71
3
 72
8
 73
4
 74
0
 40
0
 40
0
 40
0
 40
0
 40
1
 40
1
 40
1
 40
1
 10
796.498292
 20
405.259573
 30
0.0
 10
798.221243
 20
404.264827
 30
0.0
 10
800.344005
 20
404.264827
 30
0.0
 10
802.066956
 20
405.259573
 30
0.0
  0
SPLINE
  5
22a
100
AcDbEntity
  8
Layer_1
 62
7
100
AcDbSpline
 70
8
 71
3
 72
8
 73
4
 74
0
 40
0
 40
0
 40
0
 40
0
 40
1
 40
1
 40
1
 40
1
 10
802.066956
 20
405.259573
 30
0.0
 10
803.789906
 20
406.254319
 30
0.0
 10
804.851288
 20
408.092685
 30
0.0
 10
804.851288
 20
410.082177
 30
0.0
  0
LWPOLYLINE
  5
22b
100
AcDbEntity
  8
Layer_1
 62
7
100
AcDbPolyline
 90
1
 70
1
 10
1096.922276
 20
10.435299
 30
0.0
  0
SPLINE
  5
22c
100
AcDbEntity
  8
Layer_1
 62
7
100
AcDbSpline
 70
8
 71
3
 72
8
 73
4
 74
0
 40
0
 40
0
 40
0
 40
0
 40
1
 40
1
 40
1
 40
1
 10
959.559688
 20
261.974511
 30
0.0
 10
959.559688
 20
263.493594
 30
0.0
 10
958.749267
 20
264.897285
 30
0.0
 10
957.433703
 20
265.656826
 30
0.0
  0
SPLINE
  5
22d
100
AcDbEntity
  8
Layer_1
 62
7
100
AcDbSpline
 70
8
 71
3
 72
8
 73
4
 74
0
 40
0
 40
0
 40
0
 40
0
 40
1
 40
1
 40
1
 40
1
 10
957.433703
 20
265.656826
 30
0.0
 10
956.118138
 20
266.416368
 30
0.0
 10
954.497296
 20
266.416368
 30
0.0
 10
953.181731
 20
265.656826
 30
0.0
  0
SPLINE
  5
22e
100
AcDbEntity
  8
Layer_1
 62
7
100
AcDbSpline
 70
8
 71
3
 72
8
 73
4
 74
0
 40
0
 40
0
 40
0
 40
0
 40
1
 40
1
 40
1
 40
1
 10
953.181731
 20
265.656826
 30
0.0
 10
951.866167
 20
264.897285
 30
0.0
 10
951.055746
 20
263.493594
 30
0.0
 10
951.055746
 20
261.974511
 30
0.0
  0
SPLINE
  5
22f
100
AcDbEntity
  8
Layer_1
 62
7
100
AcDbSpline
 70
8
 71
3
 72
8
 73
4
 74
0
 40
0
 40
0
 40
0
 40
0
 40
1
 40
1
 40
1
 40
1
 10
951.055746
 20
261.974511
 30
0.0
 10
951.055746
 20
260.455428
 30
0.0
 10
951.866167
 20
259.051738
 30
0.0
 10
953.181731
 20
258.292196
 30
0.0
  0
SPLINE
  5
230
100
AcDbEntity
  8
Layer_1
 62
7
100
AcDbSpline
 70
8
 71
3
 72
8
 73
4
 74
0
 40
0
 40
0
 40
0
 40
0
 40
1
 40
1
 40
1
 40
1
 10
953.181731
 20
258.292196
 30
0.0
 10
954.497296
 20
257.532655
 30
0.0
 10
956.118138
 20
257.532655
 30
0.0
 10
957.433703
 20
258.292196
 30
0.0
  0
SPLINE
  5
231
100
AcDbEntity
  8
Layer_1
 62
7
100
AcDbSpline
 70
8
 71
3
 72
8
 73
4
 74
0
 40
0
 40
0
 40
0
 40
0
 40
1
 40
1
 40
1
 40
1
 10
957.433703
 20
258.292196
 30
0.0
 10
958.749267
 20
259.051738
 30
0.0
 10
959.559688
 20
260.455428
 30
0.0
 10
959.559688
 20
261.974511
 30
0.0
  0
LWPOLYLINE
  5
232
100
AcDbEntity
  8
Layer_1
 62
7
100
AcDbPolyline
 90
1
 70
1
 10
804.851288
 20
410.082177
 30
0.0
  0
SPLINE
  5
233
100
AcDbEntity
  8
Layer_1
 62
7
100
AcDbSpline
 70
8
 71
3
 72
8
 73
4
 74
0
 40
0
 40
0
 40
0
 40
0
 40
1
 40
1
 40
1
 40
1
 10
1106.204126
 20
434.950774
 30
0.0
 10
1106.204126
 20
436.469858
 30
0.0
 10
1105.393704
 20
437.873550
 30
0.0
 10
1104.078139
 20
438.633092
 30
0.0
  0
SPLINE
  5
234
100
AcDbEntity
  8
Layer_1
 62
7
100
AcDbSpline
 70
8
 71
3
 72
8
 73
4
 74
0
 40
0
 40
0
 40
0
 40
0
 40
1
 40
1
 40
1
 40
1
 10
1104.078139
 20
438.633092
 30
0.0
 10
1102.762573
 20
439.392634
 30
0.0
 10
1101.141730
 20
439.392634
 30
0.0
 10
1099.826164
 20
438.633092
 30
0.0
  0
SPLINE
  5
235
100
AcDbEntity
  8
Layer_1
 62
7
100
AcDbSpline
 70
8
 71
3
 72
8
 73
4
 74
0
 40
0
 40
0
 40
0
 40
0
 40
1
 40
1
 40
1
 40
1
 10
1099.826164
 20
438.633092
 30
0.0
 10
1098.510598
 20
437.873550
 30
0.0
 10
1097.700176
 20
436.469858
 30
0.0
 10
1097.700176
 20
434.950774
 30
0.0
  0
SPLINE
  5
236
100
AcDbEntity
  8
Layer_1
 62
7
100
AcDbSpline
 70
8
 71
3
 72
8
 73
4
 74
0
 40
0
 40
0
 40
0
 40
0
 40
1
 40
1
 40
1
 40
1
 10
1097.700176
 20
434.950774
 30
0.0
 10
1097.700176
 20
433.431690
 30
0.0
 10
1098.510598
 20
432.027998
 30
0.0
 10
1099.826164
 20
431.268456
 30
0.0
  0
SPLINE
  5
237
100
AcDbEntity
  8
Layer_1
 62
7
100
AcDbSpline
 70
8
 71
3
 72
8
 73
4
 74
0
 40
0
 40
0
 40
0
 40
0
 40
1
 40
1
 40
1
 40
1
 10
1099.826164
 20
431.268456
 30
0.0
 10
1101.141730
 20
430.508914
 30
0.0
 10
1102.762573
 20
430.508914
 30
0.0
 10
1104.078139
 20
431.268456
 30
0.0
  0
SPLINE
  5
238
100
AcDbEntity
  8
Layer_1
 62
7
100
AcDbSpline
 70
8
 71
3
 72
8
 73
4
 74
0
 40
0
 40
0
 40
0
 40
0
 40
1
 40
1
 40
1
 40
1
 10
1104.078139
 20
431.268456
 30
0.0
 10
1105.393704
 20
432.027998
 30
0.0
 10
1106.204126
 20
433.431690
 30
0.0
 10
1106.204126
 20
434.950774
 30
0.0
  0
LWPOLYLINE
  5
239
100
AcDbEntity
  8
Layer_1
 62
7
100
AcDbPolyline
 90
1
 70
1
 10
959.559688
 20
261.974511
 30
0.0
  0
SPLINE
  5
23a
100
AcDbEntity
  8
Layer_1
 62
7
100
AcDbSpline
 70
8
 71
3
 72
8
 73
4
 74
0
 40
0
 40
0
 40
0
 40
0
 40
1
 40
1
 40
1
 40
1
 10
1143.346976
 20
106.164788
 30
0.0
 10
1143.346976
 20
107.683872
 30
0.0
 10
1142.536554
 20
109.087564
 30
0.0
 10
1141.220988
 20
109.847106
 30
0.0
  0
SPLINE
  5
23b
100
AcDbEntity
  8
Layer_1
 62
7
100
AcDbSpline
 70
8
 71
3
 72
8
 73
4
 74
0
 40
0
 40
0
 40
0
 40
0
 40
1
 40
1
 40
1
 40
1
 10
1141.220988
 20
109.847106
 30
0.0
 10
1139.905423
 20
110.606649
 30
0.0
 10
1138.284579
 20
110.606649
 30
0.0
 10
1136.969013
 20
109.847106
 30
0.0
  0
SPLINE
  5
23c
100
AcDbEntity
  8
Layer_1
 62
7
100
AcDbSpline
 70
8
 71
3
 72
8
 73
4
 74
0
 40
0
 40
0
 40
0
 40
0
 40
1
 40
1
 40
1
 40
1
 10
1136.969013
 20
109.847106
 30
0.0
 10
1135.653448
 20
109.087564
 30
0.0
 10
1134.843026
 20
107.683872
 30
0.0
 10
1134.843026
 20
106.164788
 30
0.0
  0
SPLINE
  5
23d
100
AcDbEntity
  8
Layer_1
 62
7
100
AcDbSpline
 70
8
 71
3
 72
8
 73
4
 74
0
 40
0
 40
0
 40
0
 40
0
 40
1
 40
1
 40
1
 40
1
 10
1134.843026
 20
106.164788
 30
0.0
 10
1134.843026
 20
104.645704
 30
0.0
 10
1135.653448
 20
103.242012
 30
0.0
 10
1136.969013
 20
102.482470
 30
0.0
  0
SPLINE
  5
23e
100
AcDbEntity
  8
Layer_1
 62
7
100
AcDbSpline
 70
8
 71
3
 72
8
 73
4
 74
0
 40
0
 40
0
 40
0
 40
0
 40
1
 40
1
 40
1
 40
1
 10
1136.969013
 20
102.482470
 30
0.0
 10
1138.284579
 20
101.722928
 30
0.0
 10
1139.905423
 20
101.722928
 30
0.0
 10
1141.220988
 20
102.482470
 30
0.0
  0
SPLINE
  5
23f
100
AcDbEntity
  8
Layer_1
 62
7
100
AcDbSpline
 70
8
 71
3
 72
8
 73
4
 74
0
 40
0
 40
0
 40
0
 40
0
 40
1
 40
1
 40
1
 40
1
 10
1141.220988
 20
102.482470
 30
0.0
 10
1142.536554
 20
103.242012
 30
0.0
 10
1143.346976
 20
104.645704
 30
0.0
 10
1143.346976
 20
106.164788
 30
0.0
  0
LWPOLYLINE
  5
240
100
AcDbEntity
  8
Layer_1
 62
7
100
AcDbPolyline
 90
1
 70
1
 10
1106.204126
 20
434.950774
 30
0.0
  0
LWPOLYLINE
  5
241
100
AcDbEntity
  8
Layer_1
 62
7
100
AcDbPolyline
 90
1
 70
1
 10
1143.346976
 20
106.164788
 30
0.0
  0
SPLINE
  5
242
100
AcDbEntity
  8
Layer_1
 62
7
100
AcDbSpline
 70
8
 71
3
 72
8
 73
4
 74
0
 40
0
 40
0
 40
0
 40
0
 40
1
 40
1
 40
1
 40
1
 10
1130.240726
 20
-460.059975
 30
0.0
 10
1130.246553
 20
-458.537028
 30
0.0
 10
1129.437415
 20
-457.127268
 30
0.0
 10
1128.119468
 20
-456.364107
 30
0.0
  0
SPLINE
  5
243
100
AcDbEntity
  8
Layer_1
 62
7
100
AcDbSpline
 70
8
 71
3
 72
8
 73
4
 74
0
 40
0
 40
0
 40
0
 40
0
 40
1
 40
1
 40
1
 40
1
 10
1128.119468
 20
-456.364107
 30
0.0
 10
1126.801520
 20
-455.600947
 30
0.0
 10
1125.176057
 20
-455.600947
 30
0.0
 10
1123.858110
 20
-456.364107
 30
0.0
  0
SPLINE
  5
244
100
AcDbEntity
  8
Layer_1
 62
7
100
AcDbSpline
 70
8
 71
3
 72
8
 73
4
 74
0
 40
0
 40
0
 40
0
 40
0
 40
1
 40
1
 40
1
 40
1
 10
1123.858110
 20
-456.364107
 30
0.0
 10
1122.540162
 20
-457.127268
 30
0.0
 10
1121.731024
 20
-458.537028
 30
0.0
 10
1121.736851
 20
-460.059975
 30
0.0
  0
SPLINE
  5
245
100
AcDbEntity
  8
Layer_1
 62
7
100
AcDbSpline
 70
8
 71
3
 72
8
 73
4
 74
0
 40
0
 40
0
 40
0
 40
0
 40
1
 40
1
 40
1
 40
1
 10
1121.736851
 20
-460.059975
 30
0.0
 10
1121.731024
 20
-461.582921
 30
0.0
 10
1122.540162
 20
-462.992682
 30
0.0
 10
1123.858110
 20
-463.755842
 30
0.0
  0
SPLINE
  5
246
100
AcDbEntity
  8
Layer_1
 62
7
100
AcDbSpline
 70
8
 71
3
 72
8
 73
4
 74
0
 40
0
 40
0
 40
0
 40
0
 40
1
 40
1
 40
1
 40
1
 10
1123.858110
 20
-463.755842
 30
0.0
 10
1125.176057
 20
-464.519003
 30
0.0
 10
1126.801520
 20
-464.519003
 30
0.0
 10
1128.119468
 20
-463.755842
 30
0.0
  0
SPLINE
  5
247
100
AcDbEntity
  8
Layer_1
 62
7
100
AcDbSpline
 70
8
 71
3
 72
8
 73
4
 74
0
 40
0
 40
0
 40
0
 40
0
 40
1
 40
1
 40
1
 40
1
 10
1128.119468
 20
-463.755842
 30
0.0
 10
1129.437415
 20
-462.992682
 30
0.0
 10
1130.246553
 20
-461.582921
 30
0.0
 10
1130.240726
 20
-460.059975
 30
0.0
  0
LWPOLYLINE
  5
248
100
AcDbEntity
  8
Layer_1
 62
7
100
AcDbPolyline
 90
4
 70
0
 10
1347.727298
 20
220.039240
 30
0.0
 10
1347.727298
 20
251.220344
 30
0.0
 10
1285.365024
 20
251.220344
 30
0.0
 10
1285.365024
 20
220.039240
 30
0.0
  0
SPLINE
  5
249
100
AcDbEntity
  8
Layer_1
 62
7
100
AcDbSpline
 70
8
 71
3
 72
8
 73
4
 74
0
 40
0
 40
0
 40
0
 40
0
 40
1
 40
1
 40
1
 40
1
 10
1074.365277
 20
-542.042091
 30
0.0
 10
1074.365277
 20
-540.523007
 30
0.0
 10
1073.554855
 20
-539.119315
 30
0.0
 10
1072.239289
 20
-538.359773
 30
0.0
  0
SPLINE
  5
24a
100
AcDbEntity
  8
Layer_1
 62
7
100
AcDbSpline
 70
8
 71
3
 72
8
 73
4
 74
0
 40
0
 40
0
 40
0
 40
0
 40
1
 40
1
 40
1
 40
1
 10
1072.239289
 20
-538.359773
 30
0.0
 10
1070.923724
 20
-537.600231
 30
0.0
 10
1069.302880
 20
-537.600231
 30
0.0
 10
1067.987314
 20
-538.359773
 30
0.0
  0
SPLINE
  5
24b
100
AcDbEntity
  8
Layer_1
 62
7
100
AcDbSpline
 70
8
 71
3
 72
8
 73
4
 74
0
 40
0
 40
0
 40
0
 40
0
 40
1
 40
1
 40
1
 40
1
 10
1067.987314
 20
-538.359773
 30
0.0
 10
1066.671749
 20
-539.119315
 30
0.0
 10
1065.861327
 20
-540.523007
 30
0.0
 10
1065.861327
 20
-542.042091
 30
0.0
  0
SPLINE
  5
24c
100
AcDbEntity
  8
Layer_1
 62
7
100
AcDbSpline
 70
8
 71
3
 72
8
 73
4
 74
0
 40
0
 40
0
 40
0
 40
0
 40
1
 40
1
 40
1
 40
1
 10
1065.861327
 20
-542.042091
 30
0.0
 10
1065.861327
 20
-543.561176
 30
0.0
 10
1066.671749
 20
-544.964867
 30
0.0
 10
1067.987314
 20
-545.724410
 30
0.0
  0
SPLINE
  5
24d
100
AcDbEntity
  8
Layer_1
 62
7
100
AcDbSpline
 70
8
 71
3
 72
8
 73
4
 74
0
 40
0
 40
0
 40
0
 40
0
 40
1
 40
1
 40
1
 40
1
 10
1067.987314
 20
-545.724410
 30
0.0
 10
1069.302880
 20
-546.483952
 30
0.0
 10
1070.923724
 20
-546.483952
 30
0.0
 10
1072.239289
 20
-545.724410
 30
0.0
  0
SPLINE
  5
24e
100
AcDbEntity
  8
Layer_1
 62
7
100
AcDbSpline
 70
8
 71
3
 72
8
 73
4
 74
0
 40
0
 40
0
 40
0
 40
0
 40
1
 40
1
 40
1
 40
1
 10
1072.239289
 20
-545.724410
 30
0.0
 10
1073.554855
 20
-544.964867
 30
0.0
 10
1074.365277
 20
-543.561176
 30
0.0
 10
1074.365277
 20
-542.042091
 30
0.0
  0
LWPOLYLINE
  5
24f
100
AcDbEntity
  8
Layer_1
 62
7
100
AcDbPolyline
 90
1
 70
1
 10
1130.240726
 20
-460.059975
 30
0.0
  0
SPLINE
  5
250
100
AcDbEntity
  8
Layer_1
 62
7
100
AcDbSpline
 70
8
 71
3
 72
8
 73
4
 74
0
 40
0
 40
0
 40
0
 40
0
 40
1
 40
1
 40
1
 40
1
 10
1181.829250
 20
-534.670229
 30
0.0
 10
1181.829250
 20
-533.151144
 30
0.0
 10
1181.018829
 20
-531.747453
 30
0.0
 10
1179.703263
 20
-530.987910
 30
0.0
  0
SPLINE
  5
251
100
AcDbEntity
  8
Layer_1
 62
7
100
AcDbSpline
 70
8
 71
3
 72
8
 73
4
 74
0
 40
0
 40
0
 40
0
 40
0
 40
1
 40
1
 40
1
 40
1
 10
1179.703263
 20
-530.987910
 30
0.0
 10
1178.387697
 20
-530.228368
 30
0.0
 10
1176.766854
 20
-530.228368
 30
0.0
 10
1175.451288
 20
-530.987910
 30
0.0
  0
SPLINE
  5
252
100
AcDbEntity
  8
Layer_1
 62
7
100
AcDbSpline
 70
8
 71
3
 72
8
 73
4
 74
0
 40
0
 40
0
 40
0
 40
0
 40
1
 40
1
 40
1
 40
1
 10
1175.451288
 20
-530.987910
 30
0.0
 10
1174.135722
 20
-531.747453
 30
0.0
 10
1173.325300
 20
-533.151144
 30
0.0
 10
1173.325300
 20
-534.670229
 30
0.0
  0
SPLINE
  5
253
100
AcDbEntity
  8
Layer_1
 62
7
100
AcDbSpline
 70
8
 71
3
 72
8
 73
4
 74
0
 40
0
 40
0
 40
0
 40
0
 40
1
 40
1
 40
1
 40
1
 10
1173.325300
 20
-534.670229
 30
0.0
 10
1173.325300
 20
-536.189313
 30
0.0
 10
1174.135722
 20
-537.593005
 30
0.0
 10
1175.451288
 20
-538.352547
 30
0.0
  0
SPLINE
  5
254
100
AcDbEntity
  8
Layer_1
 62
7
100
AcDbSpline
 70
8
 71
3
 72
8
 73
4
 74
0
 40
0
 40
0
 40
0
 40
0
 40
1
 40
1
 40
1
 40
1
 10
1175.451288
 20
-538.352547
 30
0.0
 10
1176.766854
 20
-539.112089
 30
0.0
 10
1178.387697
 20
-539.112089
 30
0.0
 10
1179.703263
 20
-538.352547
 30
0.0
  0
SPLINE
  5
255
100
AcDbEntity
  8
Layer_1
 62
7
100
AcDbSpline
 70
8
 71
3
 72
8
 73
4
 74
0
 40
0
 40
0
 40
0
 40
0
 40
1
 40
1
 40
1
 40
1
 10
1179.703263
 20
-538.352547
 30
0.0
 10
1181.018829
 20
-537.593005
 30
0.0
 10
1181.829250
 20
-536.189313
 30
0.0
 10
1181.829250
 20
-534.670229
 30
0.0
  0
LWPOLYLINE
  5
256
100
AcDbEntity
  8
Layer_1
 62
7
100
AcDbPolyline
 90
1
 70
1
 10
1074.365277
 20
-542.042091
 30
0.0
  0
SPLINE
  5
257
100
AcDbEntity
  8
Layer_1
 62
7
100
AcDbSpline
 70
8
 71
3
 72
8
 73
4
 74
0
 40
0
 40
0
 40
0
 40
0
 40
1
 40
1
 40
1
 40
1
 10
1287.241824
 20
275.897751
 30
0.0
 10
1287.241824
 20
277.416835
 30
0.0
 10
1286.431402
 20
278.820527
 30
0.0
 10
1285.115837
 20
279.580069
 30
0.0
  0
SPLINE
  5
258
100
AcDbEntity
  8
Layer_1
 62
7
100
AcDbSpline
 70
8
 71
3
 72
8
 73
4
 74
0
 40
0
 40
0
 40
0
 40
0
 40
1
 40
1
 40
1
 40
1
 10
1285.115837
 20
279.580069
 30
0.0
 10
1283.800271
 20
280.339611
 30
0.0
 10
1282.179427
 20
280.339611
 30
0.0
 10
1280.863862
 20
279.580069
 30
0.0
  0
SPLINE
  5
259
100
AcDbEntity
  8
Layer_1
 62
7
100
AcDbSpline
 70
8
 71
3
 72
8
 73
4
 74
0
 40
0
 40
0
 40
0
 40
0
 40
1
 40
1
 40
1
 40
1
 10
1280.863862
 20
279.580069
 30
0.0
 10
1279.548296
 20
278.820527
 30
0.0
 10
1278.737874
 20
277.416835
 30
0.0
 10
1278.737874
 20
275.897751
 30
0.0
  0
SPLINE
  5
25a
100
AcDbEntity
  8
Layer_1
 62
7
100
AcDbSpline
 70
8
 71
3
 72
8
 73
4
 74
0
 40
0
 40
0
 40
0
 40
0
 40
1
 40
1
 40
1
 40
1
 10
1278.737874
 20
275.897751
 30
0.0
 10
1278.737874
 20
274.378667
 30
0.0
 10
1279.548296
 20
272.974975
 30
0.0
 10
1280.863862
 20
272.215433
 30
0.0
  0
SPLINE
  5
25b
100
AcDbEntity
  8
Layer_1
 62
7
100
AcDbSpline
 70
8
 71
3
 72
8
 73
4
 74
0
 40
0
 40
0
 40
0
 40
0
 40
1
 40
1
 40
1
 40
1
 10
1280.863862
 20
272.215433
 30
0.0
 10
1282.179427
 20
271.455891
 30
0.0
 10
1283.800271
 20
271.455891
 30
0.0
 10
1285.115837
 20
272.215433
 30
0.0
  0
SPLINE
  5
25c
100
AcDbEntity
  8
Layer_1
 62
7
100
AcDbSpline
 70
8
 71
3
 72
8
 73
4
 74
0
 40
0
 40
0
 40
0
 40
0
 40
1
 40
1
 40
1
 40
1
 10
1285.115837
 20
272.215433
 30
0.0
 10
1286.431402
 20
272.974975
 30
0.0
 10
1287.241824
 20
274.378667
 30
0.0
 10
1287.241824
 20
275.897751
 30
0.0
  0
LWPOLYLINE
  5
25d
100
AcDbEntity
  8
Layer_1
 62
7
100
AcDbPolyline
 90
1
 70
1
 10
1181.829250
 20
-534.670229
 30
0.0
  0
SPLINE
  5
25e
100
AcDbEntity
  8
Layer_1
 62
7
100
AcDbSpline
 70
8
 71
3
 72
8
 73
4
 74
0
 40
0
 40
0
 40
0
 40
0
 40
1
 40
1
 40
1
 40
1
 10
789.480143
 20
-375.379936
 30
0.0
 10
789.480143
 20
-373.860853
 30
0.0
 10
788.669722
 20
-372.457162
 30
0.0
 10
787.354157
 20
-371.697620
 30
0.0
  0
SPLINE
  5
25f
100
AcDbEntity
  8
Layer_1
 62
7
100
AcDbSpline
 70
8
 71
3
 72
8
 73
4
 74
0
 40
0
 40
0
 40
0
 40
0
 40
1
 40
1
 40
1
 40
1
 10
787.354157
 20
-371.697620
 30
0.0
 10
786.038593
 20
-370.938079
 30
0.0
 10
784.417750
 20
-370.938079
 30
0.0
 10
783.102186
 20
-371.697620
 30
0.0
  0
SPLINE
  5
260
100
AcDbEntity
  8
Layer_1
 62
7
100
AcDbSpline
 70
8
 71
3
 72
8
 73
4
 74
0
 40
0
 40
0
 40
0
 40
0
 40
1
 40
1
 40
1
 40
1
 10
783.102186
 20
-371.697620
 30
0.0
 10
781.786621
 20
-372.457162
 30
0.0
 10
780.976200
 20
-373.860853
 30
0.0
 10
780.976200
 20
-375.379936
 30
0.0
  0
SPLINE
  5
261
100
AcDbEntity
  8
Layer_1
 62
7
100
AcDbSpline
 70
8
 71
3
 72
8
 73
4
 74
0
 40
0
 40
0
 40
0
 40
0
 40
1
 40
1
 40
1
 40
1
 10
780.976200
 20
-375.379936
 30
0.0
 10
780.976200
 20
-376.899019
 30
0.0
 10
781.786621
 20
-378.302710
 30
0.0
 10
783.102186
 20
-379.062251
 30
0.0
  0
SPLINE
  5
262
100
AcDbEntity
  8
Layer_1
 62
7
100
AcDbSpline
 70
8
 71
3
 72
8
 73
4
 74
0
 40
0
 40
0
 40
0
 40
0
 40
1
 40
1
 40
1
 40
1
 10
783.102186
 20
-379.062251
 30
0.0
 10
784.417750
 20
-379.821793
 30
0.0
 10
786.038593
 20
-379.821793
 30
0.0
 10
787.354157
 20
-379.062251
 30
0.0
  0
SPLINE
  5
263
100
AcDbEntity
  8
Layer_1
 62
7
100
AcDbSpline
 70
8
 71
3
 72
8
 73
4
 74
0
 40
0
 40
0
 40
0
 40
0
 40
1
 40
1
 40
1
 40
1
 10
787.354157
 20
-379.062251
 30
0.0
 10
788.669722
 20
-378.302710
 30
0.0
 10
789.480143
 20
-376.899019
 30
0.0
 10
789.480143
 20
-375.379936
 30
0.0
  0
LWPOLYLINE
  5
264
100
AcDbEntity
  8
Layer_1
 62
7
100
AcDbPolyline
 90
1
 70
1
 10
1287.241824
 20
275.897751
 30
0.0
  0
SPLINE
  5
265
100
AcDbEntity
  8
Layer_1
 62
7
100
AcDbSpline
 70
8
 71
3
 72
8
 73
4
 74
0
 40
0
 40
0
 40
0
 40
0
 40
1
 40
1
 40
1
 40
1
 10
1030.425020
 20
-379.631903
 30
0.0
 10
1030.425922
 20
-378.112220
 30
0.0
 10
1029.615699
 20
-376.707589
 30
0.0
 10
1028.299765
 20
-375.947486
 30
0.0
  0
SPLINE
  5
266
100
AcDbEntity
  8
Layer_1
 62
7
100
AcDbSpline
 70
8
 71
3
 72
8
 73
4
 74
0
 40
0
 40
0
 40
0
 40
0
 40
1
 40
1
 40
1
 40
1
 10
1028.299765
 20
-375.947486
 30
0.0
 10
1026.983831
 20
-375.187384
 30
0.0
 10
1025.362273
 20
-375.187384
 30
0.0
 10
1024.046339
 20
-375.947486
 30
0.0
  0
SPLINE
  5
267
100
AcDbEntity
  8
Layer_1
 62
7
100
AcDbSpline
 70
8
 71
3
 72
8
 73
4
 74
0
 40
0
 40
0
 40
0
 40
0
 40
1
 40
1
 40
1
 40
1
 10
1024.046339
 20
-375.947486
 30
0.0
 10
1022.730405
 20
-376.707589
 30
0.0
 10
1021.920182
 20
-378.112220
 30
0.0
 10
1021.921085
 20
-379.631903
 30
0.0
  0
SPLINE
  5
268
100
AcDbEntity
  8
Layer_1
 62
7
100
AcDbSpline
 70
8
 71
3
 72
8
 73
4
 74
0
 40
0
 40
0
 40
0
 40
0
 40
1
 40
1
 40
1
 40
1
 10
1021.921085
 20
-379.631903
 30
0.0
 10
1021.920182
 20
-381.151586
 30
0.0
 10
1022.730405
 20
-382.556218
 30
0.0
 10
1024.046339
 20
-383.316320
 30
0.0
  0
SPLINE
  5
269
100
AcDbEntity
  8
Layer_1
 62
7
100
AcDbSpline
 70
8
 71
3
 72
8
 73
4
 74
0
 40
0
 40
0
 40
0
 40
0
 40
1
 40
1
 40
1
 40
1
 10
1024.046339
 20
-383.316320
 30
0.0
 10
1025.362273
 20
-384.076422
 30
0.0
 10
1026.983831
 20
-384.076422
 30
0.0
 10
1028.299765
 20
-383.316320
 30
0.0
  0
SPLINE
  5
26a
100
AcDbEntity
  8
Layer_1
 62
7
100
AcDbSpline
 70
8
 71
3
 72
8
 73
4
 74
0
 40
0
 40
0
 40
0
 40
0
 40
1
 40
1
 40
1
 40
1
 10
1028.299765
 20
-383.316320
 30
0.0
 10
1029.615699
 20
-382.556218
 30
0.0
 10
1030.425922
 20
-381.151586
 30
0.0
 10
1030.425020
 20
-379.631903
 30
0.0
  0
LWPOLYLINE
  5
26b
100
AcDbEntity
  8
Layer_1
 62
7
100
AcDbPolyline
 90
1
 70
1
 10
789.480143
 20
-375.379936
 30
0.0
  0
SPLINE
  5
26c
100
AcDbEntity
  8
Layer_1
 62
7
100
AcDbSpline
 70
8
 71
3
 72
8
 73
4
 74
0
 40
0
 40
0
 40
0
 40
0
 40
1
 40
1
 40
1
 40
1
 10
789.480143
 20
-602.151560
 30
0.0
 10
789.480143
 20
-600.632477
 30
0.0
 10
788.669722
 20
-599.228787
 30
0.0
 10
787.354157
 20
-598.469245
 30
0.0
  0
SPLINE
  5
26d
100
AcDbEntity
  8
Layer_1
 62
7
100
AcDbSpline
 70
8
 71
3
 72
8
 73
4
 74
0
 40
0
 40
0
 40
0
 40
0
 40
1
 40
1
 40
1
 40
1
 10
787.354157
 20
-598.469245
 30
0.0
 10
786.038593
 20
-597.709703
 30
0.0
 10
784.417750
 20
-597.709703
 30
0.0
 10
783.102186
 20
-598.469245
 30
0.0
  0
SPLINE
  5
26e
100
AcDbEntity
  8
Layer_1
 62
7
100
AcDbSpline
 70
8
 71
3
 72
8
 73
4
 74
0
 40
0
 40
0
 40
0
 40
0
 40
1
 40
1
 40
1
 40
1
 10
783.102186
 20
-598.469245
 30
0.0
 10
781.786621
 20
-599.228787
 30
0.0
 10
780.976200
 20
-600.632477
 30
0.0
 10
780.976200
 20
-602.151560
 30
0.0
  0
SPLINE
  5
26f
100
AcDbEntity
  8
Layer_1
 62
7
100
AcDbSpline
 70
8
 71
3
 72
8
 73
4
 74
0
 40
0
 40
0
 40
0
 40
0
 40
1
 40
1
 40
1
 40
1
 10
780.976200
 20
-602.151560
 30
0.0
 10
780.976200
 20
-603.670644
 30
0.0
 10
781.786621
 20
-605.074334
 30
0.0
 10
783.102186
 20
-605.833876
 30
0.0
  0
SPLINE
  5
270
100
AcDbEntity
  8
Layer_1
 62
7
100
AcDbSpline
 70
8
 71
3
 72
8
 73
4
 74
0
 40
0
 40
0
 40
0
 40
0
 40
1
 40
1
 40
1
 40
1
 10
783.102186
 20
-605.833876
 30
0.0
 10
784.417750
 20
-606.593418
 30
0.0
 10
786.038593
 20
-606.593418
 30
0.0
 10
787.354157
 20
-605.833876
 30
0.0
  0
SPLINE
  5
271
100
AcDbEntity
  8
Layer_1
 62
7
100
AcDbSpline
 70
8
 71
3
 72
8
 73
4
 74
0
 40
0
 40
0
 40
0
 40
0
 40
1
 40
1
 40
1
 40
1
 10
787.354157
 20
-605.833876
 30
0.0
 10
788.669722
 20
-605.074334
 30
0.0
 10
789.480143
 20
-603.670644
 30
0.0
 10
789.480143
 20
-602.151560
 30
0.0
  0
LWPOLYLINE
  5
272
100
AcDbEntity
  8
Layer_1
 62
7
100
AcDbPolyline
 90
1
 70
1
 10
1030.425020
 20
-379.631903
 30
0.0
  0
SPLINE
  5
273
100
AcDbEntity
  8
Layer_1
 62
7
100
AcDbSpline
 70
8
 71
3
 72
8
 73
4
 74
0
 40
0
 40
0
 40
0
 40
0
 40
1
 40
1
 40
1
 40
1
 10
1030.425020
 20
-602.151560
 30
0.0
 10
1030.425922
 20
-600.631877
 30
0.0
 10
1029.615699
 20
-599.227246
 30
0.0
 10
1028.299765
 20
-598.467143
 30
0.0
  0
SPLINE
  5
274
100
AcDbEntity
  8
Layer_1
 62
7
100
AcDbSpline
 70
8
 71
3
 72
8
 73
4
 74
0
 40
0
 40
0
 40
0
 40
0
 40
1
 40
1
 40
1
 40
1
 10
1028.299765
 20
-598.467143
 30
0.0
 10
1026.983831
 20
-597.707041
 30
0.0
 10
1025.362273
 20
-597.707041
 30
0.0
 10
1024.046339
 20
-598.467143
 30
0.0
  0
SPLINE
  5
275
100
AcDbEntity
  8
Layer_1
 62
7
100
AcDbSpline
 70
8
 71
3
 72
8
 73
4
 74
0
 40
0
 40
0
 40
0
 40
0
 40
1
 40
1
 40
1
 40
1
 10
1024.046339
 20
-598.467143
 30
0.0
 10
1022.730405
 20
-599.227246
 30
0.0
 10
1021.920182
 20
-600.631877
 30
0.0
 10
1021.921085
 20
-602.151560
 30
0.0
  0
SPLINE
  5
276
100
AcDbEntity
  8
Layer_1
 62
7
100
AcDbSpline
 70
8
 71
3
 72
8
 73
4
 74
0
 40
0
 40
0
 40
0
 40
0
 40
1
 40
1
 40
1
 40
1
 10
1021.921085
 20
-602.151560
 30
0.0
 10
1021.920182
 20
-603.671244
 30
0.0
 10
1022.730405
 20
-605.075875
 30
0.0
 10
1024.046339
 20
-605.835977
 30
0.0
  0
SPLINE
  5
277
100
AcDbEntity
  8
Layer_1
 62
7
100
AcDbSpline
 70
8
 71
3
 72
8
 73
4
 74
0
 40
0
 40
0
 40
0
 40
0
 40
1
 40
1
 40
1
 40
1
 10
1024.046339
 20
-605.835977
 30
0.0
 10
1025.362273
 20
-606.596080
 30
0.0
 10
1026.983831
 20
-606.596080
 30
0.0
 10
1028.299765
 20
-605.835977
 30
0.0
  0
SPLINE
  5
278
100
AcDbEntity
  8
Layer_1
 62
7
100
AcDbSpline
 70
8
 71
3
 72
8
 73
4
 74
0
 40
0
 40
0
 40
0
 40
0
 40
1
 40
1
 40
1
 40
1
 10
1028.299765
 20
-605.835977
 30
0.0
 10
1029.615699
 20
-605.075875
 30
0.0
 10
1030.425922
 20
-603.671244
 30
0.0
 10
1030.425020
 20
-602.151560
 30
0.0
  0
LWPOLYLINE
  5
279
100
AcDbEntity
  8
Layer_1
 62
7
100
AcDbPolyline
 90
1
 70
1
 10
789.480143
 20
-602.151560
 30
0.0
  0
LWPOLYLINE
  5
27a
100
AcDbEntity
  8
Layer_1
 62
7
100
AcDbPolyline
 90
1
 70
1
 10
1030.425020
 20
-602.151560
 30
0.0
  0
ENDSEC
  0
SECTION
  2
OBJECTS
  0
DICTIONARY
  5
C
330
0
100
AcDbDictionary
  3
ACAD_GROUP
350
D
  3
ACAD_MLINESTYLE
350
17
  0
DICTIONARY
  5
D
330
C
100
AcDbDictionary
  0
DICTIONARY
  5
1A
330
C
100
AcDbDictionary
  0
DICTIONARY
  5
17
330
C
100
AcDbDictionary
  3
STANDARD
350
18
  0
DICTIONARY
  5
19
330
C
100
AcDbDictionary
  0
ENDSEC
  0
EOF
