  0
SECTION
  2
HEADER
  9
$ACADVER
  1
AC1014
  9
$HANDSEED
  5
FFFF
  9
$MEASUREMENT
 70
     1
  0
ENDSEC
  0
SECTION
  2
TABLES
  0
TABLE
  2
VPORT
  5
8
330
0
100
AcDbSymbolTable
 70
     4
  0
VPORT
  5
2E
330
8
100
AcDbSymbolTableRecord
100
AcDbViewportTableRecord
  2
*ACTIVE
 70
     0
 10
0.0
 20
0.0
 11
1.0
 21
1.0
 12
210.0
 22
148.5
 13
0.0
 23
0.0
 14
10.0
 24
10.0
 15
10.0
 25
10.0
 16
0.0
 26
0.0
 36
1.0
 17
0.0
 27
0.0
 37
0.0
 40
341.0
 41
1.24
 42
50.0
 43
0.0
 44
0.0
 50
0.0
 51
0.0
 71
     0
 72
   100
 73
     1
 74
     3
 75
     0
 76
     0
 77
     0
 78
     0
  0
ENDTAB
  0
TABLE
  2
LTYPE
  5
5
330
0
100
AcDbSymbolTable
 70
     1
  0
LTYPE
  5
14
330
5
100
AcDbSymbolTableRecord
100
AcDbLinetypeTableRecord
  2
BYBLOCK
 70
     0
  3

 72
    65
 73
     0
 40
0.0
  0
LTYPE
  5
15
330
5
100
AcDbSymbolTableRecord
100
AcDbLinetypeTableRecord
  2
BYLAYER
 70
     0
  3

 72
    65
 73
     0
 40
0.0
  0
LTYPE
  5
16
330
5
100
AcDbSymbolTableRecord
100
AcDbLinetypeTableRecord
  2
CONTINUOUS
 70
     0
  3
Solid line
 72
    65
 73
     0
 40
0.0
  0
ENDTAB
  0
TABLE
  2
LAYER
  5
2
100
AcDbSymbolTable
 70
2
  0
LAYER
  5
50
100
AcDbSymbolTableRecord
100
AcDbLayerTableRecord
  2
0
 70
0
  6
CONTINUOUS
  0
LAYER
  5
51
100
AcDbSymbolTableRecord
100
AcDbLayerTableRecord
  2
Layer_1
 70
0
  6
CONTINUOUS
  0
ENDTAB
  0
TABLE
  2
STYLE
  5
3
330
0
100
AcDbSymbolTable
 70
     1
  0
STYLE
  5
11
330
3
100
AcDbSymbolTableRecord
100
AcDbTextStyleTableRecord
  2
STANDARD
 70
     0
 40
0.0
 41
1.0
 50
0.0
 71
     0
 42
2.5
  3
txt
  4

  0
ENDTAB
  0
TABLE
  2
VIEW
  5
6
330
0
100
AcDbSymbolTable
 70
     0
  0
ENDTAB
  0
TABLE
  2
UCS
  5
7
330
0
100
AcDbSymbolTable
 70
     0
  0
ENDTAB
  0
TABLE
  2
APPID
  5
9
330
0
100
AcDbSymbolTable
 70
     2
  0
APPID
  5
12
330
9
100
AcDbSymbolTableRecord
100
AcDbRegAppTableRecord
  2
ACAD
 70
     0
  0
ENDTAB
  0
TABLE
  2
DIMSTYLE
  5
A
330
0
100
AcDbSymbolTable
 70
     1
  0
DIMSTYLE
105
27
330
A
100
AcDbSymbolTableRecord
100
AcDbDimStyleTableRecord
  2
ISO-25
 70
     0
  3

  4

  5

  6

  7

 40
1.0
 41
2.5
 42
0.625
 43
3.75
 44
1.25
 45
0.0
 46
0.0
 47
0.0
 48
0.0
140
2.5
141
2.5
142
0.0
143
0.03937007874016
144
1.0
145
0.0
146
1.0
147
0.625
 71
     0
 72
     0
 73
     0
 74
     0
 75
     0
 76
     0
 77
     1
 78
     8
170
     0
171
     3
172
     1
173
     0
174
     0
175
     0
176
     0
177
     0
178
     0
270
     2
271
     2
272
     2
273
     2
274
     3
340
11
275
     0
280
     0
281
     0
282
     0
283
     0
284
     8
285
     0
286
     0
287
     3
288
     0
  0
ENDTAB
  0
TABLE
  2
BLOCK_RECORD
  5
1
330
0
100
AcDbSymbolTable
 70
     1
  0
BLOCK_RECORD
  5
1F
330
1
100
AcDbSymbolTableRecord
100
AcDbBlockTableRecord
  2
*MODEL_SPACE
  0
BLOCK_RECORD
  5
1B
330
1
100
AcDbSymbolTableRecord
100
AcDbBlockTableRecord
  2
*PAPER_SPACE
  0
ENDTAB
  0
ENDSEC
  0
SECTION
  2
BLOCKS
  0
BLOCK
  5
20
330
1F
100
AcDbEntity
  8
0
100
AcDbBlockBegin
  2
*MODEL_SPACE
 70
     0
 10
0.0
 20
0.0
 30
0.0
  3
*MODEL_SPACE
  1

  0
ENDBLK
  5
21
330
1F
100
AcDbEntity
  8
0
100
AcDbBlockEnd
  0
BLOCK
  5
1C
330
1B
100
AcDbEntity
 67
     1
  8
0
100
AcDbBlockBegin
  2
*PAPER_SPACE
  1

  0
ENDBLK
  5
1D
330
1B
100
AcDbEntity
 67
     1
  8
0
100
AcDbBlockEnd
  0
ENDSEC
  0
SECTION
  2
ENTITIES
  0
SPLINE
  5
100
100
AcDbEntity
  8
Layer_1
 62
7
100
AcDbSpline
 70
8
 71
3
 72
8
 73
4
 74
0
 40
0
 40
0
 40
0
 40
0
 40
1
 40
1
 40
1
 40
1
 10
494.856027
 20
374.805522
 30
0.0
 10
494.856027
 20
376.425877
 30
0.0
 10
493.991578
 20
377.923146
 30
0.0
 10
492.588310
 20
378.733323
 30
0.0
  0
SPLINE
  5
101
100
AcDbEntity
  8
Layer_1
 62
7
100
AcDbSpline
 70
8
 71
3
 72
8
 73
4
 74
0
 40
0
 40
0
 40
0
 40
0
 40
1
 40
1
 40
1
 40
1
 10
492.588310
 20
378.733323
 30
0.0
 10
491.185042
 20
379.543500
 30
0.0
 10
489.456144
 20
379.543500
 30
0.0
 10
488.052876
 20
378.733323
 30
0.0
  0
SPLINE
  5
102
100
AcDbEntity
  8
Layer_1
 62
7
100
AcDbSpline
 70
8
 71
3
 72
8
 73
4
 74
0
 40
0
 40
0
 40
0
 40
0
 40
1
 40
1
 40
1
 40
1
 10
488.052876
 20
378.733323
 30
0.0
 10
486.649608
 20
377.923146
 30
0.0
 10
485.785159
 20
376.425877
 30
0.0
 10
485.785159
 20
374.805522
 30
0.0
  0
SPLINE
  5
103
100
AcDbEntity
  8
Layer_1
 62
7
100
AcDbSpline
 70
8
 71
3
 72
8
 73
4
 74
0
 40
0
 40
0
 40
0
 40
0
 40
1
 40
1
 40
1
 40
1
 10
485.785159
 20
374.805522
 30
0.0
 10
485.785159
 20
373.185168
 30
0.0
 10
486.649608
 20
371.687899
 30
0.0
 10
488.052876
 20
370.877721
 30
0.0
  0
SPLINE
  5
104
100
AcDbEntity
  8
Layer_1
 62
7
100
AcDbSpline
 70
8
 71
3
 72
8
 73
4
 74
0
 40
0
 40
0
 40
0
 40
0
 40
1
 40
1
 40
1
 40
1
 10
488.052876
 20
370.877721
 30
0.0
 10
489.456144
 20
370.067544
 30
0.0
 10
491.185042
 20
370.067544
 30
0.0
 10
492.588310
 20
370.877721
 30
0.0
  0
SPLINE
  5
105
100
AcDbEntity
  8
Layer_1
 62
7
100
AcDbSpline
 70
8
 71
3
 72
8
 73
4
 74
0
 40
0
 40
0
 40
0
 40
0
 40
1
 40
1
 40
1
 40
1
 10
492.588310
 20
370.877721
 30
0.0
 10
493.991578
 20
371.687899
 30
0.0
 10
494.856027
 20
373.185168
 30
0.0
 10
494.856027
 20
374.805522
 30
0.0
  0
LWPOLYLINE
  5
106
100
AcDbEntity
  8
Layer_1
 62
7
100
AcDbPolyline
 90
28
 70
1
 10
56.094197
 20
138.585090
 30
0.0
 10
56.094197
 20
422.049619
 30
0.0
 10
84.440654
 20
422.049619
 30
0.0
 10
84.440654
 20
436.222849
 30
0.0
 10
167.033963
 20
436.222849
 30
0.0
 10
167.033963
 20
422.049619
 30
0.0
 10
249.627277
 20
422.049619
 30
0.0
 10
249.627277
 20
436.222849
 30
0.0
 10
332.220584
 20
436.222849
 30
0.0
 10
332.220584
 20
422.049619
 30
0.0
 10
414.813898
 20
422.049619
 30
0.0
 10
414.813898
 20
436.222849
 30
0.0
 10
497.407204
 20
436.222849
 30
0.0
 10
497.407204
 20
422.049619
 30
0.0
 10
525.753664
 20
422.049619
 30
0.0
 10
525.753664
 20
138.585090
 30
0.0
 10
497.407204
 20
138.585090
 30
0.0
 10
497.407204
 20
124.411815
 30
0.0
 10
414.813898
 20
124.411815
 30
0.0
 10
414.813898
 20
138.585090
 30
0.0
 10
332.220584
 20
138.585090
 30
0.0
 10
332.220584
 20
124.411815
 30
0.0
 10
249.627277
 20
124.411815
 30
0.0
 10
249.627277
 20
138.585090
 30
0.0
 10
167.033963
 20
138.585090
 30
0.0
 10
167.033963
 20
124.411815
 30
0.0
 10
84.440654
 20
124.411815
 30
0.0
 10
84.440654
 20
138.585090
 30
0.0
  0
SPLINE
  5
107
100
AcDbEntity
  8
Layer_1
 62
7
100
AcDbSpline
 70
8
 71
3
 72
8
 73
4
 74
0
 40
0
 40
0
 40
0
 40
0
 40
1
 40
1
 40
1
 40
1
 10
295.459364
 20
368.191347
 30
0.0
 10
295.459364
 20
369.811702
 30
0.0
 10
294.594915
 20
371.308971
 30
0.0
 10
293.191647
 20
372.119148
 30
0.0
  0
SPLINE
  5
108
100
AcDbEntity
  8
Layer_1
 62
7
100
AcDbSpline
 70
8
 71
3
 72
8
 73
4
 74
0
 40
0
 40
0
 40
0
 40
0
 40
1
 40
1
 40
1
 40
1
 10
293.191647
 20
372.119148
 30
0.0
 10
291.788379
 20
372.929325
 30
0.0
 10
290.059482
 20
372.929325
 30
0.0
 10
288.656213
 20
372.119148
 30
0.0
  0
SPLINE
  5
109
100
AcDbEntity
  8
Layer_1
 62
7
100
AcDbSpline
 70
8
 71
3
 72
8
 73
4
 74
0
 40
0
 40
0
 40
0
 40
0
 40
1
 40
1
 40
1
 40
1
 10
288.656213
 20
372.119148
 30
0.0
 10
287.252945
 20
371.308971
 30
0.0
 10
286.388497
 20
369.811702
 30
0.0
 10
286.388497
 20
368.191347
 30
0.0
  0
SPLINE
  5
10a
100
AcDbEntity
  8
Layer_1
 62
7
100
AcDbSpline
 70
8
 71
3
 72
8
 73
4
 74
0
 40
0
 40
0
 40
0
 40
0
 40
1
 40
1
 40
1
 40
1
 10
286.388497
 20
368.191347
 30
0.0
 10
286.388497
 20
366.570993
 30
0.0
 10
287.252945
 20
365.073724
 30
0.0
 10
288.656213
 20
364.263547
 30
0.0
  0
SPLINE
  5
10b
100
AcDbEntity
  8
Layer_1
 62
7
100
AcDbSpline
 70
8
 71
3
 72
8
 73
4
 74
0
 40
0
 40
0
 40
0
 40
0
 40
1
 40
1
 40
1
 40
1
 10
288.656213
 20
364.263547
 30
0.0
 10
290.059482
 20
363.453369
 30
0.0
 10
291.788379
 20
363.453369
 30
0.0
 10
293.191647
 20
364.263547
 30
0.0
  0
SPLINE
  5
10c
100
AcDbEntity
  8
Layer_1
 62
7
100
AcDbSpline
 70
8
 71
3
 72
8
 73
4
 74
0
 40
0
 40
0
 40
0
 40
0
 40
1
 40
1
 40
1
 40
1
 10
293.191647
 20
364.263547
 30
0.0
 10
294.594915
 20
365.073724
 30
0.0
 10
295.459364
 20
366.570993
 30
0.0
 10
295.459364
 20
368.191347
 30
0.0
  0
LWPOLYLINE
  5
10d
100
AcDbEntity
  8
Layer_1
 62
7
100
AcDbPolyline
 90
1
 70
1
 10
494.856027
 20
374.805522
 30
0.0
  0
SPLINE
  5
10e
100
AcDbEntity
  8
Layer_1
 62
7
100
AcDbSpline
 70
8
 71
3
 72
8
 73
4
 74
0
 40
0
 40
0
 40
0
 40
0
 40
1
 40
1
 40
1
 40
1
 10
295.459364
 20
164.096865
 30
0.0
 10
295.459364
 20
165.717219
 30
0.0
 10
294.594915
 20
167.214489
 30
0.0
 10
293.191647
 20
168.024666
 30
0.0
  0
SPLINE
  5
10f
100
AcDbEntity
  8
Layer_1
 62
7
100
AcDbSpline
 70
8
 71
3
 72
8
 73
4
 74
0
 40
0
 40
0
 40
0
 40
0
 40
1
 40
1
 40
1
 40
1
 10
293.191647
 20
168.024666
 30
0.0
 10
291.788379
 20
168.834843
 30
0.0
 10
290.059482
 20
168.834843
 30
0.0
 10
288.656213
 20
168.024666
 30
0.0
  0
SPLINE
  5
110
100
AcDbEntity
  8
Layer_1
 62
7
100
AcDbSpline
 70
8
 71
3
 72
8
 73
4
 74
0
 40
0
 40
0
 40
0
 40
0
 40
1
 40
1
 40
1
 40
1
 10
288.656213
 20
168.024666
 30
0.0
 10
287.252945
 20
167.214489
 30
0.0
 10
286.388497
 20
165.717219
 30
0.0
 10
286.388497
 20
164.096865
 30
0.0
  0
SPLINE
  5
111
100
AcDbEntity
  8
Layer_1
 62
7
100
AcDbSpline
 70
8
 71
3
 72
8
 73
4
 74
0
 40
0
 40
0
 40
0
 40
0
 40
1
 40
1
 40
1
 40
1
 10
286.388497
 20
164.096865
 30
0.0
 10
286.388497
 20
162.476511
 30
0.0
 10
287.252945
 20
160.979241
 30
0.0
 10
288.656213
 20
160.169064
 30
0.0
  0
SPLINE
  5
112
100
AcDbEntity
  8
Layer_1
 62
7
100
AcDbSpline
 70
8
 71
3
 72
8
 73
4
 74
0
 40
0
 40
0
 40
0
 40
0
 40
1
 40
1
 40
1
 40
1
 10
288.656213
 20
160.169064
 30
0.0
 10
290.059482
 20
159.358887
 30
0.0
 10
291.788379
 20
159.358887
 30
0.0
 10
293.191647
 20
160.169064
 30
0.0
  0
SPLINE
  5
113
100
AcDbEntity
  8
Layer_1
 62
7
100
AcDbSpline
 70
8
 71
3
 72
8
 73
4
 74
0
 40
0
 40
0
 40
0
 40
0
 40
1
 40
1
 40
1
 40
1
 10
293.191647
 20
160.169064
 30
0.0
 10
294.594915
 20
160.979241
 30
0.0
 10
295.459364
 20
162.476511
 30
0.0
 10
295.459364
 20
164.096865
 30
0.0
  0
LWPOLYLINE
  5
114
100
AcDbEntity
  8
Layer_1
 62
7
100
AcDbPolyline
 90
1
 70
1
 10
295.459364
 20
368.191347
 30
0.0
  0
SPLINE
  5
115
100
AcDbEntity
  8
Layer_1
 62
7
100
AcDbSpline
 70
8
 71
3
 72
8
 73
4
 74
0
 40
0
 40
0
 40
0
 40
0
 40
1
 40
1
 40
1
 40
1
 10
96.062701
 20
374.805522
 30
0.0
 10
96.062701
 20
376.425877
 30
0.0
 10
95.198252
 20
377.923146
 30
0.0
 10
93.794984
 20
378.733323
 30
0.0
  0
SPLINE
  5
116
100
AcDbEntity
  8
Layer_1
 62
7
100
AcDbSpline
 70
8
 71
3
 72
8
 73
4
 74
0
 40
0
 40
0
 40
0
 40
0
 40
1
 40
1
 40
1
 40
1
 10
93.794984
 20
378.733323
 30
0.0
 10
92.391716
 20
379.543500
 30
0.0
 10
90.662819
 20
379.543500
 30
0.0
 10
89.259551
 20
378.733323
 30
0.0
  0
SPLINE
  5
117
100
AcDbEntity
  8
Layer_1
 62
7
100
AcDbSpline
 70
8
 71
3
 72
8
 73
4
 74
0
 40
0
 40
0
 40
0
 40
0
 40
1
 40
1
 40
1
 40
1
 10
89.259551
 20
378.733323
 30
0.0
 10
87.856283
 20
377.923146
 30
0.0
 10
86.991834
 20
376.425877
 30
0.0
 10
86.991834
 20
374.805522
 30
0.0
  0
SPLINE
  5
118
100
AcDbEntity
  8
Layer_1
 62
7
100
AcDbSpline
 70
8
 71
3
 72
8
 73
4
 74
0
 40
0
 40
0
 40
0
 40
0
 40
1
 40
1
 40
1
 40
1
 10
86.991834
 20
374.805522
 30
0.0
 10
86.991834
 20
373.185168
 30
0.0
 10
87.856283
 20
371.687899
 30
0.0
 10
89.259551
 20
370.877722
 30
0.0
  0
SPLINE
  5
119
100
AcDbEntity
  8
Layer_1
 62
7
100
AcDbSpline
 70
8
 71
3
 72
8
 73
4
 74
0
 40
0
 40
0
 40
0
 40
0
 40
1
 40
1
 40
1
 40
1
 10
89.259551
 20
370.877722
 30
0.0
 10
90.662819
 20
370.067544
 30
0.0
 10
92.391716
 20
370.067544
 30
0.0
 10
93.794984
 20
370.877722
 30
0.0
  0
SPLINE
  5
11a
100
AcDbEntity
  8
Layer_1
 62
7
100
AcDbSpline
 70
8
 71
3
 72
8
 73
4
 74
0
 40
0
 40
0
 40
0
 40
0
 40
1
 40
1
 40
1
 40
1
 10
93.794984
 20
370.877722
 30
0.0
 10
95.198252
 20
371.687899
 30
0.0
 10
96.062701
 20
373.185168
 30
0.0
 10
96.062701
 20
374.805522
 30
0.0
  0
LWPOLYLINE
  5
11b
100
AcDbEntity
  8
Layer_1
 62
7
100
AcDbPolyline
 90
1
 70
1
 10
295.459364
 20
164.096865
 30
0.0
  0
SPLINE
  5
11c
100
AcDbEntity
  8
Layer_1
 62
7
100
AcDbSpline
 70
8
 71
3
 72
8
 73
4
 74
0
 40
0
 40
0
 40
0
 40
0
 40
1
 40
1
 40
1
 40
1
 10
494.856027
 20
280.317336
 30
0.0
 10
494.856027
 20
281.937690
 30
0.0
 10
493.991578
 20
283.434960
 30
0.0
 10
492.588310
 20
284.245137
 30
0.0
  0
SPLINE
  5
11d
100
AcDbEntity
  8
Layer_1
 62
7
100
AcDbSpline
 70
8
 71
3
 72
8
 73
4
 74
0
 40
0
 40
0
 40
0
 40
0
 40
1
 40
1
 40
1
 40
1
 10
492.588310
 20
284.245137
 30
0.0
 10
491.185042
 20
285.055314
 30
0.0
 10
489.456144
 20
285.055314
 30
0.0
 10
488.052876
 20
284.245137
 30
0.0
  0
SPLINE
  5
11e
100
AcDbEntity
  8
Layer_1
 62
7
100
AcDbSpline
 70
8
 71
3
 72
8
 73
4
 74
0
 40
0
 40
0
 40
0
 40
0
 40
1
 40
1
 40
1
 40
1
 10
488.052876
 20
284.245137
 30
0.0
 10
486.649608
 20
283.434960
 30
0.0
 10
485.785159
 20
281.937690
 30
0.0
 10
485.785159
 20
280.317336
 30
0.0
  0
SPLINE
  5
11f
100
AcDbEntity
  8
Layer_1
 62
7
100
AcDbSpline
 70
8
 71
3
 72
8
 73
4
 74
0
 40
0
 40
0
 40
0
 40
0
 40
1
 40
1
 40
1
 40
1
 10
485.785159
 20
280.317336
 30
0.0
 10
485.785159
 20
278.696982
 30
0.0
 10
486.649608
 20
277.199712
 30
0.0
 10
488.052876
 20
276.389535
 30
0.0
  0
SPLINE
  5
120
100
AcDbEntity
  8
Layer_1
 62
7
100
AcDbSpline
 70
8
 71
3
 72
8
 73
4
 74
0
 40
0
 40
0
 40
0
 40
0
 40
1
 40
1
 40
1
 40
1
 10
488.052876
 20
276.389535
 30
0.0
 10
489.456144
 20
275.579358
 30
0.0
 10
491.185042
 20
275.579358
 30
0.0
 10
492.588310
 20
276.389535
 30
0.0
  0
SPLINE
  5
121
100
AcDbEntity
  8
Layer_1
 62
7
100
AcDbSpline
 70
8
 71
3
 72
8
 73
4
 74
0
 40
0
 40
0
 40
0
 40
0
 40
1
 40
1
 40
1
 40
1
 10
492.588310
 20
276.389535
 30
0.0
 10
493.991578
 20
277.199712
 30
0.0
 10
494.856027
 20
278.696982
 30
0.0
 10
494.856027
 20
280.317336
 30
0.0
  0
LWPOLYLINE
  5
122
100
AcDbEntity
  8
Layer_1
 62
7
100
AcDbPolyline
 90
1
 70
1
 10
96.062701
 20
374.805522
 30
0.0
  0
SPLINE
  5
123
100
AcDbEntity
  8
Layer_1
 62
7
100
AcDbSpline
 70
8
 71
3
 72
8
 73
4
 74
0
 40
0
 40
0
 40
0
 40
0
 40
1
 40
1
 40
1
 40
1
 10
96.062701
 20
280.317336
 30
0.0
 10
96.062701
 20
281.937690
 30
0.0
 10
95.198252
 20
283.434959
 30
0.0
 10
93.794984
 20
284.245136
 30
0.0
  0
SPLINE
  5
124
100
AcDbEntity
  8
Layer_1
 62
7
100
AcDbSpline
 70
8
 71
3
 72
8
 73
4
 74
0
 40
0
 40
0
 40
0
 40
0
 40
1
 40
1
 40
1
 40
1
 10
93.794984
 20
284.245136
 30
0.0
 10
92.391716
 20
285.055314
 30
0.0
 10
90.662819
 20
285.055314
 30
0.0
 10
89.259551
 20
284.245136
 30
0.0
  0
SPLINE
  5
125
100
AcDbEntity
  8
Layer_1
 62
7
100
AcDbSpline
 70
8
 71
3
 72
8
 73
4
 74
0
 40
0
 40
0
 40
0
 40
0
 40
1
 40
1
 40
1
 40
1
 10
89.259551
 20
284.245136
 30
0.0
 10
87.856283
 20
283.434959
 30
0.0
 10
86.991834
 20
281.937690
 30
0.0
 10
86.991834
 20
280.317336
 30
0.0
  0
SPLINE
  5
126
100
AcDbEntity
  8
Layer_1
 62
7
100
AcDbSpline
 70
8
 71
3
 72
8
 73
4
 74
0
 40
0
 40
0
 40
0
 40
0
 40
1
 40
1
 40
1
 40
1
 10
86.991834
 20
280.317336
 30
0.0
 10
86.991834
 20
278.696982
 30
0.0
 10
87.856283
 20
277.199712
 30
0.0
 10
89.259551
 20
276.389535
 30
0.0
  0
SPLINE
  5
127
100
AcDbEntity
  8
Layer_1
 62
7
100
AcDbSpline
 70
8
 71
3
 72
8
 73
4
 74
0
 40
0
 40
0
 40
0
 40
0
 40
1
 40
1
 40
1
 40
1
 10
89.259551
 20
276.389535
 30
0.0
 10
90.662819
 20
275.579358
 30
0.0
 10
92.391716
 20
275.579358
 30
0.0
 10
93.794984
 20
276.389535
 30
0.0
  0
SPLINE
  5
128
100
AcDbEntity
  8
Layer_1
 62
7
100
AcDbSpline
 70
8
 71
3
 72
8
 73
4
 74
0
 40
0
 40
0
 40
0
 40
0
 40
1
 40
1
 40
1
 40
1
 10
93.794984
 20
276.389535
 30
0.0
 10
95.198252
 20
277.199712
 30
0.0
 10
96.062701
 20
278.696982
 30
0.0
 10
96.062701
 20
280.317336
 30
0.0
  0
LWPOLYLINE
  5
129
100
AcDbEntity
  8
Layer_1
 62
7
100
AcDbPolyline
 90
1
 70
1
 10
494.856027
 20
280.317336
 30
0.0
  0
SPLINE
  5
12a
100
AcDbEntity
  8
Layer_1
 62
7
100
AcDbSpline
 70
8
 71
3
 72
8
 73
4
 74
0
 40
0
 40
0
 40
0
 40
0
 40
1
 40
1
 40
1
 40
1
 10
494.856027
 20
185.829165
 30
0.0
 10
494.856027
 20
187.449519
 30
0.0
 10
493.991578
 20
188.946788
 30
0.0
 10
492.588310
 20
189.756965
 30
0.0
  0
SPLINE
  5
12b
100
AcDbEntity
  8
Layer_1
 62
7
100
AcDbSpline
 70
8
 71
3
 72
8
 73
4
 74
0
 40
0
 40
0
 40
0
 40
0
 40
1
 40
1
 40
1
 40
1
 10
492.588310
 20
189.756965
 30
0.0
 10
491.185042
 20
190.567143
 30
0.0
 10
489.456144
 20
190.567143
 30
0.0
 10
488.052876
 20
189.756965
 30
0.0
  0
SPLINE
  5
12c
100
AcDbEntity
  8
Layer_1
 62
7
100
AcDbSpline
 70
8
 71
3
 72
8
 73
4
 74
0
 40
0
 40
0
 40
0
 40
0
 40
1
 40
1
 40
1
 40
1
 10
488.052876
 20
189.756965
 30
0.0
 10
486.649608
 20
188.946788
 30
0.0
 10
485.785159
 20
187.449519
 30
0.0
 10
485.785159
 20
185.829165
 30
0.0
  0
SPLINE
  5
12d
100
AcDbEntity
  8
Layer_1
 62
7
100
AcDbSpline
 70
8
 71
3
 72
8
 73
4
 74
0
 40
0
 40
0
 40
0
 40
0
 40
1
 40
1
 40
1
 40
1
 10
485.785159
 20
185.829165
 30
0.0
 10
485.785159
 20
184.208810
 30
0.0
 10
486.649608
 20
182.711541
 30
0.0
 10
488.052876
 20
181.901364
 30
0.0
  0
SPLINE
  5
12e
100
AcDbEntity
  8
Layer_1
 62
7
100
AcDbSpline
 70
8
 71
3
 72
8
 73
4
 74
0
 40
0
 40
0
 40
0
 40
0
 40
1
 40
1
 40
1
 40
1
 10
488.052876
 20
181.901364
 30
0.0
 10
489.456144
 20
181.091187
 30
0.0
 10
491.185042
 20
181.091187
 30
0.0
 10
492.588310
 20
181.901364
 30
0.0
  0
SPLINE
  5
12f
100
AcDbEntity
  8
Layer_1
 62
7
100
AcDbSpline
 70
8
 71
3
 72
8
 73
4
 74
0
 40
0
 40
0
 40
0
 40
0
 40
1
 40
1
 40
1
 40
1
 10
492.588310
 20
181.901364
 30
0.0
 10
493.991578
 20
182.711541
 30
0.0
 10
494.856027
 20
184.208810
 30
0.0
 10
494.856027
 20
185.829165
 30
0.0
  0
LWPOLYLINE
  5
130
100
AcDbEntity
  8
Layer_1
 62
7
100
AcDbPolyline
 90
1
 70
1
 10
96.062701
 20
280.317336
 30
0.0
  0
SPLINE
  5
131
100
AcDbEntity
  8
Layer_1
 62
7
100
AcDbSpline
 70
8
 71
3
 72
8
 73
4
 74
0
 40
0
 40
0
 40
0
 40
0
 40
1
 40
1
 40
1
 40
1
 10
96.062701
 20
185.829165
 30
0.0
 10
96.062701
 20
187.449519
 30
0.0
 10
95.198252
 20
188.946788
 30
0.0
 10
93.794984
 20
189.756965
 30
0.0
  0
SPLINE
  5
132
100
AcDbEntity
  8
Layer_1
 62
7
100
AcDbSpline
 70
8
 71
3
 72
8
 73
4
 74
0
 40
0
 40
0
 40
0
 40
0
 40
1
 40
1
 40
1
 40
1
 10
93.794984
 20
189.756965
 30
0.0
 10
92.391716
 20
190.567142
 30
0.0
 10
90.662819
 20
190.567142
 30
0.0
 10
89.259551
 20
189.756965
 30
0.0
  0
SPLINE
  5
133
100
AcDbEntity
  8
Layer_1
 62
7
100
AcDbSpline
 70
8
 71
3
 72
8
 73
4
 74
0
 40
0
 40
0
 40
0
 40
0
 40
1
 40
1
 40
1
 40
1
 10
89.259551
 20
189.756965
 30
0.0
 10
87.856283
 20
188.946788
 30
0.0
 10
86.991834
 20
187.449519
 30
0.0
 10
86.991834
 20
185.829165
 30
0.0
  0
SPLINE
  5
134
100
AcDbEntity
  8
Layer_1
 62
7
100
AcDbSpline
 70
8
 71
3
 72
8
 73
4
 74
0
 40
0
 40
0
 40
0
 40
0
 40
1
 40
1
 40
1
 40
1
 10
86.991834
 20
185.829165
 30
0.0
 10
86.991834
 20
184.208810
 30
0.0
 10
87.856283
 20
182.711541
 30
0.0
 10
89.259551
 20
181.901364
 30
0.0
  0
SPLINE
  5
135
100
AcDbEntity
  8
Layer_1
 62
7
100
AcDbSpline
 70
8
 71
3
 72
8
 73
4
 74
0
 40
0
 40
0
 40
0
 40
0
 40
1
 40
1
 40
1
 40
1
 10
89.259551
 20
181.901364
 30
0.0
 10
90.662819
 20
181.091187
 30
0.0
 10
92.391716
 20
181.091187
 30
0.0
 10
93.794984
 20
181.901364
 30
0.0
  0
SPLINE
  5
136
100
AcDbEntity
  8
Layer_1
 62
7
100
AcDbSpline
 70
8
 71
3
 72
8
 73
4
 74
0
 40
0
 40
0
 40
0
 40
0
 40
1
 40
1
 40
1
 40
1
 10
93.794984
 20
181.901364
 30
0.0
 10
95.198252
 20
182.711541
 30
0.0
 10
96.062701
 20
184.208810
 30
0.0
 10
96.062701
 20
185.829165
 30
0.0
  0
LWPOLYLINE
  5
137
100
AcDbEntity
  8
Layer_1
 62
7
100
AcDbPolyline
 90
1
 70
1
 10
494.856027
 20
185.829165
 30
0.0
  0
LWPOLYLINE
  5
138
100
AcDbEntity
  8
Layer_1
 62
7
100
AcDbPolyline
 90
1
 70
1
 10
96.062701
 20
185.829165
 30
0.0
  0
LWPOLYLINE
  5
139
100
AcDbEntity
  8
Layer_1
 62
7
100
AcDbPolyline
 90
4
 70
1
 10
334.860936
 20
270.396074
 30
0.0
 10
261.160147
 20
270.396074
 30
0.0
 10
261.160147
 20
290.238598
 30
0.0
 10
334.860936
 20
290.238598
 30
0.0
  0
ENDSEC
  0
SECTION
  2
OBJECTS
  0
DICTIONARY
  5
C
330
0
100
AcDbDictionary
  3
ACAD_GROUP
350
D
  3
ACAD_MLINESTYLE
350
17
  0
DICTIONARY
  5
D
330
C
100
AcDbDictionary
  0
DICTIONARY
  5
1A
330
C
100
AcDbDictionary
  0
DICTIONARY
  5
17
330
C
100
AcDbDictionary
  3
STANDARD
350
18
  0
DICTIONARY
  5
19
330
C
100
AcDbDictionary
  0
ENDSEC
  0
EOF
