  0
SECTION
  2
HEADER
  9
$ACADVER
  1
AC1014
  9
$HANDSEED
  5
FFFF
  9
$MEASUREMENT
 70
     1
  0
ENDSEC
  0
SECTION
  2
TABLES
  0
TABLE
  2
VPORT
  5
8
330
0
100
AcDbSymbolTable
 70
     4
  0
VPORT
  5
2E
330
8
100
AcDbSymbolTableRecord
100
AcDbViewportTableRecord
  2
*ACTIVE
 70
     0
 10
0.0
 20
0.0
 11
1.0
 21
1.0
 12
210.0
 22
148.5
 13
0.0
 23
0.0
 14
10.0
 24
10.0
 15
10.0
 25
10.0
 16
0.0
 26
0.0
 36
1.0
 17
0.0
 27
0.0
 37
0.0
 40
341.0
 41
1.24
 42
50.0
 43
0.0
 44
0.0
 50
0.0
 51
0.0
 71
     0
 72
   100
 73
     1
 74
     3
 75
     0
 76
     0
 77
     0
 78
     0
  0
ENDTAB
  0
TABLE
  2
LTYPE
  5
5
330
0
100
AcDbSymbolTable
 70
     1
  0
LTYPE
  5
14
330
5
100
AcDbSymbolTableRecord
100
AcDbLinetypeTableRecord
  2
BYBLOCK
 70
     0
  3

 72
    65
 73
     0
 40
0.0
  0
LTYPE
  5
15
330
5
100
AcDbSymbolTableRecord
100
AcDbLinetypeTableRecord
  2
BYLAYER
 70
     0
  3

 72
    65
 73
     0
 40
0.0
  0
LTYPE
  5
16
330
5
100
AcDbSymbolTableRecord
100
AcDbLinetypeTableRecord
  2
CONTINUOUS
 70
     0
  3
Solid line
 72
    65
 73
     0
 40
0.0
  0
ENDTAB
  0
TABLE
  2
LAYER
  5
2
100
AcDbSymbolTable
 70
2
  0
LAYER
  5
50
100
AcDbSymbolTableRecord
100
AcDbLayerTableRecord
  2
0
 70
0
  6
CONTINUOUS
  0
LAYER
  5
51
100
AcDbSymbolTableRecord
100
AcDbLayerTableRecord
  2
Layer_1
 70
0
  6
CONTINUOUS
  0
ENDTAB
  0
TABLE
  2
STYLE
  5
3
330
0
100
AcDbSymbolTable
 70
     1
  0
STYLE
  5
11
330
3
100
AcDbSymbolTableRecord
100
AcDbTextStyleTableRecord
  2
STANDARD
 70
     0
 40
0.0
 41
1.0
 50
0.0
 71
     0
 42
2.5
  3
txt
  4

  0
ENDTAB
  0
TABLE
  2
VIEW
  5
6
330
0
100
AcDbSymbolTable
 70
     0
  0
ENDTAB
  0
TABLE
  2
UCS
  5
7
330
0
100
AcDbSymbolTable
 70
     0
  0
ENDTAB
  0
TABLE
  2
APPID
  5
9
330
0
100
AcDbSymbolTable
 70
     2
  0
APPID
  5
12
330
9
100
AcDbSymbolTableRecord
100
AcDbRegAppTableRecord
  2
ACAD
 70
     0
  0
ENDTAB
  0
TABLE
  2
DIMSTYLE
  5
A
330
0
100
AcDbSymbolTable
 70
     1
  0
DIMSTYLE
105
27
330
A
100
AcDbSymbolTableRecord
100
AcDbDimStyleTableRecord
  2
ISO-25
 70
     0
  3

  4

  5

  6

  7

 40
1.0
 41
2.5
 42
0.625
 43
3.75
 44
1.25
 45
0.0
 46
0.0
 47
0.0
 48
0.0
140
2.5
141
2.5
142
0.0
143
0.03937007874016
144
1.0
145
0.0
146
1.0
147
0.625
 71
     0
 72
     0
 73
     0
 74
     0
 75
     0
 76
     0
 77
     1
 78
     8
170
     0
171
     3
172
     1
173
     0
174
     0
175
     0
176
     0
177
     0
178
     0
270
     2
271
     2
272
     2
273
     2
274
     3
340
11
275
     0
280
     0
281
     0
282
     0
283
     0
284
     8
285
     0
286
     0
287
     3
288
     0
  0
ENDTAB
  0
TABLE
  2
BLOCK_RECORD
  5
1
330
0
100
AcDbSymbolTable
 70
     1
  0
BLOCK_RECORD
  5
1F
330
1
100
AcDbSymbolTableRecord
100
AcDbBlockTableRecord
  2
*MODEL_SPACE
  0
BLOCK_RECORD
  5
1B
330
1
100
AcDbSymbolTableRecord
100
AcDbBlockTableRecord
  2
*PAPER_SPACE
  0
ENDTAB
  0
ENDSEC
  0
SECTION
  2
BLOCKS
  0
BLOCK
  5
20
330
1F
100
AcDbEntity
  8
0
100
AcDbBlockBegin
  2
*MODEL_SPACE
 70
     0
 10
0.0
 20
0.0
 30
0.0
  3
*MODEL_SPACE
  1

  0
ENDBLK
  5
21
330
1F
100
AcDbEntity
  8
0
100
AcDbBlockEnd
  0
BLOCK
  5
1C
330
1B
100
AcDbEntity
 67
     1
  8
0
100
AcDbBlockBegin
  2
*PAPER_SPACE
  1

  0
ENDBLK
  5
1D
330
1B
100
AcDbEntity
 67
     1
  8
0
100
AcDbBlockEnd
  0
ENDSEC
  0
SECTION
  2
ENTITIES
  0
SPLINE
  5
100
100
AcDbEntity
  8
Layer_1
 62
7
100
AcDbSpline
 70
8
 71
3
 72
8
 73
4
 74
0
 40
0
 40
0
 40
0
 40
0
 40
1
 40
1
 40
1
 40
1
 10
497.886489
 20
424.808073
 30
0.0
 10
497.886489
 20
426.428428
 30
0.0
 10
497.022040
 20
427.925697
 30
0.0
 10
495.618772
 20
428.735874
 30
0.0
  0
SPLINE
  5
101
100
AcDbEntity
  8
Layer_1
 62
7
100
AcDbSpline
 70
8
 71
3
 72
8
 73
4
 74
0
 40
0
 40
0
 40
0
 40
0
 40
1
 40
1
 40
1
 40
1
 10
495.618772
 20
428.735874
 30
0.0
 10
494.215504
 20
429.546051
 30
0.0
 10
492.486606
 20
429.546051
 30
0.0
 10
491.083338
 20
428.735874
 30
0.0
  0
SPLINE
  5
102
100
AcDbEntity
  8
Layer_1
 62
7
100
AcDbSpline
 70
8
 71
3
 72
8
 73
4
 74
0
 40
0
 40
0
 40
0
 40
0
 40
1
 40
1
 40
1
 40
1
 10
491.083338
 20
428.735874
 30
0.0
 10
489.680070
 20
427.925697
 30
0.0
 10
488.815621
 20
426.428428
 30
0.0
 10
488.815621
 20
424.808073
 30
0.0
  0
SPLINE
  5
103
100
AcDbEntity
  8
Layer_1
 62
7
100
AcDbSpline
 70
8
 71
3
 72
8
 73
4
 74
0
 40
0
 40
0
 40
0
 40
0
 40
1
 40
1
 40
1
 40
1
 10
488.815621
 20
424.808073
 30
0.0
 10
488.815621
 20
423.187719
 30
0.0
 10
489.680070
 20
421.690450
 30
0.0
 10
491.083338
 20
420.880273
 30
0.0
  0
SPLINE
  5
104
100
AcDbEntity
  8
Layer_1
 62
7
100
AcDbSpline
 70
8
 71
3
 72
8
 73
4
 74
0
 40
0
 40
0
 40
0
 40
0
 40
1
 40
1
 40
1
 40
1
 10
491.083338
 20
420.880273
 30
0.0
 10
492.486606
 20
420.070095
 30
0.0
 10
494.215504
 20
420.070095
 30
0.0
 10
495.618772
 20
420.880273
 30
0.0
  0
SPLINE
  5
105
100
AcDbEntity
  8
Layer_1
 62
7
100
AcDbSpline
 70
8
 71
3
 72
8
 73
4
 74
0
 40
0
 40
0
 40
0
 40
0
 40
1
 40
1
 40
1
 40
1
 10
495.618772
 20
420.880273
 30
0.0
 10
497.022040
 20
421.690450
 30
0.0
 10
497.886489
 20
423.187719
 30
0.0
 10
497.886489
 20
424.808073
 30
0.0
  0
LWPOLYLINE
  5
106
100
AcDbEntity
  8
Layer_1
 62
7
100
AcDbPolyline
 90
28
 70
1
 10
59.124659
 20
188.587641
 30
0.0
 10
59.124659
 20
472.052170
 30
0.0
 10
87.471116
 20
472.052170
 30
0.0
 10
87.471116
 20
486.225400
 30
0.0
 10
170.064425
 20
486.225400
 30
0.0
 10
170.064425
 20
472.052170
 30
0.0
 10
252.657739
 20
472.052170
 30
0.0
 10
252.657739
 20
486.225400
 30
0.0
 10
335.251046
 20
486.225400
 30
0.0
 10
335.251046
 20
472.052170
 30
0.0
 10
417.844360
 20
472.052170
 30
0.0
 10
417.844360
 20
486.225400
 30
0.0
 10
500.437666
 20
486.225400
 30
0.0
 10
500.437666
 20
472.052170
 30
0.0
 10
528.784126
 20
472.052170
 30
0.0
 10
528.784126
 20
188.587641
 30
0.0
 10
500.437666
 20
188.587641
 30
0.0
 10
500.437666
 20
174.414367
 30
0.0
 10
417.844360
 20
174.414367
 30
0.0
 10
417.844360
 20
188.587641
 30
0.0
 10
335.251046
 20
188.587641
 30
0.0
 10
335.251046
 20
174.414367
 30
0.0
 10
252.657739
 20
174.414367
 30
0.0
 10
252.657739
 20
188.587641
 30
0.0
 10
170.064425
 20
188.587641
 30
0.0
 10
170.064425
 20
174.414367
 30
0.0
 10
87.471116
 20
174.414367
 30
0.0
 10
87.471116
 20
188.587641
 30
0.0
  0
SPLINE
  5
107
100
AcDbEntity
  8
Layer_1
 62
7
100
AcDbSpline
 70
8
 71
3
 72
8
 73
4
 74
0
 40
0
 40
0
 40
0
 40
0
 40
1
 40
1
 40
1
 40
1
 10
298.489826
 20
418.193898
 30
0.0
 10
298.489826
 20
419.814253
 30
0.0
 10
297.625378
 20
421.311522
 30
0.0
 10
296.222109
 20
422.121699
 30
0.0
  0
SPLINE
  5
108
100
AcDbEntity
  8
Layer_1
 62
7
100
AcDbSpline
 70
8
 71
3
 72
8
 73
4
 74
0
 40
0
 40
0
 40
0
 40
0
 40
1
 40
1
 40
1
 40
1
 10
296.222109
 20
422.121699
 30
0.0
 10
294.818841
 20
422.931876
 30
0.0
 10
293.089944
 20
422.931876
 30
0.0
 10
291.686676
 20
422.121699
 30
0.0
  0
SPLINE
  5
109
100
AcDbEntity
  8
Layer_1
 62
7
100
AcDbSpline
 70
8
 71
3
 72
8
 73
4
 74
0
 40
0
 40
0
 40
0
 40
0
 40
1
 40
1
 40
1
 40
1
 10
291.686676
 20
422.121699
 30
0.0
 10
290.283408
 20
421.311522
 30
0.0
 10
289.418959
 20
419.814253
 30
0.0
 10
289.418959
 20
418.193898
 30
0.0
  0
SPLINE
  5
10a
100
AcDbEntity
  8
Layer_1
 62
7
100
AcDbSpline
 70
8
 71
3
 72
8
 73
4
 74
0
 40
0
 40
0
 40
0
 40
0
 40
1
 40
1
 40
1
 40
1
 10
289.418959
 20
418.193898
 30
0.0
 10
289.418959
 20
416.573544
 30
0.0
 10
290.283408
 20
415.076275
 30
0.0
 10
291.686676
 20
414.266098
 30
0.0
  0
SPLINE
  5
10b
100
AcDbEntity
  8
Layer_1
 62
7
100
AcDbSpline
 70
8
 71
3
 72
8
 73
4
 74
0
 40
0
 40
0
 40
0
 40
0
 40
1
 40
1
 40
1
 40
1
 10
291.686676
 20
414.266098
 30
0.0
 10
293.089944
 20
413.455920
 30
0.0
 10
294.818841
 20
413.455920
 30
0.0
 10
296.222109
 20
414.266098
 30
0.0
  0
SPLINE
  5
10c
100
AcDbEntity
  8
Layer_1
 62
7
100
AcDbSpline
 70
8
 71
3
 72
8
 73
4
 74
0
 40
0
 40
0
 40
0
 40
0
 40
1
 40
1
 40
1
 40
1
 10
296.222109
 20
414.266098
 30
0.0
 10
297.625378
 20
415.076275
 30
0.0
 10
298.489826
 20
416.573544
 30
0.0
 10
298.489826
 20
418.193898
 30
0.0
  0
LWPOLYLINE
  5
10d
100
AcDbEntity
  8
Layer_1
 62
7
100
AcDbPolyline
 90
1
 70
1
 10
497.886489
 20
424.808073
 30
0.0
  0
SPLINE
  5
10e
100
AcDbEntity
  8
Layer_1
 62
7
100
AcDbSpline
 70
8
 71
3
 72
8
 73
4
 74
0
 40
0
 40
0
 40
0
 40
0
 40
1
 40
1
 40
1
 40
1
 10
298.489826
 20
214.099416
 30
0.0
 10
298.489826
 20
215.719770
 30
0.0
 10
297.625378
 20
217.217040
 30
0.0
 10
296.222109
 20
218.027217
 30
0.0
  0
SPLINE
  5
10f
100
AcDbEntity
  8
Layer_1
 62
7
100
AcDbSpline
 70
8
 71
3
 72
8
 73
4
 74
0
 40
0
 40
0
 40
0
 40
0
 40
1
 40
1
 40
1
 40
1
 10
296.222109
 20
218.027217
 30
0.0
 10
294.818841
 20
218.837394
 30
0.0
 10
293.089944
 20
218.837394
 30
0.0
 10
291.686676
 20
218.027217
 30
0.0
  0
SPLINE
  5
110
100
AcDbEntity
  8
Layer_1
 62
7
100
AcDbSpline
 70
8
 71
3
 72
8
 73
4
 74
0
 40
0
 40
0
 40
0
 40
0
 40
1
 40
1
 40
1
 40
1
 10
291.686676
 20
218.027217
 30
0.0
 10
290.283408
 20
217.217040
 30
0.0
 10
289.418959
 20
215.719770
 30
0.0
 10
289.418959
 20
214.099416
 30
0.0
  0
SPLINE
  5
111
100
AcDbEntity
  8
Layer_1
 62
7
100
AcDbSpline
 70
8
 71
3
 72
8
 73
4
 74
0
 40
0
 40
0
 40
0
 40
0
 40
1
 40
1
 40
1
 40
1
 10
289.418959
 20
214.099416
 30
0.0
 10
289.418959
 20
212.479062
 30
0.0
 10
290.283408
 20
210.981792
 30
0.0
 10
291.686676
 20
210.171615
 30
0.0
  0
SPLINE
  5
112
100
AcDbEntity
  8
Layer_1
 62
7
100
AcDbSpline
 70
8
 71
3
 72
8
 73
4
 74
0
 40
0
 40
0
 40
0
 40
0
 40
1
 40
1
 40
1
 40
1
 10
291.686676
 20
210.171615
 30
0.0
 10
293.089944
 20
209.361438
 30
0.0
 10
294.818841
 20
209.361438
 30
0.0
 10
296.222109
 20
210.171615
 30
0.0
  0
SPLINE
  5
113
100
AcDbEntity
  8
Layer_1
 62
7
100
AcDbSpline
 70
8
 71
3
 72
8
 73
4
 74
0
 40
0
 40
0
 40
0
 40
0
 40
1
 40
1
 40
1
 40
1
 10
296.222109
 20
210.171615
 30
0.0
 10
297.625378
 20
210.981792
 30
0.0
 10
298.489826
 20
212.479062
 30
0.0
 10
298.489826
 20
214.099416
 30
0.0
  0
LWPOLYLINE
  5
114
100
AcDbEntity
  8
Layer_1
 62
7
100
AcDbPolyline
 90
1
 70
1
 10
298.489826
 20
418.193898
 30
0.0
  0
SPLINE
  5
115
100
AcDbEntity
  8
Layer_1
 62
7
100
AcDbSpline
 70
8
 71
3
 72
8
 73
4
 74
0
 40
0
 40
0
 40
0
 40
0
 40
1
 40
1
 40
1
 40
1
 10
99.093163
 20
424.808073
 30
0.0
 10
99.093163
 20
426.428428
 30
0.0
 10
98.228714
 20
427.925697
 30
0.0
 10
96.825446
 20
428.735874
 30
0.0
  0
SPLINE
  5
116
100
AcDbEntity
  8
Layer_1
 62
7
100
AcDbSpline
 70
8
 71
3
 72
8
 73
4
 74
0
 40
0
 40
0
 40
0
 40
0
 40
1
 40
1
 40
1
 40
1
 10
96.825446
 20
428.735874
 30
0.0
 10
95.422178
 20
429.546051
 30
0.0
 10
93.693281
 20
429.546051
 30
0.0
 10
92.290013
 20
428.735874
 30
0.0
  0
SPLINE
  5
117
100
AcDbEntity
  8
Layer_1
 62
7
100
AcDbSpline
 70
8
 71
3
 72
8
 73
4
 74
0
 40
0
 40
0
 40
0
 40
0
 40
1
 40
1
 40
1
 40
1
 10
92.290013
 20
428.735874
 30
0.0
 10
90.886745
 20
427.925697
 30
0.0
 10
90.022296
 20
426.428428
 30
0.0
 10
90.022296
 20
424.808073
 30
0.0
  0
SPLINE
  5
118
100
AcDbEntity
  8
Layer_1
 62
7
100
AcDbSpline
 70
8
 71
3
 72
8
 73
4
 74
0
 40
0
 40
0
 40
0
 40
0
 40
1
 40
1
 40
1
 40
1
 10
90.022296
 20
424.808073
 30
0.0
 10
90.022296
 20
423.187719
 30
0.0
 10
90.886745
 20
421.690450
 30
0.0
 10
92.290013
 20
420.880273
 30
0.0
  0
SPLINE
  5
119
100
AcDbEntity
  8
Layer_1
 62
7
100
AcDbSpline
 70
8
 71
3
 72
8
 73
4
 74
0
 40
0
 40
0
 40
0
 40
0
 40
1
 40
1
 40
1
 40
1
 10
92.290013
 20
420.880273
 30
0.0
 10
93.693281
 20
420.070096
 30
0.0
 10
95.422178
 20
420.070096
 30
0.0
 10
96.825446
 20
420.880273
 30
0.0
  0
SPLINE
  5
11a
100
AcDbEntity
  8
Layer_1
 62
7
100
AcDbSpline
 70
8
 71
3
 72
8
 73
4
 74
0
 40
0
 40
0
 40
0
 40
0
 40
1
 40
1
 40
1
 40
1
 10
96.825446
 20
420.880273
 30
0.0
 10
98.228714
 20
421.690450
 30
0.0
 10
99.093163
 20
423.187719
 30
0.0
 10
99.093163
 20
424.808073
 30
0.0
  0
LWPOLYLINE
  5
11b
100
AcDbEntity
  8
Layer_1
 62
7
100
AcDbPolyline
 90
1
 70
1
 10
298.489826
 20
214.099416
 30
0.0
  0
SPLINE
  5
11c
100
AcDbEntity
  8
Layer_1
 62
7
100
AcDbSpline
 70
8
 71
3
 72
8
 73
4
 74
0
 40
0
 40
0
 40
0
 40
0
 40
1
 40
1
 40
1
 40
1
 10
497.886489
 20
330.319887
 30
0.0
 10
497.886489
 20
331.940241
 30
0.0
 10
497.022040
 20
333.437511
 30
0.0
 10
495.618772
 20
334.247688
 30
0.0
  0
SPLINE
  5
11d
100
AcDbEntity
  8
Layer_1
 62
7
100
AcDbSpline
 70
8
 71
3
 72
8
 73
4
 74
0
 40
0
 40
0
 40
0
 40
0
 40
1
 40
1
 40
1
 40
1
 10
495.618772
 20
334.247688
 30
0.0
 10
494.215504
 20
335.057865
 30
0.0
 10
492.486606
 20
335.057865
 30
0.0
 10
491.083338
 20
334.247688
 30
0.0
  0
SPLINE
  5
11e
100
AcDbEntity
  8
Layer_1
 62
7
100
AcDbSpline
 70
8
 71
3
 72
8
 73
4
 74
0
 40
0
 40
0
 40
0
 40
0
 40
1
 40
1
 40
1
 40
1
 10
491.083338
 20
334.247688
 30
0.0
 10
489.680070
 20
333.437511
 30
0.0
 10
488.815621
 20
331.940241
 30
0.0
 10
488.815621
 20
330.319887
 30
0.0
  0
SPLINE
  5
11f
100
AcDbEntity
  8
Layer_1
 62
7
100
AcDbSpline
 70
8
 71
3
 72
8
 73
4
 74
0
 40
0
 40
0
 40
0
 40
0
 40
1
 40
1
 40
1
 40
1
 10
488.815621
 20
330.319887
 30
0.0
 10
488.815621
 20
328.699533
 30
0.0
 10
489.680070
 20
327.202263
 30
0.0
 10
491.083338
 20
326.392086
 30
0.0
  0
SPLINE
  5
120
100
AcDbEntity
  8
Layer_1
 62
7
100
AcDbSpline
 70
8
 71
3
 72
8
 73
4
 74
0
 40
0
 40
0
 40
0
 40
0
 40
1
 40
1
 40
1
 40
1
 10
491.083338
 20
326.392086
 30
0.0
 10
492.486606
 20
325.581909
 30
0.0
 10
494.215504
 20
325.581909
 30
0.0
 10
495.618772
 20
326.392086
 30
0.0
  0
SPLINE
  5
121
100
AcDbEntity
  8
Layer_1
 62
7
100
AcDbSpline
 70
8
 71
3
 72
8
 73
4
 74
0
 40
0
 40
0
 40
0
 40
0
 40
1
 40
1
 40
1
 40
1
 10
495.618772
 20
326.392086
 30
0.0
 10
497.022040
 20
327.202263
 30
0.0
 10
497.886489
 20
328.699533
 30
0.0
 10
497.886489
 20
330.319887
 30
0.0
  0
LWPOLYLINE
  5
122
100
AcDbEntity
  8
Layer_1
 62
7
100
AcDbPolyline
 90
1
 70
1
 10
99.093163
 20
424.808073
 30
0.0
  0
SPLINE
  5
123
100
AcDbEntity
  8
Layer_1
 62
7
100
AcDbSpline
 70
8
 71
3
 72
8
 73
4
 74
0
 40
0
 40
0
 40
0
 40
0
 40
1
 40
1
 40
1
 40
1
 10
99.093163
 20
330.319887
 30
0.0
 10
99.093163
 20
331.940241
 30
0.0
 10
98.228714
 20
333.437510
 30
0.0
 10
96.825446
 20
334.247688
 30
0.0
  0
SPLINE
  5
124
100
AcDbEntity
  8
Layer_1
 62
7
100
AcDbSpline
 70
8
 71
3
 72
8
 73
4
 74
0
 40
0
 40
0
 40
0
 40
0
 40
1
 40
1
 40
1
 40
1
 10
96.825446
 20
334.247688
 30
0.0
 10
95.422178
 20
335.057865
 30
0.0
 10
93.693281
 20
335.057865
 30
0.0
 10
92.290013
 20
334.247688
 30
0.0
  0
SPLINE
  5
125
100
AcDbEntity
  8
Layer_1
 62
7
100
AcDbSpline
 70
8
 71
3
 72
8
 73
4
 74
0
 40
0
 40
0
 40
0
 40
0
 40
1
 40
1
 40
1
 40
1
 10
92.290013
 20
334.247688
 30
0.0
 10
90.886745
 20
333.437510
 30
0.0
 10
90.022296
 20
331.940241
 30
0.0
 10
90.022296
 20
330.319887
 30
0.0
  0
SPLINE
  5
126
100
AcDbEntity
  8
Layer_1
 62
7
100
AcDbSpline
 70
8
 71
3
 72
8
 73
4
 74
0
 40
0
 40
0
 40
0
 40
0
 40
1
 40
1
 40
1
 40
1
 10
90.022296
 20
330.319887
 30
0.0
 10
90.022296
 20
328.699533
 30
0.0
 10
90.886745
 20
327.202264
 30
0.0
 10
92.290013
 20
326.392086
 30
0.0
  0
SPLINE
  5
127
100
AcDbEntity
  8
Layer_1
 62
7
100
AcDbSpline
 70
8
 71
3
 72
8
 73
4
 74
0
 40
0
 40
0
 40
0
 40
0
 40
1
 40
1
 40
1
 40
1
 10
92.290013
 20
326.392086
 30
0.0
 10
93.693281
 20
325.581909
 30
0.0
 10
95.422178
 20
325.581909
 30
0.0
 10
96.825446
 20
326.392086
 30
0.0
  0
SPLINE
  5
128
100
AcDbEntity
  8
Layer_1
 62
7
100
AcDbSpline
 70
8
 71
3
 72
8
 73
4
 74
0
 40
0
 40
0
 40
0
 40
0
 40
1
 40
1
 40
1
 40
1
 10
96.825446
 20
326.392086
 30
0.0
 10
98.228714
 20
327.202264
 30
0.0
 10
99.093163
 20
328.699533
 30
0.0
 10
99.093163
 20
330.319887
 30
0.0
  0
LWPOLYLINE
  5
129
100
AcDbEntity
  8
Layer_1
 62
7
100
AcDbPolyline
 90
1
 70
1
 10
497.886489
 20
330.319887
 30
0.0
  0
SPLINE
  5
12a
100
AcDbEntity
  8
Layer_1
 62
7
100
AcDbSpline
 70
8
 71
3
 72
8
 73
4
 74
0
 40
0
 40
0
 40
0
 40
0
 40
1
 40
1
 40
1
 40
1
 10
497.886489
 20
235.831716
 30
0.0
 10
497.886489
 20
237.452070
 30
0.0
 10
497.022040
 20
238.949339
 30
0.0
 10
495.618772
 20
239.759517
 30
0.0
  0
SPLINE
  5
12b
100
AcDbEntity
  8
Layer_1
 62
7
100
AcDbSpline
 70
8
 71
3
 72
8
 73
4
 74
0
 40
0
 40
0
 40
0
 40
0
 40
1
 40
1
 40
1
 40
1
 10
495.618772
 20
239.759517
 30
0.0
 10
494.215504
 20
240.569694
 30
0.0
 10
492.486606
 20
240.569694
 30
0.0
 10
491.083338
 20
239.759517
 30
0.0
  0
SPLINE
  5
12c
100
AcDbEntity
  8
Layer_1
 62
7
100
AcDbSpline
 70
8
 71
3
 72
8
 73
4
 74
0
 40
0
 40
0
 40
0
 40
0
 40
1
 40
1
 40
1
 40
1
 10
491.083338
 20
239.759517
 30
0.0
 10
489.680070
 20
238.949339
 30
0.0
 10
488.815621
 20
237.452070
 30
0.0
 10
488.815621
 20
235.831716
 30
0.0
  0
SPLINE
  5
12d
100
AcDbEntity
  8
Layer_1
 62
7
100
AcDbSpline
 70
8
 71
3
 72
8
 73
4
 74
0
 40
0
 40
0
 40
0
 40
0
 40
1
 40
1
 40
1
 40
1
 10
488.815621
 20
235.831716
 30
0.0
 10
488.815621
 20
234.211361
 30
0.0
 10
489.680070
 20
232.714092
 30
0.0
 10
491.083338
 20
231.903915
 30
0.0
  0
SPLINE
  5
12e
100
AcDbEntity
  8
Layer_1
 62
7
100
AcDbSpline
 70
8
 71
3
 72
8
 73
4
 74
0
 40
0
 40
0
 40
0
 40
0
 40
1
 40
1
 40
1
 40
1
 10
491.083338
 20
231.903915
 30
0.0
 10
492.486606
 20
231.093738
 30
0.0
 10
494.215504
 20
231.093738
 30
0.0
 10
495.618772
 20
231.903915
 30
0.0
  0
SPLINE
  5
12f
100
AcDbEntity
  8
Layer_1
 62
7
100
AcDbSpline
 70
8
 71
3
 72
8
 73
4
 74
0
 40
0
 40
0
 40
0
 40
0
 40
1
 40
1
 40
1
 40
1
 10
495.618772
 20
231.903915
 30
0.0
 10
497.022040
 20
232.714092
 30
0.0
 10
497.886489
 20
234.211361
 30
0.0
 10
497.886489
 20
235.831716
 30
0.0
  0
LWPOLYLINE
  5
130
100
AcDbEntity
  8
Layer_1
 62
7
100
AcDbPolyline
 90
1
 70
1
 10
99.093163
 20
330.319887
 30
0.0
  0
SPLINE
  5
131
100
AcDbEntity
  8
Layer_1
 62
7
100
AcDbSpline
 70
8
 71
3
 72
8
 73
4
 74
0
 40
0
 40
0
 40
0
 40
0
 40
1
 40
1
 40
1
 40
1
 10
99.093163
 20
235.831716
 30
0.0
 10
99.093163
 20
237.452070
 30
0.0
 10
98.228714
 20
238.949339
 30
0.0
 10
96.825446
 20
239.759516
 30
0.0
  0
SPLINE
  5
132
100
AcDbEntity
  8
Layer_1
 62
7
100
AcDbSpline
 70
8
 71
3
 72
8
 73
4
 74
0
 40
0
 40
0
 40
0
 40
0
 40
1
 40
1
 40
1
 40
1
 10
96.825446
 20
239.759516
 30
0.0
 10
95.422178
 20
240.569693
 30
0.0
 10
93.693281
 20
240.569693
 30
0.0
 10
92.290013
 20
239.759516
 30
0.0
  0
SPLINE
  5
133
100
AcDbEntity
  8
Layer_1
 62
7
100
AcDbSpline
 70
8
 71
3
 72
8
 73
4
 74
0
 40
0
 40
0
 40
0
 40
0
 40
1
 40
1
 40
1
 40
1
 10
92.290013
 20
239.759516
 30
0.0
 10
90.886745
 20
238.949339
 30
0.0
 10
90.022296
 20
237.452070
 30
0.0
 10
90.022296
 20
235.831716
 30
0.0
  0
SPLINE
  5
134
100
AcDbEntity
  8
Layer_1
 62
7
100
AcDbSpline
 70
8
 71
3
 72
8
 73
4
 74
0
 40
0
 40
0
 40
0
 40
0
 40
1
 40
1
 40
1
 40
1
 10
90.022296
 20
235.831716
 30
0.0
 10
90.022296
 20
234.211361
 30
0.0
 10
90.886745
 20
232.714092
 30
0.0
 10
92.290013
 20
231.903915
 30
0.0
  0
SPLINE
  5
135
100
AcDbEntity
  8
Layer_1
 62
7
100
AcDbSpline
 70
8
 71
3
 72
8
 73
4
 74
0
 40
0
 40
0
 40
0
 40
0
 40
1
 40
1
 40
1
 40
1
 10
92.290013
 20
231.903915
 30
0.0
 10
93.693281
 20
231.093738
 30
0.0
 10
95.422178
 20
231.093738
 30
0.0
 10
96.825446
 20
231.903915
 30
0.0
  0
SPLINE
  5
136
100
AcDbEntity
  8
Layer_1
 62
7
100
AcDbSpline
 70
8
 71
3
 72
8
 73
4
 74
0
 40
0
 40
0
 40
0
 40
0
 40
1
 40
1
 40
1
 40
1
 10
96.825446
 20
231.903915
 30
0.0
 10
98.228714
 20
232.714092
 30
0.0
 10
99.093163
 20
234.211361
 30
0.0
 10
99.093163
 20
235.831716
 30
0.0
  0
LWPOLYLINE
  5
137
100
AcDbEntity
  8
Layer_1
 62
7
100
AcDbPolyline
 90
1
 70
1
 10
497.886489
 20
235.831716
 30
0.0
  0
LWPOLYLINE
  5
138
100
AcDbEntity
  8
Layer_1
 62
7
100
AcDbPolyline
 90
1
 70
1
 10
99.093163
 20
235.831716
 30
0.0
  0
SPLINE
  5
139
100
AcDbEntity
  8
Layer_1
 62
7
100
AcDbSpline
 70
8
 71
3
 72
8
 73
4
 74
0
 40
0
 40
0
 40
0
 40
0
 40
1
 40
1
 40
1
 40
1
 10
226.563507
 20
333.154535
 30
0.0
 10
226.566492
 20
349.780846
 30
0.0
 10
217.698175
 20
365.145468
 30
0.0
 10
203.299865
 20
373.459485
 30
0.0
  0
SPLINE
  5
13a
100
AcDbEntity
  8
Layer_1
 62
7
100
AcDbSpline
 70
8
 71
3
 72
8
 73
4
 74
0
 40
0
 40
0
 40
0
 40
0
 40
1
 40
1
 40
1
 40
1
 10
203.299865
 20
373.459485
 30
0.0
 10
188.901555
 20
381.773503
 30
0.0
 10
171.161243
 20
381.773503
 30
0.0
 10
156.762932
 20
373.459485
 30
0.0
  0
SPLINE
  5
13b
100
AcDbEntity
  8
Layer_1
 62
7
100
AcDbSpline
 70
8
 71
3
 72
8
 73
4
 74
0
 40
0
 40
0
 40
0
 40
0
 40
1
 40
1
 40
1
 40
1
 10
156.762932
 20
373.459485
 30
0.0
 10
142.364622
 20
365.145468
 30
0.0
 10
133.496305
 20
349.780846
 30
0.0
 10
133.499290
 20
333.154535
 30
0.0
  0
SPLINE
  5
13c
100
AcDbEntity
  8
Layer_1
 62
7
100
AcDbSpline
 70
8
 71
3
 72
8
 73
4
 74
0
 40
0
 40
0
 40
0
 40
0
 40
1
 40
1
 40
1
 40
1
 10
133.499290
 20
333.154535
 30
0.0
 10
133.495069
 20
316.527399
 30
0.0
 10
142.363115
 20
301.161486
 30
0.0
 10
156.761933
 20
292.846699
 30
0.0
  0
SPLINE
  5
13d
100
AcDbEntity
  8
Layer_1
 62
7
100
AcDbSpline
 70
8
 71
3
 72
8
 73
4
 74
0
 40
0
 40
0
 40
0
 40
0
 40
1
 40
1
 40
1
 40
1
 10
156.761933
 20
292.846699
 30
0.0
 10
171.160751
 20
284.531913
 30
0.0
 10
188.902046
 20
284.531913
 30
0.0
 10
203.300864
 20
292.846699
 30
0.0
  0
SPLINE
  5
13e
100
AcDbEntity
  8
Layer_1
 62
7
100
AcDbSpline
 70
8
 71
3
 72
8
 73
4
 74
0
 40
0
 40
0
 40
0
 40
0
 40
1
 40
1
 40
1
 40
1
 10
203.300864
 20
292.846699
 30
0.0
 10
217.699683
 20
301.161486
 30
0.0
 10
226.567729
 20
316.527399
 30
0.0
 10
226.563507
 20
333.154535
 30
0.0
  0
LWPOLYLINE
  5
13f
100
AcDbEntity
  8
Layer_1
 62
7
100
AcDbPolyline
 90
4
 70
1
 10
337.891398
 20
320.398625
 30
0.0
 10
264.190609
 20
320.398625
 30
0.0
 10
264.190609
 20
340.241149
 30
0.0
 10
337.891398
 20
340.241149
 30
0.0
  0
SPLINE
  5
140
100
AcDbEntity
  8
Layer_1
 62
7
100
AcDbSpline
 70
8
 71
3
 72
8
 73
4
 74
0
 40
0
 40
0
 40
0
 40
0
 40
1
 40
1
 40
1
 40
1
 10
207.943557
 20
248.115141
 30
0.0
 10
207.945888
 20
250.648496
 30
0.0
 10
206.595698
 20
252.990411
 30
0.0
 10
204.402136
 20
254.257762
 30
0.0
  0
SPLINE
  5
141
100
AcDbEntity
  8
Layer_1
 62
7
100
AcDbSpline
 70
8
 71
3
 72
8
 73
4
 74
0
 40
0
 40
0
 40
0
 40
0
 40
1
 40
1
 40
1
 40
1
 10
204.402136
 20
254.257762
 30
0.0
 10
202.208573
 20
255.525113
 30
0.0
 10
199.505319
 20
255.525113
 30
0.0
 10
197.311757
 20
254.257762
 30
0.0
  0
SPLINE
  5
142
100
AcDbEntity
  8
Layer_1
 62
7
100
AcDbSpline
 70
8
 71
3
 72
8
 73
4
 74
0
 40
0
 40
0
 40
0
 40
0
 40
1
 40
1
 40
1
 40
1
 10
197.311757
 20
254.257762
 30
0.0
 10
195.118194
 20
252.990411
 30
0.0
 10
193.768004
 20
250.648496
 30
0.0
 10
193.770335
 20
248.115141
 30
0.0
  0
SPLINE
  5
143
100
AcDbEntity
  8
Layer_1
 62
7
100
AcDbSpline
 70
8
 71
3
 72
8
 73
4
 74
0
 40
0
 40
0
 40
0
 40
0
 40
1
 40
1
 40
1
 40
1
 10
193.770335
 20
248.115141
 30
0.0
 10
193.768004
 20
245.581785
 30
0.0
 10
195.118194
 20
243.239870
 30
0.0
 10
197.311757
 20
241.972519
 30
0.0
  0
SPLINE
  5
144
100
AcDbEntity
  8
Layer_1
 62
7
100
AcDbSpline
 70
8
 71
3
 72
8
 73
4
 74
0
 40
0
 40
0
 40
0
 40
0
 40
1
 40
1
 40
1
 40
1
 10
197.311757
 20
241.972519
 30
0.0
 10
199.505319
 20
240.705168
 30
0.0
 10
202.208573
 20
240.705168
 30
0.0
 10
204.402136
 20
241.972519
 30
0.0
  0
SPLINE
  5
145
100
AcDbEntity
  8
Layer_1
 62
7
100
AcDbSpline
 70
8
 71
3
 72
8
 73
4
 74
0
 40
0
 40
0
 40
0
 40
0
 40
1
 40
1
 40
1
 40
1
 10
204.402136
 20
241.972519
 30
0.0
 10
206.595698
 20
243.239870
 30
0.0
 10
207.945888
 20
245.581785
 30
0.0
 10
207.943557
 20
248.115141
 30
0.0
  0
LWPOLYLINE
  5
146
100
AcDbEntity
  8
Layer_1
 62
7
100
AcDbPolyline
 90
1
 70
1
 10
226.563507
 20
333.154535
 30
0.0
  0
SPLINE
  5
147
100
AcDbEntity
  8
Layer_1
 62
7
100
AcDbSpline
 70
8
 71
3
 72
8
 73
4
 74
0
 40
0
 40
0
 40
0
 40
0
 40
1
 40
1
 40
1
 40
1
 10
207.943557
 20
222.603366
 30
0.0
 10
207.945888
 20
225.136721
 30
0.0
 10
206.595698
 20
227.478636
 30
0.0
 10
204.402136
 20
228.745987
 30
0.0
  0
SPLINE
  5
148
100
AcDbEntity
  8
Layer_1
 62
7
100
AcDbSpline
 70
8
 71
3
 72
8
 73
4
 74
0
 40
0
 40
0
 40
0
 40
0
 40
1
 40
1
 40
1
 40
1
 10
204.402136
 20
228.745987
 30
0.0
 10
202.208573
 20
230.013339
 30
0.0
 10
199.505319
 20
230.013339
 30
0.0
 10
197.311757
 20
228.745987
 30
0.0
  0
SPLINE
  5
149
100
AcDbEntity
  8
Layer_1
 62
7
100
AcDbSpline
 70
8
 71
3
 72
8
 73
4
 74
0
 40
0
 40
0
 40
0
 40
0
 40
1
 40
1
 40
1
 40
1
 10
197.311757
 20
228.745987
 30
0.0
 10
195.118194
 20
227.478636
 30
0.0
 10
193.768004
 20
225.136721
 30
0.0
 10
193.770335
 20
222.603366
 30
0.0
  0
SPLINE
  5
14a
100
AcDbEntity
  8
Layer_1
 62
7
100
AcDbSpline
 70
8
 71
3
 72
8
 73
4
 74
0
 40
0
 40
0
 40
0
 40
0
 40
1
 40
1
 40
1
 40
1
 10
193.770335
 20
222.603366
 30
0.0
 10
193.768004
 20
220.070010
 30
0.0
 10
195.118194
 20
217.728096
 30
0.0
 10
197.311757
 20
216.460744
 30
0.0
  0
SPLINE
  5
14b
100
AcDbEntity
  8
Layer_1
 62
7
100
AcDbSpline
 70
8
 71
3
 72
8
 73
4
 74
0
 40
0
 40
0
 40
0
 40
0
 40
1
 40
1
 40
1
 40
1
 10
197.311757
 20
216.460744
 30
0.0
 10
199.505319
 20
215.193393
 30
0.0
 10
202.208573
 20
215.193393
 30
0.0
 10
204.402136
 20
216.460744
 30
0.0
  0
SPLINE
  5
14c
100
AcDbEntity
  8
Layer_1
 62
7
100
AcDbSpline
 70
8
 71
3
 72
8
 73
4
 74
0
 40
0
 40
0
 40
0
 40
0
 40
1
 40
1
 40
1
 40
1
 10
204.402136
 20
216.460744
 30
0.0
 10
206.595698
 20
217.728096
 30
0.0
 10
207.945888
 20
220.070010
 30
0.0
 10
207.943557
 20
222.603366
 30
0.0
  0
LWPOLYLINE
  5
14d
100
AcDbEntity
  8
Layer_1
 62
7
100
AcDbPolyline
 90
1
 70
1
 10
207.943557
 20
248.115141
 30
0.0
  0
LWPOLYLINE
  5
14e
100
AcDbEntity
  8
Layer_1
 62
7
100
AcDbPolyline
 90
1
 70
1
 10
207.943557
 20
222.603366
 30
0.0
  0
SPLINE
  5
14f
100
AcDbEntity
  8
Layer_1
 62
7
100
AcDbSpline
 70
8
 71
3
 72
8
 73
4
 74
0
 40
0
 40
0
 40
0
 40
0
 40
1
 40
1
 40
1
 40
1
 10
189.518353
 20
429.532481
 30
0.0
 10
189.522389
 20
435.611498
 30
0.0
 10
186.281591
 20
441.230469
 30
0.0
 10
181.017680
 20
444.271143
 30
0.0
  0
SPLINE
  5
150
100
AcDbEntity
  8
Layer_1
 62
7
100
AcDbSpline
 70
8
 71
3
 72
8
 73
4
 74
0
 40
0
 40
0
 40
0
 40
0
 40
1
 40
1
 40
1
 40
1
 10
181.017680
 20
444.271143
 30
0.0
 10
175.753769
 20
447.311817
 30
0.0
 10
169.267197
 20
447.311817
 30
0.0
 10
164.003286
 20
444.271143
 30
0.0
  0
SPLINE
  5
151
100
AcDbEntity
  8
Layer_1
 62
7
100
AcDbSpline
 70
8
 71
3
 72
8
 73
4
 74
0
 40
0
 40
0
 40
0
 40
0
 40
1
 40
1
 40
1
 40
1
 10
164.003286
 20
444.271143
 30
0.0
 10
158.739375
 20
441.230469
 30
0.0
 10
155.498576
 20
435.611498
 30
0.0
 10
155.502613
 20
429.532481
 30
0.0
  0
SPLINE
  5
152
100
AcDbEntity
  8
Layer_1
 62
7
100
AcDbSpline
 70
8
 71
3
 72
8
 73
4
 74
0
 40
0
 40
0
 40
0
 40
0
 40
1
 40
1
 40
1
 40
1
 10
155.502613
 20
429.532481
 30
0.0
 10
155.498576
 20
423.453464
 30
0.0
 10
158.739375
 20
417.834493
 30
0.0
 10
164.003286
 20
414.793819
 30
0.0
  0
SPLINE
  5
153
100
AcDbEntity
  8
Layer_1
 62
7
100
AcDbSpline
 70
8
 71
3
 72
8
 73
4
 74
0
 40
0
 40
0
 40
0
 40
0
 40
1
 40
1
 40
1
 40
1
 10
164.003286
 20
414.793819
 30
0.0
 10
169.267197
 20
411.753145
 30
0.0
 10
175.753769
 20
411.753145
 30
0.0
 10
181.017680
 20
414.793819
 30
0.0
  0
SPLINE
  5
154
100
AcDbEntity
  8
Layer_1
 62
7
100
AcDbSpline
 70
8
 71
3
 72
8
 73
4
 74
0
 40
0
 40
0
 40
0
 40
0
 40
1
 40
1
 40
1
 40
1
 10
181.017680
 20
414.793819
 30
0.0
 10
186.281591
 20
417.834493
 30
0.0
 10
189.522389
 20
423.453464
 30
0.0
 10
189.518353
 20
429.532481
 30
0.0
  0
LWPOLYLINE
  5
155
100
AcDbEntity
  8
Layer_1
 62
7
100
AcDbPolyline
 90
4
 70
1
 10
178.319525
 20
223.964766
 30
0.0
 10
155.075428
 20
223.964766
 30
0.0
 10
155.075428
 20
247.208916
 30
0.0
 10
178.319525
 20
247.208916
 30
0.0
  0
LWPOLYLINE
  5
156
100
AcDbEntity
  8
Layer_1
 62
7
100
AcDbPolyline
 90
1
 70
1
 10
189.518353
 20
429.532481
 30
0.0
  0
ENDSEC
  0
SECTION
  2
OBJECTS
  0
DICTIONARY
  5
C
330
0
100
AcDbDictionary
  3
ACAD_GROUP
350
D
  3
ACAD_MLINESTYLE
350
17
  0
DICTIONARY
  5
D
330
C
100
AcDbDictionary
  0
DICTIONARY
  5
1A
330
C
100
AcDbDictionary
  0
DICTIONARY
  5
17
330
C
100
AcDbDictionary
  3
STANDARD
350
18
  0
DICTIONARY
  5
19
330
C
100
AcDbDictionary
  0
ENDSEC
  0
EOF
