  0
SECTION
  2
HEADER
  9
$ACADVER
  1
AC1014
  9
$HANDSEED
  5
FFFF
  9
$MEASUREMENT
 70
     1
  0
ENDSEC
  0
SECTION
  2
TABLES
  0
TABLE
  2
VPORT
  5
8
330
0
100
AcDbSymbolTable
 70
     4
  0
VPORT
  5
2E
330
8
100
AcDbSymbolTableRecord
100
AcDbViewportTableRecord
  2
*ACTIVE
 70
     0
 10
0.0
 20
0.0
 11
1.0
 21
1.0
 12
210.0
 22
148.5
 13
0.0
 23
0.0
 14
10.0
 24
10.0
 15
10.0
 25
10.0
 16
0.0
 26
0.0
 36
1.0
 17
0.0
 27
0.0
 37
0.0
 40
341.0
 41
1.24
 42
50.0
 43
0.0
 44
0.0
 50
0.0
 51
0.0
 71
     0
 72
   100
 73
     1
 74
     3
 75
     0
 76
     0
 77
     0
 78
     0
  0
ENDTAB
  0
TABLE
  2
LTYPE
  5
5
330
0
100
AcDbSymbolTable
 70
     1
  0
LTYPE
  5
14
330
5
100
AcDbSymbolTableRecord
100
AcDbLinetypeTableRecord
  2
BYBLOCK
 70
     0
  3

 72
    65
 73
     0
 40
0.0
  0
LTYPE
  5
15
330
5
100
AcDbSymbolTableRecord
100
AcDbLinetypeTableRecord
  2
BYLAYER
 70
     0
  3

 72
    65
 73
     0
 40
0.0
  0
LTYPE
  5
16
330
5
100
AcDbSymbolTableRecord
100
AcDbLinetypeTableRecord
  2
CONTINUOUS
 70
     0
  3
Solid line
 72
    65
 73
     0
 40
0.0
  0
ENDTAB
  0
TABLE
  2
LAYER
  5
2
100
AcDbSymbolTable
 70
2
  0
LAYER
  5
50
100
AcDbSymbolTableRecord
100
AcDbLayerTableRecord
  2
0
 70
0
  6
CONTINUOUS
  0
LAYER
  5
51
100
AcDbSymbolTableRecord
100
AcDbLayerTableRecord
  2
Layer_1
 70
0
  6
CONTINUOUS
  0
ENDTAB
  0
TABLE
  2
STYLE
  5
3
330
0
100
AcDbSymbolTable
 70
     1
  0
STYLE
  5
11
330
3
100
AcDbSymbolTableRecord
100
AcDbTextStyleTableRecord
  2
STANDARD
 70
     0
 40
0.0
 41
1.0
 50
0.0
 71
     0
 42
2.5
  3
txt
  4

  0
ENDTAB
  0
TABLE
  2
VIEW
  5
6
330
0
100
AcDbSymbolTable
 70
     0
  0
ENDTAB
  0
TABLE
  2
UCS
  5
7
330
0
100
AcDbSymbolTable
 70
     0
  0
ENDTAB
  0
TABLE
  2
APPID
  5
9
330
0
100
AcDbSymbolTable
 70
     2
  0
APPID
  5
12
330
9
100
AcDbSymbolTableRecord
100
AcDbRegAppTableRecord
  2
ACAD
 70
     0
  0
ENDTAB
  0
TABLE
  2
DIMSTYLE
  5
A
330
0
100
AcDbSymbolTable
 70
     1
  0
DIMSTYLE
105
27
330
A
100
AcDbSymbolTableRecord
100
AcDbDimStyleTableRecord
  2
ISO-25
 70
     0
  3

  4

  5

  6

  7

 40
1.0
 41
2.5
 42
0.625
 43
3.75
 44
1.25
 45
0.0
 46
0.0
 47
0.0
 48
0.0
140
2.5
141
2.5
142
0.0
143
0.03937007874016
144
1.0
145
0.0
146
1.0
147
0.625
 71
     0
 72
     0
 73
     0
 74
     0
 75
     0
 76
     0
 77
     1
 78
     8
170
     0
171
     3
172
     1
173
     0
174
     0
175
     0
176
     0
177
     0
178
     0
270
     2
271
     2
272
     2
273
     2
274
     3
340
11
275
     0
280
     0
281
     0
282
     0
283
     0
284
     8
285
     0
286
     0
287
     3
288
     0
  0
ENDTAB
  0
TABLE
  2
BLOCK_RECORD
  5
1
330
0
100
AcDbSymbolTable
 70
     1
  0
BLOCK_RECORD
  5
1F
330
1
100
AcDbSymbolTableRecord
100
AcDbBlockTableRecord
  2
*MODEL_SPACE
  0
BLOCK_RECORD
  5
1B
330
1
100
AcDbSymbolTableRecord
100
AcDbBlockTableRecord
  2
*PAPER_SPACE
  0
ENDTAB
  0
ENDSEC
  0
SECTION
  2
BLOCKS
  0
BLOCK
  5
20
330
1F
100
AcDbEntity
  8
0
100
AcDbBlockBegin
  2
*MODEL_SPACE
 70
     0
 10
0.0
 20
0.0
 30
0.0
  3
*MODEL_SPACE
  1

  0
ENDBLK
  5
21
330
1F
100
AcDbEntity
  8
0
100
AcDbBlockEnd
  0
BLOCK
  5
1C
330
1B
100
AcDbEntity
 67
     1
  8
0
100
AcDbBlockBegin
  2
*PAPER_SPACE
  1

  0
ENDBLK
  5
1D
330
1B
100
AcDbEntity
 67
     1
  8
0
100
AcDbBlockEnd
  0
ENDSEC
  0
SECTION
  2
ENTITIES
  0
SPLINE
  5
100
100
AcDbEntity
  8
Layer_1
 62
7
100
AcDbSpline
 70
8
 71
3
 72
8
 73
4
 74
0
 40
0
 40
0
 40
0
 40
0
 40
1
 40
1
 40
1
 40
1
 10
34.706590
 20
659.763961
 30
0.0
 10
24.359637
 20
659.763963
 30
0.0
 10
14.436469
 20
655.653653
 30
0.0
 10
7.120068
 20
648.337254
 30
0.0
  0
SPLINE
  5
101
100
AcDbEntity
  8
Layer_1
 62
7
100
AcDbSpline
 70
8
 71
3
 72
8
 73
4
 74
0
 40
0
 40
0
 40
0
 40
0
 40
1
 40
1
 40
1
 40
1
 10
531.952579
 20
648.337254
 30
0.0
 10
524.636183
 20
655.653648
 30
0.0
 10
514.713024
 20
659.763957
 30
0.0
 10
504.366079
 20
659.763961
 30
0.0
  0
SPLINE
  5
102
100
AcDbEntity
  8
Layer_1
 62
7
100
AcDbSpline
 70
8
 71
3
 72
8
 73
4
 74
0
 40
0
 40
0
 40
0
 40
0
 40
1
 40
1
 40
1
 40
1
 10
875.478674
 20
288.651343
 30
0.0
 10
875.478677
 20
298.998293
 30
0.0
 10
871.368370
 20
308.921460
 30
0.0
 10
864.051974
 20
316.237861
 30
0.0
  0
SPLINE
  5
103
100
AcDbEntity
  8
Layer_1
 62
7
100
AcDbSpline
 70
8
 71
3
 72
8
 73
4
 74
0
 40
0
 40
0
 40
0
 40
0
 40
1
 40
1
 40
1
 40
1
 10
864.051974
 20
-208.594638
 30
0.0
 10
871.368369
 20
-201.278238
 30
0.0
 10
875.478676
 20
-191.355072
 30
0.0
 10
875.478674
 20
-181.008123
 30
0.0
  0
SPLINE
  5
104
100
AcDbEntity
  8
Layer_1
 62
7
100
AcDbSpline
 70
8
 71
3
 72
8
 73
4
 74
0
 40
0
 40
0
 40
0
 40
0
 40
1
 40
1
 40
1
 40
1
 10
504.366079
 20
-552.120756
 30
0.0
 10
514.713022
 20
-552.120754
 30
0.0
 10
524.636182
 20
-548.010448
 30
0.0
 10
531.952579
 20
-540.694056
 30
0.0
  0
SPLINE
  5
105
100
AcDbEntity
  8
Layer_1
 62
7
100
AcDbSpline
 70
8
 71
3
 72
8
 73
4
 74
0
 40
0
 40
0
 40
0
 40
0
 40
1
 40
1
 40
1
 40
1
 10
7.120068
 20
-540.694056
 30
0.0
 10
14.436470
 20
-548.010453
 30
0.0
 10
24.359638
 20
-552.120760
 30
0.0
 10
34.706590
 20
-552.120756
 30
0.0
  0
SPLINE
  5
106
100
AcDbEntity
  8
Layer_1
 62
7
100
AcDbSpline
 70
8
 71
3
 72
8
 73
4
 74
0
 40
0
 40
0
 40
0
 40
0
 40
1
 40
1
 40
1
 40
1
 10
-336.406036
 20
-181.008123
 30
0.0
 10
-336.406035
 20
-191.355073
 30
0.0
 10
-332.295724
 20
-201.278239
 30
0.0
 10
-324.979326
 20
-208.594638
 30
0.0
  0
SPLINE
  5
107
100
AcDbEntity
  8
Layer_1
 62
7
100
AcDbSpline
 70
8
 71
3
 72
8
 73
4
 74
0
 40
0
 40
0
 40
0
 40
0
 40
1
 40
1
 40
1
 40
1
 10
-324.979326
 20
316.237861
 30
0.0
 10
-332.295725
 20
308.921461
 30
0.0
 10
-336.406036
 20
298.998294
 30
0.0
 10
-336.406036
 20
288.651343
 30
0.0
  0
SPLINE
  5
108
100
AcDbEntity
  8
Layer_1
 62
7
100
AcDbSpline
 70
8
 71
3
 72
8
 73
4
 74
0
 40
0
 40
0
 40
0
 40
0
 40
1
 40
1
 40
1
 40
1
 10
35.678057
 20
275.472182
 30
0.0
 10
35.302159
 20
275.472180
 30
0.0
 10
34.941657
 20
275.621504
 30
0.0
 10
34.675856
 20
275.887304
 30
0.0
  0
SPLINE
  5
109
100
AcDbEntity
  8
Layer_1
 62
7
100
AcDbSpline
 70
8
 71
3
 72
8
 73
4
 74
0
 40
0
 40
0
 40
0
 40
0
 40
1
 40
1
 40
1
 40
1
 10
34.675856
 20
275.887304
 30
0.0
 10
34.410055
 20
276.153104
 30
0.0
 10
34.260730
 20
276.513606
 30
0.0
 10
34.260730
 20
276.889504
 30
0.0
  0
SPLINE
  5
10a
100
AcDbEntity
  8
Layer_1
 62
7
100
AcDbSpline
 70
8
 71
3
 72
8
 73
4
 74
0
 40
0
 40
0
 40
0
 40
0
 40
1
 40
1
 40
1
 40
1
 10
34.260730
 20
276.889504
 30
0.0
 10
34.260730
 20
276.889504
 30
0.0
 10
34.260730
 20
563.188712
 30
0.0
 10
34.260730
 20
563.188712
 30
0.0
  0
SPLINE
  5
10b
100
AcDbEntity
  8
Layer_1
 62
7
100
AcDbSpline
 70
8
 71
3
 72
8
 73
4
 74
0
 40
0
 40
0
 40
0
 40
0
 40
1
 40
1
 40
1
 40
1
 10
34.260730
 20
563.188712
 30
0.0
 10
34.260731
 20
563.564610
 30
0.0
 10
34.410056
 20
563.925112
 30
0.0
 10
34.675857
 20
564.190911
 30
0.0
  0
SPLINE
  5
10c
100
AcDbEntity
  8
Layer_1
 62
7
100
AcDbSpline
 70
8
 71
3
 72
8
 73
4
 74
0
 40
0
 40
0
 40
0
 40
0
 40
1
 40
1
 40
1
 40
1
 10
34.675857
 20
564.190911
 30
0.0
 10
34.941657
 20
564.456710
 30
0.0
 10
35.302160
 20
564.606034
 30
0.0
 10
35.678057
 20
564.606032
 30
0.0
  0
SPLINE
  5
10d
100
AcDbEntity
  8
Layer_1
 62
7
100
AcDbSpline
 70
8
 71
3
 72
8
 73
4
 74
0
 40
0
 40
0
 40
0
 40
0
 40
1
 40
1
 40
1
 40
1
 10
35.678057
 20
564.606032
 30
0.0
 10
35.678057
 20
564.606032
 30
0.0
 10
503.394604
 20
564.606032
 30
0.0
 10
503.394604
 20
564.606032
 30
0.0
  0
SPLINE
  5
10e
100
AcDbEntity
  8
Layer_1
 62
7
100
AcDbSpline
 70
8
 71
3
 72
8
 73
4
 74
0
 40
0
 40
0
 40
0
 40
0
 40
1
 40
1
 40
1
 40
1
 10
503.394604
 20
564.606032
 30
0.0
 10
504.177350
 20
564.606006
 30
0.0
 10
504.811877
 20
563.971458
 30
0.0
 10
504.811879
 20
563.188712
 30
0.0
  0
SPLINE
  5
10f
100
AcDbEntity
  8
Layer_1
 62
7
100
AcDbSpline
 70
8
 71
3
 72
8
 73
4
 74
0
 40
0
 40
0
 40
0
 40
0
 40
1
 40
1
 40
1
 40
1
 10
504.811879
 20
563.188712
 30
0.0
 10
504.811879
 20
563.188712
 30
0.0
 10
504.811879
 20
276.889504
 30
0.0
 10
504.811879
 20
276.889504
 30
0.0
  0
SPLINE
  5
110
100
AcDbEntity
  8
Layer_1
 62
7
100
AcDbSpline
 70
8
 71
3
 72
8
 73
4
 74
0
 40
0
 40
0
 40
0
 40
0
 40
1
 40
1
 40
1
 40
1
 10
504.811879
 20
276.889504
 30
0.0
 10
504.811878
 20
276.106757
 30
0.0
 10
504.177351
 20
275.472208
 30
0.0
 10
503.394604
 20
275.472182
 30
0.0
  0
LWPOLYLINE
  5
111
100
AcDbEntity
  8
Layer_1
 62
7
100
AcDbPolyline
 90
2
 70
0
 10
503.394604
 20
275.472182
 30
0.0
 10
35.678057
 20
275.472182
 30
0.0
  0
SPLINE
  5
112
100
AcDbEntity
  8
Layer_1
 62
7
100
AcDbSpline
 70
8
 71
3
 72
8
 73
4
 74
0
 40
0
 40
0
 40
0
 40
0
 40
1
 40
1
 40
1
 40
1
 10
283.709549
 20
-352.578286
 30
0.0
 10
283.709549
 20
-347.514679
 30
0.0
 10
281.008147
 20
-342.835713
 30
0.0
 10
276.622934
 20
-340.303909
 30
0.0
  0
SPLINE
  5
113
100
AcDbEntity
  8
Layer_1
 62
7
100
AcDbSpline
 70
8
 71
3
 72
8
 73
4
 74
0
 40
0
 40
0
 40
0
 40
0
 40
1
 40
1
 40
1
 40
1
 10
276.622934
 20
-340.303909
 30
0.0
 10
272.237722
 20
-337.772105
 30
0.0
 10
266.834917
 20
-337.772105
 30
0.0
 10
262.449704
 20
-340.303909
 30
0.0
  0
SPLINE
  5
114
100
AcDbEntity
  8
Layer_1
 62
7
100
AcDbSpline
 70
8
 71
3
 72
8
 73
4
 74
0
 40
0
 40
0
 40
0
 40
0
 40
1
 40
1
 40
1
 40
1
 10
262.449704
 20
-340.303909
 30
0.0
 10
258.064492
 20
-342.835713
 30
0.0
 10
255.363090
 20
-347.514679
 30
0.0
 10
255.363090
 20
-352.578286
 30
0.0
  0
SPLINE
  5
115
100
AcDbEntity
  8
Layer_1
 62
7
100
AcDbSpline
 70
8
 71
3
 72
8
 73
4
 74
0
 40
0
 40
0
 40
0
 40
0
 40
1
 40
1
 40
1
 40
1
 10
255.363090
 20
-352.578286
 30
0.0
 10
255.363090
 20
-357.641893
 30
0.0
 10
258.064492
 20
-362.320860
 30
0.0
 10
262.449704
 20
-364.852663
 30
0.0
  0
SPLINE
  5
116
100
AcDbEntity
  8
Layer_1
 62
7
100
AcDbSpline
 70
8
 71
3
 72
8
 73
4
 74
0
 40
0
 40
0
 40
0
 40
0
 40
1
 40
1
 40
1
 40
1
 10
262.449704
 20
-364.852663
 30
0.0
 10
266.834917
 20
-367.384467
 30
0.0
 10
272.237722
 20
-367.384467
 30
0.0
 10
276.622934
 20
-364.852663
 30
0.0
  0
SPLINE
  5
117
100
AcDbEntity
  8
Layer_1
 62
7
100
AcDbSpline
 70
8
 71
3
 72
8
 73
4
 74
0
 40
0
 40
0
 40
0
 40
0
 40
1
 40
1
 40
1
 40
1
 10
276.622934
 20
-364.852663
 30
0.0
 10
281.008147
 20
-362.320860
 30
0.0
 10
283.709549
 20
-357.641893
 30
0.0
 10
283.709549
 20
-352.578286
 30
0.0
  0
LWPOLYLINE
  5
118
100
AcDbEntity
  8
Layer_1
 62
7
100
AcDbPolyline
 90
1
 70
1
 10
503.394604
 20
275.472182
 30
0.0
  0
SPLINE
  5
119
100
AcDbEntity
  8
Layer_1
 62
7
100
AcDbSpline
 70
8
 71
3
 72
8
 73
4
 74
0
 40
0
 40
0
 40
0
 40
0
 40
1
 40
1
 40
1
 40
1
 10
518.880904
 20
645.527596
 30
0.0
 10
518.886731
 20
647.050543
 30
0.0
 10
518.077593
 20
648.460303
 30
0.0
 10
516.759645
 20
649.223464
 30
0.0
  0
SPLINE
  5
11a
100
AcDbEntity
  8
Layer_1
 62
7
100
AcDbSpline
 70
8
 71
3
 72
8
 73
4
 74
0
 40
0
 40
0
 40
0
 40
0
 40
1
 40
1
 40
1
 40
1
 10
516.759645
 20
649.223464
 30
0.0
 10
515.441698
 20
649.986624
 30
0.0
 10
513.816235
 20
649.986624
 30
0.0
 10
512.498287
 20
649.223464
 30
0.0
  0
SPLINE
  5
11b
100
AcDbEntity
  8
Layer_1
 62
7
100
AcDbSpline
 70
8
 71
3
 72
8
 73
4
 74
0
 40
0
 40
0
 40
0
 40
0
 40
1
 40
1
 40
1
 40
1
 10
512.498287
 20
649.223464
 30
0.0
 10
511.180339
 20
648.460303
 30
0.0
 10
510.371202
 20
647.050543
 30
0.0
 10
510.377029
 20
645.527596
 30
0.0
  0
SPLINE
  5
11c
100
AcDbEntity
  8
Layer_1
 62
7
100
AcDbSpline
 70
8
 71
3
 72
8
 73
4
 74
0
 40
0
 40
0
 40
0
 40
0
 40
1
 40
1
 40
1
 40
1
 10
510.377029
 20
645.527596
 30
0.0
 10
510.371202
 20
644.004650
 30
0.0
 10
511.180339
 20
642.594889
 30
0.0
 10
512.498287
 20
641.831729
 30
0.0
  0
SPLINE
  5
11d
100
AcDbEntity
  8
Layer_1
 62
7
100
AcDbSpline
 70
8
 71
3
 72
8
 73
4
 74
0
 40
0
 40
0
 40
0
 40
0
 40
1
 40
1
 40
1
 40
1
 10
512.498287
 20
641.831729
 30
0.0
 10
513.816235
 20
641.068569
 30
0.0
 10
515.441698
 20
641.068569
 30
0.0
 10
516.759645
 20
641.831729
 30
0.0
  0
SPLINE
  5
11e
100
AcDbEntity
  8
Layer_1
 62
7
100
AcDbSpline
 70
8
 71
3
 72
8
 73
4
 74
0
 40
0
 40
0
 40
0
 40
0
 40
1
 40
1
 40
1
 40
1
 10
516.759645
 20
641.831729
 30
0.0
 10
518.077593
 20
642.594889
 30
0.0
 10
518.886731
 20
644.004650
 30
0.0
 10
518.880904
 20
645.527596
 30
0.0
  0
LWPOLYLINE
  5
11f
100
AcDbEntity
  8
Layer_1
 62
7
100
AcDbPolyline
 90
1
 70
1
 10
283.709549
 20
-352.578286
 30
0.0
  0
SPLINE
  5
120
100
AcDbEntity
  8
Layer_1
 62
7
100
AcDbSpline
 70
8
 71
3
 72
8
 73
4
 74
0
 40
0
 40
0
 40
0
 40
0
 40
1
 40
1
 40
1
 40
1
 10
28.695640
 20
645.527596
 30
0.0
 10
28.696542
 20
647.047280
 30
0.0
 10
27.886320
 20
648.451911
 30
0.0
 10
26.570386
 20
649.212013
 30
0.0
  0
SPLINE
  5
121
100
AcDbEntity
  8
Layer_1
 62
7
100
AcDbSpline
 70
8
 71
3
 72
8
 73
4
 74
0
 40
0
 40
0
 40
0
 40
0
 40
1
 40
1
 40
1
 40
1
 10
26.570386
 20
649.212013
 30
0.0
 10
25.254452
 20
649.972116
 30
0.0
 10
23.632893
 20
649.972116
 30
0.0
 10
22.316959
 20
649.212013
 30
0.0
  0
SPLINE
  5
122
100
AcDbEntity
  8
Layer_1
 62
7
100
AcDbSpline
 70
8
 71
3
 72
8
 73
4
 74
0
 40
0
 40
0
 40
0
 40
0
 40
1
 40
1
 40
1
 40
1
 10
22.316959
 20
649.212013
 30
0.0
 10
21.001025
 20
648.451911
 30
0.0
 10
20.190802
 20
647.047280
 30
0.0
 10
20.191705
 20
645.527596
 30
0.0
  0
SPLINE
  5
123
100
AcDbEntity
  8
Layer_1
 62
7
100
AcDbSpline
 70
8
 71
3
 72
8
 73
4
 74
0
 40
0
 40
0
 40
0
 40
0
 40
1
 40
1
 40
1
 40
1
 10
20.191705
 20
645.527596
 30
0.0
 10
20.190802
 20
644.007913
 30
0.0
 10
21.001025
 20
642.603282
 30
0.0
 10
22.316959
 20
641.843179
 30
0.0
  0
SPLINE
  5
124
100
AcDbEntity
  8
Layer_1
 62
7
100
AcDbSpline
 70
8
 71
3
 72
8
 73
4
 74
0
 40
0
 40
0
 40
0
 40
0
 40
1
 40
1
 40
1
 40
1
 10
22.316959
 20
641.843179
 30
0.0
 10
23.632893
 20
641.083077
 30
0.0
 10
25.254452
 20
641.083077
 30
0.0
 10
26.570386
 20
641.843179
 30
0.0
  0
SPLINE
  5
125
100
AcDbEntity
  8
Layer_1
 62
7
100
AcDbSpline
 70
8
 71
3
 72
8
 73
4
 74
0
 40
0
 40
0
 40
0
 40
0
 40
1
 40
1
 40
1
 40
1
 10
26.570386
 20
641.843179
 30
0.0
 10
27.886320
 20
642.603282
 30
0.0
 10
28.696542
 20
644.007913
 30
0.0
 10
28.695640
 20
645.527596
 30
0.0
  0
LWPOLYLINE
  5
126
100
AcDbEntity
  8
Layer_1
 62
7
100
AcDbPolyline
 90
1
 70
1
 10
518.880904
 20
645.527596
 30
0.0
  0
SPLINE
  5
127
100
AcDbEntity
  8
Layer_1
 62
7
100
AcDbSpline
 70
8
 71
3
 72
8
 73
4
 74
0
 40
0
 40
0
 40
0
 40
0
 40
1
 40
1
 40
1
 40
1
 10
-317.917700
 20
298.914255
 30
0.0
 10
-317.917700
 20
300.433337
 30
0.0
 10
-318.728121
 20
301.837026
 30
0.0
 10
-320.043685
 20
302.596568
 30
0.0
  0
SPLINE
  5
128
100
AcDbEntity
  8
Layer_1
 62
7
100
AcDbSpline
 70
8
 71
3
 72
8
 73
4
 74
0
 40
0
 40
0
 40
0
 40
0
 40
1
 40
1
 40
1
 40
1
 10
-320.043685
 20
302.596568
 30
0.0
 10
-321.359248
 20
303.356109
 30
0.0
 10
-322.980089
 20
303.356109
 30
0.0
 10
-324.295653
 20
302.596568
 30
0.0
  0
SPLINE
  5
129
100
AcDbEntity
  8
Layer_1
 62
7
100
AcDbSpline
 70
8
 71
3
 72
8
 73
4
 74
0
 40
0
 40
0
 40
0
 40
0
 40
1
 40
1
 40
1
 40
1
 10
-324.295653
 20
302.596568
 30
0.0
 10
-325.611217
 20
301.837026
 30
0.0
 10
-326.421637
 20
300.433337
 30
0.0
 10
-326.421637
 20
298.914255
 30
0.0
  0
SPLINE
  5
12a
100
AcDbEntity
  8
Layer_1
 62
7
100
AcDbSpline
 70
8
 71
3
 72
8
 73
4
 74
0
 40
0
 40
0
 40
0
 40
0
 40
1
 40
1
 40
1
 40
1
 10
-326.421637
 20
298.914255
 30
0.0
 10
-326.421637
 20
297.395173
 30
0.0
 10
-325.611217
 20
295.991483
 30
0.0
 10
-324.295653
 20
295.231942
 30
0.0
  0
SPLINE
  5
12b
100
AcDbEntity
  8
Layer_1
 62
7
100
AcDbSpline
 70
8
 71
3
 72
8
 73
4
 74
0
 40
0
 40
0
 40
0
 40
0
 40
1
 40
1
 40
1
 40
1
 10
-324.295653
 20
295.231942
 30
0.0
 10
-322.980089
 20
294.472401
 30
0.0
 10
-321.359248
 20
294.472401
 30
0.0
 10
-320.043685
 20
295.231942
 30
0.0
  0
SPLINE
  5
12c
100
AcDbEntity
  8
Layer_1
 62
7
100
AcDbSpline
 70
8
 71
3
 72
8
 73
4
 74
0
 40
0
 40
0
 40
0
 40
0
 40
1
 40
1
 40
1
 40
1
 10
-320.043685
 20
295.231942
 30
0.0
 10
-318.728121
 20
295.991483
 30
0.0
 10
-317.917700
 20
297.395173
 30
0.0
 10
-317.917700
 20
298.914255
 30
0.0
  0
LWPOLYLINE
  5
12d
100
AcDbEntity
  8
Layer_1
 62
7
100
AcDbPolyline
 90
1
 70
1
 10
28.695640
 20
645.527596
 30
0.0
  0
SPLINE
  5
12e
100
AcDbEntity
  8
Layer_1
 62
7
100
AcDbSpline
 70
8
 71
3
 72
8
 73
4
 74
0
 40
0
 40
0
 40
0
 40
0
 40
1
 40
1
 40
1
 40
1
 10
-317.917700
 20
-191.271033
 30
0.0
 10
-317.917700
 20
-189.751951
 30
0.0
 10
-318.728121
 20
-188.348261
 30
0.0
 10
-320.043685
 20
-187.588720
 30
0.0
  0
SPLINE
  5
12f
100
AcDbEntity
  8
Layer_1
 62
7
100
AcDbSpline
 70
8
 71
3
 72
8
 73
4
 74
0
 40
0
 40
0
 40
0
 40
0
 40
1
 40
1
 40
1
 40
1
 10
-320.043685
 20
-187.588720
 30
0.0
 10
-321.359248
 20
-186.829179
 30
0.0
 10
-322.980089
 20
-186.829179
 30
0.0
 10
-324.295653
 20
-187.588720
 30
0.0
  0
SPLINE
  5
130
100
AcDbEntity
  8
Layer_1
 62
7
100
AcDbSpline
 70
8
 71
3
 72
8
 73
4
 74
0
 40
0
 40
0
 40
0
 40
0
 40
1
 40
1
 40
1
 40
1
 10
-324.295653
 20
-187.588720
 30
0.0
 10
-325.611217
 20
-188.348261
 30
0.0
 10
-326.421637
 20
-189.751951
 30
0.0
 10
-326.421637
 20
-191.271033
 30
0.0
  0
SPLINE
  5
131
100
AcDbEntity
  8
Layer_1
 62
7
100
AcDbSpline
 70
8
 71
3
 72
8
 73
4
 74
0
 40
0
 40
0
 40
0
 40
0
 40
1
 40
1
 40
1
 40
1
 10
-326.421637
 20
-191.271033
 30
0.0
 10
-326.421637
 20
-192.790115
 30
0.0
 10
-325.611217
 20
-194.193805
 30
0.0
 10
-324.295653
 20
-194.953346
 30
0.0
  0
SPLINE
  5
132
100
AcDbEntity
  8
Layer_1
 62
7
100
AcDbSpline
 70
8
 71
3
 72
8
 73
4
 74
0
 40
0
 40
0
 40
0
 40
0
 40
1
 40
1
 40
1
 40
1
 10
-324.295653
 20
-194.953346
 30
0.0
 10
-322.980089
 20
-195.712887
 30
0.0
 10
-321.359248
 20
-195.712887
 30
0.0
 10
-320.043685
 20
-194.953346
 30
0.0
  0
SPLINE
  5
133
100
AcDbEntity
  8
Layer_1
 62
7
100
AcDbSpline
 70
8
 71
3
 72
8
 73
4
 74
0
 40
0
 40
0
 40
0
 40
0
 40
1
 40
1
 40
1
 40
1
 10
-320.043685
 20
-194.953346
 30
0.0
 10
-318.728121
 20
-194.193805
 30
0.0
 10
-317.917700
 20
-192.790115
 30
0.0
 10
-317.917700
 20
-191.271033
 30
0.0
  0
LWPOLYLINE
  5
134
100
AcDbEntity
  8
Layer_1
 62
7
100
AcDbPolyline
 90
1
 70
1
 10
-317.917700
 20
298.914255
 30
0.0
  0
SPLINE
  5
135
100
AcDbEntity
  8
Layer_1
 62
7
100
AcDbSpline
 70
8
 71
3
 72
8
 73
4
 74
0
 40
0
 40
0
 40
0
 40
0
 40
1
 40
1
 40
1
 40
1
 10
28.695640
 20
-537.884406
 30
0.0
 10
28.696542
 20
-536.364723
 30
0.0
 10
27.886320
 20
-534.960092
 30
0.0
 10
26.570386
 20
-534.199989
 30
0.0
  0
SPLINE
  5
136
100
AcDbEntity
  8
Layer_1
 62
7
100
AcDbSpline
 70
8
 71
3
 72
8
 73
4
 74
0
 40
0
 40
0
 40
0
 40
0
 40
1
 40
1
 40
1
 40
1
 10
26.570386
 20
-534.199989
 30
0.0
 10
25.254452
 20
-533.439887
 30
0.0
 10
23.632893
 20
-533.439887
 30
0.0
 10
22.316959
 20
-534.199989
 30
0.0
  0
SPLINE
  5
137
100
AcDbEntity
  8
Layer_1
 62
7
100
AcDbSpline
 70
8
 71
3
 72
8
 73
4
 74
0
 40
0
 40
0
 40
0
 40
0
 40
1
 40
1
 40
1
 40
1
 10
22.316959
 20
-534.199989
 30
0.0
 10
21.001025
 20
-534.960092
 30
0.0
 10
20.190802
 20
-536.364723
 30
0.0
 10
20.191705
 20
-537.884406
 30
0.0
  0
SPLINE
  5
138
100
AcDbEntity
  8
Layer_1
 62
7
100
AcDbSpline
 70
8
 71
3
 72
8
 73
4
 74
0
 40
0
 40
0
 40
0
 40
0
 40
1
 40
1
 40
1
 40
1
 10
20.191705
 20
-537.884406
 30
0.0
 10
20.190802
 20
-539.404089
 30
0.0
 10
21.001025
 20
-540.808721
 30
0.0
 10
22.316959
 20
-541.568823
 30
0.0
  0
SPLINE
  5
139
100
AcDbEntity
  8
Layer_1
 62
7
100
AcDbSpline
 70
8
 71
3
 72
8
 73
4
 74
0
 40
0
 40
0
 40
0
 40
0
 40
1
 40
1
 40
1
 40
1
 10
22.316959
 20
-541.568823
 30
0.0
 10
23.632893
 20
-542.328925
 30
0.0
 10
25.254452
 20
-542.328925
 30
0.0
 10
26.570386
 20
-541.568823
 30
0.0
  0
SPLINE
  5
13a
100
AcDbEntity
  8
Layer_1
 62
7
100
AcDbSpline
 70
8
 71
3
 72
8
 73
4
 74
0
 40
0
 40
0
 40
0
 40
0
 40
1
 40
1
 40
1
 40
1
 10
26.570386
 20
-541.568823
 30
0.0
 10
27.886320
 20
-540.808721
 30
0.0
 10
28.696542
 20
-539.404089
 30
0.0
 10
28.695640
 20
-537.884406
 30
0.0
  0
LWPOLYLINE
  5
13b
100
AcDbEntity
  8
Layer_1
 62
7
100
AcDbPolyline
 90
1
 70
1
 10
-317.917700
 20
-191.271033
 30
0.0
  0
SPLINE
  5
13c
100
AcDbEntity
  8
Layer_1
 62
7
100
AcDbSpline
 70
8
 71
3
 72
8
 73
4
 74
0
 40
0
 40
0
 40
0
 40
0
 40
1
 40
1
 40
1
 40
1
 10
518.880904
 20
-537.884406
 30
0.0
 10
518.886731
 20
-536.361460
 30
0.0
 10
518.077593
 20
-534.951699
 30
0.0
 10
516.759645
 20
-534.188539
 30
0.0
  0
SPLINE
  5
13d
100
AcDbEntity
  8
Layer_1
 62
7
100
AcDbSpline
 70
8
 71
3
 72
8
 73
4
 74
0
 40
0
 40
0
 40
0
 40
0
 40
1
 40
1
 40
1
 40
1
 10
516.759645
 20
-534.188539
 30
0.0
 10
515.441698
 20
-533.425378
 30
0.0
 10
513.816235
 20
-533.425378
 30
0.0
 10
512.498287
 20
-534.188539
 30
0.0
  0
SPLINE
  5
13e
100
AcDbEntity
  8
Layer_1
 62
7
100
AcDbSpline
 70
8
 71
3
 72
8
 73
4
 74
0
 40
0
 40
0
 40
0
 40
0
 40
1
 40
1
 40
1
 40
1
 10
512.498287
 20
-534.188539
 30
0.0
 10
511.180339
 20
-534.951699
 30
0.0
 10
510.371202
 20
-536.361460
 30
0.0
 10
510.377029
 20
-537.884406
 30
0.0
  0
SPLINE
  5
13f
100
AcDbEntity
  8
Layer_1
 62
7
100
AcDbSpline
 70
8
 71
3
 72
8
 73
4
 74
0
 40
0
 40
0
 40
0
 40
0
 40
1
 40
1
 40
1
 40
1
 10
510.377029
 20
-537.884406
 30
0.0
 10
510.371202
 20
-539.407353
 30
0.0
 10
511.180339
 20
-540.817113
 30
0.0
 10
512.498287
 20
-541.580274
 30
0.0
  0
SPLINE
  5
140
100
AcDbEntity
  8
Layer_1
 62
7
100
AcDbSpline
 70
8
 71
3
 72
8
 73
4
 74
0
 40
0
 40
0
 40
0
 40
0
 40
1
 40
1
 40
1
 40
1
 10
512.498287
 20
-541.580274
 30
0.0
 10
513.816235
 20
-542.343434
 30
0.0
 10
515.441698
 20
-542.343434
 30
0.0
 10
516.759645
 20
-541.580274
 30
0.0
  0
SPLINE
  5
141
100
AcDbEntity
  8
Layer_1
 62
7
100
AcDbSpline
 70
8
 71
3
 72
8
 73
4
 74
0
 40
0
 40
0
 40
0
 40
0
 40
1
 40
1
 40
1
 40
1
 10
516.759645
 20
-541.580274
 30
0.0
 10
518.077593
 20
-540.817113
 30
0.0
 10
518.886731
 20
-539.407353
 30
0.0
 10
518.880904
 20
-537.884406
 30
0.0
  0
LWPOLYLINE
  5
142
100
AcDbEntity
  8
Layer_1
 62
7
100
AcDbPolyline
 90
1
 70
1
 10
28.695640
 20
-537.884406
 30
0.0
  0
SPLINE
  5
143
100
AcDbEntity
  8
Layer_1
 62
7
100
AcDbSpline
 70
8
 71
3
 72
8
 73
4
 74
0
 40
0
 40
0
 40
0
 40
0
 40
1
 40
1
 40
1
 40
1
 10
865.494299
 20
-191.271033
 30
0.0
 10
865.494299
 20
-189.751949
 30
0.0
 10
864.683878
 20
-188.348257
 30
0.0
 10
863.368312
 20
-187.588715
 30
0.0
  0
SPLINE
  5
144
100
AcDbEntity
  8
Layer_1
 62
7
100
AcDbSpline
 70
8
 71
3
 72
8
 73
4
 74
0
 40
0
 40
0
 40
0
 40
0
 40
1
 40
1
 40
1
 40
1
 10
863.368312
 20
-187.588715
 30
0.0
 10
862.052746
 20
-186.829173
 30
0.0
 10
860.431903
 20
-186.829173
 30
0.0
 10
859.116337
 20
-187.588715
 30
0.0
  0
SPLINE
  5
145
100
AcDbEntity
  8
Layer_1
 62
7
100
AcDbSpline
 70
8
 71
3
 72
8
 73
4
 74
0
 40
0
 40
0
 40
0
 40
0
 40
1
 40
1
 40
1
 40
1
 10
859.116337
 20
-187.588715
 30
0.0
 10
857.800771
 20
-188.348257
 30
0.0
 10
856.990349
 20
-189.751949
 30
0.0
 10
856.990349
 20
-191.271033
 30
0.0
  0
SPLINE
  5
146
100
AcDbEntity
  8
Layer_1
 62
7
100
AcDbSpline
 70
8
 71
3
 72
8
 73
4
 74
0
 40
0
 40
0
 40
0
 40
0
 40
1
 40
1
 40
1
 40
1
 10
856.990349
 20
-191.271033
 30
0.0
 10
856.990349
 20
-192.790117
 30
0.0
 10
857.800771
 20
-194.193809
 30
0.0
 10
859.116337
 20
-194.953351
 30
0.0
  0
SPLINE
  5
147
100
AcDbEntity
  8
Layer_1
 62
7
100
AcDbSpline
 70
8
 71
3
 72
8
 73
4
 74
0
 40
0
 40
0
 40
0
 40
0
 40
1
 40
1
 40
1
 40
1
 10
859.116337
 20
-194.953351
 30
0.0
 10
860.431903
 20
-195.712894
 30
0.0
 10
862.052746
 20
-195.712894
 30
0.0
 10
863.368312
 20
-194.953351
 30
0.0
  0
SPLINE
  5
148
100
AcDbEntity
  8
Layer_1
 62
7
100
AcDbSpline
 70
8
 71
3
 72
8
 73
4
 74
0
 40
0
 40
0
 40
0
 40
0
 40
1
 40
1
 40
1
 40
1
 10
863.368312
 20
-194.953351
 30
0.0
 10
864.683878
 20
-194.193809
 30
0.0
 10
865.494299
 20
-192.790117
 30
0.0
 10
865.494299
 20
-191.271033
 30
0.0
  0
LWPOLYLINE
  5
149
100
AcDbEntity
  8
Layer_1
 62
7
100
AcDbPolyline
 90
1
 70
1
 10
518.880904
 20
-537.884406
 30
0.0
  0
SPLINE
  5
14a
100
AcDbEntity
  8
Layer_1
 62
7
100
AcDbSpline
 70
8
 71
3
 72
8
 73
4
 74
0
 40
0
 40
0
 40
0
 40
0
 40
1
 40
1
 40
1
 40
1
 10
865.494299
 20
298.914255
 30
0.0
 10
865.494299
 20
300.433339
 30
0.0
 10
864.683878
 20
301.837031
 30
0.0
 10
863.368312
 20
302.596573
 30
0.0
  0
SPLINE
  5
14b
100
AcDbEntity
  8
Layer_1
 62
7
100
AcDbSpline
 70
8
 71
3
 72
8
 73
4
 74
0
 40
0
 40
0
 40
0
 40
0
 40
1
 40
1
 40
1
 40
1
 10
863.368312
 20
302.596573
 30
0.0
 10
862.052746
 20
303.356115
 30
0.0
 10
860.431903
 20
303.356115
 30
0.0
 10
859.116337
 20
302.596573
 30
0.0
  0
SPLINE
  5
14c
100
AcDbEntity
  8
Layer_1
 62
7
100
AcDbSpline
 70
8
 71
3
 72
8
 73
4
 74
0
 40
0
 40
0
 40
0
 40
0
 40
1
 40
1
 40
1
 40
1
 10
859.116337
 20
302.596573
 30
0.0
 10
857.800771
 20
301.837031
 30
0.0
 10
856.990349
 20
300.433339
 30
0.0
 10
856.990349
 20
298.914255
 30
0.0
  0
SPLINE
  5
14d
100
AcDbEntity
  8
Layer_1
 62
7
100
AcDbSpline
 70
8
 71
3
 72
8
 73
4
 74
0
 40
0
 40
0
 40
0
 40
0
 40
1
 40
1
 40
1
 40
1
 10
856.990349
 20
298.914255
 30
0.0
 10
856.990349
 20
297.395170
 30
0.0
 10
857.800771
 20
295.991479
 30
0.0
 10
859.116337
 20
295.231936
 30
0.0
  0
SPLINE
  5
14e
100
AcDbEntity
  8
Layer_1
 62
7
100
AcDbSpline
 70
8
 71
3
 72
8
 73
4
 74
0
 40
0
 40
0
 40
0
 40
0
 40
1
 40
1
 40
1
 40
1
 10
859.116337
 20
295.231936
 30
0.0
 10
860.431903
 20
294.472394
 30
0.0
 10
862.052746
 20
294.472394
 30
0.0
 10
863.368312
 20
295.231936
 30
0.0
  0
SPLINE
  5
14f
100
AcDbEntity
  8
Layer_1
 62
7
100
AcDbSpline
 70
8
 71
3
 72
8
 73
4
 74
0
 40
0
 40
0
 40
0
 40
0
 40
1
 40
1
 40
1
 40
1
 10
863.368312
 20
295.231936
 30
0.0
 10
864.683878
 20
295.991479
 30
0.0
 10
865.494299
 20
297.395170
 30
0.0
 10
865.494299
 20
298.914255
 30
0.0
  0
LWPOLYLINE
  5
150
100
AcDbEntity
  8
Layer_1
 62
7
100
AcDbPolyline
 90
1
 70
1
 10
865.494299
 20
-191.271033
 30
0.0
  0
LWPOLYLINE
  5
151
100
AcDbEntity
  8
Layer_1
 62
7
100
AcDbPolyline
 90
1
 70
1
 10
865.494299
 20
298.914255
 30
0.0
  0
LWPOLYLINE
  5
152
100
AcDbEntity
  8
Layer_1
 62
7
100
AcDbPolyline
 90
2
 70
0
 10
875.478674
 20
288.651343
 30
0.0
 10
875.478674
 20
260.304887
 30
0.0
  0
LWPOLYLINE
  5
153
100
AcDbEntity
  8
Layer_1
 62
7
100
AcDbPolyline
 90
3
 70
0
 10
861.305474
 20
260.304887
 30
0.0
 10
861.305474
 20
177.711577
 30
0.0
 10
875.478674
 20
177.711577
 30
0.0
  0
LWPOLYLINE
  5
154
100
AcDbEntity
  8
Layer_1
 62
7
100
AcDbPolyline
 90
4
 70
0
 10
875.478674
 20
95.118263
 30
0.0
 10
861.305474
 20
95.118263
 30
0.0
 10
861.305474
 20
12.524957
 30
0.0
 10
875.478674
 20
12.524957
 30
0.0
  0
LWPOLYLINE
  5
155
100
AcDbEntity
  8
Layer_1
 62
7
100
AcDbPolyline
 90
4
 70
0
 10
875.478674
 20
-70.068357
 30
0.0
 10
861.305474
 20
-70.068357
 30
0.0
 10
861.305474
 20
-152.661664
 30
0.0
 10
875.478674
 20
-152.661664
 30
0.0
  0
LWPOLYLINE
  5
156
100
AcDbEntity
  8
Layer_1
 62
7
100
AcDbPolyline
 90
2
 70
0
 10
861.305474
 20
260.304887
 30
0.0
 10
875.478674
 20
260.304887
 30
0.0
  0
LWPOLYLINE
  5
157
100
AcDbEntity
  8
Layer_1
 62
7
100
AcDbPolyline
 90
2
 70
0
 10
875.478674
 20
-70.068357
 30
0.0
 10
875.478674
 20
12.524957
 30
0.0
  0
LWPOLYLINE
  5
158
100
AcDbEntity
  8
Layer_1
 62
7
100
AcDbPolyline
 90
2
 70
0
 10
875.478674
 20
95.118263
 30
0.0
 10
875.478674
 20
177.711577
 30
0.0
  0
LWPOLYLINE
  5
159
100
AcDbEntity
  8
Layer_1
 62
7
100
AcDbPolyline
 90
2
 70
0
 10
875.478674
 20
-152.661664
 30
0.0
 10
875.478674
 20
-181.008123
 30
0.0
  0
LWPOLYLINE
  5
15a
100
AcDbEntity
  8
Layer_1
 62
7
100
AcDbPolyline
 90
2
 70
0
 10
531.952579
 20
648.337254
 30
0.0
 10
551.996553
 20
628.293279
 30
0.0
  0
LWPOLYLINE
  5
15b
100
AcDbEntity
  8
Layer_1
 62
7
100
AcDbPolyline
 90
3
 70
0
 10
541.974528
 20
618.271299
 30
0.0
 10
600.376878
 20
559.869010
 30
0.0
 10
610.398828
 20
569.890990
 30
0.0
  0
LWPOLYLINE
  5
15c
100
AcDbEntity
  8
Layer_1
 62
7
100
AcDbPolyline
 90
2
 70
0
 10
668.801102
 20
511.488701
 30
0.0
 10
610.398828
 20
569.890990
 30
0.0
  0
LWPOLYLINE
  5
15d
100
AcDbEntity
  8
Layer_1
 62
7
100
AcDbPolyline
 90
4
 70
0
 10
668.801102
 20
511.488701
 30
0.0
 10
658.779152
 20
501.466721
 30
0.0
 10
717.181426
 20
443.064424
 30
0.0
 10
727.203376
 20
453.086411
 30
0.0
  0
LWPOLYLINE
  5
15e
100
AcDbEntity
  8
Layer_1
 62
7
100
AcDbPolyline
 90
2
 70
0
 10
785.605725
 20
394.684122
 30
0.0
 10
727.203376
 20
453.086411
 30
0.0
  0
LWPOLYLINE
  5
15f
100
AcDbEntity
  8
Layer_1
 62
7
100
AcDbPolyline
 90
2
 70
0
 10
775.583700
 20
384.662135
 30
0.0
 10
833.985975
 20
326.259847
 30
0.0
  0
LWPOLYLINE
  5
160
100
AcDbEntity
  8
Layer_1
 62
7
100
AcDbPolyline
 90
2
 70
0
 10
844.008000
 20
336.281833
 30
0.0
 10
864.051974
 20
316.237861
 30
0.0
  0
LWPOLYLINE
  5
161
100
AcDbEntity
  8
Layer_1
 62
7
100
AcDbPolyline
 90
2
 70
0
 10
541.974528
 20
618.271299
 30
0.0
 10
551.996553
 20
628.293279
 30
0.0
  0
LWPOLYLINE
  5
162
100
AcDbEntity
  8
Layer_1
 62
7
100
AcDbPolyline
 90
2
 70
0
 10
833.985975
 20
326.259847
 30
0.0
 10
844.008000
 20
336.281833
 30
0.0
  0
LWPOLYLINE
  5
163
100
AcDbEntity
  8
Layer_1
 62
7
100
AcDbPolyline
 90
2
 70
0
 10
785.605725
 20
394.684122
 30
0.0
 10
775.583700
 20
384.662135
 30
0.0
  0
LWPOLYLINE
  5
164
100
AcDbEntity
  8
Layer_1
 62
7
100
AcDbPolyline
 90
2
 70
0
 10
34.706590
 20
659.763961
 30
0.0
 10
63.053042
 20
659.763961
 30
0.0
  0
LWPOLYLINE
  5
165
100
AcDbEntity
  8
Layer_1
 62
7
100
AcDbPolyline
 90
3
 70
0
 10
63.053042
 20
645.590739
 30
0.0
 10
145.646356
 20
645.590739
 30
0.0
 10
145.646356
 20
659.763961
 30
0.0
  0
LWPOLYLINE
  5
166
100
AcDbEntity
  8
Layer_1
 62
7
100
AcDbPolyline
 90
2
 70
0
 10
228.239662
 20
659.763961
 30
0.0
 10
145.646356
 20
659.763961
 30
0.0
  0
LWPOLYLINE
  5
167
100
AcDbEntity
  8
Layer_1
 62
7
100
AcDbPolyline
 90
4
 70
0
 10
228.239662
 20
659.763961
 30
0.0
 10
228.239662
 20
645.590739
 30
0.0
 10
310.832976
 20
645.590739
 30
0.0
 10
310.832976
 20
659.763961
 30
0.0
  0
LWPOLYLINE
  5
168
100
AcDbEntity
  8
Layer_1
 62
7
100
AcDbPolyline
 90
2
 70
0
 10
393.426283
 20
659.763961
 30
0.0
 10
310.832976
 20
659.763961
 30
0.0
  0
LWPOLYLINE
  5
169
100
AcDbEntity
  8
Layer_1
 62
7
100
AcDbPolyline
 90
2
 70
0
 10
393.426283
 20
645.590739
 30
0.0
 10
476.019604
 20
645.590739
 30
0.0
  0
LWPOLYLINE
  5
16a
100
AcDbEntity
  8
Layer_1
 62
7
100
AcDbPolyline
 90
2
 70
0
 10
476.019604
 20
659.763961
 30
0.0
 10
504.366079
 20
659.763961
 30
0.0
  0
LWPOLYLINE
  5
16b
100
AcDbEntity
  8
Layer_1
 62
7
100
AcDbPolyline
 90
2
 70
0
 10
63.053042
 20
645.590739
 30
0.0
 10
63.053042
 20
659.763961
 30
0.0
  0
LWPOLYLINE
  5
16c
100
AcDbEntity
  8
Layer_1
 62
7
100
AcDbPolyline
 90
2
 70
0
 10
476.019604
 20
645.590739
 30
0.0
 10
476.019604
 20
659.763961
 30
0.0
  0
LWPOLYLINE
  5
16d
100
AcDbEntity
  8
Layer_1
 62
7
100
AcDbPolyline
 90
2
 70
0
 10
393.426283
 20
659.763961
 30
0.0
 10
393.426283
 20
645.590739
 30
0.0
  0
LWPOLYLINE
  5
16e
100
AcDbEntity
  8
Layer_1
 62
7
100
AcDbPolyline
 90
2
 70
0
 10
-324.979326
 20
316.237861
 30
0.0
 10
-304.935354
 20
336.281833
 30
0.0
  0
LWPOLYLINE
  5
16f
100
AcDbEntity
  8
Layer_1
 62
7
100
AcDbPolyline
 90
3
 70
0
 10
-294.913368
 20
326.259847
 30
0.0
 10
-236.511077
 20
384.662135
 30
0.0
 10
-246.533064
 20
394.684122
 30
0.0
  0
LWPOLYLINE
  5
170
100
AcDbEntity
  8
Layer_1
 62
7
100
AcDbPolyline
 90
2
 70
0
 10
-188.130775
 20
453.086411
 30
0.0
 10
-246.533064
 20
394.684122
 30
0.0
  0
LWPOLYLINE
  5
171
100
AcDbEntity
  8
Layer_1
 62
7
100
AcDbPolyline
 90
4
 70
0
 10
-188.130775
 20
453.086411
 30
0.0
 10
-178.108788
 20
443.064424
 30
0.0
 10
-119.706498
 20
501.466721
 30
0.0
 10
-129.728486
 20
511.488701
 30
0.0
  0
LWPOLYLINE
  5
172
100
AcDbEntity
  8
Layer_1
 62
7
100
AcDbPolyline
 90
2
 70
0
 10
-71.326196
 20
569.890990
 30
0.0
 10
-129.728486
 20
511.488701
 30
0.0
  0
LWPOLYLINE
  5
173
100
AcDbEntity
  8
Layer_1
 62
7
100
AcDbPolyline
 90
2
 70
0
 10
-61.304209
 20
559.869010
 30
0.0
 10
-2.901920
 20
618.271299
 30
0.0
  0
LWPOLYLINE
  5
174
100
AcDbEntity
  8
Layer_1
 62
7
100
AcDbPolyline
 90
2
 70
0
 10
-12.923907
 20
628.293279
 30
0.0
 10
7.120068
 20
648.337254
 30
0.0
  0
LWPOLYLINE
  5
175
100
AcDbEntity
  8
Layer_1
 62
7
100
AcDbPolyline
 90
2
 70
0
 10
-294.913368
 20
326.259847
 30
0.0
 10
-304.935354
 20
336.281833
 30
0.0
  0
LWPOLYLINE
  5
176
100
AcDbEntity
  8
Layer_1
 62
7
100
AcDbPolyline
 90
2
 70
0
 10
-2.901920
 20
618.271299
 30
0.0
 10
-12.923907
 20
628.293279
 30
0.0
  0
LWPOLYLINE
  5
177
100
AcDbEntity
  8
Layer_1
 62
7
100
AcDbPolyline
 90
2
 70
0
 10
-71.326196
 20
569.890990
 30
0.0
 10
-61.304209
 20
559.869010
 30
0.0
  0
LWPOLYLINE
  5
178
100
AcDbEntity
  8
Layer_1
 62
7
100
AcDbPolyline
 90
2
 70
0
 10
-336.406036
 20
-181.008123
 30
0.0
 10
-336.406036
 20
-152.661664
 30
0.0
  0
LWPOLYLINE
  5
179
100
AcDbEntity
  8
Layer_1
 62
7
100
AcDbPolyline
 90
3
 70
0
 10
-322.232807
 20
-152.661664
 30
0.0
 10
-322.232807
 20
-70.068357
 30
0.0
 10
-336.406036
 20
-70.068357
 30
0.0
  0
LWPOLYLINE
  5
17a
100
AcDbEntity
  8
Layer_1
 62
7
100
AcDbPolyline
 90
2
 70
0
 10
-336.406036
 20
12.524957
 30
0.0
 10
-336.406036
 20
-70.068357
 30
0.0
  0
LWPOLYLINE
  5
17b
100
AcDbEntity
  8
Layer_1
 62
7
100
AcDbPolyline
 90
4
 70
0
 10
-336.406036
 20
12.524957
 30
0.0
 10
-322.232807
 20
12.524957
 30
0.0
 10
-322.232807
 20
95.118263
 30
0.0
 10
-336.406036
 20
95.118263
 30
0.0
  0
LWPOLYLINE
  5
17c
100
AcDbEntity
  8
Layer_1
 62
7
100
AcDbPolyline
 90
2
 70
0
 10
-336.406036
 20
177.711577
 30
0.0
 10
-336.406036
 20
95.118263
 30
0.0
  0
LWPOLYLINE
  5
17d
100
AcDbEntity
  8
Layer_1
 62
7
100
AcDbPolyline
 90
2
 70
0
 10
-322.232807
 20
177.711577
 30
0.0
 10
-322.232807
 20
260.304887
 30
0.0
  0
LWPOLYLINE
  5
17e
100
AcDbEntity
  8
Layer_1
 62
7
100
AcDbPolyline
 90
2
 70
0
 10
-336.406036
 20
260.304887
 30
0.0
 10
-336.406036
 20
288.651343
 30
0.0
  0
LWPOLYLINE
  5
17f
100
AcDbEntity
  8
Layer_1
 62
7
100
AcDbPolyline
 90
2
 70
0
 10
-322.232807
 20
-152.661664
 30
0.0
 10
-336.406036
 20
-152.661664
 30
0.0
  0
LWPOLYLINE
  5
180
100
AcDbEntity
  8
Layer_1
 62
7
100
AcDbPolyline
 90
2
 70
0
 10
-322.232807
 20
260.304887
 30
0.0
 10
-336.406036
 20
260.304887
 30
0.0
  0
LWPOLYLINE
  5
181
100
AcDbEntity
  8
Layer_1
 62
7
100
AcDbPolyline
 90
2
 70
0
 10
-336.406036
 20
177.711577
 30
0.0
 10
-322.232807
 20
177.711577
 30
0.0
  0
LWPOLYLINE
  5
182
100
AcDbEntity
  8
Layer_1
 62
7
100
AcDbPolyline
 90
2
 70
0
 10
7.120068
 20
-540.694056
 30
0.0
 10
-12.923907
 20
-520.650081
 30
0.0
  0
LWPOLYLINE
  5
183
100
AcDbEntity
  8
Layer_1
 62
7
100
AcDbPolyline
 90
3
 70
0
 10
-2.901920
 20
-510.628057
 30
0.0
 10
-61.304209
 20
-452.225790
 30
0.0
 10
-71.326196
 20
-462.247807
 30
0.0
  0
LWPOLYLINE
  5
184
100
AcDbEntity
  8
Layer_1
 62
7
100
AcDbPolyline
 90
2
 70
0
 10
-129.728486
 20
-403.845480
 30
0.0
 10
-71.326196
 20
-462.247807
 30
0.0
  0
LWPOLYLINE
  5
185
100
AcDbEntity
  8
Layer_1
 62
7
100
AcDbPolyline
 90
4
 70
0
 10
-129.728486
 20
-403.845480
 30
0.0
 10
-119.706498
 20
-393.823501
 30
0.0
 10
-178.108788
 20
-335.421204
 30
0.0
 10
-188.130775
 20
-345.443191
 30
0.0
  0
LWPOLYLINE
  5
186
100
AcDbEntity
  8
Layer_1
 62
7
100
AcDbPolyline
 90
2
 70
0
 10
-246.533064
 20
-287.040902
 30
0.0
 10
-188.130775
 20
-345.443191
 30
0.0
  0
LWPOLYLINE
  5
187
100
AcDbEntity
  8
Layer_1
 62
7
100
AcDbPolyline
 90
2
 70
0
 10
-236.511077
 20
-277.018915
 30
0.0
 10
-294.913368
 20
-218.616625
 30
0.0
  0
LWPOLYLINE
  5
188
100
AcDbEntity
  8
Layer_1
 62
7
100
AcDbPolyline
 90
2
 70
0
 10
-304.935354
 20
-228.638613
 30
0.0
 10
-324.979326
 20
-208.594638
 30
0.0
  0
LWPOLYLINE
  5
189
100
AcDbEntity
  8
Layer_1
 62
7
100
AcDbPolyline
 90
2
 70
0
 10
-2.901920
 20
-510.628057
 30
0.0
 10
-12.923907
 20
-520.650081
 30
0.0
  0
LWPOLYLINE
  5
18a
100
AcDbEntity
  8
Layer_1
 62
7
100
AcDbPolyline
 90
2
 70
0
 10
-294.913368
 20
-218.616625
 30
0.0
 10
-304.935354
 20
-228.638613
 30
0.0
  0
LWPOLYLINE
  5
18b
100
AcDbEntity
  8
Layer_1
 62
7
100
AcDbPolyline
 90
2
 70
0
 10
-246.533064
 20
-287.040902
 30
0.0
 10
-236.511077
 20
-277.018915
 30
0.0
  0
LWPOLYLINE
  5
18c
100
AcDbEntity
  8
Layer_1
 62
7
100
AcDbPolyline
 90
2
 70
0
 10
504.366079
 20
-552.120756
 30
0.0
 10
476.019604
 20
-552.120756
 30
0.0
  0
LWPOLYLINE
  5
18d
100
AcDbEntity
  8
Layer_1
 62
7
100
AcDbPolyline
 90
3
 70
0
 10
476.019604
 20
-537.947481
 30
0.0
 10
393.426283
 20
-537.947481
 30
0.0
 10
393.426283
 20
-552.120756
 30
0.0
  0
LWPOLYLINE
  5
18e
100
AcDbEntity
  8
Layer_1
 62
7
100
AcDbPolyline
 90
2
 70
0
 10
310.832976
 20
-552.120756
 30
0.0
 10
393.426283
 20
-552.120756
 30
0.0
  0
LWPOLYLINE
  5
18f
100
AcDbEntity
  8
Layer_1
 62
7
100
AcDbPolyline
 90
4
 70
0
 10
310.832976
 20
-552.120756
 30
0.0
 10
310.832976
 20
-537.947481
 30
0.0
 10
228.239662
 20
-537.947481
 30
0.0
 10
228.239662
 20
-552.120756
 30
0.0
  0
LWPOLYLINE
  5
190
100
AcDbEntity
  8
Layer_1
 62
7
100
AcDbPolyline
 90
2
 70
0
 10
145.646356
 20
-552.120756
 30
0.0
 10
228.239662
 20
-552.120756
 30
0.0
  0
LWPOLYLINE
  5
191
100
AcDbEntity
  8
Layer_1
 62
7
100
AcDbPolyline
 90
2
 70
0
 10
145.646356
 20
-537.947481
 30
0.0
 10
63.053042
 20
-537.947481
 30
0.0
  0
LWPOLYLINE
  5
192
100
AcDbEntity
  8
Layer_1
 62
7
100
AcDbPolyline
 90
2
 70
0
 10
63.053042
 20
-552.120756
 30
0.0
 10
34.706590
 20
-552.120756
 30
0.0
  0
LWPOLYLINE
  5
193
100
AcDbEntity
  8
Layer_1
 62
7
100
AcDbPolyline
 90
2
 70
0
 10
476.019604
 20
-537.947481
 30
0.0
 10
476.019604
 20
-552.120756
 30
0.0
  0
LWPOLYLINE
  5
194
100
AcDbEntity
  8
Layer_1
 62
7
100
AcDbPolyline
 90
2
 70
0
 10
63.053042
 20
-537.947481
 30
0.0
 10
63.053042
 20
-552.120756
 30
0.0
  0
LWPOLYLINE
  5
195
100
AcDbEntity
  8
Layer_1
 62
7
100
AcDbPolyline
 90
2
 70
0
 10
145.646356
 20
-552.120756
 30
0.0
 10
145.646356
 20
-537.947481
 30
0.0
  0
LWPOLYLINE
  5
196
100
AcDbEntity
  8
Layer_1
 62
7
100
AcDbPolyline
 90
2
 70
0
 10
864.051974
 20
-208.594638
 30
0.0
 10
844.008000
 20
-228.638613
 30
0.0
  0
LWPOLYLINE
  5
197
100
AcDbEntity
  8
Layer_1
 62
7
100
AcDbPolyline
 90
3
 70
0
 10
833.985975
 20
-218.616625
 30
0.0
 10
775.583700
 20
-277.018915
 30
0.0
 10
785.605725
 20
-287.040902
 30
0.0
  0
LWPOLYLINE
  5
198
100
AcDbEntity
  8
Layer_1
 62
7
100
AcDbPolyline
 90
2
 70
0
 10
727.203376
 20
-345.443191
 30
0.0
 10
785.605725
 20
-287.040902
 30
0.0
  0
LWPOLYLINE
  5
199
100
AcDbEntity
  8
Layer_1
 62
7
100
AcDbPolyline
 90
2
 70
0
 10
610.398828
 20
-462.247807
 30
0.0
 10
668.801102
 20
-403.845480
 30
0.0
  0
LWPOLYLINE
  5
19a
100
AcDbEntity
  8
Layer_1
 62
7
100
AcDbPolyline
 90
2
 70
0
 10
600.376878
 20
-452.225790
 30
0.0
 10
541.974528
 20
-510.628057
 30
0.0
  0
LWPOLYLINE
  5
19b
100
AcDbEntity
  8
Layer_1
 62
7
100
AcDbPolyline
 90
2
 70
0
 10
551.996553
 20
-520.650081
 30
0.0
 10
531.952579
 20
-540.694056
 30
0.0
  0
LWPOLYLINE
  5
19c
100
AcDbEntity
  8
Layer_1
 62
7
100
AcDbPolyline
 90
2
 70
0
 10
833.985975
 20
-218.616625
 30
0.0
 10
844.008000
 20
-228.638613
 30
0.0
  0
LWPOLYLINE
  5
19d
100
AcDbEntity
  8
Layer_1
 62
7
100
AcDbPolyline
 90
2
 70
0
 10
541.974528
 20
-510.628057
 30
0.0
 10
551.996553
 20
-520.650081
 30
0.0
  0
SPLINE
  5
19e
100
AcDbEntity
  8
Layer_1
 62
7
100
AcDbSpline
 70
8
 71
3
 72
8
 73
4
 74
0
 40
0
 40
0
 40
0
 40
0
 40
1
 40
1
 40
1
 40
1
 10
168.442478
 20
-249.113725
 30
0.0
 10
168.442478
 20
-247.493370
 30
0.0
 10
167.578030
 20
-245.996101
 30
0.0
 10
166.174761
 20
-245.185924
 30
0.0
  0
SPLINE
  5
19f
100
AcDbEntity
  8
Layer_1
 62
7
100
AcDbSpline
 70
8
 71
3
 72
8
 73
4
 74
0
 40
0
 40
0
 40
0
 40
0
 40
1
 40
1
 40
1
 40
1
 10
166.174761
 20
-245.185924
 30
0.0
 10
164.771493
 20
-244.375746
 30
0.0
 10
163.042596
 20
-244.375746
 30
0.0
 10
161.639327
 20
-245.185924
 30
0.0
  0
SPLINE
  5
1a0
100
AcDbEntity
  8
Layer_1
 62
7
100
AcDbSpline
 70
8
 71
3
 72
8
 73
4
 74
0
 40
0
 40
0
 40
0
 40
0
 40
1
 40
1
 40
1
 40
1
 10
161.639327
 20
-245.185924
 30
0.0
 10
160.236059
 20
-245.996101
 30
0.0
 10
159.371611
 20
-247.493370
 30
0.0
 10
159.371611
 20
-249.113725
 30
0.0
  0
SPLINE
  5
1a1
100
AcDbEntity
  8
Layer_1
 62
7
100
AcDbSpline
 70
8
 71
3
 72
8
 73
4
 74
0
 40
0
 40
0
 40
0
 40
0
 40
1
 40
1
 40
1
 40
1
 10
159.371611
 20
-249.113725
 30
0.0
 10
159.371611
 20
-250.734079
 30
0.0
 10
160.236059
 20
-252.231349
 30
0.0
 10
161.639327
 20
-253.041526
 30
0.0
  0
SPLINE
  5
1a2
100
AcDbEntity
  8
Layer_1
 62
7
100
AcDbSpline
 70
8
 71
3
 72
8
 73
4
 74
0
 40
0
 40
0
 40
0
 40
0
 40
1
 40
1
 40
1
 40
1
 10
161.639327
 20
-253.041526
 30
0.0
 10
163.042596
 20
-253.851703
 30
0.0
 10
164.771493
 20
-253.851703
 30
0.0
 10
166.174761
 20
-253.041526
 30
0.0
  0
SPLINE
  5
1a3
100
AcDbEntity
  8
Layer_1
 62
7
100
AcDbSpline
 70
8
 71
3
 72
8
 73
4
 74
0
 40
0
 40
0
 40
0
 40
0
 40
1
 40
1
 40
1
 40
1
 10
166.174761
 20
-253.041526
 30
0.0
 10
167.578030
 20
-252.231349
 30
0.0
 10
168.442478
 20
-250.734079
 30
0.0
 10
168.442478
 20
-249.113725
 30
0.0
  0
LWPOLYLINE
  5
1a4
100
AcDbEntity
  8
Layer_1
 62
7
100
AcDbPolyline
 90
2
 70
0
 10
610.398828
 20
-462.247807
 30
0.0
 10
600.376878
 20
-452.225790
 30
0.0
  0
SPLINE
  5
1a5
100
AcDbEntity
  8
Layer_1
 62
7
100
AcDbSpline
 70
8
 71
3
 72
8
 73
4
 74
0
 40
0
 40
0
 40
0
 40
0
 40
1
 40
1
 40
1
 40
1
 10
375.298791
 20
-291.633407
 30
0.0
 10
375.298791
 20
-290.013052
 30
0.0
 10
374.434342
 20
-288.515783
 30
0.0
 10
373.031074
 20
-287.705606
 30
0.0
  0
SPLINE
  5
1a6
100
AcDbEntity
  8
Layer_1
 62
7
100
AcDbSpline
 70
8
 71
3
 72
8
 73
4
 74
0
 40
0
 40
0
 40
0
 40
0
 40
1
 40
1
 40
1
 40
1
 10
373.031074
 20
-287.705606
 30
0.0
 10
371.627806
 20
-286.895429
 30
0.0
 10
369.898908
 20
-286.895429
 30
0.0
 10
368.495640
 20
-287.705606
 30
0.0
  0
SPLINE
  5
1a7
100
AcDbEntity
  8
Layer_1
 62
7
100
AcDbSpline
 70
8
 71
3
 72
8
 73
4
 74
0
 40
0
 40
0
 40
0
 40
0
 40
1
 40
1
 40
1
 40
1
 10
368.495640
 20
-287.705606
 30
0.0
 10
367.092372
 20
-288.515783
 30
0.0
 10
366.227923
 20
-290.013052
 30
0.0
 10
366.227923
 20
-291.633407
 30
0.0
  0
SPLINE
  5
1a8
100
AcDbEntity
  8
Layer_1
 62
7
100
AcDbSpline
 70
8
 71
3
 72
8
 73
4
 74
0
 40
0
 40
0
 40
0
 40
0
 40
1
 40
1
 40
1
 40
1
 10
366.227923
 20
-291.633407
 30
0.0
 10
366.227923
 20
-293.253761
 30
0.0
 10
367.092372
 20
-294.751030
 30
0.0
 10
368.495640
 20
-295.561208
 30
0.0
  0
SPLINE
  5
1a9
100
AcDbEntity
  8
Layer_1
 62
7
100
AcDbSpline
 70
8
 71
3
 72
8
 73
4
 74
0
 40
0
 40
0
 40
0
 40
0
 40
1
 40
1
 40
1
 40
1
 10
368.495640
 20
-295.561208
 30
0.0
 10
369.898908
 20
-296.371385
 30
0.0
 10
371.627806
 20
-296.371385
 30
0.0
 10
373.031074
 20
-295.561208
 30
0.0
  0
SPLINE
  5
1aa
100
AcDbEntity
  8
Layer_1
 62
7
100
AcDbSpline
 70
8
 71
3
 72
8
 73
4
 74
0
 40
0
 40
0
 40
0
 40
0
 40
1
 40
1
 40
1
 40
1
 10
373.031074
 20
-295.561208
 30
0.0
 10
374.434342
 20
-294.751030
 30
0.0
 10
375.298791
 20
-293.253761
 30
0.0
 10
375.298791
 20
-291.633407
 30
0.0
  0
LWPOLYLINE
  5
1ab
100
AcDbEntity
  8
Layer_1
 62
7
100
AcDbPolyline
 90
1
 70
1
 10
168.442478
 20
-249.113725
 30
0.0
  0
SPLINE
  5
1ac
100
AcDbEntity
  8
Layer_1
 62
7
100
AcDbSpline
 70
8
 71
3
 72
8
 73
4
 74
0
 40
0
 40
0
 40
0
 40
0
 40
1
 40
1
 40
1
 40
1
 10
375.298791
 20
-413.523165
 30
0.0
 10
375.298791
 20
-411.902811
 30
0.0
 10
374.434342
 20
-410.405542
 30
0.0
 10
373.031074
 20
-409.595365
 30
0.0
  0
SPLINE
  5
1ad
100
AcDbEntity
  8
Layer_1
 62
7
100
AcDbSpline
 70
8
 71
3
 72
8
 73
4
 74
0
 40
0
 40
0
 40
0
 40
0
 40
1
 40
1
 40
1
 40
1
 10
373.031074
 20
-409.595365
 30
0.0
 10
371.627806
 20
-408.785187
 30
0.0
 10
369.898908
 20
-408.785187
 30
0.0
 10
368.495640
 20
-409.595365
 30
0.0
  0
SPLINE
  5
1ae
100
AcDbEntity
  8
Layer_1
 62
7
100
AcDbSpline
 70
8
 71
3
 72
8
 73
4
 74
0
 40
0
 40
0
 40
0
 40
0
 40
1
 40
1
 40
1
 40
1
 10
368.495640
 20
-409.595365
 30
0.0
 10
367.092372
 20
-410.405542
 30
0.0
 10
366.227923
 20
-411.902811
 30
0.0
 10
366.227923
 20
-413.523165
 30
0.0
  0
SPLINE
  5
1af
100
AcDbEntity
  8
Layer_1
 62
7
100
AcDbSpline
 70
8
 71
3
 72
8
 73
4
 74
0
 40
0
 40
0
 40
0
 40
0
 40
1
 40
1
 40
1
 40
1
 10
366.227923
 20
-413.523165
 30
0.0
 10
366.227923
 20
-415.143520
 30
0.0
 10
367.092372
 20
-416.640789
 30
0.0
 10
368.495640
 20
-417.450966
 30
0.0
  0
SPLINE
  5
1b0
100
AcDbEntity
  8
Layer_1
 62
7
100
AcDbSpline
 70
8
 71
3
 72
8
 73
4
 74
0
 40
0
 40
0
 40
0
 40
0
 40
1
 40
1
 40
1
 40
1
 10
368.495640
 20
-417.450966
 30
0.0
 10
369.898908
 20
-418.261143
 30
0.0
 10
371.627806
 20
-418.261143
 30
0.0
 10
373.031074
 20
-417.450966
 30
0.0
  0
SPLINE
  5
1b1
100
AcDbEntity
  8
Layer_1
 62
7
100
AcDbSpline
 70
8
 71
3
 72
8
 73
4
 74
0
 40
0
 40
0
 40
0
 40
0
 40
1
 40
1
 40
1
 40
1
 10
373.031074
 20
-417.450966
 30
0.0
 10
374.434342
 20
-416.640789
 30
0.0
 10
375.298791
 20
-415.143520
 30
0.0
 10
375.298791
 20
-413.523165
 30
0.0
  0
LWPOLYLINE
  5
1b2
100
AcDbEntity
  8
Layer_1
 62
7
100
AcDbPolyline
 90
1
 70
1
 10
375.298791
 20
-291.633407
 30
0.0
  0
SPLINE
  5
1b3
100
AcDbEntity
  8
Layer_1
 62
7
100
AcDbSpline
 70
8
 71
3
 72
8
 73
4
 74
0
 40
0
 40
0
 40
0
 40
0
 40
1
 40
1
 40
1
 40
1
 10
168.442478
 20
-456.042855
 30
0.0
 10
168.442478
 20
-454.422500
 30
0.0
 10
167.578030
 20
-452.925231
 30
0.0
 10
166.174761
 20
-452.115054
 30
0.0
  0
SPLINE
  5
1b4
100
AcDbEntity
  8
Layer_1
 62
7
100
AcDbSpline
 70
8
 71
3
 72
8
 73
4
 74
0
 40
0
 40
0
 40
0
 40
0
 40
1
 40
1
 40
1
 40
1
 10
166.174761
 20
-452.115054
 30
0.0
 10
164.771493
 20
-451.304876
 30
0.0
 10
163.042596
 20
-451.304876
 30
0.0
 10
161.639327
 20
-452.115054
 30
0.0
  0
SPLINE
  5
1b5
100
AcDbEntity
  8
Layer_1
 62
7
100
AcDbSpline
 70
8
 71
3
 72
8
 73
4
 74
0
 40
0
 40
0
 40
0
 40
0
 40
1
 40
1
 40
1
 40
1
 10
161.639327
 20
-452.115054
 30
0.0
 10
160.236059
 20
-452.925231
 30
0.0
 10
159.371611
 20
-454.422500
 30
0.0
 10
159.371611
 20
-456.042855
 30
0.0
  0
SPLINE
  5
1b6
100
AcDbEntity
  8
Layer_1
 62
7
100
AcDbSpline
 70
8
 71
3
 72
8
 73
4
 74
0
 40
0
 40
0
 40
0
 40
0
 40
1
 40
1
 40
1
 40
1
 10
159.371611
 20
-456.042855
 30
0.0
 10
159.371611
 20
-457.663209
 30
0.0
 10
160.236059
 20
-459.160479
 30
0.0
 10
161.639327
 20
-459.970656
 30
0.0
  0
SPLINE
  5
1b7
100
AcDbEntity
  8
Layer_1
 62
7
100
AcDbSpline
 70
8
 71
3
 72
8
 73
4
 74
0
 40
0
 40
0
 40
0
 40
0
 40
1
 40
1
 40
1
 40
1
 10
161.639327
 20
-459.970656
 30
0.0
 10
163.042596
 20
-460.780833
 30
0.0
 10
164.771493
 20
-460.780833
 30
0.0
 10
166.174761
 20
-459.970656
 30
0.0
  0
SPLINE
  5
1b8
100
AcDbEntity
  8
Layer_1
 62
7
100
AcDbSpline
 70
8
 71
3
 72
8
 73
4
 74
0
 40
0
 40
0
 40
0
 40
0
 40
1
 40
1
 40
1
 40
1
 10
166.174761
 20
-459.970656
 30
0.0
 10
167.578030
 20
-459.160479
 30
0.0
 10
168.442478
 20
-457.663209
 30
0.0
 10
168.442478
 20
-456.042855
 30
0.0
  0
LWPOLYLINE
  5
1b9
100
AcDbEntity
  8
Layer_1
 62
7
100
AcDbPolyline
 90
1
 70
1
 10
375.298791
 20
-413.523165
 30
0.0
  0
LWPOLYLINE
  5
1ba
100
AcDbEntity
  8
Layer_1
 62
7
100
AcDbPolyline
 90
1
 70
1
 10
168.442478
 20
-456.042855
 30
0.0
  0
SPLINE
  5
1bb
100
AcDbEntity
  8
Layer_1
 62
7
100
AcDbSpline
 70
8
 71
3
 72
8
 73
4
 74
0
 40
0
 40
0
 40
0
 40
0
 40
1
 40
1
 40
1
 40
1
 10
462.495829
 20
191.181885
 30
0.0
 10
462.495830
 20
192.802240
 30
0.0
 10
461.631380
 20
194.299511
 30
0.0
 10
460.228111
 20
195.109689
 30
0.0
  0
SPLINE
  5
1bc
100
AcDbEntity
  8
Layer_1
 62
7
100
AcDbSpline
 70
8
 71
3
 72
8
 73
4
 74
0
 40
0
 40
0
 40
0
 40
0
 40
1
 40
1
 40
1
 40
1
 10
460.228111
 20
195.109689
 30
0.0
 10
458.824842
 20
195.919867
 30
0.0
 10
457.095942
 20
195.919867
 30
0.0
 10
455.692673
 20
195.109689
 30
0.0
  0
SPLINE
  5
1bd
100
AcDbEntity
  8
Layer_1
 62
7
100
AcDbSpline
 70
8
 71
3
 72
8
 73
4
 74
0
 40
0
 40
0
 40
0
 40
0
 40
1
 40
1
 40
1
 40
1
 10
455.692673
 20
195.109689
 30
0.0
 10
454.289404
 20
194.299511
 30
0.0
 10
453.424954
 20
192.802240
 30
0.0
 10
453.424955
 20
191.181885
 30
0.0
  0
SPLINE
  5
1be
100
AcDbEntity
  8
Layer_1
 62
7
100
AcDbSpline
 70
8
 71
3
 72
8
 73
4
 74
0
 40
0
 40
0
 40
0
 40
0
 40
1
 40
1
 40
1
 40
1
 10
453.424955
 20
191.181885
 30
0.0
 10
453.424954
 20
189.561529
 30
0.0
 10
454.289404
 20
188.064258
 30
0.0
 10
455.692673
 20
187.254080
 30
0.0
  0
SPLINE
  5
1bf
100
AcDbEntity
  8
Layer_1
 62
7
100
AcDbSpline
 70
8
 71
3
 72
8
 73
4
 74
0
 40
0
 40
0
 40
0
 40
0
 40
1
 40
1
 40
1
 40
1
 10
455.692673
 20
187.254080
 30
0.0
 10
457.095942
 20
186.443902
 30
0.0
 10
458.824842
 20
186.443902
 30
0.0
 10
460.228111
 20
187.254080
 30
0.0
  0
SPLINE
  5
1c0
100
AcDbEntity
  8
Layer_1
 62
7
100
AcDbSpline
 70
8
 71
3
 72
8
 73
4
 74
0
 40
0
 40
0
 40
0
 40
0
 40
1
 40
1
 40
1
 40
1
 10
460.228111
 20
187.254080
 30
0.0
 10
461.631380
 20
188.064258
 30
0.0
 10
462.495830
 20
189.561529
 30
0.0
 10
462.495829
 20
191.181885
 30
0.0
  0
LWPOLYLINE
  5
1c1
100
AcDbEntity
  8
Layer_1
 62
7
100
AcDbPolyline
 90
2
 70
0
 10
326.218131
 20
-100.786617
 30
0.0
 10
326.218131
 20
-89.448034
 30
0.0
  0
SPLINE
  5
1c2
100
AcDbEntity
  8
Layer_1
 62
7
100
AcDbSpline
 70
8
 71
3
 72
8
 73
4
 74
0
 40
0
 40
0
 40
0
 40
0
 40
1
 40
1
 40
1
 40
1
 10
302.407109
 20
-80.944100
 30
0.0
 10
302.407109
 20
-79.323745
 30
0.0
 10
301.542660
 20
-77.826476
 30
0.0
 10
300.139392
 20
-77.016299
 30
0.0
  0
SPLINE
  5
1c3
100
AcDbEntity
  8
Layer_1
 62
7
100
AcDbSpline
 70
8
 71
3
 72
8
 73
4
 74
0
 40
0
 40
0
 40
0
 40
0
 40
1
 40
1
 40
1
 40
1
 10
300.139392
 20
-77.016299
 30
0.0
 10
298.736124
 20
-76.206122
 30
0.0
 10
297.007226
 20
-76.206122
 30
0.0
 10
295.603958
 20
-77.016299
 30
0.0
  0
SPLINE
  5
1c4
100
AcDbEntity
  8
Layer_1
 62
7
100
AcDbSpline
 70
8
 71
3
 72
8
 73
4
 74
0
 40
0
 40
0
 40
0
 40
0
 40
1
 40
1
 40
1
 40
1
 10
295.603958
 20
-77.016299
 30
0.0
 10
294.200690
 20
-77.826476
 30
0.0
 10
293.336242
 20
-79.323745
 30
0.0
 10
293.336242
 20
-80.944100
 30
0.0
  0
SPLINE
  5
1c5
100
AcDbEntity
  8
Layer_1
 62
7
100
AcDbSpline
 70
8
 71
3
 72
8
 73
4
 74
0
 40
0
 40
0
 40
0
 40
0
 40
1
 40
1
 40
1
 40
1
 10
293.336242
 20
-80.944100
 30
0.0
 10
293.336242
 20
-82.564454
 30
0.0
 10
294.200690
 20
-84.061723
 30
0.0
 10
295.603958
 20
-84.871900
 30
0.0
  0
SPLINE
  5
1c6
100
AcDbEntity
  8
Layer_1
 62
7
100
AcDbSpline
 70
8
 71
3
 72
8
 73
4
 74
0
 40
0
 40
0
 40
0
 40
0
 40
1
 40
1
 40
1
 40
1
 10
295.603958
 20
-84.871900
 30
0.0
 10
297.007226
 20
-85.682077
 30
0.0
 10
298.736124
 20
-85.682077
 30
0.0
 10
300.139392
 20
-84.871900
 30
0.0
  0
SPLINE
  5
1c7
100
AcDbEntity
  8
Layer_1
 62
7
100
AcDbSpline
 70
8
 71
3
 72
8
 73
4
 74
0
 40
0
 40
0
 40
0
 40
0
 40
1
 40
1
 40
1
 40
1
 10
300.139392
 20
-84.871900
 30
0.0
 10
301.542660
 20
-84.061723
 30
0.0
 10
302.407109
 20
-82.564454
 30
0.0
 10
302.407109
 20
-80.944100
 30
0.0
  0
LWPOLYLINE
  5
1c8
100
AcDbEntity
  8
Layer_1
 62
7
100
AcDbPolyline
 90
1
 70
1
 10
462.495829
 20
191.181885
 30
0.0
  0
SPLINE
  5
1c9
100
AcDbEntity
  8
Layer_1
 62
7
100
AcDbSpline
 70
8
 71
3
 72
8
 73
4
 74
0
 40
0
 40
0
 40
0
 40
0
 40
1
 40
1
 40
1
 40
1
 10
510.481729
 20
-89.448034
 30
0.0
 10
510.481730
 20
-97.275682
 30
0.0
 10
504.136176
 20
-103.621248
 30
0.0
 10
496.308529
 20
-103.621264
 30
0.0
  0
SPLINE
  5
1ca
100
AcDbEntity
  8
Layer_1
 62
7
100
AcDbSpline
 70
8
 71
3
 72
8
 73
4
 74
0
 40
0
 40
0
 40
0
 40
0
 40
1
 40
1
 40
1
 40
1
 10
496.308529
 20
-103.621264
 30
0.0
 10
496.308529
 20
-103.621264
 30
0.0
 10
42.764665
 20
-103.621264
 30
0.0
 10
42.764665
 20
-103.621264
 30
0.0
  0
SPLINE
  5
1cb
100
AcDbEntity
  8
Layer_1
 62
7
100
AcDbSpline
 70
8
 71
3
 72
8
 73
4
 74
0
 40
0
 40
0
 40
0
 40
0
 40
1
 40
1
 40
1
 40
1
 10
42.764665
 20
-103.621264
 30
0.0
 10
34.937009
 20
-103.621261
 30
0.0
 10
28.591442
 20
-97.275690
 30
0.0
 10
28.591442
 20
-89.448034
 30
0.0
  0
SPLINE
  5
1cc
100
AcDbEntity
  8
Layer_1
 62
7
100
AcDbSpline
 70
8
 71
3
 72
8
 73
4
 74
0
 40
0
 40
0
 40
0
 40
0
 40
1
 40
1
 40
1
 40
1
 10
28.591442
 20
-89.448034
 30
0.0
 10
28.591442
 20
-89.448034
 30
0.0
 10
28.591442
 20
145.827555
 30
0.0
 10
28.591442
 20
145.827555
 30
0.0
  0
SPLINE
  5
1cd
100
AcDbEntity
  8
Layer_1
 62
7
100
AcDbSpline
 70
8
 71
3
 72
8
 73
4
 74
0
 40
0
 40
0
 40
0
 40
0
 40
1
 40
1
 40
1
 40
1
 10
28.591442
 20
145.827555
 30
0.0
 10
28.591442
 20
153.655211
 30
0.0
 10
34.937009
 20
160.000782
 30
0.0
 10
42.764665
 20
160.000785
 30
0.0
  0
SPLINE
  5
1ce
100
AcDbEntity
  8
Layer_1
 62
7
100
AcDbSpline
 70
8
 71
3
 72
8
 73
4
 74
0
 40
0
 40
0
 40
0
 40
0
 40
1
 40
1
 40
1
 40
1
 10
42.764665
 20
160.000785
 30
0.0
 10
42.764665
 20
160.000785
 30
0.0
 10
496.308529
 20
160.000785
 30
0.0
 10
496.308529
 20
160.000785
 30
0.0
  0
SPLINE
  5
1cf
100
AcDbEntity
  8
Layer_1
 62
7
100
AcDbSpline
 70
8
 71
3
 72
8
 73
4
 74
0
 40
0
 40
0
 40
0
 40
0
 40
1
 40
1
 40
1
 40
1
 10
496.308529
 20
160.000785
 30
0.0
 10
500.067512
 20
160.000797
 30
0.0
 10
503.672542
 20
158.507555
 30
0.0
 10
506.330548
 20
155.849556
 30
0.0
  0
SPLINE
  5
1d0
100
AcDbEntity
  8
Layer_1
 62
7
100
AcDbSpline
 70
8
 71
3
 72
8
 73
4
 74
0
 40
0
 40
0
 40
0
 40
0
 40
1
 40
1
 40
1
 40
1
 10
506.330548
 20
155.849556
 30
0.0
 10
508.988554
 20
153.191557
 30
0.0
 10
510.481806
 20
149.586531
 30
0.0
 10
510.481804
 20
145.827548
 30
0.0
  0
LWPOLYLINE
  5
1d1
100
AcDbEntity
  8
Layer_1
 62
7
100
AcDbPolyline
 90
1
 70
1
 10
302.407109
 20
-80.944100
 30
0.0
  0
SPLINE
  5
1d2
100
AcDbEntity
  8
Layer_1
 62
7
100
AcDbSpline
 70
8
 71
3
 72
8
 73
4
 74
0
 40
0
 40
0
 40
0
 40
0
 40
1
 40
1
 40
1
 40
1
 10
28.591442
 20
145.827555
 30
0.0
 10
28.591442
 20
153.655211
 30
0.0
 10
34.937009
 20
160.000782
 30
0.0
 10
42.764665
 20
160.000785
 30
0.0
  0
LWPOLYLINE
  5
1d3
100
AcDbEntity
  8
Layer_1
 62
7
100
AcDbPolyline
 90
2
 70
0
 10
510.481804
 20
145.827548
 30
0.0
 10
510.481729
 20
-89.448034
 30
0.0
  0
SPLINE
  5
1d4
100
AcDbEntity
  8
Layer_1
 62
7
100
AcDbSpline
 70
8
 71
3
 72
8
 73
4
 74
0
 40
0
 40
0
 40
0
 40
0
 40
1
 40
1
 40
1
 40
1
 10
496.308004
 20
160.000785
 30
0.0
 10
504.135651
 20
160.000769
 30
0.0
 10
510.481205
 20
153.655202
 30
0.0
 10
510.481204
 20
145.827555
 30
0.0
  0
SPLINE
  5
1d5
100
AcDbEntity
  8
Layer_1
 62
7
100
AcDbSpline
 70
8
 71
3
 72
8
 73
4
 74
0
 40
0
 40
0
 40
0
 40
0
 40
1
 40
1
 40
1
 40
1
 10
510.481204
 20
145.827555
 30
0.0
 10
510.481204
 20
145.827555
 30
0.0
 10
510.481204
 20
-86.613387
 30
0.0
 10
510.481204
 20
-86.613387
 30
0.0
  0
SPLINE
  5
1d6
100
AcDbEntity
  8
Layer_1
 62
7
100
AcDbSpline
 70
8
 71
3
 72
8
 73
4
 74
0
 40
0
 40
0
 40
0
 40
0
 40
1
 40
1
 40
1
 40
1
 10
510.481204
 20
-86.613387
 30
0.0
 10
510.481205
 20
-94.441034
 30
0.0
 10
504.135651
 20
-100.786601
 30
0.0
 10
496.308004
 20
-100.786617
 30
0.0
  0
SPLINE
  5
1d7
100
AcDbEntity
  8
Layer_1
 62
7
100
AcDbSpline
 70
8
 71
3
 72
8
 73
4
 74
0
 40
0
 40
0
 40
0
 40
0
 40
1
 40
1
 40
1
 40
1
 10
496.308004
 20
-100.786617
 30
0.0
 10
496.308004
 20
-100.786617
 30
0.0
 10
42.764665
 20
-100.786617
 30
0.0
 10
42.764665
 20
-100.786617
 30
0.0
  0
SPLINE
  5
1d8
100
AcDbEntity
  8
Layer_1
 62
7
100
AcDbSpline
 70
8
 71
3
 72
8
 73
4
 74
0
 40
0
 40
0
 40
0
 40
0
 40
1
 40
1
 40
1
 40
1
 10
42.764665
 20
-100.786617
 30
0.0
 10
34.937009
 20
-100.786613
 30
0.0
 10
28.591442
 20
-94.441043
 30
0.0
 10
28.591442
 20
-86.613387
 30
0.0
  0
LWPOLYLINE
  5
1d9
100
AcDbEntity
  8
Layer_1
 62
7
100
AcDbPolyline
 90
2
 70
0
 10
42.764665
 20
160.000785
 30
0.0
 10
496.308004
 20
160.000785
 30
0.0
  0
LWPOLYLINE
  5
1da
100
AcDbEntity
  8
Layer_1
 62
7
100
AcDbPolyline
 90
2
 70
0
 10
28.591442
 20
-86.613387
 30
0.0
 10
28.591442
 20
145.827555
 30
0.0
  0
SPLINE
  5
1db
100
AcDbEntity
  8
Layer_1
 62
7
100
AcDbSpline
 70
8
 71
3
 72
8
 73
4
 74
0
 40
0
 40
0
 40
0
 40
0
 40
1
 40
1
 40
1
 40
1
 10
218.294250
 20
-44.093705
 30
0.0
 10
208.118295
 20
-44.093704
 30
0.0
 10
199.869054
 20
-35.844463
 30
0.0
 10
199.869054
 20
-25.668508
 30
0.0
  0
SPLINE
  5
1dc
100
AcDbEntity
  8
Layer_1
 62
7
100
AcDbSpline
 70
8
 71
3
 72
8
 73
4
 74
0
 40
0
 40
0
 40
0
 40
0
 40
1
 40
1
 40
1
 40
1
 10
199.869054
 20
-25.668508
 30
0.0
 10
199.869054
 20
-15.492553
 30
0.0
 10
208.118295
 20
-7.243311
 30
0.0
 10
218.294250
 20
-7.243310
 30
0.0
  0
LWPOLYLINE
  5
1dd
100
AcDbEntity
  8
Layer_1
 62
7
100
AcDbPolyline
 90
2
 70
0
 10
212.832308
 20
-89.448034
 30
0.0
 10
212.832308
 20
-100.786617
 30
0.0
  0
SPLINE
  5
1de
100
AcDbEntity
  8
Layer_1
 62
7
100
AcDbSpline
 70
8
 71
3
 72
8
 73
4
 74
0
 40
0
 40
0
 40
0
 40
0
 40
1
 40
1
 40
1
 40
1
 10
323.176139
 20
-7.243310
 30
0.0
 10
329.758828
 20
-7.243310
 30
0.0
 10
335.841483
 20
-10.755133
 30
0.0
 10
339.132828
 20
-16.455909
 30
0.0
  0
SPLINE
  5
1df
100
AcDbEntity
  8
Layer_1
 62
7
100
AcDbSpline
 70
8
 71
3
 72
8
 73
4
 74
0
 40
0
 40
0
 40
0
 40
0
 40
1
 40
1
 40
1
 40
1
 10
339.132828
 20
-16.455909
 30
0.0
 10
342.424172
 20
-22.156685
 30
0.0
 10
342.424172
 20
-29.180330
 30
0.0
 10
339.132828
 20
-34.881106
 30
0.0
  0
SPLINE
  5
1e0
100
AcDbEntity
  8
Layer_1
 62
7
100
AcDbSpline
 70
8
 71
3
 72
8
 73
4
 74
0
 40
0
 40
0
 40
0
 40
0
 40
1
 40
1
 40
1
 40
1
 10
339.132828
 20
-34.881106
 30
0.0
 10
335.841483
 20
-40.581882
 30
0.0
 10
329.758828
 20
-44.093705
 30
0.0
 10
323.176139
 20
-44.093705
 30
0.0
  0
LWPOLYLINE
  5
1e1
100
AcDbEntity
  8
Layer_1
 62
7
100
AcDbPolyline
 90
2
 70
0
 10
218.294250
 20
-7.243310
 30
0.0
 10
323.176139
 20
-7.243310
 30
0.0
  0
LWPOLYLINE
  5
1e2
100
AcDbEntity
  8
Layer_1
 62
7
100
AcDbPolyline
 90
2
 70
0
 10
323.176139
 20
-44.093705
 30
0.0
 10
218.294250
 20
-44.093705
 30
0.0
  0
SPLINE
  5
1e3
100
AcDbEntity
  8
Layer_1
 62
7
100
AcDbSpline
 70
8
 71
3
 72
8
 73
4
 74
0
 40
0
 40
0
 40
0
 40
0
 40
1
 40
1
 40
1
 40
1
 10
462.495829
 20
128.819678
 30
0.0
 10
462.495830
 20
130.440034
 30
0.0
 10
461.631380
 20
131.937305
 30
0.0
 10
460.228111
 20
132.747483
 30
0.0
  0
SPLINE
  5
1e4
100
AcDbEntity
  8
Layer_1
 62
7
100
AcDbSpline
 70
8
 71
3
 72
8
 73
4
 74
0
 40
0
 40
0
 40
0
 40
0
 40
1
 40
1
 40
1
 40
1
 10
460.228111
 20
132.747483
 30
0.0
 10
458.824842
 20
133.557661
 30
0.0
 10
457.095942
 20
133.557661
 30
0.0
 10
455.692673
 20
132.747483
 30
0.0
  0
SPLINE
  5
1e5
100
AcDbEntity
  8
Layer_1
 62
7
100
AcDbSpline
 70
8
 71
3
 72
8
 73
4
 74
0
 40
0
 40
0
 40
0
 40
0
 40
1
 40
1
 40
1
 40
1
 10
455.692673
 20
132.747483
 30
0.0
 10
454.289404
 20
131.937305
 30
0.0
 10
453.424954
 20
130.440034
 30
0.0
 10
453.424955
 20
128.819678
 30
0.0
  0
SPLINE
  5
1e6
100
AcDbEntity
  8
Layer_1
 62
7
100
AcDbSpline
 70
8
 71
3
 72
8
 73
4
 74
0
 40
0
 40
0
 40
0
 40
0
 40
1
 40
1
 40
1
 40
1
 10
453.424955
 20
128.819678
 30
0.0
 10
453.424954
 20
127.199322
 30
0.0
 10
454.289404
 20
125.702051
 30
0.0
 10
455.692673
 20
124.891873
 30
0.0
  0
SPLINE
  5
1e7
100
AcDbEntity
  8
Layer_1
 62
7
100
AcDbSpline
 70
8
 71
3
 72
8
 73
4
 74
0
 40
0
 40
0
 40
0
 40
0
 40
1
 40
1
 40
1
 40
1
 10
455.692673
 20
124.891873
 30
0.0
 10
457.095942
 20
124.081695
 30
0.0
 10
458.824842
 20
124.081695
 30
0.0
 10
460.228111
 20
124.891873
 30
0.0
  0
SPLINE
  5
1e8
100
AcDbEntity
  8
Layer_1
 62
7
100
AcDbSpline
 70
8
 71
3
 72
8
 73
4
 74
0
 40
0
 40
0
 40
0
 40
0
 40
1
 40
1
 40
1
 40
1
 10
460.228111
 20
124.891873
 30
0.0
 10
461.631380
 20
125.702051
 30
0.0
 10
462.495830
 20
127.199322
 30
0.0
 10
462.495829
 20
128.819678
 30
0.0
  0
LWPOLYLINE
  5
1e9
100
AcDbEntity
  8
Layer_1
 62
7
100
AcDbPolyline
 90
2
 70
0
 10
326.218131
 20
-89.448034
 30
0.0
 10
212.832308
 20
-89.448034
 30
0.0
  0
SPLINE
  5
1ea
100
AcDbEntity
  8
Layer_1
 62
7
100
AcDbSpline
 70
8
 71
3
 72
8
 73
4
 74
0
 40
0
 40
0
 40
0
 40
0
 40
1
 40
1
 40
1
 40
1
 10
417.141530
 20
191.181885
 30
0.0
 10
417.141530
 20
192.802243
 30
0.0
 10
416.277079
 20
194.299516
 30
0.0
 10
414.873808
 20
195.109695
 30
0.0
  0
SPLINE
  5
1eb
100
AcDbEntity
  8
Layer_1
 62
7
100
AcDbSpline
 70
8
 71
3
 72
8
 73
4
 74
0
 40
0
 40
0
 40
0
 40
0
 40
1
 40
1
 40
1
 40
1
 10
414.873808
 20
195.109695
 30
0.0
 10
413.470536
 20
195.919874
 30
0.0
 10
411.741634
 20
195.919874
 30
0.0
 10
410.338363
 20
195.109695
 30
0.0
  0
SPLINE
  5
1ec
100
AcDbEntity
  8
Layer_1
 62
7
100
AcDbSpline
 70
8
 71
3
 72
8
 73
4
 74
0
 40
0
 40
0
 40
0
 40
0
 40
1
 40
1
 40
1
 40
1
 10
410.338363
 20
195.109695
 30
0.0
 10
408.935091
 20
194.299516
 30
0.0
 10
408.070640
 20
192.802243
 30
0.0
 10
408.070640
 20
191.181885
 30
0.0
  0
SPLINE
  5
1ed
100
AcDbEntity
  8
Layer_1
 62
7
100
AcDbSpline
 70
8
 71
3
 72
8
 73
4
 74
0
 40
0
 40
0
 40
0
 40
0
 40
1
 40
1
 40
1
 40
1
 10
408.070640
 20
191.181885
 30
0.0
 10
408.070640
 20
189.561526
 30
0.0
 10
408.935091
 20
188.064253
 30
0.0
 10
410.338362
 20
187.254073
 30
0.0
  0
SPLINE
  5
1ee
100
AcDbEntity
  8
Layer_1
 62
7
100
AcDbSpline
 70
8
 71
3
 72
8
 73
4
 74
0
 40
0
 40
0
 40
0
 40
0
 40
1
 40
1
 40
1
 40
1
 10
410.338362
 20
187.254073
 30
0.0
 10
411.741634
 20
186.443894
 30
0.0
 10
413.470536
 20
186.443894
 30
0.0
 10
414.873808
 20
187.254073
 30
0.0
  0
SPLINE
  5
1ef
100
AcDbEntity
  8
Layer_1
 62
7
100
AcDbSpline
 70
8
 71
3
 72
8
 73
4
 74
0
 40
0
 40
0
 40
0
 40
0
 40
1
 40
1
 40
1
 40
1
 10
414.873808
 20
187.254073
 30
0.0
 10
416.277079
 20
188.064253
 30
0.0
 10
417.141530
 20
189.561526
 30
0.0
 10
417.141530
 20
191.181885
 30
0.0
  0
LWPOLYLINE
  5
1f0
100
AcDbEntity
  8
Layer_1
 62
7
100
AcDbPolyline
 90
1
 70
1
 10
462.495829
 20
128.819678
 30
0.0
  0
SPLINE
  5
1f1
100
AcDbEntity
  8
Layer_1
 62
7
100
AcDbSpline
 70
8
 71
3
 72
8
 73
4
 74
0
 40
0
 40
0
 40
0
 40
0
 40
1
 40
1
 40
1
 40
1
 10
245.714197
 20
-80.944100
 30
0.0
 10
245.714197
 20
-79.323745
 30
0.0
 10
244.849748
 20
-77.826476
 30
0.0
 10
243.446480
 20
-77.016299
 30
0.0
  0
SPLINE
  5
1f2
100
AcDbEntity
  8
Layer_1
 62
7
100
AcDbSpline
 70
8
 71
3
 72
8
 73
4
 74
0
 40
0
 40
0
 40
0
 40
0
 40
1
 40
1
 40
1
 40
1
 10
243.446480
 20
-77.016299
 30
0.0
 10
242.043212
 20
-76.206122
 30
0.0
 10
240.314315
 20
-76.206122
 30
0.0
 10
238.911047
 20
-77.016299
 30
0.0
  0
SPLINE
  5
1f3
100
AcDbEntity
  8
Layer_1
 62
7
100
AcDbSpline
 70
8
 71
3
 72
8
 73
4
 74
0
 40
0
 40
0
 40
0
 40
0
 40
1
 40
1
 40
1
 40
1
 10
238.911047
 20
-77.016299
 30
0.0
 10
237.507779
 20
-77.826476
 30
0.0
 10
236.643330
 20
-79.323745
 30
0.0
 10
236.643330
 20
-80.944100
 30
0.0
  0
SPLINE
  5
1f4
100
AcDbEntity
  8
Layer_1
 62
7
100
AcDbSpline
 70
8
 71
3
 72
8
 73
4
 74
0
 40
0
 40
0
 40
0
 40
0
 40
1
 40
1
 40
1
 40
1
 10
236.643330
 20
-80.944100
 30
0.0
 10
236.643330
 20
-82.564454
 30
0.0
 10
237.507779
 20
-84.061723
 30
0.0
 10
238.911047
 20
-84.871900
 30
0.0
  0
SPLINE
  5
1f5
100
AcDbEntity
  8
Layer_1
 62
7
100
AcDbSpline
 70
8
 71
3
 72
8
 73
4
 74
0
 40
0
 40
0
 40
0
 40
0
 40
1
 40
1
 40
1
 40
1
 10
238.911047
 20
-84.871900
 30
0.0
 10
240.314315
 20
-85.682077
 30
0.0
 10
242.043212
 20
-85.682077
 30
0.0
 10
243.446480
 20
-84.871900
 30
0.0
  0
SPLINE
  5
1f6
100
AcDbEntity
  8
Layer_1
 62
7
100
AcDbSpline
 70
8
 71
3
 72
8
 73
4
 74
0
 40
0
 40
0
 40
0
 40
0
 40
1
 40
1
 40
1
 40
1
 10
243.446480
 20
-84.871900
 30
0.0
 10
244.849748
 20
-84.061723
 30
0.0
 10
245.714197
 20
-82.564454
 30
0.0
 10
245.714197
 20
-80.944100
 30
0.0
  0
LWPOLYLINE
  5
1f7
100
AcDbEntity
  8
Layer_1
 62
7
100
AcDbPolyline
 90
1
 70
1
 10
417.141530
 20
191.181885
 30
0.0
  0
SPLINE
  5
1f8
100
AcDbEntity
  8
Layer_1
 62
7
100
AcDbSpline
 70
8
 71
3
 72
8
 73
4
 74
0
 40
0
 40
0
 40
0
 40
0
 40
1
 40
1
 40
1
 40
1
 10
417.141530
 20
128.819678
 30
0.0
 10
417.141530
 20
130.440036
 30
0.0
 10
416.277079
 20
131.937309
 30
0.0
 10
414.873808
 20
132.747488
 30
0.0
  0
SPLINE
  5
1f9
100
AcDbEntity
  8
Layer_1
 62
7
100
AcDbSpline
 70
8
 71
3
 72
8
 73
4
 74
0
 40
0
 40
0
 40
0
 40
0
 40
1
 40
1
 40
1
 40
1
 10
414.873808
 20
132.747488
 30
0.0
 10
413.470536
 20
133.557668
 30
0.0
 10
411.741634
 20
133.557668
 30
0.0
 10
410.338363
 20
132.747488
 30
0.0
  0
SPLINE
  5
1fa
100
AcDbEntity
  8
Layer_1
 62
7
100
AcDbSpline
 70
8
 71
3
 72
8
 73
4
 74
0
 40
0
 40
0
 40
0
 40
0
 40
1
 40
1
 40
1
 40
1
 10
410.338363
 20
132.747488
 30
0.0
 10
408.935091
 20
131.937309
 30
0.0
 10
408.070640
 20
130.440036
 30
0.0
 10
408.070640
 20
128.819678
 30
0.0
  0
SPLINE
  5
1fb
100
AcDbEntity
  8
Layer_1
 62
7
100
AcDbSpline
 70
8
 71
3
 72
8
 73
4
 74
0
 40
0
 40
0
 40
0
 40
0
 40
1
 40
1
 40
1
 40
1
 10
408.070640
 20
128.819678
 30
0.0
 10
408.070640
 20
127.199319
 30
0.0
 10
408.935091
 20
125.702046
 30
0.0
 10
410.338362
 20
124.891867
 30
0.0
  0
SPLINE
  5
1fc
100
AcDbEntity
  8
Layer_1
 62
7
100
AcDbSpline
 70
8
 71
3
 72
8
 73
4
 74
0
 40
0
 40
0
 40
0
 40
0
 40
1
 40
1
 40
1
 40
1
 10
410.338362
 20
124.891867
 30
0.0
 10
411.741634
 20
124.081687
 30
0.0
 10
413.470536
 20
124.081687
 30
0.0
 10
414.873808
 20
124.891867
 30
0.0
  0
SPLINE
  5
1fd
100
AcDbEntity
  8
Layer_1
 62
7
100
AcDbSpline
 70
8
 71
3
 72
8
 73
4
 74
0
 40
0
 40
0
 40
0
 40
0
 40
1
 40
1
 40
1
 40
1
 10
414.873808
 20
124.891867
 30
0.0
 10
416.277079
 20
125.702046
 30
0.0
 10
417.141530
 20
127.199319
 30
0.0
 10
417.141530
 20
128.819678
 30
0.0
  0
LWPOLYLINE
  5
1fe
100
AcDbEntity
  8
Layer_1
 62
7
100
AcDbPolyline
 90
1
 70
1
 10
245.714197
 20
-80.944100
 30
0.0
  0
LWPOLYLINE
  5
1ff
100
AcDbEntity
  8
Layer_1
 62
7
100
AcDbPolyline
 90
1
 70
1
 10
417.141530
 20
128.819678
 30
0.0
  0
LWPOLYLINE
  5
200
100
AcDbEntity
  8
Layer_1
 62
7
100
AcDbPolyline
 90
2
 70
0
 10
610.398828
 20
-462.247807
 30
0.0
 10
600.376878
 20
-452.225790
 30
0.0
  0
LWPOLYLINE
  5
201
100
AcDbEntity
  8
Layer_1
 62
7
100
AcDbPolyline
 90
2
 70
0
 10
668.801102
 20
-403.845480
 30
0.0
 10
658.779152
 20
-393.823501
 30
0.0
  0
LWPOLYLINE
  5
202
100
AcDbEntity
  8
Layer_1
 62
7
100
AcDbPolyline
 90
2
 70
0
 10
727.203376
 20
-345.443191
 30
0.0
 10
717.181426
 20
-335.421204
 30
0.0
  0
SPLINE
  5
203
100
AcDbEntity
  8
Layer_1
 62
7
100
AcDbSpline
 70
8
 71
3
 72
8
 73
4
 74
0
 40
0
 40
0
 40
0
 40
0
 40
1
 40
1
 40
1
 40
1
 10
131.001999
 20
191.181885
 30
0.0
 10
131.001999
 20
192.802239
 30
0.0
 10
130.137550
 20
194.299509
 30
0.0
 10
128.734282
 20
195.109686
 30
0.0
  0
SPLINE
  5
204
100
AcDbEntity
  8
Layer_1
 62
7
100
AcDbSpline
 70
8
 71
3
 72
8
 73
4
 74
0
 40
0
 40
0
 40
0
 40
0
 40
1
 40
1
 40
1
 40
1
 10
128.734282
 20
195.109686
 30
0.0
 10
127.331014
 20
195.919863
 30
0.0
 10
125.602116
 20
195.919863
 30
0.0
 10
124.198848
 20
195.109686
 30
0.0
  0
SPLINE
  5
205
100
AcDbEntity
  8
Layer_1
 62
7
100
AcDbSpline
 70
8
 71
3
 72
8
 73
4
 74
0
 40
0
 40
0
 40
0
 40
0
 40
1
 40
1
 40
1
 40
1
 10
124.198848
 20
195.109686
 30
0.0
 10
122.795580
 20
194.299509
 30
0.0
 10
121.931131
 20
192.802239
 30
0.0
 10
121.931131
 20
191.181885
 30
0.0
  0
SPLINE
  5
206
100
AcDbEntity
  8
Layer_1
 62
7
100
AcDbSpline
 70
8
 71
3
 72
8
 73
4
 74
0
 40
0
 40
0
 40
0
 40
0
 40
1
 40
1
 40
1
 40
1
 10
121.931131
 20
191.181885
 30
0.0
 10
121.931131
 20
189.561530
 30
0.0
 10
122.795580
 20
188.064261
 30
0.0
 10
124.198848
 20
187.254084
 30
0.0
  0
SPLINE
  5
207
100
AcDbEntity
  8
Layer_1
 62
7
100
AcDbSpline
 70
8
 71
3
 72
8
 73
4
 74
0
 40
0
 40
0
 40
0
 40
0
 40
1
 40
1
 40
1
 40
1
 10
124.198848
 20
187.254084
 30
0.0
 10
125.602116
 20
186.443907
 30
0.0
 10
127.331014
 20
186.443907
 30
0.0
 10
128.734282
 20
187.254084
 30
0.0
  0
SPLINE
  5
208
100
AcDbEntity
  8
Layer_1
 62
7
100
AcDbSpline
 70
8
 71
3
 72
8
 73
4
 74
0
 40
0
 40
0
 40
0
 40
0
 40
1
 40
1
 40
1
 40
1
 10
128.734282
 20
187.254084
 30
0.0
 10
130.137550
 20
188.064261
 30
0.0
 10
131.001999
 20
189.561530
 30
0.0
 10
131.001999
 20
191.181885
 30
0.0
  0
LWPOLYLINE
  5
209
100
AcDbEntity
  8
Layer_1
 62
7
100
AcDbPolyline
 90
2
 70
0
 10
658.779152
 20
-393.823501
 30
0.0
 10
717.181426
 20
-335.421204
 30
0.0
  0
SPLINE
  5
20a
100
AcDbEntity
  8
Layer_1
 62
7
100
AcDbSpline
 70
8
 71
3
 72
8
 73
4
 74
0
 40
0
 40
0
 40
0
 40
0
 40
1
 40
1
 40
1
 40
1
 10
85.647669
 20
191.181885
 30
0.0
 10
85.647669
 20
192.802239
 30
0.0
 10
84.783221
 20
194.299509
 30
0.0
 10
83.379952
 20
195.109686
 30
0.0
  0
SPLINE
  5
20b
100
AcDbEntity
  8
Layer_1
 62
7
100
AcDbSpline
 70
8
 71
3
 72
8
 73
4
 74
0
 40
0
 40
0
 40
0
 40
0
 40
1
 40
1
 40
1
 40
1
 10
83.379952
 20
195.109686
 30
0.0
 10
81.976684
 20
195.919863
 30
0.0
 10
80.247787
 20
195.919863
 30
0.0
 10
78.844518
 20
195.109686
 30
0.0
  0
SPLINE
  5
20c
100
AcDbEntity
  8
Layer_1
 62
7
100
AcDbSpline
 70
8
 71
3
 72
8
 73
4
 74
0
 40
0
 40
0
 40
0
 40
0
 40
1
 40
1
 40
1
 40
1
 10
78.844518
 20
195.109686
 30
0.0
 10
77.441250
 20
194.299509
 30
0.0
 10
76.576802
 20
192.802239
 30
0.0
 10
76.576802
 20
191.181885
 30
0.0
  0
SPLINE
  5
20d
100
AcDbEntity
  8
Layer_1
 62
7
100
AcDbSpline
 70
8
 71
3
 72
8
 73
4
 74
0
 40
0
 40
0
 40
0
 40
0
 40
1
 40
1
 40
1
 40
1
 10
76.576802
 20
191.181885
 30
0.0
 10
76.576802
 20
189.561530
 30
0.0
 10
77.441250
 20
188.064261
 30
0.0
 10
78.844518
 20
187.254083
 30
0.0
  0
SPLINE
  5
20e
100
AcDbEntity
  8
Layer_1
 62
7
100
AcDbSpline
 70
8
 71
3
 72
8
 73
4
 74
0
 40
0
 40
0
 40
0
 40
0
 40
1
 40
1
 40
1
 40
1
 10
78.844518
 20
187.254083
 30
0.0
 10
80.247787
 20
186.443906
 30
0.0
 10
81.976684
 20
186.443906
 30
0.0
 10
83.379952
 20
187.254083
 30
0.0
  0
SPLINE
  5
20f
100
AcDbEntity
  8
Layer_1
 62
7
100
AcDbSpline
 70
8
 71
3
 72
8
 73
4
 74
0
 40
0
 40
0
 40
0
 40
0
 40
1
 40
1
 40
1
 40
1
 10
83.379952
 20
187.254083
 30
0.0
 10
84.783221
 20
188.064261
 30
0.0
 10
85.647669
 20
189.561530
 30
0.0
 10
85.647669
 20
191.181885
 30
0.0
  0
LWPOLYLINE
  5
210
100
AcDbEntity
  8
Layer_1
 62
7
100
AcDbPolyline
 90
1
 70
1
 10
131.001999
 20
191.181885
 30
0.0
  0
SPLINE
  5
211
100
AcDbEntity
  8
Layer_1
 62
7
100
AcDbSpline
 70
8
 71
3
 72
8
 73
4
 74
0
 40
0
 40
0
 40
0
 40
0
 40
1
 40
1
 40
1
 40
1
 10
85.647669
 20
128.819678
 30
0.0
 10
85.647669
 20
130.440032
 30
0.0
 10
84.783221
 20
131.937302
 30
0.0
 10
83.379952
 20
132.747479
 30
0.0
  0
SPLINE
  5
212
100
AcDbEntity
  8
Layer_1
 62
7
100
AcDbSpline
 70
8
 71
3
 72
8
 73
4
 74
0
 40
0
 40
0
 40
0
 40
0
 40
1
 40
1
 40
1
 40
1
 10
83.379952
 20
132.747479
 30
0.0
 10
81.976684
 20
133.557656
 30
0.0
 10
80.247787
 20
133.557656
 30
0.0
 10
78.844518
 20
132.747479
 30
0.0
  0
SPLINE
  5
213
100
AcDbEntity
  8
Layer_1
 62
7
100
AcDbSpline
 70
8
 71
3
 72
8
 73
4
 74
0
 40
0
 40
0
 40
0
 40
0
 40
1
 40
1
 40
1
 40
1
 10
78.844518
 20
132.747479
 30
0.0
 10
77.441250
 20
131.937302
 30
0.0
 10
76.576802
 20
130.440032
 30
0.0
 10
76.576802
 20
128.819678
 30
0.0
  0
SPLINE
  5
214
100
AcDbEntity
  8
Layer_1
 62
7
100
AcDbSpline
 70
8
 71
3
 72
8
 73
4
 74
0
 40
0
 40
0
 40
0
 40
0
 40
1
 40
1
 40
1
 40
1
 10
76.576802
 20
128.819678
 30
0.0
 10
76.576802
 20
127.199323
 30
0.0
 10
77.441250
 20
125.702054
 30
0.0
 10
78.844518
 20
124.891877
 30
0.0
  0
SPLINE
  5
215
100
AcDbEntity
  8
Layer_1
 62
7
100
AcDbSpline
 70
8
 71
3
 72
8
 73
4
 74
0
 40
0
 40
0
 40
0
 40
0
 40
1
 40
1
 40
1
 40
1
 10
78.844518
 20
124.891877
 30
0.0
 10
80.247787
 20
124.081699
 30
0.0
 10
81.976684
 20
124.081699
 30
0.0
 10
83.379952
 20
124.891877
 30
0.0
  0
SPLINE
  5
216
100
AcDbEntity
  8
Layer_1
 62
7
100
AcDbSpline
 70
8
 71
3
 72
8
 73
4
 74
0
 40
0
 40
0
 40
0
 40
0
 40
1
 40
1
 40
1
 40
1
 10
83.379952
 20
124.891877
 30
0.0
 10
84.783221
 20
125.702054
 30
0.0
 10
85.647669
 20
127.199323
 30
0.0
 10
85.647669
 20
128.819678
 30
0.0
  0
LWPOLYLINE
  5
217
100
AcDbEntity
  8
Layer_1
 62
7
100
AcDbPolyline
 90
1
 70
1
 10
85.647669
 20
191.181885
 30
0.0
  0
SPLINE
  5
218
100
AcDbEntity
  8
Layer_1
 62
7
100
AcDbSpline
 70
8
 71
3
 72
8
 73
4
 74
0
 40
0
 40
0
 40
0
 40
0
 40
1
 40
1
 40
1
 40
1
 10
131.001999
 20
128.819678
 30
0.0
 10
131.001999
 20
130.440032
 30
0.0
 10
130.137550
 20
131.937302
 30
0.0
 10
128.734282
 20
132.747479
 30
0.0
  0
SPLINE
  5
219
100
AcDbEntity
  8
Layer_1
 62
7
100
AcDbSpline
 70
8
 71
3
 72
8
 73
4
 74
0
 40
0
 40
0
 40
0
 40
0
 40
1
 40
1
 40
1
 40
1
 10
128.734282
 20
132.747479
 30
0.0
 10
127.331014
 20
133.557656
 30
0.0
 10
125.602116
 20
133.557656
 30
0.0
 10
124.198848
 20
132.747479
 30
0.0
  0
SPLINE
  5
21a
100
AcDbEntity
  8
Layer_1
 62
7
100
AcDbSpline
 70
8
 71
3
 72
8
 73
4
 74
0
 40
0
 40
0
 40
0
 40
0
 40
1
 40
1
 40
1
 40
1
 10
124.198848
 20
132.747479
 30
0.0
 10
122.795580
 20
131.937302
 30
0.0
 10
121.931131
 20
130.440032
 30
0.0
 10
121.931131
 20
128.819678
 30
0.0
  0
SPLINE
  5
21b
100
AcDbEntity
  8
Layer_1
 62
7
100
AcDbSpline
 70
8
 71
3
 72
8
 73
4
 74
0
 40
0
 40
0
 40
0
 40
0
 40
1
 40
1
 40
1
 40
1
 10
121.931131
 20
128.819678
 30
0.0
 10
121.931131
 20
127.199323
 30
0.0
 10
122.795580
 20
125.702054
 30
0.0
 10
124.198848
 20
124.891877
 30
0.0
  0
SPLINE
  5
21c
100
AcDbEntity
  8
Layer_1
 62
7
100
AcDbSpline
 70
8
 71
3
 72
8
 73
4
 74
0
 40
0
 40
0
 40
0
 40
0
 40
1
 40
1
 40
1
 40
1
 10
124.198848
 20
124.891877
 30
0.0
 10
125.602116
 20
124.081700
 30
0.0
 10
127.331014
 20
124.081700
 30
0.0
 10
128.734282
 20
124.891877
 30
0.0
  0
SPLINE
  5
21d
100
AcDbEntity
  8
Layer_1
 62
7
100
AcDbSpline
 70
8
 71
3
 72
8
 73
4
 74
0
 40
0
 40
0
 40
0
 40
0
 40
1
 40
1
 40
1
 40
1
 10
128.734282
 20
124.891877
 30
0.0
 10
130.137550
 20
125.702054
 30
0.0
 10
131.001999
 20
127.199323
 30
0.0
 10
131.001999
 20
128.819678
 30
0.0
  0
LWPOLYLINE
  5
21e
100
AcDbEntity
  8
Layer_1
 62
7
100
AcDbPolyline
 90
1
 70
1
 10
85.647669
 20
128.819678
 30
0.0
  0
LWPOLYLINE
  5
21f
100
AcDbEntity
  8
Layer_1
 62
7
100
AcDbPolyline
 90
1
 70
1
 10
131.001999
 20
128.819678
 30
0.0
  0
ENDSEC
  0
SECTION
  2
OBJECTS
  0
DICTIONARY
  5
C
330
0
100
AcDbDictionary
  3
ACAD_GROUP
350
D
  3
ACAD_MLINESTYLE
350
17
  0
DICTIONARY
  5
D
330
C
100
AcDbDictionary
  0
DICTIONARY
  5
1A
330
C
100
AcDbDictionary
  0
DICTIONARY
  5
17
330
C
100
AcDbDictionary
  3
STANDARD
350
18
  0
DICTIONARY
  5
19
330
C
100
AcDbDictionary
  0
ENDSEC
  0
EOF
