0
SECTION
2
HEADER
9
$INSUNITS
70
4
9
$ACADVER
1
AC1014
9
$HANDSEED
5
FFFF
0
ENDSEC
0
SECTION
2
TABLES
0
TABLE
2
VPORT
5
8
100
AcDbSymbolTable
0
ENDTAB
0
TABLE
2
LTYPE
5
5
100
AcDbSymbolTable
0
LTYPE
5
14
100
AcDbSymbolTableRecord
100
AcDbLinetypeTableRecord
2
BYBLOCK
70
0
0
LTYPE
5
15
100
AcDbSymbolTableRecord
100
AcDbLinetypeTableRecord
2
BYLAYER
70
0
0
ENDTAB
0
TABLE
2
LAYER
5
2
100
AcDbSymbolTable
70
2
0
LAYER
5
50
100
AcDbSymbolTableRecord
100
AcDbLayerTableRecord
2
0
70
0
6
CONTINUOUS
0
ENDTAB
0
TABLE
2
STYLE
5
3
100
AcDbSymbolTable
70
1
0
STYLE
5
11
100
AcDbSymbolTableRecord
100
AcDbTextStyleTableRecord
2
STANDARD
70
0
0
ENDTAB
0
TABLE
2
VIEW
5
6
100
AcDbSymbolTable
70
0
0
ENDTAB
0
TABLE
2
UCS
5
7
100
AcDbSymbolTable
70
0
0
ENDTAB
0
TABLE
2
APPID
5
9
100
AcDbSymbolTable
70
2
0
APPID
5
12
100
AcDbSymbolTableRecord
100
AcDbRegAppTableRecord
2
ACAD
70
0
0
ENDTAB
0
TABLE
2
DIMSTYLE
5
A
100
AcDbSymbolTable
70
1
0
ENDTAB
0
TABLE
2
BLOCK_RECORD
5
1
100
AcDbSymbolTable
70
1
0
BLOCK_RECORD
5
1F
100
AcDbSymbolTableRecord
100
AcDbBlockTableRecord
2
*MODEL_SPACE
0
BLOCK_RECORD
5
1B
100
AcDbSymbolTableRecord
100
AcDbBlockTableRecord
2
*PAPER_SPACE
0
ENDTAB
0
ENDSEC
0
SECTION
2
BLOCKS
0
BLOCK
5
20
100
AcDbEntity
100
AcDbBlockBegin
2
*MODEL_SPACE
0
ENDBLK
5
21
100
AcDbEntity
100
AcDbBlockEnd
0
BLOCK
5
1C
100
AcDbEntity
100
AcDbBlockBegin
2
*PAPER_SPACE
0
ENDBLK
5
1D
100
AcDbEntity
100
AcDbBlockEnd
0
ENDSEC
0
SECTION
2
ENTITIES
0
LINE
5
100
100
AcDbEntity
8
0
100
AcDbLine
10
497.6738707753978
20
9.3146363172437585
30
0
11
542.87387077539779
21
9.3146363172437585
31
0
0
LINE
5
101
100
AcDbEntity
8
0
100
AcDbLine
10
542.87387077539779
20
9.3146363172437585
30
0
11
542.87387077539779
21
1.1146363172437597
31
0
0
LINE
5
102
100
AcDbEntity
8
0
100
AcDbLine
10
542.87387077539779
20
1.1146363172437597
30
0
11
588.07387077539784
21
1.1146363172437606
31
0
0
LINE
5
103
100
AcDbEntity
8
0
100
AcDbLine
10
588.07387077539784
20
1.1146363172437606
30
0
11
588.07387077539784
21
9.3146363172437532
31
0
0
LINE
5
104
100
AcDbEntity
8
0
100
AcDbLine
10
588.07387077539784
20
9.3146363172437532
30
0
11
633.27387077539788
21
9.3146363172437514
31
0
0
LINE
5
105
100
AcDbEntity
8
0
100
AcDbLine
10
633.27387077539788
20
9.3146363172437514
30
0
11
633.27387077539788
21
1.1146363172437583
31
0
0
LINE
5
106
100
AcDbEntity
8
0
100
AcDbLine
10
633.27387077539788
20
1.1146363172437583
30
0
11
678.47387077539793
21
1.1146363172437561
31
0
0
LINE
5
107
100
AcDbEntity
8
0
100
AcDbLine
10
678.47387077539793
20
1.1146363172437561
30
0
11
678.47387077539793
21
9.3146363172437461
31
0
0
LINE
5
108
100
AcDbEntity
8
0
100
AcDbLine
10
678.47387077539793
20
9.3146363172437461
30
0
11
723.67387077539786
21
9.3146363172437407
31
0
0
LINE
5
109
100
AcDbEntity
8
0
100
AcDbLine
10
723.67387077539786
20
9.3146363172437407
30
0
11
723.67387077539797
21
54.514636317243742
31
0
0
LINE
5
110
100
AcDbEntity
8
0
100
AcDbLine
10
723.67387077539797
20
54.514636317243742
30
0
11
731.87387077539802
21
54.514636317243742
31
0
0
LINE
5
111
100
AcDbEntity
8
0
100
AcDbLine
10
731.87387077539802
20
54.514636317243742
30
0
11
731.87387077539768
21
99.714636317243759
31
0
0
LINE
5
112
100
AcDbEntity
8
0
100
AcDbLine
10
731.87387077539768
20
99.714636317243759
30
0
11
723.67387077539797
21
99.714636317243759
31
0
0
LINE
5
113
100
AcDbEntity
8
0
100
AcDbLine
10
723.67387077539797
20
99.714636317243759
30
0
11
723.67387077539797
21
144.91463631724378
31
0
0
LINE
5
114
100
AcDbEntity
8
0
100
AcDbLine
10
723.67387077539797
20
144.91463631724378
30
0
11
731.87387077539768
21
144.91463631724378
31
0
0
LINE
5
115
100
AcDbEntity
8
0
100
AcDbLine
10
731.87387077539768
20
144.91463631724378
30
0
11
731.87387077539768
21
190.11463631724376
31
0
0
LINE
5
116
100
AcDbEntity
8
0
100
AcDbLine
10
731.87387077539768
20
190.11463631724376
30
0
11
723.67387077539797
21
190.11463631724371
31
0
0
LINE
5
117
100
AcDbEntity
8
0
100
AcDbLine
10
723.67387077539797
20
190.11463631724371
30
0
11
723.67387077539797
21
235.3146363172437
31
0
0
LINE
5
118
100
AcDbEntity
8
0
100
AcDbLine
10
633.27387077539822
20
243.51463631724354
30
0
11
633.27387077539879
21
235.3146363172437
31
0
0
LINE
5
119
100
AcDbEntity
8
0
100
AcDbLine
10
723.67387077539797
20
235.3146363172437
30
0
11
678.47387077539793
21
235.3146363172437
31
0
0
LINE
5
120
100
AcDbEntity
8
0
100
AcDbLine
10
497.67387077539945
20
190.11463631724359
30
0
11
489.4738707753994
21
190.11463631724368
31
0
0
LINE
5
121
100
AcDbEntity
8
0
100
AcDbLine
10
678.47387077539815
20
243.51463631724371
30
0
11
633.27387077539822
21
243.51463631724354
31
0
0
LINE
5
122
100
AcDbEntity
8
0
100
AcDbLine
10
633.27387077539879
20
235.3146363172437
30
0
11
588.07387077539886
21
235.3146363172437
31
0
0
LINE
5
123
100
AcDbEntity
8
0
100
AcDbLine
10
542.8738707753995
20
235.31463631724364
30
0
11
497.67387077539956
21
235.31463631724361
31
0
0
LINE
5
124
100
AcDbEntity
8
0
100
AcDbLine
10
588.07387077539886
20
243.51463631724354
30
0
11
542.87387077539893
21
243.51463631724354
31
0
0
LINE
5
125
100
AcDbEntity
8
0
100
AcDbLine
10
489.47387077539906
20
99.714636317243773
30
0
11
489.47387077539918
21
54.514636317243792
31
0
0
LINE
5
126
100
AcDbEntity
8
0
100
AcDbLine
10
497.67387077539894
20
54.51463631724387
30
0
11
497.67387077539877
21
9.3146363172438722
31
0
0
LINE
5
127
100
AcDbEntity
8
0
100
AcDbLine
10
497.67387077539922
20
144.91463631724372
30
0
11
497.67387077539911
21
99.71463631724373
31
0
0
LINE
5
128
100
AcDbEntity
8
0
100
AcDbLine
10
497.67387077539911
20
99.71463631724373
30
0
11
489.47387077539906
21
99.714636317243773
31
0
0
LINE
5
129
100
AcDbEntity
8
0
100
AcDbLine
10
497.67387077539956
20
235.31463631724361
30
0
11
497.67387077539945
21
190.11463631724359
31
0
0
LINE
5
130
100
AcDbEntity
8
0
100
AcDbLine
10
489.47387077539918
20
54.514636317243792
30
0
11
497.67387077539894
21
54.51463631724387
31
0
0
LINE
5
131
100
AcDbEntity
8
0
100
AcDbLine
10
489.4738707753994
20
190.11463631724368
30
0
11
489.47387077539923
21
144.91463631724372
31
0
0
LINE
5
132
100
AcDbEntity
8
0
100
AcDbLine
10
542.87387077539893
20
243.51463631724354
30
0
11
542.8738707753995
21
235.31463631724364
31
0
0
LINE
5
133
100
AcDbEntity
8
0
100
AcDbLine
10
489.47387077539923
20
144.91463631724372
30
0
11
497.67387077539922
21
144.91463631724372
31
0
0
LINE
5
134
100
AcDbEntity
8
0
100
AcDbLine
10
678.47387077539793
20
235.3146363172437
30
0
11
678.47387077539815
21
243.51463631724371
31
0
0
LINE
5
135
100
AcDbEntity
8
0
100
AcDbLine
10
588.07387077539886
20
235.3146363172437
30
0
11
588.07387077539886
21
243.51463631724354
31
0
0
LINE
5
136
100
AcDbEntity
8
0
100
AcDbLine
10
727.12681072166356
20
320.87992995574325
30
0
11
735.32681072166361
21
320.87992995574325
31
0
0
LINE
5
137
100
AcDbEntity
8
0
100
AcDbLine
10
735.32681072166361
20
346.75992995574177
30
0
11
727.12681072166356
21
346.75992995574148
31
0
0
LINE
5
138
100
AcDbEntity
8
0
100
AcDbLine
10
727.12681072166356
20
346.75992995574148
30
0
11
727.12681072166356
21
320.87992995574325
31
0
0
LINE
5
139
100
AcDbEntity
8
0
100
AcDbLine
10
735.32681072166361
20
372.63992995573983
30
0
11
735.32681072166361
21
346.75992995574177
31
0
0
LINE
5
140
100
AcDbEntity
8
0
100
AcDbLine
10
735.32681072166361
20
398.51992995573812
30
0
11
727.12681072166356
21
398.51992995573823
31
0
0
LINE
5
141
100
AcDbEntity
8
0
100
AcDbLine
10
727.12681072166356
20
372.63992995574017
30
0
11
735.32681072166361
21
372.63992995573983
31
0
0
LINE
5
142
100
AcDbEntity
8
0
100
AcDbLine
10
735.32681072166361
20
424.39992995573817
30
0
11
735.32681072166361
21
398.51992995573812
31
0
0
LINE
5
143
100
AcDbEntity
8
0
100
AcDbLine
10
727.12681072166356
20
398.51992995573823
30
0
11
727.12681072166356
21
372.63992995574017
31
0
0
LINE
5
144
100
AcDbEntity
8
0
100
AcDbLine
10
735.32681072166361
20
320.87992995574325
30
0
11
735.32681072166361
21
294.99992995574519
31
0
0
LINE
5
145
100
AcDbEntity
8
0
100
AcDbLine
10
546.32681072166315
20
303.19992995574427
30
0
11
546.32681072166338
21
294.99992995574581
31
0
0
LINE
5
146
100
AcDbEntity
8
0
100
AcDbLine
10
591.52681072166365
20
294.9999299557457
30
0
11
591.52681072166308
21
303.19992995574466
31
0
0
LINE
5
147
100
AcDbEntity
8
0
100
AcDbLine
10
591.52681072166308
20
303.19992995574466
30
0
11
546.32681072166315
21
303.19992995574427
31
0
0
LINE
5
148
100
AcDbEntity
8
0
100
AcDbLine
10
636.72681072166358
20
294.99992995574553
30
0
11
591.52681072166365
21
294.9999299557457
31
0
0
LINE
5
149
100
AcDbEntity
8
0
100
AcDbLine
10
681.92681072166351
20
294.99992995574542
30
0
11
681.92681072166351
21
303.1999299557454
31
0
0
LINE
5
150
100
AcDbEntity
8
0
100
AcDbLine
10
636.72681072166347
20
303.19992995574512
30
0
11
636.72681072166358
21
294.99992995574553
31
0
0
LINE
5
151
100
AcDbEntity
8
0
100
AcDbLine
10
735.32681072166361
20
294.99992995574519
30
0
11
681.92681072166351
21
294.99992995574542
31
0
0
LINE
5
152
100
AcDbEntity
8
0
100
AcDbLine
10
681.92681072166351
20
303.1999299557454
30
0
11
636.72681072166347
21
303.19992995574512
31
0
0
LINE
5
153
100
AcDbEntity
8
0
100
AcDbLine
10
546.32681072166338
20
294.99992995574581
30
0
11
492.9268107216634
21
294.99992995574593
31
0
0
LINE
5
154
100
AcDbEntity
8
0
100
AcDbLine
10
501.1268107216643
20
398.51992995573852
30
0
11
492.92681072166454
21
398.51992995573852
31
0
0
LINE
5
155
100
AcDbEntity
8
0
100
AcDbLine
10
492.92681072166425
20
372.6399299557599
30
0
11
501.12681072166413
21
372.6399299557595
31
0
0
LINE
5
156
100
AcDbEntity
8
0
100
AcDbLine
10
501.12681072166413
20
372.6399299557595
30
0
11
501.1268107216643
21
398.51992995573852
31
0
0
LINE
5
157
100
AcDbEntity
8
0
100
AcDbLine
10
492.92681072166397
20
346.75992995578088
30
0
11
492.92681072166425
21
372.6399299557599
31
0
0
LINE
5
158
100
AcDbEntity
8
0
100
AcDbLine
10
492.92681072166368
20
320.87992995580191
30
0
11
501.12681072166367
21
320.8799299558018
31
0
0
LINE
5
159
100
AcDbEntity
8
0
100
AcDbLine
10
501.12681072166373
20
346.75992995578088
30
0
11
492.92681072166397
21
346.75992995578088
31
0
0
LINE
5
160
100
AcDbEntity
8
0
100
AcDbLine
10
492.9268107216634
20
294.99992995574593
30
0
11
492.92681072166368
21
320.87992995580191
31
0
0
LINE
5
161
100
AcDbEntity
8
0
100
AcDbLine
10
501.12681072166367
20
320.8799299558018
30
0
11
501.12681072166373
21
346.75992995578088
31
0
0
LINE
5
162
100
AcDbEntity
8
0
100
AcDbLine
10
492.92681072166454
20
398.51992995573852
30
0
11
492.92681072166482
21
424.39992995571754
31
0
0
LWPOLYLINE
5
163
100
AcDbEntity
8
0
100
AcDbPolyline
90
4
70
1
43
0.0
10
591.52681072166445
20
404.3999299557446
10
546.3268107216644
20
404.3999299557446
10
546.3268107216644
20
396.19992995574466
10
591.52681072166445
20
396.19992995574466
0
LWPOLYLINE
5
164
100
AcDbEntity
8
0
100
AcDbPolyline
90
4
70
1
43
0.0
10
681.92681072166442
20
404.3999299557446
10
636.72681072166449
20
404.3999299557446
10
636.72681072166449
20
396.19992995574466
10
681.92681072166442
20
396.19992995574466
0
LINE
5
165
100
AcDbEntity
8
0
100
AcDbLine
10
492.92681072166482
20
424.39992995571754
30
0
11
735.32681072166361
21
424.39992995573817
31
0
0
LINE
5
166
100
AcDbEntity
8
0
100
AcDbLine
10
546.72681072166199
20
-61.800070044251818
30
0
11
591.92681072166351
21
-61.800070044254625
31
0
0
LINE
5
167
100
AcDbEntity
8
0
100
AcDbLine
10
493.32681072167031
20
-157.12007004426042
30
0
11
501.52681072167024
21
-157.12007004426042
31
0
0
LINE
5
168
100
AcDbEntity
8
0
100
AcDbLine
10
501.52681072167024
20
-157.12007004426042
30
0
11
501.52681072166331
21
-131.24007004424968
31
0
0
LINE
5
169
100
AcDbEntity
8
0
100
AcDbLine
10
493.32681072166338
20
-79.480070044252813
30
0
11
493.32681072166338
21
-53.600070044254728
31
0
0
LINE
5
170
100
AcDbEntity
8
0
100
AcDbLine
10
591.92681072166329
20
-53.600070044255048
30
0
11
637.12681072166333
21
-53.600070044255226
31
0
0
LINE
5
171
100
AcDbEntity
8
0
100
AcDbLine
10
493.32681072166338
20
-131.24007004424939
30
0
11
493.32681072166338
21
-105.3600700442513
31
0
0
LWPOLYLINE
5
172
100
AcDbEntity
8
0
100
AcDbPolyline
90
4
70
1
43
0.0
10
546.72681072166256
20
-154.80007004425417
10
546.72681072166256
20
-163.0000700442541
10
591.92681072166238
20
-163.0000700442541
10
591.92681072166238
20
-154.80007004425417
0
LINE
5
173
100
AcDbEntity
8
0
100
AcDbLine
10
546.72681072166199
20
-53.600070044251815
30
0
11
546.72681072166199
21
-61.800070044251818
31
0
0
LINE
5
174
100
AcDbEntity
8
0
100
AcDbLine
10
735.7268107216621
20
-183.0000700442271
30
0
11
493.32681072166338
21
-183.00007004424771
31
0
0
LINE
5
175
100
AcDbEntity
8
0
100
AcDbLine
10
493.32681072166338
20
-53.600070044254728
30
0
11
546.72681072166199
21
-53.600070044251815
31
0
0
LINE
5
176
100
AcDbEntity
8
0
100
AcDbLine
10
501.52681072166331
20
-131.24007004424968
30
0
11
493.32681072166338
21
-131.24007004424939
31
0
0
LINE
5
177
100
AcDbEntity
8
0
100
AcDbLine
10
501.52681072166331
20
-105.36007004425102
30
0
11
501.52681072166331
21
-79.480070044252813
31
0
0
LINE
5
178
100
AcDbEntity
8
0
100
AcDbLine
10
682.32681072166361
20
-53.600070044255332
30
0
11
735.72681072166347
21
-53.600070044255439
31
0
0
LWPOLYLINE
5
179
100
AcDbEntity
8
0
100
AcDbPolyline
90
4
70
1
43
0.0
10
682.32681072166258
20
-163.0000700442541
10
682.32681072166258
20
-154.80007004425417
10
637.12681072166242
20
-154.80007004425417
10
637.12681072166242
20
-163.0000700442541
0
LINE
5
180
100
AcDbEntity
8
0
100
AcDbLine
10
735.72681072166347
20
-53.600070044255439
30
0
11
735.72681072166529
21
-79.480070044314601
31
0
0
LINE
5
181
100
AcDbEntity
8
0
100
AcDbLine
10
727.5268107216632
20
-105.36007004429038
30
0
11
735.7268107216629
21
-105.36007004429038
31
0
0
LINE
5
182
100
AcDbEntity
8
0
100
AcDbLine
10
727.52681072166274
20
-157.12007004424805
30
0
11
735.72681072166233
21
-157.12007004424805
31
0
0
LINE
5
183
100
AcDbEntity
8
0
100
AcDbLine
10
682.32681072166372
20
-61.800070044253808
30
0
11
682.32681072166361
21
-53.600070044255332
31
0
0
LINE
5
184
100
AcDbEntity
8
0
100
AcDbLine
10
727.52681072166524
20
-79.48007004431453
30
0
11
727.5268107216632
21
-105.36007004429038
31
0
0
LINE
5
185
100
AcDbEntity
8
0
100
AcDbLine
10
637.1268107216639
20
-61.800070044254198
30
0
11
682.32681072166372
21
-61.800070044253808
31
0
0
LINE
5
186
100
AcDbEntity
8
0
100
AcDbLine
10
735.72681072166233
20
-157.12007004424805
30
0
11
735.7268107216621
21
-183.0000700442271
31
0
0
LINE
5
187
100
AcDbEntity
8
0
100
AcDbLine
10
735.7268107216629
20
-105.36007004429038
30
0
11
735.72681072166256
21
-131.24007004426943
31
0
0
LINE
5
188
100
AcDbEntity
8
0
100
AcDbLine
10
735.72681072166529
20
-79.480070044314601
30
0
11
727.52681072166524
21
-79.48007004431453
31
0
0
LINE
5
189
100
AcDbEntity
8
0
100
AcDbLine
10
727.52681072166286
20
-131.240070044269
30
0
11
727.52681072166274
21
-157.12007004424805
31
0
0
LINE
5
190
100
AcDbEntity
8
0
100
AcDbLine
10
493.32681072166338
20
-183.00007004424771
30
0
11
493.32681072167031
21
-157.12007004426042
31
0
0
LINE
5
191
100
AcDbEntity
8
0
100
AcDbLine
10
637.12681072166333
20
-53.600070044255226
30
0
11
637.1268107216639
21
-61.800070044254198
31
0
0
LINE
5
192
100
AcDbEntity
8
0
100
AcDbLine
10
735.72681072166256
20
-131.24007004426943
30
0
11
727.52681072166286
21
-131.240070044269
31
0
0
LINE
5
193
100
AcDbEntity
8
0
100
AcDbLine
10
591.92681072166351
20
-61.800070044254625
30
0
11
591.92681072166329
21
-53.600070044255048
31
0
0
LINE
5
194
100
AcDbEntity
8
0
100
AcDbLine
10
493.32681072166338
20
-105.3600700442513
30
0
11
501.52681072166331
21
-105.36007004425102
31
0
0
LINE
5
195
100
AcDbEntity
8
0
100
AcDbLine
10
501.52681072166331
20
-79.480070044252813
30
0
11
493.32681072166338
21
-79.480070044252813
31
0
0
CIRCLE
5
196
100
AcDbEntity
8
0
100
AcDbCircle
10
557.67387077539888
20
104.31463631724375
30
0
40
20
210
0
220
0
230
1
0
LINE
5
197
100
AcDbEntity
8
0
100
AcDbLine
10
811.40722927225568
20
48.677253912536862
30
0
11
811.40722927225579
21
93.877253912536702
31
0
0
LINE
5
198
100
AcDbEntity
8
0
100
AcDbLine
10
906.72722927226937
20
3.4772539125418902
30
0
11
906.72722927226778
21
-4.7227460874581082
31
0
0
LINE
5
199
100
AcDbEntity
8
0
100
AcDbLine
10
906.72722927226778
20
-4.7227460874581082
30
0
11
880.8472292722671
21
-4.7227460874593898
31
0
0
LINE
5
200
100
AcDbEntity
8
0
100
AcDbLine
10
829.08722927226131
20
3.4772539125395374
30
0
11
803.20722927225574
21
3.4772539125383553
31
0
0
LINE
5
201
100
AcDbEntity
8
0
100
AcDbLine
10
803.20722927225574
20
93.877253912536929
30
0
11
803.20722927225631
21
139.0772539125382
31
0
0
LINE
5
202
100
AcDbEntity
8
0
100
AcDbLine
10
880.8472292722729
20
3.4772539125411184
30
0
11
854.96722927227313
21
3.4772539125403465
31
0
0
LWPOLYLINE
5
203
100
AcDbEntity
8
0
100
AcDbPolyline
90
4
70
1
43
0.0
10
904.40722927227728
20
48.675924758708284
10
912.60698814970522
20
48.613041117929129
10
912.60698814969464
20
93.81304111792906
10
904.40722927226943
20
93.875924758708237
0
LINE
5
204
100
AcDbEntity
8
0
100
AcDbLine
10
803.20722927225574
20
48.677253912537054
30
0
11
811.40722927225568
21
48.677253912536862
31
0
0
LINE
5
205
100
AcDbEntity
8
0
100
AcDbLine
10
932.60722927229062
20
229.47725391253738
30
0
11
932.60722927226936
21
3.4772539125426949
31
0
0
LINE
5
206
100
AcDbEntity
8
0
100
AcDbLine
10
803.20722927225574
20
3.4772539125383553
30
0
11
803.20722927225574
21
48.677253912537054
31
0
0
LINE
5
207
100
AcDbEntity
8
0
100
AcDbLine
10
880.8472292722671
20
-4.7227460874593898
30
0
11
880.8472292722729
21
3.4772539125411184
31
0
0
LINE
5
208
100
AcDbEntity
8
0
100
AcDbLine
10
854.96722927226961
20
-4.722746087457705
30
0
11
829.08722927226245
21
-4.7227460874560192
31
0
0
LINE
5
209
100
AcDbEntity
8
0
100
AcDbLine
10
803.20722927225711
20
184.2772539125373
30
0
11
803.2072292722612
21
229.47725391253721
31
0
0
LWPOLYLINE
5
210
100
AcDbEntity
8
0
100
AcDbPolyline
90
4
70
1
43
0.0
10
912.60698814967782
20
184.27725391253662
10
904.40722927224715
20
184.27725391253711
10
904.40722927225647
20
139.07725391253709
10
912.60698814967714
20
139.01437027175834
0
LINE
5
211
100
AcDbEntity
8
0
100
AcDbLine
10
803.2072292722612
20
229.47725391253721
30
0
11
829.08722927227643
21
229.47725391253721
31
0
0
LINE
5
212
100
AcDbEntity
8
0
100
AcDbLine
10
854.96722927228302
20
237.67725391253583
30
0
11
854.96722927228245
21
229.47725391253726
31
0
0
LINE
5
213
100
AcDbEntity
8
0
100
AcDbLine
10
906.72722927228733
20
237.67725391253299
30
0
11
906.72722927229063
21
229.47725391253732
31
0
0
LINE
5
214
100
AcDbEntity
8
0
100
AcDbLine
10
811.40722927225613
20
184.27725391253676
30
0
11
803.20722927225711
21
184.2772539125373
31
0
0
LINE
5
215
100
AcDbEntity
8
0
100
AcDbLine
10
829.08722927228052
20
237.67725391253722
30
0
11
854.96722927228302
21
237.67725391253583
31
0
0
LINE
5
216
100
AcDbEntity
8
0
100
AcDbLine
10
811.40722927225602
20
139.07725391253666
30
0
11
811.40722927225613
21
184.27725391253676
31
0
0
LINE
5
217
100
AcDbEntity
8
0
100
AcDbLine
10
906.72722927229063
20
229.47725391253732
30
0
11
932.60722927229062
21
229.47725391253738
31
0
0
LINE
5
218
100
AcDbEntity
8
0
100
AcDbLine
10
854.96722927228245
20
229.47725391253726
30
0
11
880.84722927228665
21
229.47725391253729
31
0
0
LINE
5
219
100
AcDbEntity
8
0
100
AcDbLine
10
829.08722927227643
20
229.47725391253721
30
0
11
829.08722927228052
21
237.67725391253722
31
0
0
LINE
5
220
100
AcDbEntity
8
0
100
AcDbLine
10
880.84722927228665
20
237.67725391253441
30
0
11
906.72722927228733
21
237.67725391253299
31
0
0
LINE
5
221
100
AcDbEntity
8
0
100
AcDbLine
10
932.60722927226936
20
3.4772539125426949
30
0
11
906.72722927226937
21
3.4772539125418902
31
0
0
LINE
5
222
100
AcDbEntity
8
0
100
AcDbLine
10
803.20722927225631
20
139.0772539125382
30
0
11
811.40722927225602
21
139.07725391253666
31
0
0
LINE
5
223
100
AcDbEntity
8
0
100
AcDbLine
10
880.84722927228665
20
229.47725391253729
30
0
11
880.84722927228665
21
237.67725391253441
31
0
0
LINE
5
224
100
AcDbEntity
8
0
100
AcDbLine
10
811.40722927225579
20
93.877253912536702
30
0
11
803.20722927225574
21
93.877253912536929
31
0
0
LINE
5
225
100
AcDbEntity
8
0
100
AcDbLine
10
854.96722927227313
20
3.4772539125403465
30
0
11
854.96722927226961
21
-4.722746087457705
31
0
0
LINE
5
226
100
AcDbEntity
8
0
100
AcDbLine
10
829.08722927226245
20
-4.7227460874560192
30
0
11
829.08722927226131
21
3.4772539125395374
31
0
0
LWPOLYLINE
5
227
100
AcDbEntity
8
0
100
AcDbPolyline
90
4
70
1
43
0.0
10
845.15589899489692
20
72.477253912536526
10
815.15589899489692
20
72.477253912536526
10
815.15589899489692
20
179.47725391253655
10
845.15589899489692
20
179.47725391253655
0
LWPOLYLINE
5
228
100
AcDbEntity
8
0
100
AcDbPolyline
90
4
70
1
43
0.0
10
900.15589899489692
20
172.47725391253726
10
875.15589899489692
20
172.47725391253726
10
875.15589899489692
20
85.477253912537279
10
900.15589899489692
20
85.477253912537279
0
LWPOLYLINE
5
229
100
AcDbEntity
8
0
100
AcDbPolyline
90
4
70
1
43
0.0
10
312.60639814014451
20
190.58264856436935
10
312.60639814015377
20
145.38264856436942
10
320.80615701756744
20
145.31976492359027
10
320.80615701755818
20
190.51976492359023
0
LWPOLYLINE
5
230
100
AcDbEntity
8
0
100
AcDbPolyline
90
4
70
1
43
0.0
10
320.80615701757665
20
100.11843576976173
10
312.60639814016315
20
100.18131941054048
10
312.60639814017236
20
54.918435769762191
10
320.80615701758586
20
54.918435769761729
0
LINE
5
231
100
AcDbEntity
8
0
100
AcDbLine
10
318.48615701759638
20
235.71843576975752
30
0
11
318.48615701759809
21
243.91843576975754
31
0
0
LINE
5
232
100
AcDbEntity
8
0
100
AcDbLine
10
413.8061570175779
20
190.51843576974483
30
0
11
413.80615701757677
21
145.31843576976075
31
0
0
LINE
5
233
100
AcDbEntity
8
0
100
AcDbLine
10
318.48615701759809
20
243.91843576975754
30
0
11
344.36615701764055
21
243.91843576975879
31
0
0
LINE
5
234
100
AcDbEntity
8
0
100
AcDbLine
10
370.24615701761832
20
243.91843576975708
30
0
11
396.12615701759836
21
243.91843576975538
31
0
0
LINE
5
235
100
AcDbEntity
8
0
100
AcDbLine
10
396.12615701759836
20
243.91843576975538
30
0
11
396.12615701759665
21
235.71843576975979
31
0
0
LINE
5
236
100
AcDbEntity
8
0
100
AcDbLine
10
370.24615701757409
20
1.5184357697629736
30
0
11
370.24615701757455
21
9.7184357697615553
31
0
0
LINE
5
237
100
AcDbEntity
8
0
100
AcDbLine
10
396.12615701765708
20
9.7184357694743184
30
0
11
396.12615701765708
21
1.5184357694742801
31
0
0
LINE
5
238
100
AcDbEntity
8
0
100
AcDbLine
10
422.00615701757783
20
190.51843576974477
30
0
11
413.8061570175779
21
190.51843576974483
31
0
0
LINE
5
239
100
AcDbEntity
8
0
100
AcDbLine
10
413.80615701757677
20
145.31843576976075
30
0
11
422.00615701757681
21
145.31843576976055
31
0
0
LINE
5
240
100
AcDbEntity
8
0
100
AcDbLine
10
396.12615701759665
20
235.71843576975979
30
0
11
422.00615701757681
21
235.71843576976065
31
0
0
LINE
5
241
100
AcDbEntity
8
0
100
AcDbLine
10
422.00615701757681
20
100.11843576976059
30
0
11
413.80615701757665
21
100.11843576976216
31
0
0
LINE
5
242
100
AcDbEntity
8
0
100
AcDbLine
10
318.48615701757478
20
1.5184357697657802
30
0
11
318.48615701757467
21
9.7184357697614843
31
0
0
LINE
5
243
100
AcDbEntity
8
0
100
AcDbLine
10
422.00615701757681
20
145.31843576976055
30
0
11
422.00615701757681
21
100.11843576976059
31
0
0
LINE
5
244
100
AcDbEntity
8
0
100
AcDbLine
10
422.00615701757681
20
235.71843576976065
30
0
11
422.00615701757783
21
190.51843576974477
31
0
0
LINE
5
245
100
AcDbEntity
8
0
100
AcDbLine
10
370.24615701761559
20
235.71843576975903
30
0
11
370.24615701761832
21
243.91843576975708
31
0
0
LINE
5
246
100
AcDbEntity
8
0
100
AcDbLine
10
344.36615701764055
20
243.91843576975879
30
0
11
344.3661570176356
21
235.71843576975823
31
0
0
LINE
5
247
100
AcDbEntity
8
0
100
AcDbLine
10
292.6061570175965
20
235.71843576975667
30
0
11
318.48615701759638
21
235.71843576975752
31
0
0
LINE
5
248
100
AcDbEntity
8
0
100
AcDbLine
10
344.3661570176356
20
235.71843576975823
30
0
11
370.24615701761559
21
235.71843576975903
31
0
0
LINE
5
249
100
AcDbEntity
8
0
100
AcDbLine
10
292.60615701757473
20
9.7184357697614487
30
0
11
292.6061570175965
21
235.71843576975667
31
0
0
LINE
5
250
100
AcDbEntity
8
0
100
AcDbLine
10
413.80615701757648
20
54.918435769762119
30
0
11
422.00615701757681
21
54.918435769761516
31
0
0
LINE
5
251
100
AcDbEntity
8
0
100
AcDbLine
10
370.24615701757455
20
9.7184357697615553
30
0
11
344.36615701757461
21
9.7184357697615198
31
0
0
LINE
5
252
100
AcDbEntity
8
0
100
AcDbLine
10
422.00615701757681
20
54.918435769761516
30
0
11
422.00615701757681
21
9.7184357697616264
31
0
0
LINE
5
253
100
AcDbEntity
8
0
100
AcDbLine
10
344.36615701757461
20
1.5184357697643591
30
0
11
318.48615701757478
21
1.5184357697657802
31
0
0
LINE
5
254
100
AcDbEntity
8
0
100
AcDbLine
10
413.80615701757665
20
100.11843576976216
30
0
11
413.80615701757648
21
54.918435769762119
31
0
0
LINE
5
255
100
AcDbEntity
8
0
100
AcDbLine
10
396.12615701765708
20
1.5184357694742801
30
0
11
370.24615701757409
21
1.5184357697629736
31
0
0
LINE
5
256
100
AcDbEntity
8
0
100
AcDbLine
10
422.00615701757681
20
9.7184357697616264
30
0
11
396.12615701765708
21
9.7184357694743184
31
0
0
LINE
5
257
100
AcDbEntity
8
0
100
AcDbLine
10
344.36615701757461
20
9.7184357697615198
30
0
11
344.36615701757461
21
1.5184357697643591
31
0
0
LINE
5
258
100
AcDbEntity
8
0
100
AcDbLine
10
318.48615701757467
20
9.7184357697614843
30
0
11
292.60615701757473
21
9.7184357697614487
31
0
0
LINE
5
259
100
AcDbEntity
8
0
100
AcDbLine
10
731.87387077539768
20
-400.28536368275627
30
0
11
723.67387077539797
21
-400.28536368275627
31
0
0
LINE
5
260
100
AcDbEntity
8
0
100
AcDbLine
10
588.07387077539784
20
-498.88536368275624
30
0
11
588.07387077539784
21
-490.68536368275625
31
0
0
LINE
5
261
100
AcDbEntity
8
0
100
AcDbLine
10
497.67387077539894
20
-445.48536368275614
30
0
11
497.67387077539877
21
-490.68536368275613
31
0
0
LINE
5
262
100
AcDbEntity
8
0
100
AcDbLine
10
542.87387077539893
20
-256.48536368275649
30
0
11
542.8738707753995
21
-264.68536368275636
31
0
0
LINE
5
263
100
AcDbEntity
8
0
100
AcDbLine
10
497.67387077539763
20
-309.88536368275169
30
0
11
489.47387077539764
21
-309.88536368275169
31
0
0
LINE
5
264
100
AcDbEntity
8
0
100
AcDbLine
10
588.07387077539886
20
-264.6853636827563
30
0
11
588.07387077539886
21
-256.48536368275649
31
0
0
LINE
5
265
100
AcDbEntity
8
0
100
AcDbLine
10
542.87387077539779
20
-498.88536368275624
30
0
11
588.07387077539784
21
-498.88536368275624
31
0
0
LINE
5
266
100
AcDbEntity
8
0
100
AcDbLine
10
497.6738707753978
20
-490.68536368275625
30
0
11
542.87387077539779
21
-490.68536368275625
31
0
0
LINE
5
267
100
AcDbEntity
8
0
100
AcDbLine
10
497.67387077539922
20
-355.08536368275628
30
0
11
497.67387077539911
21
-400.28536368275627
31
0
0
LINE
5
268
100
AcDbEntity
8
0
100
AcDbLine
10
542.8738707753995
20
-264.68536368275636
30
0
11
497.67387077539956
21
-264.68536368275642
31
0
0
LINE
5
269
100
AcDbEntity
8
0
100
AcDbLine
10
489.47387077539906
20
-400.28536368275627
30
0
11
489.47387077539918
21
-445.4853636827562
31
0
0
LINE
5
270
100
AcDbEntity
8
0
100
AcDbLine
10
497.67387077539911
20
-400.28536368275627
30
0
11
489.47387077539906
21
-400.28536368275627
31
0
0
LINE
5
271
100
AcDbEntity
8
0
100
AcDbLine
10
723.67387077539797
20
-400.28536368275627
30
0
11
723.67387077539797
21
-355.08536368275622
31
0
0
LINE
5
272
100
AcDbEntity
8
0
100
AcDbLine
10
489.47387077539918
20
-445.4853636827562
30
0
11
497.67387077539894
21
-445.48536368275614
31
0
0
LINE
5
273
100
AcDbEntity
8
0
100
AcDbLine
10
588.07387077539784
20
-490.68536368275625
30
0
11
633.27387077539788
21
-490.68536368275625
31
0
0
LINE
5
274
100
AcDbEntity
8
0
100
AcDbLine
10
489.47387077539923
20
-355.08536368275628
30
0
11
497.67387077539922
21
-355.08536368275628
31
0
0
LINE
5
275
100
AcDbEntity
8
0
100
AcDbLine
10
731.87387077539768
20
-355.08536368275622
30
0
11
731.87387077539768
21
-309.88536368275624
31
0
0
LINE
5
276
100
AcDbEntity
8
0
100
AcDbLine
10
497.67387077539956
20
-264.68536368275642
30
0
11
497.67387077539763
21
-309.88536368275169
31
0
0
LINE
5
277
100
AcDbEntity
8
0
100
AcDbLine
10
489.47387077539764
20
-309.88536368275169
30
0
11
489.47387077539923
21
-355.08536368275628
31
0
0
LINE
5
278
100
AcDbEntity
8
0
100
AcDbLine
10
731.87387077539768
20
-309.88536368275624
30
0
11
723.67387077539797
21
-309.88536368275629
31
0
0
LINE
5
279
100
AcDbEntity
8
0
100
AcDbLine
10
633.27387077539879
20
-264.6853636827563
30
0
11
588.07387077539886
21
-264.6853636827563
31
0
0
LINE
5
280
100
AcDbEntity
8
0
100
AcDbLine
10
588.07387077539886
20
-256.48536368275649
30
0
11
542.87387077539893
21
-256.48536368275649
31
0
0
LINE
5
281
100
AcDbEntity
8
0
100
AcDbLine
10
723.67387077539797
20
-309.88536368275629
30
0
11
723.67387077539797
21
-264.6853636827563
31
0
0
CIRCLE
5
282
100
AcDbEntity
8
0
100
AcDbCircle
10
557.67387077539911
20
-395.68536368275625
30
0
40
15
210
0
220
0
230
1
0
LINE
5
283
100
AcDbEntity
8
0
100
AcDbLine
10
723.67387077539797
20
-264.6853636827563
30
0
11
678.47387077538883
21
-264.6853636827301
31
0
0
LINE
5
284
100
AcDbEntity
8
0
100
AcDbLine
10
633.27387077539822
20
-256.48536368275649
30
0
11
633.27387077539879
21
-264.6853636827563
31
0
0
LINE
5
285
100
AcDbEntity
8
0
100
AcDbLine
10
678.47387077538883
20
-256.48536368273005
30
0
11
633.27387077539822
21
-256.48536368275649
31
0
0
LINE
5
286
100
AcDbEntity
8
0
100
AcDbLine
10
678.47387077538883
20
-264.6853636827301
30
0
11
678.47387077538883
21
-256.48536368273005
31
0
0
LINE
5
287
100
AcDbEntity
8
0
100
AcDbLine
10
542.87387077539779
20
-490.68536368275625
30
0
11
542.87387077539779
21
-498.88536368275624
31
0
0
LINE
5
288
100
AcDbEntity
8
0
100
AcDbLine
10
633.27387077539788
20
-490.68536368275625
30
0
11
633.27387077539788
21
-498.88536368275624
31
0
0
LINE
5
289
100
AcDbEntity
8
0
100
AcDbLine
10
731.87387077539802
20
-445.48536368275632
30
0
11
731.87387077539768
21
-400.28536368275627
31
0
0
LINE
5
290
100
AcDbEntity
8
0
100
AcDbLine
10
723.67387077539797
20
-355.08536368275622
30
0
11
731.87387077539768
21
-355.08536368275622
31
0
0
LINE
5
291
100
AcDbEntity
8
0
100
AcDbLine
10
678.47387077539793
20
-498.88536368275624
30
0
11
678.47387077539793
21
-490.68536368275625
31
0
0
LINE
5
292
100
AcDbEntity
8
0
100
AcDbLine
10
723.67387077539797
20
-445.48536368275632
30
0
11
731.87387077539802
21
-445.48536368275632
31
0
0
LINE
5
293
100
AcDbEntity
8
0
100
AcDbLine
10
723.67387077539786
20
-490.68536368275625
30
0
11
723.67387077539797
21
-445.48536368275632
31
0
0
LINE
5
294
100
AcDbEntity
8
0
100
AcDbLine
10
678.47387077539793
20
-490.68536368275625
30
0
11
723.67387077539786
21
-490.68536368275625
31
0
0
LINE
5
295
100
AcDbEntity
8
0
100
AcDbLine
10
633.27387077539788
20
-498.88536368275624
30
0
11
678.47387077539793
21
-498.88536368275624
31
0
0
LWPOLYLINE
5
296
100
AcDbEntity
8
0
100
AcDbPolyline
90
4
70
1
43
0.0
10
568.883957792111
20
334.74035314695743
10
544.883957792111
20
334.74035314695743
10
544.883957792111
20
320.74035314695743
10
568.883957792111
20
320.74035314695743
0
ENDSEC
0
SECTION
2
OBJECTS
0
DICTIONARY
5
C
100
AcDbDictionary
3
ACAD_GROUP
350
D
3
ACAD_MLINESTYLE
350
17
0
DICTIONARY
5
D
100
AcDbDictionary
0
DICTIONARY
5
1A
330
C
100
AcDbDictionary
0
DICTIONARY
5
17
100
AcDbDictionary
0
ENDSEC
0
EOF
