0
SECTION
2
HEADER
9
$INSUNITS
70
4
9
$ACADVER
1
AC1014
9
$HANDSEED
5
FFFF
0
ENDSEC
0
SECTION
2
TABLES
0
TABLE
2
VPORT
5
8
100
AcDbSymbolTable
0
ENDTAB
0
TABLE
2
LTYPE
5
5
100
AcDbSymbolTable
0
LTYPE
5
14
100
AcDbSymbolTableRecord
100
AcDbLinetypeTableRecord
2
BYBLOCK
70
0
0
LTYPE
5
15
100
AcDbSymbolTableRecord
100
AcDbLinetypeTableRecord
2
BYLAYER
70
0
0
ENDTAB
0
TABLE
2
LAYER
5
2
100
AcDbSymbolTable
70
2
0
LAYER
5
50
100
AcDbSymbolTableRecord
100
AcDbLayerTableRecord
2
0
70
0
6
CONTINUOUS
0
ENDTAB
0
TABLE
2
STYLE
5
3
100
AcDbSymbolTable
70
1
0
STYLE
5
11
100
AcDbSymbolTableRecord
100
AcDbTextStyleTableRecord
2
STANDARD
70
0
0
ENDTAB
0
TABLE
2
VIEW
5
6
100
AcDbSymbolTable
70
0
0
ENDTAB
0
TABLE
2
UCS
5
7
100
AcDbSymbolTable
70
0
0
ENDTAB
0
TABLE
2
APPID
5
9
100
AcDbSymbolTable
70
2
0
APPID
5
12
100
AcDbSymbolTableRecord
100
AcDbRegAppTableRecord
2
ACAD
70
0
0
ENDTAB
0
TABLE
2
DIMSTYLE
5
A
100
AcDbSymbolTable
70
1
0
ENDTAB
0
TABLE
2
BLOCK_RECORD
5
1
100
AcDbSymbolTable
70
1
0
BLOCK_RECORD
5
1F
100
AcDbSymbolTableRecord
100
AcDbBlockTableRecord
2
*MODEL_SPACE
0
BLOCK_RECORD
5
1B
100
AcDbSymbolTableRecord
100
AcDbBlockTableRecord
2
*PAPER_SPACE
0
ENDTAB
0
ENDSEC
0
SECTION
2
BLOCKS
0
BLOCK
5
20
100
AcDbEntity
100
AcDbBlockBegin
2
*MODEL_SPACE
0
ENDBLK
5
21
100
AcDbEntity
100
AcDbBlockEnd
0
BLOCK
5
1C
100
AcDbEntity
100
AcDbBlockBegin
2
*PAPER_SPACE
0
ENDBLK
5
1D
100
AcDbEntity
100
AcDbBlockEnd
0
ENDSEC
0
SECTION
2
ENTITIES
0
LWPOLYLINE
5
100
100
AcDbEntity
8
0
100
AcDbPolyline
90
20
70
1
43
0.0
10
723.7554820901629
20
281.13742332790883
10
717.75548209013346
20
281.13742332790662
10
717.75548209013346
20
327.5374233277808
10
723.75548209015847
20
327.53742332778086
10
723.75548209014664
20
373.93742332765498
10
717.75548209013573
20
373.93742332765623
10
717.75548209013368
20
420.33742332753081
10
723.75548209013243
20
420.33742332752917
10
723.75548209011401
20
466.73742332740323
10
497.75548209011504
20
466.73742332728875
10
497.75560327223593
20
420.3374233274468
10
503.75560352863192
20
420.33743899754876
10
503.75572471073929
20
373.93743899770698
10
497.7557244543633
20
373.93742332760473
10
497.75584563647192
20
327.53742332776289
10
503.75584589285216
20
327.53743899786525
10
503.75596707494503
20
281.13743899802353
10
497.75596707496567
20
281.13742332792179
10
497.75608755648318
20
234.73742332808007
10
723.75548209016313
20
234.73742332803471
0
LWPOLYLINE
5
101
100
AcDbEntity
8
0
100
AcDbPolyline
90
20
70
1
43
0.0
10
500.6324138527811
20
-211.73873554660366
10
494.63241385278138
20
-211.73873554660366
10
494.63241385278138
20
-258.1387355466037
10
720.6324138527815
20
-258.13873554660387
10
720.6324138527815
20
-211.73873554660386
10
714.6324138526744
20
-211.73873554660386
10
714.63241385270999
20
-165.3387355466038
10
720.6324138527815
20
-165.33873554660377
10
720.6324138527815
20
-118.93873554660381
10
714.63241385274569
20
-118.93873554660379
10
714.63241385278138
20
-72.538735546603789
10
720.6324138527815
20
-72.538735546608393
10
720.6324138527815
20
-26.13873554660838
10
494.63241385278116
20
-26.138735546603755
10
494.63241385278116
20
-72.53873554660376
10
500.63241385278099
20
-72.538735546603746
10
500.63241385278099
20
-118.93873554660374
10
494.63241385278138
20
-118.93873554660372
10
494.63241385278133
20
-165.33873554660371
10
500.6324138527811
20
-165.33873554660371
0
LWPOLYLINE
5
102
100
AcDbEntity
8
0
100
AcDbPolyline
90
20
70
1
43
0.0
10
935.79601211157456
20
4.8883629464511547
10
935.7959948326062
20
10.888362946488785
10
982.19599483241382
20
10.888496570536219
10
982.19537854910652
20
224.88849656957828
10
935.79537854829994
20
224.88849656957262
10
935.7953785483005
20
230.88849656955546
10
889.39537854830064
20
230.88849656955801
10
889.39537854829564
20
224.8884965695695
10
842.99537854829566
20
224.88849656956629
10
842.99537854829578
20
230.8884965695606
10
796.5953785482958
20
230.88849656956316
10
796.59537854829546
20
224.88849656956316
10
750.19537854829537
20
224.88849656955992
10
750.19599483337743
20
10.887828450330385
10
796.59599483318516
20
10.887962074352727
10
796.5960121121534
20
4.8879620744303311
10
842.99601211196102
20
4.888095698444781
10
842.99599483299221
20
10.888095698402458
10
889.39599483279972
20
10.88822932244663
10
889.39601211176807
20
4.8882293224548281
0
LWPOLYLINE
5
103
100
AcDbEntity
8
0
100
AcDbPolyline
90
20
70
1
43
0.0
10
287.40303698285709
20
222.79410274602947
10
287.37301064654042
20
216.79417787823925
10
240.97359166896291
20
217.02638154575257
10
239.90265234034575
20
3.0290612612349568
10
286.30207131792332
20
2.7968575937216937
10
286.27204498160665
20
-3.2030672740680806
10
332.67146395918428
20
-3.4352709415814902
10
332.70149029550049
20
2.5646539262084405
10
379.10090927307812
20
2.3324502586951761
10
379.07088293676139
20
-3.6674746090948922
10
425.47030191433913
20
-3.899678276608304
10
425.50032825065557
20
2.1002465911819166
10
471.89974722823331
20
1.8680429236686535
10
472.97068655685098
20
215.86536320818584
10
426.5712675792733
20
216.09756687569924
10
426.60129391558968
20
222.09749174348903
10
380.20187493801211
20
222.32969541100249
10
380.17184860169579
20
216.32977054321259
10
333.7724296241181
20
216.56197421072591
10
333.80245596043466
20
222.56189907851598
0
LINE
5
104
100
AcDbEntity
8
0
100
AcDbLine
10
260.97334122826362
20
216.92629375803133
30
0
11
259.90240189964646
21
2.9289734735137229
31
0
0
LINE
5
105
100
AcDbEntity
8
0
100
AcDbLine
10
963.65513354929863
20
224.88849656957458
30
0
11
963.65574983269642
21
10.888443177806867
31
0
0
LINE
5
106
100
AcDbEntity
8
0
100
AcDbLine
10
494.63241385278127
20
-238.1387355466037
30
0
11
720.63241385278138
21
-238.13873554660364
31
0
0
LINE
5
107
100
AcDbEntity
8
0
100
AcDbLine
10
497.75553432379701
20
446.73742332728858
30
0
11
723.75548209012197
21
446.73742332732263
31
0
0
LINE
5
108
100
AcDbEntity
8
0
100
AcDbLine
10
554.13241385278252
20
-26.138735546604963
30
0
11
554.13241385278138
21
-66.138735546604977
31
0
0
LINE
5
109
100
AcDbEntity
8
0
100
AcDbLine
10
554.13241385278138
20
-66.138735546604977
30
0
11
661.13241385278116
21
-66.138735546607194
31
0
0
LINE
5
110
100
AcDbEntity
8
0
100
AcDbLine
10
661.13241385278116
20
-66.138735546607194
30
0
11
661.13241385278229
21
-26.138735546607165
31
0
0
ENDSEC
0
SECTION
2
OBJECTS
0
DICTIONARY
5
C
100
AcDbDictionary
3
ACAD_GROUP
350
D
3
ACAD_MLINESTYLE
350
17
0
DICTIONARY
5
D
100
AcDbDictionary
0
DICTIONARY
5
1A
330
C
100
AcDbDictionary
0
DICTIONARY
5
17
100
AcDbDictionary
0
ENDSEC
0
EOF
