0
SECTION
2
HEADER
9
$INSUNITS
70
4
9
$ACADVER
1
AC1014
9
$HANDSEED
5
FFFF
0
ENDSEC
0
SECTION
2
TABLES
0
TABLE
2
VPORT
5
8
100
AcDbSymbolTable
0
ENDTAB
0
TABLE
2
LTYPE
5
5
100
AcDbSymbolTable
0
LTYPE
5
14
100
AcDbSymbolTableRecord
100
AcDbLinetypeTableRecord
2
BYBLOCK
70
0
0
LTYPE
5
15
100
AcDbSymbolTableRecord
100
AcDbLinetypeTableRecord
2
BYLAYER
70
0
0
ENDTAB
0
TABLE
2
LAYER
5
2
100
AcDbSymbolTable
70
2
0
LAYER
5
50
100
AcDbSymbolTableRecord
100
AcDbLayerTableRecord
2
0
70
0
6
CONTINUOUS
0
ENDTAB
0
TABLE
2
STYLE
5
3
100
AcDbSymbolTable
70
1
0
STYLE
5
11
100
AcDbSymbolTableRecord
100
AcDbTextStyleTableRecord
2
STANDARD
70
0
0
ENDTAB
0
TABLE
2
VIEW
5
6
100
AcDbSymbolTable
70
0
0
ENDTAB
0
TABLE
2
UCS
5
7
100
AcDbSymbolTable
70
0
0
ENDTAB
0
TABLE
2
APPID
5
9
100
AcDbSymbolTable
70
2
0
APPID
5
12
100
AcDbSymbolTableRecord
100
AcDbRegAppTableRecord
2
ACAD
70
0
0
ENDTAB
0
TABLE
2
DIMSTYLE
5
A
100
AcDbSymbolTable
70
1
0
ENDTAB
0
TABLE
2
BLOCK_RECORD
5
1
100
AcDbSymbolTable
70
1
0
BLOCK_RECORD
5
1F
100
AcDbSymbolTableRecord
100
AcDbBlockTableRecord
2
*MODEL_SPACE
0
BLOCK_RECORD
5
1B
100
AcDbSymbolTableRecord
100
AcDbBlockTableRecord
2
*PAPER_SPACE
0
ENDTAB
0
ENDSEC
0
SECTION
2
BLOCKS
0
BLOCK
5
20
100
AcDbEntity
100
AcDbBlockBegin
2
*MODEL_SPACE
0
ENDBLK
5
21
100
AcDbEntity
100
AcDbBlockEnd
0
BLOCK
5
1C
100
AcDbEntity
100
AcDbBlockBegin
2
*PAPER_SPACE
0
ENDBLK
5
1D
100
AcDbEntity
100
AcDbBlockEnd
0
ENDSEC
0
SECTION
2
ENTITIES
0
LINE
5
100
100
AcDbEntity
8
0
100
AcDbLine
10
195.64848433011571
20
-172.69261005962335
30
0
11
189.64848433011173
21
-172.69261005962221
31
0
0
LINE
5
101
100
AcDbEntity
8
0
100
AcDbLine
10
195.64848433011204
20
-210.19261005962332
30
0
11
195.64848433011571
21
-172.69261005962335
31
0
0
LINE
5
102
100
AcDbEntity
8
0
100
AcDbLine
10
189.64848433011068
20
-127.69261005961022
30
0
11
195.64848433011235
21
-127.69261005961337
31
0
0
LINE
5
103
100
AcDbEntity
8
0
100
AcDbLine
10
195.64848433011235
20
-127.69261005961337
30
0
11
195.64848433011363
21
-82.692610059609535
31
0
0
LINE
5
104
100
AcDbEntity
8
0
100
AcDbLine
10
-14.351515669881501
20
-0.19261005977664922
30
0
11
-14.351515669881502
21
-37.692610059776641
31
0
0
LINE
5
105
100
AcDbEntity
8
0
100
AcDbLine
10
158.14848433011821
20
-6.1926100592910434
30
0
11
113.14848433012628
21
-6.1926100592910434
31
0
0
LINE
5
106
100
AcDbEntity
8
0
100
AcDbLine
10
189.648484330108
20
-37.692610059607127
30
0
11
195.6484843301001
21
-37.692610059607269
31
0
0
LINE
5
107
100
AcDbEntity
8
0
100
AcDbLine
10
68.14848433012618
20
-0.19261005977663248
30
0
11
68.148484330126124
21
-6.1926100592900104
31
0
0
LINE
5
108
100
AcDbEntity
8
0
100
AcDbLine
10
113.14848433011818
20
-210.19261005962309
30
0
11
113.14848433011916
21
-204.19261005962059
31
0
0
LINE
5
109
100
AcDbEntity
8
0
100
AcDbLine
10
68.148484330118166
20
-210.19261005962196
30
0
11
113.14848433011818
21
-210.19261005962309
31
0
0
LINE
5
110
100
AcDbEntity
8
0
100
AcDbLine
10
23.148484330122937
20
-6.1926100592892919
30
0
11
23.148484330118812
21
-0.19261005977664922
31
0
0
LINE
5
111
100
AcDbEntity
8
0
100
AcDbLine
10
23.14848433011667
20
-210.1926100596217
30
0
11
23.148484330115391
21
-204.19261005962167
31
0
0
LINE
5
112
100
AcDbEntity
8
0
100
AcDbLine
10
68.148484330118592
20
-204.19261005962085
30
0
11
68.148484330118166
21
-210.19261005962196
31
0
0
LINE
5
113
100
AcDbEntity
8
0
100
AcDbLine
10
189.64848433011173
20
-172.69261005962221
30
0
11
189.64848433011068
21
-127.69261005961022
31
0
0
LINE
5
114
100
AcDbEntity
8
0
100
AcDbLine
10
195.64848433011991
20
-0.19261005960767708
30
0
11
158.14848433011815
21
-0.19261005929098818
31
0
0
LINE
5
115
100
AcDbEntity
8
0
100
AcDbLine
10
195.64848433011363
20
-82.692610059609535
30
0
11
189.64848433010678
21
-82.692610059607119
31
0
0
LINE
5
116
100
AcDbEntity
8
0
100
AcDbLine
10
113.14848433011916
20
-204.19261005962059
30
0
11
158.14848433011105
21
-204.19261005962088
31
0
0
LINE
5
117
100
AcDbEntity
8
0
100
AcDbLine
10
-14.351515669881412
20
-82.692610059771781
30
0
11
-14.351515669881572
21
-127.69261005976695
31
0
0
LINE
5
118
100
AcDbEntity
8
0
100
AcDbLine
10
189.64848433010678
20
-82.692610059607119
30
0
11
189.648484330108
21
-37.692610059607127
31
0
0
LINE
5
119
100
AcDbEntity
8
0
100
AcDbLine
10
158.14848433011096
20
-210.19261005962352
30
0
11
195.64848433011204
21
-210.19261005962332
31
0
0
LINE
5
120
100
AcDbEntity
8
0
100
AcDbLine
10
195.6484843301001
20
-37.692610059607269
30
0
11
195.64848433011991
21
-0.19261005960767708
31
0
0
LINE
5
121
100
AcDbEntity
8
0
100
AcDbLine
10
158.14848433011105
20
-204.19261005962088
30
0
11
158.14848433011096
21
-210.19261005962352
31
0
0
LINE
5
122
100
AcDbEntity
8
0
100
AcDbLine
10
158.14848433011815
20
-0.19261005929098818
30
0
11
158.14848433011821
21
-6.1926100592910434
31
0
0
LINE
5
123
100
AcDbEntity
8
0
100
AcDbLine
10
113.14848433012568
20
-0.19261005977663248
30
0
11
68.14848433012618
21
-0.19261005977663248
31
0
0
LINE
5
124
100
AcDbEntity
8
0
100
AcDbLine
10
68.148484330126124
20
-6.1926100592900104
30
0
11
23.148484330122937
21
-6.1926100592892919
31
0
0
LINE
5
125
100
AcDbEntity
8
0
100
AcDbLine
10
113.14848433012628
20
-6.1926100592910434
30
0
11
113.14848433012568
21
-0.19261005977663248
31
0
0
LINE
5
126
100
AcDbEntity
8
0
100
AcDbLine
10
23.148484330115391
20
-204.19261005962167
30
0
11
68.148484330118592
21
-204.19261005962085
31
0
0
LINE
5
127
100
AcDbEntity
8
0
100
AcDbLine
10
-14.351515669881572
20
-127.69261005976695
30
0
11
-8.3515156699553046
21
-127.69261005976711
31
0
0
LINE
5
128
100
AcDbEntity
8
0
100
AcDbLine
10
-8.3515156699184985
20
-82.692610059771781
30
0
11
-14.351515669881412
21
-82.692610059771781
31
0
0
LINE
5
129
100
AcDbEntity
8
0
100
AcDbLine
10
-14.351515669881502
20
-37.692610059776641
30
0
11
-8.3515156698816924
21
-37.692610059776648
31
0
0
LINE
5
130
100
AcDbEntity
8
0
100
AcDbLine
10
-14.351515669883334
20
-210.19261005962215
30
0
11
23.14848433011667
21
-210.1926100596217
31
0
0
LINE
5
131
100
AcDbEntity
8
0
100
AcDbLine
10
-8.3515156699554343
20
-172.69261005977143
30
0
11
-14.351515669882016
21
-172.69261005977194
31
0
0
LINE
5
132
100
AcDbEntity
8
0
100
AcDbLine
10
-14.351515669882016
20
-172.69261005977194
30
0
11
-14.351515669882197
21
-210.19261005977194
31
0
0
LINE
5
133
100
AcDbEntity
8
0
100
AcDbLine
10
23.148484330118812
20
-0.19261005977664922
30
0
11
-14.351515669881501
21
-0.19261005977664922
31
0
0
LINE
5
134
100
AcDbEntity
8
0
100
AcDbLine
10
-8.3515156698816924
20
-37.692610059776648
30
0
11
-8.3515156699184985
21
-82.692610059771781
31
0
0
LINE
5
135
100
AcDbEntity
8
0
100
AcDbLine
10
-8.3515156699553046
20
-127.69261005976711
30
0
11
-8.3515156699554343
21
-172.69261005977143
31
0
0
LINE
5
136
100
AcDbEntity
8
0
100
AcDbLine
10
297.64848433012185
20
-6.1926100596098212
30
0
11
263.64848433012185
21
-6.19261005960972
31
0
0
LINE
5
137
100
AcDbEntity
8
0
100
AcDbLine
10
263.64848433012185
20
-6.19261005960972
30
0
11
263.64848433012173
21
-0.19261005960970579
31
0
0
LINE
5
138
100
AcDbEntity
8
0
100
AcDbLine
10
297.64848433012185
20
-204.19261005960982
30
0
11
297.64848433012185
21
-6.1926100596098212
31
0
0
LINE
5
139
100
AcDbEntity
8
0
100
AcDbLine
10
229.6484843301219
20
-210.19261005960996
30
0
11
263.6484843301219
21
-210.19261005961027
31
0
0
LINE
5
140
100
AcDbEntity
8
0
100
AcDbLine
10
263.64848433012185
20
-204.19261005961033
30
0
11
297.64848433012185
21
-204.19261005960982
31
0
0
LINE
5
141
100
AcDbEntity
8
0
100
AcDbLine
10
263.6484843301219
20
-210.19261005961027
30
0
11
263.64848433012185
21
-204.19261005961033
31
0
0
LINE
5
142
100
AcDbEntity
8
0
100
AcDbLine
10
195.64848433012196
20
-204.19261005961059
30
0
11
229.64848433012193
21
-204.19261005961016
31
0
0
LINE
5
143
100
AcDbEntity
8
0
100
AcDbLine
10
263.64848433012173
20
-0.19261005960970579
30
0
11
229.64848433011952
21
-0.19261005960780742
31
0
0
LINE
5
144
100
AcDbEntity
8
0
100
AcDbLine
10
229.64848433011952
20
-6.1926100596096187
30
0
11
195.64848433011829
21
-6.1926100596095193
31
0
0
LINE
5
145
100
AcDbEntity
8
0
100
AcDbLine
10
195.64848433011829
20
-6.1926100596095193
30
0
11
195.64848433011991
21
-0.19261005960767708
31
0
0
LINE
5
146
100
AcDbEntity
8
0
100
AcDbLine
10
229.64848433011952
20
-0.19261005960780742
30
0
11
229.64848433011952
21
-6.1926100596096187
31
0
0
LINE
5
147
100
AcDbEntity
8
0
100
AcDbLine
10
229.64848433012193
20
-204.19261005961016
30
0
11
229.6484843301219
21
-210.19261005960996
31
0
0
LINE
5
148
100
AcDbEntity
8
0
100
AcDbLine
10
195.6484843301219
20
-210.1926100596105
30
0
11
195.64848433012196
21
-204.19261005961059
31
0
0
LINE
5
149
100
AcDbEntity
8
0
100
AcDbLine
10
189.64848433011068
20
-127.69261005961022
30
0
11
195.64848433011318
21
-127.69261005961829
31
0
0
LINE
5
150
100
AcDbEntity
8
0
100
AcDbLine
10
195.64848433011318
20
-127.69261005961829
30
0
11
195.64848433011571
21
-172.69261005962335
31
0
0
LINE
5
151
100
AcDbEntity
8
0
100
AcDbLine
10
195.64848433011571
20
-172.69261005962335
30
0
11
189.64848433011096
21
-172.69261005962318
31
0
0
LINE
5
152
100
AcDbEntity
8
0
100
AcDbLine
10
189.64848433011096
20
-172.69261005962318
30
0
11
189.64848433011068
21
-127.69261005961022
31
0
0
LINE
5
153
100
AcDbEntity
8
0
100
AcDbLine
10
189.648484330108
20
-37.692610059607127
30
0
11
195.64848433011343
21
-37.692610059607127
31
0
0
LINE
5
154
100
AcDbEntity
8
0
100
AcDbLine
10
195.64848433011343
20
-37.692610059607127
30
0
11
195.64848433011363
21
-82.692610059609535
31
0
0
LINE
5
155
100
AcDbEntity
8
0
100
AcDbLine
10
195.64848433011363
20
-82.692610059609535
30
0
11
189.64848433010943
21
-82.692610059609677
31
0
0
LINE
5
156
100
AcDbEntity
8
0
100
AcDbLine
10
189.64848433010943
20
-82.692610059609677
30
0
11
189.648484330108
21
-37.692610059607127
31
0
0
CIRCLE
5
157
100
AcDbEntity
8
0
100
AcDbCircle
10
0.38834494720871859
20
-190.78689292609906
30
0
40
1.4999999999999989
210
0
220
0
230
1
0
LWPOLYLINE
5
158
100
AcDbEntity
8
0
100
AcDbPolyline
90
4
70
1
43
0.0
10
91.353344947208726
20
-108.75689292609906
10
-4.8466550527912826
20
-108.75689292609906
10
-4.8466550527912844
20
-199.15689292609903
10
91.353344947208726
20
-199.15689292609903
0
LWPOLYLINE
5
159
100
AcDbEntity
8
0
100
AcDbPolyline
90
4
70
1
43
0.0
10
86.118344947208726
20
-190.78689292609906
10
0.38834494720871859
20
-190.78689292609906
10
0.38834494720871859
20
-117.12689292609906
10
86.118344947208726
20
-117.12689292609906
0
CIRCLE
5
160
100
AcDbEntity
8
0
100
AcDbCircle
10
86.118344947208726
20
-190.78689292609906
30
0
40
1.4999999999999989
210
0
220
0
230
1
0
CIRCLE
5
161
100
AcDbEntity
8
0
100
AcDbCircle
10
0.38834494720871859
20
-117.12689292609906
30
0
40
1.4999999999999989
210
0
220
0
230
1
0
CIRCLE
5
162
100
AcDbEntity
8
0
100
AcDbCircle
10
86.118344947208726
20
-117.12689292609906
30
0
40
1.4999999999999989
210
0
220
0
230
1
0
LWPOLYLINE
5
163
100
AcDbEntity
8
0
100
AcDbPolyline
90
4
70
1
43
0.0
10
164.34145210607866
20
-57.014510942662149
10
98.341452106078663
20
-57.014510942662149
10
98.341452106078663
20
-100.01451094266216
10
164.34145210607866
20
-100.01451094266216
0
LINE
5
164
100
AcDbEntity
8
0
100
AcDbLine
10
167.34145210607866
20
-78.514510942662156
30
0
11
95.341452106078663
21
-78.514510942662113
31
0
0
CIRCLE
5
165
100
AcDbEntity
8
0
100
AcDbCircle
10
95.341452106078663
20
-78.514510942662113
30
0
40
1.4999999999999882
210
0
220
0
230
1
0
CIRCLE
5
166
100
AcDbEntity
8
0
100
AcDbCircle
10
167.34145210607866
20
-78.514510942662156
30
0
40
1.5000000000000009
210
0
220
0
230
1
0
LWPOLYLINE
5
167
100
AcDbEntity
8
0
100
AcDbPolyline
90
4
70
1
43
0.0
10
78.011753712098198
20
-56.830648624023681
10
12.011753712098177
20
-56.830648624023681
10
12.011753712098177
20
-99.830648624023695
10
78.011753712098198
20
-99.830648624023695
0
LINE
5
168
100
AcDbEntity
8
0
100
AcDbLine
10
81.011753712098198
20
-78.330648624023695
30
0
11
9.0117537120981765
21
-78.330648624023681
31
0
0
CIRCLE
5
169
100
AcDbEntity
8
0
100
AcDbCircle
10
81.011753712098198
20
-78.330648624023695
30
0
40
1.5000000000000009
210
0
220
0
230
1
0
CIRCLE
5
170
100
AcDbEntity
8
0
100
AcDbCircle
10
9.0117537120981765
20
-78.330648624023681
30
0
40
1.4999999999999882
210
0
220
0
230
1
0
ENDSEC
0
SECTION
2
OBJECTS
0
DICTIONARY
5
C
100
AcDbDictionary
3
ACAD_GROUP
350
D
3
ACAD_MLINESTYLE
350
17
0
DICTIONARY
5
D
100
AcDbDictionary
0
DICTIONARY
5
1A
330
C
100
AcDbDictionary
0
DICTIONARY
5
17
100
AcDbDictionary
0
ENDSEC
0
EOF
