0
SECTION
2
HEADER
9
$INSUNITS
70
4
9
$ACADVER
1
AC1014
9
$HANDSEED
5
FFFF
0
ENDSEC
0
SECTION
2
TABLES
0
TABLE
2
VPORT
5
8
100
AcDbSymbolTable
0
ENDTAB
0
TABLE
2
LTYPE
5
5
100
AcDbSymbolTable
0
LTYPE
5
14
100
AcDbSymbolTableRecord
100
AcDbLinetypeTableRecord
2
BYBLOCK
70
0
0
LTYPE
5
15
100
AcDbSymbolTableRecord
100
AcDbLinetypeTableRecord
2
BYLAYER
70
0
0
ENDTAB
0
TABLE
2
LAYER
5
2
100
AcDbSymbolTable
70
2
0
LAYER
5
50
100
AcDbSymbolTableRecord
100
AcDbLayerTableRecord
2
0
70
0
6
CONTINUOUS
0
ENDTAB
0
TABLE
2
STYLE
5
3
100
AcDbSymbolTable
70
1
0
STYLE
5
11
100
AcDbSymbolTableRecord
100
AcDbTextStyleTableRecord
2
STANDARD
70
0
0
ENDTAB
0
TABLE
2
VIEW
5
6
100
AcDbSymbolTable
70
0
0
ENDTAB
0
TABLE
2
UCS
5
7
100
AcDbSymbolTable
70
0
0
ENDTAB
0
TABLE
2
APPID
5
9
100
AcDbSymbolTable
70
2
0
APPID
5
12
100
AcDbSymbolTableRecord
100
AcDbRegAppTableRecord
2
ACAD
70
0
0
ENDTAB
0
TABLE
2
DIMSTYLE
5
A
100
AcDbSymbolTable
70
1
0
ENDTAB
0
TABLE
2
BLOCK_RECORD
5
1
100
AcDbSymbolTable
70
1
0
BLOCK_RECORD
5
1F
100
AcDbSymbolTableRecord
100
AcDbBlockTableRecord
2
*MODEL_SPACE
0
BLOCK_RECORD
5
1B
100
AcDbSymbolTableRecord
100
AcDbBlockTableRecord
2
*PAPER_SPACE
0
ENDTAB
0
ENDSEC
0
SECTION
2
BLOCKS
0
BLOCK
5
20
100
AcDbEntity
100
AcDbBlockBegin
2
*MODEL_SPACE
0
ENDBLK
5
21
100
AcDbEntity
100
AcDbBlockEnd
0
BLOCK
5
1C
100
AcDbEntity
100
AcDbBlockBegin
2
*PAPER_SPACE
0
ENDBLK
5
1D
100
AcDbEntity
100
AcDbBlockEnd
0
ENDSEC
0
SECTION
2
ENTITIES
0
LINE
5
100
100
AcDbEntity
8
0
100
AcDbLine
10
274.42566425228074
20
115.49888286074477
30
-9.7314606551498454e-16
11
293.72392014269201
21
99.606201539199191
31
9.7314606551498651e-16
0
LINE
5
101
100
AcDbEntity
8
0
100
AcDbLine
10
173.5221760329253
20
177.71352021784139
30
-8.5922417154631567e-15
11
211.02217603312141
21
177.7135202177721
31
-8.5922417154546732e-15
0
LINE
5
102
100
AcDbEntity
8
0
100
AcDbLine
10
205.02217603311394
20
117.71352021776842
30
-1.2443609205701015e-15
11
205.02217603310694
21
97.713520217768419
31
1.2049326777246044e-15
0
LINE
5
103
100
AcDbEntity
8
0
100
AcDbLine
10
173.52217603292638
20
183.71352021784139
30
-9.3270297949515707e-15
11
173.5221760329253
21
177.71352021784139
31
-8.5922417154631567e-15
0
LINE
5
104
100
AcDbEntity
8
0
100
AcDbLine
10
289.90967662552112
20
94.974620125500522
30
1.5403512008426309e-15
11
293.72392014269201
21
99.606201539199191
31
9.7314606551498651e-16
0
LINE
5
105
100
AcDbEntity
8
0
100
AcDbLine
10
38.522176033107641
20
77.713520217695162
30
3.6542262760282827e-15
11
1.0221760331066043
21
77.713520217680454
31
3.6542262760300828e-15
0
LINE
5
106
100
AcDbEntity
8
0
100
AcDbLine
10
128.52217603311036
20
71.713520217588282
30
4.3890143555297831e-15
11
128.52217603310814
21
77.713520217730476
31
3.6542262760239581e-15
0
LINE
5
107
100
AcDbEntity
8
0
100
AcDbLine
10
38.522176033128616
20
183.71352021780018
30
-9.3270297949465236e-15
11
83.522176033130506
21
183.71352021778534
31
-9.327029794944706e-15
0
LINE
5
108
100
AcDbEntity
8
0
100
AcDbLine
10
211.02217603311604
20
117.71352021777147
30
-1.2443609205704762e-15
11
205.02217603311394
21
117.71352021776842
31
-1.2443609205701015e-15
0
LINE
5
109
100
AcDbEntity
8
0
100
AcDbLine
10
313.02217603310334
20
83.71352021765361
30
2.9194381965449595e-15
11
313.02217603309862
21
71.713520217653581
31
4.3890143555217864e-15
0
LINE
5
110
100
AcDbEntity
8
0
100
AcDbLine
10
173.52217603311036
20
71.713520217641502
30
4.3890143555232648e-15
11
128.52217603311036
21
71.713520217588282
31
4.3890143555297831e-15
0
LINE
5
111
100
AcDbEntity
8
0
100
AcDbLine
10
309.20793251593238
20
79.081938803954941
30
3.4866433318726039e-15
11
289.90967662552112
21
94.974620125500522
31
1.5403512008426309e-15
0
LINE
5
112
100
AcDbEntity
8
0
100
AcDbLine
10
245.02217603310379
20
77.713520217711434
30
3.6542262760262908e-15
11
245.02217603309717
21
71.713520217711348
31
4.3890143555147119e-15
0
LINE
5
113
100
AcDbEntity
8
0
100
AcDbLine
10
274.42566425228074
20
115.49888286074477
30
-9.7314606551498454e-16
11
270.61142073510956
21
110.86730144704589
31
-4.059409301873145e-16
0
LINE
5
114
100
AcDbEntity
8
0
100
AcDbLine
10
128.52217603312411
20
177.71352021778091
30
-8.5922417154557524e-15
11
128.52217603312465
21
183.71352021778435
31
-9.327029794944583e-15
0
LINE
5
115
100
AcDbEntity
8
0
100
AcDbLine
10
205.02217603310694
20
97.713520217768419
30
1.2049326777246044e-15
11
211.02217603317746
21
97.713520217779717
31
1.2049326777232219e-15
0
LINE
5
116
100
AcDbEntity
8
0
100
AcDbLine
10
205.02217603310694
20
97.713520217768419
30
1.2049326777246044e-15
11
211.02217603311431
21
97.713520217762522
31
1.2049326777253262e-15
0
LINE
5
117
100
AcDbEntity
8
0
100
AcDbLine
10
313.02217603309862
20
71.713520217653581
30
4.3890143555217864e-15
11
279.02217603309862
21
71.713520217682429
31
4.3890143555182539e-15
0
LINE
5
118
100
AcDbEntity
8
0
100
AcDbLine
10
245.02217603309717
20
71.713520217711348
30
4.3890143555147119e-15
11
211.02217603309728
21
71.713520217740196
31
4.3890143555111794e-15
0
LINE
5
119
100
AcDbEntity
8
0
100
AcDbLine
10
313.02217603310334
20
83.71352021765361
30
2.9194381965449595e-15
11
309.20793251593238
21
79.081938803954941
31
3.4866433318726039e-15
0
LINE
5
120
100
AcDbEntity
8
0
100
AcDbLine
10
211.02217603310328
20
77.713520217762522
30
3.6542262760200327e-15
11
173.52217603310328
21
77.713520217747956
31
3.6542262760218179e-15
0
LINE
5
121
100
AcDbEntity
8
0
100
AcDbLine
10
279.02217603310373
20
77.713520217677754
30
3.6542262760304142e-15
11
245.02217603310379
21
77.713520217711434
31
3.6542262760262908e-15
0
LINE
5
122
100
AcDbEntity
8
0
100
AcDbLine
10
205.02217603311749
20
117.71352021778114
30
-1.2443609205716595e-15
11
205.02217603310694
21
97.713520217768419
31
1.2049326777246044e-15
0
LINE
5
123
100
AcDbEntity
8
0
100
AcDbLine
10
38.52217603311
20
71.713520217695148
30
4.3890143555166959e-15
11
38.522176033107641
21
77.713520217695162
31
3.6542262760282827e-15
0
LINE
5
124
100
AcDbEntity
8
0
100
AcDbLine
10
270.61142073510956
20
110.86730144704589
30
-4.059409301873145e-16
11
251.31316484469829
21
126.75998276859154
31
-2.3522330612172954e-15
0
LINE
5
125
100
AcDbEntity
8
0
100
AcDbLine
10
83.52217603312485
20
177.71352021778597
30
-8.5922417154563693e-15
11
128.52217603312411
21
177.71352021778091
31
-8.5922417154557524e-15
0
LINE
5
126
100
AcDbEntity
8
0
100
AcDbLine
10
83.522176033110014
20
71.713520217677242
30
4.3890143555188889e-15
11
38.52217603311
21
71.713520217695148
31
4.3890143555166959e-15
0
LINE
5
127
100
AcDbEntity
8
0
100
AcDbLine
10
128.52217603312465
20
183.71352021778435
30
-9.327029794944583e-15
11
173.52217603292638
21
183.71352021784139
31
-9.3270297949515707e-15
0
LINE
5
128
100
AcDbEntity
8
0
100
AcDbLine
10
211.02217603311604
20
117.71352021777147
30
-1.2443609205704762e-15
11
205.02217603311749
21
117.71352021778114
31
-1.2443609205716595e-15
0
LINE
5
129
100
AcDbEntity
8
0
100
AcDbLine
10
211.02217603309728
20
71.713520217740196
30
4.3890143555111794e-15
11
211.02217603310328
21
77.713520217762522
31
3.6542262760200327e-15
0
LINE
5
130
100
AcDbEntity
8
0
100
AcDbLine
10
279.02217603309862
20
71.713520217682429
30
4.3890143555182539e-15
11
279.02217603310373
21
77.713520217677754
31
3.6542262760304142e-15
0
LINE
5
131
100
AcDbEntity
8
0
100
AcDbLine
10
83.522176033108124
20
77.713520217712997
30
3.6542262760260975e-15
11
83.522176033110014
21
71.713520217677242
31
4.3890143555188889e-15
0
LINE
5
132
100
AcDbEntity
8
0
100
AcDbLine
10
211.02217603317746
20
97.713520217779717
30
1.2049326777232219e-15
11
211.02217603311604
21
117.71352021777147
31
-1.2443609205704762e-15
0
LINE
5
133
100
AcDbEntity
8
0
100
AcDbLine
10
211.02217603312141
20
177.7135202177721
30
-8.5922417154546732e-15
11
211.0221760331662
21
167.71352021776252
31
-7.3675949163061464e-15
0
LINE
5
134
100
AcDbEntity
8
0
100
AcDbLine
10
211.02217432656403
20
137.71352021777113
30
-3.6936545188651387e-15
11
211.02217603311988
21
157.7135202177721
31
-6.1429481171599671e-15
0
LINE
5
135
100
AcDbEntity
8
0
100
AcDbLine
10
1.0221760330899932
20
117.71352021767719
30
-1.2443609205589293e-15
11
1.0221760330663343
21
137.71352021767717
31
-3.6936545188536348e-15
0
LINE
5
136
100
AcDbEntity
8
0
100
AcDbLine
10
251.31316484469829
20
126.75998276859154
30
-2.3522330612172954e-15
11
255.1274083618693
21
131.39156418229044
31
-2.9194381965449662e-15
0
LINE
5
137
100
AcDbEntity
8
0
100
AcDbLine
10
232.01490895428722
20
142.65266409013714
30
-4.2985251922472676e-15
11
211.02217603316075
21
159.9407970840366
31
-6.4157108656685424e-15
0
LINE
5
138
100
AcDbEntity
8
0
100
AcDbLine
10
205.02217603313005
20
157.71352065851133
30
-6.1429481711349536e-15
11
205.02217603311689
21
137.7135202177721
31
-3.693654518865261e-15
0
LINE
5
139
100
AcDbEntity
8
0
100
AcDbLine
10
211.02217603311988
20
157.7135202177721
30
-6.1429481171599671e-15
11
205.02217603311988
21
157.71352021777261
31
-6.1429481171600279e-15
0
LINE
5
140
100
AcDbEntity
8
0
100
AcDbLine
10
7.0221760328541949
20
97.713520217685925
30
1.2049326777347078e-15
11
7.0221760331041017
21
117.71352021767953
31
-1.2443609205592162e-15
0
LINE
5
141
100
AcDbEntity
8
0
100
AcDbLine
10
1.0221760328541896
20
97.71352021768358
30
1.2049326777349937e-15
11
7.0221760328541949
21
97.713520217685925
31
1.2049326777347078e-15
0
LINE
5
142
100
AcDbEntity
8
0
100
AcDbLine
10
205.02217603311689
20
137.7135202177721
30
-3.693654518865261e-15
11
211.02217432656403
21
137.71352021777113
31
-3.6936545188651387e-15
0
LINE
5
143
100
AcDbEntity
8
0
100
AcDbLine
10
7.0221760331041017
20
117.71352021767953
30
-1.2443609205592162e-15
11
1.0221760330899932
21
117.71352021767719
31
-1.2443609205589293e-15
0
LINE
5
144
100
AcDbEntity
8
0
100
AcDbLine
10
205.02217603311689
20
137.7135202177721
30
-3.693654518865261e-15
11
211.02217603311831
21
137.71352021777147
31
-3.6936545188651821e-15
0
LINE
5
145
100
AcDbEntity
8
0
100
AcDbLine
10
1.0221760330663343
20
137.71352021767717
30
-3.6936545188536348e-15
11
7.0221760331089866
21
137.71352021768428
31
-3.6936545188545049e-15
0
LINE
5
146
100
AcDbEntity
8
0
100
AcDbLine
10
1.0221760331066043
20
77.713520217680454
30
3.6542262760300828e-15
11
1.0221760328541896
21
97.71352021768358
31
1.2049326777349937e-15
0
LINE
5
147
100
AcDbEntity
8
0
100
AcDbLine
10
211.02217603310328
20
77.713520217762522
30
3.6542262760200327e-15
11
211.0221760331662
21
167.71352021776252
31
-7.3675949163061464e-15
0
LINE
5
148
100
AcDbEntity
8
0
100
AcDbLine
10
211.02217603311988
20
157.7135202177721
30
-6.1429481171599671e-15
11
205.02217603313005
21
157.71352065851133
31
-6.1429481711349536e-15
0
LINE
5
149
100
AcDbEntity
8
0
100
AcDbLine
10
313.02217603310334
20
83.71352021765361
30
2.9194381965449595e-15
11
211.0221760331662
21
167.71352021776252
31
-7.3675949163061464e-15
0
LINE
5
150
100
AcDbEntity
8
0
100
AcDbLine
10
205.02217603311988
20
157.71352021777261
30
-6.1429481171600279e-15
11
205.02217603311689
21
137.7135202177721
31
-3.693654518865261e-15
0
LINE
5
151
100
AcDbEntity
8
0
100
AcDbLine
10
128.52217603310814
20
77.713520217730476
30
3.6542262760239581e-15
11
83.522176033108124
21
77.713520217712997
31
3.6542262760260975e-15
0
LINE
5
152
100
AcDbEntity
8
0
100
AcDbLine
10
173.52217603310328
20
77.713520217747956
30
3.6542262760218179e-15
11
173.52217603311036
21
71.713520217641502
31
4.3890143555232648e-15
0
LINE
5
153
100
AcDbEntity
8
0
100
AcDbLine
10
235.82915247145797
20
147.28424550383608
30
-4.8657303275749471e-15
11
255.1274083618693
21
131.39156418229044
31
-2.9194381965449662e-15
0
LINE
5
154
100
AcDbEntity
8
0
100
AcDbLine
10
7.0221760331089866
20
137.71352021768428
30
-3.6936545188545049e-15
11
7.0221760331011263
21
157.71352021767868
31
-6.1429481171485247e-15
0
LINE
5
155
100
AcDbEntity
8
0
100
AcDbLine
10
1.0221760330433016
20
157.71352021767535
30
-6.1429481171481153e-15
11
1.0221760330199403
21
177.71352021767584
31
-8.5922417154428829e-15
0
LINE
5
156
100
AcDbEntity
8
0
100
AcDbLine
10
83.522176033130506
20
183.71352021778534
30
-9.327029794944706e-15
11
83.52217603312485
21
177.71352021778597
31
-8.5922417154563693e-15
0
LINE
5
157
100
AcDbEntity
8
0
100
AcDbLine
10
1.0221760331262797
20
177.7135202177945
30
-8.5922417154574138e-15
11
38.522176033126279
21
177.71352021779052
31
-8.5922417154569262e-15
0
LINE
5
158
100
AcDbEntity
8
0
100
AcDbLine
10
211.02217603316075
20
159.9407970840366
30
-6.4157108656685424e-15
11
211.0221760331662
21
167.71352021776252
31
-7.3675949163061464e-15
0
LINE
5
159
100
AcDbEntity
8
0
100
AcDbLine
10
7.0221760331011263
20
157.71352021767868
30
-6.1429481171485247e-15
11
1.0221760330433016
21
157.71352021767535
31
-6.1429481171481153e-15
0
LINE
5
160
100
AcDbEntity
8
0
100
AcDbLine
10
38.522176033126279
20
177.71352021779052
30
-8.5922417154569262e-15
11
38.522176033128616
21
183.71352021780018
31
-9.3270297949465236e-15
0
LINE
5
161
100
AcDbEntity
8
0
100
AcDbLine
10
235.82915247145797
20
147.28424550383608
30
-4.8657303275749471e-15
11
232.01490895428722
21
142.65266409013714
31
-4.2985251922472676e-15
0
CIRCLE
5
162
100
AcDbEntity
8
0
100
AcDbCircle
10
44.5423747664762
20
135.28819451560543
30
0
40
14.500000000000002
210
0
220
0
230
1
0
CIRCLE
5
163
100
AcDbEntity
8
0
100
AcDbCircle
10
143.9750636064434
20
149.14552873442719
30
0
40
2
210
0
220
0
230
1
0
CIRCLE
5
164
100
AcDbEntity
8
0
100
AcDbCircle
10
185.10968592650789
20
121.43086029678389
30
0
40
2
210
0
220
0
230
1
0
CIRCLE
5
165
100
AcDbEntity
8
0
100
AcDbCircle
10
104.54237476647597
20
135.28819451560545
30
0
40
14.500000000000002
210
0
220
0
230
1
0
CIRCLE
5
166
100
AcDbEntity
8
0
100
AcDbCircle
10
164.5423747664758
20
135.28819451560548
30
0
40
14.500000000000002
210
0
220
0
230
1
0
CIRCLE
5
167
100
AcDbEntity
8
0
100
AcDbCircle
10
23.975063606443911
20
149.14552873442719
30
0
40
2
210
0
220
0
230
1
0
CIRCLE
5
168
100
AcDbEntity
8
0
100
AcDbCircle
10
125.10968592650801
20
121.43086029678398
30
0
40
2
210
0
220
0
230
1
0
CIRCLE
5
169
100
AcDbEntity
8
0
100
AcDbCircle
10
65.109685926507993
20
121.43086029678398
30
0
40
2
210
0
220
0
230
1
0
CIRCLE
5
170
100
AcDbEntity
8
0
100
AcDbCircle
10
83.975063606443641
20
149.14552873442719
30
0
40
2
210
0
220
0
230
1
0
LINE
5
171
100
AcDbEntity
8
0
100
AcDbLine
10
23.975063606443911
20
149.14552873442719
30
0
11
44.5423747664762
21
135.28819451560543
31
0
0
LINE
5
172
100
AcDbEntity
8
0
100
AcDbLine
10
23.975063606443911
20
149.14552873442719
30
0
11
65.109685926507993
21
121.43086029678398
31
0
0
ENDSEC
0
SECTION
2
OBJECTS
0
DICTIONARY
5
C
100
AcDbDictionary
3
ACAD_GROUP
350
D
3
ACAD_MLINESTYLE
350
17
0
DICTIONARY
5
D
100
AcDbDictionary
0
DICTIONARY
5
1A
330
C
100
AcDbDictionary
0
DICTIONARY
5
17
100
AcDbDictionary
0
ENDSEC
0
EOF
