0
SECTION
2
HEADER
9
$INSUNITS
70
4
9
$ACADVER
1
AC1014
9
$HANDSEED
5
FFFF
0
ENDSEC
0
SECTION
2
TABLES
0
TABLE
2
VPORT
5
8
100
AcDbSymbolTable
0
ENDTAB
0
TABLE
2
LTYPE
5
5
100
AcDbSymbolTable
0
LTYPE
5
14
100
AcDbSymbolTableRecord
100
AcDbLinetypeTableRecord
2
BYBLOCK
70
0
0
LTYPE
5
15
100
AcDbSymbolTableRecord
100
AcDbLinetypeTableRecord
2
BYLAYER
70
0
0
ENDTAB
0
TABLE
2
LAYER
5
2
100
AcDbSymbolTable
70
2
0
LAYER
5
50
100
AcDbSymbolTableRecord
100
AcDbLayerTableRecord
2
0
70
0
6
CONTINUOUS
0
ENDTAB
0
TABLE
2
STYLE
5
3
100
AcDbSymbolTable
70
1
0
STYLE
5
11
100
AcDbSymbolTableRecord
100
AcDbTextStyleTableRecord
2
STANDARD
70
0
0
ENDTAB
0
TABLE
2
VIEW
5
6
100
AcDbSymbolTable
70
0
0
ENDTAB
0
TABLE
2
UCS
5
7
100
AcDbSymbolTable
70
0
0
ENDTAB
0
TABLE
2
APPID
5
9
100
AcDbSymbolTable
70
2
0
APPID
5
12
100
AcDbSymbolTableRecord
100
AcDbRegAppTableRecord
2
ACAD
70
0
0
ENDTAB
0
TABLE
2
DIMSTYLE
5
A
100
AcDbSymbolTable
70
1
0
ENDTAB
0
TABLE
2
BLOCK_RECORD
5
1
100
AcDbSymbolTable
70
1
0
BLOCK_RECORD
5
1F
100
AcDbSymbolTableRecord
100
AcDbBlockTableRecord
2
*MODEL_SPACE
0
BLOCK_RECORD
5
1B
100
AcDbSymbolTableRecord
100
AcDbBlockTableRecord
2
*PAPER_SPACE
0
ENDTAB
0
ENDSEC
0
SECTION
2
BLOCKS
0
BLOCK
5
20
100
AcDbEntity
100
AcDbBlockBegin
2
*MODEL_SPACE
0
ENDBLK
5
21
100
AcDbEntity
100
AcDbBlockEnd
0
BLOCK
5
1C
100
AcDbEntity
100
AcDbBlockBegin
2
*PAPER_SPACE
0
ENDBLK
5
1D
100
AcDbEntity
100
AcDbBlockEnd
0
ENDSEC
0
SECTION
2
ENTITIES
0
LWPOLYLINE
5
100
100
AcDbEntity
8
0
100
AcDbPolyline
90
36
70
1
43
0.0
10
-545
20
-215
10
-507.5
20
-215
10
-507.5
20
-209.00000000000003
10
-462.5
20
-209.00000000000003
10
-462.5
20
-215
10
-417.5
20
-215
10
-417.5
20
-209.00000000000003
10
-372.5
20
-209.00000000000003
10
-372.5
20
-215
10
-335
20
-215
10
-335
20
-177.5
10
-341
20
-177.5
10
-341
20
-132.5
10
-335
20
-132.5
10
-335
20
-87.5
10
-341
20
-87.5
10
-341
20
-42.5
10
-335
20
-42.5
10
-335
20
-5
10
-372.5
20
-5
10
-372.5
20
-11.000000000000014
10
-417.5
20
-11.000000000000014
10
-417.5
20
-5
10
-462.5
20
-5
10
-462.5
20
-11.000000000000014
10
-507.5
20
-11.000000000000014
10
-507.5
20
-5
10
-545
20
-5
10
-545
20
-42.5
10
-539
20
-42.5
10
-539
20
-87.5
10
-545
20
-87.5
10
-545
20
-132.5
10
-539
20
-132.5
10
-539
20
-177.5
10
-545
20
-177.5
0
CIRCLE
5
101
100
AcDbEntity
8
0
100
AcDbCircle
10
-449.02809875900004
20
-43.500000000000014
30
0
40
2.5
210
0
220
0
230
1
0
CIRCLE
5
102
100
AcDbEntity
8
0
100
AcDbCircle
10
-464.02809875900004
20
-43.500000000000014
30
0
40
2.5
210
0
220
0
230
1
0
LWPOLYLINE
5
103
100
AcDbEntity
8
0
100
AcDbPolyline
90
4
70
1
43
0.0
10
-525
20
-155
10
-525
20
-100
10
-508
20
-100
10
-508
20
-155
0
CIRCLE
5
104
100
AcDbEntity
8
0
100
AcDbCircle
10
-464.02809875900004
20
-176.50000000000003
30
0
40
2.5
210
0
220
0
230
1
0
CIRCLE
5
105
100
AcDbEntity
8
0
100
AcDbCircle
10
-516.5
20
-178.5
30
0
40
2.5
210
0
220
0
230
1
0
CIRCLE
5
106
100
AcDbEntity
8
0
100
AcDbCircle
10
-516.5
20
-163.5
30
0
40
2.5
210
0
220
0
230
1
0
CIRCLE
5
107
100
AcDbEntity
8
0
100
AcDbCircle
10
-449.02809875900004
20
-176.50000000000003
30
0
40
2.5
210
0
220
0
230
1
0
CIRCLE
5
108
100
AcDbEntity
8
0
100
AcDbCircle
10
-455.55634918599998
20
-125.55634918599999
30
0
40
2
210
0
220
0
230
1
0
LWPOLYLINE
5
109
100
AcDbEntity
8
0
100
AcDbPolyline
90
4
70
1
43
0.0
10
-385.52809875899993
20
-52.000000000000028
10
-385.52809875899993
20
-35
10
-440.52809875900004
20
-35
10
-440.52809875900004
20
-52.000000000000028
0
CIRCLE
5
110
100
AcDbEntity
8
0
100
AcDbCircle
10
-455.55634918599998
20
-94.443650813900007
30
0
40
2
210
0
220
0
230
1
0
CIRCLE
5
111
100
AcDbEntity
8
0
100
AcDbCircle
10
-424.44365081400008
20
-94.443650813900007
30
0
40
2
210
0
220
0
230
1
0
LWPOLYLINE
5
112
100
AcDbEntity
8
0
100
AcDbPolyline
90
4
70
1
43
0.0
10
-385.52809875899993
20
-185
10
-385.52809875899993
20
-168
10
-440.52809875900004
20
-168
10
-440.52809875900004
20
-185
0
CIRCLE
5
113
100
AcDbEntity
8
0
100
AcDbCircle
10
-424.44365081400008
20
-125.55634918599999
30
0
40
2
210
0
220
0
230
1
0
CIRCLE
5
114
100
AcDbEntity
8
0
100
AcDbCircle
10
-351
20
-155
30
0
40
2
210
0
220
0
230
1
0
CIRCLE
5
115
100
AcDbEntity
8
0
100
AcDbCircle
10
-351
20
-65
30
0
40
2
210
0
220
0
230
1
0
CIRCLE
5
116
100
AcDbEntity
8
0
100
AcDbCircle
10
-440
20
-110
30
0
40
6.0000000000000009
210
0
220
0
230
1
0
ENDSEC
0
SECTION
2
OBJECTS
0
DICTIONARY
5
C
100
AcDbDictionary
3
ACAD_GROUP
350
D
3
ACAD_MLINESTYLE
350
17
0
DICTIONARY
5
D
100
AcDbDictionary
0
DICTIONARY
5
1A
330
C
100
AcDbDictionary
0
DICTIONARY
5
17
100
AcDbDictionary
0
ENDSEC
0
EOF
