  0
SECTION
  2
HEADER
  9
$ACADVER
  1
AC1014
  9
$HANDSEED
  5
FFFF
  9
$MEASUREMENT
 70
     1
  0
ENDSEC
  0
SECTION
  2
TABLES
  0
TABLE
  2
VPORT
  5
8
330
0
100
AcDbSymbolTable
 70
     4
  0
VPORT
  5
2E
330
8
100
AcDbSymbolTableRecord
100
AcDbViewportTableRecord
  2
*ACTIVE
 70
     0
 10
0.0
 20
0.0
 11
1.0
 21
1.0
 12
210.0
 22
148.5
 13
0.0
 23
0.0
 14
10.0
 24
10.0
 15
10.0
 25
10.0
 16
0.0
 26
0.0
 36
1.0
 17
0.0
 27
0.0
 37
0.0
 40
341.0
 41
1.24
 42
50.0
 43
0.0
 44
0.0
 50
0.0
 51
0.0
 71
     0
 72
   100
 73
     1
 74
     3
 75
     0
 76
     0
 77
     0
 78
     0
  0
ENDTAB
  0
TABLE
  2
LTYPE
  5
5
330
0
100
AcDbSymbolTable
 70
     1
  0
LTYPE
  5
14
330
5
100
AcDbSymbolTableRecord
100
AcDbLinetypeTableRecord
  2
BYBLOCK
 70
     0
  3

 72
    65
 73
     0
 40
0.0
  0
LTYPE
  5
15
330
5
100
AcDbSymbolTableRecord
100
AcDbLinetypeTableRecord
  2
BYLAYER
 70
     0
  3

 72
    65
 73
     0
 40
0.0
  0
LTYPE
  5
16
330
5
100
AcDbSymbolTableRecord
100
AcDbLinetypeTableRecord
  2
CONTINUOUS
 70
     0
  3
Solid line
 72
    65
 73
     0
 40
0.0
  0
ENDTAB
  0
TABLE
  2
LAYER
  5
2
100
AcDbSymbolTable
 70
1
  0
LAYER
  5
50
100
AcDbSymbolTableRecord
100
AcDbLayerTableRecord
  2
0
 70
0
  6
CONTINUOUS
  0
ENDTAB
  0
TABLE
  2
STYLE
  5
3
330
0
100
AcDbSymbolTable
 70
     1
  0
STYLE
  5
11
330
3
100
AcDbSymbolTableRecord
100
AcDbTextStyleTableRecord
  2
STANDARD
 70
     0
 40
0.0
 41
1.0
 50
0.0
 71
     0
 42
2.5
  3
txt
  4

  0
ENDTAB
  0
TABLE
  2
VIEW
  5
6
330
0
100
AcDbSymbolTable
 70
     0
  0
ENDTAB
  0
TABLE
  2
UCS
  5
7
330
0
100
AcDbSymbolTable
 70
     0
  0
ENDTAB
  0
TABLE
  2
APPID
  5
9
330
0
100
AcDbSymbolTable
 70
     2
  0
APPID
  5
12
330
9
100
AcDbSymbolTableRecord
100
AcDbRegAppTableRecord
  2
ACAD
 70
     0
  0
ENDTAB
  0
TABLE
  2
DIMSTYLE
  5
A
330
0
100
AcDbSymbolTable
 70
     1
  0
DIMSTYLE
105
27
330
A
100
AcDbSymbolTableRecord
100
AcDbDimStyleTableRecord
  2
ISO-25
 70
     0
  3

  4

  5

  6

  7

 40
1.0
 41
2.5
 42
0.625
 43
3.75
 44
1.25
 45
0.0
 46
0.0
 47
0.0
 48
0.0
140
2.5
141
2.5
142
0.0
143
0.03937007874016
144
1.0
145
0.0
146
1.0
147
0.625
 71
     0
 72
     0
 73
     0
 74
     0
 75
     0
 76
     0
 77
     1
 78
     8
170
     0
171
     3
172
     1
173
     0
174
     0
175
     0
176
     0
177
     0
178
     0
270
     2
271
     2
272
     2
273
     2
274
     3
340
11
275
     0
280
     0
281
     0
282
     0
283
     0
284
     8
285
     0
286
     0
287
     3
288
     0
  0
ENDTAB
  0
TABLE
  2
BLOCK_RECORD
  5
1
330
0
100
AcDbSymbolTable
 70
     1
  0
BLOCK_RECORD
  5
1F
330
1
100
AcDbSymbolTableRecord
100
AcDbBlockTableRecord
  2
*MODEL_SPACE
  0
BLOCK_RECORD
  5
1B
330
1
100
AcDbSymbolTableRecord
100
AcDbBlockTableRecord
  2
*PAPER_SPACE
  0
ENDTAB
  0
ENDSEC
  0
SECTION
  2
BLOCKS
  0
BLOCK
  5
20
330
1F
100
AcDbEntity
  8
0
100
AcDbBlockBegin
  2
*MODEL_SPACE
 70
     0
 10
0.0
 20
0.0
 30
0.0
  3
*MODEL_SPACE
  1

  0
ENDBLK
  5
21
330
1F
100
AcDbEntity
  8
0
100
AcDbBlockEnd
  0
BLOCK
  5
1C
330
1B
100
AcDbEntity
 67
     1
  8
0
100
AcDbBlockBegin
  2
*PAPER_SPACE
  1

  0
ENDBLK
  5
1D
330
1B
100
AcDbEntity
 67
     1
  8
0
100
AcDbBlockEnd
  0
ENDSEC
  0
SECTION
  2
ENTITIES
  0
SPLINE
  5
100
100
AcDbEntity
  8
0
 62
7
100
AcDbSpline
 70
8
 71
3
 72
8
 73
4
 74
0
 40
0
 40
0
 40
0
 40
0
 40
1
 40
1
 40
1
 40
1
 10
371.112626
 20
1211.884724
 30
0.0
 10
360.765675
 20
1211.884724
 30
0.0
 10
350.842507
 20
1207.774414
 30
0.0
 10
343.526107
 20
1200.458015
 30
0.0
  0
SPLINE
  5
101
100
AcDbEntity
  8
0
 62
7
100
AcDbSpline
 70
8
 71
3
 72
8
 73
4
 74
0
 40
0
 40
0
 40
0
 40
0
 40
1
 40
1
 40
1
 40
1
 10
868.358617
 20
1200.458015
 30
0.0
 10
861.042217
 20
1207.774414
 30
0.0
 10
851.119050
 20
1211.884724
 30
0.0
 10
840.772098
 20
1211.884724
 30
0.0
  0
SPLINE
  5
102
100
AcDbEntity
  8
0
 62
7
100
AcDbSpline
 70
8
 71
3
 72
8
 73
4
 74
0
 40
0
 40
0
 40
0
 40
0
 40
1
 40
1
 40
1
 40
1
 10
1211.884724
 20
840.772099
 30
0.0
 10
1211.884724
 20
851.119050
 30
0.0
 10
1207.774414
 20
861.042217
 30
0.0
 10
1200.458014
 20
868.358617
 30
0.0
  0
SPLINE
  5
103
100
AcDbEntity
  8
0
 62
7
100
AcDbSpline
 70
8
 71
3
 72
8
 73
4
 74
0
 40
0
 40
0
 40
0
 40
0
 40
1
 40
1
 40
1
 40
1
 10
1200.458014
 20
343.526108
 30
0.0
 10
1207.774414
 20
350.842507
 30
0.0
 10
1211.884724
 20
360.765674
 30
0.0
 10
1211.884724
 20
371.112626
 30
0.0
  0
SPLINE
  5
104
100
AcDbEntity
  8
0
 62
7
100
AcDbSpline
 70
8
 71
3
 72
8
 73
4
 74
0
 40
0
 40
0
 40
0
 40
0
 40
1
 40
1
 40
1
 40
1
 10
840.772098
 20
0.000000
 30
0.0
 10
851.119050
 20
-0.000000
 30
0.0
 10
861.042217
 20
4.110310
 30
0.0
 10
868.358617
 20
11.426710
 30
0.0
  0
SPLINE
  5
105
100
AcDbEntity
  8
0
 62
7
100
AcDbSpline
 70
8
 71
3
 72
8
 73
4
 74
0
 40
0
 40
0
 40
0
 40
0
 40
1
 40
1
 40
1
 40
1
 10
343.526107
 20
11.426710
 30
0.0
 10
350.842507
 20
4.110310
 30
0.0
 10
360.765675
 20
-0.000000
 30
0.0
 10
371.112626
 20
0.000000
 30
0.0
  0
SPLINE
  5
106
100
AcDbEntity
  8
0
 62
7
100
AcDbSpline
 70
8
 71
3
 72
8
 73
4
 74
0
 40
0
 40
0
 40
0
 40
0
 40
1
 40
1
 40
1
 40
1
 10
-0.000000
 20
371.112626
 30
0.0
 10
-0.000000
 20
360.765675
 30
0.0
 10
4.110310
 20
350.842507
 30
0.0
 10
11.426710
 20
343.526108
 30
0.0
  0
SPLINE
  5
107
100
AcDbEntity
  8
0
 62
7
100
AcDbSpline
 70
8
 71
3
 72
8
 73
4
 74
0
 40
0
 40
0
 40
0
 40
0
 40
1
 40
1
 40
1
 40
1
 10
11.426710
 20
868.358617
 30
0.0
 10
4.110310
 20
861.042217
 30
0.0
 10
-0.000000
 20
851.119050
 30
0.0
 10
-0.000000
 20
840.772098
 30
0.0
  0
SPLINE
  5
108
100
AcDbEntity
  8
0
 62
7
100
AcDbSpline
 70
8
 71
3
 72
8
 73
4
 74
0
 40
0
 40
0
 40
0
 40
0
 40
1
 40
1
 40
1
 40
1
 10
855.286979
 20
1197.648358
 30
0.0
 10
855.286979
 20
1199.167440
 30
0.0
 10
854.476558
 20
1200.571129
 30
0.0
 10
853.160995
 20
1201.330670
 30
0.0
  0
SPLINE
  5
109
100
AcDbEntity
  8
0
 62
7
100
AcDbSpline
 70
8
 71
3
 72
8
 73
4
 74
0
 40
0
 40
0
 40
0
 40
0
 40
1
 40
1
 40
1
 40
1
 10
853.160995
 20
1201.330670
 30
0.0
 10
851.845431
 20
1202.090211
 30
0.0
 10
850.224590
 20
1202.090211
 30
0.0
 10
848.909026
 20
1201.330670
 30
0.0
  0
SPLINE
  5
10a
100
AcDbEntity
  8
0
 62
7
100
AcDbSpline
 70
8
 71
3
 72
8
 73
4
 74
0
 40
0
 40
0
 40
0
 40
0
 40
1
 40
1
 40
1
 40
1
 10
848.909026
 20
1201.330670
 30
0.0
 10
847.593463
 20
1200.571129
 30
0.0
 10
846.783042
 20
1199.167440
 30
0.0
 10
846.783043
 20
1197.648358
 30
0.0
  0
SPLINE
  5
10b
100
AcDbEntity
  8
0
 62
7
100
AcDbSpline
 70
8
 71
3
 72
8
 73
4
 74
0
 40
0
 40
0
 40
0
 40
0
 40
1
 40
1
 40
1
 40
1
 10
846.783043
 20
1197.648358
 30
0.0
 10
846.783043
 20
1196.129276
 30
0.0
 10
847.593463
 20
1194.725586
 30
0.0
 10
848.909027
 20
1193.966045
 30
0.0
  0
SPLINE
  5
10c
100
AcDbEntity
  8
0
 62
7
100
AcDbSpline
 70
8
 71
3
 72
8
 73
4
 74
0
 40
0
 40
0
 40
0
 40
0
 40
1
 40
1
 40
1
 40
1
 10
848.909027
 20
1193.966045
 30
0.0
 10
850.224590
 20
1193.206504
 30
0.0
 10
851.845431
 20
1193.206504
 30
0.0
 10
853.160995
 20
1193.966045
 30
0.0
  0
SPLINE
  5
10d
100
AcDbEntity
  8
0
 62
7
100
AcDbSpline
 70
8
 71
3
 72
8
 73
4
 74
0
 40
0
 40
0
 40
0
 40
0
 40
1
 40
1
 40
1
 40
1
 10
853.160995
 20
1193.966045
 30
0.0
 10
854.476558
 20
1194.725586
 30
0.0
 10
855.286979
 20
1196.129276
 30
0.0
 10
855.286979
 20
1197.648358
 30
0.0
  0
SPLINE
  5
10e
100
AcDbEntity
  8
0
 62
7
100
AcDbSpline
 70
8
 71
3
 72
8
 73
4
 74
0
 40
0
 40
0
 40
0
 40
0
 40
1
 40
1
 40
1
 40
1
 10
365.101682
 20
1197.648358
 30
0.0
 10
365.101682
 20
1199.167440
 30
0.0
 10
364.291262
 20
1200.571129
 30
0.0
 10
362.975698
 20
1201.330670
 30
0.0
  0
SPLINE
  5
10f
100
AcDbEntity
  8
0
 62
7
100
AcDbSpline
 70
8
 71
3
 72
8
 73
4
 74
0
 40
0
 40
0
 40
0
 40
0
 40
1
 40
1
 40
1
 40
1
 10
362.975698
 20
1201.330670
 30
0.0
 10
361.660135
 20
1202.090211
 30
0.0
 10
360.039293
 20
1202.090211
 30
0.0
 10
358.723730
 20
1201.330670
 30
0.0
  0
SPLINE
  5
110
100
AcDbEntity
  8
0
 62
7
100
AcDbSpline
 70
8
 71
3
 72
8
 73
4
 74
0
 40
0
 40
0
 40
0
 40
0
 40
1
 40
1
 40
1
 40
1
 10
358.723730
 20
1201.330670
 30
0.0
 10
357.408166
 20
1200.571129
 30
0.0
 10
356.597746
 20
1199.167440
 30
0.0
 10
356.597746
 20
1197.648358
 30
0.0
  0
SPLINE
  5
111
100
AcDbEntity
  8
0
 62
7
100
AcDbSpline
 70
8
 71
3
 72
8
 73
4
 74
0
 40
0
 40
0
 40
0
 40
0
 40
1
 40
1
 40
1
 40
1
 10
356.597746
 20
1197.648358
 30
0.0
 10
356.597746
 20
1196.129276
 30
0.0
 10
357.408166
 20
1194.725586
 30
0.0
 10
358.723730
 20
1193.966045
 30
0.0
  0
SPLINE
  5
112
100
AcDbEntity
  8
0
 62
7
100
AcDbSpline
 70
8
 71
3
 72
8
 73
4
 74
0
 40
0
 40
0
 40
0
 40
0
 40
1
 40
1
 40
1
 40
1
 10
358.723730
 20
1193.966045
 30
0.0
 10
360.039293
 20
1193.206504
 30
0.0
 10
361.660135
 20
1193.206504
 30
0.0
 10
362.975698
 20
1193.966045
 30
0.0
  0
SPLINE
  5
113
100
AcDbEntity
  8
0
 62
7
100
AcDbSpline
 70
8
 71
3
 72
8
 73
4
 74
0
 40
0
 40
0
 40
0
 40
0
 40
1
 40
1
 40
1
 40
1
 10
362.975698
 20
1193.966045
 30
0.0
 10
364.291262
 20
1194.725586
 30
0.0
 10
365.101682
 20
1196.129276
 30
0.0
 10
365.101682
 20
1197.648358
 30
0.0
  0
LWPOLYLINE
  5
114
100
AcDbEntity
  8
0
 62
7
100
AcDbPolyline
 90
1
 70
1
 10
855.286979
 20
1197.648358
 30
0.0
  0
SPLINE
  5
115
100
AcDbEntity
  8
0
 62
7
100
AcDbSpline
 70
8
 71
3
 72
8
 73
4
 74
0
 40
0
 40
0
 40
0
 40
0
 40
1
 40
1
 40
1
 40
1
 10
18.488335
 20
851.035010
 30
0.0
 10
18.488335
 20
852.554092
 30
0.0
 10
17.677915
 20
853.957782
 30
0.0
 10
16.362351
 20
854.717323
 30
0.0
  0
SPLINE
  5
116
100
AcDbEntity
  8
0
 62
7
100
AcDbSpline
 70
8
 71
3
 72
8
 73
4
 74
0
 40
0
 40
0
 40
0
 40
0
 40
1
 40
1
 40
1
 40
1
 10
16.362351
 20
854.717323
 30
0.0
 10
15.046787
 20
855.476864
 30
0.0
 10
13.425946
 20
855.476864
 30
0.0
 10
12.110383
 20
854.717323
 30
0.0
  0
SPLINE
  5
117
100
AcDbEntity
  8
0
 62
7
100
AcDbSpline
 70
8
 71
3
 72
8
 73
4
 74
0
 40
0
 40
0
 40
0
 40
0
 40
1
 40
1
 40
1
 40
1
 10
12.110383
 20
854.717323
 30
0.0
 10
10.794819
 20
853.957782
 30
0.0
 10
9.984399
 20
852.554092
 30
0.0
 10
9.984399
 20
851.035010
 30
0.0
  0
SPLINE
  5
118
100
AcDbEntity
  8
0
 62
7
100
AcDbSpline
 70
8
 71
3
 72
8
 73
4
 74
0
 40
0
 40
0
 40
0
 40
0
 40
1
 40
1
 40
1
 40
1
 10
9.984399
 20
851.035010
 30
0.0
 10
9.984399
 20
849.515928
 30
0.0
 10
10.794819
 20
848.112239
 30
0.0
 10
12.110383
 20
847.352698
 30
0.0
  0
SPLINE
  5
119
100
AcDbEntity
  8
0
 62
7
100
AcDbSpline
 70
8
 71
3
 72
8
 73
4
 74
0
 40
0
 40
0
 40
0
 40
0
 40
1
 40
1
 40
1
 40
1
 10
12.110383
 20
847.352698
 30
0.0
 10
13.425946
 20
846.593157
 30
0.0
 10
15.046788
 20
846.593157
 30
0.0
 10
16.362351
 20
847.352698
 30
0.0
  0
SPLINE
  5
11a
100
AcDbEntity
  8
0
 62
7
100
AcDbSpline
 70
8
 71
3
 72
8
 73
4
 74
0
 40
0
 40
0
 40
0
 40
0
 40
1
 40
1
 40
1
 40
1
 10
16.362351
 20
847.352698
 30
0.0
 10
17.677915
 20
848.112239
 30
0.0
 10
18.488335
 20
849.515928
 30
0.0
 10
18.488335
 20
851.035010
 30
0.0
  0
LWPOLYLINE
  5
11b
100
AcDbEntity
  8
0
 62
7
100
AcDbPolyline
 90
1
 70
1
 10
365.101682
 20
1197.648358
 30
0.0
  0
SPLINE
  5
11c
100
AcDbEntity
  8
0
 62
7
100
AcDbSpline
 70
8
 71
3
 72
8
 73
4
 74
0
 40
0
 40
0
 40
0
 40
0
 40
1
 40
1
 40
1
 40
1
 10
18.488335
 20
360.849714
 30
0.0
 10
18.488335
 20
362.368796
 30
0.0
 10
17.677915
 20
363.772486
 30
0.0
 10
16.362351
 20
364.532027
 30
0.0
  0
SPLINE
  5
11d
100
AcDbEntity
  8
0
 62
7
100
AcDbSpline
 70
8
 71
3
 72
8
 73
4
 74
0
 40
0
 40
0
 40
0
 40
0
 40
1
 40
1
 40
1
 40
1
 10
16.362351
 20
364.532027
 30
0.0
 10
15.046787
 20
365.291568
 30
0.0
 10
13.425946
 20
365.291568
 30
0.0
 10
12.110383
 20
364.532027
 30
0.0
  0
SPLINE
  5
11e
100
AcDbEntity
  8
0
 62
7
100
AcDbSpline
 70
8
 71
3
 72
8
 73
4
 74
0
 40
0
 40
0
 40
0
 40
0
 40
1
 40
1
 40
1
 40
1
 10
12.110383
 20
364.532027
 30
0.0
 10
10.794819
 20
363.772486
 30
0.0
 10
9.984399
 20
362.368796
 30
0.0
 10
9.984399
 20
360.849714
 30
0.0
  0
SPLINE
  5
11f
100
AcDbEntity
  8
0
 62
7
100
AcDbSpline
 70
8
 71
3
 72
8
 73
4
 74
0
 40
0
 40
0
 40
0
 40
0
 40
1
 40
1
 40
1
 40
1
 10
9.984399
 20
360.849714
 30
0.0
 10
9.984399
 20
359.330632
 30
0.0
 10
10.794819
 20
357.926942
 30
0.0
 10
12.110383
 20
357.167402
 30
0.0
  0
SPLINE
  5
120
100
AcDbEntity
  8
0
 62
7
100
AcDbSpline
 70
8
 71
3
 72
8
 73
4
 74
0
 40
0
 40
0
 40
0
 40
0
 40
1
 40
1
 40
1
 40
1
 10
12.110383
 20
357.167402
 30
0.0
 10
13.425946
 20
356.407861
 30
0.0
 10
15.046788
 20
356.407861
 30
0.0
 10
16.362351
 20
357.167402
 30
0.0
  0
SPLINE
  5
121
100
AcDbEntity
  8
0
 62
7
100
AcDbSpline
 70
8
 71
3
 72
8
 73
4
 74
0
 40
0
 40
0
 40
0
 40
0
 40
1
 40
1
 40
1
 40
1
 10
16.362351
 20
357.167402
 30
0.0
 10
17.677915
 20
357.926942
 30
0.0
 10
18.488335
 20
359.330632
 30
0.0
 10
18.488335
 20
360.849714
 30
0.0
  0
LWPOLYLINE
  5
122
100
AcDbEntity
  8
0
 62
7
100
AcDbPolyline
 90
1
 70
1
 10
18.488335
 20
851.035010
 30
0.0
  0
SPLINE
  5
123
100
AcDbEntity
  8
0
 62
7
100
AcDbSpline
 70
8
 71
3
 72
8
 73
4
 74
0
 40
0
 40
0
 40
0
 40
0
 40
1
 40
1
 40
1
 40
1
 10
365.101682
 20
14.236367
 30
0.0
 10
365.101682
 20
15.755448
 30
0.0
 10
364.291262
 20
17.159138
 30
0.0
 10
362.975698
 20
17.918679
 30
0.0
  0
SPLINE
  5
124
100
AcDbEntity
  8
0
 62
7
100
AcDbSpline
 70
8
 71
3
 72
8
 73
4
 74
0
 40
0
 40
0
 40
0
 40
0
 40
1
 40
1
 40
1
 40
1
 10
362.975698
 20
17.918679
 30
0.0
 10
361.660135
 20
18.678220
 30
0.0
 10
360.039293
 20
18.678220
 30
0.0
 10
358.723730
 20
17.918679
 30
0.0
  0
SPLINE
  5
125
100
AcDbEntity
  8
0
 62
7
100
AcDbSpline
 70
8
 71
3
 72
8
 73
4
 74
0
 40
0
 40
0
 40
0
 40
0
 40
1
 40
1
 40
1
 40
1
 10
358.723730
 20
17.918679
 30
0.0
 10
357.408166
 20
17.159138
 30
0.0
 10
356.597746
 20
15.755448
 30
0.0
 10
356.597746
 20
14.236367
 30
0.0
  0
SPLINE
  5
126
100
AcDbEntity
  8
0
 62
7
100
AcDbSpline
 70
8
 71
3
 72
8
 73
4
 74
0
 40
0
 40
0
 40
0
 40
0
 40
1
 40
1
 40
1
 40
1
 10
356.597746
 20
14.236367
 30
0.0
 10
356.597746
 20
12.717285
 30
0.0
 10
357.408166
 20
11.313595
 30
0.0
 10
358.723730
 20
10.554054
 30
0.0
  0
SPLINE
  5
127
100
AcDbEntity
  8
0
 62
7
100
AcDbSpline
 70
8
 71
3
 72
8
 73
4
 74
0
 40
0
 40
0
 40
0
 40
0
 40
1
 40
1
 40
1
 40
1
 10
358.723730
 20
10.554054
 30
0.0
 10
360.039293
 20
9.794513
 30
0.0
 10
361.660135
 20
9.794513
 30
0.0
 10
362.975698
 20
10.554054
 30
0.0
  0
SPLINE
  5
128
100
AcDbEntity
  8
0
 62
7
100
AcDbSpline
 70
8
 71
3
 72
8
 73
4
 74
0
 40
0
 40
0
 40
0
 40
0
 40
1
 40
1
 40
1
 40
1
 10
362.975698
 20
10.554054
 30
0.0
 10
364.291262
 20
11.313595
 30
0.0
 10
365.101682
 20
12.717285
 30
0.0
 10
365.101682
 20
14.236367
 30
0.0
  0
LWPOLYLINE
  5
129
100
AcDbEntity
  8
0
 62
7
100
AcDbPolyline
 90
1
 70
1
 10
18.488335
 20
360.849714
 30
0.0
  0
SPLINE
  5
12a
100
AcDbEntity
  8
0
 62
7
100
AcDbSpline
 70
8
 71
3
 72
8
 73
4
 74
0
 40
0
 40
0
 40
0
 40
0
 40
1
 40
1
 40
1
 40
1
 10
855.286979
 20
14.236367
 30
0.0
 10
855.286979
 20
15.755448
 30
0.0
 10
854.476558
 20
17.159138
 30
0.0
 10
853.160995
 20
17.918679
 30
0.0
  0
SPLINE
  5
12b
100
AcDbEntity
  8
0
 62
7
100
AcDbSpline
 70
8
 71
3
 72
8
 73
4
 74
0
 40
0
 40
0
 40
0
 40
0
 40
1
 40
1
 40
1
 40
1
 10
853.160995
 20
17.918679
 30
0.0
 10
851.845431
 20
18.678220
 30
0.0
 10
850.224590
 20
18.678220
 30
0.0
 10
848.909026
 20
17.918679
 30
0.0
  0
SPLINE
  5
12c
100
AcDbEntity
  8
0
 62
7
100
AcDbSpline
 70
8
 71
3
 72
8
 73
4
 74
0
 40
0
 40
0
 40
0
 40
0
 40
1
 40
1
 40
1
 40
1
 10
848.909026
 20
17.918679
 30
0.0
 10
847.593463
 20
17.159138
 30
0.0
 10
846.783042
 20
15.755448
 30
0.0
 10
846.783043
 20
14.236367
 30
0.0
  0
SPLINE
  5
12d
100
AcDbEntity
  8
0
 62
7
100
AcDbSpline
 70
8
 71
3
 72
8
 73
4
 74
0
 40
0
 40
0
 40
0
 40
0
 40
1
 40
1
 40
1
 40
1
 10
846.783043
 20
14.236367
 30
0.0
 10
846.783043
 20
12.717285
 30
0.0
 10
847.593463
 20
11.313595
 30
0.0
 10
848.909027
 20
10.554054
 30
0.0
  0
SPLINE
  5
12e
100
AcDbEntity
  8
0
 62
7
100
AcDbSpline
 70
8
 71
3
 72
8
 73
4
 74
0
 40
0
 40
0
 40
0
 40
0
 40
1
 40
1
 40
1
 40
1
 10
848.909027
 20
10.554054
 30
0.0
 10
850.224590
 20
9.794513
 30
0.0
 10
851.845431
 20
9.794513
 30
0.0
 10
853.160995
 20
10.554054
 30
0.0
  0
SPLINE
  5
12f
100
AcDbEntity
  8
0
 62
7
100
AcDbSpline
 70
8
 71
3
 72
8
 73
4
 74
0
 40
0
 40
0
 40
0
 40
0
 40
1
 40
1
 40
1
 40
1
 10
853.160995
 20
10.554054
 30
0.0
 10
854.476558
 20
11.313595
 30
0.0
 10
855.286979
 20
12.717285
 30
0.0
 10
855.286979
 20
14.236367
 30
0.0
  0
LWPOLYLINE
  5
130
100
AcDbEntity
  8
0
 62
7
100
AcDbPolyline
 90
1
 70
1
 10
365.101682
 20
14.236367
 30
0.0
  0
SPLINE
  5
131
100
AcDbEntity
  8
0
 62
7
100
AcDbSpline
 70
8
 71
3
 72
8
 73
4
 74
0
 40
0
 40
0
 40
0
 40
0
 40
1
 40
1
 40
1
 40
1
 10
1201.900326
 20
360.849714
 30
0.0
 10
1201.900326
 20
362.368796
 30
0.0
 10
1201.089905
 20
363.772486
 30
0.0
 10
1199.774342
 20
364.532027
 30
0.0
  0
SPLINE
  5
132
100
AcDbEntity
  8
0
 62
7
100
AcDbSpline
 70
8
 71
3
 72
8
 73
4
 74
0
 40
0
 40
0
 40
0
 40
0
 40
1
 40
1
 40
1
 40
1
 10
1199.774342
 20
364.532027
 30
0.0
 10
1198.458778
 20
365.291568
 30
0.0
 10
1196.837937
 20
365.291568
 30
0.0
 10
1195.522373
 20
364.532027
 30
0.0
  0
SPLINE
  5
133
100
AcDbEntity
  8
0
 62
7
100
AcDbSpline
 70
8
 71
3
 72
8
 73
4
 74
0
 40
0
 40
0
 40
0
 40
0
 40
1
 40
1
 40
1
 40
1
 10
1195.522373
 20
364.532027
 30
0.0
 10
1194.206810
 20
363.772486
 30
0.0
 10
1193.396389
 20
362.368796
 30
0.0
 10
1193.396389
 20
360.849714
 30
0.0
  0
SPLINE
  5
134
100
AcDbEntity
  8
0
 62
7
100
AcDbSpline
 70
8
 71
3
 72
8
 73
4
 74
0
 40
0
 40
0
 40
0
 40
0
 40
1
 40
1
 40
1
 40
1
 10
1193.396389
 20
360.849714
 30
0.0
 10
1193.396389
 20
359.330632
 30
0.0
 10
1194.206810
 20
357.926942
 30
0.0
 10
1195.522373
 20
357.167402
 30
0.0
  0
SPLINE
  5
135
100
AcDbEntity
  8
0
 62
7
100
AcDbSpline
 70
8
 71
3
 72
8
 73
4
 74
0
 40
0
 40
0
 40
0
 40
0
 40
1
 40
1
 40
1
 40
1
 10
1195.522373
 20
357.167402
 30
0.0
 10
1196.837937
 20
356.407861
 30
0.0
 10
1198.458778
 20
356.407861
 30
0.0
 10
1199.774342
 20
357.167402
 30
0.0
  0
SPLINE
  5
136
100
AcDbEntity
  8
0
 62
7
100
AcDbSpline
 70
8
 71
3
 72
8
 73
4
 74
0
 40
0
 40
0
 40
0
 40
0
 40
1
 40
1
 40
1
 40
1
 10
1199.774342
 20
357.167402
 30
0.0
 10
1201.089905
 20
357.926942
 30
0.0
 10
1201.900326
 20
359.330632
 30
0.0
 10
1201.900326
 20
360.849714
 30
0.0
  0
LWPOLYLINE
  5
137
100
AcDbEntity
  8
0
 62
7
100
AcDbPolyline
 90
1
 70
1
 10
855.286979
 20
14.236367
 30
0.0
  0
SPLINE
  5
138
100
AcDbEntity
  8
0
 62
7
100
AcDbSpline
 70
8
 71
3
 72
8
 73
4
 74
0
 40
0
 40
0
 40
0
 40
0
 40
1
 40
1
 40
1
 40
1
 10
1201.900326
 20
851.035010
 30
0.0
 10
1201.900326
 20
852.554092
 30
0.0
 10
1201.089905
 20
853.957782
 30
0.0
 10
1199.774342
 20
854.717323
 30
0.0
  0
SPLINE
  5
139
100
AcDbEntity
  8
0
 62
7
100
AcDbSpline
 70
8
 71
3
 72
8
 73
4
 74
0
 40
0
 40
0
 40
0
 40
0
 40
1
 40
1
 40
1
 40
1
 10
1199.774342
 20
854.717323
 30
0.0
 10
1198.458778
 20
855.476864
 30
0.0
 10
1196.837937
 20
855.476864
 30
0.0
 10
1195.522373
 20
854.717323
 30
0.0
  0
SPLINE
  5
13a
100
AcDbEntity
  8
0
 62
7
100
AcDbSpline
 70
8
 71
3
 72
8
 73
4
 74
0
 40
0
 40
0
 40
0
 40
0
 40
1
 40
1
 40
1
 40
1
 10
1195.522373
 20
854.717323
 30
0.0
 10
1194.206810
 20
853.957782
 30
0.0
 10
1193.396389
 20
852.554092
 30
0.0
 10
1193.396389
 20
851.035010
 30
0.0
  0
SPLINE
  5
13b
100
AcDbEntity
  8
0
 62
7
100
AcDbSpline
 70
8
 71
3
 72
8
 73
4
 74
0
 40
0
 40
0
 40
0
 40
0
 40
1
 40
1
 40
1
 40
1
 10
1193.396389
 20
851.035010
 30
0.0
 10
1193.396389
 20
849.515928
 30
0.0
 10
1194.206810
 20
848.112239
 30
0.0
 10
1195.522373
 20
847.352698
 30
0.0
  0
SPLINE
  5
13c
100
AcDbEntity
  8
0
 62
7
100
AcDbSpline
 70
8
 71
3
 72
8
 73
4
 74
0
 40
0
 40
0
 40
0
 40
0
 40
1
 40
1
 40
1
 40
1
 10
1195.522373
 20
847.352698
 30
0.0
 10
1196.837937
 20
846.593157
 30
0.0
 10
1198.458778
 20
846.593157
 30
0.0
 10
1199.774342
 20
847.352698
 30
0.0
  0
SPLINE
  5
13d
100
AcDbEntity
  8
0
 62
7
100
AcDbSpline
 70
8
 71
3
 72
8
 73
4
 74
0
 40
0
 40
0
 40
0
 40
0
 40
1
 40
1
 40
1
 40
1
 10
1199.774342
 20
847.352698
 30
0.0
 10
1201.089905
 20
848.112239
 30
0.0
 10
1201.900326
 20
849.515928
 30
0.0
 10
1201.900326
 20
851.035010
 30
0.0
  0
LWPOLYLINE
  5
13e
100
AcDbEntity
  8
0
 62
7
100
AcDbPolyline
 90
1
 70
1
 10
1201.900326
 20
360.849714
 30
0.0
  0
LWPOLYLINE
  5
13f
100
AcDbEntity
  8
0
 62
7
100
AcDbPolyline
 90
1
 70
1
 10
1201.900326
 20
851.035010
 30
0.0
  0
LWPOLYLINE
  5
140
100
AcDbEntity
  8
0
 62
7
100
AcDbPolyline
 90
2
 70
0
 10
1211.884724
 20
840.772098
 30
0.0
 10
1211.884724
 20
812.425642
 30
0.0
  0
LWPOLYLINE
  5
141
100
AcDbEntity
  8
0
 62
7
100
AcDbPolyline
 90
3
 70
0
 10
1197.711496
 20
812.425642
 30
0.0
 10
1197.711496
 20
729.832330
 30
0.0
 10
1211.884724
 20
729.832330
 30
0.0
  0
LWPOLYLINE
  5
142
100
AcDbEntity
  8
0
 62
7
100
AcDbPolyline
 90
4
 70
0
 10
1211.884724
 20
647.239018
 30
0.0
 10
1197.711496
 20
647.239018
 30
0.0
 10
1197.711496
 20
564.645707
 30
0.0
 10
1211.884724
 20
564.645707
 30
0.0
  0
LWPOLYLINE
  5
143
100
AcDbEntity
  8
0
 62
7
100
AcDbPolyline
 90
4
 70
0
 10
1211.884724
 20
482.052395
 30
0.0
 10
1197.711496
 20
482.052395
 30
0.0
 10
1197.711496
 20
399.459083
 30
0.0
 10
1211.884724
 20
399.459083
 30
0.0
  0
LWPOLYLINE
  5
144
100
AcDbEntity
  8
0
 62
7
100
AcDbPolyline
 90
2
 70
0
 10
1197.711496
 20
812.425642
 30
0.0
 10
1211.884724
 20
812.425642
 30
0.0
  0
LWPOLYLINE
  5
145
100
AcDbEntity
  8
0
 62
7
100
AcDbPolyline
 90
2
 70
0
 10
1211.884724
 20
482.052395
 30
0.0
 10
1211.884724
 20
564.645707
 30
0.0
  0
LWPOLYLINE
  5
146
100
AcDbEntity
  8
0
 62
7
100
AcDbPolyline
 90
2
 70
0
 10
1211.884724
 20
647.239018
 30
0.0
 10
1211.884724
 20
729.832330
 30
0.0
  0
LWPOLYLINE
  5
147
100
AcDbEntity
  8
0
 62
7
100
AcDbPolyline
 90
2
 70
0
 10
1211.884724
 20
399.459083
 30
0.0
 10
1211.884724
 20
371.112626
 30
0.0
  0
LWPOLYLINE
  5
148
100
AcDbEntity
  8
0
 62
7
100
AcDbPolyline
 90
2
 70
0
 10
868.358617
 20
1200.458015
 30
0.0
 10
888.402589
 20
1180.414043
 30
0.0
  0
LWPOLYLINE
  5
149
100
AcDbEntity
  8
0
 62
7
100
AcDbPolyline
 90
3
 70
0
 10
878.380603
 20
1170.392057
 30
0.0
 10
936.782894
 20
1111.989766
 30
0.0
 10
946.804879
 20
1122.011752
 30
0.0
  0
LWPOLYLINE
  5
14a
100
AcDbEntity
  8
0
 62
7
100
AcDbPolyline
 90
2
 70
0
 10
1005.207170
 20
1063.609461
 30
0.0
 10
946.804879
 20
1122.011752
 30
0.0
  0
LWPOLYLINE
  5
14b
100
AcDbEntity
  8
0
 62
7
100
AcDbPolyline
 90
4
 70
0
 10
1005.207170
 20
1063.609461
 30
0.0
 10
995.185184
 20
1053.587475
 30
0.0
 10
1053.587475
 20
995.185184
 30
0.0
 10
1063.609461
 20
1005.207170
 30
0.0
  0
LWPOLYLINE
  5
14c
100
AcDbEntity
  8
0
 62
7
100
AcDbPolyline
 90
2
 70
0
 10
1122.011752
 20
946.804880
 30
0.0
 10
1063.609461
 20
1005.207170
 30
0.0
  0
LWPOLYLINE
  5
14d
100
AcDbEntity
  8
0
 62
7
100
AcDbPolyline
 90
2
 70
0
 10
1111.989766
 20
936.782894
 30
0.0
 10
1170.392057
 20
878.380603
 30
0.0
  0
LWPOLYLINE
  5
14e
100
AcDbEntity
  8
0
 62
7
100
AcDbPolyline
 90
2
 70
0
 10
1180.414043
 20
888.402589
 30
0.0
 10
1200.458014
 20
868.358617
 30
0.0
  0
LWPOLYLINE
  5
14f
100
AcDbEntity
  8
0
 62
7
100
AcDbPolyline
 90
2
 70
0
 10
878.380603
 20
1170.392057
 30
0.0
 10
888.402589
 20
1180.414043
 30
0.0
  0
LWPOLYLINE
  5
150
100
AcDbEntity
  8
0
 62
7
100
AcDbPolyline
 90
2
 70
0
 10
1170.392057
 20
878.380603
 30
0.0
 10
1180.414043
 20
888.402589
 30
0.0
  0
LWPOLYLINE
  5
151
100
AcDbEntity
  8
0
 62
7
100
AcDbPolyline
 90
2
 70
0
 10
1122.011752
 20
946.804880
 30
0.0
 10
1111.989766
 20
936.782894
 30
0.0
  0
LWPOLYLINE
  5
152
100
AcDbEntity
  8
0
 62
7
100
AcDbPolyline
 90
2
 70
0
 10
371.112626
 20
1211.884724
 30
0.0
 10
399.459083
 20
1211.884724
 30
0.0
  0
LWPOLYLINE
  5
153
100
AcDbEntity
  8
0
 62
7
100
AcDbPolyline
 90
3
 70
0
 10
399.459083
 20
1197.711496
 30
0.0
 10
482.052394
 20
1197.711496
 30
0.0
 10
482.052394
 20
1211.884724
 30
0.0
  0
LWPOLYLINE
  5
154
100
AcDbEntity
  8
0
 62
7
100
AcDbPolyline
 90
2
 70
0
 10
564.645706
 20
1211.884724
 30
0.0
 10
482.052394
 20
1211.884724
 30
0.0
  0
LWPOLYLINE
  5
155
100
AcDbEntity
  8
0
 62
7
100
AcDbPolyline
 90
4
 70
0
 10
564.645706
 20
1211.884724
 30
0.0
 10
564.645706
 20
1197.711496
 30
0.0
 10
647.239018
 20
1197.711496
 30
0.0
 10
647.239018
 20
1211.884724
 30
0.0
  0
LWPOLYLINE
  5
156
100
AcDbEntity
  8
0
 62
7
100
AcDbPolyline
 90
2
 70
0
 10
729.832330
 20
1211.884724
 30
0.0
 10
647.239018
 20
1211.884724
 30
0.0
  0
LWPOLYLINE
  5
157
100
AcDbEntity
  8
0
 62
7
100
AcDbPolyline
 90
2
 70
0
 10
729.832330
 20
1197.711496
 30
0.0
 10
812.425642
 20
1197.711496
 30
0.0
  0
LWPOLYLINE
  5
158
100
AcDbEntity
  8
0
 62
7
100
AcDbPolyline
 90
2
 70
0
 10
812.425642
 20
1211.884724
 30
0.0
 10
840.772098
 20
1211.884724
 30
0.0
  0
LWPOLYLINE
  5
159
100
AcDbEntity
  8
0
 62
7
100
AcDbPolyline
 90
2
 70
0
 10
399.459083
 20
1197.711496
 30
0.0
 10
399.459083
 20
1211.884724
 30
0.0
  0
LWPOLYLINE
  5
15a
100
AcDbEntity
  8
0
 62
7
100
AcDbPolyline
 90
2
 70
0
 10
812.425642
 20
1197.711496
 30
0.0
 10
812.425642
 20
1211.884724
 30
0.0
  0
LWPOLYLINE
  5
15b
100
AcDbEntity
  8
0
 62
7
100
AcDbPolyline
 90
2
 70
0
 10
729.832330
 20
1211.884724
 30
0.0
 10
729.832330
 20
1197.711496
 30
0.0
  0
LWPOLYLINE
  5
15c
100
AcDbEntity
  8
0
 62
7
100
AcDbPolyline
 90
2
 70
0
 10
11.426710
 20
868.358617
 30
0.0
 10
31.470682
 20
888.402589
 30
0.0
  0
LWPOLYLINE
  5
15d
100
AcDbEntity
  8
0
 62
7
100
AcDbPolyline
 90
3
 70
0
 10
41.492668
 20
878.380603
 30
0.0
 10
99.894959
 20
936.782894
 30
0.0
 10
89.872973
 20
946.804880
 30
0.0
  0
LWPOLYLINE
  5
15e
100
AcDbEntity
  8
0
 62
7
100
AcDbPolyline
 90
2
 70
0
 10
148.275263
 20
1005.207170
 30
0.0
 10
89.872973
 20
946.804880
 30
0.0
  0
LWPOLYLINE
  5
15f
100
AcDbEntity
  8
0
 62
7
100
AcDbPolyline
 90
4
 70
0
 10
148.275263
 20
1005.207170
 30
0.0
 10
158.297249
 20
995.185184
 30
0.0
 10
216.699540
 20
1053.587475
 30
0.0
 10
206.677554
 20
1063.609461
 30
0.0
  0
LWPOLYLINE
  5
160
100
AcDbEntity
  8
0
 62
7
100
AcDbPolyline
 90
2
 70
0
 10
265.079846
 20
1122.011752
 30
0.0
 10
206.677554
 20
1063.609461
 30
0.0
  0
LWPOLYLINE
  5
161
100
AcDbEntity
  8
0
 62
7
100
AcDbPolyline
 90
2
 70
0
 10
275.101831
 20
1111.989766
 30
0.0
 10
333.504121
 20
1170.392057
 30
0.0
  0
LWPOLYLINE
  5
162
100
AcDbEntity
  8
0
 62
7
100
AcDbPolyline
 90
2
 70
0
 10
323.482136
 20
1180.414043
 30
0.0
 10
343.526107
 20
1200.458015
 30
0.0
  0
LWPOLYLINE
  5
163
100
AcDbEntity
  8
0
 62
7
100
AcDbPolyline
 90
2
 70
0
 10
41.492668
 20
878.380603
 30
0.0
 10
31.470682
 20
888.402589
 30
0.0
  0
LWPOLYLINE
  5
164
100
AcDbEntity
  8
0
 62
7
100
AcDbPolyline
 90
2
 70
0
 10
333.504121
 20
1170.392057
 30
0.0
 10
323.482136
 20
1180.414043
 30
0.0
  0
LWPOLYLINE
  5
165
100
AcDbEntity
  8
0
 62
7
100
AcDbPolyline
 90
2
 70
0
 10
265.079846
 20
1122.011752
 30
0.0
 10
275.101831
 20
1111.989766
 30
0.0
  0
LWPOLYLINE
  5
166
100
AcDbEntity
  8
0
 62
7
100
AcDbPolyline
 90
2
 70
0
 10
0.000000
 20
371.112626
 30
0.0
 10
0.000000
 20
399.459083
 30
0.0
  0
LWPOLYLINE
  5
167
100
AcDbEntity
  8
0
 62
7
100
AcDbPolyline
 90
3
 70
0
 10
14.173229
 20
399.459083
 30
0.0
 10
14.173229
 20
482.052395
 30
0.0
 10
0.000000
 20
482.052395
 30
0.0
  0
LWPOLYLINE
  5
168
100
AcDbEntity
  8
0
 62
7
100
AcDbPolyline
 90
2
 70
0
 10
0.000000
 20
564.645707
 30
0.0
 10
0.000000
 20
482.052395
 30
0.0
  0
LWPOLYLINE
  5
169
100
AcDbEntity
  8
0
 62
7
100
AcDbPolyline
 90
4
 70
0
 10
0.000000
 20
564.645707
 30
0.0
 10
14.173229
 20
564.645707
 30
0.0
 10
14.173229
 20
647.239018
 30
0.0
 10
0.000000
 20
647.239018
 30
0.0
  0
LWPOLYLINE
  5
16a
100
AcDbEntity
  8
0
 62
7
100
AcDbPolyline
 90
2
 70
0
 10
0.000000
 20
729.832330
 30
0.0
 10
0.000000
 20
647.239018
 30
0.0
  0
LWPOLYLINE
  5
16b
100
AcDbEntity
  8
0
 62
7
100
AcDbPolyline
 90
2
 70
0
 10
14.173229
 20
729.832330
 30
0.0
 10
14.173229
 20
812.425642
 30
0.0
  0
LWPOLYLINE
  5
16c
100
AcDbEntity
  8
0
 62
7
100
AcDbPolyline
 90
2
 70
0
 10
0.000000
 20
812.425642
 30
0.0
 10
0.000000
 20
840.772098
 30
0.0
  0
LWPOLYLINE
  5
16d
100
AcDbEntity
  8
0
 62
7
100
AcDbPolyline
 90
2
 70
0
 10
14.173229
 20
399.459083
 30
0.0
 10
0.000000
 20
399.459083
 30
0.0
  0
LWPOLYLINE
  5
16e
100
AcDbEntity
  8
0
 62
7
100
AcDbPolyline
 90
2
 70
0
 10
14.173229
 20
812.425642
 30
0.0
 10
0.000000
 20
812.425642
 30
0.0
  0
LWPOLYLINE
  5
16f
100
AcDbEntity
  8
0
 62
7
100
AcDbPolyline
 90
2
 70
0
 10
0.000000
 20
729.832330
 30
0.0
 10
14.173229
 20
729.832330
 30
0.0
  0
LWPOLYLINE
  5
170
100
AcDbEntity
  8
0
 62
7
100
AcDbPolyline
 90
2
 70
0
 10
343.526107
 20
11.426710
 30
0.0
 10
323.482136
 20
31.470682
 30
0.0
  0
LWPOLYLINE
  5
171
100
AcDbEntity
  8
0
 62
7
100
AcDbPolyline
 90
3
 70
0
 10
333.504121
 20
41.492668
 30
0.0
 10
275.101831
 20
99.894959
 30
0.0
 10
265.079846
 20
89.872973
 30
0.0
  0
LWPOLYLINE
  5
172
100
AcDbEntity
  8
0
 62
7
100
AcDbPolyline
 90
2
 70
0
 10
206.677554
 20
148.275263
 30
0.0
 10
265.079846
 20
89.872973
 30
0.0
  0
LWPOLYLINE
  5
173
100
AcDbEntity
  8
0
 62
7
100
AcDbPolyline
 90
4
 70
0
 10
206.677554
 20
148.275263
 30
0.0
 10
216.699540
 20
158.297249
 30
0.0
 10
158.297249
 20
216.699540
 30
0.0
 10
148.275263
 20
206.677554
 30
0.0
  0
LWPOLYLINE
  5
174
100
AcDbEntity
  8
0
 62
7
100
AcDbPolyline
 90
2
 70
0
 10
89.872973
 20
265.079845
 30
0.0
 10
148.275263
 20
206.677554
 30
0.0
  0
LWPOLYLINE
  5
175
100
AcDbEntity
  8
0
 62
7
100
AcDbPolyline
 90
2
 70
0
 10
99.894959
 20
275.101831
 30
0.0
 10
41.492668
 20
333.504122
 30
0.0
  0
LWPOLYLINE
  5
176
100
AcDbEntity
  8
0
 62
7
100
AcDbPolyline
 90
2
 70
0
 10
31.470682
 20
323.482136
 30
0.0
 10
11.426710
 20
343.526108
 30
0.0
  0
LWPOLYLINE
  5
177
100
AcDbEntity
  8
0
 62
7
100
AcDbPolyline
 90
2
 70
0
 10
333.504121
 20
41.492668
 30
0.0
 10
323.482136
 20
31.470682
 30
0.0
  0
LWPOLYLINE
  5
178
100
AcDbEntity
  8
0
 62
7
100
AcDbPolyline
 90
2
 70
0
 10
41.492668
 20
333.504122
 30
0.0
 10
31.470682
 20
323.482136
 30
0.0
  0
LWPOLYLINE
  5
179
100
AcDbEntity
  8
0
 62
7
100
AcDbPolyline
 90
2
 70
0
 10
89.872973
 20
265.079845
 30
0.0
 10
99.894959
 20
275.101831
 30
0.0
  0
LWPOLYLINE
  5
17a
100
AcDbEntity
  8
0
 62
7
100
AcDbPolyline
 90
2
 70
0
 10
840.772098
 20
0.000000
 30
0.0
 10
812.425642
 20
0.000000
 30
0.0
  0
LWPOLYLINE
  5
17b
100
AcDbEntity
  8
0
 62
7
100
AcDbPolyline
 90
3
 70
0
 10
812.425642
 20
14.173229
 30
0.0
 10
729.832330
 20
14.173229
 30
0.0
 10
729.832330
 20
0.000000
 30
0.0
  0
LWPOLYLINE
  5
17c
100
AcDbEntity
  8
0
 62
7
100
AcDbPolyline
 90
2
 70
0
 10
647.239018
 20
0.000000
 30
0.0
 10
729.832330
 20
0.000000
 30
0.0
  0
LWPOLYLINE
  5
17d
100
AcDbEntity
  8
0
 62
7
100
AcDbPolyline
 90
4
 70
0
 10
647.239018
 20
0.000000
 30
0.0
 10
647.239018
 20
14.173229
 30
0.0
 10
564.645706
 20
14.173229
 30
0.0
 10
564.645706
 20
0.000000
 30
0.0
  0
LWPOLYLINE
  5
17e
100
AcDbEntity
  8
0
 62
7
100
AcDbPolyline
 90
2
 70
0
 10
482.052394
 20
0.000000
 30
0.0
 10
564.645706
 20
0.000000
 30
0.0
  0
LWPOLYLINE
  5
17f
100
AcDbEntity
  8
0
 62
7
100
AcDbPolyline
 90
2
 70
0
 10
482.052394
 20
14.173229
 30
0.0
 10
399.459083
 20
14.173229
 30
0.0
  0
LWPOLYLINE
  5
180
100
AcDbEntity
  8
0
 62
7
100
AcDbPolyline
 90
2
 70
0
 10
399.459083
 20
0.000000
 30
0.0
 10
371.112626
 20
0.000000
 30
0.0
  0
LWPOLYLINE
  5
181
100
AcDbEntity
  8
0
 62
7
100
AcDbPolyline
 90
2
 70
0
 10
812.425642
 20
14.173229
 30
0.0
 10
812.425642
 20
0.000000
 30
0.0
  0
LWPOLYLINE
  5
182
100
AcDbEntity
  8
0
 62
7
100
AcDbPolyline
 90
2
 70
0
 10
399.459083
 20
14.173229
 30
0.0
 10
399.459083
 20
0.000000
 30
0.0
  0
LWPOLYLINE
  5
183
100
AcDbEntity
  8
0
 62
7
100
AcDbPolyline
 90
2
 70
0
 10
482.052394
 20
0.000000
 30
0.0
 10
482.052394
 20
14.173229
 30
0.0
  0
LWPOLYLINE
  5
184
100
AcDbEntity
  8
0
 62
7
100
AcDbPolyline
 90
2
 70
0
 10
1200.458014
 20
343.526108
 30
0.0
 10
1180.414043
 20
323.482136
 30
0.0
  0
LWPOLYLINE
  5
185
100
AcDbEntity
  8
0
 62
7
100
AcDbPolyline
 90
3
 70
0
 10
1170.392057
 20
333.504122
 30
0.0
 10
1111.989766
 20
275.101831
 30
0.0
 10
1122.011752
 20
265.079845
 30
0.0
  0
LWPOLYLINE
  5
186
100
AcDbEntity
  8
0
 62
7
100
AcDbPolyline
 90
2
 70
0
 10
1063.609461
 20
206.677554
 30
0.0
 10
1122.011752
 20
265.079845
 30
0.0
  0
LWPOLYLINE
  5
187
100
AcDbEntity
  8
0
 62
7
100
AcDbPolyline
 90
4
 70
0
 10
1063.609461
 20
206.677554
 30
0.0
 10
1053.587475
 20
216.699540
 30
0.0
 10
995.185184
 20
158.297249
 30
0.0
 10
1005.207170
 20
148.275263
 30
0.0
  0
LWPOLYLINE
  5
188
100
AcDbEntity
  8
0
 62
7
100
AcDbPolyline
 90
2
 70
0
 10
946.804879
 20
89.872973
 30
0.0
 10
1005.207170
 20
148.275263
 30
0.0
  0
LWPOLYLINE
  5
189
100
AcDbEntity
  8
0
 62
7
100
AcDbPolyline
 90
2
 70
0
 10
936.782894
 20
99.894959
 30
0.0
 10
878.380603
 20
41.492668
 30
0.0
  0
LWPOLYLINE
  5
18a
100
AcDbEntity
  8
0
 62
7
100
AcDbPolyline
 90
2
 70
0
 10
888.402589
 20
31.470682
 30
0.0
 10
868.358617
 20
11.426710
 30
0.0
  0
LWPOLYLINE
  5
18b
100
AcDbEntity
  8
0
 62
7
100
AcDbPolyline
 90
2
 70
0
 10
1170.392057
 20
333.504122
 30
0.0
 10
1180.414043
 20
323.482136
 30
0.0
  0
LWPOLYLINE
  5
18c
100
AcDbEntity
  8
0
 62
7
100
AcDbPolyline
 90
2
 70
0
 10
878.380603
 20
41.492668
 30
0.0
 10
888.402589
 20
31.470682
 30
0.0
  0
LWPOLYLINE
  5
18d
100
AcDbEntity
  8
0
 62
7
100
AcDbPolyline
 90
2
 70
0
 10
946.804879
 20
89.872973
 30
0.0
 10
936.782894
 20
99.894959
 30
0.0
  0
SPLINE
  5
18e
100
AcDbEntity
  8
0
 62
7
100
AcDbSpline
 70
8
 71
3
 72
8
 73
4
 74
0
 40
0
 40
0
 40
0
 40
0
 40
1
 40
1
 40
1
 40
1
 10
923.379040
 20
246.129742
 30
0.0
 10
937.133228
 20
231.018429
 30
0.0
 10
938.872957
 20
208.498121
 30
0.0
 10
927.602856
 20
191.453642
 30
0.0
  0
SPLINE
  5
18f
100
AcDbEntity
  8
0
 62
7
100
AcDbSpline
 70
8
 71
3
 72
8
 73
4
 74
0
 40
0
 40
0
 40
0
 40
0
 40
1
 40
1
 40
1
 40
1
 10
927.602856
 20
191.453642
 30
0.0
 10
916.332754
 20
174.409163
 30
0.0
 10
894.929637
 20
167.191301
 30
0.0
 10
875.639137
 20
173.929702
 30
0.0
  0
SPLINE
  5
190
100
AcDbEntity
  8
0
 62
7
100
AcDbSpline
 70
8
 71
3
 72
8
 73
4
 74
0
 40
0
 40
0
 40
0
 40
0
 40
1
 40
1
 40
1
 40
1
 10
875.639137
 20
173.929702
 30
0.0
 10
856.348636
 20
180.668103
 30
0.0
 10
844.094862
 20
199.642717
 30
0.0
 10
845.888719
 20
219.997361
 30
0.0
  0
SPLINE
  5
191
100
AcDbEntity
  8
0
 62
7
100
AcDbSpline
 70
8
 71
3
 72
8
 73
4
 74
0
 40
0
 40
0
 40
0
 40
0
 40
1
 40
1
 40
1
 40
1
 10
845.888719
 20
219.997361
 30
0.0
 10
847.682576
 20
240.352005
 30
0.0
 10
863.066162
 20
256.890935
 30
0.0
 10
883.237874
 20
260.151528
 30
0.0
  0
LWPOLYLINE
  5
192
100
AcDbEntity
  8
0
 62
7
100
AcDbPolyline
 90
2
 70
0
 10
883.237874
 20
260.151528
 30
0.0
 10
923.379040
 20
246.129742
 30
0.0
  0
LWPOLYLINE
  5
193
100
AcDbEntity
  8
0
 62
7
100
AcDbPolyline
 90
1
 70
1
 10
883.237874
 20
260.151528
 30
0.0
  0
LWPOLYLINE
  5
194
100
AcDbEntity
  8
0
 62
7
100
AcDbPolyline
 90
8
 70
1
 10
214.148739
 20
701.453125
 30
0.0
 10
106.432204
 20
701.453125
 30
0.0
 10
106.432204
 20
914.051550
 30
0.0
 10
151.786535
 20
914.051550
 30
0.0
 10
151.786535
 20
945.232652
 30
0.0
 10
214.148739
 20
945.232652
 30
0.0
 10
214.148739
 20
914.051550
 30
0.0
 10
214.148739
 20
701.453125
 30
0.0
  0
LWPOLYLINE
  5
195
100
AcDbEntity
  8
0
 62
7
100
AcDbPolyline
 90
2
 70
0
 10
1060.098190
 20
914.051550
 30
0.0
 10
1105.452520
 20
914.051550
 30
0.0
  0
LWPOLYLINE
  5
196
100
AcDbEntity
  8
0
 62
7
100
AcDbPolyline
 90
3
 70
0
 10
1105.452520
 20
701.453125
 30
0.0
 10
997.735985
 20
701.453125
 30
0.0
 10
997.735985
 20
914.051550
 30
0.0
  0
SPLINE
  5
197
100
AcDbEntity
  8
0
 62
7
100
AcDbSpline
 70
8
 71
3
 72
8
 73
4
 74
0
 40
0
 40
0
 40
0
 40
0
 40
1
 40
1
 40
1
 40
1
 10
672.963228
 20
148.802949
 30
0.0
 10
672.965753
 20
172.603584
 30
0.0
 10
660.269716
 20
194.597359
 30
0.0
 10
639.658182
 20
206.498406
 30
0.0
  0
SPLINE
  5
198
100
AcDbEntity
  8
0
 62
7
100
AcDbSpline
 70
8
 71
3
 72
8
 73
4
 74
0
 40
0
 40
0
 40
0
 40
0
 40
1
 40
1
 40
1
 40
1
 10
639.658182
 20
206.498406
 30
0.0
 10
619.046648
 20
218.399453
 30
0.0
 10
593.651462
 20
218.399453
 30
0.0
 10
573.039928
 20
206.498406
 30
0.0
  0
SPLINE
  5
199
100
AcDbEntity
  8
0
 62
7
100
AcDbSpline
 70
8
 71
3
 72
8
 73
4
 74
0
 40
0
 40
0
 40
0
 40
0
 40
1
 40
1
 40
1
 40
1
 10
573.039928
 20
206.498406
 30
0.0
 10
552.428394
 20
194.597359
 30
0.0
 10
539.732356
 20
172.603584
 30
0.0
 10
539.734882
 20
148.802949
 30
0.0
  0
SPLINE
  5
19a
100
AcDbEntity
  8
0
 62
7
100
AcDbSpline
 70
8
 71
3
 72
8
 73
4
 74
0
 40
0
 40
0
 40
0
 40
0
 40
1
 40
1
 40
1
 40
1
 10
539.734882
 20
148.802949
 30
0.0
 10
539.732356
 20
125.002314
 30
0.0
 10
552.428394
 20
103.008539
 30
0.0
 10
573.039928
 20
91.107492
 30
0.0
  0
SPLINE
  5
19b
100
AcDbEntity
  8
0
 62
7
100
AcDbSpline
 70
8
 71
3
 72
8
 73
4
 74
0
 40
0
 40
0
 40
0
 40
0
 40
1
 40
1
 40
1
 40
1
 10
573.039928
 20
91.107492
 30
0.0
 10
593.651462
 20
79.206446
 30
0.0
 10
619.046648
 20
79.206446
 30
0.0
 10
639.658182
 20
91.107492
 30
0.0
  0
SPLINE
  5
19c
100
AcDbEntity
  8
0
 62
7
100
AcDbSpline
 70
8
 71
3
 72
8
 73
4
 74
0
 40
0
 40
0
 40
0
 40
0
 40
1
 40
1
 40
1
 40
1
 10
639.658182
 20
91.107492
 30
0.0
 10
660.269716
 20
103.008539
 30
0.0
 10
672.965753
 20
125.002314
 30
0.0
 10
672.963228
 20
148.802949
 30
0.0
  0
LWPOLYLINE
  5
19d
100
AcDbEntity
  8
0
 62
7
100
AcDbPolyline
 90
2
 70
0
 10
1105.452520
 20
914.051550
 30
0.0
 10
1105.452520
 20
701.453125
 30
0.0
  0
SPLINE
  5
19e
100
AcDbEntity
  8
0
 62
7
100
AcDbSpline
 70
8
 71
3
 72
8
 73
4
 74
0
 40
0
 40
0
 40
0
 40
0
 40
1
 40
1
 40
1
 40
1
 10
614.706497
 20
228.932322
 30
0.0
 10
614.706497
 20
230.552676
 30
0.0
 10
613.842048
 20
232.049945
 30
0.0
 10
612.438780
 20
232.860122
 30
0.0
  0
SPLINE
  5
19f
100
AcDbEntity
  8
0
 62
7
100
AcDbSpline
 70
8
 71
3
 72
8
 73
4
 74
0
 40
0
 40
0
 40
0
 40
0
 40
1
 40
1
 40
1
 40
1
 10
612.438780
 20
232.860122
 30
0.0
 10
611.035513
 20
233.670299
 30
0.0
 10
609.306615
 20
233.670299
 30
0.0
 10
607.903347
 20
232.860122
 30
0.0
  0
SPLINE
  5
1a0
100
AcDbEntity
  8
0
 62
7
100
AcDbSpline
 70
8
 71
3
 72
8
 73
4
 74
0
 40
0
 40
0
 40
0
 40
0
 40
1
 40
1
 40
1
 40
1
 10
607.903347
 20
232.860122
 30
0.0
 10
606.500080
 20
232.049945
 30
0.0
 10
605.635631
 20
230.552676
 30
0.0
 10
605.635631
 20
228.932322
 30
0.0
  0
SPLINE
  5
1a1
100
AcDbEntity
  8
0
 62
7
100
AcDbSpline
 70
8
 71
3
 72
8
 73
4
 74
0
 40
0
 40
0
 40
0
 40
0
 40
1
 40
1
 40
1
 40
1
 10
605.635631
 20
228.932322
 30
0.0
 10
605.635631
 20
227.311968
 30
0.0
 10
606.500080
 20
225.814699
 30
0.0
 10
607.903348
 20
225.004522
 30
0.0
  0
SPLINE
  5
1a2
100
AcDbEntity
  8
0
 62
7
100
AcDbSpline
 70
8
 71
3
 72
8
 73
4
 74
0
 40
0
 40
0
 40
0
 40
0
 40
1
 40
1
 40
1
 40
1
 10
607.903348
 20
225.004522
 30
0.0
 10
609.306615
 20
224.194345
 30
0.0
 10
611.035513
 20
224.194345
 30
0.0
 10
612.438781
 20
225.004522
 30
0.0
  0
SPLINE
  5
1a3
100
AcDbEntity
  8
0
 62
7
100
AcDbSpline
 70
8
 71
3
 72
8
 73
4
 74
0
 40
0
 40
0
 40
0
 40
0
 40
1
 40
1
 40
1
 40
1
 10
612.438781
 20
225.004522
 30
0.0
 10
613.842048
 20
225.814699
 30
0.0
 10
614.706497
 20
227.311968
 30
0.0
 10
614.706497
 20
228.932322
 30
0.0
  0
LWPOLYLINE
  5
1a4
100
AcDbEntity
  8
0
 62
7
100
AcDbPolyline
 90
1
 70
1
 10
672.963228
 20
148.802949
 30
0.0
  0
SPLINE
  5
1a5
100
AcDbEntity
  8
0
 62
7
100
AcDbSpline
 70
8
 71
3
 72
8
 73
4
 74
0
 40
0
 40
0
 40
0
 40
0
 40
1
 40
1
 40
1
 40
1
 10
539.579411
 20
112.048220
 30
0.0
 10
539.579411
 20
113.668574
 30
0.0
 10
538.714962
 20
115.165843
 30
0.0
 10
537.311694
 20
115.976020
 30
0.0
  0
SPLINE
  5
1a6
100
AcDbEntity
  8
0
 62
7
100
AcDbSpline
 70
8
 71
3
 72
8
 73
4
 74
0
 40
0
 40
0
 40
0
 40
0
 40
1
 40
1
 40
1
 40
1
 10
537.311694
 20
115.976020
 30
0.0
 10
535.908426
 20
116.786197
 30
0.0
 10
534.179529
 20
116.786197
 30
0.0
 10
532.776261
 20
115.976020
 30
0.0
  0
SPLINE
  5
1a7
100
AcDbEntity
  8
0
 62
7
100
AcDbSpline
 70
8
 71
3
 72
8
 73
4
 74
0
 40
0
 40
0
 40
0
 40
0
 40
1
 40
1
 40
1
 40
1
 10
532.776261
 20
115.976020
 30
0.0
 10
531.372993
 20
115.165843
 30
0.0
 10
530.508544
 20
113.668574
 30
0.0
 10
530.508545
 20
112.048220
 30
0.0
  0
SPLINE
  5
1a8
100
AcDbEntity
  8
0
 62
7
100
AcDbSpline
 70
8
 71
3
 72
8
 73
4
 74
0
 40
0
 40
0
 40
0
 40
0
 40
1
 40
1
 40
1
 40
1
 10
530.508545
 20
112.048220
 30
0.0
 10
530.508544
 20
110.427865
 30
0.0
 10
531.372993
 20
108.930596
 30
0.0
 10
532.776261
 20
108.120419
 30
0.0
  0
SPLINE
  5
1a9
100
AcDbEntity
  8
0
 62
7
100
AcDbSpline
 70
8
 71
3
 72
8
 73
4
 74
0
 40
0
 40
0
 40
0
 40
0
 40
1
 40
1
 40
1
 40
1
 10
532.776261
 20
108.120419
 30
0.0
 10
534.179529
 20
107.310241
 30
0.0
 10
535.908426
 20
107.310241
 30
0.0
 10
537.311694
 20
108.120419
 30
0.0
  0
SPLINE
  5
1aa
100
AcDbEntity
  8
0
 62
7
100
AcDbSpline
 70
8
 71
3
 72
8
 73
4
 74
0
 40
0
 40
0
 40
0
 40
0
 40
1
 40
1
 40
1
 40
1
 10
537.311694
 20
108.120419
 30
0.0
 10
538.714962
 20
108.930596
 30
0.0
 10
539.579411
 20
110.427865
 30
0.0
 10
539.579410
 20
112.048220
 30
0.0
  0
LWPOLYLINE
  5
1ab
100
AcDbEntity
  8
0
 62
7
100
AcDbPolyline
 90
1
 70
1
 10
614.706497
 20
228.932322
 30
0.0
  0
SPLINE
  5
1ac
100
AcDbEntity
  8
0
 62
7
100
AcDbSpline
 70
8
 71
3
 72
8
 73
4
 74
0
 40
0
 40
0
 40
0
 40
0
 40
1
 40
1
 40
1
 40
1
 10
678.367556
 20
105.428306
 30
0.0
 10
678.367556
 20
107.048660
 30
0.0
 10
677.503108
 20
108.545929
 30
0.0
 10
676.099840
 20
109.356106
 30
0.0
  0
SPLINE
  5
1ad
100
AcDbEntity
  8
0
 62
7
100
AcDbSpline
 70
8
 71
3
 72
8
 73
4
 74
0
 40
0
 40
0
 40
0
 40
0
 40
1
 40
1
 40
1
 40
1
 10
676.099840
 20
109.356106
 30
0.0
 10
674.696572
 20
110.166283
 30
0.0
 10
672.967675
 20
110.166283
 30
0.0
 10
671.564407
 20
109.356106
 30
0.0
  0
SPLINE
  5
1ae
100
AcDbEntity
  8
0
 62
7
100
AcDbSpline
 70
8
 71
3
 72
8
 73
4
 74
0
 40
0
 40
0
 40
0
 40
0
 40
1
 40
1
 40
1
 40
1
 10
671.564407
 20
109.356106
 30
0.0
 10
670.161139
 20
108.545929
 30
0.0
 10
669.296690
 20
107.048660
 30
0.0
 10
669.296690
 20
105.428306
 30
0.0
  0
SPLINE
  5
1af
100
AcDbEntity
  8
0
 62
7
100
AcDbSpline
 70
8
 71
3
 72
8
 73
4
 74
0
 40
0
 40
0
 40
0
 40
0
 40
1
 40
1
 40
1
 40
1
 10
669.296690
 20
105.428306
 30
0.0
 10
669.296690
 20
103.807951
 30
0.0
 10
670.161139
 20
102.310682
 30
0.0
 10
671.564407
 20
101.500505
 30
0.0
  0
SPLINE
  5
1b0
100
AcDbEntity
  8
0
 62
7
100
AcDbSpline
 70
8
 71
3
 72
8
 73
4
 74
0
 40
0
 40
0
 40
0
 40
0
 40
1
 40
1
 40
1
 40
1
 10
671.564407
 20
101.500505
 30
0.0
 10
672.967674
 20
100.690327
 30
0.0
 10
674.696572
 20
100.690327
 30
0.0
 10
676.099840
 20
101.500505
 30
0.0
  0
SPLINE
  5
1b1
100
AcDbEntity
  8
0
 62
7
100
AcDbSpline
 70
8
 71
3
 72
8
 73
4
 74
0
 40
0
 40
0
 40
0
 40
0
 40
1
 40
1
 40
1
 40
1
 10
676.099840
 20
101.500505
 30
0.0
 10
677.503108
 20
102.310682
 30
0.0
 10
678.367557
 20
103.807951
 30
0.0
 10
678.367556
 20
105.428306
 30
0.0
  0
LWPOLYLINE
  5
1b2
100
AcDbEntity
  8
0
 62
7
100
AcDbPolyline
 90
1
 70
1
 10
539.579410
 20
112.048220
 30
0.0
  0
SPLINE
  5
1b3
100
AcDbEntity
  8
0
 62
7
100
AcDbSpline
 70
8
 71
3
 72
8
 73
4
 74
0
 40
0
 40
0
 40
0
 40
0
 40
1
 40
1
 40
1
 40
1
 10
96.724381
 20
878.858028
 30
0.0
 10
96.724381
 20
880.377110
 30
0.0
 10
95.913961
 20
881.780800
 30
0.0
 10
94.598397
 20
882.540341
 30
0.0
  0
SPLINE
  5
1b4
100
AcDbEntity
  8
0
 62
7
100
AcDbSpline
 70
8
 71
3
 72
8
 73
4
 74
0
 40
0
 40
0
 40
0
 40
0
 40
1
 40
1
 40
1
 40
1
 10
94.598397
 20
882.540341
 30
0.0
 10
93.282833
 20
883.299882
 30
0.0
 10
91.661992
 20
883.299882
 30
0.0
 10
90.346429
 20
882.540341
 30
0.0
  0
SPLINE
  5
1b5
100
AcDbEntity
  8
0
 62
7
100
AcDbSpline
 70
8
 71
3
 72
8
 73
4
 74
0
 40
0
 40
0
 40
0
 40
0
 40
1
 40
1
 40
1
 40
1
 10
90.346429
 20
882.540341
 30
0.0
 10
89.030865
 20
881.780800
 30
0.0
 10
88.220445
 20
880.377110
 30
0.0
 10
88.220445
 20
878.858028
 30
0.0
  0
SPLINE
  5
1b6
100
AcDbEntity
  8
0
 62
7
100
AcDbSpline
 70
8
 71
3
 72
8
 73
4
 74
0
 40
0
 40
0
 40
0
 40
0
 40
1
 40
1
 40
1
 40
1
 10
88.220445
 20
878.858028
 30
0.0
 10
88.220445
 20
877.338946
 30
0.0
 10
89.030865
 20
875.935256
 30
0.0
 10
90.346429
 20
875.175716
 30
0.0
  0
SPLINE
  5
1b7
100
AcDbEntity
  8
0
 62
7
100
AcDbSpline
 70
8
 71
3
 72
8
 73
4
 74
0
 40
0
 40
0
 40
0
 40
0
 40
1
 40
1
 40
1
 40
1
 10
90.346429
 20
875.175716
 30
0.0
 10
91.661992
 20
874.416175
 30
0.0
 10
93.282834
 20
874.416175
 30
0.0
 10
94.598397
 20
875.175716
 30
0.0
  0
SPLINE
  5
1b8
100
AcDbEntity
  8
0
 62
7
100
AcDbSpline
 70
8
 71
3
 72
8
 73
4
 74
0
 40
0
 40
0
 40
0
 40
0
 40
1
 40
1
 40
1
 40
1
 10
94.598397
 20
875.175716
 30
0.0
 10
95.913961
 20
875.935256
 30
0.0
 10
96.724381
 20
877.338946
 30
0.0
 10
96.724381
 20
878.858028
 30
0.0
  0
LWPOLYLINE
  5
1b9
100
AcDbEntity
  8
0
 62
7
100
AcDbPolyline
 90
1
 70
1
 10
678.367556
 20
105.428306
 30
0.0
  0
SPLINE
  5
1ba
100
AcDbEntity
  8
0
 62
7
100
AcDbSpline
 70
8
 71
3
 72
8
 73
4
 74
0
 40
0
 40
0
 40
0
 40
0
 40
1
 40
1
 40
1
 40
1
 10
225.942064
 20
880.293780
 30
0.0
 10
225.942064
 20
881.812862
 30
0.0
 10
225.131643
 20
883.216552
 30
0.0
 10
223.816080
 20
883.976093
 30
0.0
  0
SPLINE
  5
1bb
100
AcDbEntity
  8
0
 62
7
100
AcDbSpline
 70
8
 71
3
 72
8
 73
4
 74
0
 40
0
 40
0
 40
0
 40
0
 40
1
 40
1
 40
1
 40
1
 10
223.816080
 20
883.976093
 30
0.0
 10
222.500516
 20
884.735634
 30
0.0
 10
220.879675
 20
884.735634
 30
0.0
 10
219.564111
 20
883.976093
 30
0.0
  0
SPLINE
  5
1bc
100
AcDbEntity
  8
0
 62
7
100
AcDbSpline
 70
8
 71
3
 72
8
 73
4
 74
0
 40
0
 40
0
 40
0
 40
0
 40
1
 40
1
 40
1
 40
1
 10
219.564111
 20
883.976093
 30
0.0
 10
218.248548
 20
883.216552
 30
0.0
 10
217.438127
 20
881.812862
 30
0.0
 10
217.438127
 20
880.293780
 30
0.0
  0
SPLINE
  5
1bd
100
AcDbEntity
  8
0
 62
7
100
AcDbSpline
 70
8
 71
3
 72
8
 73
4
 74
0
 40
0
 40
0
 40
0
 40
0
 40
1
 40
1
 40
1
 40
1
 10
217.438127
 20
880.293780
 30
0.0
 10
217.438127
 20
878.774698
 30
0.0
 10
218.248548
 20
877.371008
 30
0.0
 10
219.564111
 20
876.611467
 30
0.0
  0
SPLINE
  5
1be
100
AcDbEntity
  8
0
 62
7
100
AcDbSpline
 70
8
 71
3
 72
8
 73
4
 74
0
 40
0
 40
0
 40
0
 40
0
 40
1
 40
1
 40
1
 40
1
 10
219.564111
 20
876.611467
 30
0.0
 10
220.879675
 20
875.851926
 30
0.0
 10
222.500516
 20
875.851926
 30
0.0
 10
223.816080
 20
876.611467
 30
0.0
  0
SPLINE
  5
1bf
100
AcDbEntity
  8
0
 62
7
100
AcDbSpline
 70
8
 71
3
 72
8
 73
4
 74
0
 40
0
 40
0
 40
0
 40
0
 40
1
 40
1
 40
1
 40
1
 10
223.816080
 20
876.611467
 30
0.0
 10
225.131643
 20
877.371008
 30
0.0
 10
225.942064
 20
878.774698
 30
0.0
 10
225.942064
 20
880.293780
 30
0.0
  0
LWPOLYLINE
  5
1c0
100
AcDbEntity
  8
0
 62
7
100
AcDbPolyline
 90
1
 70
1
 10
96.724381
 20
878.858028
 30
0.0
  0
SPLINE
  5
1c1
100
AcDbEntity
  8
0
 62
7
100
AcDbSpline
 70
8
 71
3
 72
8
 73
4
 74
0
 40
0
 40
0
 40
0
 40
0
 40
1
 40
1
 40
1
 40
1
 10
290.771285
 20
654.528044
 30
0.0
 10
290.771285
 20
656.047126
 30
0.0
 10
289.960864
 20
657.450816
 30
0.0
 10
288.645301
 20
658.210357
 30
0.0
  0
SPLINE
  5
1c2
100
AcDbEntity
  8
0
 62
7
100
AcDbSpline
 70
8
 71
3
 72
8
 73
4
 74
0
 40
0
 40
0
 40
0
 40
0
 40
1
 40
1
 40
1
 40
1
 10
288.645301
 20
658.210357
 30
0.0
 10
287.329737
 20
658.969898
 30
0.0
 10
285.708896
 20
658.969898
 30
0.0
 10
284.393332
 20
658.210357
 30
0.0
  0
SPLINE
  5
1c3
100
AcDbEntity
  8
0
 62
7
100
AcDbSpline
 70
8
 71
3
 72
8
 73
4
 74
0
 40
0
 40
0
 40
0
 40
0
 40
1
 40
1
 40
1
 40
1
 10
284.393332
 20
658.210357
 30
0.0
 10
283.077769
 20
657.450816
 30
0.0
 10
282.267348
 20
656.047126
 30
0.0
 10
282.267349
 20
654.528044
 30
0.0
  0
SPLINE
  5
1c4
100
AcDbEntity
  8
0
 62
7
100
AcDbSpline
 70
8
 71
3
 72
8
 73
4
 74
0
 40
0
 40
0
 40
0
 40
0
 40
1
 40
1
 40
1
 40
1
 10
282.267349
 20
654.528044
 30
0.0
 10
282.267349
 20
653.008962
 30
0.0
 10
283.077769
 20
651.605273
 30
0.0
 10
284.393333
 20
650.845732
 30
0.0
  0
SPLINE
  5
1c5
100
AcDbEntity
  8
0
 62
7
100
AcDbSpline
 70
8
 71
3
 72
8
 73
4
 74
0
 40
0
 40
0
 40
0
 40
0
 40
1
 40
1
 40
1
 40
1
 10
284.393333
 20
650.845732
 30
0.0
 10
285.708896
 20
650.086191
 30
0.0
 10
287.329737
 20
650.086191
 30
0.0
 10
288.645301
 20
650.845732
 30
0.0
  0
SPLINE
  5
1c6
100
AcDbEntity
  8
0
 62
7
100
AcDbSpline
 70
8
 71
3
 72
8
 73
4
 74
0
 40
0
 40
0
 40
0
 40
0
 40
1
 40
1
 40
1
 40
1
 10
288.645301
 20
650.845732
 30
0.0
 10
289.960864
 20
651.605273
 30
0.0
 10
290.771285
 20
653.008962
 30
0.0
 10
290.771285
 20
654.528044
 30
0.0
  0
LWPOLYLINE
  5
1c7
100
AcDbEntity
  8
0
 62
7
100
AcDbPolyline
 90
1
 70
1
 10
225.942064
 20
880.293780
 30
0.0
  0
SPLINE
  5
1c8
100
AcDbEntity
  8
0
 62
7
100
AcDbSpline
 70
8
 71
3
 72
8
 73
4
 74
0
 40
0
 40
0
 40
0
 40
0
 40
1
 40
1
 40
1
 40
1
 10
133.684864
 20
582.530709
 30
0.0
 10
133.684864
 20
584.049791
 30
0.0
 10
132.874443
 20
585.453481
 30
0.0
 10
131.558880
 20
586.213022
 30
0.0
  0
SPLINE
  5
1c9
100
AcDbEntity
  8
0
 62
7
100
AcDbSpline
 70
8
 71
3
 72
8
 73
4
 74
0
 40
0
 40
0
 40
0
 40
0
 40
1
 40
1
 40
1
 40
1
 10
131.558880
 20
586.213022
 30
0.0
 10
130.243316
 20
586.972563
 30
0.0
 10
128.622475
 20
586.972563
 30
0.0
 10
127.306911
 20
586.213022
 30
0.0
  0
SPLINE
  5
1ca
100
AcDbEntity
  8
0
 62
7
100
AcDbSpline
 70
8
 71
3
 72
8
 73
4
 74
0
 40
0
 40
0
 40
0
 40
0
 40
1
 40
1
 40
1
 40
1
 10
127.306911
 20
586.213022
 30
0.0
 10
125.991348
 20
585.453481
 30
0.0
 10
125.180927
 20
584.049791
 30
0.0
 10
125.180927
 20
582.530709
 30
0.0
  0
SPLINE
  5
1cb
100
AcDbEntity
  8
0
 62
7
100
AcDbSpline
 70
8
 71
3
 72
8
 73
4
 74
0
 40
0
 40
0
 40
0
 40
0
 40
1
 40
1
 40
1
 40
1
 10
125.180927
 20
582.530709
 30
0.0
 10
125.180927
 20
581.011627
 30
0.0
 10
125.991348
 20
579.607937
 30
0.0
 10
127.306911
 20
578.848396
 30
0.0
  0
SPLINE
  5
1cc
100
AcDbEntity
  8
0
 62
7
100
AcDbSpline
 70
8
 71
3
 72
8
 73
4
 74
0
 40
0
 40
0
 40
0
 40
0
 40
1
 40
1
 40
1
 40
1
 10
127.306911
 20
578.848396
 30
0.0
 10
128.622475
 20
578.088855
 30
0.0
 10
130.243316
 20
578.088855
 30
0.0
 10
131.558880
 20
578.848396
 30
0.0
  0
SPLINE
  5
1cd
100
AcDbEntity
  8
0
 62
7
100
AcDbSpline
 70
8
 71
3
 72
8
 73
4
 74
0
 40
0
 40
0
 40
0
 40
0
 40
1
 40
1
 40
1
 40
1
 10
131.558880
 20
578.848396
 30
0.0
 10
132.874443
 20
579.607937
 30
0.0
 10
133.684864
 20
581.011627
 30
0.0
 10
133.684864
 20
582.530709
 30
0.0
  0
LWPOLYLINE
  5
1ce
100
AcDbEntity
  8
0
 62
7
100
AcDbPolyline
 90
1
 70
1
 10
290.771285
 20
654.528044
 30
0.0
  0
SPLINE
  5
1cf
100
AcDbEntity
  8
0
 62
7
100
AcDbSpline
 70
8
 71
3
 72
8
 73
4
 74
0
 40
0
 40
0
 40
0
 40
0
 40
1
 40
1
 40
1
 40
1
 10
1123.664280
 20
878.858028
 30
0.0
 10
1123.664280
 20
880.377110
 30
0.0
 10
1122.853860
 20
881.780800
 30
0.0
 10
1121.538296
 20
882.540341
 30
0.0
  0
SPLINE
  5
1d0
100
AcDbEntity
  8
0
 62
7
100
AcDbSpline
 70
8
 71
3
 72
8
 73
4
 74
0
 40
0
 40
0
 40
0
 40
0
 40
1
 40
1
 40
1
 40
1
 10
1121.538296
 20
882.540341
 30
0.0
 10
1120.222732
 20
883.299883
 30
0.0
 10
1118.601891
 20
883.299883
 30
0.0
 10
1117.286327
 20
882.540341
 30
0.0
  0
SPLINE
  5
1d1
100
AcDbEntity
  8
0
 62
7
100
AcDbSpline
 70
8
 71
3
 72
8
 73
4
 74
0
 40
0
 40
0
 40
0
 40
0
 40
1
 40
1
 40
1
 40
1
 10
1117.286327
 20
882.540341
 30
0.0
 10
1115.970764
 20
881.780800
 30
0.0
 10
1115.160343
 20
880.377110
 30
0.0
 10
1115.160343
 20
878.858028
 30
0.0
  0
SPLINE
  5
1d2
100
AcDbEntity
  8
0
 62
7
100
AcDbSpline
 70
8
 71
3
 72
8
 73
4
 74
0
 40
0
 40
0
 40
0
 40
0
 40
1
 40
1
 40
1
 40
1
 10
1115.160343
 20
878.858028
 30
0.0
 10
1115.160343
 20
877.338946
 30
0.0
 10
1115.970764
 20
875.935256
 30
0.0
 10
1117.286328
 20
875.175716
 30
0.0
  0
SPLINE
  5
1d3
100
AcDbEntity
  8
0
 62
7
100
AcDbSpline
 70
8
 71
3
 72
8
 73
4
 74
0
 40
0
 40
0
 40
0
 40
0
 40
1
 40
1
 40
1
 40
1
 10
1117.286328
 20
875.175716
 30
0.0
 10
1118.601891
 20
874.416175
 30
0.0
 10
1120.222732
 20
874.416175
 30
0.0
 10
1121.538296
 20
875.175716
 30
0.0
  0
SPLINE
  5
1d4
100
AcDbEntity
  8
0
 62
7
100
AcDbSpline
 70
8
 71
3
 72
8
 73
4
 74
0
 40
0
 40
0
 40
0
 40
0
 40
1
 40
1
 40
1
 40
1
 10
1121.538296
 20
875.175716
 30
0.0
 10
1122.853859
 20
875.935256
 30
0.0
 10
1123.664280
 20
877.338946
 30
0.0
 10
1123.664280
 20
878.858028
 30
0.0
  0
LWPOLYLINE
  5
1d5
100
AcDbEntity
  8
0
 62
7
100
AcDbPolyline
 90
1
 70
1
 10
133.684864
 20
582.530709
 30
0.0
  0
SPLINE
  5
1d6
100
AcDbEntity
  8
0
 62
7
100
AcDbSpline
 70
8
 71
3
 72
8
 73
4
 74
0
 40
0
 40
0
 40
0
 40
0
 40
1
 40
1
 40
1
 40
1
 10
994.446597
 20
880.293780
 30
0.0
 10
994.446597
 20
881.812862
 30
0.0
 10
993.636177
 20
883.216552
 30
0.0
 10
992.320613
 20
883.976093
 30
0.0
  0
SPLINE
  5
1d7
100
AcDbEntity
  8
0
 62
7
100
AcDbSpline
 70
8
 71
3
 72
8
 73
4
 74
0
 40
0
 40
0
 40
0
 40
0
 40
1
 40
1
 40
1
 40
1
 10
992.320613
 20
883.976093
 30
0.0
 10
991.005049
 20
884.735634
 30
0.0
 10
989.384208
 20
884.735634
 30
0.0
 10
988.068644
 20
883.976093
 30
0.0
  0
SPLINE
  5
1d8
100
AcDbEntity
  8
0
 62
7
100
AcDbSpline
 70
8
 71
3
 72
8
 73
4
 74
0
 40
0
 40
0
 40
0
 40
0
 40
1
 40
1
 40
1
 40
1
 10
988.068644
 20
883.976093
 30
0.0
 10
986.753081
 20
883.216552
 30
0.0
 10
985.942660
 20
881.812862
 30
0.0
 10
985.942661
 20
880.293780
 30
0.0
  0
SPLINE
  5
1d9
100
AcDbEntity
  8
0
 62
7
100
AcDbSpline
 70
8
 71
3
 72
8
 73
4
 74
0
 40
0
 40
0
 40
0
 40
0
 40
1
 40
1
 40
1
 40
1
 10
985.942661
 20
880.293780
 30
0.0
 10
985.942660
 20
878.774698
 30
0.0
 10
986.753081
 20
877.371008
 30
0.0
 10
988.068644
 20
876.611467
 30
0.0
  0
SPLINE
  5
1da
100
AcDbEntity
  8
0
 62
7
100
AcDbSpline
 70
8
 71
3
 72
8
 73
4
 74
0
 40
0
 40
0
 40
0
 40
0
 40
1
 40
1
 40
1
 40
1
 10
988.068644
 20
876.611467
 30
0.0
 10
989.384208
 20
875.851926
 30
0.0
 10
991.005049
 20
875.851926
 30
0.0
 10
992.320613
 20
876.611467
 30
0.0
  0
SPLINE
  5
1db
100
AcDbEntity
  8
0
 62
7
100
AcDbSpline
 70
8
 71
3
 72
8
 73
4
 74
0
 40
0
 40
0
 40
0
 40
0
 40
1
 40
1
 40
1
 40
1
 10
992.320613
 20
876.611467
 30
0.0
 10
993.636177
 20
877.371008
 30
0.0
 10
994.446597
 20
878.774698
 30
0.0
 10
994.446597
 20
880.293780
 30
0.0
  0
LWPOLYLINE
  5
1dc
100
AcDbEntity
  8
0
 62
7
100
AcDbPolyline
 90
1
 70
1
 10
1123.664280
 20
878.858028
 30
0.0
  0
SPLINE
  5
1dd
100
AcDbEntity
  8
0
 62
7
100
AcDbSpline
 70
8
 71
3
 72
8
 73
4
 74
0
 40
0
 40
0
 40
0
 40
0
 40
1
 40
1
 40
1
 40
1
 10
929.617376
 20
654.528044
 30
0.0
 10
929.617376
 20
656.047126
 30
0.0
 10
928.806955
 20
657.450816
 30
0.0
 10
927.491392
 20
658.210357
 30
0.0
  0
SPLINE
  5
1de
100
AcDbEntity
  8
0
 62
7
100
AcDbSpline
 70
8
 71
3
 72
8
 73
4
 74
0
 40
0
 40
0
 40
0
 40
0
 40
1
 40
1
 40
1
 40
1
 10
927.491392
 20
658.210357
 30
0.0
 10
926.175828
 20
658.969898
 30
0.0
 10
924.554987
 20
658.969898
 30
0.0
 10
923.239424
 20
658.210357
 30
0.0
  0
SPLINE
  5
1df
100
AcDbEntity
  8
0
 62
7
100
AcDbSpline
 70
8
 71
3
 72
8
 73
4
 74
0
 40
0
 40
0
 40
0
 40
0
 40
1
 40
1
 40
1
 40
1
 10
923.239424
 20
658.210357
 30
0.0
 10
921.923860
 20
657.450816
 30
0.0
 10
921.113439
 20
656.047126
 30
0.0
 10
921.113440
 20
654.528044
 30
0.0
  0
SPLINE
  5
1e0
100
AcDbEntity
  8
0
 62
7
100
AcDbSpline
 70
8
 71
3
 72
8
 73
4
 74
0
 40
0
 40
0
 40
0
 40
0
 40
1
 40
1
 40
1
 40
1
 10
921.113440
 20
654.528044
 30
0.0
 10
921.113440
 20
653.008962
 30
0.0
 10
921.923860
 20
651.605273
 30
0.0
 10
923.239424
 20
650.845732
 30
0.0
  0
SPLINE
  5
1e1
100
AcDbEntity
  8
0
 62
7
100
AcDbSpline
 70
8
 71
3
 72
8
 73
4
 74
0
 40
0
 40
0
 40
0
 40
0
 40
1
 40
1
 40
1
 40
1
 10
923.239424
 20
650.845732
 30
0.0
 10
924.554987
 20
650.086191
 30
0.0
 10
926.175828
 20
650.086191
 30
0.0
 10
927.491392
 20
650.845732
 30
0.0
  0
SPLINE
  5
1e2
100
AcDbEntity
  8
0
 62
7
100
AcDbSpline
 70
8
 71
3
 72
8
 73
4
 74
0
 40
0
 40
0
 40
0
 40
0
 40
1
 40
1
 40
1
 40
1
 10
927.491392
 20
650.845732
 30
0.0
 10
928.806955
 20
651.605273
 30
0.0
 10
929.617376
 20
653.008962
 30
0.0
 10
929.617376
 20
654.528044
 30
0.0
  0
LWPOLYLINE
  5
1e3
100
AcDbEntity
  8
0
 62
7
100
AcDbPolyline
 90
1
 70
1
 10
994.446597
 20
880.293780
 30
0.0
  0
SPLINE
  5
1e4
100
AcDbEntity
  8
0
 62
7
100
AcDbSpline
 70
8
 71
3
 72
8
 73
4
 74
0
 40
0
 40
0
 40
0
 40
0
 40
1
 40
1
 40
1
 40
1
 10
1086.703797
 20
582.530709
 30
0.0
 10
1086.703797
 20
584.049791
 30
0.0
 10
1085.893377
 20
585.453481
 30
0.0
 10
1084.577813
 20
586.213022
 30
0.0
  0
SPLINE
  5
1e5
100
AcDbEntity
  8
0
 62
7
100
AcDbSpline
 70
8
 71
3
 72
8
 73
4
 74
0
 40
0
 40
0
 40
0
 40
0
 40
1
 40
1
 40
1
 40
1
 10
1084.577813
 20
586.213022
 30
0.0
 10
1083.262250
 20
586.972563
 30
0.0
 10
1081.641409
 20
586.972563
 30
0.0
 10
1080.325845
 20
586.213022
 30
0.0
  0
SPLINE
  5
1e6
100
AcDbEntity
  8
0
 62
7
100
AcDbSpline
 70
8
 71
3
 72
8
 73
4
 74
0
 40
0
 40
0
 40
0
 40
0
 40
1
 40
1
 40
1
 40
1
 10
1080.325845
 20
586.213022
 30
0.0
 10
1079.010281
 20
585.453481
 30
0.0
 10
1078.199861
 20
584.049791
 30
0.0
 10
1078.199861
 20
582.530709
 30
0.0
  0
SPLINE
  5
1e7
100
AcDbEntity
  8
0
 62
7
100
AcDbSpline
 70
8
 71
3
 72
8
 73
4
 74
0
 40
0
 40
0
 40
0
 40
0
 40
1
 40
1
 40
1
 40
1
 10
1078.199861
 20
582.530709
 30
0.0
 10
1078.199861
 20
581.011627
 30
0.0
 10
1079.010282
 20
579.607937
 30
0.0
 10
1080.325845
 20
578.848397
 30
0.0
  0
SPLINE
  5
1e8
100
AcDbEntity
  8
0
 62
7
100
AcDbSpline
 70
8
 71
3
 72
8
 73
4
 74
0
 40
0
 40
0
 40
0
 40
0
 40
1
 40
1
 40
1
 40
1
 10
1080.325845
 20
578.848397
 30
0.0
 10
1081.641409
 20
578.088856
 30
0.0
 10
1083.262250
 20
578.088856
 30
0.0
 10
1084.577813
 20
578.848397
 30
0.0
  0
SPLINE
  5
1e9
100
AcDbEntity
  8
0
 62
7
100
AcDbSpline
 70
8
 71
3
 72
8
 73
4
 74
0
 40
0
 40
0
 40
0
 40
0
 40
1
 40
1
 40
1
 40
1
 10
1084.577813
 20
578.848397
 30
0.0
 10
1085.893377
 20
579.607937
 30
0.0
 10
1086.703798
 20
581.011627
 30
0.0
 10
1086.703798
 20
582.530709
 30
0.0
  0
LWPOLYLINE
  5
1ea
100
AcDbEntity
  8
0
 62
7
100
AcDbPolyline
 90
1
 70
1
 10
929.617376
 20
654.528044
 30
0.0
  0
LWPOLYLINE
  5
1eb
100
AcDbEntity
  8
0
 62
7
100
AcDbPolyline
 90
1
 70
1
 10
1086.703798
 20
582.530709
 30
0.0
  0
LWPOLYLINE
  5
1ec
100
AcDbEntity
  8
0
 62
7
100
AcDbPolyline
 90
2
 70
0
 10
214.148739
 20
731.514389
 30
0.0
 10
214.148739
 20
890.171578
 30
0.0
  0
SPLINE
  5
1ed
100
AcDbEntity
  8
0
 62
7
100
AcDbSpline
 70
8
 71
3
 72
8
 73
4
 74
0
 40
0
 40
0
 40
0
 40
0
 40
1
 40
1
 40
1
 40
1
 10
842.368661
 20
322.946330
 30
0.0
 10
842.368662
 20
324.465412
 30
0.0
 10
841.558241
 20
325.869102
 30
0.0
 10
840.242677
 20
326.628643
 30
0.0
  0
SPLINE
  5
1ee
100
AcDbEntity
  8
0
 62
7
100
AcDbSpline
 70
8
 71
3
 72
8
 73
4
 74
0
 40
0
 40
0
 40
0
 40
0
 40
1
 40
1
 40
1
 40
1
 10
840.242677
 20
326.628643
 30
0.0
 10
838.927114
 20
327.388185
 30
0.0
 10
837.306272
 20
327.388185
 30
0.0
 10
835.990709
 20
326.628643
 30
0.0
  0
SPLINE
  5
1ef
100
AcDbEntity
  8
0
 62
7
100
AcDbSpline
 70
8
 71
3
 72
8
 73
4
 74
0
 40
0
 40
0
 40
0
 40
0
 40
1
 40
1
 40
1
 40
1
 10
835.990709
 20
326.628643
 30
0.0
 10
834.675145
 20
325.869102
 30
0.0
 10
833.864724
 20
324.465412
 30
0.0
 10
833.864725
 20
322.946330
 30
0.0
  0
SPLINE
  5
1f0
100
AcDbEntity
  8
0
 62
7
100
AcDbSpline
 70
8
 71
3
 72
8
 73
4
 74
0
 40
0
 40
0
 40
0
 40
0
 40
1
 40
1
 40
1
 40
1
 10
833.864725
 20
322.946330
 30
0.0
 10
833.864724
 20
321.427248
 30
0.0
 10
834.675145
 20
320.023558
 30
0.0
 10
835.990709
 20
319.264017
 30
0.0
  0
SPLINE
  5
1f1
100
AcDbEntity
  8
0
 62
7
100
AcDbSpline
 70
8
 71
3
 72
8
 73
4
 74
0
 40
0
 40
0
 40
0
 40
0
 40
1
 40
1
 40
1
 40
1
 10
835.990709
 20
319.264017
 30
0.0
 10
837.306272
 20
318.504476
 30
0.0
 10
838.927114
 20
318.504476
 30
0.0
 10
840.242677
 20
319.264017
 30
0.0
  0
SPLINE
  5
1f2
100
AcDbEntity
  8
0
 62
7
100
AcDbSpline
 70
8
 71
3
 72
8
 73
4
 74
0
 40
0
 40
0
 40
0
 40
0
 40
1
 40
1
 40
1
 40
1
 10
840.242677
 20
319.264017
 30
0.0
 10
841.558241
 20
320.023558
 30
0.0
 10
842.368662
 20
321.427248
 30
0.0
 10
842.368661
 20
322.946330
 30
0.0
  0
LWPOLYLINE
  5
1f3
100
AcDbEntity
  8
0
 62
7
100
AcDbPolyline
 90
8
 70
1
 10
342.053701
 20
554.707769
 30
0.0
 10
342.053701
 20
563.211705
 30
0.0
 10
948.667874
 20
563.211705
 30
0.0
 10
948.667874
 20
356.962079
 30
0.0
 10
427.093071
 20
356.962079
 30
0.0
 10
356.226929
 20
381.794383
 30
0.0
 10
356.226929
 20
554.707769
 30
0.0
 10
342.053701
 20
554.707769
 30
0.0
  0
SPLINE
  5
1f4
100
AcDbEntity
  8
0
 62
7
100
AcDbSpline
 70
8
 71
3
 72
8
 73
4
 74
0
 40
0
 40
0
 40
0
 40
0
 40
1
 40
1
 40
1
 40
1
 10
981.266299
 20
543.369186
 30
0.0
 10
981.266299
 20
544.888268
 30
0.0
 10
980.455879
 20
546.291958
 30
0.0
 10
979.140315
 20
547.051499
 30
0.0
  0
SPLINE
  5
1f5
100
AcDbEntity
  8
0
 62
7
100
AcDbSpline
 70
8
 71
3
 72
8
 73
4
 74
0
 40
0
 40
0
 40
0
 40
0
 40
1
 40
1
 40
1
 40
1
 10
979.140315
 20
547.051499
 30
0.0
 10
977.824751
 20
547.811040
 30
0.0
 10
976.203910
 20
547.811040
 30
0.0
 10
974.888347
 20
547.051499
 30
0.0
  0
SPLINE
  5
1f6
100
AcDbEntity
  8
0
 62
7
100
AcDbSpline
 70
8
 71
3
 72
8
 73
4
 74
0
 40
0
 40
0
 40
0
 40
0
 40
1
 40
1
 40
1
 40
1
 10
974.888347
 20
547.051499
 30
0.0
 10
973.572783
 20
546.291958
 30
0.0
 10
972.762363
 20
544.888268
 30
0.0
 10
972.762363
 20
543.369186
 30
0.0
  0
SPLINE
  5
1f7
100
AcDbEntity
  8
0
 62
7
100
AcDbSpline
 70
8
 71
3
 72
8
 73
4
 74
0
 40
0
 40
0
 40
0
 40
0
 40
1
 40
1
 40
1
 40
1
 10
972.762363
 20
543.369186
 30
0.0
 10
972.762363
 20
541.850104
 30
0.0
 10
973.572783
 20
540.446414
 30
0.0
 10
974.888347
 20
539.686874
 30
0.0
  0
SPLINE
  5
1f8
100
AcDbEntity
  8
0
 62
7
100
AcDbSpline
 70
8
 71
3
 72
8
 73
4
 74
0
 40
0
 40
0
 40
0
 40
0
 40
1
 40
1
 40
1
 40
1
 10
974.888347
 20
539.686874
 30
0.0
 10
976.203910
 20
538.927333
 30
0.0
 10
977.824752
 20
538.927333
 30
0.0
 10
979.140315
 20
539.686874
 30
0.0
  0
SPLINE
  5
1f9
100
AcDbEntity
  8
0
 62
7
100
AcDbSpline
 70
8
 71
3
 72
8
 73
4
 74
0
 40
0
 40
0
 40
0
 40
0
 40
1
 40
1
 40
1
 40
1
 10
979.140315
 20
539.686874
 30
0.0
 10
980.455879
 20
540.446414
 30
0.0
 10
981.266299
 20
541.850104
 30
0.0
 10
981.266299
 20
543.369186
 30
0.0
  0
LWPOLYLINE
  5
1fa
100
AcDbEntity
  8
0
 62
7
100
AcDbPolyline
 90
1
 70
1
 10
842.368661
 20
322.946330
 30
0.0
  0
SPLINE
  5
1fb
100
AcDbEntity
  8
0
 62
7
100
AcDbSpline
 70
8
 71
3
 72
8
 73
4
 74
0
 40
0
 40
0
 40
0
 40
0
 40
1
 40
1
 40
1
 40
1
 10
334.967087
 20
540.534540
 30
0.0
 10
334.967087
 20
542.053622
 30
0.0
 10
334.156666
 20
543.457312
 30
0.0
 10
332.841103
 20
544.216853
 30
0.0
  0
SPLINE
  5
1fc
100
AcDbEntity
  8
0
 62
7
100
AcDbSpline
 70
8
 71
3
 72
8
 73
4
 74
0
 40
0
 40
0
 40
0
 40
0
 40
1
 40
1
 40
1
 40
1
 10
332.841103
 20
544.216853
 30
0.0
 10
331.525539
 20
544.976394
 30
0.0
 10
329.904698
 20
544.976394
 30
0.0
 10
328.589134
 20
544.216853
 30
0.0
  0
SPLINE
  5
1fd
100
AcDbEntity
  8
0
 62
7
100
AcDbSpline
 70
8
 71
3
 72
8
 73
4
 74
0
 40
0
 40
0
 40
0
 40
0
 40
1
 40
1
 40
1
 40
1
 10
328.589134
 20
544.216853
 30
0.0
 10
327.273570
 20
543.457312
 30
0.0
 10
326.463150
 20
542.053622
 30
0.0
 10
326.463150
 20
540.534540
 30
0.0
  0
SPLINE
  5
1fe
100
AcDbEntity
  8
0
 62
7
100
AcDbSpline
 70
8
 71
3
 72
8
 73
4
 74
0
 40
0
 40
0
 40
0
 40
0
 40
1
 40
1
 40
1
 40
1
 10
326.463150
 20
540.534540
 30
0.0
 10
326.463150
 20
539.015458
 30
0.0
 10
327.273570
 20
537.611768
 30
0.0
 10
328.589134
 20
536.852227
 30
0.0
  0
SPLINE
  5
1ff
100
AcDbEntity
  8
0
 62
7
100
AcDbSpline
 70
8
 71
3
 72
8
 73
4
 74
0
 40
0
 40
0
 40
0
 40
0
 40
1
 40
1
 40
1
 40
1
 10
328.589134
 20
536.852227
 30
0.0
 10
329.904698
 20
536.092686
 30
0.0
 10
331.525539
 20
536.092686
 30
0.0
 10
332.841103
 20
536.852227
 30
0.0
  0
SPLINE
  5
200
100
AcDbEntity
  8
0
 62
7
100
AcDbSpline
 70
8
 71
3
 72
8
 73
4
 74
0
 40
0
 40
0
 40
0
 40
0
 40
1
 40
1
 40
1
 40
1
 10
332.841103
 20
536.852227
 30
0.0
 10
334.156666
 20
537.611768
 30
0.0
 10
334.967087
 20
539.015458
 30
0.0
 10
334.967087
 20
540.534540
 30
0.0
  0
LWPOLYLINE
  5
201
100
AcDbEntity
  8
0
 62
7
100
AcDbPolyline
 90
1
 70
1
 10
981.266299
 20
543.369186
 30
0.0
  0
SPLINE
  5
202
100
AcDbEntity
  8
0
 62
7
100
AcDbSpline
 70
8
 71
3
 72
8
 73
4
 74
0
 40
0
 40
0
 40
0
 40
0
 40
1
 40
1
 40
1
 40
1
 10
471.030078
 20
322.946330
 30
0.0
 10
471.030078
 20
324.465412
 30
0.0
 10
470.219658
 20
325.869102
 30
0.0
 10
468.904094
 20
326.628643
 30
0.0
  0
SPLINE
  5
203
100
AcDbEntity
  8
0
 62
7
100
AcDbSpline
 70
8
 71
3
 72
8
 73
4
 74
0
 40
0
 40
0
 40
0
 40
0
 40
1
 40
1
 40
1
 40
1
 10
468.904094
 20
326.628643
 30
0.0
 10
467.588531
 20
327.388184
 30
0.0
 10
465.967690
 20
327.388184
 30
0.0
 10
464.652126
 20
326.628643
 30
0.0
  0
SPLINE
  5
204
100
AcDbEntity
  8
0
 62
7
100
AcDbSpline
 70
8
 71
3
 72
8
 73
4
 74
0
 40
0
 40
0
 40
0
 40
0
 40
1
 40
1
 40
1
 40
1
 10
464.652126
 20
326.628643
 30
0.0
 10
463.336562
 20
325.869102
 30
0.0
 10
462.526142
 20
324.465412
 30
0.0
 10
462.526142
 20
322.946330
 30
0.0
  0
SPLINE
  5
205
100
AcDbEntity
  8
0
 62
7
100
AcDbSpline
 70
8
 71
3
 72
8
 73
4
 74
0
 40
0
 40
0
 40
0
 40
0
 40
1
 40
1
 40
1
 40
1
 10
462.526142
 20
322.946330
 30
0.0
 10
462.526142
 20
321.427248
 30
0.0
 10
463.336563
 20
320.023559
 30
0.0
 10
464.652126
 20
319.264018
 30
0.0
  0
SPLINE
  5
206
100
AcDbEntity
  8
0
 62
7
100
AcDbSpline
 70
8
 71
3
 72
8
 73
4
 74
0
 40
0
 40
0
 40
0
 40
0
 40
1
 40
1
 40
1
 40
1
 10
464.652126
 20
319.264018
 30
0.0
 10
465.967690
 20
318.504477
 30
0.0
 10
467.588531
 20
318.504477
 30
0.0
 10
468.904094
 20
319.264018
 30
0.0
  0
SPLINE
  5
207
100
AcDbEntity
  8
0
 62
7
100
AcDbSpline
 70
8
 71
3
 72
8
 73
4
 74
0
 40
0
 40
0
 40
0
 40
0
 40
1
 40
1
 40
1
 40
1
 10
468.904094
 20
319.264018
 30
0.0
 10
470.219658
 20
320.023559
 30
0.0
 10
471.030079
 20
321.427248
 30
0.0
 10
471.030079
 20
322.946330
 30
0.0
  0
LWPOLYLINE
  5
208
100
AcDbEntity
  8
0
 62
7
100
AcDbPolyline
 90
1
 70
1
 10
334.967087
 20
540.534540
 30
0.0
  0
SPLINE
  5
209
100
AcDbEntity
  8
0
 62
7
100
AcDbSpline
 70
8
 71
3
 72
8
 73
4
 74
0
 40
0
 40
0
 40
0
 40
0
 40
1
 40
1
 40
1
 40
1
 10
452.025355
 20
863.149607
 30
0.0
 10
452.025355
 20
865.139098
 30
0.0
 10
450.963974
 20
866.977464
 30
0.0
 10
449.241024
 20
867.972209
 30
0.0
  0
SPLINE
  5
20a
100
AcDbEntity
  8
0
 62
7
100
AcDbSpline
 70
8
 71
3
 72
8
 73
4
 74
0
 40
0
 40
0
 40
0
 40
0
 40
1
 40
1
 40
1
 40
1
 10
449.241024
 20
867.972209
 30
0.0
 10
447.518074
 20
868.966955
 30
0.0
 10
445.395312
 20
868.966955
 30
0.0
 10
443.672362
 20
867.972209
 30
0.0
  0
SPLINE
  5
20b
100
AcDbEntity
  8
0
 62
7
100
AcDbSpline
 70
8
 71
3
 72
8
 73
4
 74
0
 40
0
 40
0
 40
0
 40
0
 40
1
 40
1
 40
1
 40
1
 10
443.672362
 20
867.972209
 30
0.0
 10
441.949412
 20
866.977464
 30
0.0
 10
440.888032
 20
865.139098
 30
0.0
 10
440.888032
 20
863.149607
 30
0.0
  0
SPLINE
  5
20c
100
AcDbEntity
  8
0
 62
7
100
AcDbSpline
 70
8
 71
3
 72
8
 73
4
 74
0
 40
0
 40
0
 40
0
 40
0
 40
1
 40
1
 40
1
 40
1
 10
440.888032
 20
863.149607
 30
0.0
 10
440.888032
 20
861.160115
 30
0.0
 10
441.949412
 20
859.321749
 30
0.0
 10
443.672362
 20
858.327004
 30
0.0
  0
SPLINE
  5
20d
100
AcDbEntity
  8
0
 62
7
100
AcDbSpline
 70
8
 71
3
 72
8
 73
4
 74
0
 40
0
 40
0
 40
0
 40
0
 40
1
 40
1
 40
1
 40
1
 10
443.672362
 20
858.327004
 30
0.0
 10
445.395312
 20
857.332258
 30
0.0
 10
447.518074
 20
857.332258
 30
0.0
 10
449.241024
 20
858.327004
 30
0.0
  0
SPLINE
  5
20e
100
AcDbEntity
  8
0
 62
7
100
AcDbSpline
 70
8
 71
3
 72
8
 73
4
 74
0
 40
0
 40
0
 40
0
 40
0
 40
1
 40
1
 40
1
 40
1
 10
449.241024
 20
858.327004
 30
0.0
 10
450.963974
 20
859.321749
 30
0.0
 10
452.025355
 20
861.160115
 30
0.0
 10
452.025355
 20
863.149607
 30
0.0
  0
LWPOLYLINE
  5
20f
100
AcDbEntity
  8
0
 62
7
100
AcDbPolyline
 90
1
 70
1
 10
471.030079
 20
322.946330
 30
0.0
  0
SPLINE
  5
210
100
AcDbEntity
  8
0
 62
7
100
AcDbSpline
 70
8
 71
3
 72
8
 73
4
 74
0
 40
0
 40
0
 40
0
 40
0
 40
1
 40
1
 40
1
 40
1
 10
596.407725
 20
865.039217
 30
0.0
 10
596.407725
 20
867.028708
 30
0.0
 10
595.346344
 20
868.867074
 30
0.0
 10
593.623394
 20
869.861819
 30
0.0
  0
SPLINE
  5
211
100
AcDbEntity
  8
0
 62
7
100
AcDbSpline
 70
8
 71
3
 72
8
 73
4
 74
0
 40
0
 40
0
 40
0
 40
0
 40
1
 40
1
 40
1
 40
1
 10
593.623394
 20
869.861819
 30
0.0
 10
591.900444
 20
870.856565
 30
0.0
 10
589.777683
 20
870.856565
 30
0.0
 10
588.054733
 20
869.861819
 30
0.0
  0
SPLINE
  5
212
100
AcDbEntity
  8
0
 62
7
100
AcDbSpline
 70
8
 71
3
 72
8
 73
4
 74
0
 40
0
 40
0
 40
0
 40
0
 40
1
 40
1
 40
1
 40
1
 10
588.054733
 20
869.861819
 30
0.0
 10
586.331783
 20
868.867074
 30
0.0
 10
585.270402
 20
867.028708
 30
0.0
 10
585.270402
 20
865.039217
 30
0.0
  0
SPLINE
  5
213
100
AcDbEntity
  8
0
 62
7
100
AcDbSpline
 70
8
 71
3
 72
8
 73
4
 74
0
 40
0
 40
0
 40
0
 40
0
 40
1
 40
1
 40
1
 40
1
 10
585.270402
 20
865.039217
 30
0.0
 10
585.270402
 20
863.049725
 30
0.0
 10
586.331782
 20
861.211359
 30
0.0
 10
588.054732
 20
860.216613
 30
0.0
  0
SPLINE
  5
214
100
AcDbEntity
  8
0
 62
7
100
AcDbSpline
 70
8
 71
3
 72
8
 73
4
 74
0
 40
0
 40
0
 40
0
 40
0
 40
1
 40
1
 40
1
 40
1
 10
588.054732
 20
860.216613
 30
0.0
 10
589.777682
 20
859.221868
 30
0.0
 10
591.900445
 20
859.221868
 30
0.0
 10
593.623395
 20
860.216613
 30
0.0
  0
SPLINE
  5
215
100
AcDbEntity
  8
0
 62
7
100
AcDbSpline
 70
8
 71
3
 72
8
 73
4
 74
0
 40
0
 40
0
 40
0
 40
0
 40
1
 40
1
 40
1
 40
1
 10
593.623395
 20
860.216613
 30
0.0
 10
595.346345
 20
861.211359
 30
0.0
 10
596.407725
 20
863.049725
 30
0.0
 10
596.407725
 20
865.039217
 30
0.0
  0
LWPOLYLINE
  5
216
100
AcDbEntity
  8
0
 62
7
100
AcDbPolyline
 90
1
 70
1
 10
452.025355
 20
863.149607
 30
0.0
  0
SPLINE
  5
217
100
AcDbEntity
  8
0
 62
7
100
AcDbSpline
 70
8
 71
3
 72
8
 73
4
 74
0
 40
0
 40
0
 40
0
 40
0
 40
1
 40
1
 40
1
 40
1
 10
362.054085
 20
704.388680
 30
0.0
 10
362.054815
 20
706.378658
 30
0.0
 10
360.993594
 20
708.217786
 30
0.0
 10
359.270345
 20
709.212986
 30
0.0
  0
SPLINE
  5
218
100
AcDbEntity
  8
0
 62
7
100
AcDbSpline
 70
8
 71
3
 72
8
 73
4
 74
0
 40
0
 40
0
 40
0
 40
0
 40
1
 40
1
 40
1
 40
1
 10
359.270345
 20
709.212986
 30
0.0
 10
357.547095
 20
710.208185
 30
0.0
 10
355.423753
 20
710.208185
 30
0.0
 10
353.700503
 20
709.212986
 30
0.0
  0
SPLINE
  5
219
100
AcDbEntity
  8
0
 62
7
100
AcDbSpline
 70
8
 71
3
 72
8
 73
4
 74
0
 40
0
 40
0
 40
0
 40
0
 40
1
 40
1
 40
1
 40
1
 10
353.700503
 20
709.212986
 30
0.0
 10
351.977254
 20
708.217786
 30
0.0
 10
350.916032
 20
706.378658
 30
0.0
 10
350.916763
 20
704.388680
 30
0.0
  0
SPLINE
  5
21a
100
AcDbEntity
  8
0
 62
7
100
AcDbSpline
 70
8
 71
3
 72
8
 73
4
 74
0
 40
0
 40
0
 40
0
 40
0
 40
1
 40
1
 40
1
 40
1
 10
350.916763
 20
704.388680
 30
0.0
 10
350.916032
 20
702.398703
 30
0.0
 10
351.977254
 20
700.559575
 30
0.0
 10
353.700503
 20
699.564375
 30
0.0
  0
SPLINE
  5
21b
100
AcDbEntity
  8
0
 62
7
100
AcDbSpline
 70
8
 71
3
 72
8
 73
4
 74
0
 40
0
 40
0
 40
0
 40
0
 40
1
 40
1
 40
1
 40
1
 10
353.700503
 20
699.564375
 30
0.0
 10
355.423753
 20
698.569175
 30
0.0
 10
357.547095
 20
698.569175
 30
0.0
 10
359.270345
 20
699.564375
 30
0.0
  0
SPLINE
  5
21c
100
AcDbEntity
  8
0
 62
7
100
AcDbSpline
 70
8
 71
3
 72
8
 73
4
 74
0
 40
0
 40
0
 40
0
 40
0
 40
1
 40
1
 40
1
 40
1
 10
359.270345
 20
699.564375
 30
0.0
 10
360.993594
 20
700.559575
 30
0.0
 10
362.054815
 20
702.398703
 30
0.0
 10
362.054085
 20
704.388680
 30
0.0
  0
LWPOLYLINE
  5
21d
100
AcDbEntity
  8
0
 62
7
100
AcDbPolyline
 90
1
 70
1
 10
596.407725
 20
865.039217
 30
0.0
  0
SPLINE
  5
21e
100
AcDbEntity
  8
0
 62
7
100
AcDbSpline
 70
8
 71
3
 72
8
 73
4
 74
0
 40
0
 40
0
 40
0
 40
0
 40
1
 40
1
 40
1
 40
1
 10
809.293169
 20
704.447603
 30
0.0
 10
809.293169
 20
706.437094
 30
0.0
 10
808.231788
 20
708.275459
 30
0.0
 10
806.508838
 20
709.270205
 30
0.0
  0
SPLINE
  5
21f
100
AcDbEntity
  8
0
 62
7
100
AcDbSpline
 70
8
 71
3
 72
8
 73
4
 74
0
 40
0
 40
0
 40
0
 40
0
 40
1
 40
1
 40
1
 40
1
 10
806.508838
 20
709.270205
 30
0.0
 10
804.785889
 20
710.264950
 30
0.0
 10
802.663127
 20
710.264950
 30
0.0
 10
800.940177
 20
709.270205
 30
0.0
  0
SPLINE
  5
220
100
AcDbEntity
  8
0
 62
7
100
AcDbSpline
 70
8
 71
3
 72
8
 73
4
 74
0
 40
0
 40
0
 40
0
 40
0
 40
1
 40
1
 40
1
 40
1
 10
800.940177
 20
709.270205
 30
0.0
 10
799.217227
 20
708.275459
 30
0.0
 10
798.155846
 20
706.437094
 30
0.0
 10
798.155846
 20
704.447603
 30
0.0
  0
SPLINE
  5
221
100
AcDbEntity
  8
0
 62
7
100
AcDbSpline
 70
8
 71
3
 72
8
 73
4
 74
0
 40
0
 40
0
 40
0
 40
0
 40
1
 40
1
 40
1
 40
1
 10
798.155846
 20
704.447603
 30
0.0
 10
798.155846
 20
702.458111
 30
0.0
 10
799.217227
 20
700.619746
 30
0.0
 10
800.940177
 20
699.625000
 30
0.0
  0
SPLINE
  5
222
100
AcDbEntity
  8
0
 62
7
100
AcDbSpline
 70
8
 71
3
 72
8
 73
4
 74
0
 40
0
 40
0
 40
0
 40
0
 40
1
 40
1
 40
1
 40
1
 10
800.940177
 20
699.625000
 30
0.0
 10
802.663127
 20
698.630255
 30
0.0
 10
804.785889
 20
698.630255
 30
0.0
 10
806.508838
 20
699.625000
 30
0.0
  0
SPLINE
  5
223
100
AcDbEntity
  8
0
 62
7
100
AcDbSpline
 70
8
 71
3
 72
8
 73
4
 74
0
 40
0
 40
0
 40
0
 40
0
 40
1
 40
1
 40
1
 40
1
 10
806.508838
 20
699.625000
 30
0.0
 10
808.231788
 20
700.619746
 30
0.0
 10
809.293169
 20
702.458111
 30
0.0
 10
809.293169
 20
704.447603
 30
0.0
  0
LWPOLYLINE
  5
224
100
AcDbEntity
  8
0
 62
7
100
AcDbPolyline
 90
1
 70
1
 10
362.054085
 20
704.388680
 30
0.0
  0
SPLINE
  5
225
100
AcDbEntity
  8
0
 62
7
100
AcDbSpline
 70
8
 71
3
 72
8
 73
4
 74
0
 40
0
 40
0
 40
0
 40
0
 40
1
 40
1
 40
1
 40
1
 10
517.222204
 20
1104.094488
 30
0.0
 10
517.222935
 20
1106.084466
 30
0.0
 10
516.161714
 20
1107.923594
 30
0.0
 10
514.438464
 20
1108.918793
 30
0.0
  0
SPLINE
  5
226
100
AcDbEntity
  8
0
 62
7
100
AcDbSpline
 70
8
 71
3
 72
8
 73
4
 74
0
 40
0
 40
0
 40
0
 40
0
 40
1
 40
1
 40
1
 40
1
 10
514.438464
 20
1108.918793
 30
0.0
 10
512.715214
 20
1109.913993
 30
0.0
 10
510.591872
 20
1109.913993
 30
0.0
 10
508.868623
 20
1108.918793
 30
0.0
  0
SPLINE
  5
227
100
AcDbEntity
  8
0
 62
7
100
AcDbSpline
 70
8
 71
3
 72
8
 73
4
 74
0
 40
0
 40
0
 40
0
 40
0
 40
1
 40
1
 40
1
 40
1
 10
508.868623
 20
1108.918793
 30
0.0
 10
507.145373
 20
1107.923594
 30
0.0
 10
506.084152
 20
1106.084466
 30
0.0
 10
506.084882
 20
1104.094488
 30
0.0
  0
SPLINE
  5
228
100
AcDbEntity
  8
0
 62
7
100
AcDbSpline
 70
8
 71
3
 72
8
 73
4
 74
0
 40
0
 40
0
 40
0
 40
0
 40
1
 40
1
 40
1
 40
1
 10
506.084882
 20
1104.094488
 30
0.0
 10
506.084152
 20
1102.104510
 30
0.0
 10
507.145373
 20
1100.265382
 30
0.0
 10
508.868623
 20
1099.270183
 30
0.0
  0
SPLINE
  5
229
100
AcDbEntity
  8
0
 62
7
100
AcDbSpline
 70
8
 71
3
 72
8
 73
4
 74
0
 40
0
 40
0
 40
0
 40
0
 40
1
 40
1
 40
1
 40
1
 10
508.868623
 20
1099.270183
 30
0.0
 10
510.591872
 20
1098.274983
 30
0.0
 10
512.715214
 20
1098.274983
 30
0.0
 10
514.438464
 20
1099.270183
 30
0.0
  0
SPLINE
  5
22a
100
AcDbEntity
  8
0
 62
7
100
AcDbSpline
 70
8
 71
3
 72
8
 73
4
 74
0
 40
0
 40
0
 40
0
 40
0
 40
1
 40
1
 40
1
 40
1
 10
514.438464
 20
1099.270183
 30
0.0
 10
516.161714
 20
1100.265382
 30
0.0
 10
517.222935
 20
1102.104510
 30
0.0
 10
517.222205
 20
1104.094488
 30
0.0
  0
LWPOLYLINE
  5
22b
100
AcDbEntity
  8
0
 62
7
100
AcDbPolyline
 90
1
 70
1
 10
809.293169
 20
704.447603
 30
0.0
  0
SPLINE
  5
22c
100
AcDbEntity
  8
0
 62
7
100
AcDbSpline
 70
8
 71
3
 72
8
 73
4
 74
0
 40
0
 40
0
 40
0
 40
0
 40
1
 40
1
 40
1
 40
1
 10
671.930607
 20
955.986819
 30
0.0
 10
671.930607
 20
957.505901
 30
0.0
 10
671.120186
 20
958.909591
 30
0.0
 10
669.804623
 20
959.669132
 30
0.0
  0
SPLINE
  5
22d
100
AcDbEntity
  8
0
 62
7
100
AcDbSpline
 70
8
 71
3
 72
8
 73
4
 74
0
 40
0
 40
0
 40
0
 40
0
 40
1
 40
1
 40
1
 40
1
 10
669.804623
 20
959.669132
 30
0.0
 10
668.489059
 20
960.428673
 30
0.0
 10
666.868218
 20
960.428673
 30
0.0
 10
665.552654
 20
959.669132
 30
0.0
  0
SPLINE
  5
22e
100
AcDbEntity
  8
0
 62
7
100
AcDbSpline
 70
8
 71
3
 72
8
 73
4
 74
0
 40
0
 40
0
 40
0
 40
0
 40
1
 40
1
 40
1
 40
1
 10
665.552654
 20
959.669132
 30
0.0
 10
664.237091
 20
958.909591
 30
0.0
 10
663.426670
 20
957.505901
 30
0.0
 10
663.426670
 20
955.986819
 30
0.0
  0
SPLINE
  5
22f
100
AcDbEntity
  8
0
 62
7
100
AcDbSpline
 70
8
 71
3
 72
8
 73
4
 74
0
 40
0
 40
0
 40
0
 40
0
 40
1
 40
1
 40
1
 40
1
 10
663.426670
 20
955.986819
 30
0.0
 10
663.426670
 20
954.467737
 30
0.0
 10
664.237091
 20
953.064047
 30
0.0
 10
665.552654
 20
952.304507
 30
0.0
  0
SPLINE
  5
230
100
AcDbEntity
  8
0
 62
7
100
AcDbSpline
 70
8
 71
3
 72
8
 73
4
 74
0
 40
0
 40
0
 40
0
 40
0
 40
1
 40
1
 40
1
 40
1
 10
665.552654
 20
952.304507
 30
0.0
 10
666.868218
 20
951.544966
 30
0.0
 10
668.489059
 20
951.544966
 30
0.0
 10
669.804623
 20
952.304507
 30
0.0
  0
SPLINE
  5
231
100
AcDbEntity
  8
0
 62
7
100
AcDbSpline
 70
8
 71
3
 72
8
 73
4
 74
0
 40
0
 40
0
 40
0
 40
0
 40
1
 40
1
 40
1
 40
1
 10
669.804623
 20
952.304507
 30
0.0
 10
671.120186
 20
953.064047
 30
0.0
 10
671.930607
 20
954.467737
 30
0.0
 10
671.930607
 20
955.986819
 30
0.0
  0
LWPOLYLINE
  5
232
100
AcDbEntity
  8
0
 62
7
100
AcDbPolyline
 90
1
 70
1
 10
517.222205
 20
1104.094488
 30
0.0
  0
SPLINE
  5
233
100
AcDbEntity
  8
0
 62
7
100
AcDbSpline
 70
8
 71
3
 72
8
 73
4
 74
0
 40
0
 40
0
 40
0
 40
0
 40
1
 40
1
 40
1
 40
1
 10
818.575052
 20
1128.963088
 30
0.0
 10
818.575052
 20
1130.482170
 30
0.0
 10
817.764631
 20
1131.885859
 30
0.0
 10
816.449067
 20
1132.645400
 30
0.0
  0
SPLINE
  5
234
100
AcDbEntity
  8
0
 62
7
100
AcDbSpline
 70
8
 71
3
 72
8
 73
4
 74
0
 40
0
 40
0
 40
0
 40
0
 40
1
 40
1
 40
1
 40
1
 10
816.449067
 20
1132.645400
 30
0.0
 10
815.133504
 20
1133.404941
 30
0.0
 10
813.512663
 20
1133.404941
 30
0.0
 10
812.197099
 20
1132.645400
 30
0.0
  0
SPLINE
  5
235
100
AcDbEntity
  8
0
 62
7
100
AcDbSpline
 70
8
 71
3
 72
8
 73
4
 74
0
 40
0
 40
0
 40
0
 40
0
 40
1
 40
1
 40
1
 40
1
 10
812.197099
 20
1132.645400
 30
0.0
 10
810.881536
 20
1131.885859
 30
0.0
 10
810.071115
 20
1130.482170
 30
0.0
 10
810.071115
 20
1128.963088
 30
0.0
  0
SPLINE
  5
236
100
AcDbEntity
  8
0
 62
7
100
AcDbSpline
 70
8
 71
3
 72
8
 73
4
 74
0
 40
0
 40
0
 40
0
 40
0
 40
1
 40
1
 40
1
 40
1
 10
810.071115
 20
1128.963088
 30
0.0
 10
810.071115
 20
1127.444006
 30
0.0
 10
810.881536
 20
1126.040316
 30
0.0
 10
812.197099
 20
1125.280775
 30
0.0
  0
SPLINE
  5
237
100
AcDbEntity
  8
0
 62
7
100
AcDbSpline
 70
8
 71
3
 72
8
 73
4
 74
0
 40
0
 40
0
 40
0
 40
0
 40
1
 40
1
 40
1
 40
1
 10
812.197099
 20
1125.280775
 30
0.0
 10
813.512663
 20
1124.521234
 30
0.0
 10
815.133504
 20
1124.521234
 30
0.0
 10
816.449067
 20
1125.280775
 30
0.0
  0
SPLINE
  5
238
100
AcDbEntity
  8
0
 62
7
100
AcDbSpline
 70
8
 71
3
 72
8
 73
4
 74
0
 40
0
 40
0
 40
0
 40
0
 40
1
 40
1
 40
1
 40
1
 10
816.449067
 20
1125.280775
 30
0.0
 10
817.764631
 20
1126.040316
 30
0.0
 10
818.575052
 20
1127.444006
 30
0.0
 10
818.575052
 20
1128.963088
 30
0.0
  0
LWPOLYLINE
  5
239
100
AcDbEntity
  8
0
 62
7
100
AcDbPolyline
 90
1
 70
1
 10
671.930607
 20
955.986819
 30
0.0
  0
SPLINE
  5
23a
100
AcDbEntity
  8
0
 62
7
100
AcDbSpline
 70
8
 71
3
 72
8
 73
4
 74
0
 40
0
 40
0
 40
0
 40
0
 40
1
 40
1
 40
1
 40
1
 10
855.717893
 20
800.177096
 30
0.0
 10
855.717893
 20
801.696178
 30
0.0
 10
854.907472
 20
803.099868
 30
0.0
 10
853.591908
 20
803.859409
 30
0.0
  0
SPLINE
  5
23b
100
AcDbEntity
  8
0
 62
7
100
AcDbSpline
 70
8
 71
3
 72
8
 73
4
 74
0
 40
0
 40
0
 40
0
 40
0
 40
1
 40
1
 40
1
 40
1
 10
853.591908
 20
803.859409
 30
0.0
 10
852.276345
 20
804.618950
 30
0.0
 10
850.655504
 20
804.618950
 30
0.0
 10
849.339940
 20
803.859409
 30
0.0
  0
SPLINE
  5
23c
100
AcDbEntity
  8
0
 62
7
100
AcDbSpline
 70
8
 71
3
 72
8
 73
4
 74
0
 40
0
 40
0
 40
0
 40
0
 40
1
 40
1
 40
1
 40
1
 10
849.339940
 20
803.859409
 30
0.0
 10
848.024377
 20
803.099868
 30
0.0
 10
847.213956
 20
801.696178
 30
0.0
 10
847.213956
 20
800.177096
 30
0.0
  0
SPLINE
  5
23d
100
AcDbEntity
  8
0
 62
7
100
AcDbSpline
 70
8
 71
3
 72
8
 73
4
 74
0
 40
0
 40
0
 40
0
 40
0
 40
1
 40
1
 40
1
 40
1
 10
847.213956
 20
800.177096
 30
0.0
 10
847.213956
 20
798.658014
 30
0.0
 10
848.024377
 20
797.254325
 30
0.0
 10
849.339940
 20
796.494784
 30
0.0
  0
SPLINE
  5
23e
100
AcDbEntity
  8
0
 62
7
100
AcDbSpline
 70
8
 71
3
 72
8
 73
4
 74
0
 40
0
 40
0
 40
0
 40
0
 40
1
 40
1
 40
1
 40
1
 10
849.339940
 20
796.494784
 30
0.0
 10
850.655504
 20
795.735243
 30
0.0
 10
852.276345
 20
795.735243
 30
0.0
 10
853.591908
 20
796.494784
 30
0.0
  0
SPLINE
  5
23f
100
AcDbEntity
  8
0
 62
7
100
AcDbSpline
 70
8
 71
3
 72
8
 73
4
 74
0
 40
0
 40
0
 40
0
 40
0
 40
1
 40
1
 40
1
 40
1
 10
853.591908
 20
796.494784
 30
0.0
 10
854.907472
 20
797.254325
 30
0.0
 10
855.717893
 20
798.658014
 30
0.0
 10
855.717893
 20
800.177096
 30
0.0
  0
LWPOLYLINE
  5
240
100
AcDbEntity
  8
0
 62
7
100
AcDbPolyline
 90
1
 70
1
 10
818.575052
 20
1128.963088
 30
0.0
  0
LWPOLYLINE
  5
241
100
AcDbEntity
  8
0
 62
7
100
AcDbPolyline
 90
1
 70
1
 10
855.717893
 20
800.177096
 30
0.0
  0
SPLINE
  5
242
100
AcDbEntity
  8
0
 62
7
100
AcDbSpline
 70
8
 71
3
 72
8
 73
4
 74
0
 40
0
 40
0
 40
0
 40
0
 40
1
 40
1
 40
1
 40
1
 10
842.611674
 20
233.952328
 30
0.0
 10
842.611674
 20
235.471410
 30
0.0
 10
841.801254
 20
236.875099
 30
0.0
 10
840.485690
 20
237.634640
 30
0.0
  0
SPLINE
  5
243
100
AcDbEntity
  8
0
 62
7
100
AcDbSpline
 70
8
 71
3
 72
8
 73
4
 74
0
 40
0
 40
0
 40
0
 40
0
 40
1
 40
1
 40
1
 40
1
 10
840.485690
 20
237.634640
 30
0.0
 10
839.170127
 20
238.394181
 30
0.0
 10
837.549286
 20
238.394181
 30
0.0
 10
836.233722
 20
237.634640
 30
0.0
  0
SPLINE
  5
244
100
AcDbEntity
  8
0
 62
7
100
AcDbSpline
 70
8
 71
3
 72
8
 73
4
 74
0
 40
0
 40
0
 40
0
 40
0
 40
1
 40
1
 40
1
 40
1
 10
836.233722
 20
237.634640
 30
0.0
 10
834.918158
 20
236.875099
 30
0.0
 10
834.107738
 20
235.471410
 30
0.0
 10
834.107738
 20
233.952328
 30
0.0
  0
SPLINE
  5
245
100
AcDbEntity
  8
0
 62
7
100
AcDbSpline
 70
8
 71
3
 72
8
 73
4
 74
0
 40
0
 40
0
 40
0
 40
0
 40
1
 40
1
 40
1
 40
1
 10
834.107738
 20
233.952328
 30
0.0
 10
834.107738
 20
232.433246
 30
0.0
 10
834.918159
 20
231.029556
 30
0.0
 10
836.233722
 20
230.270015
 30
0.0
  0
SPLINE
  5
246
100
AcDbEntity
  8
0
 62
7
100
AcDbSpline
 70
8
 71
3
 72
8
 73
4
 74
0
 40
0
 40
0
 40
0
 40
0
 40
1
 40
1
 40
1
 40
1
 10
836.233722
 20
230.270015
 30
0.0
 10
837.549286
 20
229.510474
 30
0.0
 10
839.170127
 20
229.510474
 30
0.0
 10
840.485690
 20
230.270015
 30
0.0
  0
SPLINE
  5
247
100
AcDbEntity
  8
0
 62
7
100
AcDbSpline
 70
8
 71
3
 72
8
 73
4
 74
0
 40
0
 40
0
 40
0
 40
0
 40
1
 40
1
 40
1
 40
1
 10
840.485690
 20
230.270015
 30
0.0
 10
841.801254
 20
231.029556
 30
0.0
 10
842.611675
 20
232.433246
 30
0.0
 10
842.611675
 20
233.952328
 30
0.0
  0
LWPOLYLINE
  5
248
100
AcDbEntity
  8
0
 62
7
100
AcDbPolyline
 90
4
 70
0
 10
1060.098190
 20
914.051550
 30
0.0
 10
1060.098190
 20
945.232652
 30
0.0
 10
997.735985
 20
945.232652
 30
0.0
 10
997.735985
 20
914.051550
 30
0.0
  0
SPLINE
  5
249
100
AcDbEntity
  8
0
 62
7
100
AcDbSpline
 70
8
 71
3
 72
8
 73
4
 74
0
 40
0
 40
0
 40
0
 40
0
 40
1
 40
1
 40
1
 40
1
 10
786.736168
 20
151.970211
 30
0.0
 10
786.736168
 20
153.489293
 30
0.0
 10
785.925747
 20
154.892983
 30
0.0
 10
784.610184
 20
155.652524
 30
0.0
  0
SPLINE
  5
24a
100
AcDbEntity
  8
0
 62
7
100
AcDbSpline
 70
8
 71
3
 72
8
 73
4
 74
0
 40
0
 40
0
 40
0
 40
0
 40
1
 40
1
 40
1
 40
1
 10
784.610184
 20
155.652524
 30
0.0
 10
783.294620
 20
156.412065
 30
0.0
 10
781.673779
 20
156.412065
 30
0.0
 10
780.358215
 20
155.652524
 30
0.0
  0
SPLINE
  5
24b
100
AcDbEntity
  8
0
 62
7
100
AcDbSpline
 70
8
 71
3
 72
8
 73
4
 74
0
 40
0
 40
0
 40
0
 40
0
 40
1
 40
1
 40
1
 40
1
 10
780.358215
 20
155.652524
 30
0.0
 10
779.042652
 20
154.892983
 30
0.0
 10
778.232231
 20
153.489293
 30
0.0
 10
778.232231
 20
151.970211
 30
0.0
  0
SPLINE
  5
24c
100
AcDbEntity
  8
0
 62
7
100
AcDbSpline
 70
8
 71
3
 72
8
 73
4
 74
0
 40
0
 40
0
 40
0
 40
0
 40
1
 40
1
 40
1
 40
1
 10
778.232231
 20
151.970211
 30
0.0
 10
778.232231
 20
150.451129
 30
0.0
 10
779.042652
 20
149.047439
 30
0.0
 10
780.358215
 20
148.287899
 30
0.0
  0
SPLINE
  5
24d
100
AcDbEntity
  8
0
 62
7
100
AcDbSpline
 70
8
 71
3
 72
8
 73
4
 74
0
 40
0
 40
0
 40
0
 40
0
 40
1
 40
1
 40
1
 40
1
 10
780.358215
 20
148.287899
 30
0.0
 10
781.673779
 20
147.528358
 30
0.0
 10
783.294620
 20
147.528358
 30
0.0
 10
784.610184
 20
148.287899
 30
0.0
  0
SPLINE
  5
24e
100
AcDbEntity
  8
0
 62
7
100
AcDbSpline
 70
8
 71
3
 72
8
 73
4
 74
0
 40
0
 40
0
 40
0
 40
0
 40
1
 40
1
 40
1
 40
1
 10
784.610184
 20
148.287899
 30
0.0
 10
785.925747
 20
149.047439
 30
0.0
 10
786.736168
 20
150.451129
 30
0.0
 10
786.736168
 20
151.970211
 30
0.0
  0
LWPOLYLINE
  5
24f
100
AcDbEntity
  8
0
 62
7
100
AcDbPolyline
 90
1
 70
1
 10
842.611675
 20
233.952328
 30
0.0
  0
SPLINE
  5
250
100
AcDbEntity
  8
0
 62
7
100
AcDbSpline
 70
8
 71
3
 72
8
 73
4
 74
0
 40
0
 40
0
 40
0
 40
0
 40
1
 40
1
 40
1
 40
1
 10
894.200151
 20
159.342071
 30
0.0
 10
894.200151
 20
160.861153
 30
0.0
 10
893.389730
 20
162.264843
 30
0.0
 10
892.074166
 20
163.024384
 30
0.0
  0
SPLINE
  5
251
100
AcDbEntity
  8
0
 62
7
100
AcDbSpline
 70
8
 71
3
 72
8
 73
4
 74
0
 40
0
 40
0
 40
0
 40
0
 40
1
 40
1
 40
1
 40
1
 10
892.074166
 20
163.024384
 30
0.0
 10
890.758603
 20
163.783925
 30
0.0
 10
889.137762
 20
163.783925
 30
0.0
 10
887.822198
 20
163.024384
 30
0.0
  0
SPLINE
  5
252
100
AcDbEntity
  8
0
 62
7
100
AcDbSpline
 70
8
 71
3
 72
8
 73
4
 74
0
 40
0
 40
0
 40
0
 40
0
 40
1
 40
1
 40
1
 40
1
 10
887.822198
 20
163.024384
 30
0.0
 10
886.506635
 20
162.264843
 30
0.0
 10
885.696214
 20
160.861153
 30
0.0
 10
885.696214
 20
159.342071
 30
0.0
  0
SPLINE
  5
253
100
AcDbEntity
  8
0
 62
7
100
AcDbSpline
 70
8
 71
3
 72
8
 73
4
 74
0
 40
0
 40
0
 40
0
 40
0
 40
1
 40
1
 40
1
 40
1
 10
885.696214
 20
159.342071
 30
0.0
 10
885.696214
 20
157.822989
 30
0.0
 10
886.506635
 20
156.419300
 30
0.0
 10
887.822198
 20
155.659759
 30
0.0
  0
SPLINE
  5
254
100
AcDbEntity
  8
0
 62
7
100
AcDbSpline
 70
8
 71
3
 72
8
 73
4
 74
0
 40
0
 40
0
 40
0
 40
0
 40
1
 40
1
 40
1
 40
1
 10
887.822198
 20
155.659759
 30
0.0
 10
889.137762
 20
154.900218
 30
0.0
 10
890.758603
 20
154.900218
 30
0.0
 10
892.074167
 20
155.659759
 30
0.0
  0
SPLINE
  5
255
100
AcDbEntity
  8
0
 62
7
100
AcDbSpline
 70
8
 71
3
 72
8
 73
4
 74
0
 40
0
 40
0
 40
0
 40
0
 40
1
 40
1
 40
1
 40
1
 10
892.074167
 20
155.659759
 30
0.0
 10
893.389730
 20
156.419300
 30
0.0
 10
894.200151
 20
157.822989
 30
0.0
 10
894.200151
 20
159.342071
 30
0.0
  0
LWPOLYLINE
  5
256
100
AcDbEntity
  8
0
 62
7
100
AcDbPolyline
 90
1
 70
1
 10
786.736168
 20
151.970211
 30
0.0
  0
SPLINE
  5
257
100
AcDbEntity
  8
0
 62
7
100
AcDbSpline
 70
8
 71
3
 72
8
 73
4
 74
0
 40
0
 40
0
 40
0
 40
0
 40
1
 40
1
 40
1
 40
1
 10
999.612754
 20
969.910061
 30
0.0
 10
999.612754
 20
971.429142
 30
0.0
 10
998.802334
 20
972.832832
 30
0.0
 10
997.486770
 20
973.592373
 30
0.0
  0
SPLINE
  5
258
100
AcDbEntity
  8
0
 62
7
100
AcDbSpline
 70
8
 71
3
 72
8
 73
4
 74
0
 40
0
 40
0
 40
0
 40
0
 40
1
 40
1
 40
1
 40
1
 10
997.486770
 20
973.592373
 30
0.0
 10
996.171206
 20
974.351914
 30
0.0
 10
994.550365
 20
974.351914
 30
0.0
 10
993.234802
 20
973.592373
 30
0.0
  0
SPLINE
  5
259
100
AcDbEntity
  8
0
 62
7
100
AcDbSpline
 70
8
 71
3
 72
8
 73
4
 74
0
 40
0
 40
0
 40
0
 40
0
 40
1
 40
1
 40
1
 40
1
 10
993.234802
 20
973.592373
 30
0.0
 10
991.919238
 20
972.832832
 30
0.0
 10
991.108818
 20
971.429142
 30
0.0
 10
991.108818
 20
969.910061
 30
0.0
  0
SPLINE
  5
25a
100
AcDbEntity
  8
0
 62
7
100
AcDbSpline
 70
8
 71
3
 72
8
 73
4
 74
0
 40
0
 40
0
 40
0
 40
0
 40
1
 40
1
 40
1
 40
1
 10
991.108818
 20
969.910061
 30
0.0
 10
991.108818
 20
968.390979
 30
0.0
 10
991.919238
 20
966.987289
 30
0.0
 10
993.234802
 20
966.227748
 30
0.0
  0
SPLINE
  5
25b
100
AcDbEntity
  8
0
 62
7
100
AcDbSpline
 70
8
 71
3
 72
8
 73
4
 74
0
 40
0
 40
0
 40
0
 40
0
 40
1
 40
1
 40
1
 40
1
 10
993.234802
 20
966.227748
 30
0.0
 10
994.550365
 20
965.468207
 30
0.0
 10
996.171207
 20
965.468207
 30
0.0
 10
997.486770
 20
966.227748
 30
0.0
  0
SPLINE
  5
25c
100
AcDbEntity
  8
0
 62
7
100
AcDbSpline
 70
8
 71
3
 72
8
 73
4
 74
0
 40
0
 40
0
 40
0
 40
0
 40
1
 40
1
 40
1
 40
1
 10
997.486770
 20
966.227748
 30
0.0
 10
998.802334
 20
966.987289
 30
0.0
 10
999.612754
 20
968.390979
 30
0.0
 10
999.612754
 20
969.910061
 30
0.0
  0
LWPOLYLINE
  5
25d
100
AcDbEntity
  8
0
 62
7
100
AcDbPolyline
 90
1
 70
1
 10
894.200151
 20
159.342071
 30
0.0
  0
SPLINE
  5
25e
100
AcDbEntity
  8
0
 62
7
100
AcDbSpline
 70
8
 71
3
 72
8
 73
4
 74
0
 40
0
 40
0
 40
0
 40
0
 40
1
 40
1
 40
1
 40
1
 10
501.851060
 20
318.632369
 30
0.0
 10
501.851060
 20
320.151451
 30
0.0
 10
501.040639
 20
321.555141
 30
0.0
 10
499.725076
 20
322.314682
 30
0.0
  0
SPLINE
  5
25f
100
AcDbEntity
  8
0
 62
7
100
AcDbSpline
 70
8
 71
3
 72
8
 73
4
 74
0
 40
0
 40
0
 40
0
 40
0
 40
1
 40
1
 40
1
 40
1
 10
499.725076
 20
322.314682
 30
0.0
 10
498.409512
 20
323.074223
 30
0.0
 10
496.788671
 20
323.074223
 30
0.0
 10
495.473108
 20
322.314682
 30
0.0
  0
SPLINE
  5
260
100
AcDbEntity
  8
0
 62
7
100
AcDbSpline
 70
8
 71
3
 72
8
 73
4
 74
0
 40
0
 40
0
 40
0
 40
0
 40
1
 40
1
 40
1
 40
1
 10
495.473108
 20
322.314682
 30
0.0
 10
494.157544
 20
321.555141
 30
0.0
 10
493.347123
 20
320.151451
 30
0.0
 10
493.347124
 20
318.632369
 30
0.0
  0
SPLINE
  5
261
100
AcDbEntity
  8
0
 62
7
100
AcDbSpline
 70
8
 71
3
 72
8
 73
4
 74
0
 40
0
 40
0
 40
0
 40
0
 40
1
 40
1
 40
1
 40
1
 10
493.347124
 20
318.632369
 30
0.0
 10
493.347124
 20
317.113287
 30
0.0
 10
494.157544
 20
315.709598
 30
0.0
 10
495.473108
 20
314.950057
 30
0.0
  0
SPLINE
  5
262
100
AcDbEntity
  8
0
 62
7
100
AcDbSpline
 70
8
 71
3
 72
8
 73
4
 74
0
 40
0
 40
0
 40
0
 40
0
 40
1
 40
1
 40
1
 40
1
 10
495.473108
 20
314.950057
 30
0.0
 10
496.788671
 20
314.190516
 30
0.0
 10
498.409512
 20
314.190516
 30
0.0
 10
499.725076
 20
314.950057
 30
0.0
  0
SPLINE
  5
263
100
AcDbEntity
  8
0
 62
7
100
AcDbSpline
 70
8
 71
3
 72
8
 73
4
 74
0
 40
0
 40
0
 40
0
 40
0
 40
1
 40
1
 40
1
 40
1
 10
499.725076
 20
314.950057
 30
0.0
 10
501.040639
 20
315.709598
 30
0.0
 10
501.851060
 20
317.113287
 30
0.0
 10
501.851060
 20
318.632369
 30
0.0
  0
LWPOLYLINE
  5
264
100
AcDbEntity
  8
0
 62
7
100
AcDbPolyline
 90
1
 70
1
 10
999.612754
 20
969.910061
 30
0.0
  0
SPLINE
  5
265
100
AcDbEntity
  8
0
 62
7
100
AcDbSpline
 70
8
 71
3
 72
8
 73
4
 74
0
 40
0
 40
0
 40
0
 40
0
 40
1
 40
1
 40
1
 40
1
 10
742.795942
 20
314.380400
 30
0.0
 10
742.795942
 20
315.899482
 30
0.0
 10
741.985521
 20
317.303172
 30
0.0
 10
740.669958
 20
318.062713
 30
0.0
  0
SPLINE
  5
266
100
AcDbEntity
  8
0
 62
7
100
AcDbSpline
 70
8
 71
3
 72
8
 73
4
 74
0
 40
0
 40
0
 40
0
 40
0
 40
1
 40
1
 40
1
 40
1
 10
740.669958
 20
318.062713
 30
0.0
 10
739.354394
 20
318.822254
 30
0.0
 10
737.733553
 20
318.822254
 30
0.0
 10
736.417989
 20
318.062713
 30
0.0
  0
SPLINE
  5
267
100
AcDbEntity
  8
0
 62
7
100
AcDbSpline
 70
8
 71
3
 72
8
 73
4
 74
0
 40
0
 40
0
 40
0
 40
0
 40
1
 40
1
 40
1
 40
1
 10
736.417989
 20
318.062713
 30
0.0
 10
735.102426
 20
317.303172
 30
0.0
 10
734.292005
 20
315.899482
 30
0.0
 10
734.292005
 20
314.380400
 30
0.0
  0
SPLINE
  5
268
100
AcDbEntity
  8
0
 62
7
100
AcDbSpline
 70
8
 71
3
 72
8
 73
4
 74
0
 40
0
 40
0
 40
0
 40
0
 40
1
 40
1
 40
1
 40
1
 10
734.292005
 20
314.380400
 30
0.0
 10
734.292005
 20
312.861318
 30
0.0
 10
735.102426
 20
311.457629
 30
0.0
 10
736.417989
 20
310.698088
 30
0.0
  0
SPLINE
  5
269
100
AcDbEntity
  8
0
 62
7
100
AcDbSpline
 70
8
 71
3
 72
8
 73
4
 74
0
 40
0
 40
0
 40
0
 40
0
 40
1
 40
1
 40
1
 40
1
 10
736.417989
 20
310.698088
 30
0.0
 10
737.733553
 20
309.938547
 30
0.0
 10
739.354394
 20
309.938547
 30
0.0
 10
740.669958
 20
310.698088
 30
0.0
  0
SPLINE
  5
26a
100
AcDbEntity
  8
0
 62
7
100
AcDbSpline
 70
8
 71
3
 72
8
 73
4
 74
0
 40
0
 40
0
 40
0
 40
0
 40
1
 40
1
 40
1
 40
1
 10
740.669958
 20
310.698088
 30
0.0
 10
741.985521
 20
311.457629
 30
0.0
 10
742.795942
 20
312.861318
 30
0.0
 10
742.795942
 20
314.380400
 30
0.0
  0
LWPOLYLINE
  5
26b
100
AcDbEntity
  8
0
 62
7
100
AcDbPolyline
 90
1
 70
1
 10
501.851060
 20
318.632369
 30
0.0
  0
SPLINE
  5
26c
100
AcDbEntity
  8
0
 62
7
100
AcDbSpline
 70
8
 71
3
 72
8
 73
4
 74
0
 40
0
 40
0
 40
0
 40
0
 40
1
 40
1
 40
1
 40
1
 10
501.851060
 20
91.860716
 30
0.0
 10
501.851060
 20
93.379797
 30
0.0
 10
501.040639
 20
94.783487
 30
0.0
 10
499.725076
 20
95.543028
 30
0.0
  0
SPLINE
  5
26d
100
AcDbEntity
  8
0
 62
7
100
AcDbSpline
 70
8
 71
3
 72
8
 73
4
 74
0
 40
0
 40
0
 40
0
 40
0
 40
1
 40
1
 40
1
 40
1
 10
499.725076
 20
95.543028
 30
0.0
 10
498.409512
 20
96.302569
 30
0.0
 10
496.788671
 20
96.302569
 30
0.0
 10
495.473108
 20
95.543028
 30
0.0
  0
SPLINE
  5
26e
100
AcDbEntity
  8
0
 62
7
100
AcDbSpline
 70
8
 71
3
 72
8
 73
4
 74
0
 40
0
 40
0
 40
0
 40
0
 40
1
 40
1
 40
1
 40
1
 10
495.473108
 20
95.543028
 30
0.0
 10
494.157544
 20
94.783487
 30
0.0
 10
493.347123
 20
93.379797
 30
0.0
 10
493.347124
 20
91.860716
 30
0.0
  0
SPLINE
  5
26f
100
AcDbEntity
  8
0
 62
7
100
AcDbSpline
 70
8
 71
3
 72
8
 73
4
 74
0
 40
0
 40
0
 40
0
 40
0
 40
1
 40
1
 40
1
 40
1
 10
493.347124
 20
91.860716
 30
0.0
 10
493.347124
 20
90.341634
 30
0.0
 10
494.157544
 20
88.937944
 30
0.0
 10
495.473108
 20
88.178403
 30
0.0
  0
SPLINE
  5
270
100
AcDbEntity
  8
0
 62
7
100
AcDbSpline
 70
8
 71
3
 72
8
 73
4
 74
0
 40
0
 40
0
 40
0
 40
0
 40
1
 40
1
 40
1
 40
1
 10
495.473108
 20
88.178403
 30
0.0
 10
496.788671
 20
87.418862
 30
0.0
 10
498.409512
 20
87.418862
 30
0.0
 10
499.725076
 20
88.178403
 30
0.0
  0
SPLINE
  5
271
100
AcDbEntity
  8
0
 62
7
100
AcDbSpline
 70
8
 71
3
 72
8
 73
4
 74
0
 40
0
 40
0
 40
0
 40
0
 40
1
 40
1
 40
1
 40
1
 10
499.725076
 20
88.178403
 30
0.0
 10
501.040639
 20
88.937944
 30
0.0
 10
501.851060
 20
90.341634
 30
0.0
 10
501.851060
 20
91.860716
 30
0.0
  0
LWPOLYLINE
  5
272
100
AcDbEntity
  8
0
 62
7
100
AcDbPolyline
 90
1
 70
1
 10
742.795942
 20
314.380400
 30
0.0
  0
SPLINE
  5
273
100
AcDbEntity
  8
0
 62
7
100
AcDbSpline
 70
8
 71
3
 72
8
 73
4
 74
0
 40
0
 40
0
 40
0
 40
0
 40
1
 40
1
 40
1
 40
1
 10
742.795942
 20
91.860716
 30
0.0
 10
742.795942
 20
93.379797
 30
0.0
 10
741.985521
 20
94.783487
 30
0.0
 10
740.669958
 20
95.543028
 30
0.0
  0
SPLINE
  5
274
100
AcDbEntity
  8
0
 62
7
100
AcDbSpline
 70
8
 71
3
 72
8
 73
4
 74
0
 40
0
 40
0
 40
0
 40
0
 40
1
 40
1
 40
1
 40
1
 10
740.669958
 20
95.543028
 30
0.0
 10
739.354394
 20
96.302569
 30
0.0
 10
737.733553
 20
96.302569
 30
0.0
 10
736.417989
 20
95.543028
 30
0.0
  0
SPLINE
  5
275
100
AcDbEntity
  8
0
 62
7
100
AcDbSpline
 70
8
 71
3
 72
8
 73
4
 74
0
 40
0
 40
0
 40
0
 40
0
 40
1
 40
1
 40
1
 40
1
 10
736.417989
 20
95.543028
 30
0.0
 10
735.102426
 20
94.783487
 30
0.0
 10
734.292005
 20
93.379797
 30
0.0
 10
734.292005
 20
91.860716
 30
0.0
  0
SPLINE
  5
276
100
AcDbEntity
  8
0
 62
7
100
AcDbSpline
 70
8
 71
3
 72
8
 73
4
 74
0
 40
0
 40
0
 40
0
 40
0
 40
1
 40
1
 40
1
 40
1
 10
734.292005
 20
91.860716
 30
0.0
 10
734.292005
 20
90.341634
 30
0.0
 10
735.102426
 20
88.937944
 30
0.0
 10
736.417989
 20
88.178403
 30
0.0
  0
SPLINE
  5
277
100
AcDbEntity
  8
0
 62
7
100
AcDbSpline
 70
8
 71
3
 72
8
 73
4
 74
0
 40
0
 40
0
 40
0
 40
0
 40
1
 40
1
 40
1
 40
1
 10
736.417989
 20
88.178403
 30
0.0
 10
737.733553
 20
87.418862
 30
0.0
 10
739.354394
 20
87.418862
 30
0.0
 10
740.669958
 20
88.178403
 30
0.0
  0
SPLINE
  5
278
100
AcDbEntity
  8
0
 62
7
100
AcDbSpline
 70
8
 71
3
 72
8
 73
4
 74
0
 40
0
 40
0
 40
0
 40
0
 40
1
 40
1
 40
1
 40
1
 10
740.669958
 20
88.178403
 30
0.0
 10
741.985521
 20
88.937944
 30
0.0
 10
742.795942
 20
90.341634
 30
0.0
 10
742.795942
 20
91.860716
 30
0.0
  0
LWPOLYLINE
  5
279
100
AcDbEntity
  8
0
 62
7
100
AcDbPolyline
 90
1
 70
1
 10
501.851060
 20
91.860716
 30
0.0
  0
LWPOLYLINE
  5
27a
100
AcDbEntity
  8
0
 62
7
100
AcDbPolyline
 90
1
 70
1
 10
742.795942
 20
91.860716
 30
0.0
  0
LWPOLYLINE
  5
27b
100
AcDbEntity
  8
0
 62
7
100
AcDbPolyline
 90
2
 70
0
 10
633.065790
 20
19.842520
 30
0.0
 10
633.065790
 20
45.354331
 30
0.0
  0
LWPOLYLINE
  5
27c
100
AcDbEntity
  8
0
 62
7
100
AcDbPolyline
 90
2
 70
0
 10
635.616970
 20
45.354331
 30
0.0
 10
635.616970
 20
19.842520
 30
0.0
  0
LWPOLYLINE
  5
27d
100
AcDbEntity
  8
0
 62
7
100
AcDbPolyline
 90
2
 70
0
 10
633.065790
 20
45.354331
 30
0.0
 10
635.616970
 20
45.354331
 30
0.0
  0
LWPOLYLINE
  5
27e
100
AcDbEntity
  8
0
 62
7
100
AcDbPolyline
 90
2
 70
0
 10
635.616970
 20
19.842520
 30
0.0
 10
633.065790
 20
19.842520
 30
0.0
  0
LWPOLYLINE
  5
27f
100
AcDbEntity
  8
0
 62
7
100
AcDbPolyline
 90
2
 70
0
 10
1021.517120
 20
228.725924
 30
0.0
 10
1023.321078
 20
230.529881
 30
0.0
  0
LWPOLYLINE
  5
280
100
AcDbEntity
  8
0
 62
7
100
AcDbPolyline
 90
2
 70
0
 10
1039.556695
 20
210.686348
 30
0.0
 10
1021.517120
 20
228.725924
 30
0.0
  0
LWPOLYLINE
  5
281
100
AcDbEntity
  8
0
 62
7
100
AcDbPolyline
 90
3
 70
0
 10
1023.321078
 20
230.529881
 30
0.0
 10
1041.360653
 20
212.490306
 30
0.0
 10
1039.556695
 20
210.686348
 30
0.0
  0
LWPOLYLINE
  5
282
100
AcDbEntity
  8
0
 62
7
100
AcDbPolyline
 90
2
 70
0
 10
1166.530393
 20
633.065790
 30
0.0
 10
1166.530393
 20
635.616971
 30
0.0
  0
LWPOLYLINE
  5
283
100
AcDbEntity
  8
0
 62
7
100
AcDbPolyline
 90
2
 70
0
 10
1192.042205
 20
633.065790
 30
0.0
 10
1166.530393
 20
633.065790
 30
0.0
  0
LWPOLYLINE
  5
284
100
AcDbEntity
  8
0
 62
7
100
AcDbPolyline
 90
3
 70
0
 10
1166.530393
 20
635.616971
 30
0.0
 10
1192.042205
 20
635.616971
 30
0.0
 10
1192.042205
 20
633.065790
 30
0.0
  0
LWPOLYLINE
  5
285
100
AcDbEntity
  8
0
 62
7
100
AcDbPolyline
 90
2
 70
0
 10
983.158801
 20
1021.517120
 30
0.0
 10
981.354844
 20
1023.321078
 30
0.0
  0
LWPOLYLINE
  5
286
100
AcDbEntity
  8
0
 62
7
100
AcDbPolyline
 90
2
 70
0
 10
1001.198376
 20
1039.556695
 30
0.0
 10
983.158801
 20
1021.517120
 30
0.0
  0
LWPOLYLINE
  5
287
100
AcDbEntity
  8
0
 62
7
100
AcDbPolyline
 90
3
 70
0
 10
981.354844
 20
1023.321078
 30
0.0
 10
999.394418
 20
1041.360653
 30
0.0
 10
1001.198376
 20
1039.556695
 30
0.0
  0
LWPOLYLINE
  5
288
100
AcDbEntity
  8
0
 62
7
100
AcDbPolyline
 90
2
 70
0
 10
578.818935
 20
1166.530394
 30
0.0
 10
576.267754
 20
1166.530394
 30
0.0
  0
LWPOLYLINE
  5
289
100
AcDbEntity
  8
0
 62
7
100
AcDbPolyline
 90
2
 70
0
 10
578.818935
 20
1192.042205
 30
0.0
 10
578.818935
 20
1166.530394
 30
0.0
  0
LWPOLYLINE
  5
28a
100
AcDbEntity
  8
0
 62
7
100
AcDbPolyline
 90
3
 70
0
 10
576.267754
 20
1166.530394
 30
0.0
 10
576.267754
 20
1192.042205
 30
0.0
 10
578.818935
 20
1192.042205
 30
0.0
  0
LWPOLYLINE
  5
28b
100
AcDbEntity
  8
0
 62
7
100
AcDbPolyline
 90
2
 70
0
 10
190.367604
 20
983.158802
 30
0.0
 10
188.563647
 20
981.354844
 30
0.0
  0
LWPOLYLINE
  5
28c
100
AcDbEntity
  8
0
 62
7
100
AcDbPolyline
 90
2
 70
0
 10
172.328029
 20
1001.198376
 30
0.0
 10
190.367604
 20
983.158802
 30
0.0
  0
LWPOLYLINE
  5
28d
100
AcDbEntity
  8
0
 62
7
100
AcDbPolyline
 90
3
 70
0
 10
188.563647
 20
981.354844
 30
0.0
 10
170.524072
 20
999.394418
 30
0.0
 10
172.328029
 20
1001.198376
 30
0.0
  0
LWPOLYLINE
  5
28e
100
AcDbEntity
  8
0
 62
7
100
AcDbPolyline
 90
2
 70
0
 10
45.354331
 20
578.818935
 30
0.0
 10
45.354331
 20
576.267754
 30
0.0
  0
LWPOLYLINE
  5
28f
100
AcDbEntity
  8
0
 62
7
100
AcDbPolyline
 90
2
 70
0
 10
19.842520
 20
578.818935
 30
0.0
 10
45.354331
 20
578.818935
 30
0.0
  0
LWPOLYLINE
  5
290
100
AcDbEntity
  8
0
 62
7
100
AcDbPolyline
 90
3
 70
0
 10
45.354331
 20
576.267754
 30
0.0
 10
19.842520
 20
576.267754
 30
0.0
 10
19.842520
 20
578.818935
 30
0.0
  0
LWPOLYLINE
  5
291
100
AcDbEntity
  8
0
 62
7
100
AcDbPolyline
 90
2
 70
0
 10
228.725923
 20
190.367604
 30
0.0
 10
230.529880
 20
188.563647
 30
0.0
  0
LWPOLYLINE
  5
292
100
AcDbEntity
  8
0
 62
7
100
AcDbPolyline
 90
2
 70
0
 10
210.686349
 20
172.328030
 30
0.0
 10
228.725923
 20
190.367604
 30
0.0
  0
LWPOLYLINE
  5
293
100
AcDbEntity
  8
0
 62
7
100
AcDbPolyline
 90
3
 70
0
 10
230.529880
 20
188.563647
 30
0.0
 10
212.490306
 20
170.524072
 30
0.0
 10
210.686349
 20
172.328030
 30
0.0
  0
ENDSEC
  0
SECTION
  2
OBJECTS
  0
DICTIONARY
  5
C
330
0
100
AcDbDictionary
  3
ACAD_GROUP
350
D
  3
ACAD_MLINESTYLE
350
17
  0
DICTIONARY
  5
D
330
C
100
AcDbDictionary
  0
DICTIONARY
  5
1A
330
C
100
AcDbDictionary
  0
DICTIONARY
  5
17
330
C
100
AcDbDictionary
  3
STANDARD
350
18
  0
DICTIONARY
  5
19
330
C
100
AcDbDictionary
  0
ENDSEC
  0
EOF
