0
SECTION
2
HEADER
9
$INSUNITS
70
4
9
$ACADVER
1
AC1014
9
$HANDSEED
5
FFFF
0
ENDSEC
0
SECTION
2
TABLES
0
TABLE
2
VPORT
5
8
100
AcDbSymbolTable
0
ENDTAB
0
TABLE
2
LTYPE
5
5
100
AcDbSymbolTable
0
LTYPE
5
14
100
AcDbSymbolTableRecord
100
AcDbLinetypeTableRecord
2
BYBLOCK
70
0
0
LTYPE
5
15
100
AcDbSymbolTableRecord
100
AcDbLinetypeTableRecord
2
BYLAYER
70
0
0
ENDTAB
0
TABLE
2
LAYER
5
2
100
AcDbSymbolTable
70
2
0
LAYER
5
50
100
AcDbSymbolTableRecord
100
AcDbLayerTableRecord
2
0
70
0
6
CONTINUOUS
0
ENDTAB
0
TABLE
2
STYLE
5
3
100
AcDbSymbolTable
70
1
0
STYLE
5
11
100
AcDbSymbolTableRecord
100
AcDbTextStyleTableRecord
2
STANDARD
70
0
0
ENDTAB
0
TABLE
2
VIEW
5
6
100
AcDbSymbolTable
70
0
0
ENDTAB
0
TABLE
2
UCS
5
7
100
AcDbSymbolTable
70
0
0
ENDTAB
0
TABLE
2
APPID
5
9
100
AcDbSymbolTable
70
2
0
APPID
5
12
100
AcDbSymbolTableRecord
100
AcDbRegAppTableRecord
2
ACAD
70
0
0
ENDTAB
0
TABLE
2
DIMSTYLE
5
A
100
AcDbSymbolTable
70
1
0
ENDTAB
0
TABLE
2
BLOCK_RECORD
5
1
100
AcDbSymbolTable
70
1
0
BLOCK_RECORD
5
1F
100
AcDbSymbolTableRecord
100
AcDbBlockTableRecord
2
*MODEL_SPACE
0
BLOCK_RECORD
5
1B
100
AcDbSymbolTableRecord
100
AcDbBlockTableRecord
2
*PAPER_SPACE
0
ENDTAB
0
ENDSEC
0
SECTION
2
BLOCKS
0
BLOCK
5
20
100
AcDbEntity
100
AcDbBlockBegin
2
*MODEL_SPACE
0
ENDBLK
5
21
100
AcDbEntity
100
AcDbBlockEnd
0
BLOCK
5
1C
100
AcDbEntity
100
AcDbBlockBegin
2
*PAPER_SPACE
0
ENDBLK
5
1D
100
AcDbEntity
100
AcDbBlockEnd
0
ENDSEC
0
SECTION
2
ENTITIES
0
CIRCLE
5
100
100
AcDbEntity
8
0
100
AcDbCircle
10
-81.011753712098198
20
78.330648624023695
30
0
40
1.5000000000000036
210
0
220
-0
230
1
0
CIRCLE
5
101
100
AcDbEntity
8
0
100
AcDbCircle
10
-167.34145210607866
20
78.514510942662156
30
0
40
1.4999999999999858
210
0
220
-0
230
1
0
CIRCLE
5
102
100
AcDbEntity
8
0
100
AcDbCircle
10
-9.0117537120981765
20
78.330648624023681
30
0
40
1.499999999999988
210
0
220
-0
230
1
0
CIRCLE
5
103
100
AcDbEntity
8
0
100
AcDbCircle
10
-95.341452106078663
20
78.514510942662113
30
0
40
1.4999999999999858
210
0
220
-0
230
1
0
CIRCLE
5
104
100
AcDbEntity
8
0
100
AcDbCircle
10
-86.118344947208726
20
117.12689292609906
30
0
40
1.5000000000000036
210
0
220
-0
230
1
0
CIRCLE
5
105
100
AcDbEntity
8
0
100
AcDbCircle
10
-0.38834494720871859
20
117.12689292609906
30
0
40
1.4999999999999989
210
0
220
-0
230
1
0
CIRCLE
5
106
100
AcDbEntity
8
0
100
AcDbCircle
10
-86.118344947208726
20
190.78689292609906
30
0
40
1.5000000000000036
210
0
220
-0
230
1
0
CIRCLE
5
107
100
AcDbEntity
8
0
100
AcDbCircle
10
-0.38834494720871859
20
190.78689292609906
30
0
40
1.4999999999999989
210
0
220
-0
230
1
0
LWPOLYLINE
5
108
100
AcDbEntity
8
0
100
AcDbPolyline
90
4
70
1
43
0.0
10
-189.64848433012878
20
84.69261005963719
10
-194.64848433014606
20
84.692610059636706
10
-194.64848433014589
20
39.692610059634504
10
-189.64848433012591
20
39.692610059634497
0
LWPOLYLINE
5
109
100
AcDbEntity
8
0
100
AcDbPolyline
90
4
70
1
43
0.0
10
-189.64848433012904
20
174.69261005964552
10
-194.64848433013518
20
174.69261005964552
10
-194.64848433012776
20
129.69261005964603
10
-189.64848433012864
20
129.69261005963929
0
LWPOLYLINE
5
110
100
AcDbEntity
8
0
100
AcDbPolyline
90
40
70
1
43
0.0
10
-194.64848433011451
20
206.19261005962673
10
-194.6484843301144
20
211.19261005962588
10
-158.14848433012739
20
211.19261005964597
10
-158.14848433012745
20
206.19261005963196
10
-113.14848433011869
20
206.19261005963168
10
-113.14848433011758
20
211.1926100596462
10
-68.148484330117583
20
211.19261005964418
10
-68.148484330114982
20
206.19261005963139
10
-23.148484330115018
20
206.1926100596325
10
-23.148484330116126
20
211.19261005964216
10
13.351515669885874
20
211.19261005962383
10
13.351515669885696
20
174.69261005962281
10
8.3515156698083182
20
174.69261005962244
10
8.3515156698081938
20
129.69261005963168
10
13.351515669885554
20
129.69261005963151
10
13.351515669885377
20
84.692610059631505
10
8.3515156698449999
20
84.692610059631505
10
8.3515156698817883
20
39.692610059631505
10
13.351515669885536
20
39.692610059630645
10
13.351515669885536
20
3.1926100596314999
10
-23.148484330130863
20
3.1926100596314999
10
-23.148484330135666
20
8.1926100593130524
10
-68.148484330129207
20
8.1926100593139317
10
-68.148484330135915
20
3.1926100596314999
10
-113.14848433012943
20
3.1926100596314999
10
-113.14848433012996
20
8.192610059314811
10
-158.14848433013174
20
8.192610059314811
10
-158.14848433013168
20
3.1926100593244833
10
-194.64848433014836
20
3.1926100596339868
10
-194.64848433013796
20
8.1926100596250073
10
-227.98181766346349
20
8.1926100596250961
10
-227.98181766346349
20
3.1926100596233375
10
-261.31515099678899
20
3.1926100596252027
10
-261.31515099678904
20
8.1926100596252027
10
-294.64848433011463
20
8.1926100596253093
10
-294.64848433011463
20
206.19261005962539
10
-261.3151509967812
20
206.19261005962585
10
-261.31515099678109
20
211.19261005962579
10
-227.98181766344771
20
211.19261005962545
10
-227.98181766344777
20
206.19261005962636
0
CIRCLE
5
111
100
AcDbEntity
8
0
100
AcDbCircle
10
-65.109685926507993
20
-121.43086029678398
30
0
40
2.0000000000000018
210
0
220
-0
230
1
0
CIRCLE
5
112
100
AcDbEntity
8
0
100
AcDbCircle
10
-83.975063606443641
20
-149.14552873442719
30
0
40
1.9999999999999929
210
0
220
-0
230
1
0
CIRCLE
5
113
100
AcDbEntity
8
0
100
AcDbCircle
10
-125.10968592650801
20
-121.43086029678398
30
0
40
1.9999999999999929
210
0
220
-0
230
1
0
CIRCLE
5
114
100
AcDbEntity
8
0
100
AcDbCircle
10
-23.975063606443911
20
-149.14552873442719
30
0
40
2.0000000000000018
210
0
220
-0
230
1
0
CIRCLE
5
115
100
AcDbEntity
8
0
100
AcDbCircle
10
-164.5423747664758
20
-135.28819451560548
30
0
40
14.499999999999993
210
0
220
-0
230
1
0
CIRCLE
5
116
100
AcDbEntity
8
0
100
AcDbCircle
10
-104.54237476647597
20
-135.28819451560545
30
0
40
14.500000000000011
210
0
220
-0
230
1
0
CIRCLE
5
117
100
AcDbEntity
8
0
100
AcDbCircle
10
-185.10968592650789
20
-121.43086029678389
30
0
40
1.9999999999999929
210
0
220
-0
230
1
0
CIRCLE
5
118
100
AcDbEntity
8
0
100
AcDbCircle
10
-143.9750636064434
20
-149.14552873442719
30
0
40
1.9999999999999929
210
0
220
-0
230
1
0
CIRCLE
5
119
100
AcDbEntity
8
0
100
AcDbCircle
10
-44.5423747664762
20
-135.28819451560543
30
0
40
14.500000000000002
210
0
220
-0
230
1
0
LWPOLYLINE
5
120
100
AcDbEntity
8
0
100
AcDbPolyline
90
4
70
1
43
0.0
10
-211.78383534274553
20
-156.8668341417723
10
-206.7838353427457
20
-156.86683414177233
10
-206.78383534274553
20
-136.8668341417723
10
-211.78383534274553
20
-136.86683414177227
0
LWPOLYLINE
5
121
100
AcDbEntity
8
0
100
AcDbPolyline
90
4
70
1
43
0.0
10
-211.7838353427411
20
-96.866834141772259
10
-211.7838353427411
20
-116.86683414177227
10
-206.7838353427411
20
-116.86683414177227
10
-206.7838353427411
20
-96.866834141772244
0
LWPOLYLINE
5
122
100
AcDbEntity
8
0
100
AcDbPolyline
90
45
70
1
43
0.0
10
-270.70530621869432
20
-110.37551371467418
10
-273.93805377132196
20
-114.18987385252193
10
-293.0098544604549
20
-98.026136089437045
10
-289.77710690782732
20
-94.211775951595911
10
-308.84890759697447
20
-78.048038188521232
10
-312.08165514959092
20
-81.862398326349265
10
-311.78383534276429
20
-71.866834142039323
10
-278.45050200943103
20
-71.866834142048987
10
-278.45050200943297
20
-76.866834142067432
10
-245.11716867609636
20
-76.86683414206172
10
-245.11716867608686
20
-71.866834142050934
10
-211.78383534273178
20
-71.866834141923079
10
-211.78383534273223
20
-76.866834141927839
10
-175.28383534274724
20
-76.866834141921643
10
-175.28383534276134
20
-71.86683414195025
10
-130.28383534276495
20
-71.866834141953149
10
-130.28383534276858
20
-76.866834141935641
10
-85.283835342763211
20
-76.86683414194394
10
-85.283835342763098
20
-71.866834141951102
10
-40.283835342757627
20
-71.866834141946526
10
-40.283835342759254
20
-76.866834141946541
10
-3.7838353427646698
20
-76.866834141958108
10
-3.7838353427674765
20
-96.866834141958108
10
-8.7838353427674765
20
-96.866834141952609
10
-8.7838353427423055
20
-116.86683414195261
10
-3.783835342768862
20
-116.86683414195355
10
-3.7838353427745464
20
-136.86683414195355
10
-8.7838353427435578
20
-136.86683414195528
10
-8.7838353427459737
20
-156.86683414195531
10
-3.7838353427521376
20
-156.86683414196048
10
-3.783835342759545
20
-176.86683414196051
10
-40.283835342749896
20
-176.86683414185666
10
-40.283835342763076
20
-181.86683414192188
10
-85.283835342763041
20
-181.86683414177278
10
-85.283835342750237
20
-176.86683414181473
10
-130.28383534274977
20
-176.86683414177281
10
-130.28383534278214
20
-181.86683414177278
10
-175.28383534277748
20
-181.86683414177278
10
-175.28383534277924
20
-176.86683414177278
10
-211.78383534274769
20
-176.86683414177276
10
-211.78383534275073
20
-160.31265490955437
10
-232.56170484042102
20
-142.70298924085236
10
-235.79445239305099
20
-146.51734937869651
10
-254.86625308218709
20
-130.35361161560897
10
-251.63350552955566
20
-126.53925147775892
0
LWPOLYLINE
5
123
100
AcDbEntity
8
0
100
AcDbPolyline
90
4
70
1
43
0.0
10
134.01780494812758
20
168.69040659510219
10
94.017804948127576
20
168.69040659510219
10
94.017804948127576
20
138.69040659510219
10
134.01780494812758
20
138.69040659510219
0
LWPOLYLINE
5
124
100
AcDbEntity
8
0
100
AcDbPolyline
90
36
70
1
43
0.0
10
181.78699879004421
20
38.792610050705036
10
176.78699879003955
20
38.79261005070564
10
176.78699879003648
20
7.292610050705548
10
156.7869987900383
20
7.2926100507057612
10
156.78699879003727
20
2.2926100509955205
10
136.78699879003756
20
2.2926100509966574
10
136.7869987900377
20
7.2926100507061875
10
116.78699879003776
20
7.2926100507061875
10
116.78699878996454
20
2.2926100509977942
10
96.786998789964386
20
2.2926100512892589
10
96.786998790037188
20
7.2926100512892589
10
76.786998790037245
20
7.2926100507061875
10
76.786998790036989
20
38.792610050706188
10
71.786998790033579
20
38.792610050706351
10
71.786998790034772
20
83.792610050706344
10
76.786998790038211
20
83.79261005070984
10
76.786998790039377
20
128.79261005070984
10
71.786998790045743
20
128.79261005071692
10
71.786998790056515
20
173.79261005071692
10
76.786998790056543
20
173.79261005072118
10
76.786998790064089
20
205.29261005072118
10
96.786998790064004
20
205.29261005071635
10
96.786998790064928
20
210.29261005267108
10
116.78699879006493
20
210.29261005267108
10
116.78699879006589
20
205.29261005071152
10
136.78699879006578
20
205.29261005071095
10
136.78699879055611
20
210.29261005267108
10
156.78699879055611
20
210.29261005071038
10
156.78699879006575
20
205.29261005071038
10
176.78699879006572
20
205.29261004874886
10
176.78699879004523
20
173.79261005071075
10
181.78699879006012
20
173.79261005071243
10
181.78699879005862
20
128.79261005071248
10
176.78699879004486
20
128.79261005071268
10
176.78699879004458
20
83.79261005070984
10
181.7869987900514
20
83.792610050705036
0
CIRCLE
5
125
100
AcDbEntity
8
0
100
AcDbCircle
10
464.02809875900004
20
43.500000000000014
30
0
40
2.5
210
0
220
-0
230
1
0
CIRCLE
5
126
100
AcDbEntity
8
0
100
AcDbCircle
10
440
20
110
30
0
40
6.0000000000000142
210
0
220
-0
230
1
0
CIRCLE
5
127
100
AcDbEntity
8
0
100
AcDbCircle
10
464.02809875900004
20
176.50000000000003
30
0
40
2.5
210
0
220
-0
230
1
0
LWPOLYLINE
5
128
100
AcDbEntity
8
0
100
AcDbPolyline
90
4
70
1
43
0.0
10
508
20
100
10
525
20
100
10
525
20
155
10
508
20
155
0
CIRCLE
5
129
100
AcDbEntity
8
0
100
AcDbCircle
10
455.55634918599998
20
94.443650813900007
30
0
40
2.0000000000000284
210
0
220
-0
230
1
0
CIRCLE
5
130
100
AcDbEntity
8
0
100
AcDbCircle
10
449.02809875900004
20
43.500000000000014
30
0
40
2.5
210
0
220
-0
230
1
0
CIRCLE
5
131
100
AcDbEntity
8
0
100
AcDbCircle
10
455.55634918599998
20
125.55634918599999
30
0
40
2.0000000000000284
210
0
220
-0
230
1
0
CIRCLE
5
132
100
AcDbEntity
8
0
100
AcDbCircle
10
516.5
20
178.5
30
0
40
2.5
210
0
220
-0
230
1
0
CIRCLE
5
133
100
AcDbEntity
8
0
100
AcDbCircle
10
516.5
20
163.5
30
0
40
2.5
210
0
220
-0
230
1
0
CIRCLE
5
134
100
AcDbEntity
8
0
100
AcDbCircle
10
449.02809875900004
20
176.50000000000003
30
0
40
2.5
210
0
220
-0
230
1
0
CIRCLE
5
135
100
AcDbEntity
8
0
100
AcDbCircle
10
424.44365081400008
20
94.443650813900007
30
0
40
2.0000000000000284
210
0
220
-0
230
1
0
CIRCLE
5
136
100
AcDbEntity
8
0
100
AcDbCircle
10
351
20
65
30
0
40
2.0000000000000284
210
0
220
-0
230
1
0
CIRCLE
5
137
100
AcDbEntity
8
0
100
AcDbCircle
10
351
20
155
30
0
40
2.0000000000000284
210
0
220
-0
230
1
0
LWPOLYLINE
5
138
100
AcDbEntity
8
0
100
AcDbPolyline
90
4
70
1
43
0.0
10
440.52809875900004
20
185
10
385.52809875899993
20
185
10
385.52809875899993
20
168
10
440.52809875900004
20
168
0
CIRCLE
5
139
100
AcDbEntity
8
0
100
AcDbCircle
10
424.44365081400008
20
125.55634918599999
30
0
40
2.0000000000000284
210
0
220
-0
230
1
0
LWPOLYLINE
5
140
100
AcDbEntity
8
0
100
AcDbPolyline
90
4
70
1
43
0.0
10
385.52809875899993
20
52.000000000000028
10
385.52809875899993
20
35
10
440.52809875900004
20
35
10
440.52809875900004
20
52.000000000000028
0
LWPOLYLINE
5
141
100
AcDbEntity
8
0
100
AcDbPolyline
90
36
70
1
43
0.0
10
417.5
20
5
10
417.5
20
11.000000000000014
10
372.5
20
11.000000000000014
10
372.5
20
5
10
335
20
5
10
335
20
42.5
10
341
20
42.5
10
341
20
87.5
10
335
20
87.5
10
335
20
132.5
10
341
20
132.5
10
341
20
177.5
10
335
20
177.5
10
335
20
215
10
372.5
20
215
10
372.5
20
209.00000000000003
10
417.5
20
209.00000000000003
10
417.5
20
215
10
462.5
20
215
10
462.5
20
209.00000000000003
10
507.5
20
209.00000000000003
10
507.5
20
215
10
545
20
215
10
545
20
177.5
10
539
20
177.5
10
539
20
132.5
10
545
20
132.5
10
545
20
87.5
10
539
20
87.5
10
539
20
42.5
10
545
20
42.5
10
545
20
5
10
507.5
20
5
10
507.5
20
11.000000000000014
10
462.5
20
11.000000000000014
10
462.5
20
5
0
CIRCLE
5
142
100
AcDbEntity
8
0
100
AcDbCircle
10
-35.41943307277927
20
329.93986078500654
30
0
40
2.0000000000000018
210
0
220
-0
230
1
0
CIRCLE
5
143
100
AcDbEntity
8
0
100
AcDbCircle
10
-54.419433072779277
20
348.93986078500643
30
0
40
19.999999999999982
210
0
220
-0
230
1
0
CIRCLE
5
144
100
AcDbEntity
8
0
100
AcDbCircle
10
-35.41943307277927
20
367.93986078500654
30
0
40
2.0000000000000018
210
0
220
-0
230
1
0
CIRCLE
5
145
100
AcDbEntity
8
0
100
AcDbCircle
10
-73.419433072779285
20
367.93986078500654
30
0
40
2.0000000000000018
210
0
220
-0
230
1
0
CIRCLE
5
146
100
AcDbEntity
8
0
100
AcDbCircle
10
-73.419433072779285
20
329.93986078500654
30
0
40
2.0000000000000018
210
0
220
-0
230
1
0
CIRCLE
5
147
100
AcDbEntity
8
0
100
AcDbCircle
10
-159.17079427821437
20
370.65979532289407
30
0
40
14.500000000000011
210
0
220
-0
230
1
0
CIRCLE
5
148
100
AcDbEntity
8
0
100
AcDbCircle
10
-179.23177594380854
20
385.24050225426208
30
0
40
1.9999999999999929
210
0
220
-0
230
1
0
CIRCLE
5
149
100
AcDbEntity
8
0
100
AcDbCircle
10
-139.10981261261963
20
356.07908839152594
30
0
40
1.9999999999999929
210
0
220
-0
230
1
0
LWPOLYLINE
5
150
100
AcDbEntity
8
0
100
AcDbPolyline
90
4
70
1
43
0.0
10
-211.46035038311024
20
392.36363226351472
10
-216.46035038304416
20
392.36363189623296
10
-216.46034867648757
20
372.36363189621636
10
-211.46035038308125
20
372.36363189621716
0
LWPOLYLINE
5
151
100
AcDbEntity
8
0
100
AcDbPolyline
90
4
70
1
43
0.0
10
-211.46035208966853
20
352.3636318961162
10
-216.46035038307488
20
352.36363189613542
10
-216.46035038313613
20
332.3636315287485
10
-211.46035208755862
20
332.36363152881864
0
LWPOLYLINE
5
152
100
AcDbEntity
8
0
100
AcDbPolyline
90
46
70
1
43
0.0
10
-316.46035038304456
20
307.36363255749359
10
-316.46035038301363
20
317.36363255749359
10
-313.22210828239082
20
313.55393596881959
10
-294.17362533840867
20
329.74514647121305
10
-297.41186743890421
20
333.55484306003541
10
-278.3633844950283
20
349.74605356251658
10
-275.12514239452111
20
345.93635697370411
10
-256.07665945053253
20
362.12756747608933
10
-259.31490155089898
20
365.93726406474894
10
-240.26641860686999
20
382.12847456729151
10
-237.02817650645247
20
378.31877797867543
10
-216.46035038304404
20
395.80143018360394
10
-216.4603503830437
20
402.36363255759358
10
-216.4603503983156
20
412.36363243330072
10
-179.96035039831565
20
412.36363248901205
10
-179.96035039199515
20
417.36363248901205
10
-134.96035039199515
20
417.36363243333238
10
-134.96035039199541
20
412.36363255769726
10
-89.960350391995405
20
412.36363255770209
10
-89.960350391995973
20
417.36363237765266
10
-44.960350391995973
20
417.36363237768387
10
-44.960350391995831
20
412.36363255770692
10
-8.4603503919958367
20
412.36363255771073
10
-8.4603503920036616
20
392.3636325577109
10
-13.4603503920048
20
392.36363255771118
10
-13.46035039201241
20
372.3636325577113
10
-8.4603503920114811
20
372.36363255770539
10
-8.4603503920193077
20
352.36363255770561
10
-13.460350392020018
20
352.36363255770749
10
-13.460350392027628
20
332.3636325577076
10
-8.4603503920271272
20
332.36363255770573
10
-8.4603503920349521
20
312.36363255770573
10
-44.960350391902246
20
312.363632557686
10
-44.960350391900299
20
307.363632557686
10
-89.960350388906832
20
307.36363255770368
10
-89.96035038890524
20
312.36363255766173
10
-134.96035038597921
20
312.3636325576374
10
-134.96035038597688
20
307.36363255772142
10
-179.96035038305087
20
307.36363255773904
10
-179.96035038304763
20
312.36363255761324
10
-216.46035038304771
20
312.36363255759363
10
-216.46035038304345
20
307.36363255759363
10
-249.79368371637665
20
307.36363255756021
10
-249.79368371638245
20
312.36363255756021
10
-283.12701704971585
20
312.36363255752741
10
-283.12701704971124
20
307.3636325575269
0
LWPOLYLINE
5
153
100
AcDbEntity
8
0
100
AcDbPolyline
90
4
70
1
43
0.0
10
-354.28409251657877
20
119.2539773572621
10
-374.28409251657877
20
119.2539773572621
10
-374.28409251657877
20
79.253977357262102
10
-354.28409251657877
20
79.253977357262102
0
LWPOLYLINE
5
154
100
AcDbEntity
8
0
100
AcDbPolyline
90
36
70
1
43
0.0
10
-388.21300121004367
20
198.29261005953114
10
-388.21300121004356
20
203.29261005931414
10
-368.21300121004424
20
203.29261005942209
10
-368.2130012100173
20
198.29261005942209
10
-348.21300121005999
20
198.29261005940839
10
-348.2130012100601
20
166.79261005940859
10
-343.21300121006186
20
166.79261005940839
10
-343.2130012100634
20
121.79261005941717
10
-348.21300121006118
20
121.79261005941723
10
-348.21300121006146
20
76.792610059426067
10
-343.21300121006402
20
76.792610059425982
10
-343.2130012100655
20
31.792610059428679
10
-348.21300121006436
20
31.792610059428767
10
-348.21300121006567
20
0.29261005942878171
10
-368.21300121006448
20
0.29261005942906593
10
-368.21300121006539
20
-4.7073899405708453
10
-388.21300121006516
20
-4.707389940570561
10
-388.21300121006527
20
0.29261005942956331
10
-408.21300121006539
20
0.29261005942956331
10
-408.21300121021869
20
-4.7073899405702768
10
-428.21300121021869
20
-4.707389939956883
10
-428.21300121006539
20
0.29261006004311696
10
-448.21300121006539
20
0.29261005942956331
10
-448.21300121006584
20
31.792610059551851
10
-453.21300121007374
20
31.792610059552029
10
-453.21300121007255
20
76.792610059551578
10
-448.2130012100655
20
76.792610059551421
10
-448.21300121006431
20
121.79261005954992
10
-453.21300121006124
20
121.79261005955135
10
-453.21300121004992
20
166.79261005954254
10
-448.21300121005066
20
166.79261005954132
10
-448.21300121004367
20
198.29261005954129
10
-428.21300121005311
20
198.29261005954027
10
-428.21300121004214
20
204.29261005952975
10
-408.21300121005243
20
204.29261005952975
10
-408.21300121004305
20
198.29261005953171
0
LWPOLYLINE
5
155
100
AcDbEntity
8
0
100
AcDbPolyline
90
4
70
1
43
0.0
10
-510.58315231624596
20
23.446372522875869
10
-510.58315231624596
20
188.44637252287583
10
-611.58315231624601
20
188.44637252287583
10
-611.58315231624601
20
23.446372522875869
0
LWPOLYLINE
5
156
100
AcDbEntity
8
0
100
AcDbPolyline
90
20
70
1
43
0.0
10
-523.58315223492116
20
1.9463725228759188
10
-523.58315223492116
20
6.9463725228759188
10
-548.58315223492116
20
6.9463725228759188
10
-548.58315223492116
20
1.9463725228759188
10
-573.58315190962207
20
1.9463725228574802
10
-573.58314946988003
20
6.9463725228569118
10
-598.58314963252951
20
6.9463725228379047
10
-598.58314963252712
20
1.9463725228534656
10
-623.58314979517672
20
1.9463725228422391
10
-623.58314979517661
20
209.94637252261225
10
-598.58314979517661
20
209.94637252260918
10
-598.5830935800733
20
204.9463725229252
10
-573.5830935800733
20
204.94637252267103
10
-573.58315223491968
20
209.94637252232701
10
-548.58315223492082
20
209.94637252260307
10
-548.58315223492104
20
204.94637252260307
10
-523.58315223492104
20
204.94637252287916
10
-523.58315223492116
20
209.94637252287916
10
-496.58315223492116
20
209.94637252287586
10
-496.58315223492116
20
1.9463725228758832
0
ENDSEC
0
SECTION
2
OBJECTS
0
DICTIONARY
5
C
100
AcDbDictionary
3
ACAD_GROUP
350
D
3
ACAD_MLINESTYLE
350
17
0
DICTIONARY
5
D
100
AcDbDictionary
0
DICTIONARY
5
1A
330
C
100
AcDbDictionary
0
DICTIONARY
5
17
100
AcDbDictionary
0
ENDSEC
0
EOF
