  0
SECTION
  2
HEADER
  9
$ACADVER
  1
AC1014
  9
$HANDSEED
  5
FFFF
  9
$MEASUREMENT
 70
     1
  0
ENDSEC
  0
SECTION
  2
TABLES
  0
TABLE
  2
VPORT
  5
8
330
0
100
AcDbSymbolTable
 70
     4
  0
VPORT
  5
2E
330
8
100
AcDbSymbolTableRecord
100
AcDbViewportTableRecord
  2
*ACTIVE
 70
     0
 10
0.0
 20
0.0
 11
1.0
 21
1.0
 12
210.0
 22
148.5
 13
0.0
 23
0.0
 14
10.0
 24
10.0
 15
10.0
 25
10.0
 16
0.0
 26
0.0
 36
1.0
 17
0.0
 27
0.0
 37
0.0
 40
341.0
 41
1.24
 42
50.0
 43
0.0
 44
0.0
 50
0.0
 51
0.0
 71
     0
 72
   100
 73
     1
 74
     3
 75
     0
 76
     0
 77
     0
 78
     0
  0
ENDTAB
  0
TABLE
  2
LTYPE
  5
5
330
0
100
AcDbSymbolTable
 70
     1
  0
LTYPE
  5
14
330
5
100
AcDbSymbolTableRecord
100
AcDbLinetypeTableRecord
  2
BYBLOCK
 70
     0
  3

 72
    65
 73
     0
 40
0.0
  0
LTYPE
  5
15
330
5
100
AcDbSymbolTableRecord
100
AcDbLinetypeTableRecord
  2
BYLAYER
 70
     0
  3

 72
    65
 73
     0
 40
0.0
  0
LTYPE
  5
16
330
5
100
AcDbSymbolTableRecord
100
AcDbLinetypeTableRecord
  2
CONTINUOUS
 70
     0
  3
Solid line
 72
    65
 73
     0
 40
0.0
  0
ENDTAB
  0
TABLE
  2
LAYER
  5
2
100
AcDbSymbolTable
 70
2
  0
LAYER
  5
50
100
AcDbSymbolTableRecord
100
AcDbLayerTableRecord
  2
0
 70
0
  6
CONTINUOUS
  0
LAYER
  5
51
100
AcDbSymbolTableRecord
100
AcDbLayerTableRecord
  2
Layer_1
 70
0
  6
CONTINUOUS
  0
ENDTAB
  0
TABLE
  2
STYLE
  5
3
330
0
100
AcDbSymbolTable
 70
     1
  0
STYLE
  5
11
330
3
100
AcDbSymbolTableRecord
100
AcDbTextStyleTableRecord
  2
STANDARD
 70
     0
 40
0.0
 41
1.0
 50
0.0
 71
     0
 42
2.5
  3
txt
  4

  0
ENDTAB
  0
TABLE
  2
VIEW
  5
6
330
0
100
AcDbSymbolTable
 70
     0
  0
ENDTAB
  0
TABLE
  2
UCS
  5
7
330
0
100
AcDbSymbolTable
 70
     0
  0
ENDTAB
  0
TABLE
  2
APPID
  5
9
330
0
100
AcDbSymbolTable
 70
     2
  0
APPID
  5
12
330
9
100
AcDbSymbolTableRecord
100
AcDbRegAppTableRecord
  2
ACAD
 70
     0
  0
ENDTAB
  0
TABLE
  2
DIMSTYLE
  5
A
330
0
100
AcDbSymbolTable
 70
     1
  0
DIMSTYLE
105
27
330
A
100
AcDbSymbolTableRecord
100
AcDbDimStyleTableRecord
  2
ISO-25
 70
     0
  3

  4

  5

  6

  7

 40
1.0
 41
2.5
 42
0.625
 43
3.75
 44
1.25
 45
0.0
 46
0.0
 47
0.0
 48
0.0
140
2.5
141
2.5
142
0.0
143
0.03937007874016
144
1.0
145
0.0
146
1.0
147
0.625
 71
     0
 72
     0
 73
     0
 74
     0
 75
     0
 76
     0
 77
     1
 78
     8
170
     0
171
     3
172
     1
173
     0
174
     0
175
     0
176
     0
177
     0
178
     0
270
     2
271
     2
272
     2
273
     2
274
     3
340
11
275
     0
280
     0
281
     0
282
     0
283
     0
284
     8
285
     0
286
     0
287
     3
288
     0
  0
ENDTAB
  0
TABLE
  2
BLOCK_RECORD
  5
1
330
0
100
AcDbSymbolTable
 70
     1
  0
BLOCK_RECORD
  5
1F
330
1
100
AcDbSymbolTableRecord
100
AcDbBlockTableRecord
  2
*MODEL_SPACE
  0
BLOCK_RECORD
  5
1B
330
1
100
AcDbSymbolTableRecord
100
AcDbBlockTableRecord
  2
*PAPER_SPACE
  0
ENDTAB
  0
ENDSEC
  0
SECTION
  2
BLOCKS
  0
BLOCK
  5
20
330
1F
100
AcDbEntity
  8
0
100
AcDbBlockBegin
  2
*MODEL_SPACE
 70
     0
 10
0.0
 20
0.0
 30
0.0
  3
*MODEL_SPACE
  1

  0
ENDBLK
  5
21
330
1F
100
AcDbEntity
  8
0
100
AcDbBlockEnd
  0
BLOCK
  5
1C
330
1B
100
AcDbEntity
 67
     1
  8
0
100
AcDbBlockBegin
  2
*PAPER_SPACE
  1

  0
ENDBLK
  5
1D
330
1B
100
AcDbEntity
 67
     1
  8
0
100
AcDbBlockEnd
  0
ENDSEC
  0
SECTION
  2
ENTITIES
  0
SPLINE
  5
100
100
AcDbEntity
  8
Layer_1
 62
7
100
AcDbSpline
 70
8
 71
3
 72
8
 73
4
 74
0
 40
0
 40
0
 40
0
 40
0
 40
1
 40
1
 40
1
 40
1
 10
50.170272
 20
1002.158135
 30
0.0
 10
39.823320
 20
1002.158137
 30
0.0
 10
29.900151
 20
998.047828
 30
0.0
 10
22.583750
 20
990.731429
 30
0.0
  0
SPLINE
  5
101
100
AcDbEntity
  8
Layer_1
 62
7
100
AcDbSpline
 70
8
 71
3
 72
8
 73
4
 74
0
 40
0
 40
0
 40
0
 40
0
 40
1
 40
1
 40
1
 40
1
 10
547.416255
 20
990.731429
 30
0.0
 10
540.099862
 20
998.047820
 30
0.0
 10
530.176707
 20
1002.158128
 30
0.0
 10
519.829767
 20
1002.158135
 30
0.0
  0
SPLINE
  5
102
100
AcDbEntity
  8
Layer_1
 62
7
100
AcDbSpline
 70
8
 71
3
 72
8
 73
4
 74
0
 40
0
 40
0
 40
0
 40
0
 40
1
 40
1
 40
1
 40
1
 10
890.942343
 20
631.045517
 30
0.0
 10
890.942351
 20
641.392465
 30
0.0
 10
886.832050
 20
651.315632
 30
0.0
 10
879.515660
 20
658.632036
 30
0.0
  0
SPLINE
  5
103
100
AcDbEntity
  8
Layer_1
 62
7
100
AcDbSpline
 70
8
 71
3
 72
8
 73
4
 74
0
 40
0
 40
0
 40
0
 40
0
 40
1
 40
1
 40
1
 40
1
 10
879.515660
 20
133.799528
 30
0.0
 10
886.832049
 20
141.115931
 30
0.0
 10
890.942350
 20
151.039097
 30
0.0
 10
890.942343
 20
161.386044
 30
0.0
  0
SPLINE
  5
104
100
AcDbEntity
  8
Layer_1
 62
7
100
AcDbSpline
 70
8
 71
3
 72
8
 73
4
 74
0
 40
0
 40
0
 40
0
 40
0
 40
1
 40
1
 40
1
 40
1
 10
519.829767
 20
-209.726589
 30
0.0
 10
530.176708
 20
-209.726581
 30
0.0
 10
540.099863
 20
-205.616270
 30
0.0
 10
547.416255
 20
-198.299877
 30
0.0
  0
SPLINE
  5
105
100
AcDbEntity
  8
Layer_1
 62
7
100
AcDbSpline
 70
8
 71
3
 72
8
 73
4
 74
0
 40
0
 40
0
 40
0
 40
0
 40
1
 40
1
 40
1
 40
1
 10
22.583750
 20
-198.299877
 30
0.0
 10
29.900150
 20
-205.616278
 30
0.0
 10
39.823319
 20
-209.726589
 30
0.0
 10
50.170272
 20
-209.726589
 30
0.0
  0
SPLINE
  5
106
100
AcDbEntity
  8
Layer_1
 62
7
100
AcDbSpline
 70
8
 71
3
 72
8
 73
4
 74
0
 40
0
 40
0
 40
0
 40
0
 40
1
 40
1
 40
1
 40
1
 10
-320.942353
 20
161.386044
 30
0.0
 10
-320.942352
 20
151.039093
 30
0.0
 10
-316.832041
 20
141.115926
 30
0.0
 10
-309.515641
 20
133.799528
 30
0.0
  0
SPLINE
  5
107
100
AcDbEntity
  8
Layer_1
 62
7
100
AcDbSpline
 70
8
 71
3
 72
8
 73
4
 74
0
 40
0
 40
0
 40
0
 40
0
 40
1
 40
1
 40
1
 40
1
 10
-309.515641
 20
658.632036
 30
0.0
 10
-316.832041
 20
651.315636
 30
0.0
 10
-320.942353
 20
641.392469
 30
0.0
 10
-320.942353
 20
631.045517
 30
0.0
  0
SPLINE
  5
108
100
AcDbEntity
  8
Layer_1
 62
7
100
AcDbSpline
 70
8
 71
3
 72
8
 73
4
 74
0
 40
0
 40
0
 40
0
 40
0
 40
1
 40
1
 40
1
 40
1
 10
534.344598
 20
987.921771
 30
0.0
 10
534.350159
 20
989.444541
 30
0.0
 10
533.540962
 20
990.854024
 30
0.0
 10
532.223123
 20
991.617019
 30
0.0
  0
SPLINE
  5
109
100
AcDbEntity
  8
Layer_1
 62
7
100
AcDbSpline
 70
8
 71
3
 72
8
 73
4
 74
0
 40
0
 40
0
 40
0
 40
0
 40
1
 40
1
 40
1
 40
1
 10
532.223123
 20
991.617019
 30
0.0
 10
530.905284
 20
992.380014
 30
0.0
 10
529.280033
 20
992.380014
 30
0.0
 10
527.962194
 20
991.617019
 30
0.0
  0
SPLINE
  5
10a
100
AcDbEntity
  8
Layer_1
 62
7
100
AcDbSpline
 70
8
 71
3
 72
8
 73
4
 74
0
 40
0
 40
0
 40
0
 40
0
 40
1
 40
1
 40
1
 40
1
 10
527.962194
 20
991.617019
 30
0.0
 10
526.644355
 20
990.854024
 30
0.0
 10
525.835158
 20
989.444541
 30
0.0
 10
525.840718
 20
987.921771
 30
0.0
  0
SPLINE
  5
10b
100
AcDbEntity
  8
Layer_1
 62
7
100
AcDbSpline
 70
8
 71
3
 72
8
 73
4
 74
0
 40
0
 40
0
 40
0
 40
0
 40
1
 40
1
 40
1
 40
1
 10
525.840718
 20
987.921771
 30
0.0
 10
525.835158
 20
986.399001
 30
0.0
 10
526.644355
 20
984.989518
 30
0.0
 10
527.962194
 20
984.226523
 30
0.0
  0
SPLINE
  5
10c
100
AcDbEntity
  8
Layer_1
 62
7
100
AcDbSpline
 70
8
 71
3
 72
8
 73
4
 74
0
 40
0
 40
0
 40
0
 40
0
 40
1
 40
1
 40
1
 40
1
 10
527.962194
 20
984.226523
 30
0.0
 10
529.280033
 20
983.463528
 30
0.0
 10
530.905284
 20
983.463528
 30
0.0
 10
532.223123
 20
984.226523
 30
0.0
  0
SPLINE
  5
10d
100
AcDbEntity
  8
Layer_1
 62
7
100
AcDbSpline
 70
8
 71
3
 72
8
 73
4
 74
0
 40
0
 40
0
 40
0
 40
0
 40
1
 40
1
 40
1
 40
1
 10
532.223123
 20
984.226523
 30
0.0
 10
533.540962
 20
984.989518
 30
0.0
 10
534.350159
 20
986.399001
 30
0.0
 10
534.344598
 20
987.921771
 30
0.0
  0
SPLINE
  5
10e
100
AcDbEntity
  8
Layer_1
 62
7
100
AcDbSpline
 70
8
 71
3
 72
8
 73
4
 74
0
 40
0
 40
0
 40
0
 40
0
 40
1
 40
1
 40
1
 40
1
 10
44.159323
 20
987.921771
 30
0.0
 10
44.159323
 20
989.440853
 30
0.0
 10
43.348903
 20
990.844543
 30
0.0
 10
42.033339
 20
991.604084
 30
0.0
  0
SPLINE
  5
10f
100
AcDbEntity
  8
Layer_1
 62
7
100
AcDbSpline
 70
8
 71
3
 72
8
 73
4
 74
0
 40
0
 40
0
 40
0
 40
0
 40
1
 40
1
 40
1
 40
1
 10
42.033339
 20
991.604084
 30
0.0
 10
40.717776
 20
992.363625
 30
0.0
 10
39.096934
 20
992.363625
 30
0.0
 10
37.781371
 20
991.604084
 30
0.0
  0
SPLINE
  5
110
100
AcDbEntity
  8
Layer_1
 62
7
100
AcDbSpline
 70
8
 71
3
 72
8
 73
4
 74
0
 40
0
 40
0
 40
0
 40
0
 40
1
 40
1
 40
1
 40
1
 10
37.781371
 20
991.604084
 30
0.0
 10
36.465807
 20
990.844543
 30
0.0
 10
35.655386
 20
989.440853
 30
0.0
 10
35.655386
 20
987.921771
 30
0.0
  0
SPLINE
  5
111
100
AcDbEntity
  8
Layer_1
 62
7
100
AcDbSpline
 70
8
 71
3
 72
8
 73
4
 74
0
 40
0
 40
0
 40
0
 40
0
 40
1
 40
1
 40
1
 40
1
 10
35.655386
 20
987.921771
 30
0.0
 10
35.655386
 20
986.402689
 30
0.0
 10
36.465807
 20
984.998999
 30
0.0
 10
37.781371
 20
984.239458
 30
0.0
  0
SPLINE
  5
112
100
AcDbEntity
  8
Layer_1
 62
7
100
AcDbSpline
 70
8
 71
3
 72
8
 73
4
 74
0
 40
0
 40
0
 40
0
 40
0
 40
1
 40
1
 40
1
 40
1
 10
37.781371
 20
984.239458
 30
0.0
 10
39.096934
 20
983.479917
 30
0.0
 10
40.717776
 20
983.479917
 30
0.0
 10
42.033339
 20
984.239458
 30
0.0
  0
SPLINE
  5
113
100
AcDbEntity
  8
Layer_1
 62
7
100
AcDbSpline
 70
8
 71
3
 72
8
 73
4
 74
0
 40
0
 40
0
 40
0
 40
0
 40
1
 40
1
 40
1
 40
1
 10
42.033339
 20
984.239458
 30
0.0
 10
43.348903
 20
984.998999
 30
0.0
 10
44.159323
 20
986.402689
 30
0.0
 10
44.159323
 20
987.921771
 30
0.0
  0
LWPOLYLINE
  5
114
100
AcDbEntity
  8
Layer_1
 62
7
100
AcDbPolyline
 90
1
 70
1
 10
534.344598
 20
987.921771
 30
0.0
  0
SPLINE
  5
115
100
AcDbEntity
  8
Layer_1
 62
7
100
AcDbSpline
 70
8
 71
3
 72
8
 73
4
 74
0
 40
0
 40
0
 40
0
 40
0
 40
1
 40
1
 40
1
 40
1
 10
-302.454028
 20
641.308431
 30
0.0
 10
-302.454028
 20
642.827513
 30
0.0
 10
-303.264449
 20
644.231202
 30
0.0
 10
-304.580013
 20
644.990743
 30
0.0
  0
SPLINE
  5
116
100
AcDbEntity
  8
Layer_1
 62
7
100
AcDbSpline
 70
8
 71
3
 72
8
 73
4
 74
0
 40
0
 40
0
 40
0
 40
0
 40
1
 40
1
 40
1
 40
1
 10
-304.580013
 20
644.990743
 30
0.0
 10
-305.895576
 20
645.750284
 30
0.0
 10
-307.516417
 20
645.750284
 30
0.0
 10
-308.831981
 20
644.990743
 30
0.0
  0
SPLINE
  5
117
100
AcDbEntity
  8
Layer_1
 62
7
100
AcDbSpline
 70
8
 71
3
 72
8
 73
4
 74
0
 40
0
 40
0
 40
0
 40
0
 40
1
 40
1
 40
1
 40
1
 10
-308.831981
 20
644.990743
 30
0.0
 10
-310.147545
 20
644.231202
 30
0.0
 10
-310.957965
 20
642.827513
 30
0.0
 10
-310.957965
 20
641.308431
 30
0.0
  0
SPLINE
  5
118
100
AcDbEntity
  8
Layer_1
 62
7
100
AcDbSpline
 70
8
 71
3
 72
8
 73
4
 74
0
 40
0
 40
0
 40
0
 40
0
 40
1
 40
1
 40
1
 40
1
 10
-310.957965
 20
641.308431
 30
0.0
 10
-310.957965
 20
639.789349
 30
0.0
 10
-310.147545
 20
638.385659
 30
0.0
 10
-308.831981
 20
637.626118
 30
0.0
  0
SPLINE
  5
119
100
AcDbEntity
  8
Layer_1
 62
7
100
AcDbSpline
 70
8
 71
3
 72
8
 73
4
 74
0
 40
0
 40
0
 40
0
 40
0
 40
1
 40
1
 40
1
 40
1
 10
-308.831981
 20
637.626118
 30
0.0
 10
-307.516417
 20
636.866577
 30
0.0
 10
-305.895576
 20
636.866577
 30
0.0
 10
-304.580013
 20
637.626118
 30
0.0
  0
SPLINE
  5
11a
100
AcDbEntity
  8
Layer_1
 62
7
100
AcDbSpline
 70
8
 71
3
 72
8
 73
4
 74
0
 40
0
 40
0
 40
0
 40
0
 40
1
 40
1
 40
1
 40
1
 10
-304.580013
 20
637.626118
 30
0.0
 10
-303.264449
 20
638.385659
 30
0.0
 10
-302.454028
 20
639.789349
 30
0.0
 10
-302.454028
 20
641.308431
 30
0.0
  0
LWPOLYLINE
  5
11b
100
AcDbEntity
  8
Layer_1
 62
7
100
AcDbPolyline
 90
1
 70
1
 10
44.159323
 20
987.921771
 30
0.0
  0
SPLINE
  5
11c
100
AcDbEntity
  8
Layer_1
 62
7
100
AcDbSpline
 70
8
 71
3
 72
8
 73
4
 74
0
 40
0
 40
0
 40
0
 40
0
 40
1
 40
1
 40
1
 40
1
 10
-302.454028
 20
151.123153
 30
0.0
 10
-302.454028
 20
152.642235
 30
0.0
 10
-303.264449
 20
154.045924
 30
0.0
 10
-304.580013
 20
154.805465
 30
0.0
  0
SPLINE
  5
11d
100
AcDbEntity
  8
Layer_1
 62
7
100
AcDbSpline
 70
8
 71
3
 72
8
 73
4
 74
0
 40
0
 40
0
 40
0
 40
0
 40
1
 40
1
 40
1
 40
1
 10
-304.580013
 20
154.805465
 30
0.0
 10
-305.895576
 20
155.565007
 30
0.0
 10
-307.516417
 20
155.565007
 30
0.0
 10
-308.831981
 20
154.805465
 30
0.0
  0
SPLINE
  5
11e
100
AcDbEntity
  8
Layer_1
 62
7
100
AcDbSpline
 70
8
 71
3
 72
8
 73
4
 74
0
 40
0
 40
0
 40
0
 40
0
 40
1
 40
1
 40
1
 40
1
 10
-308.831981
 20
154.805465
 30
0.0
 10
-310.147545
 20
154.045924
 30
0.0
 10
-310.957965
 20
152.642235
 30
0.0
 10
-310.957965
 20
151.123153
 30
0.0
  0
SPLINE
  5
11f
100
AcDbEntity
  8
Layer_1
 62
7
100
AcDbSpline
 70
8
 71
3
 72
8
 73
4
 74
0
 40
0
 40
0
 40
0
 40
0
 40
1
 40
1
 40
1
 40
1
 10
-310.957965
 20
151.123153
 30
0.0
 10
-310.957965
 20
149.604071
 30
0.0
 10
-310.147545
 20
148.200381
 30
0.0
 10
-308.831981
 20
147.440840
 30
0.0
  0
SPLINE
  5
120
100
AcDbEntity
  8
Layer_1
 62
7
100
AcDbSpline
 70
8
 71
3
 72
8
 73
4
 74
0
 40
0
 40
0
 40
0
 40
0
 40
1
 40
1
 40
1
 40
1
 10
-308.831981
 20
147.440840
 30
0.0
 10
-307.516417
 20
146.681299
 30
0.0
 10
-305.895576
 20
146.681299
 30
0.0
 10
-304.580013
 20
147.440840
 30
0.0
  0
SPLINE
  5
121
100
AcDbEntity
  8
Layer_1
 62
7
100
AcDbSpline
 70
8
 71
3
 72
8
 73
4
 74
0
 40
0
 40
0
 40
0
 40
0
 40
1
 40
1
 40
1
 40
1
 10
-304.580013
 20
147.440840
 30
0.0
 10
-303.264449
 20
148.200381
 30
0.0
 10
-302.454028
 20
149.604071
 30
0.0
 10
-302.454028
 20
151.123153
 30
0.0
  0
LWPOLYLINE
  5
122
100
AcDbEntity
  8
Layer_1
 62
7
100
AcDbPolyline
 90
1
 70
1
 10
-302.454028
 20
641.308431
 30
0.0
  0
SPLINE
  5
123
100
AcDbEntity
  8
Layer_1
 62
7
100
AcDbSpline
 70
8
 71
3
 72
8
 73
4
 74
0
 40
0
 40
0
 40
0
 40
0
 40
1
 40
1
 40
1
 40
1
 10
44.159323
 20
-195.490233
 30
0.0
 10
44.159323
 20
-193.971151
 30
0.0
 10
43.348903
 20
-192.567461
 30
0.0
 10
42.033339
 20
-191.807920
 30
0.0
  0
SPLINE
  5
124
100
AcDbEntity
  8
Layer_1
 62
7
100
AcDbSpline
 70
8
 71
3
 72
8
 73
4
 74
0
 40
0
 40
0
 40
0
 40
0
 40
1
 40
1
 40
1
 40
1
 10
42.033339
 20
-191.807920
 30
0.0
 10
40.717776
 20
-191.048379
 30
0.0
 10
39.096934
 20
-191.048379
 30
0.0
 10
37.781371
 20
-191.807920
 30
0.0
  0
SPLINE
  5
125
100
AcDbEntity
  8
Layer_1
 62
7
100
AcDbSpline
 70
8
 71
3
 72
8
 73
4
 74
0
 40
0
 40
0
 40
0
 40
0
 40
1
 40
1
 40
1
 40
1
 10
37.781371
 20
-191.807920
 30
0.0
 10
36.465807
 20
-192.567461
 30
0.0
 10
35.655386
 20
-193.971151
 30
0.0
 10
35.655386
 20
-195.490233
 30
0.0
  0
SPLINE
  5
126
100
AcDbEntity
  8
Layer_1
 62
7
100
AcDbSpline
 70
8
 71
3
 72
8
 73
4
 74
0
 40
0
 40
0
 40
0
 40
0
 40
1
 40
1
 40
1
 40
1
 10
35.655386
 20
-195.490233
 30
0.0
 10
35.655386
 20
-197.009315
 30
0.0
 10
36.465807
 20
-198.413005
 30
0.0
 10
37.781371
 20
-199.172546
 30
0.0
  0
SPLINE
  5
127
100
AcDbEntity
  8
Layer_1
 62
7
100
AcDbSpline
 70
8
 71
3
 72
8
 73
4
 74
0
 40
0
 40
0
 40
0
 40
0
 40
1
 40
1
 40
1
 40
1
 10
37.781371
 20
-199.172546
 30
0.0
 10
39.096934
 20
-199.932087
 30
0.0
 10
40.717776
 20
-199.932087
 30
0.0
 10
42.033339
 20
-199.172546
 30
0.0
  0
SPLINE
  5
128
100
AcDbEntity
  8
Layer_1
 62
7
100
AcDbSpline
 70
8
 71
3
 72
8
 73
4
 74
0
 40
0
 40
0
 40
0
 40
0
 40
1
 40
1
 40
1
 40
1
 10
42.033339
 20
-199.172546
 30
0.0
 10
43.348903
 20
-198.413005
 30
0.0
 10
44.159323
 20
-197.009315
 30
0.0
 10
44.159323
 20
-195.490233
 30
0.0
  0
LWPOLYLINE
  5
129
100
AcDbEntity
  8
Layer_1
 62
7
100
AcDbPolyline
 90
1
 70
1
 10
-302.454028
 20
151.123153
 30
0.0
  0
SPLINE
  5
12a
100
AcDbEntity
  8
Layer_1
 62
7
100
AcDbSpline
 70
8
 71
3
 72
8
 73
4
 74
0
 40
0
 40
0
 40
0
 40
0
 40
1
 40
1
 40
1
 40
1
 10
534.344598
 20
-195.490233
 30
0.0
 10
534.350159
 20
-193.967463
 30
0.0
 10
533.540962
 20
-192.557980
 30
0.0
 10
532.223123
 20
-191.794985
 30
0.0
  0
SPLINE
  5
12b
100
AcDbEntity
  8
Layer_1
 62
7
100
AcDbSpline
 70
8
 71
3
 72
8
 73
4
 74
0
 40
0
 40
0
 40
0
 40
0
 40
1
 40
1
 40
1
 40
1
 10
532.223123
 20
-191.794985
 30
0.0
 10
530.905284
 20
-191.031990
 30
0.0
 10
529.280033
 20
-191.031990
 30
0.0
 10
527.962194
 20
-191.794985
 30
0.0
  0
SPLINE
  5
12c
100
AcDbEntity
  8
Layer_1
 62
7
100
AcDbSpline
 70
8
 71
3
 72
8
 73
4
 74
0
 40
0
 40
0
 40
0
 40
0
 40
1
 40
1
 40
1
 40
1
 10
527.962194
 20
-191.794985
 30
0.0
 10
526.644355
 20
-192.557980
 30
0.0
 10
525.835158
 20
-193.967463
 30
0.0
 10
525.840718
 20
-195.490233
 30
0.0
  0
SPLINE
  5
12d
100
AcDbEntity
  8
Layer_1
 62
7
100
AcDbSpline
 70
8
 71
3
 72
8
 73
4
 74
0
 40
0
 40
0
 40
0
 40
0
 40
1
 40
1
 40
1
 40
1
 10
525.840718
 20
-195.490233
 30
0.0
 10
525.835158
 20
-197.013003
 30
0.0
 10
526.644355
 20
-198.422487
 30
0.0
 10
527.962194
 20
-199.185481
 30
0.0
  0
SPLINE
  5
12e
100
AcDbEntity
  8
Layer_1
 62
7
100
AcDbSpline
 70
8
 71
3
 72
8
 73
4
 74
0
 40
0
 40
0
 40
0
 40
0
 40
1
 40
1
 40
1
 40
1
 10
527.962194
 20
-199.185481
 30
0.0
 10
529.280033
 20
-199.948476
 30
0.0
 10
530.905284
 20
-199.948476
 30
0.0
 10
532.223123
 20
-199.185481
 30
0.0
  0
SPLINE
  5
12f
100
AcDbEntity
  8
Layer_1
 62
7
100
AcDbSpline
 70
8
 71
3
 72
8
 73
4
 74
0
 40
0
 40
0
 40
0
 40
0
 40
1
 40
1
 40
1
 40
1
 10
532.223123
 20
-199.185481
 30
0.0
 10
533.540962
 20
-198.422487
 30
0.0
 10
534.350159
 20
-197.013003
 30
0.0
 10
534.344598
 20
-195.490233
 30
0.0
  0
LWPOLYLINE
  5
130
100
AcDbEntity
  8
Layer_1
 62
7
100
AcDbPolyline
 90
1
 70
1
 10
44.159323
 20
-195.490233
 30
0.0
  0
SPLINE
  5
131
100
AcDbEntity
  8
Layer_1
 62
7
100
AcDbSpline
 70
8
 71
3
 72
8
 73
4
 74
0
 40
0
 40
0
 40
0
 40
0
 40
1
 40
1
 40
1
 40
1
 10
880.957984
 20
151.123153
 30
0.0
 10
880.957984
 20
152.642240
 30
0.0
 10
880.147561
 20
154.045934
 30
0.0
 10
878.831993
 20
154.805478
 30
0.0
  0
SPLINE
  5
132
100
AcDbEntity
  8
Layer_1
 62
7
100
AcDbSpline
 70
8
 71
3
 72
8
 73
4
 74
0
 40
0
 40
0
 40
0
 40
0
 40
1
 40
1
 40
1
 40
1
 10
878.831993
 20
154.805478
 30
0.0
 10
877.516425
 20
155.565021
 30
0.0
 10
875.895578
 20
155.565021
 30
0.0
 10
874.580010
 20
154.805478
 30
0.0
  0
SPLINE
  5
133
100
AcDbEntity
  8
Layer_1
 62
7
100
AcDbSpline
 70
8
 71
3
 72
8
 73
4
 74
0
 40
0
 40
0
 40
0
 40
0
 40
1
 40
1
 40
1
 40
1
 10
874.580010
 20
154.805478
 30
0.0
 10
873.264442
 20
154.045934
 30
0.0
 10
872.454019
 20
152.642240
 30
0.0
 10
872.454019
 20
151.123153
 30
0.0
  0
SPLINE
  5
134
100
AcDbEntity
  8
Layer_1
 62
7
100
AcDbSpline
 70
8
 71
3
 72
8
 73
4
 74
0
 40
0
 40
0
 40
0
 40
0
 40
1
 40
1
 40
1
 40
1
 10
872.454019
 20
151.123153
 30
0.0
 10
872.454019
 20
149.604066
 30
0.0
 10
873.264442
 20
148.200371
 30
0.0
 10
874.580010
 20
147.440828
 30
0.0
  0
SPLINE
  5
135
100
AcDbEntity
  8
Layer_1
 62
7
100
AcDbSpline
 70
8
 71
3
 72
8
 73
4
 74
0
 40
0
 40
0
 40
0
 40
0
 40
1
 40
1
 40
1
 40
1
 10
874.580010
 20
147.440828
 30
0.0
 10
875.895578
 20
146.681284
 30
0.0
 10
877.516425
 20
146.681284
 30
0.0
 10
878.831993
 20
147.440828
 30
0.0
  0
SPLINE
  5
136
100
AcDbEntity
  8
Layer_1
 62
7
100
AcDbSpline
 70
8
 71
3
 72
8
 73
4
 74
0
 40
0
 40
0
 40
0
 40
0
 40
1
 40
1
 40
1
 40
1
 10
878.831993
 20
147.440828
 30
0.0
 10
880.147561
 20
148.200371
 30
0.0
 10
880.957984
 20
149.604066
 30
0.0
 10
880.957984
 20
151.123153
 30
0.0
  0
LWPOLYLINE
  5
137
100
AcDbEntity
  8
Layer_1
 62
7
100
AcDbPolyline
 90
1
 70
1
 10
534.344598
 20
-195.490233
 30
0.0
  0
SPLINE
  5
138
100
AcDbEntity
  8
Layer_1
 62
7
100
AcDbSpline
 70
8
 71
3
 72
8
 73
4
 74
0
 40
0
 40
0
 40
0
 40
0
 40
1
 40
1
 40
1
 40
1
 10
880.957984
 20
641.308431
 30
0.0
 10
880.957984
 20
642.827518
 30
0.0
 10
880.147561
 20
644.231212
 30
0.0
 10
878.831993
 20
644.990756
 30
0.0
  0
SPLINE
  5
139
100
AcDbEntity
  8
Layer_1
 62
7
100
AcDbSpline
 70
8
 71
3
 72
8
 73
4
 74
0
 40
0
 40
0
 40
0
 40
0
 40
1
 40
1
 40
1
 40
1
 10
878.831993
 20
644.990756
 30
0.0
 10
877.516425
 20
645.750299
 30
0.0
 10
875.895578
 20
645.750299
 30
0.0
 10
874.580010
 20
644.990756
 30
0.0
  0
SPLINE
  5
13a
100
AcDbEntity
  8
Layer_1
 62
7
100
AcDbSpline
 70
8
 71
3
 72
8
 73
4
 74
0
 40
0
 40
0
 40
0
 40
0
 40
1
 40
1
 40
1
 40
1
 10
874.580010
 20
644.990756
 30
0.0
 10
873.264442
 20
644.231212
 30
0.0
 10
872.454019
 20
642.827518
 30
0.0
 10
872.454019
 20
641.308431
 30
0.0
  0
SPLINE
  5
13b
100
AcDbEntity
  8
Layer_1
 62
7
100
AcDbSpline
 70
8
 71
3
 72
8
 73
4
 74
0
 40
0
 40
0
 40
0
 40
0
 40
1
 40
1
 40
1
 40
1
 10
872.454019
 20
641.308431
 30
0.0
 10
872.454019
 20
639.789343
 30
0.0
 10
873.264442
 20
638.385649
 30
0.0
 10
874.580010
 20
637.626106
 30
0.0
  0
SPLINE
  5
13c
100
AcDbEntity
  8
Layer_1
 62
7
100
AcDbSpline
 70
8
 71
3
 72
8
 73
4
 74
0
 40
0
 40
0
 40
0
 40
0
 40
1
 40
1
 40
1
 40
1
 10
874.580010
 20
637.626106
 30
0.0
 10
875.895578
 20
636.866562
 30
0.0
 10
877.516425
 20
636.866562
 30
0.0
 10
878.831993
 20
637.626106
 30
0.0
  0
SPLINE
  5
13d
100
AcDbEntity
  8
Layer_1
 62
7
100
AcDbSpline
 70
8
 71
3
 72
8
 73
4
 74
0
 40
0
 40
0
 40
0
 40
0
 40
1
 40
1
 40
1
 40
1
 10
878.831993
 20
637.626106
 30
0.0
 10
880.147561
 20
638.385649
 30
0.0
 10
880.957984
 20
639.789343
 30
0.0
 10
880.957984
 20
641.308431
 30
0.0
  0
LWPOLYLINE
  5
13e
100
AcDbEntity
  8
Layer_1
 62
7
100
AcDbPolyline
 90
1
 70
1
 10
880.957984
 20
151.123153
 30
0.0
  0
LWPOLYLINE
  5
13f
100
AcDbEntity
  8
Layer_1
 62
7
100
AcDbPolyline
 90
1
 70
1
 10
880.957984
 20
641.308431
 30
0.0
  0
LWPOLYLINE
  5
140
100
AcDbEntity
  8
Layer_1
 62
7
100
AcDbPolyline
 90
2
 70
0
 10
890.942343
 20
631.045517
 30
0.0
 10
890.942343
 20
602.699063
 30
0.0
  0
LWPOLYLINE
  5
141
100
AcDbEntity
  8
Layer_1
 62
7
100
AcDbPolyline
 90
3
 70
0
 10
876.769143
 20
602.699063
 30
0.0
 10
876.769143
 20
520.105748
 30
0.0
 10
890.942343
 20
520.105748
 30
0.0
  0
LWPOLYLINE
  5
142
100
AcDbEntity
  8
Layer_1
 62
7
100
AcDbPolyline
 90
4
 70
0
 10
890.942343
 20
437.512450
 30
0.0
 10
876.769143
 20
437.512450
 30
0.0
 10
876.769143
 20
354.919124
 30
0.0
 10
890.942343
 20
354.919124
 30
0.0
  0
LWPOLYLINE
  5
143
100
AcDbEntity
  8
Layer_1
 62
7
100
AcDbPolyline
 90
4
 70
0
 10
890.942343
 20
272.325827
 30
0.0
 10
876.769143
 20
272.325827
 30
0.0
 10
876.769143
 20
189.732501
 30
0.0
 10
890.942343
 20
189.732501
 30
0.0
  0
LWPOLYLINE
  5
144
100
AcDbEntity
  8
Layer_1
 62
7
100
AcDbPolyline
 90
2
 70
0
 10
876.769143
 20
602.699063
 30
0.0
 10
890.942343
 20
602.699063
 30
0.0
  0
LWPOLYLINE
  5
145
100
AcDbEntity
  8
Layer_1
 62
7
100
AcDbPolyline
 90
2
 70
0
 10
890.942343
 20
272.325827
 30
0.0
 10
890.942343
 20
354.919124
 30
0.0
  0
LWPOLYLINE
  5
146
100
AcDbEntity
  8
Layer_1
 62
7
100
AcDbPolyline
 90
2
 70
0
 10
890.942343
 20
437.512450
 30
0.0
 10
890.942343
 20
520.105748
 30
0.0
  0
LWPOLYLINE
  5
147
100
AcDbEntity
  8
Layer_1
 62
7
100
AcDbPolyline
 90
2
 70
0
 10
890.942343
 20
189.732501
 30
0.0
 10
890.942343
 20
161.386044
 30
0.0
  0
LWPOLYLINE
  5
148
100
AcDbEntity
  8
Layer_1
 62
7
100
AcDbPolyline
 90
2
 70
0
 10
547.416255
 20
990.731429
 30
0.0
 10
567.460233
 20
970.687454
 30
0.0
  0
LWPOLYLINE
  5
149
100
AcDbEntity
  8
Layer_1
 62
7
100
AcDbPolyline
 90
3
 70
0
 10
557.438202
 20
960.665474
 30
0.0
 10
615.840548
 20
902.263184
 30
0.0
 10
625.862523
 20
912.285164
 30
0.0
  0
LWPOLYLINE
  5
14a
100
AcDbEntity
  8
Layer_1
 62
7
100
AcDbPolyline
 90
2
 70
0
 10
684.264784
 20
853.882876
 30
0.0
 10
625.862523
 20
912.285164
 30
0.0
  0
LWPOLYLINE
  5
14b
100
AcDbEntity
  8
Layer_1
 62
7
100
AcDbPolyline
 90
4
 70
0
 10
684.264784
 20
853.882876
 30
0.0
 10
674.242838
 20
843.860896
 30
0.0
 10
732.645099
 20
785.458599
 30
0.0
 10
742.667046
 20
795.480585
 30
0.0
  0
LWPOLYLINE
  5
14c
100
AcDbEntity
  8
Layer_1
 62
7
100
AcDbPolyline
 90
2
 70
0
 10
801.069420
 20
737.078298
 30
0.0
 10
742.667046
 20
795.480585
 30
0.0
  0
LWPOLYLINE
  5
14d
100
AcDbEntity
  8
Layer_1
 62
7
100
AcDbPolyline
 90
2
 70
0
 10
791.047389
 20
727.056309
 30
0.0
 10
849.449650
 20
668.654022
 30
0.0
  0
LWPOLYLINE
  5
14e
100
AcDbEntity
  8
Layer_1
 62
7
100
AcDbPolyline
 90
2
 70
0
 10
859.471682
 20
678.676008
 30
0.0
 10
879.515660
 20
658.632036
 30
0.0
  0
LWPOLYLINE
  5
14f
100
AcDbEntity
  8
Layer_1
 62
7
100
AcDbPolyline
 90
2
 70
0
 10
557.438202
 20
960.665474
 30
0.0
 10
567.460233
 20
970.687454
 30
0.0
  0
LWPOLYLINE
  5
150
100
AcDbEntity
  8
Layer_1
 62
7
100
AcDbPolyline
 90
2
 70
0
 10
849.449650
 20
668.654022
 30
0.0
 10
859.471682
 20
678.676008
 30
0.0
  0
LWPOLYLINE
  5
151
100
AcDbEntity
  8
Layer_1
 62
7
100
AcDbPolyline
 90
2
 70
0
 10
801.069420
 20
737.078298
 30
0.0
 10
791.047389
 20
727.056309
 30
0.0
  0
LWPOLYLINE
  5
152
100
AcDbEntity
  8
Layer_1
 62
7
100
AcDbPolyline
 90
2
 70
0
 10
50.170272
 20
1002.158135
 30
0.0
 10
78.516726
 20
1002.158135
 30
0.0
  0
LWPOLYLINE
  5
153
100
AcDbEntity
  8
Layer_1
 62
7
100
AcDbPolyline
 90
3
 70
0
 10
78.516726
 20
987.984913
 30
0.0
 10
161.110037
 20
987.984913
 30
0.0
 10
161.110037
 20
1002.158135
 30
0.0
  0
LWPOLYLINE
  5
154
100
AcDbEntity
  8
Layer_1
 62
7
100
AcDbPolyline
 90
2
 70
0
 10
243.703346
 20
1002.158135
 30
0.0
 10
161.110037
 20
1002.158135
 30
0.0
  0
LWPOLYLINE
  5
155
100
AcDbEntity
  8
Layer_1
 62
7
100
AcDbPolyline
 90
4
 70
0
 10
243.703346
 20
1002.158135
 30
0.0
 10
243.703346
 20
987.984913
 30
0.0
 10
326.296658
 20
987.984913
 30
0.0
 10
326.296658
 20
1002.158135
 30
0.0
  0
LWPOLYLINE
  5
156
100
AcDbEntity
  8
Layer_1
 62
7
100
AcDbPolyline
 90
2
 70
0
 10
408.889956
 20
1002.158135
 30
0.0
 10
326.296658
 20
1002.158135
 30
0.0
  0
LWPOLYLINE
  5
157
100
AcDbEntity
  8
Layer_1
 62
7
100
AcDbPolyline
 90
2
 70
0
 10
408.889956
 20
987.984913
 30
0.0
 10
491.483282
 20
987.984913
 30
0.0
  0
LWPOLYLINE
  5
158
100
AcDbEntity
  8
Layer_1
 62
7
100
AcDbPolyline
 90
2
 70
0
 10
491.483282
 20
1002.158135
 30
0.0
 10
519.829767
 20
1002.158135
 30
0.0
  0
LWPOLYLINE
  5
159
100
AcDbEntity
  8
Layer_1
 62
7
100
AcDbPolyline
 90
2
 70
0
 10
78.516726
 20
987.984913
 30
0.0
 10
78.516726
 20
1002.158135
 30
0.0
  0
LWPOLYLINE
  5
15a
100
AcDbEntity
  8
Layer_1
 62
7
100
AcDbPolyline
 90
2
 70
0
 10
491.483282
 20
987.984913
 30
0.0
 10
491.483282
 20
1002.158135
 30
0.0
  0
LWPOLYLINE
  5
15b
100
AcDbEntity
  8
Layer_1
 62
7
100
AcDbPolyline
 90
2
 70
0
 10
408.889956
 20
1002.158135
 30
0.0
 10
408.889956
 20
987.984913
 30
0.0
  0
LWPOLYLINE
  5
15c
100
AcDbEntity
  8
Layer_1
 62
7
100
AcDbPolyline
 90
2
 70
0
 10
-309.515641
 20
658.632036
 30
0.0
 10
-289.471663
 20
678.676008
 30
0.0
  0
LWPOLYLINE
  5
15d
100
AcDbEntity
  8
Layer_1
 62
7
100
AcDbPolyline
 90
3
 70
0
 10
-279.449685
 20
668.654022
 30
0.0
 10
-221.047393
 20
727.056309
 30
0.0
 10
-231.069382
 20
737.078298
 30
0.0
  0
LWPOLYLINE
  5
15e
100
AcDbEntity
  8
Layer_1
 62
7
100
AcDbPolyline
 90
2
 70
0
 10
-172.667092
 20
795.480585
 30
0.0
 10
-231.069382
 20
737.078298
 30
0.0
  0
LWPOLYLINE
  5
15f
100
AcDbEntity
  8
Layer_1
 62
7
100
AcDbPolyline
 90
4
 70
0
 10
-172.667092
 20
795.480585
 30
0.0
 10
-162.645106
 20
785.458599
 30
0.0
 10
-104.242816
 20
843.860896
 30
0.0
 10
-114.264802
 20
853.882876
 30
0.0
  0
LWPOLYLINE
  5
160
100
AcDbEntity
  8
Layer_1
 62
7
100
AcDbPolyline
 90
2
 70
0
 10
-55.862512
 20
912.285164
 30
0.0
 10
-114.264802
 20
853.882876
 30
0.0
  0
LWPOLYLINE
  5
161
100
AcDbEntity
  8
Layer_1
 62
7
100
AcDbPolyline
 90
2
 70
0
 10
-45.840526
 20
902.263184
 30
0.0
 10
12.561763
 20
960.665474
 30
0.0
  0
LWPOLYLINE
  5
162
100
AcDbEntity
  8
Layer_1
 62
7
100
AcDbPolyline
 90
2
 70
0
 10
2.539776
 20
970.687454
 30
0.0
 10
22.583750
 20
990.731429
 30
0.0
  0
LWPOLYLINE
  5
163
100
AcDbEntity
  8
Layer_1
 62
7
100
AcDbPolyline
 90
2
 70
0
 10
-279.449685
 20
668.654022
 30
0.0
 10
-289.471663
 20
678.676008
 30
0.0
  0
LWPOLYLINE
  5
164
100
AcDbEntity
  8
Layer_1
 62
7
100
AcDbPolyline
 90
2
 70
0
 10
12.561763
 20
960.665474
 30
0.0
 10
2.539776
 20
970.687454
 30
0.0
  0
LWPOLYLINE
  5
165
100
AcDbEntity
  8
Layer_1
 62
7
100
AcDbPolyline
 90
2
 70
0
 10
-55.862512
 20
912.285164
 30
0.0
 10
-45.840526
 20
902.263184
 30
0.0
  0
LWPOLYLINE
  5
166
100
AcDbEntity
  8
Layer_1
 62
7
100
AcDbPolyline
 90
2
 70
0
 10
-320.942353
 20
161.386044
 30
0.0
 10
-320.942353
 20
189.732501
 30
0.0
  0
LWPOLYLINE
  5
167
100
AcDbEntity
  8
Layer_1
 62
7
100
AcDbPolyline
 90
3
 70
0
 10
-306.769124
 20
189.732501
 30
0.0
 10
-306.769124
 20
272.325827
 30
0.0
 10
-320.942353
 20
272.325827
 30
0.0
  0
LWPOLYLINE
  5
168
100
AcDbEntity
  8
Layer_1
 62
7
100
AcDbPolyline
 90
2
 70
0
 10
-320.942353
 20
354.919124
 30
0.0
 10
-320.942353
 20
272.325827
 30
0.0
  0
LWPOLYLINE
  5
169
100
AcDbEntity
  8
Layer_1
 62
7
100
AcDbPolyline
 90
4
 70
0
 10
-320.942353
 20
354.919124
 30
0.0
 10
-306.769124
 20
354.919124
 30
0.0
 10
-306.769124
 20
437.512450
 30
0.0
 10
-320.942353
 20
437.512450
 30
0.0
  0
LWPOLYLINE
  5
16a
100
AcDbEntity
  8
Layer_1
 62
7
100
AcDbPolyline
 90
2
 70
0
 10
-320.942353
 20
520.105748
 30
0.0
 10
-320.942353
 20
437.512450
 30
0.0
  0
LWPOLYLINE
  5
16b
100
AcDbEntity
  8
Layer_1
 62
7
100
AcDbPolyline
 90
2
 70
0
 10
-306.769124
 20
520.105748
 30
0.0
 10
-306.769124
 20
602.699063
 30
0.0
  0
LWPOLYLINE
  5
16c
100
AcDbEntity
  8
Layer_1
 62
7
100
AcDbPolyline
 90
2
 70
0
 10
-320.942353
 20
602.699063
 30
0.0
 10
-320.942353
 20
631.045517
 30
0.0
  0
LWPOLYLINE
  5
16d
100
AcDbEntity
  8
Layer_1
 62
7
100
AcDbPolyline
 90
2
 70
0
 10
-306.769124
 20
189.732501
 30
0.0
 10
-320.942353
 20
189.732501
 30
0.0
  0
LWPOLYLINE
  5
16e
100
AcDbEntity
  8
Layer_1
 62
7
100
AcDbPolyline
 90
2
 70
0
 10
-306.769124
 20
602.699063
 30
0.0
 10
-320.942353
 20
602.699063
 30
0.0
  0
LWPOLYLINE
  5
16f
100
AcDbEntity
  8
Layer_1
 62
7
100
AcDbPolyline
 90
2
 70
0
 10
-320.942353
 20
520.105748
 30
0.0
 10
-306.769124
 20
520.105748
 30
0.0
  0
LWPOLYLINE
  5
170
100
AcDbEntity
  8
Layer_1
 62
7
100
AcDbPolyline
 90
2
 70
0
 10
22.583750
 20
-198.299877
 30
0.0
 10
2.539776
 20
-178.255899
 30
0.0
  0
LWPOLYLINE
  5
171
100
AcDbEntity
  8
Layer_1
 62
7
100
AcDbPolyline
 90
3
 70
0
 10
12.561763
 20
-168.233868
 30
0.0
 10
-45.840526
 20
-109.831606
 30
0.0
 10
-55.862512
 20
-119.853638
 30
0.0
  0
LWPOLYLINE
  5
172
100
AcDbEntity
  8
Layer_1
 62
7
100
AcDbPolyline
 90
2
 70
0
 10
-114.264802
 20
-61.451291
 30
0.0
 10
-55.862512
 20
-119.853638
 30
0.0
  0
LWPOLYLINE
  5
173
100
AcDbEntity
  8
Layer_1
 62
7
100
AcDbPolyline
 90
4
 70
0
 10
-114.264802
 20
-61.451291
 30
0.0
 10
-104.242816
 20
-51.429317
 30
0.0
 10
-162.645106
 20
6.972973
 30
0.0
 10
-172.667092
 20
-3.049030
 30
0.0
  0
LWPOLYLINE
  5
174
100
AcDbEntity
  8
Layer_1
 62
7
100
AcDbPolyline
 90
2
 70
0
 10
-231.069382
 20
55.353260
 30
0.0
 10
-172.667092
 20
-3.049030
 30
0.0
  0
LWPOLYLINE
  5
175
100
AcDbEntity
  8
Layer_1
 62
7
100
AcDbPolyline
 90
2
 70
0
 10
-221.047393
 20
65.375263
 30
0.0
 10
-279.449685
 20
123.777553
 30
0.0
  0
LWPOLYLINE
  5
176
100
AcDbEntity
  8
Layer_1
 62
7
100
AcDbPolyline
 90
2
 70
0
 10
-289.471663
 20
113.755550
 30
0.0
 10
-309.515641
 20
133.799528
 30
0.0
  0
LWPOLYLINE
  5
177
100
AcDbEntity
  8
Layer_1
 62
7
100
AcDbPolyline
 90
2
 70
0
 10
12.561763
 20
-168.233868
 30
0.0
 10
2.539776
 20
-178.255899
 30
0.0
  0
LWPOLYLINE
  5
178
100
AcDbEntity
  8
Layer_1
 62
7
100
AcDbPolyline
 90
2
 70
0
 10
-279.449685
 20
123.777553
 30
0.0
 10
-289.471663
 20
113.755550
 30
0.0
  0
LWPOLYLINE
  5
179
100
AcDbEntity
  8
Layer_1
 62
7
100
AcDbPolyline
 90
2
 70
0
 10
-231.069382
 20
55.353260
 30
0.0
 10
-221.047393
 20
65.375263
 30
0.0
  0
LWPOLYLINE
  5
17a
100
AcDbEntity
  8
Layer_1
 62
7
100
AcDbPolyline
 90
2
 70
0
 10
519.829767
 20
-209.726589
 30
0.0
 10
491.483282
 20
-209.726589
 30
0.0
  0
LWPOLYLINE
  5
17b
100
AcDbEntity
  8
Layer_1
 62
7
100
AcDbPolyline
 90
3
 70
0
 10
491.483282
 20
-195.553304
 30
0.0
 10
408.889956
 20
-195.553304
 30
0.0
 10
408.889956
 20
-209.726589
 30
0.0
  0
LWPOLYLINE
  5
17c
100
AcDbEntity
  8
Layer_1
 62
7
100
AcDbPolyline
 90
2
 70
0
 10
326.296658
 20
-209.726589
 30
0.0
 10
408.889956
 20
-209.726589
 30
0.0
  0
LWPOLYLINE
  5
17d
100
AcDbEntity
  8
Layer_1
 62
7
100
AcDbPolyline
 90
4
 70
0
 10
326.296658
 20
-209.726589
 30
0.0
 10
326.296658
 20
-195.553304
 30
0.0
 10
243.703346
 20
-195.553304
 30
0.0
 10
243.703346
 20
-209.726589
 30
0.0
  0
LWPOLYLINE
  5
17e
100
AcDbEntity
  8
Layer_1
 62
7
100
AcDbPolyline
 90
2
 70
0
 10
161.110037
 20
-209.726589
 30
0.0
 10
243.703346
 20
-209.726589
 30
0.0
  0
LWPOLYLINE
  5
17f
100
AcDbEntity
  8
Layer_1
 62
7
100
AcDbPolyline
 90
2
 70
0
 10
161.110037
 20
-195.553304
 30
0.0
 10
78.516726
 20
-195.553304
 30
0.0
  0
LWPOLYLINE
  5
180
100
AcDbEntity
  8
Layer_1
 62
7
100
AcDbPolyline
 90
2
 70
0
 10
78.516726
 20
-209.726589
 30
0.0
 10
50.170272
 20
-209.726589
 30
0.0
  0
LWPOLYLINE
  5
181
100
AcDbEntity
  8
Layer_1
 62
7
100
AcDbPolyline
 90
2
 70
0
 10
491.483282
 20
-195.553304
 30
0.0
 10
491.483282
 20
-209.726589
 30
0.0
  0
LWPOLYLINE
  5
182
100
AcDbEntity
  8
Layer_1
 62
7
100
AcDbPolyline
 90
2
 70
0
 10
78.516726
 20
-195.553304
 30
0.0
 10
78.516726
 20
-209.726589
 30
0.0
  0
LWPOLYLINE
  5
183
100
AcDbEntity
  8
Layer_1
 62
7
100
AcDbPolyline
 90
2
 70
0
 10
161.110037
 20
-209.726589
 30
0.0
 10
161.110037
 20
-195.553304
 30
0.0
  0
LWPOLYLINE
  5
184
100
AcDbEntity
  8
Layer_1
 62
7
100
AcDbPolyline
 90
2
 70
0
 10
879.515660
 20
133.799528
 30
0.0
 10
859.471682
 20
113.755550
 30
0.0
  0
LWPOLYLINE
  5
185
100
AcDbEntity
  8
Layer_1
 62
7
100
AcDbPolyline
 90
3
 70
0
 10
849.449650
 20
123.777553
 30
0.0
 10
791.047389
 20
65.375263
 30
0.0
 10
801.069420
 20
55.353260
 30
0.0
  0
LWPOLYLINE
  5
186
100
AcDbEntity
  8
Layer_1
 62
7
100
AcDbPolyline
 90
2
 70
0
 10
742.667046
 20
-3.049030
 30
0.0
 10
801.069420
 20
55.353260
 30
0.0
  0
LWPOLYLINE
  5
187
100
AcDbEntity
  8
Layer_1
 62
7
100
AcDbPolyline
 90
4
 70
0
 10
742.667046
 20
-3.049030
 30
0.0
 10
732.645099
 20
6.972973
 30
0.0
 10
674.242838
 20
-51.429317
 30
0.0
 10
684.264784
 20
-61.451291
 30
0.0
  0
LWPOLYLINE
  5
188
100
AcDbEntity
  8
Layer_1
 62
7
100
AcDbPolyline
 90
2
 70
0
 10
625.862523
 20
-119.853638
 30
0.0
 10
684.264784
 20
-61.451291
 30
0.0
  0
LWPOLYLINE
  5
189
100
AcDbEntity
  8
Layer_1
 62
7
100
AcDbPolyline
 90
2
 70
0
 10
615.840548
 20
-109.831606
 30
0.0
 10
557.438202
 20
-168.233868
 30
0.0
  0
LWPOLYLINE
  5
18a
100
AcDbEntity
  8
Layer_1
 62
7
100
AcDbPolyline
 90
2
 70
0
 10
567.460233
 20
-178.255899
 30
0.0
 10
547.416255
 20
-198.299877
 30
0.0
  0
LWPOLYLINE
  5
18b
100
AcDbEntity
  8
Layer_1
 62
7
100
AcDbPolyline
 90
2
 70
0
 10
849.449650
 20
123.777553
 30
0.0
 10
859.471682
 20
113.755550
 30
0.0
  0
LWPOLYLINE
  5
18c
100
AcDbEntity
  8
Layer_1
 62
7
100
AcDbPolyline
 90
2
 70
0
 10
557.438202
 20
-168.233868
 30
0.0
 10
567.460233
 20
-178.255899
 30
0.0
  0
SPLINE
  5
18d
100
AcDbEntity
  8
Layer_1
 62
7
100
AcDbSpline
 70
8
 71
3
 72
8
 73
4
 74
0
 40
0
 40
0
 40
0
 40
0
 40
1
 40
1
 40
1
 40
1
 10
562.295509
 20
50.424945
 30
0.0
 10
562.295509
 20
50.424945
 30
0.0
 10
602.436699
 20
36.403172
 30
0.0
 10
602.436699
 20
36.403172
 30
0.0
  0
SPLINE
  5
18e
100
AcDbEntity
  8
Layer_1
 62
7
100
AcDbSpline
 70
8
 71
3
 72
8
 73
4
 74
0
 40
0
 40
0
 40
0
 40
0
 40
1
 40
1
 40
1
 40
1
 10
602.436699
 20
36.403172
 30
0.0
 10
616.190889
 20
21.291864
 30
0.0
 10
617.930625
 20
-1.228441
 30
0.0
 10
606.660531
 20
-18.272923
 30
0.0
  0
SPLINE
  5
18f
100
AcDbEntity
  8
Layer_1
 62
7
100
AcDbSpline
 70
8
 71
3
 72
8
 73
4
 74
0
 40
0
 40
0
 40
0
 40
0
 40
1
 40
1
 40
1
 40
1
 10
606.660531
 20
-18.272923
 30
0.0
 10
595.390437
 20
-35.317404
 30
0.0
 10
573.987325
 20
-42.535274
 30
0.0
 10
554.696824
 20
-35.796883
 30
0.0
  0
SPLINE
  5
190
100
AcDbEntity
  8
Layer_1
 62
7
100
AcDbSpline
 70
8
 71
3
 72
8
 73
4
 74
0
 40
0
 40
0
 40
0
 40
0
 40
1
 40
1
 40
1
 40
1
 10
554.696824
 20
-35.796883
 30
0.0
 10
535.406322
 20
-29.058492
 30
0.0
 10
523.152539
 20
-10.083887
 30
0.0
 10
524.946383
 20
10.270756
 30
0.0
  0
SPLINE
  5
191
100
AcDbEntity
  8
Layer_1
 62
7
100
AcDbSpline
 70
8
 71
3
 72
8
 73
4
 74
0
 40
0
 40
0
 40
0
 40
0
 40
1
 40
1
 40
1
 40
1
 10
524.946383
 20
10.270756
 30
0.0
 10
526.740227
 20
30.625399
 30
0.0
 10
542.123800
 20
47.164338
 30
0.0
 10
562.295509
 20
50.424945
 30
0.0
  0
LWPOLYLINE
  5
192
100
AcDbEntity
  8
Layer_1
 62
7
100
AcDbPolyline
 90
2
 70
0
 10
625.862523
 20
-119.853638
 30
0.0
 10
615.840548
 20
-109.831606
 30
0.0
  0
LWPOLYLINE
  5
193
100
AcDbEntity
  8
Layer_1
 62
7
100
AcDbPolyline
 90
1
 70
1
 10
562.295509
 20
50.424945
 30
0.0
  0
LWPOLYLINE
  5
194
100
AcDbEntity
  8
Layer_1
 62
7
100
AcDbPolyline
 90
7
 70
1
 10
-106.793617
 20
491.726551
 30
0.0
 10
-214.510153
 20
491.726551
 30
0.0
 10
-214.510153
 20
704.324968
 30
0.0
 10
-169.155816
 20
704.324968
 30
0.0
 10
-169.155816
 20
735.506073
 30
0.0
 10
-106.793617
 20
735.506073
 30
0.0
 10
-106.793617
 20
704.324968
 30
0.0
  0
LWPOLYLINE
  5
195
100
AcDbEntity
  8
Layer_1
 62
7
100
AcDbPolyline
 90
2
 70
0
 10
739.155855
 20
704.324968
 30
0.0
 10
784.510157
 20
704.324968
 30
0.0
  0
LWPOLYLINE
  5
196
100
AcDbEntity
  8
Layer_1
 62
7
100
AcDbPolyline
 90
3
 70
0
 10
784.510157
 20
491.726551
 30
0.0
 10
676.793594
 20
491.726551
 30
0.0
 10
676.793594
 20
704.324968
 30
0.0
  0
SPLINE
  5
197
100
AcDbEntity
  8
Layer_1
 62
7
100
AcDbSpline
 70
8
 71
3
 72
8
 73
4
 74
0
 40
0
 40
0
 40
0
 40
0
 40
1
 40
1
 40
1
 40
1
 10
351.614183
 20
-32.066986
 30
0.0
 10
351.619093
 20
-8.264759
 30
0.0
 10
338.923576
 20
13.731506
 30
0.0
 10
318.311061
 20
25.634036
 30
0.0
  0
SPLINE
  5
198
100
AcDbEntity
  8
Layer_1
 62
7
100
AcDbSpline
 70
8
 71
3
 72
8
 73
4
 74
0
 40
0
 40
0
 40
0
 40
0
 40
1
 40
1
 40
1
 40
1
 10
318.311061
 20
25.634036
 30
0.0
 10
297.698547
 20
37.536567
 30
0.0
 10
272.301464
 20
37.536567
 30
0.0
 10
251.688949
 20
25.634036
 30
0.0
  0
SPLINE
  5
199
100
AcDbEntity
  8
Layer_1
 62
7
100
AcDbSpline
 70
8
 71
3
 72
8
 73
4
 74
0
 40
0
 40
0
 40
0
 40
0
 40
1
 40
1
 40
1
 40
1
 10
251.688949
 20
25.634036
 30
0.0
 10
231.076434
 20
13.731506
 30
0.0
 10
218.380918
 20
-8.264759
 30
0.0
 10
218.385829
 20
-32.066986
 30
0.0
  0
SPLINE
  5
19a
100
AcDbEntity
  8
Layer_1
 62
7
100
AcDbSpline
 70
8
 71
3
 72
8
 73
4
 74
0
 40
0
 40
0
 40
0
 40
0
 40
1
 40
1
 40
1
 40
1
 10
218.385829
 20
-32.066986
 30
0.0
 10
218.385829
 20
-55.865939
 30
0.0
 10
231.082419
 20
-77.857078
 30
0.0
 10
251.692917
 20
-89.756555
 30
0.0
  0
SPLINE
  5
19b
100
AcDbEntity
  8
Layer_1
 62
7
100
AcDbSpline
 70
8
 71
3
 72
8
 73
4
 74
0
 40
0
 40
0
 40
0
 40
0
 40
1
 40
1
 40
1
 40
1
 10
251.692917
 20
-89.756555
 30
0.0
 10
272.303415
 20
-101.656031
 30
0.0
 10
297.696595
 20
-101.656031
 30
0.0
 10
318.307093
 20
-89.756555
 30
0.0
  0
SPLINE
  5
19c
100
AcDbEntity
  8
Layer_1
 62
7
100
AcDbSpline
 70
8
 71
3
 72
8
 73
4
 74
0
 40
0
 40
0
 40
0
 40
0
 40
1
 40
1
 40
1
 40
1
 10
318.307093
 20
-89.756555
 30
0.0
 10
338.917591
 20
-77.857078
 30
0.0
 10
351.614181
 20
-55.865939
 30
0.0
 10
351.614181
 20
-32.066986
 30
0.0
  0
LWPOLYLINE
  5
19d
100
AcDbEntity
  8
Layer_1
 62
7
100
AcDbPolyline
 90
2
 70
0
 10
784.510157
 20
704.324968
 30
0.0
 10
784.510157
 20
491.726551
 30
0.0
  0
SPLINE
  5
19e
100
AcDbEntity
  8
Layer_1
 62
7
100
AcDbSpline
 70
8
 71
3
 72
8
 73
4
 74
0
 40
0
 40
0
 40
0
 40
0
 40
1
 40
1
 40
1
 40
1
 10
289.535443
 20
48.153487
 30
0.0
 10
289.535443
 20
49.773841
 30
0.0
 10
288.670994
 20
51.271111
 30
0.0
 10
287.267725
 20
52.081288
 30
0.0
  0
SPLINE
  5
19f
100
AcDbEntity
  8
Layer_1
 62
7
100
AcDbSpline
 70
8
 71
3
 72
8
 73
4
 74
0
 40
0
 40
0
 40
0
 40
0
 40
1
 40
1
 40
1
 40
1
 10
287.267725
 20
52.081288
 30
0.0
 10
285.864457
 20
52.891465
 30
0.0
 10
284.135559
 20
52.891465
 30
0.0
 10
282.732291
 20
52.081288
 30
0.0
  0
SPLINE
  5
1a0
100
AcDbEntity
  8
Layer_1
 62
7
100
AcDbSpline
 70
8
 71
3
 72
8
 73
4
 74
0
 40
0
 40
0
 40
0
 40
0
 40
1
 40
1
 40
1
 40
1
 10
282.732291
 20
52.081288
 30
0.0
 10
281.329022
 20
51.271111
 30
0.0
 10
280.464574
 20
49.773841
 30
0.0
 10
280.464574
 20
48.153487
 30
0.0
  0
SPLINE
  5
1a1
100
AcDbEntity
  8
Layer_1
 62
7
100
AcDbSpline
 70
8
 71
3
 72
8
 73
4
 74
0
 40
0
 40
0
 40
0
 40
0
 40
1
 40
1
 40
1
 40
1
 10
280.464574
 20
48.153487
 30
0.0
 10
280.464573
 20
46.533132
 30
0.0
 10
281.329022
 20
45.035862
 30
0.0
 10
282.732291
 20
44.225685
 30
0.0
  0
SPLINE
  5
1a2
100
AcDbEntity
  8
Layer_1
 62
7
100
AcDbSpline
 70
8
 71
3
 72
8
 73
4
 74
0
 40
0
 40
0
 40
0
 40
0
 40
1
 40
1
 40
1
 40
1
 10
282.732291
 20
44.225685
 30
0.0
 10
284.135559
 20
43.415507
 30
0.0
 10
285.864457
 20
43.415507
 30
0.0
 10
287.267725
 20
44.225685
 30
0.0
  0
SPLINE
  5
1a3
100
AcDbEntity
  8
Layer_1
 62
7
100
AcDbSpline
 70
8
 71
3
 72
8
 73
4
 74
0
 40
0
 40
0
 40
0
 40
0
 40
1
 40
1
 40
1
 40
1
 10
287.267725
 20
44.225685
 30
0.0
 10
288.670994
 20
45.035862
 30
0.0
 10
289.535443
 20
46.533132
 30
0.0
 10
289.535443
 20
48.153487
 30
0.0
  0
LWPOLYLINE
  5
1a4
100
AcDbEntity
  8
Layer_1
 62
7
100
AcDbPolyline
 90
1
 70
1
 10
351.614181
 20
-32.066986
 30
0.0
  0
SPLINE
  5
1a5
100
AcDbEntity
  8
Layer_1
 62
7
100
AcDbSpline
 70
8
 71
3
 72
8
 73
4
 74
0
 40
0
 40
0
 40
0
 40
0
 40
1
 40
1
 40
1
 40
1
 10
220.062467
 20
-72.177222
 30
0.0
 10
220.063277
 20
-70.556328
 30
0.0
 10
219.199006
 20
-69.058213
 30
0.0
 10
217.795405
 20
-68.247532
 30
0.0
  0
SPLINE
  5
1a6
100
AcDbEntity
  8
Layer_1
 62
7
100
AcDbSpline
 70
8
 71
3
 72
8
 73
4
 74
0
 40
0
 40
0
 40
0
 40
0
 40
1
 40
1
 40
1
 40
1
 10
217.795405
 20
-68.247532
 30
0.0
 10
216.391804
 20
-67.436850
 30
0.0
 10
214.662263
 20
-67.436850
 30
0.0
 10
213.258662
 20
-68.247532
 30
0.0
  0
SPLINE
  5
1a7
100
AcDbEntity
  8
Layer_1
 62
7
100
AcDbSpline
 70
8
 71
3
 72
8
 73
4
 74
0
 40
0
 40
0
 40
0
 40
0
 40
1
 40
1
 40
1
 40
1
 10
213.258662
 20
-68.247532
 30
0.0
 10
211.855062
 20
-69.058213
 30
0.0
 10
210.990790
 20
-70.556328
 30
0.0
 10
210.991601
 20
-72.177222
 30
0.0
  0
SPLINE
  5
1a8
100
AcDbEntity
  8
Layer_1
 62
7
100
AcDbSpline
 70
8
 71
3
 72
8
 73
4
 74
0
 40
0
 40
0
 40
0
 40
0
 40
1
 40
1
 40
1
 40
1
 10
210.991601
 20
-72.177222
 30
0.0
 10
210.990790
 20
-73.798116
 30
0.0
 10
211.855062
 20
-75.296231
 30
0.0
 10
213.258662
 20
-76.106913
 30
0.0
  0
SPLINE
  5
1a9
100
AcDbEntity
  8
Layer_1
 62
7
100
AcDbSpline
 70
8
 71
3
 72
8
 73
4
 74
0
 40
0
 40
0
 40
0
 40
0
 40
1
 40
1
 40
1
 40
1
 10
213.258662
 20
-76.106913
 30
0.0
 10
214.662263
 20
-76.917594
 30
0.0
 10
216.391804
 20
-76.917594
 30
0.0
 10
217.795405
 20
-76.106913
 30
0.0
  0
SPLINE
  5
1aa
100
AcDbEntity
  8
Layer_1
 62
7
100
AcDbSpline
 70
8
 71
3
 72
8
 73
4
 74
0
 40
0
 40
0
 40
0
 40
0
 40
1
 40
1
 40
1
 40
1
 10
217.795405
 20
-76.106913
 30
0.0
 10
219.199006
 20
-75.296231
 30
0.0
 10
220.063277
 20
-73.798116
 30
0.0
 10
220.062467
 20
-72.177222
 30
0.0
  0
LWPOLYLINE
  5
1ab
100
AcDbEntity
  8
Layer_1
 62
7
100
AcDbPolyline
 90
1
 70
1
 10
289.535443
 20
48.153487
 30
0.0
  0
SPLINE
  5
1ac
100
AcDbEntity
  8
Layer_1
 62
7
100
AcDbSpline
 70
8
 71
3
 72
8
 73
4
 74
0
 40
0
 40
0
 40
0
 40
0
 40
1
 40
1
 40
1
 40
1
 10
359.008413
 20
-72.177222
 30
0.0
 10
359.009223
 20
-70.556328
 30
0.0
 10
358.144952
 20
-69.058213
 30
0.0
 10
356.741351
 20
-68.247532
 30
0.0
  0
SPLINE
  5
1ad
100
AcDbEntity
  8
Layer_1
 62
7
100
AcDbSpline
 70
8
 71
3
 72
8
 73
4
 74
0
 40
0
 40
0
 40
0
 40
0
 40
1
 40
1
 40
1
 40
1
 10
356.741351
 20
-68.247532
 30
0.0
 10
355.337750
 20
-67.436850
 30
0.0
 10
353.608209
 20
-67.436850
 30
0.0
 10
352.204608
 20
-68.247532
 30
0.0
  0
SPLINE
  5
1ae
100
AcDbEntity
  8
Layer_1
 62
7
100
AcDbSpline
 70
8
 71
3
 72
8
 73
4
 74
0
 40
0
 40
0
 40
0
 40
0
 40
1
 40
1
 40
1
 40
1
 10
352.204608
 20
-68.247532
 30
0.0
 10
350.801007
 20
-69.058213
 30
0.0
 10
349.936736
 20
-70.556328
 30
0.0
 10
349.937546
 20
-72.177222
 30
0.0
  0
SPLINE
  5
1af
100
AcDbEntity
  8
Layer_1
 62
7
100
AcDbSpline
 70
8
 71
3
 72
8
 73
4
 74
0
 40
0
 40
0
 40
0
 40
0
 40
1
 40
1
 40
1
 40
1
 10
349.937546
 20
-72.177222
 30
0.0
 10
349.936736
 20
-73.798116
 30
0.0
 10
350.801007
 20
-75.296231
 30
0.0
 10
352.204608
 20
-76.106913
 30
0.0
  0
SPLINE
  5
1b0
100
AcDbEntity
  8
Layer_1
 62
7
100
AcDbSpline
 70
8
 71
3
 72
8
 73
4
 74
0
 40
0
 40
0
 40
0
 40
0
 40
1
 40
1
 40
1
 40
1
 10
352.204608
 20
-76.106913
 30
0.0
 10
353.608209
 20
-76.917594
 30
0.0
 10
355.337750
 20
-76.917594
 30
0.0
 10
356.741351
 20
-76.106913
 30
0.0
  0
SPLINE
  5
1b1
100
AcDbEntity
  8
Layer_1
 62
7
100
AcDbSpline
 70
8
 71
3
 72
8
 73
4
 74
0
 40
0
 40
0
 40
0
 40
0
 40
1
 40
1
 40
1
 40
1
 10
356.741351
 20
-76.106913
 30
0.0
 10
358.144952
 20
-75.296231
 30
0.0
 10
359.009223
 20
-73.798116
 30
0.0
 10
359.008413
 20
-72.177222
 30
0.0
  0
LWPOLYLINE
  5
1b2
100
AcDbEntity
  8
Layer_1
 62
7
100
AcDbPolyline
 90
1
 70
1
 10
220.062467
 20
-72.177222
 30
0.0
  0
SPLINE
  5
1b3
100
AcDbEntity
  8
Layer_1
 62
7
100
AcDbSpline
 70
8
 71
3
 72
8
 73
4
 74
0
 40
0
 40
0
 40
0
 40
0
 40
1
 40
1
 40
1
 40
1
 10
-224.217975
 20
669.131447
 30
0.0
 10
-224.216734
 20
670.651356
 30
0.0
 10
-225.026883
 20
672.056340
 30
0.0
 10
-226.342956
 20
672.816653
 30
0.0
  0
SPLINE
  5
1b4
100
AcDbEntity
  8
Layer_1
 62
7
100
AcDbSpline
 70
8
 71
3
 72
8
 73
4
 74
0
 40
0
 40
0
 40
0
 40
0
 40
1
 40
1
 40
1
 40
1
 10
-226.342956
 20
672.816653
 30
0.0
 10
-227.659029
 20
673.576966
 30
0.0
 10
-229.280856
 20
673.576966
 30
0.0
 10
-230.596929
 20
672.816653
 30
0.0
  0
SPLINE
  5
1b5
100
AcDbEntity
  8
Layer_1
 62
7
100
AcDbSpline
 70
8
 71
3
 72
8
 73
4
 74
0
 40
0
 40
0
 40
0
 40
0
 40
1
 40
1
 40
1
 40
1
 10
-230.596929
 20
672.816653
 30
0.0
 10
-231.913001
 20
672.056340
 30
0.0
 10
-232.723150
 20
670.651356
 30
0.0
 10
-232.721909
 20
669.131447
 30
0.0
  0
SPLINE
  5
1b6
100
AcDbEntity
  8
Layer_1
 62
7
100
AcDbSpline
 70
8
 71
3
 72
8
 73
4
 74
0
 40
0
 40
0
 40
0
 40
0
 40
1
 40
1
 40
1
 40
1
 10
-232.721909
 20
669.131447
 30
0.0
 10
-232.723150
 20
667.611539
 30
0.0
 10
-231.913001
 20
666.206554
 30
0.0
 10
-230.596929
 20
665.446242
 30
0.0
  0
SPLINE
  5
1b7
100
AcDbEntity
  8
Layer_1
 62
7
100
AcDbSpline
 70
8
 71
3
 72
8
 73
4
 74
0
 40
0
 40
0
 40
0
 40
0
 40
1
 40
1
 40
1
 40
1
 10
-230.596929
 20
665.446242
 30
0.0
 10
-229.280856
 20
664.685929
 30
0.0
 10
-227.659029
 20
664.685929
 30
0.0
 10
-226.342956
 20
665.446242
 30
0.0
  0
SPLINE
  5
1b8
100
AcDbEntity
  8
Layer_1
 62
7
100
AcDbSpline
 70
8
 71
3
 72
8
 73
4
 74
0
 40
0
 40
0
 40
0
 40
0
 40
1
 40
1
 40
1
 40
1
 10
-226.342956
 20
665.446242
 30
0.0
 10
-225.026883
 20
666.206554
 30
0.0
 10
-224.216734
 20
667.611539
 30
0.0
 10
-224.217975
 20
669.131447
 30
0.0
  0
LWPOLYLINE
  5
1b9
100
AcDbEntity
  8
Layer_1
 62
7
100
AcDbPolyline
 90
1
 70
1
 10
359.008413
 20
-72.177222
 30
0.0
  0
SPLINE
  5
1ba
100
AcDbEntity
  8
Layer_1
 62
7
100
AcDbSpline
 70
8
 71
3
 72
8
 73
4
 74
0
 40
0
 40
0
 40
0
 40
0
 40
1
 40
1
 40
1
 40
1
 10
-95.000295
 20
670.567198
 30
0.0
 10
-94.999185
 20
672.087019
 30
0.0
 10
-95.809363
 20
673.491867
 30
0.0
 10
-97.125382
 20
674.252098
 30
0.0
  0
SPLINE
  5
1bb
100
AcDbEntity
  8
Layer_1
 62
7
100
AcDbSpline
 70
8
 71
3
 72
8
 73
4
 74
0
 40
0
 40
0
 40
0
 40
0
 40
1
 40
1
 40
1
 40
1
 10
-97.125382
 20
674.252098
 30
0.0
 10
-98.441401
 20
675.012329
 30
0.0
 10
-100.063124
 20
675.012329
 30
0.0
 10
-101.379143
 20
674.252098
 30
0.0
  0
SPLINE
  5
1bc
100
AcDbEntity
  8
Layer_1
 62
7
100
AcDbSpline
 70
8
 71
3
 72
8
 73
4
 74
0
 40
0
 40
0
 40
0
 40
0
 40
1
 40
1
 40
1
 40
1
 10
-101.379143
 20
674.252098
 30
0.0
 10
-102.695162
 20
673.491867
 30
0.0
 10
-103.505339
 20
672.087019
 30
0.0
 10
-103.504229
 20
670.567198
 30
0.0
  0
SPLINE
  5
1bd
100
AcDbEntity
  8
Layer_1
 62
7
100
AcDbSpline
 70
8
 71
3
 72
8
 73
4
 74
0
 40
0
 40
0
 40
0
 40
0
 40
1
 40
1
 40
1
 40
1
 10
-103.504229
 20
670.567198
 30
0.0
 10
-103.505339
 20
669.047377
 30
0.0
 10
-102.695162
 20
667.642529
 30
0.0
 10
-101.379143
 20
666.882298
 30
0.0
  0
SPLINE
  5
1be
100
AcDbEntity
  8
Layer_1
 62
7
100
AcDbSpline
 70
8
 71
3
 72
8
 73
4
 74
0
 40
0
 40
0
 40
0
 40
0
 40
1
 40
1
 40
1
 40
1
 10
-101.379143
 20
666.882298
 30
0.0
 10
-100.063124
 20
666.122067
 30
0.0
 10
-98.441401
 20
666.122067
 30
0.0
 10
-97.125382
 20
666.882298
 30
0.0
  0
SPLINE
  5
1bf
100
AcDbEntity
  8
Layer_1
 62
7
100
AcDbSpline
 70
8
 71
3
 72
8
 73
4
 74
0
 40
0
 40
0
 40
0
 40
0
 40
1
 40
1
 40
1
 40
1
 10
-97.125382
 20
666.882298
 30
0.0
 10
-95.809363
 20
667.642529
 30
0.0
 10
-94.999185
 20
669.047377
 30
0.0
 10
-95.000295
 20
670.567198
 30
0.0
  0
LWPOLYLINE
  5
1c0
100
AcDbEntity
  8
Layer_1
 62
7
100
AcDbPolyline
 90
1
 70
1
 10
-224.217975
 20
669.131447
 30
0.0
  0
SPLINE
  5
1c1
100
AcDbEntity
  8
Layer_1
 62
7
100
AcDbSpline
 70
8
 71
3
 72
8
 73
4
 74
0
 40
0
 40
0
 40
0
 40
0
 40
1
 40
1
 40
1
 40
1
 10
-30.171070
 20
444.801458
 30
0.0
 10
-30.171070
 20
446.320541
 30
0.0
 10
-30.981491
 20
447.724232
 30
0.0
 10
-32.297056
 20
448.483773
 30
0.0
  0
SPLINE
  5
1c2
100
AcDbEntity
  8
Layer_1
 62
7
100
AcDbSpline
 70
8
 71
3
 72
8
 73
4
 74
0
 40
0
 40
0
 40
0
 40
0
 40
1
 40
1
 40
1
 40
1
 10
-32.297056
 20
448.483773
 30
0.0
 10
-33.612620
 20
449.243315
 30
0.0
 10
-35.233462
 20
449.243315
 30
0.0
 10
-36.549027
 20
448.483773
 30
0.0
  0
SPLINE
  5
1c3
100
AcDbEntity
  8
Layer_1
 62
7
100
AcDbSpline
 70
8
 71
3
 72
8
 73
4
 74
0
 40
0
 40
0
 40
0
 40
0
 40
1
 40
1
 40
1
 40
1
 10
-36.549027
 20
448.483773
 30
0.0
 10
-37.864591
 20
447.724232
 30
0.0
 10
-38.675013
 20
446.320541
 30
0.0
 10
-38.675013
 20
444.801458
 30
0.0
  0
SPLINE
  5
1c4
100
AcDbEntity
  8
Layer_1
 62
7
100
AcDbSpline
 70
8
 71
3
 72
8
 73
4
 74
0
 40
0
 40
0
 40
0
 40
0
 40
1
 40
1
 40
1
 40
1
 10
-38.675013
 20
444.801458
 30
0.0
 10
-38.675013
 20
443.282375
 30
0.0
 10
-37.864591
 20
441.878685
 30
0.0
 10
-36.549027
 20
441.119143
 30
0.0
  0
SPLINE
  5
1c5
100
AcDbEntity
  8
Layer_1
 62
7
100
AcDbSpline
 70
8
 71
3
 72
8
 73
4
 74
0
 40
0
 40
0
 40
0
 40
0
 40
1
 40
1
 40
1
 40
1
 10
-36.549027
 20
441.119143
 30
0.0
 10
-35.233462
 20
440.359602
 30
0.0
 10
-33.612620
 20
440.359602
 30
0.0
 10
-32.297056
 20
441.119143
 30
0.0
  0
SPLINE
  5
1c6
100
AcDbEntity
  8
Layer_1
 62
7
100
AcDbSpline
 70
8
 71
3
 72
8
 73
4
 74
0
 40
0
 40
0
 40
0
 40
0
 40
1
 40
1
 40
1
 40
1
 10
-32.297056
 20
441.119143
 30
0.0
 10
-30.981491
 20
441.878685
 30
0.0
 10
-30.171070
 20
443.282375
 30
0.0
 10
-30.171070
 20
444.801458
 30
0.0
  0
LWPOLYLINE
  5
1c7
100
AcDbEntity
  8
Layer_1
 62
7
100
AcDbPolyline
 90
1
 70
1
 10
-95.000295
 20
670.567198
 30
0.0
  0
SPLINE
  5
1c8
100
AcDbEntity
  8
Layer_1
 62
7
100
AcDbSpline
 70
8
 71
3
 72
8
 73
4
 74
0
 40
0
 40
0
 40
0
 40
0
 40
1
 40
1
 40
1
 40
1
 10
-187.257495
 20
372.804123
 30
0.0
 10
-187.256385
 20
374.323944
 30
0.0
 10
-188.066563
 20
375.728792
 30
0.0
 10
-189.382582
 20
376.489023
 30
0.0
  0
SPLINE
  5
1c9
100
AcDbEntity
  8
Layer_1
 62
7
100
AcDbSpline
 70
8
 71
3
 72
8
 73
4
 74
0
 40
0
 40
0
 40
0
 40
0
 40
1
 40
1
 40
1
 40
1
 10
-189.382582
 20
376.489023
 30
0.0
 10
-190.698601
 20
377.249254
 30
0.0
 10
-192.320324
 20
377.249254
 30
0.0
 10
-193.636343
 20
376.489023
 30
0.0
  0
SPLINE
  5
1ca
100
AcDbEntity
  8
Layer_1
 62
7
100
AcDbSpline
 70
8
 71
3
 72
8
 73
4
 74
0
 40
0
 40
0
 40
0
 40
0
 40
1
 40
1
 40
1
 40
1
 10
-193.636343
 20
376.489023
 30
0.0
 10
-194.952362
 20
375.728792
 30
0.0
 10
-195.762539
 20
374.323944
 30
0.0
 10
-195.761429
 20
372.804123
 30
0.0
  0
SPLINE
  5
1cb
100
AcDbEntity
  8
Layer_1
 62
7
100
AcDbSpline
 70
8
 71
3
 72
8
 73
4
 74
0
 40
0
 40
0
 40
0
 40
0
 40
1
 40
1
 40
1
 40
1
 10
-195.761429
 20
372.804123
 30
0.0
 10
-195.762539
 20
371.284302
 30
0.0
 10
-194.952362
 20
369.879454
 30
0.0
 10
-193.636343
 20
369.119223
 30
0.0
  0
SPLINE
  5
1cc
100
AcDbEntity
  8
Layer_1
 62
7
100
AcDbSpline
 70
8
 71
3
 72
8
 73
4
 74
0
 40
0
 40
0
 40
0
 40
0
 40
1
 40
1
 40
1
 40
1
 10
-193.636343
 20
369.119223
 30
0.0
 10
-192.320324
 20
368.358992
 30
0.0
 10
-190.698601
 20
368.358992
 30
0.0
 10
-189.382582
 20
369.119223
 30
0.0
  0
SPLINE
  5
1cd
100
AcDbEntity
  8
Layer_1
 62
7
100
AcDbSpline
 70
8
 71
3
 72
8
 73
4
 74
0
 40
0
 40
0
 40
0
 40
0
 40
1
 40
1
 40
1
 40
1
 10
-189.382582
 20
369.119223
 30
0.0
 10
-188.066563
 20
369.879454
 30
0.0
 10
-187.256385
 20
371.284302
 30
0.0
 10
-187.257495
 20
372.804123
 30
0.0
  0
LWPOLYLINE
  5
1ce
100
AcDbEntity
  8
Layer_1
 62
7
100
AcDbPolyline
 90
1
 70
1
 10
-30.171070
 20
444.801458
 30
0.0
  0
SPLINE
  5
1cf
100
AcDbEntity
  8
Layer_1
 62
7
100
AcDbSpline
 70
8
 71
3
 72
8
 73
4
 74
0
 40
0
 40
0
 40
0
 40
0
 40
1
 40
1
 40
1
 40
1
 10
802.721877
 20
669.131447
 30
0.0
 10
802.727410
 20
670.654199
 30
0.0
 10
801.918207
 20
672.063653
 30
0.0
 10
800.600379
 20
672.826630
 30
0.0
  0
SPLINE
  5
1d0
100
AcDbEntity
  8
Layer_1
 62
7
100
AcDbSpline
 70
8
 71
3
 72
8
 73
4
 74
0
 40
0
 40
0
 40
0
 40
0
 40
1
 40
1
 40
1
 40
1
 10
800.600379
 20
672.826630
 30
0.0
 10
799.282552
 20
673.589608
 30
0.0
 10
797.657322
 20
673.589608
 30
0.0
 10
796.339495
 20
672.826630
 30
0.0
  0
SPLINE
  5
1d1
100
AcDbEntity
  8
Layer_1
 62
7
100
AcDbSpline
 70
8
 71
3
 72
8
 73
4
 74
0
 40
0
 40
0
 40
0
 40
0
 40
1
 40
1
 40
1
 40
1
 10
796.339495
 20
672.826630
 30
0.0
 10
795.021667
 20
672.063653
 30
0.0
 10
794.212464
 20
670.654199
 30
0.0
 10
794.217997
 20
669.131447
 30
0.0
  0
SPLINE
  5
1d2
100
AcDbEntity
  8
Layer_1
 62
7
100
AcDbSpline
 70
8
 71
3
 72
8
 73
4
 74
0
 40
0
 40
0
 40
0
 40
0
 40
1
 40
1
 40
1
 40
1
 10
794.217997
 20
669.131447
 30
0.0
 10
794.212464
 20
667.608695
 30
0.0
 10
795.021667
 20
666.199242
 30
0.0
 10
796.339495
 20
665.436264
 30
0.0
  0
SPLINE
  5
1d3
100
AcDbEntity
  8
Layer_1
 62
7
100
AcDbSpline
 70
8
 71
3
 72
8
 73
4
 74
0
 40
0
 40
0
 40
0
 40
0
 40
1
 40
1
 40
1
 40
1
 10
796.339495
 20
665.436264
 30
0.0
 10
797.657322
 20
664.673287
 30
0.0
 10
799.282552
 20
664.673287
 30
0.0
 10
800.600379
 20
665.436264
 30
0.0
  0
SPLINE
  5
1d4
100
AcDbEntity
  8
Layer_1
 62
7
100
AcDbSpline
 70
8
 71
3
 72
8
 73
4
 74
0
 40
0
 40
0
 40
0
 40
0
 40
1
 40
1
 40
1
 40
1
 10
800.600379
 20
665.436264
 30
0.0
 10
801.918207
 20
666.199242
 30
0.0
 10
802.727410
 20
667.608695
 30
0.0
 10
802.721877
 20
669.131447
 30
0.0
  0
LWPOLYLINE
  5
1d5
100
AcDbEntity
  8
Layer_1
 62
7
100
AcDbPolyline
 90
1
 70
1
 10
-187.257495
 20
372.804123
 30
0.0
  0
SPLINE
  5
1d6
100
AcDbEntity
  8
Layer_1
 62
7
100
AcDbSpline
 70
8
 71
3
 72
8
 73
4
 74
0
 40
0
 40
0
 40
0
 40
0
 40
1
 40
1
 40
1
 40
1
 10
673.504243
 20
670.567198
 30
0.0
 10
673.504243
 20
672.086285
 30
0.0
 10
672.693819
 20
673.489980
 30
0.0
 10
671.378251
 20
674.249523
 30
0.0
  0
SPLINE
  5
1d7
100
AcDbEntity
  8
Layer_1
 62
7
100
AcDbSpline
 70
8
 71
3
 72
8
 73
4
 74
0
 40
0
 40
0
 40
0
 40
0
 40
1
 40
1
 40
1
 40
1
 10
671.378251
 20
674.249523
 30
0.0
 10
670.062683
 20
675.009067
 30
0.0
 10
668.441837
 20
675.009067
 30
0.0
 10
667.126269
 20
674.249523
 30
0.0
  0
SPLINE
  5
1d8
100
AcDbEntity
  8
Layer_1
 62
7
100
AcDbSpline
 70
8
 71
3
 72
8
 73
4
 74
0
 40
0
 40
0
 40
0
 40
0
 40
1
 40
1
 40
1
 40
1
 10
667.126269
 20
674.249523
 30
0.0
 10
665.810700
 20
673.489980
 30
0.0
 10
665.000277
 20
672.086285
 30
0.0
 10
665.000277
 20
670.567198
 30
0.0
  0
SPLINE
  5
1d9
100
AcDbEntity
  8
Layer_1
 62
7
100
AcDbSpline
 70
8
 71
3
 72
8
 73
4
 74
0
 40
0
 40
0
 40
0
 40
0
 40
1
 40
1
 40
1
 40
1
 10
665.000277
 20
670.567198
 30
0.0
 10
665.000277
 20
669.048111
 30
0.0
 10
665.810700
 20
667.644417
 30
0.0
 10
667.126269
 20
666.884873
 30
0.0
  0
SPLINE
  5
1da
100
AcDbEntity
  8
Layer_1
 62
7
100
AcDbSpline
 70
8
 71
3
 72
8
 73
4
 74
0
 40
0
 40
0
 40
0
 40
0
 40
1
 40
1
 40
1
 40
1
 10
667.126269
 20
666.884873
 30
0.0
 10
668.441837
 20
666.125330
 30
0.0
 10
670.062683
 20
666.125330
 30
0.0
 10
671.378251
 20
666.884873
 30
0.0
  0
SPLINE
  5
1db
100
AcDbEntity
  8
Layer_1
 62
7
100
AcDbSpline
 70
8
 71
3
 72
8
 73
4
 74
0
 40
0
 40
0
 40
0
 40
0
 40
1
 40
1
 40
1
 40
1
 10
671.378251
 20
666.884873
 30
0.0
 10
672.693819
 20
667.644417
 30
0.0
 10
673.504243
 20
669.048111
 30
0.0
 10
673.504243
 20
670.567198
 30
0.0
  0
LWPOLYLINE
  5
1dc
100
AcDbEntity
  8
Layer_1
 62
7
100
AcDbPolyline
 90
1
 70
1
 10
802.721877
 20
669.131447
 30
0.0
  0
SPLINE
  5
1dd
100
AcDbEntity
  8
Layer_1
 62
7
100
AcDbSpline
 70
8
 71
3
 72
8
 73
4
 74
0
 40
0
 40
0
 40
0
 40
0
 40
1
 40
1
 40
1
 40
1
 10
608.674989
 20
444.801458
 30
0.0
 10
608.680549
 20
446.324229
 30
0.0
 10
607.871352
 20
447.733712
 30
0.0
 10
606.553513
 20
448.496707
 30
0.0
  0
SPLINE
  5
1de
100
AcDbEntity
  8
Layer_1
 62
7
100
AcDbSpline
 70
8
 71
3
 72
8
 73
4
 74
0
 40
0
 40
0
 40
0
 40
0
 40
1
 40
1
 40
1
 40
1
 10
606.553513
 20
448.496707
 30
0.0
 10
605.235675
 20
449.259701
 30
0.0
 10
603.610423
 20
449.259701
 30
0.0
 10
602.292584
 20
448.496707
 30
0.0
  0
SPLINE
  5
1df
100
AcDbEntity
  8
Layer_1
 62
7
100
AcDbSpline
 70
8
 71
3
 72
8
 73
4
 74
0
 40
0
 40
0
 40
0
 40
0
 40
1
 40
1
 40
1
 40
1
 10
602.292584
 20
448.496707
 30
0.0
 10
600.974745
 20
447.733712
 30
0.0
 10
600.165548
 20
446.324229
 30
0.0
 10
600.171109
 20
444.801458
 30
0.0
  0
SPLINE
  5
1e0
100
AcDbEntity
  8
Layer_1
 62
7
100
AcDbSpline
 70
8
 71
3
 72
8
 73
4
 74
0
 40
0
 40
0
 40
0
 40
0
 40
1
 40
1
 40
1
 40
1
 10
600.171109
 20
444.801458
 30
0.0
 10
600.165548
 20
443.278688
 30
0.0
 10
600.974745
 20
441.869205
 30
0.0
 10
602.292584
 20
441.106210
 30
0.0
  0
SPLINE
  5
1e1
100
AcDbEntity
  8
Layer_1
 62
7
100
AcDbSpline
 70
8
 71
3
 72
8
 73
4
 74
0
 40
0
 40
0
 40
0
 40
0
 40
1
 40
1
 40
1
 40
1
 10
602.292584
 20
441.106210
 30
0.0
 10
603.610423
 20
440.343215
 30
0.0
 10
605.235675
 20
440.343215
 30
0.0
 10
606.553513
 20
441.106210
 30
0.0
  0
SPLINE
  5
1e2
100
AcDbEntity
  8
Layer_1
 62
7
100
AcDbSpline
 70
8
 71
3
 72
8
 73
4
 74
0
 40
0
 40
0
 40
0
 40
0
 40
1
 40
1
 40
1
 40
1
 10
606.553513
 20
441.106210
 30
0.0
 10
607.871352
 20
441.869205
 30
0.0
 10
608.680549
 20
443.278688
 30
0.0
 10
608.674989
 20
444.801458
 30
0.0
  0
LWPOLYLINE
  5
1e3
100
AcDbEntity
  8
Layer_1
 62
7
100
AcDbPolyline
 90
1
 70
1
 10
673.504243
 20
670.567198
 30
0.0
  0
SPLINE
  5
1e4
100
AcDbEntity
  8
Layer_1
 62
7
100
AcDbSpline
 70
8
 71
3
 72
8
 73
4
 74
0
 40
0
 40
0
 40
0
 40
0
 40
1
 40
1
 40
1
 40
1
 10
765.761443
 20
372.804123
 30
0.0
 10
765.761443
 20
374.323210
 30
0.0
 10
764.951019
 20
375.726904
 30
0.0
 10
763.635451
 20
376.486448
 30
0.0
  0
SPLINE
  5
1e5
100
AcDbEntity
  8
Layer_1
 62
7
100
AcDbSpline
 70
8
 71
3
 72
8
 73
4
 74
0
 40
0
 40
0
 40
0
 40
0
 40
1
 40
1
 40
1
 40
1
 10
763.635451
 20
376.486448
 30
0.0
 10
762.319883
 20
377.245991
 30
0.0
 10
760.699037
 20
377.245991
 30
0.0
 10
759.383469
 20
376.486448
 30
0.0
  0
SPLINE
  5
1e6
100
AcDbEntity
  8
Layer_1
 62
7
100
AcDbSpline
 70
8
 71
3
 72
8
 73
4
 74
0
 40
0
 40
0
 40
0
 40
0
 40
1
 40
1
 40
1
 40
1
 10
759.383469
 20
376.486448
 30
0.0
 10
758.067901
 20
375.726904
 30
0.0
 10
757.257477
 20
374.323210
 30
0.0
 10
757.257477
 20
372.804123
 30
0.0
  0
SPLINE
  5
1e7
100
AcDbEntity
  8
Layer_1
 62
7
100
AcDbSpline
 70
8
 71
3
 72
8
 73
4
 74
0
 40
0
 40
0
 40
0
 40
0
 40
1
 40
1
 40
1
 40
1
 10
757.257477
 20
372.804123
 30
0.0
 10
757.257477
 20
371.285036
 30
0.0
 10
758.067901
 20
369.881341
 30
0.0
 10
759.383469
 20
369.121798
 30
0.0
  0
SPLINE
  5
1e8
100
AcDbEntity
  8
Layer_1
 62
7
100
AcDbSpline
 70
8
 71
3
 72
8
 73
4
 74
0
 40
0
 40
0
 40
0
 40
0
 40
1
 40
1
 40
1
 40
1
 10
759.383469
 20
369.121798
 30
0.0
 10
760.699037
 20
368.362254
 30
0.0
 10
762.319883
 20
368.362254
 30
0.0
 10
763.635451
 20
369.121798
 30
0.0
  0
SPLINE
  5
1e9
100
AcDbEntity
  8
Layer_1
 62
7
100
AcDbSpline
 70
8
 71
3
 72
8
 73
4
 74
0
 40
0
 40
0
 40
0
 40
0
 40
1
 40
1
 40
1
 40
1
 10
763.635451
 20
369.121798
 30
0.0
 10
764.951019
 20
369.881341
 30
0.0
 10
765.761443
 20
371.285036
 30
0.0
 10
765.761443
 20
372.804123
 30
0.0
  0
LWPOLYLINE
  5
1ea
100
AcDbEntity
  8
Layer_1
 62
7
100
AcDbPolyline
 90
1
 70
1
 10
608.674989
 20
444.801458
 30
0.0
  0
LWPOLYLINE
  5
1eb
100
AcDbEntity
  8
Layer_1
 62
7
100
AcDbPolyline
 90
1
 70
1
 10
765.761443
 20
372.804123
 30
0.0
  0
LWPOLYLINE
  5
1ec
100
AcDbEntity
  8
Layer_1
 62
7
100
AcDbPolyline
 90
2
 70
0
 10
-106.793617
 20
521.787798
 30
0.0
 10
-106.793617
 20
680.444997
 30
0.0
  0
SPLINE
  5
1ed
100
AcDbEntity
  8
Layer_1
 62
7
100
AcDbSpline
 70
8
 71
3
 72
8
 73
4
 74
0
 40
0
 40
0
 40
0
 40
0
 40
1
 40
1
 40
1
 40
1
 10
498.749131
 20
113.219745
 30
0.0
 10
498.751794
 20
114.740601
 30
0.0
 10
497.941956
 20
116.147070
 30
0.0
 10
496.625299
 20
116.908268
 30
0.0
  0
SPLINE
  5
1ee
100
AcDbEntity
  8
Layer_1
 62
7
100
AcDbSpline
 70
8
 71
3
 72
8
 73
4
 74
0
 40
0
 40
0
 40
0
 40
0
 40
1
 40
1
 40
1
 40
1
 10
496.625299
 20
116.908268
 30
0.0
 10
495.308641
 20
117.669465
 30
0.0
 10
493.685683
 20
117.669465
 30
0.0
 10
492.369026
 20
116.908268
 30
0.0
  0
SPLINE
  5
1ef
100
AcDbEntity
  8
Layer_1
 62
7
100
AcDbSpline
 70
8
 71
3
 72
8
 73
4
 74
0
 40
0
 40
0
 40
0
 40
0
 40
1
 40
1
 40
1
 40
1
 10
492.369026
 20
116.908268
 30
0.0
 10
491.052368
 20
116.147070
 30
0.0
 10
490.242530
 20
114.740601
 30
0.0
 10
490.245194
 20
113.219745
 30
0.0
  0
SPLINE
  5
1f0
100
AcDbEntity
  8
Layer_1
 62
7
100
AcDbSpline
 70
8
 71
3
 72
8
 73
4
 74
0
 40
0
 40
0
 40
0
 40
0
 40
1
 40
1
 40
1
 40
1
 10
490.245194
 20
113.219745
 30
0.0
 10
490.242530
 20
111.698889
 30
0.0
 10
491.052368
 20
110.292420
 30
0.0
 10
492.369026
 20
109.531222
 30
0.0
  0
SPLINE
  5
1f1
100
AcDbEntity
  8
Layer_1
 62
7
100
AcDbSpline
 70
8
 71
3
 72
8
 73
4
 74
0
 40
0
 40
0
 40
0
 40
0
 40
1
 40
1
 40
1
 40
1
 10
492.369026
 20
109.531222
 30
0.0
 10
493.685683
 20
108.770024
 30
0.0
 10
495.308641
 20
108.770024
 30
0.0
 10
496.625299
 20
109.531222
 30
0.0
  0
SPLINE
  5
1f2
100
AcDbEntity
  8
Layer_1
 62
7
100
AcDbSpline
 70
8
 71
3
 72
8
 73
4
 74
0
 40
0
 40
0
 40
0
 40
0
 40
1
 40
1
 40
1
 40
1
 10
496.625299
 20
109.531222
 30
0.0
 10
497.941956
 20
110.292420
 30
0.0
 10
498.751794
 20
111.698889
 30
0.0
 10
498.749131
 20
113.219745
 30
0.0
  0
LWPOLYLINE
  5
1f3
100
AcDbEntity
  8
Layer_1
 62
7
100
AcDbPolyline
 90
7
 70
1
 10
-1.565822
 20
344.981197
 30
0.0
 10
-1.565822
 20
353.485134
 30
0.0
 10
605.048372
 20
353.485134
 30
0.0
 10
605.048372
 20
147.235493
 30
0.0
 10
83.473549
 20
147.235493
 30
0.0
 10
12.607408
 20
172.067811
 30
0.0
 10
12.607408
 20
344.981197
 30
0.0
  0
SPLINE
  5
1f4
100
AcDbEntity
  8
Layer_1
 62
7
100
AcDbSpline
 70
8
 71
3
 72
8
 73
4
 74
0
 40
0
 40
0
 40
0
 40
0
 40
1
 40
1
 40
1
 40
1
 10
637.646740
 20
333.642614
 30
0.0
 10
637.652273
 20
335.165366
 30
0.0
 10
636.843070
 20
336.574820
 30
0.0
 10
635.525242
 20
337.337797
 30
0.0
  0
SPLINE
  5
1f5
100
AcDbEntity
  8
Layer_1
 62
7
100
AcDbSpline
 70
8
 71
3
 72
8
 73
4
 74
0
 40
0
 40
0
 40
0
 40
0
 40
1
 40
1
 40
1
 40
1
 10
635.525242
 20
337.337797
 30
0.0
 10
634.207415
 20
338.100775
 30
0.0
 10
632.582185
 20
338.100775
 30
0.0
 10
631.264358
 20
337.337797
 30
0.0
  0
SPLINE
  5
1f6
100
AcDbEntity
  8
Layer_1
 62
7
100
AcDbSpline
 70
8
 71
3
 72
8
 73
4
 74
0
 40
0
 40
0
 40
0
 40
0
 40
1
 40
1
 40
1
 40
1
 10
631.264358
 20
337.337797
 30
0.0
 10
629.946530
 20
336.574820
 30
0.0
 10
629.137327
 20
335.165366
 30
0.0
 10
629.142860
 20
333.642614
 30
0.0
  0
SPLINE
  5
1f7
100
AcDbEntity
  8
Layer_1
 62
7
100
AcDbSpline
 70
8
 71
3
 72
8
 73
4
 74
0
 40
0
 40
0
 40
0
 40
0
 40
1
 40
1
 40
1
 40
1
 10
629.142860
 20
333.642614
 30
0.0
 10
629.137327
 20
332.119862
 30
0.0
 10
629.946530
 20
330.710408
 30
0.0
 10
631.264358
 20
329.947431
 30
0.0
  0
SPLINE
  5
1f8
100
AcDbEntity
  8
Layer_1
 62
7
100
AcDbSpline
 70
8
 71
3
 72
8
 73
4
 74
0
 40
0
 40
0
 40
0
 40
0
 40
1
 40
1
 40
1
 40
1
 10
631.264358
 20
329.947431
 30
0.0
 10
632.582185
 20
329.184453
 30
0.0
 10
634.207415
 20
329.184453
 30
0.0
 10
635.525242
 20
329.947431
 30
0.0
  0
SPLINE
  5
1f9
100
AcDbEntity
  8
Layer_1
 62
7
100
AcDbSpline
 70
8
 71
3
 72
8
 73
4
 74
0
 40
0
 40
0
 40
0
 40
0
 40
1
 40
1
 40
1
 40
1
 10
635.525242
 20
329.947431
 30
0.0
 10
636.843070
 20
330.710408
 30
0.0
 10
637.652273
 20
332.119862
 30
0.0
 10
637.646740
 20
333.642614
 30
0.0
  0
LWPOLYLINE
  5
1fa
100
AcDbEntity
  8
Layer_1
 62
7
100
AcDbPolyline
 90
1
 70
1
 10
498.749131
 20
113.219745
 30
0.0
  0
SPLINE
  5
1fb
100
AcDbEntity
  8
Layer_1
 62
7
100
AcDbSpline
 70
8
 71
3
 72
8
 73
4
 74
0
 40
0
 40
0
 40
0
 40
0
 40
1
 40
1
 40
1
 40
1
 10
-8.652437
 20
330.807969
 30
0.0
 10
-8.651327
 20
332.327790
 30
0.0
 10
-9.461504
 20
333.732638
 30
0.0
 10
-10.777524
 20
334.492869
 30
0.0
  0
SPLINE
  5
1fc
100
AcDbEntity
  8
Layer_1
 62
7
100
AcDbSpline
 70
8
 71
3
 72
8
 73
4
 74
0
 40
0
 40
0
 40
0
 40
0
 40
1
 40
1
 40
1
 40
1
 10
-10.777524
 20
334.492869
 30
0.0
 10
-12.093543
 20
335.253100
 30
0.0
 10
-13.715266
 20
335.253100
 30
0.0
 10
-15.031285
 20
334.492869
 30
0.0
  0
SPLINE
  5
1fd
100
AcDbEntity
  8
Layer_1
 62
7
100
AcDbSpline
 70
8
 71
3
 72
8
 73
4
 74
0
 40
0
 40
0
 40
0
 40
0
 40
1
 40
1
 40
1
 40
1
 10
-15.031285
 20
334.492869
 30
0.0
 10
-16.347304
 20
333.732638
 30
0.0
 10
-17.157481
 20
332.327790
 30
0.0
 10
-17.156371
 20
330.807969
 30
0.0
  0
SPLINE
  5
1fe
100
AcDbEntity
  8
Layer_1
 62
7
100
AcDbSpline
 70
8
 71
3
 72
8
 73
4
 74
0
 40
0
 40
0
 40
0
 40
0
 40
1
 40
1
 40
1
 40
1
 10
-17.156371
 20
330.807969
 30
0.0
 10
-17.157481
 20
329.288147
 30
0.0
 10
-16.347304
 20
327.883299
 30
0.0
 10
-15.031285
 20
327.123068
 30
0.0
  0
SPLINE
  5
1ff
100
AcDbEntity
  8
Layer_1
 62
7
100
AcDbSpline
 70
8
 71
3
 72
8
 73
4
 74
0
 40
0
 40
0
 40
0
 40
0
 40
1
 40
1
 40
1
 40
1
 10
-15.031285
 20
327.123068
 30
0.0
 10
-13.715266
 20
326.362837
 30
0.0
 10
-12.093543
 20
326.362837
 30
0.0
 10
-10.777524
 20
327.123068
 30
0.0
  0
SPLINE
  5
200
100
AcDbEntity
  8
Layer_1
 62
7
100
AcDbSpline
 70
8
 71
3
 72
8
 73
4
 74
0
 40
0
 40
0
 40
0
 40
0
 40
1
 40
1
 40
1
 40
1
 10
-10.777524
 20
327.123068
 30
0.0
 10
-9.461504
 20
327.883299
 30
0.0
 10
-8.651327
 20
329.288147
 30
0.0
 10
-8.652437
 20
330.807969
 30
0.0
  0
LWPOLYLINE
  5
201
100
AcDbEntity
  8
Layer_1
 62
7
100
AcDbPolyline
 90
1
 70
1
 10
637.646740
 20
333.642614
 30
0.0
  0
SPLINE
  5
202
100
AcDbEntity
  8
Layer_1
 62
7
100
AcDbSpline
 70
8
 71
3
 72
8
 73
4
 74
0
 40
0
 40
0
 40
0
 40
0
 40
1
 40
1
 40
1
 40
1
 10
127.410559
 20
113.219745
 30
0.0
 10
127.410559
 20
114.738828
 30
0.0
 10
126.600138
 20
116.142519
 30
0.0
 10
125.284574
 20
116.902060
 30
0.0
  0
SPLINE
  5
203
100
AcDbEntity
  8
Layer_1
 62
7
100
AcDbSpline
 70
8
 71
3
 72
8
 73
4
 74
0
 40
0
 40
0
 40
0
 40
0
 40
1
 40
1
 40
1
 40
1
 10
125.284574
 20
116.902060
 30
0.0
 10
123.969009
 20
117.661602
 30
0.0
 10
122.348167
 20
117.661602
 30
0.0
 10
121.032602
 20
116.902060
 30
0.0
  0
SPLINE
  5
204
100
AcDbEntity
  8
Layer_1
 62
7
100
AcDbSpline
 70
8
 71
3
 72
8
 73
4
 74
0
 40
0
 40
0
 40
0
 40
0
 40
1
 40
1
 40
1
 40
1
 10
121.032602
 20
116.902060
 30
0.0
 10
119.717038
 20
116.142519
 30
0.0
 10
118.906617
 20
114.738828
 30
0.0
 10
118.906617
 20
113.219745
 30
0.0
  0
SPLINE
  5
205
100
AcDbEntity
  8
Layer_1
 62
7
100
AcDbSpline
 70
8
 71
3
 72
8
 73
4
 74
0
 40
0
 40
0
 40
0
 40
0
 40
1
 40
1
 40
1
 40
1
 10
118.906617
 20
113.219745
 30
0.0
 10
118.906617
 20
111.700662
 30
0.0
 10
119.717038
 20
110.296971
 30
0.0
 10
121.032602
 20
109.537430
 30
0.0
  0
SPLINE
  5
206
100
AcDbEntity
  8
Layer_1
 62
7
100
AcDbSpline
 70
8
 71
3
 72
8
 73
4
 74
0
 40
0
 40
0
 40
0
 40
0
 40
1
 40
1
 40
1
 40
1
 10
121.032602
 20
109.537430
 30
0.0
 10
122.348167
 20
108.777888
 30
0.0
 10
123.969009
 20
108.777888
 30
0.0
 10
125.284574
 20
109.537430
 30
0.0
  0
SPLINE
  5
207
100
AcDbEntity
  8
Layer_1
 62
7
100
AcDbSpline
 70
8
 71
3
 72
8
 73
4
 74
0
 40
0
 40
0
 40
0
 40
0
 40
1
 40
1
 40
1
 40
1
 10
125.284574
 20
109.537430
 30
0.0
 10
126.600138
 20
110.296971
 30
0.0
 10
127.410559
 20
111.700662
 30
0.0
 10
127.410559
 20
113.219745
 30
0.0
  0
LWPOLYLINE
  5
208
100
AcDbEntity
  8
Layer_1
 62
7
100
AcDbPolyline
 90
1
 70
1
 10
-8.652437
 20
330.807969
 30
0.0
  0
SPLINE
  5
209
100
AcDbEntity
  8
Layer_1
 62
7
100
AcDbSpline
 70
8
 71
3
 72
8
 73
4
 74
0
 40
0
 40
0
 40
0
 40
0
 40
1
 40
1
 40
1
 40
1
 10
131.082993
 20
669.013577
 30
0.0
 10
131.084413
 20
671.004014
 30
0.0
 10
130.023343
 20
672.843861
 30
0.0
 10
128.299811
 20
673.839490
 30
0.0
  0
SPLINE
  5
20a
100
AcDbEntity
  8
Layer_1
 62
7
100
AcDbSpline
 70
8
 71
3
 72
8
 73
4
 74
0
 40
0
 40
0
 40
0
 40
0
 40
1
 40
1
 40
1
 40
1
 10
128.299811
 20
673.839490
 30
0.0
 10
126.576278
 20
674.835119
 30
0.0
 10
124.452388
 20
674.835119
 30
0.0
 10
122.728856
 20
673.839490
 30
0.0
  0
SPLINE
  5
20b
100
AcDbEntity
  8
Layer_1
 62
7
100
AcDbSpline
 70
8
 71
3
 72
8
 73
4
 74
0
 40
0
 40
0
 40
0
 40
0
 40
1
 40
1
 40
1
 40
1
 10
122.728856
 20
673.839490
 30
0.0
 10
121.005323
 20
672.843861
 30
0.0
 10
119.944253
 20
671.004014
 30
0.0
 10
119.945673
 20
669.013577
 30
0.0
  0
SPLINE
  5
20c
100
AcDbEntity
  8
Layer_1
 62
7
100
AcDbSpline
 70
8
 71
3
 72
8
 73
4
 74
0
 40
0
 40
0
 40
0
 40
0
 40
1
 40
1
 40
1
 40
1
 10
119.945673
 20
669.013577
 30
0.0
 10
119.944253
 20
667.023140
 30
0.0
 10
121.005323
 20
665.183293
 30
0.0
 10
122.728856
 20
664.187664
 30
0.0
  0
SPLINE
  5
20d
100
AcDbEntity
  8
Layer_1
 62
7
100
AcDbSpline
 70
8
 71
3
 72
8
 73
4
 74
0
 40
0
 40
0
 40
0
 40
0
 40
1
 40
1
 40
1
 40
1
 10
122.728856
 20
664.187664
 30
0.0
 10
124.452388
 20
663.192035
 30
0.0
 10
126.576278
 20
663.192035
 30
0.0
 10
128.299811
 20
664.187664
 30
0.0
  0
SPLINE
  5
20e
100
AcDbEntity
  8
Layer_1
 62
7
100
AcDbSpline
 70
8
 71
3
 72
8
 73
4
 74
0
 40
0
 40
0
 40
0
 40
0
 40
1
 40
1
 40
1
 40
1
 10
128.299811
 20
664.187664
 30
0.0
 10
130.023343
 20
665.183293
 30
0.0
 10
131.084413
 20
667.023140
 30
0.0
 10
131.082993
 20
669.013577
 30
0.0
  0
LWPOLYLINE
  5
20f
100
AcDbEntity
  8
Layer_1
 62
7
100
AcDbPolyline
 90
1
 70
1
 10
127.410559
 20
113.219745
 30
0.0
  0
SPLINE
  5
210
100
AcDbEntity
  8
Layer_1
 62
7
100
AcDbSpline
 70
8
 71
3
 72
8
 73
4
 74
0
 40
0
 40
0
 40
0
 40
0
 40
1
 40
1
 40
1
 40
1
 10
275.465364
 20
670.903186
 30
0.0
 10
275.466784
 20
672.893623
 30
0.0
 10
274.405714
 20
674.733470
 30
0.0
 10
272.682182
 20
675.729099
 30
0.0
  0
SPLINE
  5
211
100
AcDbEntity
  8
Layer_1
 62
7
100
AcDbSpline
 70
8
 71
3
 72
8
 73
4
 74
0
 40
0
 40
0
 40
0
 40
0
 40
1
 40
1
 40
1
 40
1
 10
272.682182
 20
675.729099
 30
0.0
 10
270.958649
 20
676.724727
 30
0.0
 10
268.834759
 20
676.724727
 30
0.0
 10
267.111227
 20
675.729099
 30
0.0
  0
SPLINE
  5
212
100
AcDbEntity
  8
Layer_1
 62
7
100
AcDbSpline
 70
8
 71
3
 72
8
 73
4
 74
0
 40
0
 40
0
 40
0
 40
0
 40
1
 40
1
 40
1
 40
1
 10
267.111227
 20
675.729099
 30
0.0
 10
265.387694
 20
674.733470
 30
0.0
 10
264.326624
 20
672.893623
 30
0.0
 10
264.328044
 20
670.903186
 30
0.0
  0
SPLINE
  5
213
100
AcDbEntity
  8
Layer_1
 62
7
100
AcDbSpline
 70
8
 71
3
 72
8
 73
4
 74
0
 40
0
 40
0
 40
0
 40
0
 40
1
 40
1
 40
1
 40
1
 10
264.328044
 20
670.903186
 30
0.0
 10
264.326624
 20
668.912749
 30
0.0
 10
265.387694
 20
667.072901
 30
0.0
 10
267.111227
 20
666.077273
 30
0.0
  0
SPLINE
  5
214
100
AcDbEntity
  8
Layer_1
 62
7
100
AcDbSpline
 70
8
 71
3
 72
8
 73
4
 74
0
 40
0
 40
0
 40
0
 40
0
 40
1
 40
1
 40
1
 40
1
 10
267.111227
 20
666.077273
 30
0.0
 10
268.834759
 20
665.081644
 30
0.0
 10
270.958649
 20
665.081644
 30
0.0
 10
272.682182
 20
666.077273
 30
0.0
  0
SPLINE
  5
215
100
AcDbEntity
  8
Layer_1
 62
7
100
AcDbSpline
 70
8
 71
3
 72
8
 73
4
 74
0
 40
0
 40
0
 40
0
 40
0
 40
1
 40
1
 40
1
 40
1
 10
272.682182
 20
666.077273
 30
0.0
 10
274.405714
 20
667.072901
 30
0.0
 10
275.466784
 20
668.912749
 30
0.0
 10
275.465364
 20
670.903186
 30
0.0
  0
LWPOLYLINE
  5
216
100
AcDbEntity
  8
Layer_1
 62
7
100
AcDbPolyline
 90
1
 70
1
 10
131.082993
 20
669.013577
 30
0.0
  0
SPLINE
  5
217
100
AcDbEntity
  8
Layer_1
 62
7
100
AcDbSpline
 70
8
 71
3
 72
8
 73
4
 74
0
 40
0
 40
0
 40
0
 40
0
 40
1
 40
1
 40
1
 40
1
 10
41.111728
 20
510.252661
 30
0.0
 10
41.113148
 20
512.243098
 30
0.0
 10
40.052078
 20
514.082946
 30
0.0
 10
38.328545
 20
515.078574
 30
0.0
  0
SPLINE
  5
218
100
AcDbEntity
  8
Layer_1
 62
7
100
AcDbSpline
 70
8
 71
3
 72
8
 73
4
 74
0
 40
0
 40
0
 40
0
 40
0
 40
1
 40
1
 40
1
 40
1
 10
38.328545
 20
515.078574
 30
0.0
 10
36.605013
 20
516.074203
 30
0.0
 10
34.481123
 20
516.074203
 30
0.0
 10
32.757590
 20
515.078574
 30
0.0
  0
SPLINE
  5
219
100
AcDbEntity
  8
Layer_1
 62
7
100
AcDbSpline
 70
8
 71
3
 72
8
 73
4
 74
0
 40
0
 40
0
 40
0
 40
0
 40
1
 40
1
 40
1
 40
1
 10
32.757590
 20
515.078574
 30
0.0
 10
31.034058
 20
514.082946
 30
0.0
 10
29.972988
 20
512.243098
 30
0.0
 10
29.974408
 20
510.252661
 30
0.0
  0
SPLINE
  5
21a
100
AcDbEntity
  8
Layer_1
 62
7
100
AcDbSpline
 70
8
 71
3
 72
8
 73
4
 74
0
 40
0
 40
0
 40
0
 40
0
 40
1
 40
1
 40
1
 40
1
 10
29.974408
 20
510.252661
 30
0.0
 10
29.972988
 20
508.262225
 30
0.0
 10
31.034058
 20
506.422377
 30
0.0
 10
32.757590
 20
505.426748
 30
0.0
  0
SPLINE
  5
21b
100
AcDbEntity
  8
Layer_1
 62
7
100
AcDbSpline
 70
8
 71
3
 72
8
 73
4
 74
0
 40
0
 40
0
 40
0
 40
0
 40
1
 40
1
 40
1
 40
1
 10
32.757590
 20
505.426748
 30
0.0
 10
34.481123
 20
504.431120
 30
0.0
 10
36.605013
 20
504.431120
 30
0.0
 10
38.328545
 20
505.426748
 30
0.0
  0
SPLINE
  5
21c
100
AcDbEntity
  8
Layer_1
 62
7
100
AcDbSpline
 70
8
 71
3
 72
8
 73
4
 74
0
 40
0
 40
0
 40
0
 40
0
 40
1
 40
1
 40
1
 40
1
 10
38.328545
 20
505.426748
 30
0.0
 10
40.052078
 20
506.422377
 30
0.0
 10
41.113148
 20
508.262225
 30
0.0
 10
41.111728
 20
510.252661
 30
0.0
  0
LWPOLYLINE
  5
21d
100
AcDbEntity
  8
Layer_1
 62
7
100
AcDbPolyline
 90
1
 70
1
 10
275.465364
 20
670.903186
 30
0.0
  0
SPLINE
  5
21e
100
AcDbEntity
  8
Layer_1
 62
7
100
AcDbSpline
 70
8
 71
3
 72
8
 73
4
 74
0
 40
0
 40
0
 40
0
 40
0
 40
1
 40
1
 40
1
 40
1
 10
488.350828
 20
510.311565
 30
0.0
 10
488.350828
 20
512.301062
 30
0.0
 10
487.289445
 20
514.139432
 30
0.0
 10
485.566491
 20
515.134180
 30
0.0
  0
SPLINE
  5
21f
100
AcDbEntity
  8
Layer_1
 62
7
100
AcDbSpline
 70
8
 71
3
 72
8
 73
4
 74
0
 40
0
 40
0
 40
0
 40
0
 40
1
 40
1
 40
1
 40
1
 10
485.566491
 20
515.134180
 30
0.0
 10
483.843536
 20
516.128928
 30
0.0
 10
481.720769
 20
516.128928
 30
0.0
 10
479.997815
 20
515.134180
 30
0.0
  0
SPLINE
  5
220
100
AcDbEntity
  8
Layer_1
 62
7
100
AcDbSpline
 70
8
 71
3
 72
8
 73
4
 74
0
 40
0
 40
0
 40
0
 40
0
 40
1
 40
1
 40
1
 40
1
 10
479.997815
 20
515.134180
 30
0.0
 10
478.274861
 20
514.139432
 30
0.0
 10
477.213477
 20
512.301062
 30
0.0
 10
477.213477
 20
510.311565
 30
0.0
  0
SPLINE
  5
221
100
AcDbEntity
  8
Layer_1
 62
7
100
AcDbSpline
 70
8
 71
3
 72
8
 73
4
 74
0
 40
0
 40
0
 40
0
 40
0
 40
1
 40
1
 40
1
 40
1
 10
477.213477
 20
510.311565
 30
0.0
 10
477.213477
 20
508.322069
 30
0.0
 10
478.274861
 20
506.483699
 30
0.0
 10
479.997815
 20
505.488951
 30
0.0
  0
SPLINE
  5
222
100
AcDbEntity
  8
Layer_1
 62
7
100
AcDbSpline
 70
8
 71
3
 72
8
 73
4
 74
0
 40
0
 40
0
 40
0
 40
0
 40
1
 40
1
 40
1
 40
1
 10
479.997815
 20
505.488951
 30
0.0
 10
481.720769
 20
504.494203
 30
0.0
 10
483.843536
 20
504.494203
 30
0.0
 10
485.566491
 20
505.488951
 30
0.0
  0
SPLINE
  5
223
100
AcDbEntity
  8
Layer_1
 62
7
100
AcDbSpline
 70
8
 71
3
 72
8
 73
4
 74
0
 40
0
 40
0
 40
0
 40
0
 40
1
 40
1
 40
1
 40
1
 10
485.566491
 20
505.488951
 30
0.0
 10
487.289445
 20
506.483699
 30
0.0
 10
488.350828
 20
508.322069
 30
0.0
 10
488.350828
 20
510.311565
 30
0.0
  0
LWPOLYLINE
  5
224
100
AcDbEntity
  8
Layer_1
 62
7
100
AcDbPolyline
 90
1
 70
1
 10
41.111728
 20
510.252661
 30
0.0
  0
SPLINE
  5
225
100
AcDbEntity
  8
Layer_1
 62
7
100
AcDbSpline
 70
8
 71
3
 72
8
 73
4
 74
0
 40
0
 40
0
 40
0
 40
0
 40
1
 40
1
 40
1
 40
1
 10
196.279849
 20
909.958456
 30
0.0
 10
196.279849
 20
911.947948
 30
0.0
 10
195.218468
 20
913.786315
 30
0.0
 10
193.495517
 20
914.781061
 30
0.0
  0
SPLINE
  5
226
100
AcDbEntity
  8
Layer_1
 62
7
100
AcDbSpline
 70
8
 71
3
 72
8
 73
4
 74
0
 40
0
 40
0
 40
0
 40
0
 40
1
 40
1
 40
1
 40
1
 10
193.495517
 20
914.781061
 30
0.0
 10
191.772566
 20
915.775807
 30
0.0
 10
189.649803
 20
915.775807
 30
0.0
 10
187.926853
 20
914.781061
 30
0.0
  0
SPLINE
  5
227
100
AcDbEntity
  8
Layer_1
 62
7
100
AcDbSpline
 70
8
 71
3
 72
8
 73
4
 74
0
 40
0
 40
0
 40
0
 40
0
 40
1
 40
1
 40
1
 40
1
 10
187.926853
 20
914.781061
 30
0.0
 10
186.203902
 20
913.786315
 30
0.0
 10
185.142521
 20
911.947948
 30
0.0
 10
185.142521
 20
909.958456
 30
0.0
  0
SPLINE
  5
228
100
AcDbEntity
  8
Layer_1
 62
7
100
AcDbSpline
 70
8
 71
3
 72
8
 73
4
 74
0
 40
0
 40
0
 40
0
 40
0
 40
1
 40
1
 40
1
 40
1
 10
185.142521
 20
909.958456
 30
0.0
 10
185.142521
 20
907.968964
 30
0.0
 10
186.203902
 20
906.130597
 30
0.0
 10
187.926853
 20
905.135851
 30
0.0
  0
SPLINE
  5
229
100
AcDbEntity
  8
Layer_1
 62
7
100
AcDbSpline
 70
8
 71
3
 72
8
 73
4
 74
0
 40
0
 40
0
 40
0
 40
0
 40
1
 40
1
 40
1
 40
1
 10
187.926853
 20
905.135851
 30
0.0
 10
189.649803
 20
904.141105
 30
0.0
 10
191.772566
 20
904.141105
 30
0.0
 10
193.495517
 20
905.135851
 30
0.0
  0
SPLINE
  5
22a
100
AcDbEntity
  8
Layer_1
 62
7
100
AcDbSpline
 70
8
 71
3
 72
8
 73
4
 74
0
 40
0
 40
0
 40
0
 40
0
 40
1
 40
1
 40
1
 40
1
 10
193.495517
 20
905.135851
 30
0.0
 10
195.218468
 20
906.130597
 30
0.0
 10
196.279849
 20
907.968964
 30
0.0
 10
196.279849
 20
909.958456
 30
0.0
  0
LWPOLYLINE
  5
22b
100
AcDbEntity
  8
Layer_1
 62
7
100
AcDbPolyline
 90
1
 70
1
 10
488.350828
 20
510.311565
 30
0.0
  0
SPLINE
  5
22c
100
AcDbEntity
  8
Layer_1
 62
7
100
AcDbSpline
 70
8
 71
3
 72
8
 73
4
 74
0
 40
0
 40
0
 40
0
 40
0
 40
1
 40
1
 40
1
 40
1
 10
350.988236
 20
746.260240
 30
0.0
 10
350.989902
 20
747.780431
 30
0.0
 10
350.179845
 20
749.185859
 30
0.0
 10
348.863598
 20
749.946436
 30
0.0
  0
SPLINE
  5
22d
100
AcDbEntity
  8
Layer_1
 62
7
100
AcDbSpline
 70
8
 71
3
 72
8
 73
4
 74
0
 40
0
 40
0
 40
0
 40
0
 40
1
 40
1
 40
1
 40
1
 10
348.863598
 20
749.946436
 30
0.0
 10
347.547350
 20
750.707013
 30
0.0
 10
345.925185
 20
750.707013
 30
0.0
 10
344.608938
 20
749.946436
 30
0.0
  0
SPLINE
  5
22e
100
AcDbEntity
  8
Layer_1
 62
7
100
AcDbSpline
 70
8
 71
3
 72
8
 73
4
 74
0
 40
0
 40
0
 40
0
 40
0
 40
1
 40
1
 40
1
 40
1
 10
344.608938
 20
749.946436
 30
0.0
 10
343.292690
 20
749.185859
 30
0.0
 10
342.482634
 20
747.780431
 30
0.0
 10
342.484299
 20
746.260240
 30
0.0
  0
SPLINE
  5
22f
100
AcDbEntity
  8
Layer_1
 62
7
100
AcDbSpline
 70
8
 71
3
 72
8
 73
4
 74
0
 40
0
 40
0
 40
0
 40
0
 40
1
 40
1
 40
1
 40
1
 10
342.484299
 20
746.260240
 30
0.0
 10
342.482634
 20
744.740048
 30
0.0
 10
343.292690
 20
743.334620
 30
0.0
 10
344.608938
 20
742.574043
 30
0.0
  0
SPLINE
  5
230
100
AcDbEntity
  8
Layer_1
 62
7
100
AcDbSpline
 70
8
 71
3
 72
8
 73
4
 74
0
 40
0
 40
0
 40
0
 40
0
 40
1
 40
1
 40
1
 40
1
 10
344.608938
 20
742.574043
 30
0.0
 10
345.925185
 20
741.813467
 30
0.0
 10
347.547350
 20
741.813467
 30
0.0
 10
348.863598
 20
742.574043
 30
0.0
  0
SPLINE
  5
231
100
AcDbEntity
  8
Layer_1
 62
7
100
AcDbSpline
 70
8
 71
3
 72
8
 73
4
 74
0
 40
0
 40
0
 40
0
 40
0
 40
1
 40
1
 40
1
 40
1
 10
348.863598
 20
742.574043
 30
0.0
 10
350.179845
 20
743.334620
 30
0.0
 10
350.989902
 20
744.740048
 30
0.0
 10
350.988236
 20
746.260240
 30
0.0
  0
LWPOLYLINE
  5
232
100
AcDbEntity
  8
Layer_1
 62
7
100
AcDbPolyline
 90
1
 70
1
 10
196.279849
 20
909.958456
 30
0.0
  0
SPLINE
  5
233
100
AcDbEntity
  8
Layer_1
 62
7
100
AcDbSpline
 70
8
 71
3
 72
8
 73
4
 74
0
 40
0
 40
0
 40
0
 40
0
 40
1
 40
1
 40
1
 40
1
 10
497.632677
 20
919.236501
 30
0.0
 10
497.635340
 20
920.757356
 30
0.0
 10
496.825503
 20
922.163826
 30
0.0
 10
495.508845
 20
922.925024
 30
0.0
  0
SPLINE
  5
234
100
AcDbEntity
  8
Layer_1
 62
7
100
AcDbSpline
 70
8
 71
3
 72
8
 73
4
 74
0
 40
0
 40
0
 40
0
 40
0
 40
1
 40
1
 40
1
 40
1
 10
495.508845
 20
922.925024
 30
0.0
 10
494.192188
 20
923.686221
 30
0.0
 10
492.569230
 20
923.686221
 30
0.0
 10
491.252572
 20
922.925024
 30
0.0
  0
SPLINE
  5
235
100
AcDbEntity
  8
Layer_1
 62
7
100
AcDbSpline
 70
8
 71
3
 72
8
 73
4
 74
0
 40
0
 40
0
 40
0
 40
0
 40
1
 40
1
 40
1
 40
1
 10
491.252572
 20
922.925024
 30
0.0
 10
489.935915
 20
922.163826
 30
0.0
 10
489.126077
 20
920.757356
 30
0.0
 10
489.128740
 20
919.236501
 30
0.0
  0
SPLINE
  5
236
100
AcDbEntity
  8
Layer_1
 62
7
100
AcDbSpline
 70
8
 71
3
 72
8
 73
4
 74
0
 40
0
 40
0
 40
0
 40
0
 40
1
 40
1
 40
1
 40
1
 10
489.128740
 20
919.236501
 30
0.0
 10
489.126077
 20
917.715645
 30
0.0
 10
489.935915
 20
916.309176
 30
0.0
 10
491.252572
 20
915.547978
 30
0.0
  0
SPLINE
  5
237
100
AcDbEntity
  8
Layer_1
 62
7
100
AcDbSpline
 70
8
 71
3
 72
8
 73
4
 74
0
 40
0
 40
0
 40
0
 40
0
 40
1
 40
1
 40
1
 40
1
 10
491.252572
 20
915.547978
 30
0.0
 10
492.569230
 20
914.786780
 30
0.0
 10
494.192188
 20
914.786780
 30
0.0
 10
495.508845
 20
915.547978
 30
0.0
  0
SPLINE
  5
238
100
AcDbEntity
  8
Layer_1
 62
7
100
AcDbSpline
 70
8
 71
3
 72
8
 73
4
 74
0
 40
0
 40
0
 40
0
 40
0
 40
1
 40
1
 40
1
 40
1
 10
495.508845
 20
915.547978
 30
0.0
 10
496.825503
 20
916.309176
 30
0.0
 10
497.635340
 20
917.715645
 30
0.0
 10
497.632677
 20
919.236501
 30
0.0
  0
LWPOLYLINE
  5
239
100
AcDbEntity
  8
Layer_1
 62
7
100
AcDbPolyline
 90
1
 70
1
 10
350.988236
 20
746.260240
 30
0.0
  0
SPLINE
  5
23a
100
AcDbEntity
  8
Layer_1
 62
7
100
AcDbSpline
 70
8
 71
3
 72
8
 73
4
 74
0
 40
0
 40
0
 40
0
 40
0
 40
1
 40
1
 40
1
 40
1
 10
534.775550
 20
590.450516
 30
0.0
 10
534.775550
 20
591.969603
 30
0.0
 10
533.965126
 20
593.373298
 30
0.0
 10
532.649558
 20
594.132841
 30
0.0
  0
SPLINE
  5
23b
100
AcDbEntity
  8
Layer_1
 62
7
100
AcDbSpline
 70
8
 71
3
 72
8
 73
4
 74
0
 40
0
 40
0
 40
0
 40
0
 40
1
 40
1
 40
1
 40
1
 10
532.649558
 20
594.132841
 30
0.0
 10
531.333990
 20
594.892385
 30
0.0
 10
529.713144
 20
594.892385
 30
0.0
 10
528.397576
 20
594.132841
 30
0.0
  0
SPLINE
  5
23c
100
AcDbEntity
  8
Layer_1
 62
7
100
AcDbSpline
 70
8
 71
3
 72
8
 73
4
 74
0
 40
0
 40
0
 40
0
 40
0
 40
1
 40
1
 40
1
 40
1
 10
528.397576
 20
594.132841
 30
0.0
 10
527.082008
 20
593.373298
 30
0.0
 10
526.271584
 20
591.969603
 30
0.0
 10
526.271584
 20
590.450516
 30
0.0
  0
SPLINE
  5
23d
100
AcDbEntity
  8
Layer_1
 62
7
100
AcDbSpline
 70
8
 71
3
 72
8
 73
4
 74
0
 40
0
 40
0
 40
0
 40
0
 40
1
 40
1
 40
1
 40
1
 10
526.271584
 20
590.450516
 30
0.0
 10
526.271584
 20
588.931429
 30
0.0
 10
527.082008
 20
587.527735
 30
0.0
 10
528.397576
 20
586.768191
 30
0.0
  0
SPLINE
  5
23e
100
AcDbEntity
  8
Layer_1
 62
7
100
AcDbSpline
 70
8
 71
3
 72
8
 73
4
 74
0
 40
0
 40
0
 40
0
 40
0
 40
1
 40
1
 40
1
 40
1
 10
528.397576
 20
586.768191
 30
0.0
 10
529.713144
 20
586.008648
 30
0.0
 10
531.333990
 20
586.008648
 30
0.0
 10
532.649558
 20
586.768191
 30
0.0
  0
SPLINE
  5
23f
100
AcDbEntity
  8
Layer_1
 62
7
100
AcDbSpline
 70
8
 71
3
 72
8
 73
4
 74
0
 40
0
 40
0
 40
0
 40
0
 40
1
 40
1
 40
1
 40
1
 10
532.649558
 20
586.768191
 30
0.0
 10
533.965126
 20
587.527735
 30
0.0
 10
534.775550
 20
588.931429
 30
0.0
 10
534.775550
 20
590.450516
 30
0.0
  0
LWPOLYLINE
  5
240
100
AcDbEntity
  8
Layer_1
 62
7
100
AcDbPolyline
 90
1
 70
1
 10
497.632677
 20
919.236501
 30
0.0
  0
LWPOLYLINE
  5
241
100
AcDbEntity
  8
Layer_1
 62
7
100
AcDbPolyline
 90
1
 70
1
 10
534.775550
 20
590.450516
 30
0.0
  0
SPLINE
  5
242
100
AcDbEntity
  8
Layer_1
 62
7
100
AcDbSpline
 70
8
 71
3
 72
8
 73
4
 74
0
 40
0
 40
0
 40
0
 40
0
 40
1
 40
1
 40
1
 40
1
 10
521.669282
 20
24.225761
 30
0.0
 10
521.674842
 20
25.748531
 30
0.0
 10
520.865645
 20
27.158014
 30
0.0
 10
519.547806
 20
27.921009
 30
0.0
  0
SPLINE
  5
243
100
AcDbEntity
  8
Layer_1
 62
7
100
AcDbSpline
 70
8
 71
3
 72
8
 73
4
 74
0
 40
0
 40
0
 40
0
 40
0
 40
1
 40
1
 40
1
 40
1
 10
519.547806
 20
27.921009
 30
0.0
 10
518.229967
 20
28.684004
 30
0.0
 10
516.604716
 20
28.684004
 30
0.0
 10
515.286877
 20
27.921009
 30
0.0
  0
SPLINE
  5
244
100
AcDbEntity
  8
Layer_1
 62
7
100
AcDbSpline
 70
8
 71
3
 72
8
 73
4
 74
0
 40
0
 40
0
 40
0
 40
0
 40
1
 40
1
 40
1
 40
1
 10
515.286877
 20
27.921009
 30
0.0
 10
513.969038
 20
27.158014
 30
0.0
 10
513.159841
 20
25.748531
 30
0.0
 10
513.165402
 20
24.225761
 30
0.0
  0
SPLINE
  5
245
100
AcDbEntity
  8
Layer_1
 62
7
100
AcDbSpline
 70
8
 71
3
 72
8
 73
4
 74
0
 40
0
 40
0
 40
0
 40
0
 40
1
 40
1
 40
1
 40
1
 10
513.165402
 20
24.225761
 30
0.0
 10
513.159841
 20
22.702990
 30
0.0
 10
513.969038
 20
21.293507
 30
0.0
 10
515.286877
 20
20.530512
 30
0.0
  0
SPLINE
  5
246
100
AcDbEntity
  8
Layer_1
 62
7
100
AcDbSpline
 70
8
 71
3
 72
8
 73
4
 74
0
 40
0
 40
0
 40
0
 40
0
 40
1
 40
1
 40
1
 40
1
 10
515.286877
 20
20.530512
 30
0.0
 10
516.604716
 20
19.767517
 30
0.0
 10
518.229967
 20
19.767517
 30
0.0
 10
519.547806
 20
20.530512
 30
0.0
  0
SPLINE
  5
247
100
AcDbEntity
  8
Layer_1
 62
7
100
AcDbSpline
 70
8
 71
3
 72
8
 73
4
 74
0
 40
0
 40
0
 40
0
 40
0
 40
1
 40
1
 40
1
 40
1
 10
519.547806
 20
20.530512
 30
0.0
 10
520.865645
 20
21.293507
 30
0.0
 10
521.674842
 20
22.702990
 30
0.0
 10
521.669282
 20
24.225761
 30
0.0
  0
LWPOLYLINE
  5
248
100
AcDbEntity
  8
Layer_1
 62
7
100
AcDbPolyline
 90
4
 70
0
 10
739.155855
 20
704.324968
 30
0.0
 10
739.155855
 20
735.506073
 30
0.0
 10
676.793594
 20
735.506073
 30
0.0
 10
676.793594
 20
704.324968
 30
0.0
  0
SPLINE
  5
249
100
AcDbEntity
  8
Layer_1
 62
7
100
AcDbSpline
 70
8
 71
3
 72
8
 73
4
 74
0
 40
0
 40
0
 40
0
 40
0
 40
1
 40
1
 40
1
 40
1
 10
465.793824
 20
-57.756359
 30
0.0
 10
465.796487
 20
-56.235503
 30
0.0
 10
464.986649
 20
-54.829034
 30
0.0
 10
463.669992
 20
-54.067836
 30
0.0
  0
SPLINE
  5
24a
100
AcDbEntity
  8
Layer_1
 62
7
100
AcDbSpline
 70
8
 71
3
 72
8
 73
4
 74
0
 40
0
 40
0
 40
0
 40
0
 40
1
 40
1
 40
1
 40
1
 10
463.669992
 20
-54.067836
 30
0.0
 10
462.353334
 20
-53.306639
 30
0.0
 10
460.730376
 20
-53.306639
 30
0.0
 10
459.413718
 20
-54.067836
 30
0.0
  0
SPLINE
  5
24b
100
AcDbEntity
  8
Layer_1
 62
7
100
AcDbSpline
 70
8
 71
3
 72
8
 73
4
 74
0
 40
0
 40
0
 40
0
 40
0
 40
1
 40
1
 40
1
 40
1
 10
459.413718
 20
-54.067836
 30
0.0
 10
458.097061
 20
-54.829034
 30
0.0
 10
457.287223
 20
-56.235503
 30
0.0
 10
457.289887
 20
-57.756359
 30
0.0
  0
SPLINE
  5
24c
100
AcDbEntity
  8
Layer_1
 62
7
100
AcDbSpline
 70
8
 71
3
 72
8
 73
4
 74
0
 40
0
 40
0
 40
0
 40
0
 40
1
 40
1
 40
1
 40
1
 10
457.289887
 20
-57.756359
 30
0.0
 10
457.287223
 20
-59.277215
 30
0.0
 10
458.097061
 20
-60.683684
 30
0.0
 10
459.413718
 20
-61.444882
 30
0.0
  0
SPLINE
  5
24d
100
AcDbEntity
  8
Layer_1
 62
7
100
AcDbSpline
 70
8
 71
3
 72
8
 73
4
 74
0
 40
0
 40
0
 40
0
 40
0
 40
1
 40
1
 40
1
 40
1
 10
459.413718
 20
-61.444882
 30
0.0
 10
460.730376
 20
-62.206080
 30
0.0
 10
462.353334
 20
-62.206080
 30
0.0
 10
463.669992
 20
-61.444882
 30
0.0
  0
SPLINE
  5
24e
100
AcDbEntity
  8
Layer_1
 62
7
100
AcDbSpline
 70
8
 71
3
 72
8
 73
4
 74
0
 40
0
 40
0
 40
0
 40
0
 40
1
 40
1
 40
1
 40
1
 10
463.669992
 20
-61.444882
 30
0.0
 10
464.986649
 20
-60.683684
 30
0.0
 10
465.796487
 20
-59.277215
 30
0.0
 10
465.793824
 20
-57.756359
 30
0.0
  0
LWPOLYLINE
  5
24f
100
AcDbEntity
  8
Layer_1
 62
7
100
AcDbPolyline
 90
1
 70
1
 10
521.669282
 20
24.225761
 30
0.0
  0
SPLINE
  5
250
100
AcDbEntity
  8
Layer_1
 62
7
100
AcDbSpline
 70
8
 71
3
 72
8
 73
4
 74
0
 40
0
 40
0
 40
0
 40
0
 40
1
 40
1
 40
1
 40
1
 10
573.257820
 20
-50.384494
 30
0.0
 10
573.257820
 20
-48.865407
 30
0.0
 10
572.447397
 20
-47.461713
 30
0.0
 10
571.131829
 20
-46.702169
 30
0.0
  0
SPLINE
  5
251
100
AcDbEntity
  8
Layer_1
 62
7
100
AcDbSpline
 70
8
 71
3
 72
8
 73
4
 74
0
 40
0
 40
0
 40
0
 40
0
 40
1
 40
1
 40
1
 40
1
 10
571.131829
 20
-46.702169
 30
0.0
 10
569.816261
 20
-45.942626
 30
0.0
 10
568.195414
 20
-45.942626
 30
0.0
 10
566.879846
 20
-46.702169
 30
0.0
  0
SPLINE
  5
252
100
AcDbEntity
  8
Layer_1
 62
7
100
AcDbSpline
 70
8
 71
3
 72
8
 73
4
 74
0
 40
0
 40
0
 40
0
 40
0
 40
1
 40
1
 40
1
 40
1
 10
566.879846
 20
-46.702169
 30
0.0
 10
565.564278
 20
-47.461713
 30
0.0
 10
564.753855
 20
-48.865407
 30
0.0
 10
564.753855
 20
-50.384494
 30
0.0
  0
SPLINE
  5
253
100
AcDbEntity
  8
Layer_1
 62
7
100
AcDbSpline
 70
8
 71
3
 72
8
 73
4
 74
0
 40
0
 40
0
 40
0
 40
0
 40
1
 40
1
 40
1
 40
1
 10
564.753855
 20
-50.384494
 30
0.0
 10
564.753855
 20
-51.903582
 30
0.0
 10
565.564278
 20
-53.307276
 30
0.0
 10
566.879846
 20
-54.066820
 30
0.0
  0
SPLINE
  5
254
100
AcDbEntity
  8
Layer_1
 62
7
100
AcDbSpline
 70
8
 71
3
 72
8
 73
4
 74
0
 40
0
 40
0
 40
0
 40
0
 40
1
 40
1
 40
1
 40
1
 10
566.879846
 20
-54.066820
 30
0.0
 10
568.195414
 20
-54.826363
 30
0.0
 10
569.816261
 20
-54.826363
 30
0.0
 10
571.131829
 20
-54.066820
 30
0.0
  0
SPLINE
  5
255
100
AcDbEntity
  8
Layer_1
 62
7
100
AcDbSpline
 70
8
 71
3
 72
8
 73
4
 74
0
 40
0
 40
0
 40
0
 40
0
 40
1
 40
1
 40
1
 40
1
 10
571.131829
 20
-54.066820
 30
0.0
 10
572.447397
 20
-53.307276
 30
0.0
 10
573.257820
 20
-51.903582
 30
0.0
 10
573.257820
 20
-50.384494
 30
0.0
  0
LWPOLYLINE
  5
256
100
AcDbEntity
  8
Layer_1
 62
7
100
AcDbPolyline
 90
1
 70
1
 10
465.793824
 20
-57.756359
 30
0.0
  0
SPLINE
  5
257
100
AcDbEntity
  8
Layer_1
 62
7
100
AcDbSpline
 70
8
 71
3
 72
8
 73
4
 74
0
 40
0
 40
0
 40
0
 40
0
 40
1
 40
1
 40
1
 40
1
 10
678.670384
 20
760.183478
 30
0.0
 10
678.673048
 20
761.704333
 30
0.0
 10
677.863210
 20
763.110803
 30
0.0
 10
676.546552
 20
763.872001
 30
0.0
  0
SPLINE
  5
258
100
AcDbEntity
  8
Layer_1
 62
7
100
AcDbSpline
 70
8
 71
3
 72
8
 73
4
 74
0
 40
0
 40
0
 40
0
 40
0
 40
1
 40
1
 40
1
 40
1
 10
676.546552
 20
763.872001
 30
0.0
 10
675.229895
 20
764.633198
 30
0.0
 10
673.606937
 20
764.633198
 30
0.0
 10
672.290279
 20
763.872001
 30
0.0
  0
SPLINE
  5
259
100
AcDbEntity
  8
Layer_1
 62
7
100
AcDbSpline
 70
8
 71
3
 72
8
 73
4
 74
0
 40
0
 40
0
 40
0
 40
0
 40
1
 40
1
 40
1
 40
1
 10
672.290279
 20
763.872001
 30
0.0
 10
670.973622
 20
763.110803
 30
0.0
 10
670.163784
 20
761.704333
 30
0.0
 10
670.166447
 20
760.183478
 30
0.0
  0
SPLINE
  5
25a
100
AcDbEntity
  8
Layer_1
 62
7
100
AcDbSpline
 70
8
 71
3
 72
8
 73
4
 74
0
 40
0
 40
0
 40
0
 40
0
 40
1
 40
1
 40
1
 40
1
 10
670.166447
 20
760.183478
 30
0.0
 10
670.163784
 20
758.662622
 30
0.0
 10
670.973622
 20
757.256153
 30
0.0
 10
672.290279
 20
756.494955
 30
0.0
  0
SPLINE
  5
25b
100
AcDbEntity
  8
Layer_1
 62
7
100
AcDbSpline
 70
8
 71
3
 72
8
 73
4
 74
0
 40
0
 40
0
 40
0
 40
0
 40
1
 40
1
 40
1
 40
1
 10
672.290279
 20
756.494955
 30
0.0
 10
673.606937
 20
755.733757
 30
0.0
 10
675.229895
 20
755.733757
 30
0.0
 10
676.546552
 20
756.494955
 30
0.0
  0
SPLINE
  5
25c
100
AcDbEntity
  8
Layer_1
 62
7
100
AcDbSpline
 70
8
 71
3
 72
8
 73
4
 74
0
 40
0
 40
0
 40
0
 40
0
 40
1
 40
1
 40
1
 40
1
 10
676.546552
 20
756.494955
 30
0.0
 10
677.863210
 20
757.256153
 30
0.0
 10
678.673048
 20
758.662622
 30
0.0
 10
678.670384
 20
760.183478
 30
0.0
  0
LWPOLYLINE
  5
25d
100
AcDbEntity
  8
Layer_1
 62
7
100
AcDbPolyline
 90
1
 70
1
 10
573.257820
 20
-50.384494
 30
0.0
  0
SPLINE
  5
25e
100
AcDbEntity
  8
Layer_1
 62
7
100
AcDbSpline
 70
8
 71
3
 72
8
 73
4
 74
0
 40
0
 40
0
 40
0
 40
0
 40
1
 40
1
 40
1
 40
1
 10
180.908702
 20
108.905783
 30
0.0
 10
180.908702
 20
110.424866
 30
0.0
 10
180.098281
 20
111.828556
 30
0.0
 10
178.782717
 20
112.588098
 30
0.0
  0
SPLINE
  5
25f
100
AcDbEntity
  8
Layer_1
 62
7
100
AcDbSpline
 70
8
 71
3
 72
8
 73
4
 74
0
 40
0
 40
0
 40
0
 40
0
 40
1
 40
1
 40
1
 40
1
 10
178.782717
 20
112.588098
 30
0.0
 10
177.467152
 20
113.347639
 30
0.0
 10
175.846310
 20
113.347639
 30
0.0
 10
174.530745
 20
112.588098
 30
0.0
  0
SPLINE
  5
260
100
AcDbEntity
  8
Layer_1
 62
7
100
AcDbSpline
 70
8
 71
3
 72
8
 73
4
 74
0
 40
0
 40
0
 40
0
 40
0
 40
1
 40
1
 40
1
 40
1
 10
174.530745
 20
112.588098
 30
0.0
 10
173.215181
 20
111.828556
 30
0.0
 10
172.404760
 20
110.424866
 30
0.0
 10
172.404760
 20
108.905783
 30
0.0
  0
SPLINE
  5
261
100
AcDbEntity
  8
Layer_1
 62
7
100
AcDbSpline
 70
8
 71
3
 72
8
 73
4
 74
0
 40
0
 40
0
 40
0
 40
0
 40
1
 40
1
 40
1
 40
1
 10
172.404760
 20
108.905783
 30
0.0
 10
172.404760
 20
107.386700
 30
0.0
 10
173.215181
 20
105.983009
 30
0.0
 10
174.530745
 20
105.223467
 30
0.0
  0
SPLINE
  5
262
100
AcDbEntity
  8
Layer_1
 62
7
100
AcDbSpline
 70
8
 71
3
 72
8
 73
4
 74
0
 40
0
 40
0
 40
0
 40
0
 40
1
 40
1
 40
1
 40
1
 10
174.530745
 20
105.223467
 30
0.0
 10
175.846310
 20
104.463926
 30
0.0
 10
177.467152
 20
104.463926
 30
0.0
 10
178.782717
 20
105.223467
 30
0.0
  0
SPLINE
  5
263
100
AcDbEntity
  8
Layer_1
 62
7
100
AcDbSpline
 70
8
 71
3
 72
8
 73
4
 74
0
 40
0
 40
0
 40
0
 40
0
 40
1
 40
1
 40
1
 40
1
 10
178.782717
 20
105.223467
 30
0.0
 10
180.098281
 20
105.983009
 30
0.0
 10
180.908702
 20
107.386700
 30
0.0
 10
180.908702
 20
108.905783
 30
0.0
  0
LWPOLYLINE
  5
264
100
AcDbEntity
  8
Layer_1
 62
7
100
AcDbPolyline
 90
1
 70
1
 10
678.670384
 20
760.183478
 30
0.0
  0
SPLINE
  5
265
100
AcDbEntity
  8
Layer_1
 62
7
100
AcDbSpline
 70
8
 71
3
 72
8
 73
4
 74
0
 40
0
 40
0
 40
0
 40
0
 40
1
 40
1
 40
1
 40
1
 10
421.853584
 20
104.653814
 30
0.0
 10
421.853584
 20
106.172896
 30
0.0
 10
421.043164
 20
107.576586
 30
0.0
 10
419.727600
 20
108.336127
 30
0.0
  0
SPLINE
  5
266
100
AcDbEntity
  8
Layer_1
 62
7
100
AcDbSpline
 70
8
 71
3
 72
8
 73
4
 74
0
 40
0
 40
0
 40
0
 40
0
 40
1
 40
1
 40
1
 40
1
 10
419.727600
 20
108.336127
 30
0.0
 10
418.412036
 20
109.095668
 30
0.0
 10
416.791195
 20
109.095668
 30
0.0
 10
415.475632
 20
108.336127
 30
0.0
  0
SPLINE
  5
267
100
AcDbEntity
  8
Layer_1
 62
7
100
AcDbSpline
 70
8
 71
3
 72
8
 73
4
 74
0
 40
0
 40
0
 40
0
 40
0
 40
1
 40
1
 40
1
 40
1
 10
415.475632
 20
108.336127
 30
0.0
 10
414.160068
 20
107.576586
 30
0.0
 10
413.349647
 20
106.172896
 30
0.0
 10
413.349647
 20
104.653814
 30
0.0
  0
SPLINE
  5
268
100
AcDbEntity
  8
Layer_1
 62
7
100
AcDbSpline
 70
8
 71
3
 72
8
 73
4
 74
0
 40
0
 40
0
 40
0
 40
0
 40
1
 40
1
 40
1
 40
1
 10
413.349647
 20
104.653814
 30
0.0
 10
413.349647
 20
103.134732
 30
0.0
 10
414.160068
 20
101.731042
 30
0.0
 10
415.475632
 20
100.971501
 30
0.0
  0
SPLINE
  5
269
100
AcDbEntity
  8
Layer_1
 62
7
100
AcDbSpline
 70
8
 71
3
 72
8
 73
4
 74
0
 40
0
 40
0
 40
0
 40
0
 40
1
 40
1
 40
1
 40
1
 10
415.475632
 20
100.971501
 30
0.0
 10
416.791195
 20
100.211960
 30
0.0
 10
418.412036
 20
100.211960
 30
0.0
 10
419.727600
 20
100.971501
 30
0.0
  0
SPLINE
  5
26a
100
AcDbEntity
  8
Layer_1
 62
7
100
AcDbSpline
 70
8
 71
3
 72
8
 73
4
 74
0
 40
0
 40
0
 40
0
 40
0
 40
1
 40
1
 40
1
 40
1
 10
419.727600
 20
100.971501
 30
0.0
 10
421.043164
 20
101.731042
 30
0.0
 10
421.853584
 20
103.134732
 30
0.0
 10
421.853584
 20
104.653814
 30
0.0
  0
LWPOLYLINE
  5
26b
100
AcDbEntity
  8
Layer_1
 62
7
100
AcDbPolyline
 90
1
 70
1
 10
180.908702
 20
108.905783
 30
0.0
  0
SPLINE
  5
26c
100
AcDbEntity
  8
Layer_1
 62
7
100
AcDbSpline
 70
8
 71
3
 72
8
 73
4
 74
0
 40
0
 40
0
 40
0
 40
0
 40
1
 40
1
 40
1
 40
1
 10
180.908702
 20
-117.865843
 30
0.0
 10
180.908702
 20
-116.346759
 30
0.0
 10
180.098281
 20
-114.943069
 30
0.0
 10
178.782717
 20
-114.183527
 30
0.0
  0
SPLINE
  5
26d
100
AcDbEntity
  8
Layer_1
 62
7
100
AcDbSpline
 70
8
 71
3
 72
8
 73
4
 74
0
 40
0
 40
0
 40
0
 40
0
 40
1
 40
1
 40
1
 40
1
 10
178.782717
 20
-114.183527
 30
0.0
 10
177.467152
 20
-113.423986
 30
0.0
 10
175.846310
 20
-113.423986
 30
0.0
 10
174.530745
 20
-114.183527
 30
0.0
  0
SPLINE
  5
26e
100
AcDbEntity
  8
Layer_1
 62
7
100
AcDbSpline
 70
8
 71
3
 72
8
 73
4
 74
0
 40
0
 40
0
 40
0
 40
0
 40
1
 40
1
 40
1
 40
1
 10
174.530745
 20
-114.183527
 30
0.0
 10
173.215181
 20
-114.943069
 30
0.0
 10
172.404760
 20
-116.346759
 30
0.0
 10
172.404760
 20
-117.865843
 30
0.0
  0
SPLINE
  5
26f
100
AcDbEntity
  8
Layer_1
 62
7
100
AcDbSpline
 70
8
 71
3
 72
8
 73
4
 74
0
 40
0
 40
0
 40
0
 40
0
 40
1
 40
1
 40
1
 40
1
 10
172.404760
 20
-117.865843
 30
0.0
 10
172.404760
 20
-119.384926
 30
0.0
 10
173.215181
 20
-120.788616
 30
0.0
 10
174.530745
 20
-121.548158
 30
0.0
  0
SPLINE
  5
270
100
AcDbEntity
  8
Layer_1
 62
7
100
AcDbSpline
 70
8
 71
3
 72
8
 73
4
 74
0
 40
0
 40
0
 40
0
 40
0
 40
1
 40
1
 40
1
 40
1
 10
174.530745
 20
-121.548158
 30
0.0
 10
175.846310
 20
-122.307699
 30
0.0
 10
177.467152
 20
-122.307699
 30
0.0
 10
178.782717
 20
-121.548158
 30
0.0
  0
SPLINE
  5
271
100
AcDbEntity
  8
Layer_1
 62
7
100
AcDbSpline
 70
8
 71
3
 72
8
 73
4
 74
0
 40
0
 40
0
 40
0
 40
0
 40
1
 40
1
 40
1
 40
1
 10
178.782717
 20
-121.548158
 30
0.0
 10
180.098281
 20
-120.788616
 30
0.0
 10
180.908702
 20
-119.384926
 30
0.0
 10
180.908702
 20
-117.865843
 30
0.0
  0
LWPOLYLINE
  5
272
100
AcDbEntity
  8
Layer_1
 62
7
100
AcDbPolyline
 90
1
 70
1
 10
421.853584
 20
104.653814
 30
0.0
  0
SPLINE
  5
273
100
AcDbEntity
  8
Layer_1
 62
7
100
AcDbSpline
 70
8
 71
3
 72
8
 73
4
 74
0
 40
0
 40
0
 40
0
 40
0
 40
1
 40
1
 40
1
 40
1
 10
421.853584
 20
-117.865843
 30
0.0
 10
421.853584
 20
-116.346760
 30
0.0
 10
421.043164
 20
-114.943071
 30
0.0
 10
419.727600
 20
-114.183530
 30
0.0
  0
SPLINE
  5
274
100
AcDbEntity
  8
Layer_1
 62
7
100
AcDbSpline
 70
8
 71
3
 72
8
 73
4
 74
0
 40
0
 40
0
 40
0
 40
0
 40
1
 40
1
 40
1
 40
1
 10
419.727600
 20
-114.183530
 30
0.0
 10
418.412036
 20
-113.423989
 30
0.0
 10
416.791195
 20
-113.423989
 30
0.0
 10
415.475632
 20
-114.183530
 30
0.0
  0
SPLINE
  5
275
100
AcDbEntity
  8
Layer_1
 62
7
100
AcDbSpline
 70
8
 71
3
 72
8
 73
4
 74
0
 40
0
 40
0
 40
0
 40
0
 40
1
 40
1
 40
1
 40
1
 10
415.475632
 20
-114.183530
 30
0.0
 10
414.160068
 20
-114.943071
 30
0.0
 10
413.349647
 20
-116.346760
 30
0.0
 10
413.349647
 20
-117.865843
 30
0.0
  0
SPLINE
  5
276
100
AcDbEntity
  8
Layer_1
 62
7
100
AcDbSpline
 70
8
 71
3
 72
8
 73
4
 74
0
 40
0
 40
0
 40
0
 40
0
 40
1
 40
1
 40
1
 40
1
 10
413.349647
 20
-117.865843
 30
0.0
 10
413.349647
 20
-119.384925
 30
0.0
 10
414.160068
 20
-120.788614
 30
0.0
 10
415.475632
 20
-121.548155
 30
0.0
  0
SPLINE
  5
277
100
AcDbEntity
  8
Layer_1
 62
7
100
AcDbSpline
 70
8
 71
3
 72
8
 73
4
 74
0
 40
0
 40
0
 40
0
 40
0
 40
1
 40
1
 40
1
 40
1
 10
415.475632
 20
-121.548155
 30
0.0
 10
416.791195
 20
-122.307696
 30
0.0
 10
418.412036
 20
-122.307696
 30
0.0
 10
419.727600
 20
-121.548155
 30
0.0
  0
SPLINE
  5
278
100
AcDbEntity
  8
Layer_1
 62
7
100
AcDbSpline
 70
8
 71
3
 72
8
 73
4
 74
0
 40
0
 40
0
 40
0
 40
0
 40
1
 40
1
 40
1
 40
1
 10
419.727600
 20
-121.548155
 30
0.0
 10
421.043164
 20
-120.788614
 30
0.0
 10
421.853584
 20
-119.384925
 30
0.0
 10
421.853584
 20
-117.865843
 30
0.0
  0
LWPOLYLINE
  5
279
100
AcDbEntity
  8
Layer_1
 62
7
100
AcDbPolyline
 90
1
 70
1
 10
180.908702
 20
-117.865843
 30
0.0
  0
LWPOLYLINE
  5
27a
100
AcDbEntity
  8
Layer_1
 62
7
100
AcDbPolyline
 90
1
 70
1
 10
421.853584
 20
-117.865843
 30
0.0
  0
ENDSEC
  0
SECTION
  2
OBJECTS
  0
DICTIONARY
  5
C
330
0
100
AcDbDictionary
  3
ACAD_GROUP
350
D
  3
ACAD_MLINESTYLE
350
17
  0
DICTIONARY
  5
D
330
C
100
AcDbDictionary
  0
DICTIONARY
  5
1A
330
C
100
AcDbDictionary
  0
DICTIONARY
  5
17
330
C
100
AcDbDictionary
  3
STANDARD
350
18
  0
DICTIONARY
  5
19
330
C
100
AcDbDictionary
  0
ENDSEC
  0
EOF
