<?xml version="1.0" encoding="UTF-8" standalone="no"?>
<svg
   xmlns:dc="http://purl.org/dc/elements/1.1/"
   xmlns:cc="http://creativecommons.org/ns#"
   xmlns:rdf="http://www.w3.org/1999/02/22-rdf-syntax-ns#"
   xmlns:svg="http://www.w3.org/2000/svg"
   xmlns="http://www.w3.org/2000/svg"
   xmlns:sodipodi="http://sodipodi.sourceforge.net/DTD/sodipodi-0.dtd"
   xmlns:inkscape="http://www.inkscape.org/namespaces/inkscape"
   width="793.700787402"
   height="1122.51968504"
   version="1.1"
   id="svg362"
   sodipodi:docname="top-v16.svg"
   inkscape:version="0.92.4 (5da689c313, 2019-01-14)">
  <metadata
     id="metadata366">
    <rdf:RDF>
      <cc:Work
         rdf:about="">
        <dc:format>image/svg+xml</dc:format>
        <dc:type
           rdf:resource="http://purl.org/dc/dcmitype/StillImage" />
        <dc:title></dc:title>
      </cc:Work>
    </rdf:RDF>
  </metadata>
  <sodipodi:namedview
     pagecolor="#ffffff"
     bordercolor="#666666"
     borderopacity="1"
     objecttolerance="10"
     gridtolerance="10"
     guidetolerance="10"
     inkscape:pageopacity="0"
     inkscape:pageshadow="2"
     inkscape:window-width="1920"
     inkscape:window-height="986"
     id="namedview364"
     showgrid="false"
     inkscape:zoom="0.67972084"
     inkscape:cx="396.8504"
     inkscape:cy="973.19364"
     inkscape:window-x="-11"
     inkscape:window-y="-11"
     inkscape:window-maximized="1"
     inkscape:current-layer="g360" />
  <desc
     id="desc10">C:\Users\opatiny\git\opatiny\oceane.patiny\xiaomiRemake\exports\fusion360\2D\top-v16.dxf - scale = 1.000000, origin = (0.000000, 0.000000), method = manual</desc>
  <defs
     id="defs24">
    <marker
       id="DistanceX"
       orient="auto"
       refX="0.0"
       refY="0.0"
       style="overflow:visible">
      <path
         d="M 3,-3 L -3,3 M 0,-5 L  0,5"
         style="stroke:#000000; stroke-width:0.5"
         id="path12" />
    </marker>
    <pattern
       height="8"
       id="Hatch"
       patternUnits="userSpaceOnUse"
       width="8"
       x="0"
       y="0">
      <path
         d="M8 4 l-4,4"
         linecap="square"
         stroke="#000000"
         stroke-width="0.25"
         id="path15" />
      <path
         d="M6 2 l-4,4"
         linecap="square"
         stroke="#000000"
         stroke-width="0.25"
         id="path17" />
      <path
         d="M4 0 l-4,4"
         linecap="square"
         stroke="#000000"
         stroke-width="0.25"
         id="path19" />
    </pattern>
    <symbol
       id="*MODEL_SPACE" />
    <symbol
       id="*PAPER_SPACE" />
  </defs>
  <g
     inkscape:groupmode="layer"
     inkscape:label="0"
     id="g360">
    <path
       d="M 494.816835,-493.326614 A 52.017638,52.017638 -0.000000 0 0 458.034810,-478.091001"
       style="stroke:#000000;fill:none"
       id="path38" />
    <path
       d="M 1157.811489,-478.091001 A 52.017638,52.017638 -0.000000 0 0 1121.029464,-493.326614"
       style="stroke:#000000;fill:none"
       id="path40" />
    <path
       d="M 1615.846299,1.490221 A 52.017638,52.017638 -0.000000 0 0 1600.610686,-35.291804"
       style="stroke:#000000;fill:none"
       id="path42" />
    <path
       d="M 1600.610686,664.484875 A 52.017638,52.017638 -0.000000 0 0 1615.846299,627.702850"
       style="stroke:#000000;fill:none"
       id="path44" />
    <path
       d="M 1121.029464,1122.519685 A 52.017638,52.017638 -0.000000 0 0 1157.811489,1107.284072"
       style="stroke:#000000;fill:none"
       id="path46" />
    <path
       d="M 458.034810,1107.284072 A 52.017638,52.017638 -0.000000 0 0 494.816835,1122.519685"
       style="stroke:#000000;fill:none"
       id="path48" />
    <path
       d="M 0.000000,627.702850 A 52.017638,52.017638 -0.000000 0 0 15.235613,664.484875"
       style="stroke:#000000;fill:none"
       id="path50" />
    <path
       d="M 15.235613,-35.291804 A 52.017638,52.017638 -0.000000 0 0 0.000000,1.490221"
       style="stroke:#000000;fill:none"
       id="path52" />
    <path
       d="M 1119.734173,19.062436 L 496.112126,19.062436 A 1.889764,1.889764 0.0 0 1 494.222362,17.172673 L 494.222362,-364.559611 A 1.889764,1.889764 0.0 0 1 496.112126,-366.449375 L 1119.734173,-366.449375 A 1.889764,1.889764 0.0 0 1 1121.623937,-364.559611 L 1121.623937,17.172673 A 1.889764,1.889764 0.0 0 1 1119.734173,19.062436 z"
       style="stroke:#000000;fill:none"
       id="path54" />
    <path
       d="M 826.820787,187.619638 A 18.897638,18.897638 -0.000000 1 0 789.025512,187.619638 18.897638,18.897638 -0.000000 1 0 826.820787,187.619638 z"
       style="stroke:#000000;fill:none"
       id="path64" />
    <path
       d="M 1140.382639,-474.344792 A 5.669291,5.669291 -0.000000 1 0 1129.044056,-474.344792 5.669291,5.669291 -0.000000 1 0 1140.382639,-474.344792 z"
       style="stroke:#000000;fill:none"
       id="path74" />
    <path
       d="M 486.802243,-474.344792 A 5.669291,5.669291 -0.000000 1 0 475.463661,-474.344792 5.669291,5.669291 -0.000000 1 0 486.802243,-474.344792 z"
       style="stroke:#000000;fill:none"
       id="path76" />
    <path
       d="M 24.651114,-12.193662 A 5.669291,5.669291 -0.000000 1 0 13.312531,-12.193662 5.669291,5.669291 -0.000000 1 0 24.651114,-12.193662 z"
       style="stroke:#000000;fill:none"
       id="path78" />
    <path
       d="M 24.651114,641.386733 A 5.669291,5.669291 -0.000000 1 0 13.312531,641.386733 5.669291,5.669291 -0.000000 1 0 24.651114,641.386733 z"
       style="stroke:#000000;fill:none"
       id="path80" />
    <path
       d="M 486.802243,1103.537863 A 5.669291,5.669291 -0.000000 1 0 475.463661,1103.537863 5.669291,5.669291 -0.000000 1 0 486.802243,1103.537863 z"
       style="stroke:#000000;fill:none"
       id="path82" />
    <path
       d="M 1140.382639,1103.537863 A 5.669291,5.669291 -0.000000 1 0 1129.044056,1103.537863 5.669291,5.669291 -0.000000 1 0 1140.382639,1103.537863 z"
       style="stroke:#000000;fill:none"
       id="path84" />
    <path
       d="M 1602.533768,641.386733 A 5.669291,5.669291 -0.000000 1 0 1591.195185,641.386733 5.669291,5.669291 -0.000000 1 0 1602.533768,641.386733 z"
       style="stroke:#000000;fill:none"
       id="path86" />
    <path
       d="M 1602.533768,-12.193662 A 5.669291,5.669291 -0.000000 1 0 1591.195185,-12.193662 5.669291,5.669291 -0.000000 1 0 1602.533768,-12.193662 z"
       style="stroke:#000000;fill:none"
       id="path88" />
    <path
       d="M 1615.846299,1.490221 1615.846299,39.285496"
       style="stroke:#000000;fill:none"
       id="path90" />
    <path
       d="M 1596.948661,39.285496 1596.948661,149.409912"
       style="stroke:#000000;fill:none"
       id="path92" />
    <path
       d="M 1596.948661,149.409912 1615.846299,149.409912"
       style="stroke:#000000;fill:none"
       id="path94" />
    <path
       d="M 1615.846299,259.534328 1596.948661,259.534328"
       style="stroke:#000000;fill:none"
       id="path96" />
    <path
       d="M 1596.948661,259.534328 1596.948661,369.658743"
       style="stroke:#000000;fill:none"
       id="path98" />
    <path
       d="M 1596.948661,369.658743 1615.846299,369.658743"
       style="stroke:#000000;fill:none"
       id="path100" />
    <path
       d="M 1615.846299,479.783159 1596.948661,479.783159"
       style="stroke:#000000;fill:none"
       id="path102" />
    <path
       d="M 1596.948661,479.783159 1596.948661,589.907575"
       style="stroke:#000000;fill:none"
       id="path104" />
    <path
       d="M 1596.948661,589.907575 1615.846299,589.907575"
       style="stroke:#000000;fill:none"
       id="path106" />
    <path
       d="M 1596.948661,39.285496 1615.846299,39.285496"
       style="stroke:#000000;fill:none"
       id="path108" />
    <path
       d="M 1615.846299,479.783159 1615.846299,369.658743"
       style="stroke:#000000;fill:none"
       id="path110" />
    <path
       d="M 1615.846299,259.534328 1615.846299,149.409912"
       style="stroke:#000000;fill:none"
       id="path112" />
    <path
       d="M 1615.846299,589.907575 1615.846299,627.702850"
       style="stroke:#000000;fill:none"
       id="path114" />
    <path
       d="M 1157.811489,-478.091001 1184.536785,-451.365705"
       style="stroke:#000000;fill:none"
       id="path120" />
    <path
       d="M 1171.174137,-438.003057 1249.043858,-360.133336"
       style="stroke:#000000;fill:none"
       id="path122" />
    <path
       d="M 1249.043858,-360.133336 1262.406506,-373.495984"
       style="stroke:#000000;fill:none"
       id="path124" />
    <path
       d="M 1340.276227,-295.626263 1262.406506,-373.495984"
       style="stroke:#000000;fill:none"
       id="path126" />
    <path
       d="M 1340.276227,-295.626263 1326.913579,-282.263615"
       style="stroke:#000000;fill:none"
       id="path128" />
    <path
       d="M 1326.913579,-282.263615 1404.783300,-204.393894"
       style="stroke:#000000;fill:none"
       id="path130" />
    <path
       d="M 1404.783300,-204.393894 1418.145948,-217.756542"
       style="stroke:#000000;fill:none"
       id="path132" />
    <path
       d="M 1496.015669,-139.886821 1418.145948,-217.756542"
       style="stroke:#000000;fill:none"
       id="path134" />
    <path
       d="M 1482.653021,-126.524173 1560.522742,-48.654452"
       style="stroke:#000000;fill:none"
       id="path136" />
    <path
       d="M 1573.885390,-62.017100 1600.610686,-35.291804"
       style="stroke:#000000;fill:none"
       id="path138" />
    <path
       d="M 1171.174137,-438.003057 1184.536785,-451.365705"
       style="stroke:#000000;fill:none"
       id="path140" />
    <path
       d="M 1560.522742,-48.654452 1573.885390,-62.017100"
       style="stroke:#000000;fill:none"
       id="path142" />
    <path
       d="M 1496.015669,-139.886821 1482.653021,-126.524173"
       style="stroke:#000000;fill:none"
       id="path144" />
    <path
       d="M 494.816835,-493.326614 532.612110,-493.326614"
       style="stroke:#000000;fill:none"
       id="path146" />
    <path
       d="M 532.612110,-474.428976 642.736526,-474.428976"
       style="stroke:#000000;fill:none"
       id="path148" />
    <path
       d="M 642.736526,-474.428976 642.736526,-493.326614"
       style="stroke:#000000;fill:none"
       id="path150" />
    <path
       d="M 752.860942,-493.326614 642.736526,-493.326614"
       style="stroke:#000000;fill:none"
       id="path152" />
    <path
       d="M 752.860942,-493.326614 752.860942,-474.428976"
       style="stroke:#000000;fill:none"
       id="path154" />
    <path
       d="M 752.860942,-474.428976 862.985357,-474.428976"
       style="stroke:#000000;fill:none"
       id="path156" />
    <path
       d="M 862.985357,-474.428976 862.985357,-493.326614"
       style="stroke:#000000;fill:none"
       id="path158" />
    <path
       d="M 973.109773,-493.326614 862.985357,-493.326614"
       style="stroke:#000000;fill:none"
       id="path160" />
    <path
       d="M 973.109773,-474.428976 1083.234189,-474.428976"
       style="stroke:#000000;fill:none"
       id="path162" />
    <path
       d="M 1083.234189,-493.326614 1121.029464,-493.326614"
       style="stroke:#000000;fill:none"
       id="path164" />
    <path
       d="M 532.612110,-474.428976 532.612110,-493.326614"
       style="stroke:#000000;fill:none"
       id="path166" />
    <path
       d="M 1083.234189,-474.428976 1083.234189,-493.326614"
       style="stroke:#000000;fill:none"
       id="path168" />
    <path
       d="M 973.109773,-493.326614 973.109773,-474.428976"
       style="stroke:#000000;fill:none"
       id="path170" />
    <path
       d="M 15.235613,-35.291804 41.960909,-62.017100"
       style="stroke:#000000;fill:none"
       id="path172" />
    <path
       d="M 55.323557,-48.654452 133.193278,-126.524173"
       style="stroke:#000000;fill:none"
       id="path174" />
    <path
       d="M 133.193278,-126.524173 119.830630,-139.886821"
       style="stroke:#000000;fill:none"
       id="path176" />
    <path
       d="M 197.700351,-217.756542 119.830630,-139.886821"
       style="stroke:#000000;fill:none"
       id="path178" />
    <path
       d="M 197.700351,-217.756542 211.062999,-204.393894"
       style="stroke:#000000;fill:none"
       id="path180" />
    <path
       d="M 211.062999,-204.393894 288.932720,-282.263615"
       style="stroke:#000000;fill:none"
       id="path182" />
    <path
       d="M 288.932720,-282.263615 275.570072,-295.626263"
       style="stroke:#000000;fill:none"
       id="path184" />
    <path
       d="M 353.439794,-373.495984 275.570072,-295.626263"
       style="stroke:#000000;fill:none"
       id="path186" />
    <path
       d="M 366.802441,-360.133336 444.672162,-438.003057"
       style="stroke:#000000;fill:none"
       id="path188" />
    <path
       d="M 431.309515,-451.365705 458.034810,-478.091001"
       style="stroke:#000000;fill:none"
       id="path190" />
    <path
       d="M 55.323557,-48.654452 41.960909,-62.017100"
       style="stroke:#000000;fill:none"
       id="path192" />
    <path
       d="M 444.672162,-438.003057 431.309515,-451.365705"
       style="stroke:#000000;fill:none"
       id="path194" />
    <path
       d="M 353.439794,-373.495984 366.802441,-360.133336"
       style="stroke:#000000;fill:none"
       id="path196" />
    <path
       d="M 0.000000,627.702850 0.000000,589.907575"
       style="stroke:#000000;fill:none"
       id="path198" />
    <path
       d="M 18.897638,589.907575 18.897638,479.783159"
       style="stroke:#000000;fill:none"
       id="path200" />
    <path
       d="M 18.897638,479.783159 0.000000,479.783159"
       style="stroke:#000000;fill:none"
       id="path202" />
    <path
       d="M 0.000000,369.658743 0.000000,479.783159"
       style="stroke:#000000;fill:none"
       id="path204" />
    <path
       d="M 0.000000,369.658743 18.897638,369.658743"
       style="stroke:#000000;fill:none"
       id="path206" />
    <path
       d="M 18.897638,369.658743 18.897638,259.534328"
       style="stroke:#000000;fill:none"
       id="path208" />
    <path
       d="M 18.897638,259.534328 0.000000,259.534328"
       style="stroke:#000000;fill:none"
       id="path210" />
    <path
       d="M 0.000000,149.409912 0.000000,259.534328"
       style="stroke:#000000;fill:none"
       id="path212" />
    <path
       d="M 18.897638,149.409912 18.897638,39.285496"
       style="stroke:#000000;fill:none"
       id="path214" />
    <path
       d="M 0.000000,39.285496 0.000000,1.490221"
       style="stroke:#000000;fill:none"
       id="path216" />
    <path
       d="M 18.897638,589.907575 0.000000,589.907575"
       style="stroke:#000000;fill:none"
       id="path218" />
    <path
       d="M 18.897638,39.285496 0.000000,39.285496"
       style="stroke:#000000;fill:none"
       id="path220" />
    <path
       d="M 0.000000,149.409912 18.897638,149.409912"
       style="stroke:#000000;fill:none"
       id="path222" />
    <path
       d="M 458.034810,1107.284072 431.309515,1080.558776"
       style="stroke:#000000;fill:none"
       id="path224" />
    <path
       d="M 444.672162,1067.196128 366.802441,989.326407"
       style="stroke:#000000;fill:none"
       id="path226" />
    <path
       d="M 366.802441,989.326407 353.439794,1002.689055"
       style="stroke:#000000;fill:none"
       id="path228" />
    <path
       d="M 275.570072,924.819334 353.439794,1002.689055"
       style="stroke:#000000;fill:none"
       id="path230" />
    <path
       d="M 275.570072,924.819334 288.932720,911.456686"
       style="stroke:#000000;fill:none"
       id="path232" />
    <path
       d="M 288.932720,911.456686 211.062999,833.586965"
       style="stroke:#000000;fill:none"
       id="path234" />
    <path
       d="M 211.062999,833.586965 197.700351,846.949613"
       style="stroke:#000000;fill:none"
       id="path236" />
    <path
       d="M 119.830630,769.079892 197.700351,846.949613"
       style="stroke:#000000;fill:none"
       id="path238" />
    <path
       d="M 133.193278,755.717244 55.323557,677.847523"
       style="stroke:#000000;fill:none"
       id="path240" />
    <path
       d="M 41.960909,691.210170 15.235613,664.484875"
       style="stroke:#000000;fill:none"
       id="path242" />
    <path
       d="M 444.672162,1067.196128 431.309515,1080.558776"
       style="stroke:#000000;fill:none"
       id="path244" />
    <path
       d="M 55.323557,677.847523 41.960909,691.210170"
       style="stroke:#000000;fill:none"
       id="path246" />
    <path
       d="M 119.830630,769.079892 133.193278,755.717244"
       style="stroke:#000000;fill:none"
       id="path248" />
    <path
       d="M 1121.029464,1122.519685 1083.234189,1122.519685"
       style="stroke:#000000;fill:none"
       id="path250" />
    <path
       d="M 1083.234189,1103.622047 973.109773,1103.622047"
       style="stroke:#000000;fill:none"
       id="path252" />
    <path
       d="M 973.109773,1103.622047 973.109773,1122.519685"
       style="stroke:#000000;fill:none"
       id="path254" />
    <path
       d="M 862.985357,1122.519685 973.109773,1122.519685"
       style="stroke:#000000;fill:none"
       id="path256" />
    <path
       d="M 862.985357,1122.519685 862.985357,1103.622047"
       style="stroke:#000000;fill:none"
       id="path258" />
    <path
       d="M 862.985357,1103.622047 752.860942,1103.622047"
       style="stroke:#000000;fill:none"
       id="path260" />
    <path
       d="M 752.860942,1103.622047 752.860942,1122.519685"
       style="stroke:#000000;fill:none"
       id="path262" />
    <path
       d="M 642.736526,1122.519685 752.860942,1122.519685"
       style="stroke:#000000;fill:none"
       id="path264" />
    <path
       d="M 642.736526,1103.622047 532.612110,1103.622047"
       style="stroke:#000000;fill:none"
       id="path266" />
    <path
       d="M 532.612110,1122.519685 494.816835,1122.519685"
       style="stroke:#000000;fill:none"
       id="path268" />
    <path
       d="M 1083.234189,1103.622047 1083.234189,1122.519685"
       style="stroke:#000000;fill:none"
       id="path270" />
    <path
       d="M 532.612110,1103.622047 532.612110,1122.519685"
       style="stroke:#000000;fill:none"
       id="path272" />
    <path
       d="M 642.736526,1122.519685 642.736526,1103.622047"
       style="stroke:#000000;fill:none"
       id="path274" />
    <path
       d="M 1600.610686,664.484875 1573.885390,691.210170"
       style="stroke:#000000;fill:none"
       id="path276" />
    <path
       d="M 1560.522742,677.847523 1482.653021,755.717244"
       style="stroke:#000000;fill:none"
       id="path278" />
    <path
       d="M 1482.653021,755.717244 1496.015669,769.079892"
       style="stroke:#000000;fill:none"
       id="path280" />
    <path
       d="M 1418.145948,846.949613 1496.015669,769.079892"
       style="stroke:#000000;fill:none"
       id="path282" />
    <path
       d="M 1262.406506,1002.689055 1340.276227,924.819334"
       style="stroke:#000000;fill:none"
       id="path284" />
    <path
       d="M 1249.043858,989.326407 1171.174137,1067.196128"
       style="stroke:#000000;fill:none"
       id="path286" />
    <path
       d="M 1184.536785,1080.558776 1157.811489,1107.284072"
       style="stroke:#000000;fill:none"
       id="path288" />
    <path
       d="M 1560.522742,677.847523 1573.885390,691.210170"
       style="stroke:#000000;fill:none"
       id="path290" />
    <path
       d="M 1171.174137,1067.196128 1184.536785,1080.558776"
       style="stroke:#000000;fill:none"
       id="path292" />
    <path
       d="M 1262.406506,1002.689055 1249.043858,989.326407"
       style="stroke:#000000;fill:none"
       id="path294" />
    <path
       d="M 674.177277,49.666882 A 6.047244,6.047244 -0.000000 1 0 662.082789,49.666882 6.047244,6.047244 -0.000000 1 0 674.177277,49.666882 z"
       style="stroke:#000000;fill:none"
       id="path310" />
    <path
       d="M 949.985695,106.359795 A 6.047244,6.047244 -0.000000 1 0 937.891206,106.359795 6.047244,6.047244 -0.000000 1 0 949.985695,106.359795 z"
       style="stroke:#000000;fill:none"
       id="path312" />
    <path
       d="M 949.985695,268.879480 A 6.047244,6.047244 -0.000000 1 0 937.891206,268.879480 6.047244,6.047244 -0.000000 1 0 949.985695,268.879480 z"
       style="stroke:#000000;fill:none"
       id="path314" />
    <path
       d="M 674.177277,325.572394 A 6.047244,6.047244 -0.000000 1 0 662.082789,325.572394 6.047244,6.047244 -0.000000 1 0 674.177277,325.572394 z"
       style="stroke:#000000;fill:none"
       id="path316" />
    <path
       d="M 883.498901,788.969605 883.498901,773.851495"
       style="stroke:#000000;fill:none"
       id="path318" />
    <path
       d="M 1040.610235,399.678266 A 6.047244,6.047244 -0.000000 1 0 1028.515747,399.678266 6.047244,6.047244 -0.000000 1 0 1040.610235,399.678266 z"
       style="stroke:#000000;fill:none"
       id="path320" />
    <path
       d="M 851.750869,762.512912 A 6.047244,6.047244 -0.000000 1 0 839.656381,762.512912 6.047244,6.047244 -0.000000 1 0 851.750869,762.512912 z"
       style="stroke:#000000;fill:none"
       id="path322" />
    <path
       d="M 1129.183511,773.851486 A 18.897638,18.897638 0.0 0 1 1110.285873,792.749133 L 505.546145,792.749133 A 18.897638,18.897638 0.0 0 1 486.648507,773.851495 L 486.648507,460.150707 A 18.897638,18.897638 0.0 0 1 505.546145,441.253070 L 1110.285721,441.253070 A 18.897638,18.897638 0.0 0 1 1129.183359,460.150698 L 1129.183511,773.851486 z"
       style="stroke:#000000;fill:none"
       id="path324" />
    <path
       d="M 486.648507,460.150707 A 18.897638,18.897638 0.0 0 1 505.546145,441.253070 L 1110.270554,441.253070 A 18.897638,18.897638 0.0 0 1 1129.168192,460.150707 L 1129.168192,770.071967 A 18.897638,18.897638 0.0 0 1 1110.270554,788.969605 L 505.546145,788.969605 A 18.897638,18.897638 0.0 0 1 486.648507,770.071967 L 486.648507,460.150707 z"
       style="stroke:#000000;fill:none"
       id="path326" />
    <path
       d="M 732.317798,773.851495 732.317798,788.969605"
       style="stroke:#000000;fill:none"
       id="path328" />
    <path
       d="M 742.677165,713.379054 A 24.566929,24.566929 0.0 0 1 742.677165,664.245196 L 882.519685,664.245196 A 24.566929,24.566929 0.0 0 1 882.519685,713.379054 L 742.677165,713.379054 z"
       style="stroke:#000000;fill:none"
       id="path330" />
    <path
       d="M 883.498901,773.851495 732.317798,773.851495"
       style="stroke:#000000;fill:none"
       id="path332" />
    <path
       d="M 1040.610235,482.827873 A 6.047244,6.047244 -0.000000 1 0 1028.515747,482.827873 6.047244,6.047244 -0.000000 1 0 1040.610235,482.827873 z"
       style="stroke:#000000;fill:none"
       id="path334" />
    <path
       d="M 980.137794,399.678266 A 6.047244,6.047244 -0.000000 1 0 968.043306,399.678266 6.047244,6.047244 -0.000000 1 0 980.137794,399.678266 z"
       style="stroke:#000000;fill:none"
       id="path336" />
    <path
       d="M 776.160318,762.512912 A 6.047244,6.047244 -0.000000 1 0 764.065830,762.512912 6.047244,6.047244 -0.000000 1 0 776.160318,762.512912 z"
       style="stroke:#000000;fill:none"
       id="path338" />
    <path
       d="M 980.137794,482.827873 A 6.047244,6.047244 -0.000000 1 0 968.043306,482.827873 6.047244,6.047244 -0.000000 1 0 980.137794,482.827873 z"
       style="stroke:#000000;fill:none"
       id="path342" />
    <path
       d="M 1262.406506,1002.689055 1249.043858,989.326407"
       style="stroke:#000000;fill:none"
       id="path344" />
    <path
       d="M 1340.276227,924.819334 1326.913579,911.456686"
       style="stroke:#000000;fill:none"
       id="path346" />
    <path
       d="M 1418.145948,846.949613 1404.783300,833.586965"
       style="stroke:#000000;fill:none"
       id="path348" />
    <path
       d="M 1326.913579,911.456686 1404.783300,833.586965"
       style="stroke:#000000;fill:none"
       id="path350" />
    <path
       d="M 647.802994,399.678266 A 6.047244,6.047244 -0.000000 1 0 635.708505,399.678266 6.047244,6.047244 -0.000000 1 0 647.802994,399.678266 z"
       style="stroke:#000000;fill:none"
       id="path352" />
    <path
       d="M 587.330553,399.678266 A 6.047244,6.047244 -0.000000 1 0 575.236065,399.678266 6.047244,6.047244 -0.000000 1 0 587.330553,399.678266 z"
       style="stroke:#000000;fill:none"
       id="path354" />
    <path
       d="M 587.330553,482.827873 A 6.047244,6.047244 -0.000000 1 0 575.236065,482.827873 6.047244,6.047244 -0.000000 1 0 587.330553,482.827873 z"
       style="stroke:#000000;fill:none"
       id="path356" />
    <path
       d="M 647.802994,482.827873 A 6.047244,6.047244 -0.000000 1 0 635.708505,482.827873 6.047244,6.047244 -0.000000 1 0 647.802994,482.827873 z"
       style="stroke:#000000;fill:none"
       id="path358" />
  </g>
</svg>
