0
SECTION
2
HEADER
9
$INSUNITS
70
4
9
$ACADVER
1
AC1014
9
$HANDSEED
5
FFFF
0
ENDSEC
0
SECTION
2
TABLES
0
TABLE
2
VPORT
5
8
100
AcDbSymbolTable
0
ENDTAB
0
TABLE
2
LTYPE
5
5
100
AcDbSymbolTable
0
LTYPE
5
14
100
AcDbSymbolTableRecord
100
AcDbLinetypeTableRecord
2
BYBLOCK
70
0
0
LTYPE
5
15
100
AcDbSymbolTableRecord
100
AcDbLinetypeTableRecord
2
BYLAYER
70
0
0
ENDTAB
0
TABLE
2
LAYER
5
2
100
AcDbSymbolTable
70
2
0
LAYER
5
50
100
AcDbSymbolTableRecord
100
AcDbLayerTableRecord
2
0
70
0
6
CONTINUOUS
0
ENDTAB
0
TABLE
2
STYLE
5
3
100
AcDbSymbolTable
70
1
0
STYLE
5
11
100
AcDbSymbolTableRecord
100
AcDbTextStyleTableRecord
2
STANDARD
70
0
0
ENDTAB
0
TABLE
2
VIEW
5
6
100
AcDbSymbolTable
70
0
0
ENDTAB
0
TABLE
2
UCS
5
7
100
AcDbSymbolTable
70
0
0
ENDTAB
0
TABLE
2
APPID
5
9
100
AcDbSymbolTable
70
2
0
APPID
5
12
100
AcDbSymbolTableRecord
100
AcDbRegAppTableRecord
2
ACAD
70
0
0
ENDTAB
0
TABLE
2
DIMSTYLE
5
A
100
AcDbSymbolTable
70
1
0
ENDTAB
0
TABLE
2
BLOCK_RECORD
5
1
100
AcDbSymbolTable
70
1
0
BLOCK_RECORD
5
1F
100
AcDbSymbolTableRecord
100
AcDbBlockTableRecord
2
*MODEL_SPACE
0
BLOCK_RECORD
5
1B
100
AcDbSymbolTableRecord
100
AcDbBlockTableRecord
2
*PAPER_SPACE
0
ENDTAB
0
ENDSEC
0
SECTION
2
BLOCKS
0
BLOCK
5
20
100
AcDbEntity
100
AcDbBlockBegin
2
*MODEL_SPACE
0
ENDBLK
5
21
100
AcDbEntity
100
AcDbBlockEnd
0
BLOCK
5
1C
100
AcDbEntity
100
AcDbBlockBegin
2
*PAPER_SPACE
0
ENDBLK
5
1D
100
AcDbEntity
100
AcDbBlockEnd
0
ENDSEC
0
SECTION
2
ENTITIES
0
LWPOLYLINE
5
100
100
AcDbEntity
8
0
100
AcDbPolyline
90
28
70
1
43
0.0
10
0
20
5.0000000000000178
10
4.4408920985006262e-15
20
105.00000000000054
10
10.000000000000139
20
105.00000000000054
10
10.000000000000089
20
110.00000000000054
10
39.137084989849342
20
110.0000000000006
10
39.137084989847651
20
105.00000000000063
10
68.274169979695913
20
105.00000000000063
10
68.27416997969533
20
110.00000000000063
10
97.411254969545411
20
110.00000000000063
10
97.411254969543023
20
105.00000000000063
10
126.5483399593905
20
105.00000000000063
10
126.54833995939057
20
110.00000000000063
10
155.68542494923793
20
110.00000000000058
10
155.68542494923707
20
105.00000000000058
10
165.68542494923804
20
105.00000000000301
10
165.68542494923804
20
5.0000000000005969
10
155.68542494923804
20
5.0000000000005995
10
155.68542494923804
20
5.989182651054975e-13
10
126.54833995939043
20
5.9507954119908391e-13
10
126.54833995939043
20
5.0000000000005942
10
97.411254969542824
20
5.0000000000006031
10
97.411254969542881
20
6.0311207098985699e-13
10
68.274169979695287
20
0
10
68.274169979695287
20
4.9999999999999991
10
39.137084989847679
20
5
10
39.137084989847608
20
0
10
10.000000000000009
20
0
10
10.000000000000009
20
4.9999999999999956
0
CIRCLE
5
101
100
AcDbEntity
8
0
100
AcDbCircle
10
153.18542494923804
20
88.333333333333968
30
0
40
1.6000000000000003
210
0
220
0
230
1
0
LWPOLYLINE
5
102
100
AcDbEntity
8
0
100
AcDbPolyline
90
4
70
1
43
0.0
10
101.34271247461902
20
20
10
64.34271247461902
20
20
10
64.34271247461902
20
80
10
101.34271247461902
20
80
0
CIRCLE
5
103
100
AcDbEntity
8
0
100
AcDbCircle
10
82.84271247461902
20
86
30
0
40
1.6000000000000003
210
0
220
0
230
1
0
CIRCLE
5
104
100
AcDbEntity
8
0
100
AcDbCircle
10
82.84271247461902
20
14
30
0
40
1.6000000000000003
210
0
220
0
230
1
0
CIRCLE
5
105
100
AcDbEntity
8
0
100
AcDbCircle
10
12.5
20
88.333333333333968
30
0
40
1.6000000000000003
210
0
220
0
230
1
0
CIRCLE
5
106
100
AcDbEntity
8
0
100
AcDbCircle
10
153.18542494923804
20
55.000000000000625
30
0
40
1.6000000000000003
210
0
220
0
230
1
0
CIRCLE
5
107
100
AcDbEntity
8
0
100
AcDbCircle
10
12.5
20
55.000000000000625
30
0
40
1.6000000000000003
210
0
220
0
230
1
0
CIRCLE
5
108
100
AcDbEntity
8
0
100
AcDbCircle
10
153.18542494923804
20
21.66666666666729
30
0
40
1.6000000000000003
210
0
220
0
230
1
0
CIRCLE
5
109
100
AcDbEntity
8
0
100
AcDbCircle
10
12.5
20
21.66666666666729
30
0
40
1.6000000000000003
210
0
220
0
230
1
0
LWPOLYLINE
5
110
100
AcDbEntity
8
0
100
AcDbPolyline
90
4
70
1
43
0.0
10
98.34271247461902
20
51.5
10
72.34271247461902
20
51.5
10
72.34271247461902
20
58.500000000000007
10
98.34271247461902
20
58.500000000000007
0
ENDSEC
0
SECTION
2
OBJECTS
0
DICTIONARY
5
C
100
AcDbDictionary
3
ACAD_GROUP
350
D
3
ACAD_MLINESTYLE
350
17
0
DICTIONARY
5
D
100
AcDbDictionary
0
DICTIONARY
5
1A
330
C
100
AcDbDictionary
0
DICTIONARY
5
17
100
AcDbDictionary
0
ENDSEC
0
EOF
