0
SECTION
2
HEADER
9
$INSUNITS
70
4
9
$ACADVER
1
AC1014
9
$HANDSEED
5
FFFF
0
ENDSEC
0
SECTION
2
TABLES
0
TABLE
2
VPORT
5
8
100
AcDbSymbolTable
0
ENDTAB
0
TABLE
2
LTYPE
5
5
100
AcDbSymbolTable
0
LTYPE
5
14
100
AcDbSymbolTableRecord
100
AcDbLinetypeTableRecord
2
BYBLOCK
70
0
0
LTYPE
5
15
100
AcDbSymbolTableRecord
100
AcDbLinetypeTableRecord
2
BYLAYER
70
0
0
ENDTAB
0
TABLE
2
LAYER
5
2
100
AcDbSymbolTable
70
2
0
LAYER
5
50
100
AcDbSymbolTableRecord
100
AcDbLayerTableRecord
2
0
70
0
6
CONTINUOUS
0
ENDTAB
0
TABLE
2
STYLE
5
3
100
AcDbSymbolTable
70
1
0
STYLE
5
11
100
AcDbSymbolTableRecord
100
AcDbTextStyleTableRecord
2
STANDARD
70
0
0
ENDTAB
0
TABLE
2
VIEW
5
6
100
AcDbSymbolTable
70
0
0
ENDTAB
0
TABLE
2
UCS
5
7
100
AcDbSymbolTable
70
0
0
ENDTAB
0
TABLE
2
APPID
5
9
100
AcDbSymbolTable
70
2
0
APPID
5
12
100
AcDbSymbolTableRecord
100
AcDbRegAppTableRecord
2
ACAD
70
0
0
ENDTAB
0
TABLE
2
DIMSTYLE
5
A
100
AcDbSymbolTable
70
1
0
ENDTAB
0
TABLE
2
BLOCK_RECORD
5
1
100
AcDbSymbolTable
70
1
0
BLOCK_RECORD
5
1F
100
AcDbSymbolTableRecord
100
AcDbBlockTableRecord
2
*MODEL_SPACE
0
BLOCK_RECORD
5
1B
100
AcDbSymbolTableRecord
100
AcDbBlockTableRecord
2
*PAPER_SPACE
0
ENDTAB
0
ENDSEC
0
SECTION
2
BLOCKS
0
BLOCK
5
20
100
AcDbEntity
100
AcDbBlockBegin
2
*MODEL_SPACE
0
ENDBLK
5
21
100
AcDbEntity
100
AcDbBlockEnd
0
BLOCK
5
1C
100
AcDbEntity
100
AcDbBlockBegin
2
*PAPER_SPACE
0
ENDBLK
5
1D
100
AcDbEntity
100
AcDbBlockEnd
0
ENDSEC
0
SECTION
2
ENTITIES
0
LINE
5
100
100
AcDbEntity
8
0
100
AcDbLine
10
194.64848433013518
20
-174.69261005964552
30
0
11
189.64848433013
21
-174.69261005964455
31
0
0
LINE
5
101
100
AcDbEntity
8
0
100
AcDbLine
10
194.64848433012742
20
-211.19261005964572
30
0
11
194.64848433013518
21
-174.69261005964552
31
0
0
LINE
5
102
100
AcDbEntity
8
0
100
AcDbLine
10
189.64848433012864
20
-129.69261005963929
30
0
11
194.64848433014478
21
-129.69261005964194
31
0
0
LINE
5
103
100
AcDbEntity
8
0
100
AcDbLine
10
194.64848433014478
20
-129.69261005964194
30
0
11
194.64848433014606
21
-84.692610059636706
31
0
0
LINE
5
104
100
AcDbEntity
8
0
100
AcDbLine
10
-13.351515669885536
20
-3.1926100596314999
30
0
11
-13.351515669885538
21
-39.692610059630645
31
0
0
LINE
5
105
100
AcDbEntity
8
0
100
AcDbLine
10
158.14848433013174
20
-8.192610059314811
30
0
11
113.14848433012996
21
-8.192610059314811
31
0
0
LINE
5
106
100
AcDbEntity
8
0
100
AcDbLine
10
189.64848433012591
20
-39.692610059634504
30
0
11
194.64848433012878
21
-39.692610059634617
31
0
0
LINE
5
107
100
AcDbEntity
8
0
100
AcDbLine
10
68.148484330135915
20
-3.1926100596314999
30
0
11
68.148484330129207
21
-8.1926100593139335
31
0
0
LINE
5
108
100
AcDbEntity
8
0
100
AcDbLine
10
113.14848433011758
20
-211.1926100596462
30
0
11
113.14848433011869
21
-206.19261005963168
31
0
0
LINE
5
109
100
AcDbEntity
8
0
100
AcDbLine
10
68.148484330117583
20
-211.19261005964418
30
0
11
113.14848433011758
21
-211.1926100596462
31
0
0
LINE
5
110
100
AcDbEntity
8
0
100
AcDbLine
10
23.148484330135666
20
-8.1926100593130524
30
0
11
23.148484330130863
21
-3.1926100596314999
31
0
0
LINE
5
111
100
AcDbEntity
8
0
100
AcDbLine
10
23.148484330116126
20
-211.19261005964216
30
0
11
23.148484330115018
21
-206.1926100596325
31
0
0
LINE
5
112
100
AcDbEntity
8
0
100
AcDbLine
10
68.148484330114982
20
-206.19261005963139
30
0
11
68.148484330117583
21
-211.19261005964418
31
0
0
LINE
5
113
100
AcDbEntity
8
0
100
AcDbLine
10
189.64848433013
20
-174.69261005964455
30
0
11
189.64848433012864
21
-129.69261005963929
31
0
0
LINE
5
114
100
AcDbEntity
8
0
100
AcDbLine
10
194.64848433014836
20
-3.192610059633989
30
0
11
158.14848433013168
21
-3.1926100593244837
31
0
0
LINE
5
115
100
AcDbEntity
8
0
100
AcDbLine
10
194.64848433014606
20
-84.692610059636706
30
0
11
189.64848433012469
21
-84.692610059634433
31
0
0
LINE
5
116
100
AcDbEntity
8
0
100
AcDbLine
10
113.14848433011869
20
-206.19261005963168
30
0
11
158.14848433012745
21
-206.19261005963196
31
0
0
LINE
5
117
100
AcDbEntity
8
0
100
AcDbLine
10
-13.351515669885385
20
-84.692610059631505
30
0
11
-13.351515669885545
21
-129.69261005963151
31
0
0
LINE
5
118
100
AcDbEntity
8
0
100
AcDbLine
10
189.64848433012469
20
-84.692610059634433
30
0
11
189.64848433012591
21
-39.692610059634504
31
0
0
LINE
5
119
100
AcDbEntity
8
0
100
AcDbLine
10
158.14848433012739
20
-211.19261005964597
30
0
11
194.64848433012742
21
-211.19261005964572
31
0
0
LINE
5
120
100
AcDbEntity
8
0
100
AcDbLine
10
194.64848433012878
20
-39.692610059634617
30
0
11
194.64848433014836
21
-3.192610059633989
31
0
0
LINE
5
121
100
AcDbEntity
8
0
100
AcDbLine
10
158.14848433012745
20
-206.19261005963196
30
0
11
158.14848433012739
21
-211.19261005964597
31
0
0
LINE
5
122
100
AcDbEntity
8
0
100
AcDbLine
10
158.14848433013168
20
-3.1926100593244837
30
0
11
158.14848433013174
21
-8.192610059314811
31
0
0
LINE
5
123
100
AcDbEntity
8
0
100
AcDbLine
10
113.14848433012943
20
-3.1926100596314999
30
0
11
68.148484330135915
21
-3.1926100596314999
31
0
0
LINE
5
124
100
AcDbEntity
8
0
100
AcDbLine
10
68.148484330129207
20
-8.1926100593139335
30
0
11
23.148484330135666
21
-8.1926100593130524
31
0
0
LINE
5
125
100
AcDbEntity
8
0
100
AcDbLine
10
113.14848433012996
20
-8.192610059314811
30
0
11
113.14848433012943
21
-3.1926100596314999
31
0
0
LINE
5
126
100
AcDbEntity
8
0
100
AcDbLine
10
23.148484330115018
20
-206.1926100596325
30
0
11
68.148484330114982
21
-206.19261005963139
31
0
0
LINE
5
127
100
AcDbEntity
8
0
100
AcDbLine
10
-13.351515669885545
20
-129.69261005963151
30
0
11
-8.3515156698081991
21
-129.69261005963168
31
0
0
LINE
5
128
100
AcDbEntity
8
0
100
AcDbLine
10
-8.3515156698449999
20
-84.692610059631505
30
0
11
-13.351515669885385
21
-84.692610059631505
31
0
0
LINE
5
129
100
AcDbEntity
8
0
100
AcDbLine
10
-13.351515669885538
20
-39.692610059630645
30
0
11
-8.3515156698817972
21
-39.692610059631505
31
0
0
LINE
5
130
100
AcDbEntity
8
0
100
AcDbLine
10
-13.3515156698839
20
-211.19261005964256
30
0
11
23.148484330116126
21
-211.19261005964216
31
0
0
LINE
5
131
100
AcDbEntity
8
0
100
AcDbLine
10
-8.3515156698083253
20
-174.69261005962244
30
0
11
-13.351515669885705
21
-174.69261005962281
31
0
0
LINE
5
132
100
AcDbEntity
8
0
100
AcDbLine
10
-13.351515669885705
20
-174.69261005962281
30
0
11
-13.351515669885883
21
-211.19261005962383
31
0
0
LINE
5
133
100
AcDbEntity
8
0
100
AcDbLine
10
23.148484330130863
20
-3.1926100596314999
30
0
11
-13.351515669885536
21
-3.1926100596314999
31
0
0
LINE
5
134
100
AcDbEntity
8
0
100
AcDbLine
10
-8.3515156698817972
20
-39.692610059631505
30
0
11
-8.3515156698449999
21
-84.692610059631505
31
0
0
LINE
5
135
100
AcDbEntity
8
0
100
AcDbLine
10
-8.3515156698081991
20
-129.69261005963168
30
0
11
-8.3515156698083253
21
-174.69261005962244
31
0
0
LINE
5
136
100
AcDbEntity
8
0
100
AcDbLine
10
294.64848433011463
20
-8.1926100596252986
30
0
11
261.31515099678904
21
-8.1926100596251992
31
0
0
LINE
5
137
100
AcDbEntity
8
0
100
AcDbLine
10
261.31515099678904
20
-8.1926100596251992
30
0
11
261.31515099678899
21
-3.1926100596251983
31
0
0
LINE
5
138
100
AcDbEntity
8
0
100
AcDbLine
10
294.64848433011463
20
-206.19261005962539
30
0
11
294.64848433011463
21
-8.1926100596252986
31
0
0
LINE
5
139
100
AcDbEntity
8
0
100
AcDbLine
10
227.98181766344771
20
-211.19261005962545
30
0
11
261.31515099678109
21
-211.19261005962579
31
0
0
LINE
5
140
100
AcDbEntity
8
0
100
AcDbLine
10
261.31515099678114
20
-206.19261005962585
30
0
11
294.64848433011463
21
-206.19261005962539
31
0
0
LINE
5
141
100
AcDbEntity
8
0
100
AcDbLine
10
261.31515099678109
20
-211.19261005962579
30
0
11
261.31515099678114
21
-206.19261005962585
31
0
0
LINE
5
142
100
AcDbEntity
8
0
100
AcDbLine
10
194.64848433011451
20
-206.19261005962673
30
0
11
227.98181766344777
21
-206.19261005962636
31
0
0
LINE
5
143
100
AcDbEntity
8
0
100
AcDbLine
10
261.31515099678899
20
-3.1926100596251983
30
0
11
227.98181766346349
21
-3.1926100596233371
31
0
0
LINE
5
144
100
AcDbEntity
8
0
100
AcDbLine
10
227.98181766346349
20
-8.1926100596250997
30
0
11
194.64848433013796
21
-8.1926100596250038
31
0
0
LINE
5
145
100
AcDbEntity
8
0
100
AcDbLine
10
194.64848433013796
20
-8.1926100596250038
30
0
11
194.64848433014836
21
-3.192610059633989
31
0
0
LINE
5
146
100
AcDbEntity
8
0
100
AcDbLine
10
227.98181766346349
20
-3.1926100596233371
30
0
11
227.98181766346349
21
-8.1926100596250997
31
0
0
LINE
5
147
100
AcDbEntity
8
0
100
AcDbLine
10
227.98181766344777
20
-206.19261005962636
30
0
11
227.98181766344771
21
-211.19261005962545
31
0
0
LINE
5
148
100
AcDbEntity
8
0
100
AcDbLine
10
194.6484843301144
20
-211.19261005962588
30
0
11
194.64848433011451
21
-206.19261005962673
31
0
0
LINE
5
149
100
AcDbEntity
8
0
100
AcDbLine
10
189.64848433012864
20
-129.69261005963929
30
0
11
194.64848433012776
21
-129.69261005964603
31
0
0
LINE
5
150
100
AcDbEntity
8
0
100
AcDbLine
10
194.64848433012776
20
-129.69261005964603
30
0
11
194.64848433013518
21
-174.69261005964552
31
0
0
LINE
5
151
100
AcDbEntity
8
0
100
AcDbLine
10
194.64848433013518
20
-174.69261005964552
30
0
11
189.64848433012904
21
-174.69261005964552
31
0
0
LINE
5
152
100
AcDbEntity
8
0
100
AcDbLine
10
189.64848433012904
20
-174.69261005964552
30
0
11
189.64848433012864
21
-129.69261005963929
31
0
0
LINE
5
153
100
AcDbEntity
8
0
100
AcDbLine
10
189.64848433012591
20
-39.692610059634504
30
0
11
194.64848433014589
21
-39.692610059634504
31
0
0
LINE
5
154
100
AcDbEntity
8
0
100
AcDbLine
10
194.64848433014589
20
-39.692610059634504
30
0
11
194.64848433014606
21
-84.692610059636706
31
0
0
LINE
5
155
100
AcDbEntity
8
0
100
AcDbLine
10
194.64848433014606
20
-84.692610059636706
30
0
11
189.64848433012878
21
-84.69261005963719
31
0
0
LINE
5
156
100
AcDbEntity
8
0
100
AcDbLine
10
189.64848433012878
20
-84.69261005963719
30
0
11
189.64848433012591
21
-39.692610059634504
31
0
0
CIRCLE
5
157
100
AcDbEntity
8
0
100
AcDbCircle
10
0.38834494720871859
20
-190.78689292609906
30
0
40
1.4999999999999989
210
0
220
0
230
1
0
LWPOLYLINE
5
158
100
AcDbEntity
8
0
100
AcDbPolyline
90
4
70
1
43
0.0
10
91.353344947208726
20
-108.75689292609906
10
-4.8466550527912826
20
-108.75689292609906
10
-4.8466550527912844
20
-199.15689292609903
10
91.353344947208726
20
-199.15689292609903
0
LWPOLYLINE
5
159
100
AcDbEntity
8
0
100
AcDbPolyline
90
4
70
1
43
0.0
10
86.118344947208726
20
-190.78689292609906
10
0.38834494720871859
20
-190.78689292609906
10
0.38834494720871859
20
-117.12689292609906
10
86.118344947208726
20
-117.12689292609906
0
CIRCLE
5
160
100
AcDbEntity
8
0
100
AcDbCircle
10
86.118344947208726
20
-190.78689292609906
30
0
40
1.4999999999999989
210
0
220
0
230
1
0
CIRCLE
5
161
100
AcDbEntity
8
0
100
AcDbCircle
10
0.38834494720871859
20
-117.12689292609906
30
0
40
1.4999999999999989
210
0
220
0
230
1
0
CIRCLE
5
162
100
AcDbEntity
8
0
100
AcDbCircle
10
86.118344947208726
20
-117.12689292609906
30
0
40
1.4999999999999989
210
0
220
0
230
1
0
LWPOLYLINE
5
163
100
AcDbEntity
8
0
100
AcDbPolyline
90
4
70
1
43
0.0
10
164.34145210607866
20
-57.014510942662149
10
98.341452106078663
20
-57.014510942662149
10
98.341452106078663
20
-100.01451094266216
10
164.34145210607866
20
-100.01451094266216
0
LINE
5
164
100
AcDbEntity
8
0
100
AcDbLine
10
167.34145210607866
20
-78.514510942662156
30
0
11
95.341452106078663
21
-78.514510942662113
31
0
0
CIRCLE
5
165
100
AcDbEntity
8
0
100
AcDbCircle
10
95.341452106078663
20
-78.514510942662113
30
0
40
1.4999999999999882
210
0
220
0
230
1
0
CIRCLE
5
166
100
AcDbEntity
8
0
100
AcDbCircle
10
167.34145210607866
20
-78.514510942662156
30
0
40
1.5000000000000009
210
0
220
0
230
1
0
LWPOLYLINE
5
167
100
AcDbEntity
8
0
100
AcDbPolyline
90
4
70
1
43
0.0
10
78.011753712098198
20
-56.830648624023681
10
12.011753712098177
20
-56.830648624023681
10
12.011753712098177
20
-99.830648624023695
10
78.011753712098198
20
-99.830648624023695
0
LINE
5
168
100
AcDbEntity
8
0
100
AcDbLine
10
81.011753712098198
20
-78.330648624023695
30
0
11
9.0117537120981765
21
-78.330648624023681
31
0
0
CIRCLE
5
169
100
AcDbEntity
8
0
100
AcDbCircle
10
81.011753712098198
20
-78.330648624023695
30
0
40
1.5000000000000009
210
0
220
0
230
1
0
CIRCLE
5
170
100
AcDbEntity
8
0
100
AcDbCircle
10
9.0117537120981765
20
-78.330648624023681
30
0
40
1.4999999999999882
210
0
220
0
230
1
0
ENDSEC
0
SECTION
2
OBJECTS
0
DICTIONARY
5
C
100
AcDbDictionary
3
ACAD_GROUP
350
D
3
ACAD_MLINESTYLE
350
17
0
DICTIONARY
5
D
100
AcDbDictionary
0
DICTIONARY
5
1A
330
C
100
AcDbDictionary
0
DICTIONARY
5
17
100
AcDbDictionary
0
ENDSEC
0
EOF
