0
SECTION
2
HEADER
9
$INSUNITS
70
4
9
$ACADVER
1
AC1014
9
$HANDSEED
5
FFFF
0
ENDSEC
0
SECTION
2
TABLES
0
TABLE
2
VPORT
5
8
100
AcDbSymbolTable
0
ENDTAB
0
TABLE
2
LTYPE
5
5
100
AcDbSymbolTable
0
LTYPE
5
14
100
AcDbSymbolTableRecord
100
AcDbLinetypeTableRecord
2
BYBLOCK
70
0
0
LTYPE
5
15
100
AcDbSymbolTableRecord
100
AcDbLinetypeTableRecord
2
BYLAYER
70
0
0
ENDTAB
0
TABLE
2
LAYER
5
2
100
AcDbSymbolTable
70
2
0
LAYER
5
50
100
AcDbSymbolTableRecord
100
AcDbLayerTableRecord
2
0
70
0
6
CONTINUOUS
0
ENDTAB
0
TABLE
2
STYLE
5
3
100
AcDbSymbolTable
70
1
0
STYLE
5
11
100
AcDbSymbolTableRecord
100
AcDbTextStyleTableRecord
2
STANDARD
70
0
0
ENDTAB
0
TABLE
2
VIEW
5
6
100
AcDbSymbolTable
70
0
0
ENDTAB
0
TABLE
2
UCS
5
7
100
AcDbSymbolTable
70
0
0
ENDTAB
0
TABLE
2
APPID
5
9
100
AcDbSymbolTable
70
2
0
APPID
5
12
100
AcDbSymbolTableRecord
100
AcDbRegAppTableRecord
2
ACAD
70
0
0
ENDTAB
0
TABLE
2
DIMSTYLE
5
A
100
AcDbSymbolTable
70
1
0
ENDTAB
0
TABLE
2
BLOCK_RECORD
5
1
100
AcDbSymbolTable
70
1
0
BLOCK_RECORD
5
1F
100
AcDbSymbolTableRecord
100
AcDbBlockTableRecord
2
*MODEL_SPACE
0
BLOCK_RECORD
5
1B
100
AcDbSymbolTableRecord
100
AcDbBlockTableRecord
2
*PAPER_SPACE
0
ENDTAB
0
ENDSEC
0
SECTION
2
BLOCKS
0
BLOCK
5
20
100
AcDbEntity
100
AcDbBlockBegin
2
*MODEL_SPACE
0
ENDBLK
5
21
100
AcDbEntity
100
AcDbBlockEnd
0
BLOCK
5
1C
100
AcDbEntity
100
AcDbBlockBegin
2
*PAPER_SPACE
0
ENDBLK
5
1D
100
AcDbEntity
100
AcDbBlockEnd
0
ENDSEC
0
SECTION
2
ENTITIES
0
LINE
5
100
100
AcDbEntity
8
0
100
AcDbLine
10
13.460350392020018
20
-352.36363255770749
30
0
11
8.4603503920193059
21
-352.36363255770561
31
0
0
LINE
5
101
100
AcDbEntity
8
0
100
AcDbLine
10
283.12701704971124
20
-307.3636325575269
30
0
11
283.12701704971585
21
-312.36363255752741
31
0
0
LINE
5
102
100
AcDbEntity
8
0
100
AcDbLine
10
44.960350391995973
20
-417.36363237768387
30
0
11
89.960350391995973
21
-417.36363237765266
31
0
0
LINE
5
103
100
AcDbEntity
8
0
100
AcDbLine
10
249.79368371637665
20
-307.36363255756021
30
0
11
216.46035038304345
21
-307.36363255759363
31
0
0
LWPOLYLINE
5
104
100
AcDbEntity
8
0
100
AcDbPolyline
90
4
70
1
43
0.0
10
216.46035038313613
20
-332.3636315287485
10
211.46035208755862
20
-332.36363152881864
10
211.46035208966853
20
-352.3636318961162
10
216.46035038307488
20
-352.36363189613542
0
LWPOLYLINE
5
105
100
AcDbEntity
8
0
100
AcDbPolyline
90
4
70
1
43
0.0
10
216.46035038304416
20
-392.36363189623296
10
216.46034867648757
20
-372.36363189621636
10
211.46035038308125
20
-372.36363189621716
10
211.46035038311024
20
-392.36363226351472
0
LINE
5
106
100
AcDbEntity
8
0
100
AcDbLine
10
8.4603503920114811
20
-372.36363255770539
30
0
11
13.46035039201241
21
-372.3636325577113
31
0
0
LINE
5
107
100
AcDbEntity
8
0
100
AcDbLine
10
179.96035038304763
20
-312.36363255761324
30
0
11
179.96035038305087
21
-307.36363255773904
31
0
0
LINE
5
108
100
AcDbEntity
8
0
100
AcDbLine
10
134.96035038597688
20
-307.36363255772142
30
0
11
134.96035038597921
21
-312.3636325576374
31
0
0
LINE
5
109
100
AcDbEntity
8
0
100
AcDbLine
10
44.960350391900299
20
-307.363632557686
30
0
11
44.960350391902246
21
-312.363632557686
31
0
0
LINE
5
110
100
AcDbEntity
8
0
100
AcDbLine
10
134.96035039199515
20
-417.36363243333238
30
0
11
179.96035039199515
21
-417.36363248901205
31
0
0
LINE
5
111
100
AcDbEntity
8
0
100
AcDbLine
10
89.96035038890524
20
-312.36363255766173
30
0
11
89.960350388906832
21
-307.36363255770368
31
0
0
LINE
5
112
100
AcDbEntity
8
0
100
AcDbLine
10
44.960350391995831
20
-412.36363255770692
30
0
11
44.960350391995973
21
-417.36363237768387
31
0
0
LINE
5
113
100
AcDbEntity
8
0
100
AcDbLine
10
89.960350388906832
20
-307.36363255770368
30
0
11
44.960350391900299
21
-307.363632557686
31
0
0
LINE
5
114
100
AcDbEntity
8
0
100
AcDbLine
10
134.96035038597921
20
-312.3636325576374
30
0
11
89.96035038890524
21
-312.36363255766173
31
0
0
LINE
5
115
100
AcDbEntity
8
0
100
AcDbLine
10
13.460350392027628
20
-332.3636325577076
30
0
11
13.460350392020018
21
-352.36363255770749
31
0
0
LINE
5
116
100
AcDbEntity
8
0
100
AcDbLine
10
8.4603503920193059
20
-352.36363255770561
30
0
11
8.4603503920114811
21
-372.36363255770539
31
0
0
LINE
5
117
100
AcDbEntity
8
0
100
AcDbLine
10
179.96035038305087
20
-307.36363255773904
30
0
11
134.96035038597688
21
-307.36363255772142
31
0
0
LINE
5
118
100
AcDbEntity
8
0
100
AcDbLine
10
179.96035039199515
20
-417.36363248901205
30
0
11
179.96035039831565
21
-412.36363248901205
31
0
0
LINE
5
119
100
AcDbEntity
8
0
100
AcDbLine
10
8.4603503920036616
20
-392.3636325577109
30
0
11
8.4603503919958385
21
-412.36363255771073
31
0
0
LINE
5
120
100
AcDbEntity
8
0
100
AcDbLine
10
8.4603503919958385
20
-412.36363255771073
30
0
11
44.960350391995831
21
-412.36363255770692
31
0
0
LINE
5
121
100
AcDbEntity
8
0
100
AcDbLine
10
13.46035039201241
20
-372.3636325577113
30
0
11
13.4603503920048
21
-392.36363255771118
31
0
0
LINE
5
122
100
AcDbEntity
8
0
100
AcDbLine
10
89.960350391995973
20
-417.36363237765266
30
0
11
89.960350391995405
21
-412.36363255770209
31
0
0
LINE
5
123
100
AcDbEntity
8
0
100
AcDbLine
10
283.12701704971585
20
-312.36363255752741
30
0
11
249.79368371638245
21
-312.36363255756021
31
0
0
LINE
5
124
100
AcDbEntity
8
0
100
AcDbLine
10
216.46035038304345
20
-307.36363255759363
30
0
11
216.46035038304771
21
-312.36363255759363
31
0
0
LINE
5
125
100
AcDbEntity
8
0
100
AcDbLine
10
179.96035039831565
20
-412.36363248901205
30
0
11
216.4603503983156
21
-412.36363243330072
31
0
0
LINE
5
126
100
AcDbEntity
8
0
100
AcDbLine
10
249.79368371638245
20
-312.36363255756021
30
0
11
249.79368371637665
21
-307.36363255756021
31
0
0
LINE
5
127
100
AcDbEntity
8
0
100
AcDbLine
10
216.46035038304771
20
-312.36363255759363
30
0
11
179.96035038304763
21
-312.36363255761324
31
0
0
LINE
5
128
100
AcDbEntity
8
0
100
AcDbLine
10
316.46035038301363
20
-317.36363255749359
30
0
11
316.46035038304456
21
-307.36363255749359
31
0
0
LINE
5
129
100
AcDbEntity
8
0
100
AcDbLine
10
316.46035038304456
20
-307.36363255749359
30
0
11
283.12701704971124
21
-307.3636325575269
31
0
0
LINE
5
130
100
AcDbEntity
8
0
100
AcDbLine
10
13.4603503920048
20
-392.36363255771118
30
0
11
8.4603503920036616
21
-392.3636325577109
31
0
0
LINE
5
131
100
AcDbEntity
8
0
100
AcDbLine
10
8.4603503920349539
20
-312.36363255770573
30
0
11
8.460350392027129
21
-332.36363255770573
31
0
0
LINE
5
132
100
AcDbEntity
8
0
100
AcDbLine
10
8.460350392027129
20
-332.36363255770573
30
0
11
13.460350392027628
21
-332.3636325577076
31
0
0
LINE
5
133
100
AcDbEntity
8
0
100
AcDbLine
10
44.960350391902246
20
-312.363632557686
30
0
11
8.4603503920349539
21
-312.36363255770573
31
0
0
LINE
5
134
100
AcDbEntity
8
0
100
AcDbLine
10
89.960350391995405
20
-412.36363255770209
30
0
11
134.96035039199541
21
-412.36363255769726
31
0
0
LINE
5
135
100
AcDbEntity
8
0
100
AcDbLine
10
134.96035039199541
20
-412.36363255769726
30
0
11
134.96035039199515
21
-417.36363243333238
31
0
0
LINE
5
136
100
AcDbEntity
8
0
100
AcDbLine
10
216.46035038304771
20
-312.36363255759363
30
0
11
216.4603503830437
21
-402.36363255759358
31
0
0
LINE
5
137
100
AcDbEntity
8
0
100
AcDbLine
10
316.46035038301363
20
-317.36363255749359
30
0
11
216.4603503830437
21
-402.36363255759358
31
0
0
LINE
5
138
100
AcDbEntity
8
0
100
AcDbLine
10
316.46035038301363
20
-317.36363255749359
30
0
11
313.22210828239082
21
-313.55393596881959
31
0
0
LINE
5
139
100
AcDbEntity
8
0
100
AcDbLine
10
313.22210828239082
20
-313.55393596881959
30
0
11
294.17362533840867
21
-329.74514647121305
31
0
0
LINE
5
140
100
AcDbEntity
8
0
100
AcDbLine
10
294.17362533840867
20
-329.74514647121305
30
0
11
297.41186743890421
21
-333.55484306003541
31
0
0
LINE
5
141
100
AcDbEntity
8
0
100
AcDbLine
10
278.3633844950283
20
-349.74605356251658
30
0
11
275.12514239452111
21
-345.93635697370411
31
0
0
LINE
5
142
100
AcDbEntity
8
0
100
AcDbLine
10
275.12514239452111
20
-345.93635697370411
30
0
11
256.07665945053253
21
-362.12756747608933
31
0
0
LINE
5
143
100
AcDbEntity
8
0
100
AcDbLine
10
256.07665945053253
20
-362.12756747608933
30
0
11
259.31490155089898
21
-365.93726406474894
31
0
0
LINE
5
144
100
AcDbEntity
8
0
100
AcDbLine
10
240.26641860686999
20
-382.12847456729151
30
0
11
237.02817650645247
21
-378.31877797867543
31
0
0
LINE
5
145
100
AcDbEntity
8
0
100
AcDbLine
10
237.02817650645247
20
-378.31877797867543
30
0
11
216.46035038304404
21
-395.80143018360394
31
0
0
LINE
5
146
100
AcDbEntity
8
0
100
AcDbLine
10
216.46035038304404
20
-395.80143018360394
30
0
11
216.4603503830437
21
-402.36363255759358
31
0
0
LINE
5
147
100
AcDbEntity
8
0
100
AcDbLine
10
240.26641860686999
20
-382.12847456729151
30
0
11
259.31490155089898
21
-365.93726406474894
31
0
0
LINE
5
148
100
AcDbEntity
8
0
100
AcDbLine
10
278.3633844950283
20
-349.74605356251658
30
0
11
297.41186743890421
21
-333.55484306003541
31
0
0
LINE
5
149
100
AcDbEntity
8
0
100
AcDbLine
10
216.4603503983156
20
-412.36363243330072
30
0
11
216.4603503830437
21
-402.36363255759358
31
0
0
CIRCLE
5
150
100
AcDbEntity
8
0
100
AcDbCircle
10
139.10981261261963
20
-356.07908839152594
30
0
40
2
210
0
220
0
230
1
0
CIRCLE
5
151
100
AcDbEntity
8
0
100
AcDbCircle
10
179.23177594380854
20
-385.24050225426208
30
0
40
2
210
0
220
0
230
1
0
CIRCLE
5
152
100
AcDbEntity
8
0
100
AcDbCircle
10
159.17079427821437
20
-370.65979532289407
30
0
40
14.500000000000002
210
0
220
0
230
1
0
LINE
5
153
100
AcDbEntity
8
0
100
AcDbLine
10
139.10981261261963
20
-356.07908839152594
30
0
11
179.23177594380854
21
-385.24050225426208
31
0
0
CIRCLE
5
154
100
AcDbEntity
8
0
100
AcDbCircle
10
73.419433072779285
20
-329.93986078500654
30
0
40
2
210
0
220
0
230
1
0
CIRCLE
5
155
100
AcDbEntity
8
0
100
AcDbCircle
10
73.419433072779285
20
-367.93986078500654
30
0
40
2
210
0
220
0
230
1
0
LWPOLYLINE
5
156
100
AcDbEntity
8
0
100
AcDbPolyline
90
4
70
1
43
0.0
10
35.41943307277927
20
-367.93986078500654
10
35.41943307277927
20
-329.93986078500649
10
73.41943307277927
20
-329.93986078500632
10
73.41943307277927
20
-367.93986078500654
0
CIRCLE
5
157
100
AcDbEntity
8
0
100
AcDbCircle
10
35.41943307277927
20
-367.93986078500654
30
0
40
2
210
0
220
0
230
1
0
CIRCLE
5
158
100
AcDbEntity
8
0
100
AcDbCircle
10
35.41943307277927
20
-329.93986078500654
30
0
40
2
210
0
220
0
230
1
0
LWPOLYLINE
5
159
100
AcDbEntity
8
0
100
AcDbPolyline
90
4
70
1
43
0.0
10
29.419433072779277
20
-373.93986078500643
10
79.41943307277927
20
-373.93986078500643
10
79.41943307277927
20
-323.93986078500643
10
29.419433072779277
20
-323.93986078500643
0
CIRCLE
5
160
100
AcDbEntity
8
0
100
AcDbCircle
10
54.419433072779277
20
-348.93986078500643
30
0
40
19.999999999999986
210
0
220
0
230
1
0
LINE
5
161
100
AcDbEntity
8
0
100
AcDbLine
10
214.10013613143602
20
-412.36363243690323
30
0
11
214.10013466230475
21
-392.36363206960573
31
0
0
LINE
5
162
100
AcDbEntity
8
0
100
AcDbLine
10
214.43650921626772
20
-372.36363189621665
30
0
11
214.43650921633375
21
-352.36363189619993
31
0
0
ENDSEC
0
SECTION
2
OBJECTS
0
DICTIONARY
5
C
100
AcDbDictionary
3
ACAD_GROUP
350
D
3
ACAD_MLINESTYLE
350
17
0
DICTIONARY
5
D
100
AcDbDictionary
0
DICTIONARY
5
1A
330
C
100
AcDbDictionary
0
DICTIONARY
5
17
100
AcDbDictionary
0
ENDSEC
0
EOF
