0
SECTION
2
HEADER
9
$INSUNITS
70
4
9
$ACADVER
1
AC1014
9
$HANDSEED
5
FFFF
0
ENDSEC
0
SECTION
2
TABLES
0
TABLE
2
VPORT
5
8
100
AcDbSymbolTable
0
ENDTAB
0
TABLE
2
LTYPE
5
5
100
AcDbSymbolTable
0
LTYPE
5
14
100
AcDbSymbolTableRecord
100
AcDbLinetypeTableRecord
2
BYBLOCK
70
0
0
LTYPE
5
15
100
AcDbSymbolTableRecord
100
AcDbLinetypeTableRecord
2
BYLAYER
70
0
0
ENDTAB
0
TABLE
2
LAYER
5
2
100
AcDbSymbolTable
70
2
0
LAYER
5
50
100
AcDbSymbolTableRecord
100
AcDbLayerTableRecord
2
0
70
0
6
CONTINUOUS
0
ENDTAB
0
TABLE
2
STYLE
5
3
100
AcDbSymbolTable
70
1
0
STYLE
5
11
100
AcDbSymbolTableRecord
100
AcDbTextStyleTableRecord
2
STANDARD
70
0
0
ENDTAB
0
TABLE
2
VIEW
5
6
100
AcDbSymbolTable
70
0
0
ENDTAB
0
TABLE
2
UCS
5
7
100
AcDbSymbolTable
70
0
0
ENDTAB
0
TABLE
2
APPID
5
9
100
AcDbSymbolTable
70
2
0
APPID
5
12
100
AcDbSymbolTableRecord
100
AcDbRegAppTableRecord
2
ACAD
70
0
0
ENDTAB
0
TABLE
2
DIMSTYLE
5
A
100
AcDbSymbolTable
70
1
0
ENDTAB
0
TABLE
2
BLOCK_RECORD
5
1
100
AcDbSymbolTable
70
1
0
BLOCK_RECORD
5
1F
100
AcDbSymbolTableRecord
100
AcDbBlockTableRecord
2
*MODEL_SPACE
0
BLOCK_RECORD
5
1B
100
AcDbSymbolTableRecord
100
AcDbBlockTableRecord
2
*PAPER_SPACE
0
ENDTAB
0
ENDSEC
0
SECTION
2
BLOCKS
0
BLOCK
5
20
100
AcDbEntity
100
AcDbBlockBegin
2
*MODEL_SPACE
0
ENDBLK
5
21
100
AcDbEntity
100
AcDbBlockEnd
0
BLOCK
5
1C
100
AcDbEntity
100
AcDbBlockBegin
2
*PAPER_SPACE
0
ENDBLK
5
1D
100
AcDbEntity
100
AcDbBlockEnd
0
ENDSEC
0
SECTION
2
ENTITIES
0
LINE
5
100
100
AcDbEntity
8
0
100
AcDbLine
10
368.21300121006448
20
-0.29261005942906815
30
0
11
348.21300121006567
21
-0.29261005942878171
31
0
0
LINE
5
101
100
AcDbEntity
8
0
100
AcDbLine
10
368.21300121006539
20
4.7073899405708444
30
0
11
368.21300121006448
21
-0.29261005942906815
31
0
0
LINE
5
102
100
AcDbEntity
8
0
100
AcDbLine
10
388.21300121006516
20
4.7073899405705584
30
0
11
368.21300121006539
21
4.7073899405708444
31
0
0
LINE
5
103
100
AcDbEntity
8
0
100
AcDbLine
10
448.21300121006539
20
-0.29261005942956997
30
0
11
428.21300121006539
21
-0.29261006004312545
31
0
0
LINE
5
104
100
AcDbEntity
8
0
100
AcDbLine
10
428.21300121021869
20
4.707389939956875
30
0
11
408.21300121021869
21
4.7073899405702733
31
0
0
LINE
5
105
100
AcDbEntity
8
0
100
AcDbLine
10
428.21300121006539
20
-0.29261006004312545
30
0
11
428.21300121021869
21
4.707389939956875
31
0
0
LINE
5
106
100
AcDbEntity
8
0
100
AcDbLine
10
343.2130012100655
20
-31.792610059428679
30
0
11
343.21300121006402
21
-76.792610059425982
31
0
0
LINE
5
107
100
AcDbEntity
8
0
100
AcDbLine
10
348.21300121006146
20
-76.792610059426067
30
0
11
348.21300121006118
21
-121.79261005941723
31
0
0
LINE
5
108
100
AcDbEntity
8
0
100
AcDbLine
10
343.21300121006402
20
-76.792610059425982
30
0
11
348.21300121006146
21
-76.792610059426067
31
0
0
LINE
5
109
100
AcDbEntity
8
0
100
AcDbLine
10
453.21300121007255
20
-76.792610059551578
30
0
11
453.21300121007374
21
-31.792610059552025
31
0
0
LINE
5
110
100
AcDbEntity
8
0
100
AcDbLine
10
448.2130012100655
20
-76.792610059551421
30
0
11
453.21300121007255
21
-76.792610059551578
31
0
0
LINE
5
111
100
AcDbEntity
8
0
100
AcDbLine
10
453.21300121004992
20
-166.79261005954254
30
0
11
453.21300121006124
21
-121.79261005955135
31
0
0
LINE
5
112
100
AcDbEntity
8
0
100
AcDbLine
10
453.21300121006124
20
-121.79261005955135
30
0
11
448.21300121006431
21
-121.79261005954992
31
0
0
LINE
5
113
100
AcDbEntity
8
0
100
AcDbLine
10
453.21300121007374
20
-31.792610059552025
30
0
11
448.21300121006584
21
-31.792610059551855
31
0
0
LINE
5
114
100
AcDbEntity
8
0
100
AcDbLine
10
448.21300121006431
20
-121.79261005954992
30
0
11
448.2130012100655
21
-76.792610059551421
31
0
0
LINE
5
115
100
AcDbEntity
8
0
100
AcDbLine
10
448.21300121005066
20
-166.79261005954132
30
0
11
453.21300121004992
21
-166.79261005954254
31
0
0
LINE
5
116
100
AcDbEntity
8
0
100
AcDbLine
10
448.21300121004367
20
-198.29261005954129
30
0
11
448.21300121005066
21
-166.79261005954132
31
0
0
LINE
5
117
100
AcDbEntity
8
0
100
AcDbLine
10
428.21300121005311
20
-198.29261005954027
30
0
11
448.21300121004367
21
-198.29261005954129
31
0
0
LINE
5
118
100
AcDbEntity
8
0
100
AcDbLine
10
348.2130012100173
20
-198.29261005953001
30
0
11
368.2130012100173
21
-198.29261005942209
31
0
0
LINE
5
119
100
AcDbEntity
8
0
100
AcDbLine
10
348.2130012100601
20
-166.79261005940859
30
0
11
348.21300121005999
21
-198.29261005940839
31
0
0
LINE
5
120
100
AcDbEntity
8
0
100
AcDbLine
10
343.21300121006186
20
-166.79261005940839
30
0
11
348.2130012100601
21
-166.79261005940859
31
0
0
LINE
5
121
100
AcDbEntity
8
0
100
AcDbLine
10
388.21300121004367
20
-198.29261005953114
30
0
11
408.21300121004305
21
-198.29261005953171
31
0
0
LINE
5
122
100
AcDbEntity
8
0
100
AcDbLine
10
428.21300121004214
20
-204.29261005952975
30
0
11
428.21300121005311
21
-198.29261005954027
31
0
0
LINE
5
123
100
AcDbEntity
8
0
100
AcDbLine
10
408.21300121005243
20
-204.29261005952975
30
0
11
428.21300121004214
21
-204.29261005952975
31
0
0
LINE
5
124
100
AcDbEntity
8
0
100
AcDbLine
10
408.21300121021869
20
4.7073899405702733
30
0
11
408.21300121006539
21
-0.29261005942956997
31
0
0
LINE
5
125
100
AcDbEntity
8
0
100
AcDbLine
10
348.21300121006567
20
-0.29261005942878171
30
0
11
348.21300121006436
21
-31.792610059428767
31
0
0
LINE
5
126
100
AcDbEntity
8
0
100
AcDbLine
10
408.21300121004305
20
-198.29261005953171
30
0
11
408.21300121005243
21
-204.29261005952975
31
0
0
LWPOLYLINE
5
127
100
AcDbEntity
8
0
100
AcDbPolyline
90
4
70
1
43
0.0
10
374.28409251657877
20
-119.2539773572621
10
374.28409251657877
20
-79.253977357262102
10
354.28409251657877
20
-79.253977357262102
10
354.28409251657877
20
-119.2539773572621
0
LINE
5
128
100
AcDbEntity
8
0
100
AcDbLine
10
408.21300121006539
20
-0.29261005942956997
30
0
11
388.21300121006527
21
-0.29261005942956997
31
0
0
LINE
5
129
100
AcDbEntity
8
0
100
AcDbLine
10
388.21300121006527
20
-0.29261005942956997
30
0
11
388.21300121006516
21
4.7073899405705584
31
0
0
LINE
5
130
100
AcDbEntity
8
0
100
AcDbLine
10
343.2130012100634
20
-121.79261005941717
30
0
11
343.21300121006186
21
-166.79261005940839
31
0
0
LINE
5
131
100
AcDbEntity
8
0
100
AcDbLine
10
348.21300121006118
20
-121.79261005941723
30
0
11
343.2130012100634
21
-121.79261005941717
31
0
0
LINE
5
132
100
AcDbEntity
8
0
100
AcDbLine
10
348.21300121006436
20
-31.792610059428767
30
0
11
343.2130012100655
21
-31.792610059428679
31
0
0
LINE
5
133
100
AcDbEntity
8
0
100
AcDbLine
10
448.21300121006584
20
-31.792610059551855
30
0
11
448.21300121006539
21
-0.29261005942956997
31
0
0
LINE
5
134
100
AcDbEntity
8
0
100
AcDbLine
10
368.2130012100173
20
-198.29261005942209
30
0
11
368.21300121004424
21
-203.29261005942209
31
0
0
LINE
5
135
100
AcDbEntity
8
0
100
AcDbLine
10
368.21300121004424
20
-203.29261005942209
30
0
11
388.21300121004356
21
-203.29261005931414
31
0
0
LINE
5
136
100
AcDbEntity
8
0
100
AcDbLine
10
388.21300121004356
20
-203.29261005931414
30
0
11
388.21300121004367
21
-198.29261005953114
31
0
0
ENDSEC
0
SECTION
2
OBJECTS
0
DICTIONARY
5
C
100
AcDbDictionary
3
ACAD_GROUP
350
D
3
ACAD_MLINESTYLE
350
17
0
DICTIONARY
5
D
100
AcDbDictionary
0
DICTIONARY
5
1A
330
C
100
AcDbDictionary
0
DICTIONARY
5
17
100
AcDbDictionary
0
ENDSEC
0
EOF
