0
SECTION
2
HEADER
9
$INSUNITS
70
4
9
$ACADVER
1
AC1014
9
$HANDSEED
5
FFFF
0
ENDSEC
0
SECTION
2
TABLES
0
TABLE
2
VPORT
5
8
100
AcDbSymbolTable
0
ENDTAB
0
TABLE
2
LTYPE
5
5
100
AcDbSymbolTable
0
LTYPE
5
14
100
AcDbSymbolTableRecord
100
AcDbLinetypeTableRecord
2
BYBLOCK
70
0
0
LTYPE
5
15
100
AcDbSymbolTableRecord
100
AcDbLinetypeTableRecord
2
BYLAYER
70
0
0
ENDTAB
0
TABLE
2
LAYER
5
2
100
AcDbSymbolTable
70
2
0
LAYER
5
50
100
AcDbSymbolTableRecord
100
AcDbLayerTableRecord
2
0
70
0
6
CONTINUOUS
0
ENDTAB
0
TABLE
2
STYLE
5
3
100
AcDbSymbolTable
70
1
0
STYLE
5
11
100
AcDbSymbolTableRecord
100
AcDbTextStyleTableRecord
2
STANDARD
70
0
0
ENDTAB
0
TABLE
2
VIEW
5
6
100
AcDbSymbolTable
70
0
0
ENDTAB
0
TABLE
2
UCS
5
7
100
AcDbSymbolTable
70
0
0
ENDTAB
0
TABLE
2
APPID
5
9
100
AcDbSymbolTable
70
2
0
APPID
5
12
100
AcDbSymbolTableRecord
100
AcDbRegAppTableRecord
2
ACAD
70
0
0
ENDTAB
0
TABLE
2
DIMSTYLE
5
A
100
AcDbSymbolTable
70
1
0
ENDTAB
0
TABLE
2
BLOCK_RECORD
5
1
100
AcDbSymbolTable
70
1
0
BLOCK_RECORD
5
1F
100
AcDbSymbolTableRecord
100
AcDbBlockTableRecord
2
*MODEL_SPACE
0
BLOCK_RECORD
5
1B
100
AcDbSymbolTableRecord
100
AcDbBlockTableRecord
2
*PAPER_SPACE
0
ENDTAB
0
ENDSEC
0
SECTION
2
BLOCKS
0
BLOCK
5
20
100
AcDbEntity
100
AcDbBlockBegin
2
*MODEL_SPACE
0
ENDBLK
5
21
100
AcDbEntity
100
AcDbBlockEnd
0
BLOCK
5
1C
100
AcDbEntity
100
AcDbBlockBegin
2
*PAPER_SPACE
0
ENDBLK
5
1D
100
AcDbEntity
100
AcDbBlockEnd
0
ENDSEC
0
SECTION
2
ENTITIES
0
LINE
5
100
100
AcDbEntity
8
0
100
AcDbLine
10
-181.78699879006012
20
-173.79261005071243
30
0
11
-176.78699879004523
21
-173.79261005071075
31
0
0
LINE
5
101
100
AcDbEntity
8
0
100
AcDbLine
10
-176.78699879004458
20
-83.79261005070984
30
0
11
-176.78699879004486
21
-128.79261005071268
31
0
0
LINE
5
102
100
AcDbEntity
8
0
100
AcDbLine
10
-116.78699879006589
20
-205.29261005071152
30
0
11
-116.78699879006493
21
-210.29261005267108
31
0
0
LINE
5
103
100
AcDbEntity
8
0
100
AcDbLine
10
-116.78699879006493
20
-210.29261005267108
30
0
11
-96.786998790064928
21
-210.29261005267108
31
0
0
LWPOLYLINE
5
104
100
AcDbEntity
8
0
100
AcDbPolyline
90
4
70
1
43
0.0
10
-134.01780494812758
20
-168.69040659510219
10
-94.017804948127576
20
-168.69040659510219
10
-94.017804948127576
20
-138.69040659510219
10
-134.01780494812758
20
-138.69040659510219
0
LINE
5
105
100
AcDbEntity
8
0
100
AcDbLine
10
-176.78699879004486
20
-128.79261005071268
30
0
11
-181.78699879005862
21
-128.79261005071248
31
0
0
LINE
5
106
100
AcDbEntity
8
0
100
AcDbLine
10
-76.786998790039377
20
-128.79261005070984
30
0
11
-76.786998790038211
21
-83.79261005070984
31
0
0
LINE
5
107
100
AcDbEntity
8
0
100
AcDbLine
10
-156.78699879055611
20
-210.29261005071038
30
0
11
-136.78699879055611
21
-210.29261005267108
31
0
0
LINE
5
108
100
AcDbEntity
8
0
100
AcDbLine
10
-76.786998790037245
20
-7.2926100507061964
30
0
11
-96.786998790037188
21
-7.292610051289266
31
0
0
LINE
5
109
100
AcDbEntity
8
0
100
AcDbLine
10
-136.78699879003756
20
-2.2926100509966578
30
0
11
-156.78699879003727
21
-2.2926100509955076
31
0
0
LINE
5
110
100
AcDbEntity
8
0
100
AcDbLine
10
-181.7869987900514
20
-83.792610050705036
30
0
11
-176.78699879004458
21
-83.79261005070984
31
0
0
LINE
5
111
100
AcDbEntity
8
0
100
AcDbLine
10
-71.786998790033579
20
-38.792610050706358
30
0
11
-76.786998790036989
21
-38.792610050706195
31
0
0
LINE
5
112
100
AcDbEntity
8
0
100
AcDbLine
10
-181.78699879004421
20
-38.792610050705044
30
0
11
-181.7869987900514
21
-83.792610050705036
31
0
0
LINE
5
113
100
AcDbEntity
8
0
100
AcDbLine
10
-71.786998790034772
20
-83.792610050706344
30
0
11
-71.786998790033579
21
-38.792610050706358
31
0
0
LINE
5
114
100
AcDbEntity
8
0
100
AcDbLine
10
-136.78699879055611
20
-210.29261005267108
30
0
11
-136.78699879006578
21
-205.29261005071095
31
0
0
LINE
5
115
100
AcDbEntity
8
0
100
AcDbLine
10
-71.786998790056515
20
-173.79261005071692
30
0
11
-71.786998790045743
21
-128.79261005071692
31
0
0
LINE
5
116
100
AcDbEntity
8
0
100
AcDbLine
10
-96.786998790064928
20
-210.29261005267108
30
0
11
-96.786998790064004
21
-205.29261005071635
31
0
0
LINE
5
117
100
AcDbEntity
8
0
100
AcDbLine
10
-96.786998790064004
20
-205.29261005071635
30
0
11
-76.786998790064089
21
-205.29261005072118
31
0
0
LINE
5
118
100
AcDbEntity
8
0
100
AcDbLine
10
-71.786998790045743
20
-128.79261005071692
30
0
11
-76.786998790039377
21
-128.79261005070984
31
0
0
LINE
5
119
100
AcDbEntity
8
0
100
AcDbLine
10
-136.78699879006578
20
-205.29261005071095
30
0
11
-116.78699879006589
21
-205.29261005071152
31
0
0
LINE
5
120
100
AcDbEntity
8
0
100
AcDbLine
10
-176.78699879004523
20
-173.79261005071075
30
0
11
-176.78699879004537
21
-205.29261005071064
31
0
0
LINE
5
121
100
AcDbEntity
8
0
100
AcDbLine
10
-76.786998790064089
20
-205.29261005072118
30
0
11
-76.786998790056543
21
-173.79261005072118
31
0
0
LINE
5
122
100
AcDbEntity
8
0
100
AcDbLine
10
-76.786998790056543
20
-173.79261005072118
30
0
11
-71.786998790056515
21
-173.79261005071692
31
0
0
LINE
5
123
100
AcDbEntity
8
0
100
AcDbLine
10
-181.78699879005862
20
-128.79261005071248
30
0
11
-181.78699879006012
21
-173.79261005071243
31
0
0
LINE
5
124
100
AcDbEntity
8
0
100
AcDbLine
10
-156.78699879006575
20
-205.29261005071038
30
0
11
-156.78699879055611
21
-210.29261005071038
31
0
0
LINE
5
125
100
AcDbEntity
8
0
100
AcDbLine
10
-176.78699879006572
20
-205.29261004874886
30
0
11
-156.78699879006575
21
-205.29261005071038
31
0
0
LINE
5
126
100
AcDbEntity
8
0
100
AcDbLine
10
-96.786998790037188
20
-7.292610051289266
30
0
11
-96.786998789964386
21
-2.2926100512892655
31
0
0
LINE
5
127
100
AcDbEntity
8
0
100
AcDbLine
10
-76.786998790036989
20
-38.792610050706195
30
0
11
-76.786998790037245
21
-7.2926100507061964
31
0
0
LINE
5
128
100
AcDbEntity
8
0
100
AcDbLine
10
-176.78699879003648
20
-7.2926100507055569
30
0
11
-176.78699879003955
21
-38.792610050705647
31
0
0
LINE
5
129
100
AcDbEntity
8
0
100
AcDbLine
10
-76.786998790038211
20
-83.79261005070984
30
0
11
-71.786998790034772
21
-83.792610050706344
31
0
0
LINE
5
130
100
AcDbEntity
8
0
100
AcDbLine
10
-136.7869987900377
20
-7.2926100507061964
30
0
11
-136.78699879003756
21
-2.2926100509966578
31
0
0
LINE
5
131
100
AcDbEntity
8
0
100
AcDbLine
10
-116.78699878996454
20
-2.292610050997808
30
0
11
-116.78699879003776
21
-7.2926100507061964
31
0
0
LINE
5
132
100
AcDbEntity
8
0
100
AcDbLine
10
-156.78699879003727
20
-2.2926100509955076
30
0
11
-156.7869987900383
21
-7.2926100507057701
31
0
0
LINE
5
133
100
AcDbEntity
8
0
100
AcDbLine
10
-116.78699879003776
20
-7.2926100507061964
30
0
11
-136.7869987900377
21
-7.2926100507061964
31
0
0
LINE
5
134
100
AcDbEntity
8
0
100
AcDbLine
10
-156.7869987900383
20
-7.2926100507057701
30
0
11
-176.78699879003648
21
-7.2926100507055569
31
0
0
LINE
5
135
100
AcDbEntity
8
0
100
AcDbLine
10
-96.786998789964386
20
-2.2926100512892655
30
0
11
-116.78699878996454
21
-2.292610050997808
31
0
0
LINE
5
136
100
AcDbEntity
8
0
100
AcDbLine
10
-176.78699879003955
20
-38.792610050705647
30
0
11
-181.78699879004421
21
-38.792610050705044
31
0
0
ENDSEC
0
SECTION
2
OBJECTS
0
DICTIONARY
5
C
100
AcDbDictionary
3
ACAD_GROUP
350
D
3
ACAD_MLINESTYLE
350
17
0
DICTIONARY
5
D
100
AcDbDictionary
0
DICTIONARY
5
1A
330
C
100
AcDbDictionary
0
DICTIONARY
5
17
100
AcDbDictionary
0
ENDSEC
0
EOF
