0
SECTION
2
HEADER
9
$INSUNITS
70
4
9
$ACADVER
1
AC1014
9
$HANDSEED
5
FFFF
0
ENDSEC
0
SECTION
2
TABLES
0
TABLE
2
VPORT
5
8
100
AcDbSymbolTable
0
ENDTAB
0
TABLE
2
LTYPE
5
5
100
AcDbSymbolTable
0
LTYPE
5
14
100
AcDbSymbolTableRecord
100
AcDbLinetypeTableRecord
2
BYBLOCK
70
0
0
LTYPE
5
15
100
AcDbSymbolTableRecord
100
AcDbLinetypeTableRecord
2
BYLAYER
70
0
0
ENDTAB
0
TABLE
2
LAYER
5
2
100
AcDbSymbolTable
70
2
0
LAYER
5
50
100
AcDbSymbolTableRecord
100
AcDbLayerTableRecord
2
0
70
0
6
CONTINUOUS
0
ENDTAB
0
TABLE
2
STYLE
5
3
100
AcDbSymbolTable
70
1
0
STYLE
5
11
100
AcDbSymbolTableRecord
100
AcDbTextStyleTableRecord
2
STANDARD
70
0
0
ENDTAB
0
TABLE
2
VIEW
5
6
100
AcDbSymbolTable
70
0
0
ENDTAB
0
TABLE
2
UCS
5
7
100
AcDbSymbolTable
70
0
0
ENDTAB
0
TABLE
2
APPID
5
9
100
AcDbSymbolTable
70
2
0
APPID
5
12
100
AcDbSymbolTableRecord
100
AcDbRegAppTableRecord
2
ACAD
70
0
0
ENDTAB
0
TABLE
2
DIMSTYLE
5
A
100
AcDbSymbolTable
70
1
0
ENDTAB
0
TABLE
2
BLOCK_RECORD
5
1
100
AcDbSymbolTable
70
1
0
BLOCK_RECORD
5
1F
100
AcDbSymbolTableRecord
100
AcDbBlockTableRecord
2
*MODEL_SPACE
0
BLOCK_RECORD
5
1B
100
AcDbSymbolTableRecord
100
AcDbBlockTableRecord
2
*PAPER_SPACE
0
ENDTAB
0
ENDSEC
0
SECTION
2
BLOCKS
0
BLOCK
5
20
100
AcDbEntity
100
AcDbBlockBegin
2
*MODEL_SPACE
0
ENDBLK
5
21
100
AcDbEntity
100
AcDbBlockEnd
0
BLOCK
5
1C
100
AcDbEntity
100
AcDbBlockBegin
2
*PAPER_SPACE
0
ENDBLK
5
1D
100
AcDbEntity
100
AcDbBlockEnd
0
ENDSEC
0
SECTION
2
ENTITIES
0
LINE
5
100
100
AcDbEntity
8
0
100
AcDbLine
10
273.93805377132196
20
114.18987385252193
30
-9.7314606551498454e-16
11
293.0098544604549
21
98.026136089437045
31
9.7314606551498651e-16
0
LINE
5
101
100
AcDbEntity
8
0
100
AcDbLine
10
175.28383534277924
20
176.86683414177278
30
-8.5922417154631567e-15
11
211.78383534274769
21
176.86683414177276
31
-8.5922417154546732e-15
0
LINE
5
102
100
AcDbEntity
8
0
100
AcDbLine
10
175.28383534277748
20
181.86683414177278
30
-9.3270297949515707e-15
11
175.28383534277924
21
176.86683414177278
31
-8.5922417154631567e-15
0
LINE
5
103
100
AcDbEntity
8
0
100
AcDbLine
10
289.77710690782732
20
94.211775951595911
30
1.5403512008426309e-15
11
293.0098544604549
21
98.026136089437045
31
9.7314606551498651e-16
0
LINE
5
104
100
AcDbEntity
8
0
100
AcDbLine
10
40.283835342759254
20
76.866834141946541
30
3.6542262760282827e-15
11
3.7838353427646734
21
76.866834141958108
31
3.6542262760300828e-15
0
LINE
5
105
100
AcDbEntity
8
0
100
AcDbLine
10
130.28383534276495
20
71.866834141953149
30
4.3890143555297831e-15
11
130.28383534276858
21
76.866834141935641
31
3.6542262760239581e-15
0
LINE
5
106
100
AcDbEntity
8
0
100
AcDbLine
10
40.283835342763076
20
181.86683414192188
30
-9.3270297949465236e-15
11
85.283835342763041
21
181.86683414177278
31
-9.327029794944706e-15
0
LINE
5
107
100
AcDbEntity
8
0
100
AcDbLine
10
312.08165514959092
20
81.862398326349265
30
2.9194381965449595e-15
11
311.78383534276429
21
71.866834142039224
31
4.3890143555217864e-15
0
LINE
5
108
100
AcDbEntity
8
0
100
AcDbLine
10
175.28383534276134
20
71.86683414195025
30
4.3890143555232648e-15
11
130.28383534276495
21
71.866834141953149
31
4.3890143555297831e-15
0
LINE
5
109
100
AcDbEntity
8
0
100
AcDbLine
10
308.84890759697447
20
78.048038188521232
30
3.4866433318726039e-15
11
289.77710690782732
21
94.211775951595911
31
1.5403512008426309e-15
0
LINE
5
110
100
AcDbEntity
8
0
100
AcDbLine
10
245.11716867609636
20
76.86683414206172
30
3.6542262760262908e-15
11
245.11716867608686
21
71.866834142050934
31
4.3890143555147119e-15
0
LINE
5
111
100
AcDbEntity
8
0
100
AcDbLine
10
273.93805377132196
20
114.18987385252193
30
-9.7314606551498454e-16
11
270.70530621869432
21
110.37551371467418
31
-4.059409301873145e-16
0
LINE
5
112
100
AcDbEntity
8
0
100
AcDbLine
10
130.28383534274977
20
176.86683414177281
30
-8.5922417154557524e-15
11
130.28383534278214
21
181.86683414177278
31
-9.327029794944583e-15
0
LWPOLYLINE
5
113
100
AcDbEntity
8
0
100
AcDbPolyline
90
4
70
1
43
0.0
10
211.7838353427411
20
96.866834141772259
10
206.7838353427411
20
96.866834141772244
10
206.7838353427411
20
116.86683414177227
10
211.7838353427411
20
116.86683414177227
0
LINE
5
114
100
AcDbEntity
8
0
100
AcDbLine
10
311.78383534276429
20
71.866834142039323
30
4.3890143555217864e-15
11
278.45050200943103
21
71.866834142048987
31
4.3890143555182539e-15
0
LINE
5
115
100
AcDbEntity
8
0
100
AcDbLine
10
245.11716867608686
20
71.866834142050934
30
4.3890143555147119e-15
11
211.78383534273178
21
71.866834141923079
31
4.3890143555111794e-15
0
LINE
5
116
100
AcDbEntity
8
0
100
AcDbLine
10
312.08165514959092
20
81.862398326349265
30
2.9194381965449595e-15
11
308.84890759697447
21
78.048038188521232
31
3.4866433318726039e-15
0
LINE
5
117
100
AcDbEntity
8
0
100
AcDbLine
10
211.78383534273223
20
76.866834141927839
30
3.6542262760200327e-15
11
175.28383534274724
21
76.866834141921643
31
3.6542262760218179e-15
0
LINE
5
118
100
AcDbEntity
8
0
100
AcDbLine
10
278.45050200943297
20
76.866834142067432
30
3.6542262760304142e-15
11
245.11716867609636
21
76.86683414206172
31
3.6542262760262908e-15
0
LINE
5
119
100
AcDbEntity
8
0
100
AcDbLine
10
40.283835342757627
20
71.866834141946526
30
4.3890143555166959e-15
11
40.283835342759254
21
76.866834141946541
31
3.6542262760282827e-15
0
LINE
5
120
100
AcDbEntity
8
0
100
AcDbLine
10
270.70530621869432
20
110.37551371467418
30
-4.059409301873145e-16
11
251.63350552955566
21
126.53925147775892
31
-2.3522330612172954e-15
0
LINE
5
121
100
AcDbEntity
8
0
100
AcDbLine
10
85.283835342750237
20
176.86683414181473
30
-8.5922417154563693e-15
11
130.28383534274977
21
176.86683414177281
31
-8.5922417154557524e-15
0
LINE
5
122
100
AcDbEntity
8
0
100
AcDbLine
10
85.283835342763098
20
71.866834141951102
30
4.3890143555188889e-15
11
40.283835342757627
21
71.866834141946526
31
4.3890143555166959e-15
0
LINE
5
123
100
AcDbEntity
8
0
100
AcDbLine
10
130.28383534278214
20
181.86683414177278
30
-9.327029794944583e-15
11
175.28383534277748
21
181.86683414177278
31
-9.3270297949515707e-15
0
LINE
5
124
100
AcDbEntity
8
0
100
AcDbLine
10
211.78383534273178
20
71.866834141923079
30
4.3890143555111794e-15
11
211.78383534273223
21
76.866834141927839
31
3.6542262760200327e-15
0
LINE
5
125
100
AcDbEntity
8
0
100
AcDbLine
10
278.45050200943103
20
71.866834142048987
30
4.3890143555182539e-15
11
278.45050200943297
21
76.866834142067432
31
3.6542262760304142e-15
0
LINE
5
126
100
AcDbEntity
8
0
100
AcDbLine
10
85.283835342763211
20
76.86683414194394
30
3.6542262760260975e-15
11
85.283835342763098
21
71.866834141951102
31
4.3890143555188889e-15
0
LINE
5
127
100
AcDbEntity
8
0
100
AcDbLine
10
211.78383534274769
20
176.86683414177276
30
-8.5922417154546732e-15
11
211.78383534275218
21
166.86683414192768
31
-7.3675949163061464e-15
0
LINE
5
128
100
AcDbEntity
8
0
100
AcDbLine
10
211.78383534274553
20
136.86683414177227
30
-3.6936545188651387e-15
11
211.78383534274553
21
156.8668341417723
31
-6.1429481171599671e-15
0
LINE
5
129
100
AcDbEntity
8
0
100
AcDbLine
10
3.7838353427688602
20
116.86683414195355
30
-1.2443609205589293e-15
11
3.7838353427745459
21
136.86683414195355
31
-3.6936545188536348e-15
0
LINE
5
130
100
AcDbEntity
8
0
100
AcDbLine
10
251.63350552955566
20
126.53925147775892
30
-2.3522330612172954e-15
11
254.86625308218709
21
130.35361161560897
31
-2.9194381965449662e-15
0
LINE
5
131
100
AcDbEntity
8
0
100
AcDbLine
10
232.56170484042102
20
142.70298924085236
30
-4.2985251922472676e-15
11
211.78383534275073
21
160.31265490955437
31
-6.4157108656685424e-15
0
LINE
5
132
100
AcDbEntity
8
0
100
AcDbLine
10
206.7838353427457
20
156.86683414177233
30
-6.1429481711349536e-15
11
206.78383534274553
21
136.8668341417723
31
-3.693654518865261e-15
0
LINE
5
133
100
AcDbEntity
8
0
100
AcDbLine
10
211.78383534274553
20
156.8668341417723
30
-6.1429481171599671e-15
11
206.78383534274553
21
156.8668341417723
31
-6.1429481171600279e-15
0
LINE
5
134
100
AcDbEntity
8
0
100
AcDbLine
10
8.7838353427674711
20
96.866834141952609
30
1.2049326777347078e-15
11
8.783835342742309
21
116.86683414195261
31
-1.2443609205592162e-15
0
LINE
5
135
100
AcDbEntity
8
0
100
AcDbLine
10
3.7838353427674725
20
96.866834141958108
30
1.2049326777349937e-15
11
8.7838353427674711
21
96.866834141952609
31
1.2049326777347078e-15
0
LINE
5
136
100
AcDbEntity
8
0
100
AcDbLine
10
206.78383534274553
20
136.8668341417723
30
-3.693654518865261e-15
11
211.78383534274553
21
136.86683414177227
31
-3.6936545188651387e-15
0
LINE
5
137
100
AcDbEntity
8
0
100
AcDbLine
10
8.783835342742309
20
116.86683414195261
30
-1.2443609205592162e-15
11
3.7838353427688602
21
116.86683414195355
31
-1.2443609205589293e-15
0
LINE
5
138
100
AcDbEntity
8
0
100
AcDbLine
10
206.78383534274553
20
136.8668341417723
30
-3.693654518865261e-15
11
211.78383534277339
21
136.86683414177071
31
-3.6936545188651821e-15
0
LINE
5
139
100
AcDbEntity
8
0
100
AcDbLine
10
3.7838353427745459
20
136.86683414195355
30
-3.6936545188536348e-15
11
8.783835342743556
21
136.86683414195528
31
-3.6936545188545049e-15
0
LINE
5
140
100
AcDbEntity
8
0
100
AcDbLine
10
3.7838353427646734
20
76.866834141958108
30
3.6542262760300828e-15
11
3.7838353427674725
21
96.866834141958108
31
1.2049326777349937e-15
0
LINE
5
141
100
AcDbEntity
8
0
100
AcDbLine
10
211.78383534273223
20
76.866834141927839
30
3.6542262760200327e-15
11
211.78383534275218
21
166.86683414192768
31
-7.3675949163061464e-15
0
LINE
5
142
100
AcDbEntity
8
0
100
AcDbLine
10
211.78383534274553
20
156.8668341417723
30
-6.1429481171599671e-15
11
206.7838353427457
21
156.86683414177233
31
-6.1429481711349536e-15
0
LINE
5
143
100
AcDbEntity
8
0
100
AcDbLine
10
312.08165514959092
20
81.862398326349265
30
2.9194381965449595e-15
11
211.78383534275218
21
166.86683414192768
31
-7.3675949163061464e-15
0
LINE
5
144
100
AcDbEntity
8
0
100
AcDbLine
10
206.78383534274553
20
156.8668341417723
30
-6.1429481171600279e-15
11
206.78383534274553
21
136.8668341417723
31
-3.693654518865261e-15
0
LINE
5
145
100
AcDbEntity
8
0
100
AcDbLine
10
130.28383534276858
20
76.866834141935641
30
3.6542262760239581e-15
11
85.283835342763211
21
76.86683414194394
31
3.6542262760260975e-15
0
LINE
5
146
100
AcDbEntity
8
0
100
AcDbLine
10
175.28383534274724
20
76.866834141921643
30
3.6542262760218179e-15
11
175.28383534276134
21
71.86683414195025
31
4.3890143555232648e-15
0
LINE
5
147
100
AcDbEntity
8
0
100
AcDbLine
10
235.79445239305099
20
146.51734937869651
30
-4.8657303275749471e-15
11
254.86625308218709
21
130.35361161560897
31
-2.9194381965449662e-15
0
LINE
5
148
100
AcDbEntity
8
0
100
AcDbLine
10
8.783835342743556
20
136.86683414195528
30
-3.6936545188545049e-15
11
8.7838353427459772
21
156.86683414195531
31
-6.1429481171485247e-15
0
LINE
5
149
100
AcDbEntity
8
0
100
AcDbLine
10
3.783835342752135
20
156.86683414196048
30
-6.1429481171481153e-15
11
3.7838353427595472
21
176.86683414196051
31
-8.5922417154428829e-15
0
LINE
5
150
100
AcDbEntity
8
0
100
AcDbLine
10
85.283835342763041
20
181.86683414177278
30
-9.327029794944706e-15
11
85.283835342750237
21
176.86683414181473
31
-8.5922417154563693e-15
0
LINE
5
151
100
AcDbEntity
8
0
100
AcDbLine
10
3.7838353427595472
20
176.86683414196051
30
-8.5922417154574138e-15
11
40.283835342749896
21
176.86683414185666
31
-8.5922417154569262e-15
0
LINE
5
152
100
AcDbEntity
8
0
100
AcDbLine
10
211.78383534275073
20
160.31265490955437
30
-6.4157108656685424e-15
11
211.78383534275218
21
166.86683414192768
31
-7.3675949163061464e-15
0
LINE
5
153
100
AcDbEntity
8
0
100
AcDbLine
10
8.7838353427459772
20
156.86683414195531
30
-6.1429481171485247e-15
11
3.783835342752135
21
156.86683414196048
31
-6.1429481171481153e-15
0
LINE
5
154
100
AcDbEntity
8
0
100
AcDbLine
10
40.283835342749896
20
176.86683414185666
30
-8.5922417154569262e-15
11
40.283835342763076
21
181.86683414192188
31
-9.3270297949465236e-15
0
LINE
5
155
100
AcDbEntity
8
0
100
AcDbLine
10
235.79445239305099
20
146.51734937869651
30
-4.8657303275749471e-15
11
232.56170484042102
21
142.70298924085236
31
-4.2985251922472676e-15
0
CIRCLE
5
156
100
AcDbEntity
8
0
100
AcDbCircle
10
44.5423747664762
20
135.28819451560543
30
0
40
14.500000000000002
210
0
220
0
230
1
0
CIRCLE
5
157
100
AcDbEntity
8
0
100
AcDbCircle
10
143.9750636064434
20
149.14552873442719
30
0
40
2
210
0
220
0
230
1
0
CIRCLE
5
158
100
AcDbEntity
8
0
100
AcDbCircle
10
185.10968592650789
20
121.43086029678389
30
0
40
2
210
0
220
0
230
1
0
CIRCLE
5
159
100
AcDbEntity
8
0
100
AcDbCircle
10
104.54237476647597
20
135.28819451560545
30
0
40
14.500000000000002
210
0
220
0
230
1
0
CIRCLE
5
160
100
AcDbEntity
8
0
100
AcDbCircle
10
164.5423747664758
20
135.28819451560548
30
0
40
14.500000000000002
210
0
220
0
230
1
0
CIRCLE
5
161
100
AcDbEntity
8
0
100
AcDbCircle
10
23.975063606443911
20
149.14552873442719
30
0
40
2
210
0
220
0
230
1
0
CIRCLE
5
162
100
AcDbEntity
8
0
100
AcDbCircle
10
125.10968592650801
20
121.43086029678398
30
0
40
2
210
0
220
0
230
1
0
CIRCLE
5
163
100
AcDbEntity
8
0
100
AcDbCircle
10
65.109685926507993
20
121.43086029678398
30
0
40
2
210
0
220
0
230
1
0
CIRCLE
5
164
100
AcDbEntity
8
0
100
AcDbCircle
10
83.975063606443641
20
149.14552873442719
30
0
40
2
210
0
220
0
230
1
0
LINE
5
165
100
AcDbEntity
8
0
100
AcDbLine
10
23.975063606443911
20
149.14552873442719
30
0
11
44.5423747664762
21
135.28819451560543
31
0
0
LINE
5
166
100
AcDbEntity
8
0
100
AcDbLine
10
23.975063606443911
20
149.14552873442719
30
0
11
65.109685926507993
21
121.43086029678398
31
0
0
LINE
5
167
100
AcDbEntity
8
0
100
AcDbLine
10
208.44228034170274
20
176.86683414177276
30
-8.5922417154589142e-15
11
208.44228034170305
21
156.8668341417723
31
-8.5922417154589142e-15
0
LINE
5
168
100
AcDbEntity
8
0
100
AcDbLine
10
209.51774244999064
20
136.8668341417723
30
-3.6936545188651995e-15
11
209.51774244999064
21
116.86683414177227
31
-3.6936545188651995e-15
0
ENDSEC
0
SECTION
2
OBJECTS
0
DICTIONARY
5
C
100
AcDbDictionary
3
ACAD_GROUP
350
D
3
ACAD_MLINESTYLE
350
17
0
DICTIONARY
5
D
100
AcDbDictionary
0
DICTIONARY
5
1A
330
C
100
AcDbDictionary
0
DICTIONARY
5
17
100
AcDbDictionary
0
ENDSEC
0
EOF
