0
SECTION
2
HEADER
9
$INSUNITS
70
4
9
$ACADVER
1
AC1014
9
$HANDSEED
5
FFFF
0
ENDSEC
0
SECTION
2
TABLES
0
TABLE
2
VPORT
5
8
100
AcDbSymbolTable
0
ENDTAB
0
TABLE
2
LTYPE
5
5
100
AcDbSymbolTable
0
LTYPE
5
14
100
AcDbSymbolTableRecord
100
AcDbLinetypeTableRecord
2
BYBLOCK
70
0
0
LTYPE
5
15
100
AcDbSymbolTableRecord
100
AcDbLinetypeTableRecord
2
BYLAYER
70
0
0
ENDTAB
0
TABLE
2
LAYER
5
2
100
AcDbSymbolTable
70
2
0
LAYER
5
50
100
AcDbSymbolTableRecord
100
AcDbLayerTableRecord
2
0
70
0
6
CONTINUOUS
0
ENDTAB
0
TABLE
2
STYLE
5
3
100
AcDbSymbolTable
70
1
0
STYLE
5
11
100
AcDbSymbolTableRecord
100
AcDbTextStyleTableRecord
2
STANDARD
70
0
0
ENDTAB
0
TABLE
2
VIEW
5
6
100
AcDbSymbolTable
70
0
0
ENDTAB
0
TABLE
2
UCS
5
7
100
AcDbSymbolTable
70
0
0
ENDTAB
0
TABLE
2
APPID
5
9
100
AcDbSymbolTable
70
2
0
APPID
5
12
100
AcDbSymbolTableRecord
100
AcDbRegAppTableRecord
2
ACAD
70
0
0
ENDTAB
0
TABLE
2
DIMSTYLE
5
A
100
AcDbSymbolTable
70
1
0
ENDTAB
0
TABLE
2
BLOCK_RECORD
5
1
100
AcDbSymbolTable
70
1
0
BLOCK_RECORD
5
1F
100
AcDbSymbolTableRecord
100
AcDbBlockTableRecord
2
*MODEL_SPACE
0
BLOCK_RECORD
5
1B
100
AcDbSymbolTableRecord
100
AcDbBlockTableRecord
2
*PAPER_SPACE
0
ENDTAB
0
ENDSEC
0
SECTION
2
BLOCKS
0
BLOCK
5
20
100
AcDbEntity
100
AcDbBlockBegin
2
*MODEL_SPACE
0
ENDBLK
5
21
100
AcDbEntity
100
AcDbBlockEnd
0
BLOCK
5
1C
100
AcDbEntity
100
AcDbBlockBegin
2
*PAPER_SPACE
0
ENDBLK
5
1D
100
AcDbEntity
100
AcDbBlockEnd
0
ENDSEC
0
SECTION
2
ENTITIES
0
LWPOLYLINE
5
100
100
AcDbEntity
8
0
100
AcDbPolyline
90
28
70
1
43
0.0
10
0
20
5.0000000000000178
10
4.4408920985006262e-15
20
105.00000000000054
10
10.000000000000139
20
105.00000000000054
10
10.000000000000089
20
110.00000000000054
10
39.137084989849342
20
110.0000000000006
10
39.137084989847651
20
105.00000000000063
10
68.274169979695913
20
105.00000000000063
10
68.27416997969533
20
110.00000000000063
10
97.411254969545411
20
110.00000000000063
10
97.411254969543023
20
105.00000000000063
10
126.5483399593905
20
105.00000000000063
10
126.54833995939057
20
110.00000000000063
10
155.68542494923793
20
110.00000000000058
10
155.68542494923707
20
105.00000000000058
10
165.68542494923804
20
105.00000000000301
10
165.68542494923804
20
5.0000000000005969
10
155.68542494923804
20
5.0000000000005995
10
155.68542494923804
20
5.989182651054975e-13
10
126.54833995939043
20
5.9507954119908391e-13
10
126.54833995939043
20
5.0000000000005942
10
97.411254969542824
20
5.0000000000006031
10
97.411254969542881
20
6.0311207098985699e-13
10
68.274169979695287
20
0
10
68.274169979695287
20
4.9999999999999991
10
39.137084989847679
20
5
10
39.137084989847608
20
0
10
10.000000000000009
20
0
10
10.000000000000009
20
4.9999999999999956
0
CIRCLE
5
101
100
AcDbEntity
8
0
100
AcDbCircle
10
153.18542494923804
20
88.333333333333968
30
0
40
1.6000000000000003
0
LWPOLYLINE
5
102
100
AcDbEntity
8
0
100
AcDbPolyline
90
4
70
1
43
0.0
10
101.34271247461902
20
20
10
64.34271247461902
20
20
10
64.34271247461902
20
80
10
101.34271247461902
20
80
0
CIRCLE
5
103
100
AcDbEntity
8
0
100
AcDbCircle
10
82.84271247461902
20
86
30
0
40
1.6000000000000003
0
CIRCLE
5
104
100
AcDbEntity
8
0
100
AcDbCircle
10
82.84271247461902
20
14
30
0
40
1.6000000000000003
0
CIRCLE
5
105
100
AcDbEntity
8
0
100
AcDbCircle
10
12.5
20
88.333333333333968
30
0
40
1.6000000000000003
0
CIRCLE
5
106
100
AcDbEntity
8
0
100
AcDbCircle
10
153.18542494923804
20
55.000000000000625
30
0
40
1.6000000000000003
0
CIRCLE
5
107
100
AcDbEntity
8
0
100
AcDbCircle
10
12.5
20
55.000000000000625
30
0
40
1.6000000000000003
0
CIRCLE
5
108
100
AcDbEntity
8
0
100
AcDbCircle
10
153.18542494923804
20
21.66666666666729
30
0
40
1.6000000000000003
0
CIRCLE
5
109
100
AcDbEntity
8
0
100
AcDbCircle
10
12.5
20
21.66666666666729
30
0
40
1.6000000000000003
0
LWPOLYLINE
5
110
100
AcDbEntity
8
0
100
AcDbPolyline
90
4
70
1
43
0.0
10
93.34271247461902
20
46.5
10
72.34271247461902
20
46.5
10
72.34271247461902
20
53.500000000000007
10
93.34271247461902
20
53.500000000000007
0
LINE
5
111
100
AcDbEntity
8
0
100
AcDbLine
10
14470.910416666668
20
-10280.487500000001
30
0
11
14488.372916666667
21
-10283.927083333336
31
0
0
LINE
5
112
100
AcDbEntity
8
0
100
AcDbLine
10
14488.372916666667
20
-10283.927083333336
30
0
11
14537.58541666667
21
-10304.300000000003
31
0
0
LINE
5
113
100
AcDbEntity
8
0
100
AcDbLine
10
14537.58541666667
20
-10304.300000000003
30
0
11
14562.720833333335
21
-10321.233333333334
31
0
0
LINE
5
114
100
AcDbEntity
8
0
100
AcDbLine
10
14562.720833333335
20
-10321.233333333334
30
0
11
14581.770833333336
21
-10333.668750000001
31
0
0
LINE
5
115
100
AcDbEntity
8
0
100
AcDbLine
10
14581.770833333336
20
-10333.668750000001
30
0
11
14619.341666666669
21
-10371.239583333336
31
0
0
LINE
5
116
100
AcDbEntity
8
0
100
AcDbLine
10
14619.341666666669
20
-10371.239583333336
30
0
11
14632.041666666668
21
-10390.289583333335
31
0
0
LINE
5
117
100
AcDbEntity
8
0
100
AcDbLine
10
14632.041666666668
20
-10390.289583333335
30
0
11
14648.710416666669
21
-10415.689583333335
31
0
0
LINE
5
118
100
AcDbEntity
8
0
100
AcDbLine
10
14648.710416666669
20
-10415.689583333335
30
0
11
14669.083333333336
21
-10464.637500000001
31
0
0
LINE
5
119
100
AcDbEntity
8
0
100
AcDbLine
10
14669.083333333336
20
-10464.637500000001
30
0
11
14679.66666666667
21
-10516.760416666668
31
0
0
LINE
5
120
100
AcDbEntity
8
0
100
AcDbLine
10
14679.66666666667
20
-10516.760416666668
30
0
11
14679.66666666667
21
-10569.941666666669
31
0
0
LINE
5
121
100
AcDbEntity
8
0
100
AcDbLine
10
14679.66666666667
20
-10569.941666666669
30
0
11
14669.083333333336
21
-10622.064583333336
31
0
0
LINE
5
122
100
AcDbEntity
8
0
100
AcDbLine
10
14669.083333333336
20
-10622.064583333336
30
0
11
14648.710416666669
21
-10671.277083333336
31
0
0
LINE
5
123
100
AcDbEntity
8
0
100
AcDbLine
10
14648.710416666669
20
-10671.277083333336
30
0
11
14632.041666666668
21
-10696.412500000002
31
0
0
LINE
5
124
100
AcDbEntity
8
0
100
AcDbLine
10
14632.041666666668
20
-10696.412500000002
30
0
11
14619.341666666669
21
-10715.462500000001
31
0
0
LINE
5
125
100
AcDbEntity
8
0
100
AcDbLine
10
14619.341666666669
20
-10715.462500000001
30
0
11
14581.770833333336
21
-10753.033333333335
31
0
0
LINE
5
126
100
AcDbEntity
8
0
100
AcDbLine
10
14581.770833333336
20
-10753.033333333335
30
0
11
14562.720833333335
21
-10765.733333333335
31
0
0
LINE
5
127
100
AcDbEntity
8
0
100
AcDbLine
10
14562.720833333335
20
-10765.733333333335
30
0
11
14537.585416666669
21
-10782.666666666668
31
0
0
LINE
5
128
100
AcDbEntity
8
0
100
AcDbLine
10
14537.585416666669
20
-10782.666666666668
30
0
11
14488.372916666667
21
-10803.039583333337
31
0
0
LINE
5
129
100
AcDbEntity
8
0
100
AcDbLine
10
14488.372916666667
20
-10803.039583333337
30
0
11
14470.910416666669
21
-10806.479166666668
31
0
0
LINE
5
130
100
AcDbEntity
8
0
100
AcDbLine
10
14470.910416666669
20
-10806.479166666668
30
0
11
14436.250000000002
21
-10813.358333333335
31
0
0
LINE
5
131
100
AcDbEntity
8
0
100
AcDbLine
10
14436.250000000002
20
-10813.358333333335
30
0
11
14383.068750000002
21
-10813.358333333335
31
0
0
LINE
5
132
100
AcDbEntity
8
0
100
AcDbLine
10
14383.068750000002
20
-10813.358333333335
30
0
11
14348.408333333336
21
-10806.479166666668
31
0
0
LINE
5
133
100
AcDbEntity
8
0
100
AcDbLine
10
14348.408333333336
20
-10806.479166666668
30
0
11
14330.945833333337
21
-10803.039583333335
31
0
0
LINE
5
134
100
AcDbEntity
8
0
100
AcDbLine
10
14330.945833333337
20
-10803.039583333335
30
0
11
14281.733333333334
21
-10782.666666666666
31
0
0
LINE
5
135
100
AcDbEntity
8
0
100
AcDbLine
10
14281.733333333334
20
-10782.666666666666
30
0
11
14256.597916666669
21
-10765.733333333335
31
0
0
LINE
5
136
100
AcDbEntity
8
0
100
AcDbLine
10
14256.597916666669
20
-10765.733333333335
30
0
11
14237.54791666667
21
-10753.033333333335
31
0
0
LINE
5
137
100
AcDbEntity
8
0
100
AcDbLine
10
14237.54791666667
20
-10753.033333333335
30
0
11
14199.977083333335
21
-10715.462500000001
31
0
0
LINE
5
138
100
AcDbEntity
8
0
100
AcDbLine
10
14199.977083333335
20
-10715.462500000001
30
0
11
14187.277083333336
21
-10696.412500000002
31
0
0
LINE
5
139
100
AcDbEntity
8
0
100
AcDbLine
10
14187.277083333336
20
-10696.412500000002
30
0
11
14170.608333333337
21
-10671.277083333334
31
0
0
LINE
5
140
100
AcDbEntity
8
0
100
AcDbLine
10
14170.608333333337
20
-10671.277083333334
30
0
11
14150.235416666666
21
-10622.064583333333
31
0
0
LINE
5
141
100
AcDbEntity
8
0
100
AcDbLine
10
14150.235416666666
20
-10622.064583333333
30
0
11
14139.652083333334
21
-10569.941666666669
31
0
0
LINE
5
142
100
AcDbEntity
8
0
100
AcDbLine
10
14139.652083333334
20
-10569.941666666669
30
0
11
14139.652083333334
21
-10516.760416666668
31
0
0
LINE
5
143
100
AcDbEntity
8
0
100
AcDbLine
10
14139.652083333334
20
-10516.760416666668
30
0
11
14150.23541666667
21
-10464.637500000001
31
0
0
LINE
5
144
100
AcDbEntity
8
0
100
AcDbLine
10
14150.23541666667
20
-10464.637500000001
30
0
11
14170.608333333337
21
-10415.689583333335
31
0
0
LINE
5
145
100
AcDbEntity
8
0
100
AcDbLine
10
14170.608333333337
20
-10415.689583333335
30
0
11
14187.277083333334
21
-10390.289583333335
31
0
0
LINE
5
146
100
AcDbEntity
8
0
100
AcDbLine
10
14187.277083333334
20
-10390.289583333335
30
0
11
14199.977083333335
21
-10371.239583333336
31
0
0
LINE
5
147
100
AcDbEntity
8
0
100
AcDbLine
10
14199.977083333335
20
-10371.239583333336
30
0
11
14237.54791666667
21
-10333.668750000001
31
0
0
LINE
5
148
100
AcDbEntity
8
0
100
AcDbLine
10
14237.54791666667
20
-10333.668750000001
30
0
11
14256.597916666669
21
-10321.233333333334
31
0
0
LINE
5
149
100
AcDbEntity
8
0
100
AcDbLine
10
14256.597916666669
20
-10321.233333333334
30
0
11
14281.733333333337
21
-10304.300000000001
31
0
0
LINE
5
150
100
AcDbEntity
8
0
100
AcDbLine
10
14281.733333333337
20
-10304.300000000001
30
0
11
14330.945833333337
21
-10283.927083333332
31
0
0
LINE
5
151
100
AcDbEntity
8
0
100
AcDbLine
10
14330.945833333337
20
-10283.927083333332
30
0
11
14348.408333333335
21
-10280.487500000001
31
0
0
LINE
5
152
100
AcDbEntity
8
0
100
AcDbLine
10
14348.408333333335
20
-10280.487500000001
30
0
11
14383.068750000002
21
-10273.608333333334
31
0
0
LINE
5
153
100
AcDbEntity
8
0
100
AcDbLine
10
14383.068750000002
20
-10273.608333333334
30
0
11
14436.250000000002
21
-10273.608333333334
31
0
0
LINE
5
154
100
AcDbEntity
8
0
100
AcDbLine
10
14436.250000000002
20
-10273.608333333334
30
0
11
14470.910416666668
21
-10280.487500000001
31
0
0
LINE
5
155
100
AcDbEntity
8
0
100
AcDbLine
10
16058.410416666668
20
-10280.487500000001
30
0
11
16075.872916666667
21
-10283.927083333336
31
0
0
LINE
5
156
100
AcDbEntity
8
0
100
AcDbLine
10
16075.872916666667
20
-10283.927083333336
30
0
11
16125.08541666667
21
-10304.300000000003
31
0
0
LINE
5
157
100
AcDbEntity
8
0
100
AcDbLine
10
16125.08541666667
20
-10304.300000000003
30
0
11
16150.220833333335
21
-10321.233333333334
31
0
0
LINE
5
158
100
AcDbEntity
8
0
100
AcDbLine
10
16150.220833333335
20
-10321.233333333334
30
0
11
16169.270833333336
21
-10333.668750000001
31
0
0
LINE
5
159
100
AcDbEntity
8
0
100
AcDbLine
10
16169.270833333336
20
-10333.668750000001
30
0
11
16206.841666666669
21
-10371.239583333336
31
0
0
LINE
5
160
100
AcDbEntity
8
0
100
AcDbLine
10
16206.841666666669
20
-10371.239583333336
30
0
11
16219.541666666668
21
-10390.289583333335
31
0
0
LINE
5
161
100
AcDbEntity
8
0
100
AcDbLine
10
16219.541666666668
20
-10390.289583333335
30
0
11
16236.210416666669
21
-10415.689583333335
31
0
0
LINE
5
162
100
AcDbEntity
8
0
100
AcDbLine
10
16236.210416666669
20
-10415.689583333335
30
0
11
16256.583333333338
21
-10464.637500000001
31
0
0
LINE
5
163
100
AcDbEntity
8
0
100
AcDbLine
10
16256.583333333338
20
-10464.637500000001
30
0
11
16267.16666666667
21
-10516.760416666668
31
0
0
LINE
5
164
100
AcDbEntity
8
0
100
AcDbLine
10
16267.16666666667
20
-10516.760416666668
30
0
11
16267.16666666667
21
-10569.941666666669
31
0
0
LINE
5
165
100
AcDbEntity
8
0
100
AcDbLine
10
16267.16666666667
20
-10569.941666666669
30
0
11
16256.583333333336
21
-10622.064583333336
31
0
0
LINE
5
166
100
AcDbEntity
8
0
100
AcDbLine
10
16256.583333333336
20
-10622.064583333336
30
0
11
16236.210416666669
21
-10671.277083333336
31
0
0
LINE
5
167
100
AcDbEntity
8
0
100
AcDbLine
10
16236.210416666669
20
-10671.277083333336
30
0
11
16219.541666666672
21
-10696.412500000002
31
0
0
LINE
5
168
100
AcDbEntity
8
0
100
AcDbLine
10
16219.541666666672
20
-10696.412500000002
30
0
11
16206.841666666669
21
-10715.462500000001
31
0
0
LINE
5
169
100
AcDbEntity
8
0
100
AcDbLine
10
16206.841666666669
20
-10715.462500000001
30
0
11
16169.270833333336
21
-10753.033333333335
31
0
0
LINE
5
170
100
AcDbEntity
8
0
100
AcDbLine
10
16169.270833333336
20
-10753.033333333335
30
0
11
16150.220833333335
21
-10765.733333333335
31
0
0
LINE
5
171
100
AcDbEntity
8
0
100
AcDbLine
10
16150.220833333335
20
-10765.733333333335
30
0
11
16125.085416666669
21
-10782.666666666668
31
0
0
LINE
5
172
100
AcDbEntity
8
0
100
AcDbLine
10
16125.085416666669
20
-10782.666666666668
30
0
11
16075.872916666667
21
-10803.039583333337
31
0
0
LINE
5
173
100
AcDbEntity
8
0
100
AcDbLine
10
16075.872916666667
20
-10803.039583333337
30
0
11
16058.410416666669
21
-10806.479166666668
31
0
0
LINE
5
174
100
AcDbEntity
8
0
100
AcDbLine
10
16058.410416666669
20
-10806.479166666668
30
0
11
16023.750000000002
21
-10813.358333333335
31
0
0
LINE
5
175
100
AcDbEntity
8
0
100
AcDbLine
10
16023.750000000002
20
-10813.358333333335
30
0
11
15970.568750000002
21
-10813.358333333335
31
0
0
LINE
5
176
100
AcDbEntity
8
0
100
AcDbLine
10
15970.568750000002
20
-10813.358333333335
30
0
11
15935.908333333336
21
-10806.479166666668
31
0
0
LINE
5
177
100
AcDbEntity
8
0
100
AcDbLine
10
15935.908333333336
20
-10806.479166666668
30
0
11
15918.445833333337
21
-10803.039583333335
31
0
0
LINE
5
178
100
AcDbEntity
8
0
100
AcDbLine
10
15918.445833333337
20
-10803.039583333335
30
0
11
15869.233333333334
21
-10782.666666666666
31
0
0
LINE
5
179
100
AcDbEntity
8
0
100
AcDbLine
10
15869.233333333334
20
-10782.666666666666
30
0
11
15844.097916666669
21
-10765.733333333335
31
0
0
LINE
5
180
100
AcDbEntity
8
0
100
AcDbLine
10
15844.097916666669
20
-10765.733333333335
30
0
11
15825.04791666667
21
-10753.033333333335
31
0
0
LINE
5
181
100
AcDbEntity
8
0
100
AcDbLine
10
15825.04791666667
20
-10753.033333333335
30
0
11
15787.477083333335
21
-10715.462500000001
31
0
0
LINE
5
182
100
AcDbEntity
8
0
100
AcDbLine
10
15787.477083333335
20
-10715.462500000001
30
0
11
15774.777083333336
21
-10696.412500000002
31
0
0
LINE
5
183
100
AcDbEntity
8
0
100
AcDbLine
10
15774.777083333336
20
-10696.412500000002
30
0
11
15758.108333333337
21
-10671.277083333334
31
0
0
LINE
5
184
100
AcDbEntity
8
0
100
AcDbLine
10
15758.108333333337
20
-10671.277083333334
30
0
11
15737.735416666666
21
-10622.064583333333
31
0
0
LINE
5
185
100
AcDbEntity
8
0
100
AcDbLine
10
15737.735416666666
20
-10622.064583333333
30
0
11
15727.152083333334
21
-10569.941666666669
31
0
0
LINE
5
186
100
AcDbEntity
8
0
100
AcDbLine
10
15727.152083333334
20
-10569.941666666669
30
0
11
15727.152083333334
21
-10516.760416666668
31
0
0
LINE
5
187
100
AcDbEntity
8
0
100
AcDbLine
10
15727.152083333334
20
-10516.760416666668
30
0
11
15737.73541666667
21
-10464.637500000001
31
0
0
LINE
5
188
100
AcDbEntity
8
0
100
AcDbLine
10
15737.73541666667
20
-10464.637500000001
30
0
11
15758.108333333337
21
-10415.689583333335
31
0
0
LINE
5
189
100
AcDbEntity
8
0
100
AcDbLine
10
15758.108333333337
20
-10415.689583333335
30
0
11
15774.777083333334
21
-10390.289583333335
31
0
0
LINE
5
190
100
AcDbEntity
8
0
100
AcDbLine
10
15774.777083333334
20
-10390.289583333335
30
0
11
15787.477083333335
21
-10371.239583333336
31
0
0
LINE
5
191
100
AcDbEntity
8
0
100
AcDbLine
10
15787.477083333335
20
-10371.239583333336
30
0
11
15825.04791666667
21
-10333.668750000001
31
0
0
LINE
5
192
100
AcDbEntity
8
0
100
AcDbLine
10
15825.04791666667
20
-10333.668750000001
30
0
11
15844.097916666669
21
-10321.233333333334
31
0
0
LINE
5
193
100
AcDbEntity
8
0
100
AcDbLine
10
15844.097916666669
20
-10321.233333333334
30
0
11
15869.233333333337
21
-10304.300000000001
31
0
0
LINE
5
194
100
AcDbEntity
8
0
100
AcDbLine
10
15869.233333333337
20
-10304.300000000001
30
0
11
15918.445833333337
21
-10283.927083333332
31
0
0
LINE
5
195
100
AcDbEntity
8
0
100
AcDbLine
10
15918.445833333337
20
-10283.927083333332
30
0
11
15935.908333333335
21
-10280.487500000001
31
0
0
LINE
5
196
100
AcDbEntity
8
0
100
AcDbLine
10
15935.908333333335
20
-10280.487500000001
30
0
11
15970.568750000002
21
-10273.608333333334
31
0
0
LINE
5
197
100
AcDbEntity
8
0
100
AcDbLine
10
15970.568750000002
20
-10273.608333333334
30
0
11
16023.750000000002
21
-10273.608333333334
31
0
0
LINE
5
198
100
AcDbEntity
8
0
100
AcDbLine
10
16023.750000000002
20
-10273.608333333334
30
0
11
16058.410416666668
21
-10280.487500000001
31
0
0
LINE
5
199
100
AcDbEntity
8
0
100
AcDbLine
10
15264.660416666668
20
-10280.487500000001
30
0
11
15282.122916666667
21
-10283.927083333336
31
0
0
LINE
5
200
100
AcDbEntity
8
0
100
AcDbLine
10
15282.122916666667
20
-10283.927083333336
30
0
11
15331.33541666667
21
-10304.300000000003
31
0
0
LINE
5
201
100
AcDbEntity
8
0
100
AcDbLine
10
15331.33541666667
20
-10304.300000000003
30
0
11
15356.470833333335
21
-10321.233333333334
31
0
0
LINE
5
202
100
AcDbEntity
8
0
100
AcDbLine
10
15356.470833333335
20
-10321.233333333334
30
0
11
15375.520833333336
21
-10333.668750000001
31
0
0
LINE
5
203
100
AcDbEntity
8
0
100
AcDbLine
10
15375.520833333336
20
-10333.668750000001
30
0
11
15413.091666666669
21
-10371.239583333336
31
0
0
LINE
5
204
100
AcDbEntity
8
0
100
AcDbLine
10
15413.091666666669
20
-10371.239583333336
30
0
11
15425.791666666668
21
-10390.289583333335
31
0
0
LINE
5
205
100
AcDbEntity
8
0
100
AcDbLine
10
15425.791666666668
20
-10390.289583333335
30
0
11
15442.460416666669
21
-10415.689583333335
31
0
0
LINE
5
206
100
AcDbEntity
8
0
100
AcDbLine
10
15442.460416666669
20
-10415.689583333335
30
0
11
15462.833333333338
21
-10464.637500000001
31
0
0
LINE
5
207
100
AcDbEntity
8
0
100
AcDbLine
10
15462.833333333338
20
-10464.637500000001
30
0
11
15473.41666666667
21
-10516.760416666668
31
0
0
LINE
5
208
100
AcDbEntity
8
0
100
AcDbLine
10
15473.41666666667
20
-10516.760416666668
30
0
11
15473.41666666667
21
-10569.941666666669
31
0
0
LINE
5
209
100
AcDbEntity
8
0
100
AcDbLine
10
15473.41666666667
20
-10569.941666666669
30
0
11
15462.833333333336
21
-10622.064583333336
31
0
0
LINE
5
210
100
AcDbEntity
8
0
100
AcDbLine
10
15462.833333333336
20
-10622.064583333336
30
0
11
15442.460416666669
21
-10671.277083333336
31
0
0
LINE
5
211
100
AcDbEntity
8
0
100
AcDbLine
10
15442.460416666669
20
-10671.277083333336
30
0
11
15425.791666666672
21
-10696.412500000002
31
0
0
LINE
5
212
100
AcDbEntity
8
0
100
AcDbLine
10
15425.791666666672
20
-10696.412500000002
30
0
11
15413.091666666669
21
-10715.462500000001
31
0
0
LINE
5
213
100
AcDbEntity
8
0
100
AcDbLine
10
15413.091666666669
20
-10715.462500000001
30
0
11
15375.520833333336
21
-10753.033333333335
31
0
0
LINE
5
214
100
AcDbEntity
8
0
100
AcDbLine
10
15375.520833333336
20
-10753.033333333335
30
0
11
15356.470833333335
21
-10765.733333333335
31
0
0
LINE
5
215
100
AcDbEntity
8
0
100
AcDbLine
10
15356.470833333335
20
-10765.733333333335
30
0
11
15331.335416666669
21
-10782.666666666668
31
0
0
LINE
5
216
100
AcDbEntity
8
0
100
AcDbLine
10
15331.335416666669
20
-10782.666666666668
30
0
11
15282.122916666667
21
-10803.039583333337
31
0
0
LINE
5
217
100
AcDbEntity
8
0
100
AcDbLine
10
15282.122916666667
20
-10803.039583333337
30
0
11
15264.660416666669
21
-10806.479166666668
31
0
0
LINE
5
218
100
AcDbEntity
8
0
100
AcDbLine
10
15264.660416666669
20
-10806.479166666668
30
0
11
15230.000000000002
21
-10813.358333333335
31
0
0
LINE
5
219
100
AcDbEntity
8
0
100
AcDbLine
10
15230.000000000002
20
-10813.358333333335
30
0
11
15176.818750000002
21
-10813.358333333335
31
0
0
LINE
5
220
100
AcDbEntity
8
0
100
AcDbLine
10
15176.818750000002
20
-10813.358333333335
30
0
11
15142.158333333336
21
-10806.479166666668
31
0
0
LINE
5
221
100
AcDbEntity
8
0
100
AcDbLine
10
15142.158333333336
20
-10806.479166666668
30
0
11
15124.695833333337
21
-10803.039583333335
31
0
0
LINE
5
222
100
AcDbEntity
8
0
100
AcDbLine
10
15124.695833333337
20
-10803.039583333335
30
0
11
15075.483333333334
21
-10782.666666666666
31
0
0
LINE
5
223
100
AcDbEntity
8
0
100
AcDbLine
10
15075.483333333334
20
-10782.666666666666
30
0
11
15050.347916666669
21
-10765.733333333335
31
0
0
LINE
5
224
100
AcDbEntity
8
0
100
AcDbLine
10
15050.347916666669
20
-10765.733333333335
30
0
11
15031.29791666667
21
-10753.033333333335
31
0
0
LINE
5
225
100
AcDbEntity
8
0
100
AcDbLine
10
15031.29791666667
20
-10753.033333333335
30
0
11
14993.727083333335
21
-10715.462500000001
31
0
0
LINE
5
226
100
AcDbEntity
8
0
100
AcDbLine
10
14993.727083333335
20
-10715.462500000001
30
0
11
14981.027083333336
21
-10696.412500000002
31
0
0
LINE
5
227
100
AcDbEntity
8
0
100
AcDbLine
10
14981.027083333336
20
-10696.412500000002
30
0
11
14964.358333333337
21
-10671.277083333334
31
0
0
LINE
5
228
100
AcDbEntity
8
0
100
AcDbLine
10
14964.358333333337
20
-10671.277083333334
30
0
11
14943.985416666666
21
-10622.064583333333
31
0
0
LINE
5
229
100
AcDbEntity
8
0
100
AcDbLine
10
14943.985416666666
20
-10622.064583333333
30
0
11
14933.402083333334
21
-10569.941666666669
31
0
0
LINE
5
230
100
AcDbEntity
8
0
100
AcDbLine
10
14933.402083333334
20
-10569.941666666669
30
0
11
14933.402083333334
21
-10516.760416666668
31
0
0
LINE
5
231
100
AcDbEntity
8
0
100
AcDbLine
10
14933.402083333334
20
-10516.760416666668
30
0
11
14943.98541666667
21
-10464.637500000001
31
0
0
LINE
5
232
100
AcDbEntity
8
0
100
AcDbLine
10
14943.98541666667
20
-10464.637500000001
30
0
11
14964.358333333337
21
-10415.689583333335
31
0
0
LINE
5
233
100
AcDbEntity
8
0
100
AcDbLine
10
14964.358333333337
20
-10415.689583333335
30
0
11
14981.027083333334
21
-10390.289583333335
31
0
0
LINE
5
234
100
AcDbEntity
8
0
100
AcDbLine
10
14981.027083333334
20
-10390.289583333335
30
0
11
14993.727083333335
21
-10371.239583333336
31
0
0
LINE
5
235
100
AcDbEntity
8
0
100
AcDbLine
10
14993.727083333335
20
-10371.239583333336
30
0
11
15031.29791666667
21
-10333.668750000001
31
0
0
LINE
5
236
100
AcDbEntity
8
0
100
AcDbLine
10
15031.29791666667
20
-10333.668750000001
30
0
11
15050.347916666669
21
-10321.233333333334
31
0
0
LINE
5
237
100
AcDbEntity
8
0
100
AcDbLine
10
15050.347916666669
20
-10321.233333333334
30
0
11
15075.483333333337
21
-10304.300000000001
31
0
0
LINE
5
238
100
AcDbEntity
8
0
100
AcDbLine
10
15075.483333333337
20
-10304.300000000001
30
0
11
15124.695833333337
21
-10283.927083333332
31
0
0
LINE
5
239
100
AcDbEntity
8
0
100
AcDbLine
10
15124.695833333337
20
-10283.927083333332
30
0
11
15142.158333333335
21
-10280.487500000001
31
0
0
LINE
5
240
100
AcDbEntity
8
0
100
AcDbLine
10
15142.158333333335
20
-10280.487500000001
30
0
11
15176.818750000002
21
-10273.608333333334
31
0
0
LINE
5
241
100
AcDbEntity
8
0
100
AcDbLine
10
15176.818750000002
20
-10273.608333333334
30
0
11
15230.000000000002
21
-10273.608333333334
31
0
0
LINE
5
242
100
AcDbEntity
8
0
100
AcDbLine
10
15230.000000000002
20
-10273.608333333334
30
0
11
15264.660416666668
21
-10280.487500000001
31
0
0
LINE
5
243
100
AcDbEntity
8
0
100
AcDbLine
10
14470.910416666668
20
-10280.487500000001
30
0
11
14488.372916666667
21
-10283.927083333336
31
0
0
LINE
5
244
100
AcDbEntity
8
0
100
AcDbLine
10
14488.372916666667
20
-10283.927083333336
30
0
11
14537.58541666667
21
-10304.300000000003
31
0
0
LINE
5
245
100
AcDbEntity
8
0
100
AcDbLine
10
14537.58541666667
20
-10304.300000000003
30
0
11
14562.720833333335
21
-10321.233333333334
31
0
0
LINE
5
246
100
AcDbEntity
8
0
100
AcDbLine
10
14562.720833333335
20
-10321.233333333334
30
0
11
14581.770833333336
21
-10333.668750000001
31
0
0
LINE
5
247
100
AcDbEntity
8
0
100
AcDbLine
10
14581.770833333336
20
-10333.668750000001
30
0
11
14619.341666666669
21
-10371.239583333336
31
0
0
LINE
5
248
100
AcDbEntity
8
0
100
AcDbLine
10
14619.341666666669
20
-10371.239583333336
30
0
11
14628.86666666667
21
-10385.791666666668
31
0
0
LINE
5
249
100
AcDbEntity
8
0
100
AcDbLine
10
14628.86666666667
20
-10385.791666666668
30
0
11
14648.710416666669
21
-10415.689583333335
31
0
0
LINE
5
250
100
AcDbEntity
8
0
100
AcDbLine
10
14648.710416666669
20
-10415.689583333335
30
0
11
14669.083333333336
21
-10464.637500000001
31
0
0
LINE
5
251
100
AcDbEntity
8
0
100
AcDbLine
10
14669.083333333336
20
-10464.637500000001
30
0
11
14679.66666666667
21
-10516.760416666668
31
0
0
LINE
5
252
100
AcDbEntity
8
0
100
AcDbLine
10
14679.66666666667
20
-10516.760416666668
30
0
11
14679.66666666667
21
-10569.941666666669
31
0
0
LINE
5
253
100
AcDbEntity
8
0
100
AcDbLine
10
14679.66666666667
20
-10569.941666666669
30
0
11
14672.522916666669
21
-10604.866666666669
31
0
0
LINE
5
254
100
AcDbEntity
8
0
100
AcDbLine
10
14672.522916666669
20
-10604.866666666669
30
0
11
14669.083333333336
21
-10622.064583333336
31
0
0
LINE
5
255
100
AcDbEntity
8
0
100
AcDbLine
10
14669.083333333336
20
-10622.064583333336
30
0
11
14648.710416666669
21
-10671.277083333336
31
0
0
LINE
5
256
100
AcDbEntity
8
0
100
AcDbLine
10
14648.710416666669
20
-10671.277083333336
30
0
11
14632.041666666668
21
-10696.412500000002
31
0
0
LINE
5
257
100
AcDbEntity
8
0
100
AcDbLine
10
14632.041666666668
20
-10696.412500000002
30
0
11
14619.341666666669
21
-10715.462500000001
31
0
0
LINE
5
258
100
AcDbEntity
8
0
100
AcDbLine
10
14619.341666666669
20
-10715.462500000001
30
0
11
14581.770833333336
21
-10753.033333333335
31
0
0
LINE
5
259
100
AcDbEntity
8
0
100
AcDbLine
10
14581.770833333336
20
-10753.033333333335
30
0
11
14562.720833333335
21
-10765.733333333335
31
0
0
LINE
5
260
100
AcDbEntity
8
0
100
AcDbLine
10
14562.720833333335
20
-10765.733333333335
30
0
11
14537.585416666669
21
-10782.666666666668
31
0
0
LINE
5
261
100
AcDbEntity
8
0
100
AcDbLine
10
14537.585416666669
20
-10782.666666666668
30
0
11
14488.372916666667
21
-10803.039583333337
31
0
0
LINE
5
262
100
AcDbEntity
8
0
100
AcDbLine
10
14488.372916666667
20
-10803.039583333337
30
0
11
14470.910416666669
21
-10806.479166666668
31
0
0
LINE
5
263
100
AcDbEntity
8
0
100
AcDbLine
10
14470.910416666669
20
-10806.479166666668
30
0
11
14436.250000000002
21
-10813.358333333335
31
0
0
LINE
5
264
100
AcDbEntity
8
0
100
AcDbLine
10
14436.250000000002
20
-10813.358333333335
30
0
11
14383.068750000002
21
-10813.358333333335
31
0
0
LINE
5
265
100
AcDbEntity
8
0
100
AcDbLine
10
14383.068750000002
20
-10813.358333333335
30
0
11
14348.408333333336
21
-10806.479166666668
31
0
0
LINE
5
266
100
AcDbEntity
8
0
100
AcDbLine
10
14348.408333333336
20
-10806.479166666668
30
0
11
14330.945833333337
21
-10803.039583333335
31
0
0
LINE
5
267
100
AcDbEntity
8
0
100
AcDbLine
10
14330.945833333337
20
-10803.039583333335
30
0
11
14281.733333333334
21
-10782.666666666666
31
0
0
LINE
5
268
100
AcDbEntity
8
0
100
AcDbLine
10
14281.733333333334
20
-10782.666666666666
30
0
11
14256.597916666669
21
-10765.733333333335
31
0
0
LINE
5
269
100
AcDbEntity
8
0
100
AcDbLine
10
14256.597916666669
20
-10765.733333333335
30
0
11
14237.54791666667
21
-10753.033333333335
31
0
0
LINE
5
270
100
AcDbEntity
8
0
100
AcDbLine
10
14237.54791666667
20
-10753.033333333335
30
0
11
14199.977083333335
21
-10715.462500000001
31
0
0
LINE
5
271
100
AcDbEntity
8
0
100
AcDbLine
10
14199.977083333335
20
-10715.462500000001
30
0
11
14187.277083333336
21
-10696.412500000002
31
0
0
LINE
5
272
100
AcDbEntity
8
0
100
AcDbLine
10
14187.277083333336
20
-10696.412500000002
30
0
11
14170.608333333337
21
-10671.277083333334
31
0
0
LINE
5
273
100
AcDbEntity
8
0
100
AcDbLine
10
14170.608333333337
20
-10671.277083333334
30
0
11
14150.235416666666
21
-10622.064583333333
31
0
0
LINE
5
274
100
AcDbEntity
8
0
100
AcDbLine
10
14150.235416666666
20
-10622.064583333333
30
0
11
14146.795833333335
21
-10604.866666666669
31
0
0
LINE
5
275
100
AcDbEntity
8
0
100
AcDbLine
10
14146.795833333335
20
-10604.866666666669
30
0
11
14139.652083333334
21
-10569.941666666669
31
0
0
LINE
5
276
100
AcDbEntity
8
0
100
AcDbLine
10
14139.652083333334
20
-10569.941666666669
30
0
11
14139.652083333334
21
-10516.760416666668
31
0
0
LINE
5
277
100
AcDbEntity
8
0
100
AcDbLine
10
14139.652083333334
20
-10516.760416666668
30
0
11
14150.23541666667
21
-10464.637500000001
31
0
0
LINE
5
278
100
AcDbEntity
8
0
100
AcDbLine
10
14150.23541666667
20
-10464.637500000001
30
0
11
14170.608333333337
21
-10415.689583333335
31
0
0
LINE
5
279
100
AcDbEntity
8
0
100
AcDbLine
10
14170.608333333337
20
-10415.689583333335
30
0
11
14190.452083333334
21
-10385.791666666668
31
0
0
LINE
5
280
100
AcDbEntity
8
0
100
AcDbLine
10
14190.452083333334
20
-10385.791666666668
30
0
11
14199.977083333335
21
-10371.239583333336
31
0
0
LINE
5
281
100
AcDbEntity
8
0
100
AcDbLine
10
14199.977083333335
20
-10371.239583333336
30
0
11
14237.54791666667
21
-10333.668750000001
31
0
0
LINE
5
282
100
AcDbEntity
8
0
100
AcDbLine
10
14237.54791666667
20
-10333.668750000001
30
0
11
14256.597916666669
21
-10321.233333333334
31
0
0
LINE
5
283
100
AcDbEntity
8
0
100
AcDbLine
10
14256.597916666669
20
-10321.233333333334
30
0
11
14281.733333333337
21
-10304.300000000001
31
0
0
LINE
5
284
100
AcDbEntity
8
0
100
AcDbLine
10
14281.733333333337
20
-10304.300000000001
30
0
11
14330.945833333337
21
-10283.927083333332
31
0
0
LINE
5
285
100
AcDbEntity
8
0
100
AcDbLine
10
14330.945833333337
20
-10283.927083333332
30
0
11
14348.408333333335
21
-10280.487500000001
31
0
0
LINE
5
286
100
AcDbEntity
8
0
100
AcDbLine
10
14348.408333333335
20
-10280.487500000001
30
0
11
14383.068750000002
21
-10273.608333333334
31
0
0
LINE
5
287
100
AcDbEntity
8
0
100
AcDbLine
10
14383.068750000002
20
-10273.608333333334
30
0
11
14436.250000000002
21
-10273.608333333334
31
0
0
LINE
5
288
100
AcDbEntity
8
0
100
AcDbLine
10
14436.250000000002
20
-10273.608333333334
30
0
11
14470.910416666668
21
-10280.487500000001
31
0
0
LINE
5
289
100
AcDbEntity
8
0
100
AcDbLine
10
15264.660416666668
20
-10280.487500000001
30
0
11
15282.122916666667
21
-10283.927083333336
31
0
0
LINE
5
290
100
AcDbEntity
8
0
100
AcDbLine
10
15282.122916666667
20
-10283.927083333336
30
0
11
15331.33541666667
21
-10304.300000000003
31
0
0
LINE
5
291
100
AcDbEntity
8
0
100
AcDbLine
10
15331.33541666667
20
-10304.300000000003
30
0
11
15356.470833333335
21
-10321.233333333334
31
0
0
LINE
5
292
100
AcDbEntity
8
0
100
AcDbLine
10
15356.470833333335
20
-10321.233333333334
30
0
11
15375.520833333336
21
-10333.668750000001
31
0
0
LINE
5
293
100
AcDbEntity
8
0
100
AcDbLine
10
15375.520833333336
20
-10333.668750000001
30
0
11
15413.091666666669
21
-10371.239583333336
31
0
0
LINE
5
294
100
AcDbEntity
8
0
100
AcDbLine
10
15413.091666666669
20
-10371.239583333336
30
0
11
15422.61666666667
21
-10385.791666666668
31
0
0
LINE
5
295
100
AcDbEntity
8
0
100
AcDbLine
10
15422.61666666667
20
-10385.791666666668
30
0
11
15442.460416666669
21
-10415.689583333335
31
0
0
LINE
5
296
100
AcDbEntity
8
0
100
AcDbLine
10
15442.460416666669
20
-10415.689583333335
30
0
11
15462.833333333338
21
-10464.637500000001
31
0
0
LINE
5
297
100
AcDbEntity
8
0
100
AcDbLine
10
15462.833333333338
20
-10464.637500000001
30
0
11
15473.41666666667
21
-10516.760416666668
31
0
0
LINE
5
298
100
AcDbEntity
8
0
100
AcDbLine
10
15473.41666666667
20
-10516.760416666668
30
0
11
15473.41666666667
21
-10569.941666666669
31
0
0
LINE
5
299
100
AcDbEntity
8
0
100
AcDbLine
10
15473.41666666667
20
-10569.941666666669
30
0
11
15466.272916666669
21
-10604.866666666669
31
0
0
LINE
5
300
100
AcDbEntity
8
0
100
AcDbLine
10
15466.272916666669
20
-10604.866666666669
30
0
11
15462.833333333336
21
-10622.064583333336
31
0
0
LINE
5
301
100
AcDbEntity
8
0
100
AcDbLine
10
15462.833333333336
20
-10622.064583333336
30
0
11
15442.460416666669
21
-10671.277083333336
31
0
0
LINE
5
302
100
AcDbEntity
8
0
100
AcDbLine
10
15442.460416666669
20
-10671.277083333336
30
0
11
15425.791666666672
21
-10696.412500000002
31
0
0
LINE
5
303
100
AcDbEntity
8
0
100
AcDbLine
10
15425.791666666672
20
-10696.412500000002
30
0
11
15413.091666666669
21
-10715.462500000001
31
0
0
LINE
5
304
100
AcDbEntity
8
0
100
AcDbLine
10
15413.091666666669
20
-10715.462500000001
30
0
11
15375.520833333336
21
-10753.033333333335
31
0
0
LINE
5
305
100
AcDbEntity
8
0
100
AcDbLine
10
15375.520833333336
20
-10753.033333333335
30
0
11
15356.470833333335
21
-10765.733333333335
31
0
0
LINE
5
306
100
AcDbEntity
8
0
100
AcDbLine
10
15356.470833333335
20
-10765.733333333335
30
0
11
15331.335416666669
21
-10782.666666666668
31
0
0
LINE
5
307
100
AcDbEntity
8
0
100
AcDbLine
10
15331.335416666669
20
-10782.666666666668
30
0
11
15282.122916666667
21
-10803.039583333337
31
0
0
LINE
5
308
100
AcDbEntity
8
0
100
AcDbLine
10
15282.122916666667
20
-10803.039583333337
30
0
11
15264.660416666669
21
-10806.479166666668
31
0
0
LINE
5
309
100
AcDbEntity
8
0
100
AcDbLine
10
15264.660416666669
20
-10806.479166666668
30
0
11
15230.000000000002
21
-10813.358333333335
31
0
0
LINE
5
310
100
AcDbEntity
8
0
100
AcDbLine
10
15230.000000000002
20
-10813.358333333335
30
0
11
15176.818750000002
21
-10813.358333333335
31
0
0
LINE
5
311
100
AcDbEntity
8
0
100
AcDbLine
10
15176.818750000002
20
-10813.358333333335
30
0
11
15142.158333333336
21
-10806.479166666668
31
0
0
LINE
5
312
100
AcDbEntity
8
0
100
AcDbLine
10
15142.158333333336
20
-10806.479166666668
30
0
11
15124.695833333337
21
-10803.039583333335
31
0
0
LINE
5
313
100
AcDbEntity
8
0
100
AcDbLine
10
15124.695833333337
20
-10803.039583333335
30
0
11
15075.483333333334
21
-10782.666666666666
31
0
0
LINE
5
314
100
AcDbEntity
8
0
100
AcDbLine
10
15075.483333333334
20
-10782.666666666666
30
0
11
15050.347916666669
21
-10765.733333333335
31
0
0
LINE
5
315
100
AcDbEntity
8
0
100
AcDbLine
10
15050.347916666669
20
-10765.733333333335
30
0
11
15031.29791666667
21
-10753.033333333335
31
0
0
LINE
5
316
100
AcDbEntity
8
0
100
AcDbLine
10
15031.29791666667
20
-10753.033333333335
30
0
11
14993.727083333335
21
-10715.462500000001
31
0
0
LINE
5
317
100
AcDbEntity
8
0
100
AcDbLine
10
14993.727083333335
20
-10715.462500000001
30
0
11
14981.027083333336
21
-10696.412500000002
31
0
0
LINE
5
318
100
AcDbEntity
8
0
100
AcDbLine
10
14981.027083333336
20
-10696.412500000002
30
0
11
14964.358333333337
21
-10671.277083333334
31
0
0
LINE
5
319
100
AcDbEntity
8
0
100
AcDbLine
10
14964.358333333337
20
-10671.277083333334
30
0
11
14943.985416666666
21
-10622.064583333333
31
0
0
LINE
5
320
100
AcDbEntity
8
0
100
AcDbLine
10
14943.985416666666
20
-10622.064583333333
30
0
11
14940.545833333335
21
-10604.866666666669
31
0
0
LINE
5
321
100
AcDbEntity
8
0
100
AcDbLine
10
14940.545833333335
20
-10604.866666666669
30
0
11
14933.402083333334
21
-10569.941666666669
31
0
0
LINE
5
322
100
AcDbEntity
8
0
100
AcDbLine
10
14933.402083333334
20
-10569.941666666669
30
0
11
14933.402083333334
21
-10516.760416666668
31
0
0
LINE
5
323
100
AcDbEntity
8
0
100
AcDbLine
10
14933.402083333334
20
-10516.760416666668
30
0
11
14943.98541666667
21
-10464.637500000001
31
0
0
LINE
5
324
100
AcDbEntity
8
0
100
AcDbLine
10
14943.98541666667
20
-10464.637500000001
30
0
11
14964.358333333337
21
-10415.689583333335
31
0
0
LINE
5
325
100
AcDbEntity
8
0
100
AcDbLine
10
14964.358333333337
20
-10415.689583333335
30
0
11
14984.202083333334
21
-10385.791666666668
31
0
0
LINE
5
326
100
AcDbEntity
8
0
100
AcDbLine
10
14984.202083333334
20
-10385.791666666668
30
0
11
14993.727083333335
21
-10371.239583333336
31
0
0
LINE
5
327
100
AcDbEntity
8
0
100
AcDbLine
10
14993.727083333335
20
-10371.239583333336
30
0
11
15031.29791666667
21
-10333.668750000001
31
0
0
LINE
5
328
100
AcDbEntity
8
0
100
AcDbLine
10
15031.29791666667
20
-10333.668750000001
30
0
11
15050.347916666669
21
-10321.233333333334
31
0
0
LINE
5
329
100
AcDbEntity
8
0
100
AcDbLine
10
15050.347916666669
20
-10321.233333333334
30
0
11
15075.483333333337
21
-10304.300000000001
31
0
0
LINE
5
330
100
AcDbEntity
8
0
100
AcDbLine
10
15075.483333333337
20
-10304.300000000001
30
0
11
15124.695833333337
21
-10283.927083333332
31
0
0
LINE
5
331
100
AcDbEntity
8
0
100
AcDbLine
10
15124.695833333337
20
-10283.927083333332
30
0
11
15142.158333333335
21
-10280.487500000001
31
0
0
LINE
5
332
100
AcDbEntity
8
0
100
AcDbLine
10
15142.158333333335
20
-10280.487500000001
30
0
11
15176.818750000002
21
-10273.608333333334
31
0
0
LINE
5
333
100
AcDbEntity
8
0
100
AcDbLine
10
15176.818750000002
20
-10273.608333333334
30
0
11
15230.000000000002
21
-10273.608333333334
31
0
0
LINE
5
334
100
AcDbEntity
8
0
100
AcDbLine
10
15230.000000000002
20
-10273.608333333334
30
0
11
15264.660416666668
21
-10280.487500000001
31
0
0
LINE
5
335
100
AcDbEntity
8
0
100
AcDbLine
10
16058.410416666668
20
-10280.487500000001
30
0
11
16075.872916666667
21
-10283.927083333336
31
0
0
LINE
5
336
100
AcDbEntity
8
0
100
AcDbLine
10
16075.872916666667
20
-10283.927083333336
30
0
11
16125.08541666667
21
-10304.300000000003
31
0
0
LINE
5
337
100
AcDbEntity
8
0
100
AcDbLine
10
16125.08541666667
20
-10304.300000000003
30
0
11
16150.220833333335
21
-10321.233333333334
31
0
0
LINE
5
338
100
AcDbEntity
8
0
100
AcDbLine
10
16150.220833333335
20
-10321.233333333334
30
0
11
16169.270833333336
21
-10333.668750000001
31
0
0
LINE
5
339
100
AcDbEntity
8
0
100
AcDbLine
10
16169.270833333336
20
-10333.668750000001
30
0
11
16206.841666666669
21
-10371.239583333336
31
0
0
LINE
5
340
100
AcDbEntity
8
0
100
AcDbLine
10
16206.841666666669
20
-10371.239583333336
30
0
11
16216.36666666667
21
-10385.791666666668
31
0
0
LINE
5
341
100
AcDbEntity
8
0
100
AcDbLine
10
16216.36666666667
20
-10385.791666666668
30
0
11
16236.210416666669
21
-10415.689583333335
31
0
0
LINE
5
342
100
AcDbEntity
8
0
100
AcDbLine
10
16236.210416666669
20
-10415.689583333335
30
0
11
16256.583333333338
21
-10464.637500000001
31
0
0
LINE
5
343
100
AcDbEntity
8
0
100
AcDbLine
10
16256.583333333338
20
-10464.637500000001
30
0
11
16267.16666666667
21
-10516.760416666668
31
0
0
LINE
5
344
100
AcDbEntity
8
0
100
AcDbLine
10
16267.16666666667
20
-10516.760416666668
30
0
11
16267.16666666667
21
-10569.941666666669
31
0
0
LINE
5
345
100
AcDbEntity
8
0
100
AcDbLine
10
16267.16666666667
20
-10569.941666666669
30
0
11
16260.022916666669
21
-10604.866666666669
31
0
0
LINE
5
346
100
AcDbEntity
8
0
100
AcDbLine
10
16260.022916666669
20
-10604.866666666669
30
0
11
16256.583333333336
21
-10622.064583333336
31
0
0
LINE
5
347
100
AcDbEntity
8
0
100
AcDbLine
10
16256.583333333336
20
-10622.064583333336
30
0
11
16236.210416666669
21
-10671.277083333336
31
0
0
LINE
5
348
100
AcDbEntity
8
0
100
AcDbLine
10
16236.210416666669
20
-10671.277083333336
30
0
11
16219.541666666672
21
-10696.412500000002
31
0
0
LINE
5
349
100
AcDbEntity
8
0
100
AcDbLine
10
16219.541666666672
20
-10696.412500000002
30
0
11
16206.841666666669
21
-10715.462500000001
31
0
0
LINE
5
350
100
AcDbEntity
8
0
100
AcDbLine
10
16206.841666666669
20
-10715.462500000001
30
0
11
16169.270833333336
21
-10753.033333333335
31
0
0
LINE
5
351
100
AcDbEntity
8
0
100
AcDbLine
10
16169.270833333336
20
-10753.033333333335
30
0
11
16150.220833333335
21
-10765.733333333335
31
0
0
LINE
5
352
100
AcDbEntity
8
0
100
AcDbLine
10
16150.220833333335
20
-10765.733333333335
30
0
11
16125.085416666669
21
-10782.666666666668
31
0
0
LINE
5
353
100
AcDbEntity
8
0
100
AcDbLine
10
16125.085416666669
20
-10782.666666666668
30
0
11
16075.872916666667
21
-10803.039583333337
31
0
0
LINE
5
354
100
AcDbEntity
8
0
100
AcDbLine
10
16075.872916666667
20
-10803.039583333337
30
0
11
16058.410416666669
21
-10806.479166666668
31
0
0
LINE
5
355
100
AcDbEntity
8
0
100
AcDbLine
10
16058.410416666669
20
-10806.479166666668
30
0
11
16023.750000000002
21
-10813.358333333335
31
0
0
LINE
5
356
100
AcDbEntity
8
0
100
AcDbLine
10
16023.750000000002
20
-10813.358333333335
30
0
11
15970.568750000002
21
-10813.358333333335
31
0
0
LINE
5
357
100
AcDbEntity
8
0
100
AcDbLine
10
15970.568750000002
20
-10813.358333333335
30
0
11
15935.908333333336
21
-10806.479166666668
31
0
0
LINE
5
358
100
AcDbEntity
8
0
100
AcDbLine
10
15935.908333333336
20
-10806.479166666668
30
0
11
15918.445833333337
21
-10803.039583333335
31
0
0
LINE
5
359
100
AcDbEntity
8
0
100
AcDbLine
10
15918.445833333337
20
-10803.039583333335
30
0
11
15869.233333333334
21
-10782.666666666666
31
0
0
LINE
5
360
100
AcDbEntity
8
0
100
AcDbLine
10
15869.233333333334
20
-10782.666666666666
30
0
11
15844.097916666669
21
-10765.733333333335
31
0
0
LINE
5
361
100
AcDbEntity
8
0
100
AcDbLine
10
15844.097916666669
20
-10765.733333333335
30
0
11
15825.04791666667
21
-10753.033333333335
31
0
0
LINE
5
362
100
AcDbEntity
8
0
100
AcDbLine
10
15825.04791666667
20
-10753.033333333335
30
0
11
15787.477083333335
21
-10715.462500000001
31
0
0
LINE
5
363
100
AcDbEntity
8
0
100
AcDbLine
10
15787.477083333335
20
-10715.462500000001
30
0
11
15774.777083333336
21
-10696.412500000002
31
0
0
LINE
5
364
100
AcDbEntity
8
0
100
AcDbLine
10
15774.777083333336
20
-10696.412500000002
30
0
11
15758.108333333337
21
-10671.277083333334
31
0
0
LINE
5
365
100
AcDbEntity
8
0
100
AcDbLine
10
15758.108333333337
20
-10671.277083333334
30
0
11
15737.735416666666
21
-10622.064583333333
31
0
0
LINE
5
366
100
AcDbEntity
8
0
100
AcDbLine
10
15737.735416666666
20
-10622.064583333333
30
0
11
15734.295833333335
21
-10604.866666666669
31
0
0
LINE
5
367
100
AcDbEntity
8
0
100
AcDbLine
10
15734.295833333335
20
-10604.866666666669
30
0
11
15727.152083333334
21
-10569.941666666669
31
0
0
LINE
5
368
100
AcDbEntity
8
0
100
AcDbLine
10
15727.152083333334
20
-10569.941666666669
30
0
11
15727.152083333334
21
-10516.760416666668
31
0
0
LINE
5
369
100
AcDbEntity
8
0
100
AcDbLine
10
15727.152083333334
20
-10516.760416666668
30
0
11
15737.73541666667
21
-10464.637500000001
31
0
0
LINE
5
370
100
AcDbEntity
8
0
100
AcDbLine
10
15737.73541666667
20
-10464.637500000001
30
0
11
15758.108333333337
21
-10415.689583333335
31
0
0
LINE
5
371
100
AcDbEntity
8
0
100
AcDbLine
10
15758.108333333337
20
-10415.689583333335
30
0
11
15777.952083333334
21
-10385.791666666668
31
0
0
LINE
5
372
100
AcDbEntity
8
0
100
AcDbLine
10
15777.952083333334
20
-10385.791666666668
30
0
11
15787.477083333335
21
-10371.239583333336
31
0
0
LINE
5
373
100
AcDbEntity
8
0
100
AcDbLine
10
15787.477083333335
20
-10371.239583333336
30
0
11
15825.04791666667
21
-10333.668750000001
31
0
0
LINE
5
374
100
AcDbEntity
8
0
100
AcDbLine
10
15825.04791666667
20
-10333.668750000001
30
0
11
15844.097916666669
21
-10321.233333333334
31
0
0
LINE
5
375
100
AcDbEntity
8
0
100
AcDbLine
10
15844.097916666669
20
-10321.233333333334
30
0
11
15869.233333333337
21
-10304.300000000001
31
0
0
LINE
5
376
100
AcDbEntity
8
0
100
AcDbLine
10
15869.233333333337
20
-10304.300000000001
30
0
11
15918.445833333337
21
-10283.927083333332
31
0
0
LINE
5
377
100
AcDbEntity
8
0
100
AcDbLine
10
15918.445833333337
20
-10283.927083333332
30
0
11
15935.908333333335
21
-10280.487500000001
31
0
0
LINE
5
378
100
AcDbEntity
8
0
100
AcDbLine
10
15935.908333333335
20
-10280.487500000001
30
0
11
15970.568750000002
21
-10273.608333333334
31
0
0
LINE
5
379
100
AcDbEntity
8
0
100
AcDbLine
10
15970.568750000002
20
-10273.608333333334
30
0
11
16023.750000000002
21
-10273.608333333334
31
0
0
LINE
5
380
100
AcDbEntity
8
0
100
AcDbLine
10
16023.750000000002
20
-10273.608333333334
30
0
11
16058.410416666668
21
-10280.487500000001
31
0
0
LWPOLYLINE
5
381
100
AcDbEntity
8
0
100
AcDbPolyline
90
4
70
1
43
0.0
10
16195.72916666667
20
-10874.212500000001
10
16195.72916666667
20
-10212.754166666669
10
14211.35416666667
20
-10212.754166666668
10
14211.35416666667
20
-10874.212500000001
0
LINE
5
382
100
AcDbEntity
8
0
100
AcDbLine
10
13375.270833333336
20
-7072.4145833333341
30
0
11
16916.983333333337
21
-7072.4145833333341
31
0
0
LINE
5
383
100
AcDbEntity
8
0
100
AcDbLine
10
13219.16666666667
20
-13166.033333333335
30
0
11
13219.16666666667
21
-10979.516666666668
31
0
0
LINE
5
384
100
AcDbEntity
8
0
100
AcDbLine
10
17073.087500000001
20
-7228.5187500000011
30
0
11
17073.087500000001
21
-10456.964583333334
31
0
0
ARC
5
385
100
AcDbEntity
8
0
100
AcDbCircle
10
16917.075253316085
20
-7228.7441232571382
30
0
40
156.24995880126977
100
AcDbArc
50
-0.0047138746616818454
51
89.995049665660488
0
ARC
5
386
100
AcDbEntity
8
0
100
AcDbCircle
10
13375.416624939127
20
-7228.7441232681567
30
0
40
156.24995880126852
100
AcDbArc
50
89.995096651314071
51
180.00471387064115
0
LINE
5
387
100
AcDbEntity
8
0
100
AcDbLine
10
17073.087500000001
20
-10979.516666666668
30
0
11
17073.087500000001
21
-13166.033333333335
31
0
0
ARC
5
388
100
AcDbEntity
8
0
100
AcDbCircle
10
16969.158491667153
20
-10979.571607164033
30
0
40
104.16671994527258
100
AcDbArc
50
0.0012268825328942744
51
68.263517952656045
0
ARC
5
389
100
AcDbEntity
8
0
100
AcDbCircle
10
16917.075253274423
20
-13166.257545037141
30
0
40
156.24995880127005
100
AcDbArc
50
-89.99504965038328
51
0.0045243808147390702
0
ARC
5
390
100
AcDbEntity
8
0
100
AcDbCircle
10
13323.333383697707
20
-10457.094643311231
30
0
40
104.16671994527313
100
AcDbArc
50
179.98644700313574
51
248.26351966415581
0
ARC
5
391
100
AcDbEntity
8
0
100
AcDbCircle
10
13219.141258984411
20
-10718.333125813804
30
0
40
177.08324788411463
100
AcDbArc
50
-68.25150207183556
51
68.251502071837123
0
LINE
5
392
100
AcDbEntity
8
0
100
AcDbLine
10
16916.983333333334
20
-13322.402083333336
30
0
11
13375.270833333334
21
-13322.402083333336
31
0
0
LINE
5
393
100
AcDbEntity
8
0
100
AcDbLine
10
13219.16666666667
20
-10456.964583333336
30
0
11
13219.16666666667
21
-7228.518750000002
31
0
0
ARC
5
394
100
AcDbEntity
8
0
100
AcDbCircle
10
13323.33338658806
20
-10979.571607164033
30
0
40
104.16671994527212
100
AcDbArc
50
111.73648204734172
51
179.9987731174671
0
ARC
5
395
100
AcDbEntity
8
0
100
AcDbCircle
10
13375.416624980789
20
-13166.257545026114
30
0
40
156.24995880126886
100
AcDbArc
50
179.99547562321305
51
270.00490333340872
0
ARC
5
396
100
AcDbEntity
8
0
100
AcDbCircle
10
17073.351316593078
20
-10718.333125813804
30
0
40
177.08350626627652
100
AcDbArc
50
111.7487074885902
51
248.25129251140956
0
ARC
5
397
100
AcDbEntity
8
0
100
AcDbCircle
10
16969.158494557505
20
-10457.094643311231
30
0
40
104.16671994527319
100
AcDbArc
50
-68.263519664155879
51
0.013552996864263896
0
ENDSEC
0
SECTION
2
OBJECTS
0
DICTIONARY
5
C
100
AcDbDictionary
3
ACAD_GROUP
350
D
3
ACAD_MLINESTYLE
350
17
0
DICTIONARY
5
D
100
AcDbDictionary
0
DICTIONARY
5
1A
330
C
100
AcDbDictionary
0
DICTIONARY
5
17
100
AcDbDictionary
0
ENDSEC
0
EOF
