<?xml version="1.0" encoding="UTF-8" standalone="no"?>
<svg
   xmlns:dc="http://purl.org/dc/elements/1.1/"
   xmlns:cc="http://creativecommons.org/ns#"
   xmlns:rdf="http://www.w3.org/1999/02/22-rdf-syntax-ns#"
   xmlns:svg="http://www.w3.org/2000/svg"
   xmlns="http://www.w3.org/2000/svg"
   xmlns:sodipodi="http://sodipodi.sourceforge.net/DTD/sodipodi-0.dtd"
   xmlns:inkscape="http://www.inkscape.org/namespaces/inkscape"
   width="793.700787402"
   height="1122.51968504"
   version="1.1"
   id="svg5336"
   sodipodi:docname="face-v6.svg"
   inkscape:version="0.92.4 (5da689c313, 2019-01-14)">
  <metadata
     id="metadata5340">
    <rdf:RDF>
      <cc:Work
         rdf:about="">
        <dc:format>image/svg+xml</dc:format>
        <dc:type
           rdf:resource="http://purl.org/dc/dcmitype/StillImage" />
        <dc:title></dc:title>
      </cc:Work>
    </rdf:RDF>
  </metadata>
  <sodipodi:namedview
     pagecolor="#ffffff"
     bordercolor="#666666"
     borderopacity="1"
     objecttolerance="10"
     gridtolerance="10"
     guidetolerance="10"
     inkscape:pageopacity="0"
     inkscape:pageshadow="2"
     inkscape:window-width="1920"
     inkscape:window-height="986"
     id="namedview5338"
     showgrid="false"
     inkscape:zoom="1.6819305"
     inkscape:cx="200.39857"
     inkscape:cy="243.27233"
     inkscape:window-x="-11"
     inkscape:window-y="-11"
     inkscape:window-maximized="1"
     inkscape:current-layer="g5334" />
  <desc
     id="desc4722">C:\Users\opatiny\git\opatiny\oceane.patiny\xiaomiRemake\exports\fusion360\2D\face-v6.dxf - scale = 1.000000, origin = (0.000000, 0.000000), method = manual</desc>
  <defs
     id="defs4736">
    <marker
       id="DistanceX"
       orient="auto"
       refX="0.0"
       refY="0.0"
       style="overflow:visible">
      <path
         d="M 3,-3 L -3,3 M 0,-5 L  0,5"
         style="stroke:#000000; stroke-width:0.5"
         id="path4724" />
    </marker>
    <pattern
       height="8"
       id="Hatch"
       patternUnits="userSpaceOnUse"
       width="8"
       x="0"
       y="0">
      <path
         d="M8 4 l-4,4"
         linecap="square"
         stroke="#000000"
         stroke-width="0.25"
         id="path4727" />
      <path
         d="M6 2 l-4,4"
         linecap="square"
         stroke="#000000"
         stroke-width="0.25"
         id="path4729" />
      <path
         d="M4 0 l-4,4"
         linecap="square"
         stroke="#000000"
         stroke-width="0.25"
         id="path4731" />
    </pattern>
    <symbol
       id="*MODEL_SPACE" />
    <symbol
       id="*PAPER_SPACE" />
  </defs>
  <g
     inkscape:groupmode="layer"
     inkscape:label="0"
     id="g5334">
    <path
       d="M 0.000000,1103.622047 L 0.000000,725.669291 L 37.795276,725.669291 L 37.795276,706.771654 L 147.919691,706.771654 L 147.919691,725.669291 L 258.044107,725.669291 L 258.044107,706.771654 L 368.168523,706.771654 L 368.168523,725.669291 L 478.292938,725.669291 L 478.292938,706.771654 L 588.417354,706.771654 L 588.417354,725.669291 L 626.212630,725.669291 L 626.212630,1103.622047 L 588.417354,1103.622047 L 588.417354,1122.519685 L 478.292938,1122.519685 L 478.292938,1103.622047 L 368.168523,1103.622047 L 368.168523,1122.519685 L 258.044107,1122.519685 L 258.044107,1103.622047 L 147.919691,1103.622047 L 147.919691,1122.519685 L 37.795276,1122.519685 L 37.795276,1103.622047 L 0.000000,1103.622047 z"
       style="stroke:#000000;fill:none"
       id="path4738" />
    <path
       d="M 585.015779,788.661417 A 6.047244,6.047244 -0.000000 1 0 572.921291,788.661417 6.047244,6.047244 -0.000000 1 0 585.015779,788.661417 z"
       style="stroke:#000000;fill:none"
       id="path4740" />
    <path
       d="M 319.153559,797.480315 A 6.047244,6.047244 -0.000000 1 0 307.059071,797.480315 6.047244,6.047244 -0.000000 1 0 319.153559,797.480315 z"
       style="stroke:#000000;fill:none"
       id="path4744" />
    <path
       d="M 319.153559,1069.606299 A 6.047244,6.047244 -0.000000 1 0 307.059071,1069.606299 6.047244,6.047244 -0.000000 1 0 319.153559,1069.606299 z"
       style="stroke:#000000;fill:none"
       id="path4746" />
    <path
       d="M 53.291339,788.661417 A 6.047244,6.047244 -0.000000 1 0 41.196850,788.661417 6.047244,6.047244 -0.000000 1 0 53.291339,788.661417 z"
       style="stroke:#000000;fill:none"
       id="path4748" />
    <path
       d="M 585.015779,914.645669 A 6.047244,6.047244 -0.000000 1 0 572.921291,914.645669 6.047244,6.047244 -0.000000 1 0 585.015779,914.645669 z"
       style="stroke:#000000;fill:none"
       id="path4750" />
    <path
       d="M 53.291339,914.645669 A 6.047244,6.047244 -0.000000 1 0 41.196850,914.645669 6.047244,6.047244 -0.000000 1 0 53.291339,914.645669 z"
       style="stroke:#000000;fill:none"
       id="path4752" />
    <path
       d="M 585.015779,1040.629921 A 6.047244,6.047244 -0.000000 1 0 572.921291,1040.629921 6.047244,6.047244 -0.000000 1 0 585.015779,1040.629921 z"
       style="stroke:#000000;fill:none"
       id="path4754" />
    <path
       d="M 53.291339,1040.629921 A 6.047244,6.047244 -0.000000 1 0 41.196850,1040.629921 6.047244,6.047244 -0.000000 1 0 53.291339,1040.629921 z"
       style="stroke:#000000;fill:none"
       id="path4756" />
    <path
       d="M 352.791354,946.771654 L 273.421275,946.771654 L 273.421275,920.314961 L 352.791354,920.314961 L 352.791354,946.771654 z"
       style="stroke:#000000;fill:none"
       id="path4758" />
    <path
       d="M 54693.204724,39977.905512 54759.204724,39990.905512"
       style="stroke:#000000;fill:none"
       id="path4760" />
    <path
       d="M 54759.204724,39990.905512 54945.204724,40067.905512"
       style="stroke:#000000;fill:none"
       id="path4762" />
    <path
       d="M 54945.204724,40067.905512 55040.204724,40131.905512"
       style="stroke:#000000;fill:none"
       id="path4764" />
    <path
       d="M 55040.204724,40131.905512 55112.204724,40178.905512"
       style="stroke:#000000;fill:none"
       id="path4766" />
    <path
       d="M 55112.204724,40178.905512 55254.204724,40320.905512"
       style="stroke:#000000;fill:none"
       id="path4768" />
    <path
       d="M 55254.204724,40320.905512 55302.204724,40392.905512"
       style="stroke:#000000;fill:none"
       id="path4770" />
    <path
       d="M 55302.204724,40392.905512 55365.204724,40488.905512"
       style="stroke:#000000;fill:none"
       id="path4772" />
    <path
       d="M 55365.204724,40488.905512 55442.204724,40673.905512"
       style="stroke:#000000;fill:none"
       id="path4774" />
    <path
       d="M 55442.204724,40673.905512 55482.204724,40870.905512"
       style="stroke:#000000;fill:none"
       id="path4776" />
    <path
       d="M 55482.204724,40870.905512 55482.204724,41071.905512"
       style="stroke:#000000;fill:none"
       id="path4778" />
    <path
       d="M 55482.204724,41071.905512 55442.204724,41268.905512"
       style="stroke:#000000;fill:none"
       id="path4780" />
    <path
       d="M 55442.204724,41268.905512 55365.204724,41454.905512"
       style="stroke:#000000;fill:none"
       id="path4782" />
    <path
       d="M 55365.204724,41454.905512 55302.204724,41549.905512"
       style="stroke:#000000;fill:none"
       id="path4784" />
    <path
       d="M 55302.204724,41549.905512 55254.204724,41621.905512"
       style="stroke:#000000;fill:none"
       id="path4786" />
    <path
       d="M 55254.204724,41621.905512 55112.204724,41763.905512"
       style="stroke:#000000;fill:none"
       id="path4788" />
    <path
       d="M 55112.204724,41763.905512 55040.204724,41811.905512"
       style="stroke:#000000;fill:none"
       id="path4790" />
    <path
       d="M 55040.204724,41811.905512 54945.204724,41875.905512"
       style="stroke:#000000;fill:none"
       id="path4792" />
    <path
       d="M 54945.204724,41875.905512 54759.204724,41952.905512"
       style="stroke:#000000;fill:none"
       id="path4794" />
    <path
       d="M 54759.204724,41952.905512 54693.204724,41965.905512"
       style="stroke:#000000;fill:none"
       id="path4796" />
    <path
       d="M 54693.204724,41965.905512 54562.204724,41991.905512"
       style="stroke:#000000;fill:none"
       id="path4798" />
    <path
       d="M 54562.204724,41991.905512 54361.204724,41991.905512"
       style="stroke:#000000;fill:none"
       id="path4800" />
    <path
       d="M 54361.204724,41991.905512 54230.204724,41965.905512"
       style="stroke:#000000;fill:none"
       id="path4802" />
    <path
       d="M 54230.204724,41965.905512 54164.204724,41952.905512"
       style="stroke:#000000;fill:none"
       id="path4804" />
    <path
       d="M 54164.204724,41952.905512 53978.204724,41875.905512"
       style="stroke:#000000;fill:none"
       id="path4806" />
    <path
       d="M 53978.204724,41875.905512 53883.204724,41811.905512"
       style="stroke:#000000;fill:none"
       id="path4808" />
    <path
       d="M 53883.204724,41811.905512 53811.204724,41763.905512"
       style="stroke:#000000;fill:none"
       id="path4810" />
    <path
       d="M 53811.204724,41763.905512 53669.204724,41621.905512"
       style="stroke:#000000;fill:none"
       id="path4812" />
    <path
       d="M 53669.204724,41621.905512 53621.204724,41549.905512"
       style="stroke:#000000;fill:none"
       id="path4814" />
    <path
       d="M 53621.204724,41549.905512 53558.204724,41454.905512"
       style="stroke:#000000;fill:none"
       id="path4816" />
    <path
       d="M 53558.204724,41454.905512 53481.204724,41268.905512"
       style="stroke:#000000;fill:none"
       id="path4818" />
    <path
       d="M 53481.204724,41268.905512 53441.204724,41071.905512"
       style="stroke:#000000;fill:none"
       id="path4820" />
    <path
       d="M 53441.204724,41071.905512 53441.204724,40870.905512"
       style="stroke:#000000;fill:none"
       id="path4822" />
    <path
       d="M 53441.204724,40870.905512 53481.204724,40673.905512"
       style="stroke:#000000;fill:none"
       id="path4824" />
    <path
       d="M 53481.204724,40673.905512 53558.204724,40488.905512"
       style="stroke:#000000;fill:none"
       id="path4826" />
    <path
       d="M 53558.204724,40488.905512 53621.204724,40392.905512"
       style="stroke:#000000;fill:none"
       id="path4828" />
    <path
       d="M 53621.204724,40392.905512 53669.204724,40320.905512"
       style="stroke:#000000;fill:none"
       id="path4830" />
    <path
       d="M 53669.204724,40320.905512 53811.204724,40178.905512"
       style="stroke:#000000;fill:none"
       id="path4832" />
    <path
       d="M 53811.204724,40178.905512 53883.204724,40131.905512"
       style="stroke:#000000;fill:none"
       id="path4834" />
    <path
       d="M 53883.204724,40131.905512 53978.204724,40067.905512"
       style="stroke:#000000;fill:none"
       id="path4836" />
    <path
       d="M 53978.204724,40067.905512 54164.204724,39990.905512"
       style="stroke:#000000;fill:none"
       id="path4838" />
    <path
       d="M 54164.204724,39990.905512 54230.204724,39977.905512"
       style="stroke:#000000;fill:none"
       id="path4840" />
    <path
       d="M 54230.204724,39977.905512 54361.204724,39951.905512"
       style="stroke:#000000;fill:none"
       id="path4842" />
    <path
       d="M 54361.204724,39951.905512 54562.204724,39951.905512"
       style="stroke:#000000;fill:none"
       id="path4844" />
    <path
       d="M 54562.204724,39951.905512 54693.204724,39977.905512"
       style="stroke:#000000;fill:none"
       id="path4846" />
    <path
       d="M 60693.204724,39977.905512 60759.204724,39990.905512"
       style="stroke:#000000;fill:none"
       id="path4848" />
    <path
       d="M 60759.204724,39990.905512 60945.204724,40067.905512"
       style="stroke:#000000;fill:none"
       id="path4850" />
    <path
       d="M 60945.204724,40067.905512 61040.204724,40131.905512"
       style="stroke:#000000;fill:none"
       id="path4852" />
    <path
       d="M 61040.204724,40131.905512 61112.204724,40178.905512"
       style="stroke:#000000;fill:none"
       id="path4854" />
    <path
       d="M 61112.204724,40178.905512 61254.204724,40320.905512"
       style="stroke:#000000;fill:none"
       id="path4856" />
    <path
       d="M 61254.204724,40320.905512 61302.204724,40392.905512"
       style="stroke:#000000;fill:none"
       id="path4858" />
    <path
       d="M 61302.204724,40392.905512 61365.204724,40488.905512"
       style="stroke:#000000;fill:none"
       id="path4860" />
    <path
       d="M 61365.204724,40488.905512 61442.204724,40673.905512"
       style="stroke:#000000;fill:none"
       id="path4862" />
    <path
       d="M 61442.204724,40673.905512 61482.204724,40870.905512"
       style="stroke:#000000;fill:none"
       id="path4864" />
    <path
       d="M 61482.204724,40870.905512 61482.204724,41071.905512"
       style="stroke:#000000;fill:none"
       id="path4866" />
    <path
       d="M 61482.204724,41071.905512 61442.204724,41268.905512"
       style="stroke:#000000;fill:none"
       id="path4868" />
    <path
       d="M 61442.204724,41268.905512 61365.204724,41454.905512"
       style="stroke:#000000;fill:none"
       id="path4870" />
    <path
       d="M 61365.204724,41454.905512 61302.204724,41549.905512"
       style="stroke:#000000;fill:none"
       id="path4872" />
    <path
       d="M 61302.204724,41549.905512 61254.204724,41621.905512"
       style="stroke:#000000;fill:none"
       id="path4874" />
    <path
       d="M 61254.204724,41621.905512 61112.204724,41763.905512"
       style="stroke:#000000;fill:none"
       id="path4876" />
    <path
       d="M 61112.204724,41763.905512 61040.204724,41811.905512"
       style="stroke:#000000;fill:none"
       id="path4878" />
    <path
       d="M 61040.204724,41811.905512 60945.204724,41875.905512"
       style="stroke:#000000;fill:none"
       id="path4880" />
    <path
       d="M 60945.204724,41875.905512 60759.204724,41952.905512"
       style="stroke:#000000;fill:none"
       id="path4882" />
    <path
       d="M 60759.204724,41952.905512 60693.204724,41965.905512"
       style="stroke:#000000;fill:none"
       id="path4884" />
    <path
       d="M 60693.204724,41965.905512 60562.204724,41991.905512"
       style="stroke:#000000;fill:none"
       id="path4886" />
    <path
       d="M 60562.204724,41991.905512 60361.204724,41991.905512"
       style="stroke:#000000;fill:none"
       id="path4888" />
    <path
       d="M 60361.204724,41991.905512 60230.204724,41965.905512"
       style="stroke:#000000;fill:none"
       id="path4890" />
    <path
       d="M 60230.204724,41965.905512 60164.204724,41952.905512"
       style="stroke:#000000;fill:none"
       id="path4892" />
    <path
       d="M 60164.204724,41952.905512 59978.204724,41875.905512"
       style="stroke:#000000;fill:none"
       id="path4894" />
    <path
       d="M 59978.204724,41875.905512 59883.204724,41811.905512"
       style="stroke:#000000;fill:none"
       id="path4896" />
    <path
       d="M 59883.204724,41811.905512 59811.204724,41763.905512"
       style="stroke:#000000;fill:none"
       id="path4898" />
    <path
       d="M 59811.204724,41763.905512 59669.204724,41621.905512"
       style="stroke:#000000;fill:none"
       id="path4900" />
    <path
       d="M 59669.204724,41621.905512 59621.204724,41549.905512"
       style="stroke:#000000;fill:none"
       id="path4902" />
    <path
       d="M 59621.204724,41549.905512 59558.204724,41454.905512"
       style="stroke:#000000;fill:none"
       id="path4904" />
    <path
       d="M 59558.204724,41454.905512 59481.204724,41268.905512"
       style="stroke:#000000;fill:none"
       id="path4906" />
    <path
       d="M 59481.204724,41268.905512 59441.204724,41071.905512"
       style="stroke:#000000;fill:none"
       id="path4908" />
    <path
       d="M 59441.204724,41071.905512 59441.204724,40870.905512"
       style="stroke:#000000;fill:none"
       id="path4910" />
    <path
       d="M 59441.204724,40870.905512 59481.204724,40673.905512"
       style="stroke:#000000;fill:none"
       id="path4912" />
    <path
       d="M 59481.204724,40673.905512 59558.204724,40488.905512"
       style="stroke:#000000;fill:none"
       id="path4914" />
    <path
       d="M 59558.204724,40488.905512 59621.204724,40392.905512"
       style="stroke:#000000;fill:none"
       id="path4916" />
    <path
       d="M 59621.204724,40392.905512 59669.204724,40320.905512"
       style="stroke:#000000;fill:none"
       id="path4918" />
    <path
       d="M 59669.204724,40320.905512 59811.204724,40178.905512"
       style="stroke:#000000;fill:none"
       id="path4920" />
    <path
       d="M 59811.204724,40178.905512 59883.204724,40131.905512"
       style="stroke:#000000;fill:none"
       id="path4922" />
    <path
       d="M 59883.204724,40131.905512 59978.204724,40067.905512"
       style="stroke:#000000;fill:none"
       id="path4924" />
    <path
       d="M 59978.204724,40067.905512 60164.204724,39990.905512"
       style="stroke:#000000;fill:none"
       id="path4926" />
    <path
       d="M 60164.204724,39990.905512 60230.204724,39977.905512"
       style="stroke:#000000;fill:none"
       id="path4928" />
    <path
       d="M 60230.204724,39977.905512 60361.204724,39951.905512"
       style="stroke:#000000;fill:none"
       id="path4930" />
    <path
       d="M 60361.204724,39951.905512 60562.204724,39951.905512"
       style="stroke:#000000;fill:none"
       id="path4932" />
    <path
       d="M 60562.204724,39951.905512 60693.204724,39977.905512"
       style="stroke:#000000;fill:none"
       id="path4934" />
    <path
       d="M 57693.204724,39977.905512 57759.204724,39990.905512"
       style="stroke:#000000;fill:none"
       id="path4936" />
    <path
       d="M 57759.204724,39990.905512 57945.204724,40067.905512"
       style="stroke:#000000;fill:none"
       id="path4938" />
    <path
       d="M 57945.204724,40067.905512 58040.204724,40131.905512"
       style="stroke:#000000;fill:none"
       id="path4940" />
    <path
       d="M 58040.204724,40131.905512 58112.204724,40178.905512"
       style="stroke:#000000;fill:none"
       id="path4942" />
    <path
       d="M 58112.204724,40178.905512 58254.204724,40320.905512"
       style="stroke:#000000;fill:none"
       id="path4944" />
    <path
       d="M 58254.204724,40320.905512 58302.204724,40392.905512"
       style="stroke:#000000;fill:none"
       id="path4946" />
    <path
       d="M 58302.204724,40392.905512 58365.204724,40488.905512"
       style="stroke:#000000;fill:none"
       id="path4948" />
    <path
       d="M 58365.204724,40488.905512 58442.204724,40673.905512"
       style="stroke:#000000;fill:none"
       id="path4950" />
    <path
       d="M 58442.204724,40673.905512 58482.204724,40870.905512"
       style="stroke:#000000;fill:none"
       id="path4952" />
    <path
       d="M 58482.204724,40870.905512 58482.204724,41071.905512"
       style="stroke:#000000;fill:none"
       id="path4954" />
    <path
       d="M 58482.204724,41071.905512 58442.204724,41268.905512"
       style="stroke:#000000;fill:none"
       id="path4956" />
    <path
       d="M 58442.204724,41268.905512 58365.204724,41454.905512"
       style="stroke:#000000;fill:none"
       id="path4958" />
    <path
       d="M 58365.204724,41454.905512 58302.204724,41549.905512"
       style="stroke:#000000;fill:none"
       id="path4960" />
    <path
       d="M 58302.204724,41549.905512 58254.204724,41621.905512"
       style="stroke:#000000;fill:none"
       id="path4962" />
    <path
       d="M 58254.204724,41621.905512 58112.204724,41763.905512"
       style="stroke:#000000;fill:none"
       id="path4964" />
    <path
       d="M 58112.204724,41763.905512 58040.204724,41811.905512"
       style="stroke:#000000;fill:none"
       id="path4966" />
    <path
       d="M 58040.204724,41811.905512 57945.204724,41875.905512"
       style="stroke:#000000;fill:none"
       id="path4968" />
    <path
       d="M 57945.204724,41875.905512 57759.204724,41952.905512"
       style="stroke:#000000;fill:none"
       id="path4970" />
    <path
       d="M 57759.204724,41952.905512 57693.204724,41965.905512"
       style="stroke:#000000;fill:none"
       id="path4972" />
    <path
       d="M 57693.204724,41965.905512 57562.204724,41991.905512"
       style="stroke:#000000;fill:none"
       id="path4974" />
    <path
       d="M 57562.204724,41991.905512 57361.204724,41991.905512"
       style="stroke:#000000;fill:none"
       id="path4976" />
    <path
       d="M 57361.204724,41991.905512 57230.204724,41965.905512"
       style="stroke:#000000;fill:none"
       id="path4978" />
    <path
       d="M 57230.204724,41965.905512 57164.204724,41952.905512"
       style="stroke:#000000;fill:none"
       id="path4980" />
    <path
       d="M 57164.204724,41952.905512 56978.204724,41875.905512"
       style="stroke:#000000;fill:none"
       id="path4982" />
    <path
       d="M 56978.204724,41875.905512 56883.204724,41811.905512"
       style="stroke:#000000;fill:none"
       id="path4984" />
    <path
       d="M 56883.204724,41811.905512 56811.204724,41763.905512"
       style="stroke:#000000;fill:none"
       id="path4986" />
    <path
       d="M 56811.204724,41763.905512 56669.204724,41621.905512"
       style="stroke:#000000;fill:none"
       id="path4988" />
    <path
       d="M 56669.204724,41621.905512 56621.204724,41549.905512"
       style="stroke:#000000;fill:none"
       id="path4990" />
    <path
       d="M 56621.204724,41549.905512 56558.204724,41454.905512"
       style="stroke:#000000;fill:none"
       id="path4992" />
    <path
       d="M 56558.204724,41454.905512 56481.204724,41268.905512"
       style="stroke:#000000;fill:none"
       id="path4994" />
    <path
       d="M 56481.204724,41268.905512 56441.204724,41071.905512"
       style="stroke:#000000;fill:none"
       id="path4996" />
    <path
       d="M 56441.204724,41071.905512 56441.204724,40870.905512"
       style="stroke:#000000;fill:none"
       id="path4998" />
    <path
       d="M 56441.204724,40870.905512 56481.204724,40673.905512"
       style="stroke:#000000;fill:none"
       id="path5000" />
    <path
       d="M 56481.204724,40673.905512 56558.204724,40488.905512"
       style="stroke:#000000;fill:none"
       id="path5002" />
    <path
       d="M 56558.204724,40488.905512 56621.204724,40392.905512"
       style="stroke:#000000;fill:none"
       id="path5004" />
    <path
       d="M 56621.204724,40392.905512 56669.204724,40320.905512"
       style="stroke:#000000;fill:none"
       id="path5006" />
    <path
       d="M 56669.204724,40320.905512 56811.204724,40178.905512"
       style="stroke:#000000;fill:none"
       id="path5008" />
    <path
       d="M 56811.204724,40178.905512 56883.204724,40131.905512"
       style="stroke:#000000;fill:none"
       id="path5010" />
    <path
       d="M 56883.204724,40131.905512 56978.204724,40067.905512"
       style="stroke:#000000;fill:none"
       id="path5012" />
    <path
       d="M 56978.204724,40067.905512 57164.204724,39990.905512"
       style="stroke:#000000;fill:none"
       id="path5014" />
    <path
       d="M 57164.204724,39990.905512 57230.204724,39977.905512"
       style="stroke:#000000;fill:none"
       id="path5016" />
    <path
       d="M 57230.204724,39977.905512 57361.204724,39951.905512"
       style="stroke:#000000;fill:none"
       id="path5018" />
    <path
       d="M 57361.204724,39951.905512 57562.204724,39951.905512"
       style="stroke:#000000;fill:none"
       id="path5020" />
    <path
       d="M 57562.204724,39951.905512 57693.204724,39977.905512"
       style="stroke:#000000;fill:none"
       id="path5022" />
    <path
       d="M 54693.204724,39977.905512 54759.204724,39990.905512"
       style="stroke:#000000;fill:none"
       id="path5024" />
    <path
       d="M 54759.204724,39990.905512 54945.204724,40067.905512"
       style="stroke:#000000;fill:none"
       id="path5026" />
    <path
       d="M 54945.204724,40067.905512 55040.204724,40131.905512"
       style="stroke:#000000;fill:none"
       id="path5028" />
    <path
       d="M 55040.204724,40131.905512 55112.204724,40178.905512"
       style="stroke:#000000;fill:none"
       id="path5030" />
    <path
       d="M 55112.204724,40178.905512 55254.204724,40320.905512"
       style="stroke:#000000;fill:none"
       id="path5032" />
    <path
       d="M 55254.204724,40320.905512 55290.204724,40375.905512"
       style="stroke:#000000;fill:none"
       id="path5034" />
    <path
       d="M 55290.204724,40375.905512 55365.204724,40488.905512"
       style="stroke:#000000;fill:none"
       id="path5036" />
    <path
       d="M 55365.204724,40488.905512 55442.204724,40673.905512"
       style="stroke:#000000;fill:none"
       id="path5038" />
    <path
       d="M 55442.204724,40673.905512 55482.204724,40870.905512"
       style="stroke:#000000;fill:none"
       id="path5040" />
    <path
       d="M 55482.204724,40870.905512 55482.204724,41071.905512"
       style="stroke:#000000;fill:none"
       id="path5042" />
    <path
       d="M 55482.204724,41071.905512 55455.204724,41203.905512"
       style="stroke:#000000;fill:none"
       id="path5044" />
    <path
       d="M 55455.204724,41203.905512 55442.204724,41268.905512"
       style="stroke:#000000;fill:none"
       id="path5046" />
    <path
       d="M 55442.204724,41268.905512 55365.204724,41454.905512"
       style="stroke:#000000;fill:none"
       id="path5048" />
    <path
       d="M 55365.204724,41454.905512 55302.204724,41549.905512"
       style="stroke:#000000;fill:none"
       id="path5050" />
    <path
       d="M 55302.204724,41549.905512 55254.204724,41621.905512"
       style="stroke:#000000;fill:none"
       id="path5052" />
    <path
       d="M 55254.204724,41621.905512 55112.204724,41763.905512"
       style="stroke:#000000;fill:none"
       id="path5054" />
    <path
       d="M 55112.204724,41763.905512 55040.204724,41811.905512"
       style="stroke:#000000;fill:none"
       id="path5056" />
    <path
       d="M 55040.204724,41811.905512 54945.204724,41875.905512"
       style="stroke:#000000;fill:none"
       id="path5058" />
    <path
       d="M 54945.204724,41875.905512 54759.204724,41952.905512"
       style="stroke:#000000;fill:none"
       id="path5060" />
    <path
       d="M 54759.204724,41952.905512 54693.204724,41965.905512"
       style="stroke:#000000;fill:none"
       id="path5062" />
    <path
       d="M 54693.204724,41965.905512 54562.204724,41991.905512"
       style="stroke:#000000;fill:none"
       id="path5064" />
    <path
       d="M 54562.204724,41991.905512 54361.204724,41991.905512"
       style="stroke:#000000;fill:none"
       id="path5066" />
    <path
       d="M 54361.204724,41991.905512 54230.204724,41965.905512"
       style="stroke:#000000;fill:none"
       id="path5068" />
    <path
       d="M 54230.204724,41965.905512 54164.204724,41952.905512"
       style="stroke:#000000;fill:none"
       id="path5070" />
    <path
       d="M 54164.204724,41952.905512 53978.204724,41875.905512"
       style="stroke:#000000;fill:none"
       id="path5072" />
    <path
       d="M 53978.204724,41875.905512 53883.204724,41811.905512"
       style="stroke:#000000;fill:none"
       id="path5074" />
    <path
       d="M 53883.204724,41811.905512 53811.204724,41763.905512"
       style="stroke:#000000;fill:none"
       id="path5076" />
    <path
       d="M 53811.204724,41763.905512 53669.204724,41621.905512"
       style="stroke:#000000;fill:none"
       id="path5078" />
    <path
       d="M 53669.204724,41621.905512 53621.204724,41549.905512"
       style="stroke:#000000;fill:none"
       id="path5080" />
    <path
       d="M 53621.204724,41549.905512 53558.204724,41454.905512"
       style="stroke:#000000;fill:none"
       id="path5082" />
    <path
       d="M 53558.204724,41454.905512 53481.204724,41268.905512"
       style="stroke:#000000;fill:none"
       id="path5084" />
    <path
       d="M 53481.204724,41268.905512 53468.204724,41203.905512"
       style="stroke:#000000;fill:none"
       id="path5086" />
    <path
       d="M 53468.204724,41203.905512 53441.204724,41071.905512"
       style="stroke:#000000;fill:none"
       id="path5088" />
    <path
       d="M 53441.204724,41071.905512 53441.204724,40870.905512"
       style="stroke:#000000;fill:none"
       id="path5090" />
    <path
       d="M 53441.204724,40870.905512 53481.204724,40673.905512"
       style="stroke:#000000;fill:none"
       id="path5092" />
    <path
       d="M 53481.204724,40673.905512 53558.204724,40488.905512"
       style="stroke:#000000;fill:none"
       id="path5094" />
    <path
       d="M 53558.204724,40488.905512 53633.204724,40375.905512"
       style="stroke:#000000;fill:none"
       id="path5096" />
    <path
       d="M 53633.204724,40375.905512 53669.204724,40320.905512"
       style="stroke:#000000;fill:none"
       id="path5098" />
    <path
       d="M 53669.204724,40320.905512 53811.204724,40178.905512"
       style="stroke:#000000;fill:none"
       id="path5100" />
    <path
       d="M 53811.204724,40178.905512 53883.204724,40131.905512"
       style="stroke:#000000;fill:none"
       id="path5102" />
    <path
       d="M 53883.204724,40131.905512 53978.204724,40067.905512"
       style="stroke:#000000;fill:none"
       id="path5104" />
    <path
       d="M 53978.204724,40067.905512 54164.204724,39990.905512"
       style="stroke:#000000;fill:none"
       id="path5106" />
    <path
       d="M 54164.204724,39990.905512 54230.204724,39977.905512"
       style="stroke:#000000;fill:none"
       id="path5108" />
    <path
       d="M 54230.204724,39977.905512 54361.204724,39951.905512"
       style="stroke:#000000;fill:none"
       id="path5110" />
    <path
       d="M 54361.204724,39951.905512 54562.204724,39951.905512"
       style="stroke:#000000;fill:none"
       id="path5112" />
    <path
       d="M 54562.204724,39951.905512 54693.204724,39977.905512"
       style="stroke:#000000;fill:none"
       id="path5114" />
    <path
       d="M 57693.204724,39977.905512 57759.204724,39990.905512"
       style="stroke:#000000;fill:none"
       id="path5116" />
    <path
       d="M 57759.204724,39990.905512 57945.204724,40067.905512"
       style="stroke:#000000;fill:none"
       id="path5118" />
    <path
       d="M 57945.204724,40067.905512 58040.204724,40131.905512"
       style="stroke:#000000;fill:none"
       id="path5120" />
    <path
       d="M 58040.204724,40131.905512 58112.204724,40178.905512"
       style="stroke:#000000;fill:none"
       id="path5122" />
    <path
       d="M 58112.204724,40178.905512 58254.204724,40320.905512"
       style="stroke:#000000;fill:none"
       id="path5124" />
    <path
       d="M 58254.204724,40320.905512 58290.204724,40375.905512"
       style="stroke:#000000;fill:none"
       id="path5126" />
    <path
       d="M 58290.204724,40375.905512 58365.204724,40488.905512"
       style="stroke:#000000;fill:none"
       id="path5128" />
    <path
       d="M 58365.204724,40488.905512 58442.204724,40673.905512"
       style="stroke:#000000;fill:none"
       id="path5130" />
    <path
       d="M 58442.204724,40673.905512 58482.204724,40870.905512"
       style="stroke:#000000;fill:none"
       id="path5132" />
    <path
       d="M 58482.204724,40870.905512 58482.204724,41071.905512"
       style="stroke:#000000;fill:none"
       id="path5134" />
    <path
       d="M 58482.204724,41071.905512 58455.204724,41203.905512"
       style="stroke:#000000;fill:none"
       id="path5136" />
    <path
       d="M 58455.204724,41203.905512 58442.204724,41268.905512"
       style="stroke:#000000;fill:none"
       id="path5138" />
    <path
       d="M 58442.204724,41268.905512 58365.204724,41454.905512"
       style="stroke:#000000;fill:none"
       id="path5140" />
    <path
       d="M 58365.204724,41454.905512 58302.204724,41549.905512"
       style="stroke:#000000;fill:none"
       id="path5142" />
    <path
       d="M 58302.204724,41549.905512 58254.204724,41621.905512"
       style="stroke:#000000;fill:none"
       id="path5144" />
    <path
       d="M 58254.204724,41621.905512 58112.204724,41763.905512"
       style="stroke:#000000;fill:none"
       id="path5146" />
    <path
       d="M 58112.204724,41763.905512 58040.204724,41811.905512"
       style="stroke:#000000;fill:none"
       id="path5148" />
    <path
       d="M 58040.204724,41811.905512 57945.204724,41875.905512"
       style="stroke:#000000;fill:none"
       id="path5150" />
    <path
       d="M 57945.204724,41875.905512 57759.204724,41952.905512"
       style="stroke:#000000;fill:none"
       id="path5152" />
    <path
       d="M 57759.204724,41952.905512 57693.204724,41965.905512"
       style="stroke:#000000;fill:none"
       id="path5154" />
    <path
       d="M 57693.204724,41965.905512 57562.204724,41991.905512"
       style="stroke:#000000;fill:none"
       id="path5156" />
    <path
       d="M 57562.204724,41991.905512 57361.204724,41991.905512"
       style="stroke:#000000;fill:none"
       id="path5158" />
    <path
       d="M 57361.204724,41991.905512 57230.204724,41965.905512"
       style="stroke:#000000;fill:none"
       id="path5160" />
    <path
       d="M 57230.204724,41965.905512 57164.204724,41952.905512"
       style="stroke:#000000;fill:none"
       id="path5162" />
    <path
       d="M 57164.204724,41952.905512 56978.204724,41875.905512"
       style="stroke:#000000;fill:none"
       id="path5164" />
    <path
       d="M 56978.204724,41875.905512 56883.204724,41811.905512"
       style="stroke:#000000;fill:none"
       id="path5166" />
    <path
       d="M 56883.204724,41811.905512 56811.204724,41763.905512"
       style="stroke:#000000;fill:none"
       id="path5168" />
    <path
       d="M 56811.204724,41763.905512 56669.204724,41621.905512"
       style="stroke:#000000;fill:none"
       id="path5170" />
    <path
       d="M 56669.204724,41621.905512 56621.204724,41549.905512"
       style="stroke:#000000;fill:none"
       id="path5172" />
    <path
       d="M 56621.204724,41549.905512 56558.204724,41454.905512"
       style="stroke:#000000;fill:none"
       id="path5174" />
    <path
       d="M 56558.204724,41454.905512 56481.204724,41268.905512"
       style="stroke:#000000;fill:none"
       id="path5176" />
    <path
       d="M 56481.204724,41268.905512 56468.204724,41203.905512"
       style="stroke:#000000;fill:none"
       id="path5178" />
    <path
       d="M 56468.204724,41203.905512 56441.204724,41071.905512"
       style="stroke:#000000;fill:none"
       id="path5180" />
    <path
       d="M 56441.204724,41071.905512 56441.204724,40870.905512"
       style="stroke:#000000;fill:none"
       id="path5182" />
    <path
       d="M 56441.204724,40870.905512 56481.204724,40673.905512"
       style="stroke:#000000;fill:none"
       id="path5184" />
    <path
       d="M 56481.204724,40673.905512 56558.204724,40488.905512"
       style="stroke:#000000;fill:none"
       id="path5186" />
    <path
       d="M 56558.204724,40488.905512 56633.204724,40375.905512"
       style="stroke:#000000;fill:none"
       id="path5188" />
    <path
       d="M 56633.204724,40375.905512 56669.204724,40320.905512"
       style="stroke:#000000;fill:none"
       id="path5190" />
    <path
       d="M 56669.204724,40320.905512 56811.204724,40178.905512"
       style="stroke:#000000;fill:none"
       id="path5192" />
    <path
       d="M 56811.204724,40178.905512 56883.204724,40131.905512"
       style="stroke:#000000;fill:none"
       id="path5194" />
    <path
       d="M 56883.204724,40131.905512 56978.204724,40067.905512"
       style="stroke:#000000;fill:none"
       id="path5196" />
    <path
       d="M 56978.204724,40067.905512 57164.204724,39990.905512"
       style="stroke:#000000;fill:none"
       id="path5198" />
    <path
       d="M 57164.204724,39990.905512 57230.204724,39977.905512"
       style="stroke:#000000;fill:none"
       id="path5200" />
    <path
       d="M 57230.204724,39977.905512 57361.204724,39951.905512"
       style="stroke:#000000;fill:none"
       id="path5202" />
    <path
       d="M 57361.204724,39951.905512 57562.204724,39951.905512"
       style="stroke:#000000;fill:none"
       id="path5204" />
    <path
       d="M 57562.204724,39951.905512 57693.204724,39977.905512"
       style="stroke:#000000;fill:none"
       id="path5206" />
    <path
       d="M 60693.204724,39977.905512 60759.204724,39990.905512"
       style="stroke:#000000;fill:none"
       id="path5208" />
    <path
       d="M 60759.204724,39990.905512 60945.204724,40067.905512"
       style="stroke:#000000;fill:none"
       id="path5210" />
    <path
       d="M 60945.204724,40067.905512 61040.204724,40131.905512"
       style="stroke:#000000;fill:none"
       id="path5212" />
    <path
       d="M 61040.204724,40131.905512 61112.204724,40178.905512"
       style="stroke:#000000;fill:none"
       id="path5214" />
    <path
       d="M 61112.204724,40178.905512 61254.204724,40320.905512"
       style="stroke:#000000;fill:none"
       id="path5216" />
    <path
       d="M 61254.204724,40320.905512 61290.204724,40375.905512"
       style="stroke:#000000;fill:none"
       id="path5218" />
    <path
       d="M 61290.204724,40375.905512 61365.204724,40488.905512"
       style="stroke:#000000;fill:none"
       id="path5220" />
    <path
       d="M 61365.204724,40488.905512 61442.204724,40673.905512"
       style="stroke:#000000;fill:none"
       id="path5222" />
    <path
       d="M 61442.204724,40673.905512 61482.204724,40870.905512"
       style="stroke:#000000;fill:none"
       id="path5224" />
    <path
       d="M 61482.204724,40870.905512 61482.204724,41071.905512"
       style="stroke:#000000;fill:none"
       id="path5226" />
    <path
       d="M 61482.204724,41071.905512 61455.204724,41203.905512"
       style="stroke:#000000;fill:none"
       id="path5228" />
    <path
       d="M 61455.204724,41203.905512 61442.204724,41268.905512"
       style="stroke:#000000;fill:none"
       id="path5230" />
    <path
       d="M 61442.204724,41268.905512 61365.204724,41454.905512"
       style="stroke:#000000;fill:none"
       id="path5232" />
    <path
       d="M 61365.204724,41454.905512 61302.204724,41549.905512"
       style="stroke:#000000;fill:none"
       id="path5234" />
    <path
       d="M 61302.204724,41549.905512 61254.204724,41621.905512"
       style="stroke:#000000;fill:none"
       id="path5236" />
    <path
       d="M 61254.204724,41621.905512 61112.204724,41763.905512"
       style="stroke:#000000;fill:none"
       id="path5238" />
    <path
       d="M 61112.204724,41763.905512 61040.204724,41811.905512"
       style="stroke:#000000;fill:none"
       id="path5240" />
    <path
       d="M 61040.204724,41811.905512 60945.204724,41875.905512"
       style="stroke:#000000;fill:none"
       id="path5242" />
    <path
       d="M 60945.204724,41875.905512 60759.204724,41952.905512"
       style="stroke:#000000;fill:none"
       id="path5244" />
    <path
       d="M 60759.204724,41952.905512 60693.204724,41965.905512"
       style="stroke:#000000;fill:none"
       id="path5246" />
    <path
       d="M 60693.204724,41965.905512 60562.204724,41991.905512"
       style="stroke:#000000;fill:none"
       id="path5248" />
    <path
       d="M 60562.204724,41991.905512 60361.204724,41991.905512"
       style="stroke:#000000;fill:none"
       id="path5250" />
    <path
       d="M 60361.204724,41991.905512 60230.204724,41965.905512"
       style="stroke:#000000;fill:none"
       id="path5252" />
    <path
       d="M 60230.204724,41965.905512 60164.204724,41952.905512"
       style="stroke:#000000;fill:none"
       id="path5254" />
    <path
       d="M 60164.204724,41952.905512 59978.204724,41875.905512"
       style="stroke:#000000;fill:none"
       id="path5256" />
    <path
       d="M 59978.204724,41875.905512 59883.204724,41811.905512"
       style="stroke:#000000;fill:none"
       id="path5258" />
    <path
       d="M 59883.204724,41811.905512 59811.204724,41763.905512"
       style="stroke:#000000;fill:none"
       id="path5260" />
    <path
       d="M 59811.204724,41763.905512 59669.204724,41621.905512"
       style="stroke:#000000;fill:none"
       id="path5262" />
    <path
       d="M 59669.204724,41621.905512 59621.204724,41549.905512"
       style="stroke:#000000;fill:none"
       id="path5264" />
    <path
       d="M 59621.204724,41549.905512 59558.204724,41454.905512"
       style="stroke:#000000;fill:none"
       id="path5266" />
    <path
       d="M 59558.204724,41454.905512 59481.204724,41268.905512"
       style="stroke:#000000;fill:none"
       id="path5268" />
    <path
       d="M 59481.204724,41268.905512 59468.204724,41203.905512"
       style="stroke:#000000;fill:none"
       id="path5270" />
    <path
       d="M 59468.204724,41203.905512 59441.204724,41071.905512"
       style="stroke:#000000;fill:none"
       id="path5272" />
    <path
       d="M 59441.204724,41071.905512 59441.204724,40870.905512"
       style="stroke:#000000;fill:none"
       id="path5274" />
    <path
       d="M 59441.204724,40870.905512 59481.204724,40673.905512"
       style="stroke:#000000;fill:none"
       id="path5276" />
    <path
       d="M 59481.204724,40673.905512 59558.204724,40488.905512"
       style="stroke:#000000;fill:none"
       id="path5278" />
    <path
       d="M 59558.204724,40488.905512 59633.204724,40375.905512"
       style="stroke:#000000;fill:none"
       id="path5280" />
    <path
       d="M 59633.204724,40375.905512 59669.204724,40320.905512"
       style="stroke:#000000;fill:none"
       id="path5282" />
    <path
       d="M 59669.204724,40320.905512 59811.204724,40178.905512"
       style="stroke:#000000;fill:none"
       id="path5284" />
    <path
       d="M 59811.204724,40178.905512 59883.204724,40131.905512"
       style="stroke:#000000;fill:none"
       id="path5286" />
    <path
       d="M 59883.204724,40131.905512 59978.204724,40067.905512"
       style="stroke:#000000;fill:none"
       id="path5288" />
    <path
       d="M 59978.204724,40067.905512 60164.204724,39990.905512"
       style="stroke:#000000;fill:none"
       id="path5290" />
    <path
       d="M 60164.204724,39990.905512 60230.204724,39977.905512"
       style="stroke:#000000;fill:none"
       id="path5292" />
    <path
       d="M 60230.204724,39977.905512 60361.204724,39951.905512"
       style="stroke:#000000;fill:none"
       id="path5294" />
    <path
       d="M 60361.204724,39951.905512 60562.204724,39951.905512"
       style="stroke:#000000;fill:none"
       id="path5296" />
    <path
       d="M 60562.204724,39951.905512 60693.204724,39977.905512"
       style="stroke:#000000;fill:none"
       id="path5298" />
    <path
       d="M 61212.204724,42221.905512 L 61212.204724,39721.905512 L 53712.204724,39721.905512 L 53712.204724,42221.905512 L 61212.204724,42221.905512 z"
       style="stroke:#000000;fill:none"
       id="path5300" />
    <path
       d="M 50552.204724,27852.905512 63938.204724,27852.905512"
       style="stroke:#000000;fill:none"
       id="path5302" />
    <path
       d="M 49962.204724,50883.905512 49962.204724,42619.905512"
       style="stroke:#000000;fill:none"
       id="path5304" />
    <path
       d="M 64528.204724,28442.905512 64528.204724,40644.905512"
       style="stroke:#000000;fill:none"
       id="path5306" />
    <path
       d="M 64529.103162,28443.805902 A 590.551025,590.551025 -0.000000 0 0 63938.603162,27853.206293"
       style="stroke:#000000;fill:none"
       id="path5308" />
    <path
       d="M 50552.806287,27853.206293 A 590.551025,590.551025 -0.000000 0 0 49962.204724,28443.805902"
       style="stroke:#000000;fill:none"
       id="path5310" />
    <path
       d="M 64528.204724,42619.905512 64528.204724,50883.905512"
       style="stroke:#000000;fill:none"
       id="path5312" />
    <path
       d="M 64529.103162,42620.104731 A 393.700989,393.700989 -0.000000 0 0 64281.204724,42254.405512"
       style="stroke:#000000;fill:none"
       id="path5314" />
    <path
       d="M 63938.603162,51475.303949 A 590.551025,590.551025 -0.000000 0 0 64529.103162,50884.706293"
       style="stroke:#000000;fill:none"
       id="path5316" />
    <path
       d="M 49962.204724,40645.303949 A 393.700989,393.700989 -0.000000 0 0 50210.103162,41011.104731"
       style="stroke:#000000;fill:none"
       id="path5318" />
    <path
       d="M 50210.103162,42254.405512 A 669.291016,669.291016 -0.000000 0 0 50210.103162,41011.104731"
       style="stroke:#000000;fill:none"
       id="path5320" />
    <path
       d="M 63938.204724,51474.905512 50552.204724,51474.905512"
       style="stroke:#000000;fill:none"
       id="path5322" />
    <path
       d="M 49962.204724,40644.905512 49962.204724,28442.905512"
       style="stroke:#000000;fill:none"
       id="path5324" />
    <path
       d="M 50210.103162,42254.405512 A 393.700989,393.700989 -0.000000 0 0 49962.204724,42620.104731"
       style="stroke:#000000;fill:none"
       id="path5326" />
    <path
       d="M 49962.204724,50884.706293 A 590.551025,590.551025 -0.000000 0 0 50552.806287,51475.303949"
       style="stroke:#000000;fill:none"
       id="path5328" />
    <path
       d="M 64281.204724,41011.104731 A 669.291992,669.291992 -0.000000 0 0 64281.204724,42254.405512"
       style="stroke:#000000;fill:none"
       id="path5330" />
    <path
       d="M 64281.204724,41011.104731 A 393.700989,393.700989 -0.000000 0 0 64529.103162,40645.303949"
       style="stroke:#000000;fill:none"
       id="path5332" />
  </g>
</svg>
