0
SECTION
2
HEADER
9
$INSUNITS
70
4
9
$ACADVER
1
AC1014
9
$HANDSEED
5
FFFF
0
ENDSEC
0
SECTION
2
TABLES
0
TABLE
2
VPORT
5
8
100
AcDbSymbolTable
0
ENDTAB
0
TABLE
2
LTYPE
5
5
100
AcDbSymbolTable
0
LTYPE
5
14
100
AcDbSymbolTableRecord
100
AcDbLinetypeTableRecord
2
BYBLOCK
70
0
0
LTYPE
5
15
100
AcDbSymbolTableRecord
100
AcDbLinetypeTableRecord
2
BYLAYER
70
0
0
ENDTAB
0
TABLE
2
LAYER
5
2
100
AcDbSymbolTable
70
2
0
LAYER
5
50
100
AcDbSymbolTableRecord
100
AcDbLayerTableRecord
2
0
70
0
6
CONTINUOUS
0
ENDTAB
0
TABLE
2
STYLE
5
3
100
AcDbSymbolTable
70
1
0
STYLE
5
11
100
AcDbSymbolTableRecord
100
AcDbTextStyleTableRecord
2
STANDARD
70
0
0
ENDTAB
0
TABLE
2
VIEW
5
6
100
AcDbSymbolTable
70
0
0
ENDTAB
0
TABLE
2
UCS
5
7
100
AcDbSymbolTable
70
0
0
ENDTAB
0
TABLE
2
APPID
5
9
100
AcDbSymbolTable
70
2
0
APPID
5
12
100
AcDbSymbolTableRecord
100
AcDbRegAppTableRecord
2
ACAD
70
0
0
ENDTAB
0
TABLE
2
DIMSTYLE
5
A
100
AcDbSymbolTable
70
1
0
ENDTAB
0
TABLE
2
BLOCK_RECORD
5
1
100
AcDbSymbolTable
70
1
0
BLOCK_RECORD
5
1F
100
AcDbSymbolTableRecord
100
AcDbBlockTableRecord
2
*MODEL_SPACE
0
BLOCK_RECORD
5
1B
100
AcDbSymbolTableRecord
100
AcDbBlockTableRecord
2
*PAPER_SPACE
0
ENDTAB
0
ENDSEC
0
SECTION
2
BLOCKS
0
BLOCK
5
20
100
AcDbEntity
100
AcDbBlockBegin
2
*MODEL_SPACE
0
ENDBLK
5
21
100
AcDbEntity
100
AcDbBlockEnd
0
BLOCK
5
1C
100
AcDbEntity
100
AcDbBlockBegin
2
*PAPER_SPACE
0
ENDBLK
5
1D
100
AcDbEntity
100
AcDbBlockEnd
0
ENDSEC
0
SECTION
2
ENTITIES
0
LINE
5
100
100
AcDbEntity
8
0
100
AcDbLine
10
130.92028752539457
20
-1.8673992315884118e-13
30
0
11
296.60571247463264
21
-3.9990274388687124e-13
31
0
0
LINE
5
101
100
AcDbEntity
8
0
100
AcDbLine
10
306.33762310410322
20
4.0310893705295125
30
0
11
423.49491062948414
21
121.18837689591038
31
0
0
LINE
5
102
100
AcDbEntity
8
0
100
AcDbLine
10
427.52600000001348
20
130.92028752538081
30
0
11
427.52600000001365
21
296.60571247461866
31
0
0
LINE
5
103
100
AcDbEntity
8
0
100
AcDbLine
10
423.49491062948681
20
306.33762310408639
30
0
11
306.337623104106
21
423.49491062946782
31
0
0
LINE
5
104
100
AcDbEntity
8
0
100
AcDbLine
10
121.18837689590444
20
423.49491062946811
30
0
11
4.031089370529811
21
306.3376231040935
31
0
0
LINE
5
105
100
AcDbEntity
8
0
100
AcDbLine
10
2.6989708495335245e-13
20
296.60571247462303
30
0
11
2.7118541209612165e-13
21
130.92028752539412
31
0
0
ARC
5
106
100
AcDbEntity
8
0
100
AcDbCircle
10
130.9202875253749
20
413.76299999999765
30
0
40
13.763000000000005
100
AcDbArc
50
90
51
135
0
ARC
5
107
100
AcDbEntity
8
0
100
AcDbCircle
10
296.60571247463531
20
413.76299999999719
30
0
40
13.763000000000318
100
AcDbArc
50
44.999999999999829
51
90.000000000010644
0
ARC
5
108
100
AcDbEntity
8
0
100
AcDbCircle
10
413.76300000001356
20
296.60571247461866
30
0
40
13.763000000000076
100
AcDbArc
50
0
51
44.999999999983764
0
ARC
5
109
100
AcDbEntity
8
0
100
AcDbCircle
10
413.76300000001379
20
130.92028752538081
30
0
40
13.762999999999943
100
AcDbArc
50
-45.000000000000256
51
0
0
ARC
5
110
100
AcDbEntity
8
0
100
AcDbCircle
10
296.6057124746327
20
13.762999999999636
30
0
40
13.763000000000037
100
AcDbArc
50
269.99999999999972
51
315.00000000000119
0
ARC
5
111
100
AcDbEntity
8
0
100
AcDbCircle
10
130.9202875253946
20
13.762999999999844
30
0
40
13.763000000000021
100
AcDbArc
50
225.00000000000003
51
269.99999999999989
0
ARC
5
112
100
AcDbEntity
8
0
100
AcDbCircle
10
13.763000000000321
20
130.92028752539412
30
0
40
13.76300000000005
100
AcDbArc
50
180
51
225
0
ARC
5
113
100
AcDbEntity
8
0
100
AcDbCircle
10
13.763000000000245
20
296.60571247462303
30
0
40
13.763000000000007
100
AcDbArc
50
134.99999999999991
51
180
0
LWPOLYLINE
5
114
100
AcDbEntity
8
0
100
AcDbPolyline
90
8
70
1
43
0.0
10
296.26300000002055
20
291.95639701731056
10
131.26300000002055
20
291.95639701731056
42
-0.41421356237309503
10
130.76300000002053
20
292.45639701731056
10
130.76300000002053
20
393.45639701731056
42
-0.41421356237309503
10
131.2630000000205
20
393.95639701731056
10
296.26300000002061
20
393.95639701731056
42
-0.41421356237309503
10
296.76300000002061
20
393.45639701731056
10
296.76300000002061
20
292.45639701731056
42
-0.41421356237309503
0
LINE
5
115
100
AcDbEntity
8
0
100
AcDbLine
10
2.6794058845825239e-13
20
213.76300000005571
30
0
11
213.76300000000697
21
213.76300000002243
31
0
0
LINE
5
116
100
AcDbEntity
8
0
100
AcDbLine
10
213.76300000000697
20
213.76300000002243
30
0
11
427.52600000001371
21
213.76300000005563
31
0
0
LINE
5
117
100
AcDbEntity
8
0
100
AcDbLine
10
213.763000000023
20
427.52600000004514
30
0
11
213.76300000000697
21
213.76300000002243
31
0
0
LINE
5
118
100
AcDbEntity
8
0
100
AcDbLine
10
213.76300000000697
20
213.76300000002243
30
0
11
213.76300000001362
21
-2.8919584665818906e-13
31
0
0
CIRCLE
5
119
100
AcDbEntity
8
0
100
AcDbCircle
10
213.76300000001248
20
247.35897087663363
30
0
40
5
0
LINE
5
120
100
AcDbEntity
8
0
100
AcDbLine
10
64.628545810512122
20
-9.7699626167013776e-14
30
0
11
-129.99999999999991
21
1.9539925233402755e-13
31
0
0
LINE
5
121
100
AcDbEntity
8
0
100
AcDbLine
10
1.4210854715202004e-13
20
94.092789384227984
30
0
11
-1.2434497875801753e-13
21
-84.644974210988195
31
0
0
CIRCLE
5
122
100
AcDbEntity
8
0
100
AcDbCircle
10
296.60571247463275
20
427.52600000000001
30
0
40
6.1912400000000005
0
CIRCLE
5
123
100
AcDbEntity
8
0
100
AcDbCircle
10
306.337623104106
20
423.49491062946782
30
0
40
6.1912400000000005
0
CIRCLE
5
124
100
AcDbEntity
8
0
100
AcDbCircle
10
300.22623978713318
20
422.50372614077486
30
0
40
1.4999999999999967
0
CIRCLE
5
125
100
AcDbEntity
8
0
100
AcDbCircle
10
127.29976021291107
20
422.5037261407889
30
0
40
1.4999999999999967
0
CIRCLE
5
126
100
AcDbEntity
8
0
100
AcDbCircle
10
5.0222738592530032
20
300.22623978714842
30
0
40
1.4999999999999967
0
CIRCLE
5
127
100
AcDbEntity
8
0
100
AcDbCircle
10
5.0222738592405332
20
127.29976021292656
30
0
40
1.4999999999999967
0
CIRCLE
5
128
100
AcDbEntity
8
0
100
AcDbCircle
10
127.29976021288097
20
5.0222738592684699
30
0
40
1.4999999999999967
0
CIRCLE
5
129
100
AcDbEntity
8
0
100
AcDbCircle
10
300.22623978710283
20
5.0222738592559644
30
0
40
1.4999999999999967
0
CIRCLE
5
130
100
AcDbEntity
8
0
100
AcDbCircle
10
422.50372614076093
20
127.29976021289643
30
0
40
1.4999999999999967
0
CIRCLE
5
131
100
AcDbEntity
8
0
100
AcDbCircle
10
422.50372614077344
20
300.22623978711829
30
0
40
1.4999999999999967
0
LINE
5
132
100
AcDbEntity
8
0
100
AcDbLine
10
427.52600000001365
20
296.60571247461866
30
0
11
427.52600000001382
21
286.60571247461866
31
0
0
LINE
5
133
100
AcDbEntity
8
0
100
AcDbLine
10
422.52600000001394
20
286.6057124746186
30
0
11
422.52600000001308
21
257.46862748477093
31
0
0
LINE
5
134
100
AcDbEntity
8
0
100
AcDbLine
10
422.52600000001308
20
257.46862748477093
30
0
11
427.52600000001382
21
257.46862748477099
31
0
0
LINE
5
135
100
AcDbEntity
8
0
100
AcDbLine
10
427.52600000001382
20
228.33154249492338
30
0
11
422.52600000001303
21
228.33154249492353
31
0
0
LINE
5
136
100
AcDbEntity
8
0
100
AcDbLine
10
422.52600000001303
20
228.33154249492353
30
0
11
422.52600000001269
21
199.19445750507589
31
0
0
LINE
5
137
100
AcDbEntity
8
0
100
AcDbLine
10
422.52600000001269
20
199.19445750507589
30
0
11
427.52600000001371
21
199.19445750507595
31
0
0
LINE
5
138
100
AcDbEntity
8
0
100
AcDbLine
10
427.52600000001371
20
170.05737251522831
30
0
11
422.52600000001291
21
170.05737251522811
31
0
0
LINE
5
139
100
AcDbEntity
8
0
100
AcDbLine
10
422.52600000001291
20
170.05737251522811
30
0
11
422.52600000001303
21
140.92028752538047
31
0
0
LINE
5
140
100
AcDbEntity
8
0
100
AcDbLine
10
422.52600000001303
20
140.92028752538047
30
0
11
427.52600000001371
21
140.92028752538053
31
0
0
LINE
5
141
100
AcDbEntity
8
0
100
AcDbLine
10
422.52600000001394
20
286.6057124746186
30
0
11
427.52600000001382
21
286.60571247461866
31
0
0
LINE
5
142
100
AcDbEntity
8
0
100
AcDbLine
10
427.52600000001371
20
170.05737251522831
30
0
11
427.52600000001371
21
199.19445750507595
31
0
0
LINE
5
143
100
AcDbEntity
8
0
100
AcDbLine
10
427.52600000001382
20
228.33154249492338
30
0
11
427.52600000001382
21
257.46862748477099
31
0
0
LINE
5
144
100
AcDbEntity
8
0
100
AcDbLine
10
427.52600000001371
20
140.92028752538053
30
0
11
427.52600000001348
21
130.92028752538081
31
0
0
LINE
5
145
100
AcDbEntity
8
0
100
AcDbLine
10
130.9202875253749
20
427.52599999999768
30
0
11
296.60571247463275
21
427.52600000000001
31
0
0
LINE
5
146
100
AcDbEntity
8
0
100
AcDbLine
10
121.18837689592414
20
4.0310893705293713
30
0
11
4.0310893705298305
21
121.18837689592362
31
0
0
LINE
5
147
100
AcDbEntity
8
0
100
AcDbLine
10
306.33762310411726
20
423.49491062948147
30
0
11
313.40869091598285
21
416.42384281761616
31
0
0
LINE
5
148
100
AcDbEntity
8
0
100
AcDbLine
10
309.87315701005019
20
412.88830891168345
30
0
11
330.47618739037966
21
392.28527853135284
31
0
0
LINE
5
149
100
AcDbEntity
8
0
100
AcDbLine
10
330.47618739037966
20
392.28527853135284
30
0
11
334.01172129631288
21
395.82081243728601
31
0
0
LINE
5
150
100
AcDbEntity
8
0
100
AcDbLine
10
354.61475167664287
20
375.21778205695603
30
0
11
334.01172129631288
21
395.82081243728601
31
0
0
LINE
5
151
100
AcDbEntity
8
0
100
AcDbLine
10
354.61475167664287
20
375.21778205695603
30
0
11
351.07921777070948
21
371.68224815102286
31
0
0
LINE
5
152
100
AcDbEntity
8
0
100
AcDbLine
10
351.07921777070948
20
371.68224815102286
30
0
11
371.68224815103929
21
351.07921777069259
31
0
0
LINE
5
153
100
AcDbEntity
8
0
100
AcDbLine
10
371.68224815103929
20
351.07921777069259
30
0
11
375.21778205697274
21
354.61475167662616
31
0
0
LINE
5
154
100
AcDbEntity
8
0
100
AcDbLine
10
395.82081243730272
20
334.01172129629606
30
0
11
375.21778205697274
21
354.61475167662616
31
0
0
LINE
5
155
100
AcDbEntity
8
0
100
AcDbLine
10
392.28527853136961
20
330.47618739036267
30
0
11
412.88830891169965
21
309.87315701003268
31
0
0
LINE
5
156
100
AcDbEntity
8
0
100
AcDbLine
10
416.42384281763282
20
313.40869091596596
30
0
11
423.49491062949801
21
306.33762310410054
31
0
0
LINE
5
157
100
AcDbEntity
8
0
100
AcDbLine
10
309.87315701005019
20
412.88830891168345
30
0
11
313.40869091598285
21
416.42384281761616
31
0
0
LINE
5
158
100
AcDbEntity
8
0
100
AcDbLine
10
412.88830891169965
20
309.87315701003268
30
0
11
416.42384281763282
21
313.40869091596596
31
0
0
LINE
5
159
100
AcDbEntity
8
0
100
AcDbLine
10
395.82081243730272
20
334.01172129629606
30
0
11
392.28527853136961
21
330.47618739036267
31
0
0
LINE
5
160
100
AcDbEntity
8
0
100
AcDbLine
10
130.92028752541063
20
427.52600000002917
30
0
11
140.92028752541057
21
427.52600000002928
31
0
0
LINE
5
161
100
AcDbEntity
8
0
100
AcDbLine
10
140.92028752541066
20
422.5260000000294
30
0
11
170.05737251525829
21
422.5260000000286
31
0
0
LINE
5
162
100
AcDbEntity
8
0
100
AcDbLine
10
170.05737251525829
20
422.5260000000286
30
0
11
170.05737251525827
21
427.52600000002928
31
0
0
LINE
5
163
100
AcDbEntity
8
0
100
AcDbLine
10
199.1944575051059
20
427.52600000002928
30
0
11
170.05737251525827
21
427.52600000002928
31
0
0
LINE
5
164
100
AcDbEntity
8
0
100
AcDbLine
10
199.1944575051059
20
427.52600000002928
30
0
11
199.19445750510576
21
422.52600000002843
31
0
0
LINE
5
165
100
AcDbEntity
8
0
100
AcDbLine
10
199.19445750510576
20
422.52600000002843
30
0
11
228.3315424949534
21
422.52600000002815
31
0
0
LINE
5
166
100
AcDbEntity
8
0
100
AcDbLine
10
228.3315424949534
20
422.52600000002815
30
0
11
228.33154249495334
21
427.52600000002917
31
0
0
LINE
5
167
100
AcDbEntity
8
0
100
AcDbLine
10
257.468627484801
20
427.52600000002917
30
0
11
228.33154249495334
21
427.52600000002917
31
0
0
LINE
5
168
100
AcDbEntity
8
0
100
AcDbLine
10
257.46862748480117
20
422.52600000002843
30
0
11
286.60571247464884
21
422.5260000000286
31
0
0
LINE
5
169
100
AcDbEntity
8
0
100
AcDbLine
10
286.60571247464878
20
427.52600000002928
30
0
11
296.6057124746485
21
427.526000000029
31
0
0
LINE
5
170
100
AcDbEntity
8
0
100
AcDbLine
10
140.92028752541066
20
422.5260000000294
30
0
11
140.92028752541057
21
427.52600000002928
31
0
0
LINE
5
171
100
AcDbEntity
8
0
100
AcDbLine
10
286.60571247464884
20
422.5260000000286
30
0
11
286.60571247464878
21
427.52600000002928
31
0
0
LINE
5
172
100
AcDbEntity
8
0
100
AcDbLine
10
257.468627484801
20
427.52600000002917
30
0
11
257.46862748480117
21
422.52600000002843
31
0
0
LINE
5
173
100
AcDbEntity
8
0
100
AcDbLine
10
4.031089370547889
20
306.33762310413283
30
0
11
11.102157182413279
21
313.40869091599836
31
0
0
LINE
5
174
100
AcDbEntity
8
0
100
AcDbLine
10
14.637691088345974
20
309.87315701006577
30
0
11
35.240721468676597
21
330.47618739039524
31
0
0
LINE
5
175
100
AcDbEntity
8
0
100
AcDbLine
10
35.240721468676597
20
330.47618739039524
30
0
11
31.705187562743333
21
334.0117212963284
31
0
0
LINE
5
176
100
AcDbEntity
8
0
100
AcDbLine
10
52.308217943073387
20
354.61475167665839
30
0
11
31.705187562743333
21
334.0117212963284
31
0
0
LINE
5
177
100
AcDbEntity
8
0
100
AcDbLine
10
52.308217943073387
20
354.61475167665839
30
0
11
55.84375184900658
21
351.07921777072505
31
0
0
LINE
5
178
100
AcDbEntity
8
0
100
AcDbLine
10
55.84375184900658
20
351.07921777072505
30
0
11
76.446782229336847
21
371.68224815105481
31
0
0
LINE
5
179
100
AcDbEntity
8
0
100
AcDbLine
10
76.446782229336847
20
371.68224815105481
30
0
11
72.911248323403299
21
375.2177820569882
31
0
0
LINE
5
180
100
AcDbEntity
8
0
100
AcDbLine
10
93.514278703733353
20
395.8208124373183
30
0
11
72.911248323403299
21
375.2177820569882
31
0
0
LINE
5
181
100
AcDbEntity
8
0
100
AcDbLine
10
97.049812609666759
20
392.28527853138519
30
0
11
117.65284298999674
21
412.88830891171523
31
0
0
LINE
5
182
100
AcDbEntity
8
0
100
AcDbLine
10
114.11730908406348
20
416.42384281764839
30
0
11
121.18837689592887
21
423.49491062951353
31
0
0
LINE
5
183
100
AcDbEntity
8
0
100
AcDbLine
10
14.637691088345974
20
309.87315701006577
30
0
11
11.102157182413279
21
313.40869091599836
31
0
0
LINE
5
184
100
AcDbEntity
8
0
100
AcDbLine
10
117.65284298999674
20
412.88830891171523
30
0
11
114.11730908406348
21
416.42384281764839
31
0
0
LINE
5
185
100
AcDbEntity
8
0
100
AcDbLine
10
93.514278703733353
20
395.8208124373183
30
0
11
97.049812609666759
21
392.28527853138519
31
0
0
LINE
5
186
100
AcDbEntity
8
0
100
AcDbLine
10
2.1316282072803006e-13
20
130.92028752542618
30
0
11
1.4210854715202004e-13
21
140.92028752542615
31
0
0
LINE
5
187
100
AcDbEntity
8
0
100
AcDbLine
10
5
20
140.9202875254262
30
0
11
5.0000000000008527
21
170.05737251527387
31
0
0
LINE
5
188
100
AcDbEntity
8
0
100
AcDbLine
10
5.0000000000008527
20
170.05737251527387
30
0
11
1.4210854715202004e-13
21
170.05737251527381
31
0
0
LINE
5
189
100
AcDbEntity
8
0
100
AcDbLine
10
1.4210854715202004e-13
20
199.19445750512142
30
0
11
1.4210854715202004e-13
21
170.05737251527381
31
0
0
LINE
5
190
100
AcDbEntity
8
0
100
AcDbLine
10
1.4210854715202004e-13
20
199.19445750512142
30
0
11
5.0000000000009237
21
199.19445750512128
31
0
0
LINE
5
191
100
AcDbEntity
8
0
100
AcDbLine
10
5.0000000000009237
20
199.19445750512128
30
0
11
5.000000000001279
21
228.33154249496891
31
0
0
LINE
5
192
100
AcDbEntity
8
0
100
AcDbLine
10
5.000000000001279
20
228.33154249496891
30
0
11
2.1316282072803006e-13
21
228.33154249496886
31
0
0
LINE
5
193
100
AcDbEntity
8
0
100
AcDbLine
10
2.1316282072803006e-13
20
257.46862748481652
30
0
11
2.1316282072803006e-13
21
228.33154249496886
31
0
0
LINE
5
194
100
AcDbEntity
8
0
100
AcDbLine
10
5.0000000000009948
20
257.46862748481669
30
0
11
5.0000000000009237
21
286.60571247466436
31
0
0
LINE
5
195
100
AcDbEntity
8
0
100
AcDbLine
10
2.1316282072803006e-13
20
286.6057124746643
30
0
11
4.2632564145606011e-13
21
296.60571247466402
31
0
0
LINE
5
196
100
AcDbEntity
8
0
100
AcDbLine
10
5
20
140.9202875254262
30
0
11
1.4210854715202004e-13
21
140.92028752542615
31
0
0
LINE
5
197
100
AcDbEntity
8
0
100
AcDbLine
10
5.0000000000009237
20
286.60571247466436
30
0
11
2.1316282072803006e-13
21
286.6057124746643
31
0
0
LINE
5
198
100
AcDbEntity
8
0
100
AcDbLine
10
2.1316282072803006e-13
20
257.46862748481652
30
0
11
5.0000000000009948
21
257.46862748481669
31
0
0
LINE
5
199
100
AcDbEntity
8
0
100
AcDbLine
10
121.18837689589665
20
4.0310893705634498
30
0
11
114.11730908403108
21
11.102157182428769
31
0
0
LINE
5
200
100
AcDbEntity
8
0
100
AcDbLine
10
117.6528429899637
20
14.637691088361464
30
0
11
97.049812609634287
21
35.240721468692087
31
0
0
LINE
5
201
100
AcDbEntity
8
0
100
AcDbLine
10
97.049812609634287
20
35.240721468692087
30
0
11
93.514278703701024
21
31.705187562758823
31
0
0
LINE
5
202
100
AcDbEntity
8
0
100
AcDbLine
10
72.911248323371041
20
52.308217943088806
30
0
11
93.514278703701024
21
31.705187562758823
31
0
0
LINE
5
203
100
AcDbEntity
8
0
100
AcDbLine
10
72.911248323371041
20
52.308217943088806
30
0
11
76.446782229304404
21
55.843751849021999
31
0
0
LINE
5
204
100
AcDbEntity
8
0
100
AcDbLine
10
76.446782229304404
20
55.843751849021999
30
0
11
55.843751848974641
21
76.446782229352266
31
0
0
LINE
5
205
100
AcDbEntity
8
0
100
AcDbLine
10
55.843751848974641
20
76.446782229352266
30
0
11
52.3082179430412
21
72.911248323418789
31
0
0
LINE
5
206
100
AcDbEntity
8
0
100
AcDbLine
10
31.705187562711181
20
93.514278703748772
30
0
11
52.3082179430412
21
72.911248323418789
31
0
0
LINE
5
207
100
AcDbEntity
8
0
100
AcDbLine
10
35.240721468644267
20
97.049812609682249
30
0
11
14.637691088314213
21
117.65284299001223
31
0
0
LINE
5
208
100
AcDbEntity
8
0
100
AcDbLine
10
11.102157182381056
20
114.1173090840789
30
0
11
4.0310893705159145
21
121.18837689594436
31
0
0
LINE
5
209
100
AcDbEntity
8
0
100
AcDbLine
10
117.6528429899637
20
14.637691088361464
30
0
11
114.11730908403108
21
11.102157182428769
31
0
0
LINE
5
210
100
AcDbEntity
8
0
100
AcDbLine
10
14.637691088314213
20
117.65284299001223
30
0
11
11.102157182381056
21
114.1173090840789
31
0
0
LINE
5
211
100
AcDbEntity
8
0
100
AcDbLine
10
31.705187562711181
20
93.514278703748772
30
0
11
35.240721468644267
21
97.049812609682249
31
0
0
LINE
5
212
100
AcDbEntity
8
0
100
AcDbLine
10
296.60571247460314
20
1.5702994460298214e-11
30
0
11
286.60571247460314
21
1.5560885913146194e-11
31
0
0
LINE
5
213
100
AcDbEntity
8
0
100
AcDbLine
10
286.60571247460308
20
5.0000000000154188
30
0
11
257.46862748475542
21
5.0000000000162714
31
0
0
LINE
5
214
100
AcDbEntity
8
0
100
AcDbLine
10
257.46862748475542
20
5.0000000000162714
30
0
11
257.46862748475547
21
1.5560885913146194e-11
31
0
0
LINE
5
215
100
AcDbEntity
8
0
100
AcDbLine
10
228.33154249490786
20
1.5560885913146194e-11
30
0
11
257.46862748475547
21
1.5560885913146194e-11
31
0
0
LINE
5
216
100
AcDbEntity
8
0
100
AcDbLine
10
228.33154249490786
20
1.5560885913146194e-11
30
0
11
228.33154249490801
21
5.0000000000163425
31
0
0
LINE
5
217
100
AcDbEntity
8
0
100
AcDbLine
10
228.33154249490801
20
5.0000000000163425
30
0
11
199.19445750506037
21
5.0000000000166978
31
0
0
LINE
5
218
100
AcDbEntity
8
0
100
AcDbLine
10
199.19445750506037
20
5.0000000000166978
30
0
11
199.19445750506043
21
1.5631940186722204e-11
31
0
0
LINE
5
219
100
AcDbEntity
8
0
100
AcDbLine
10
170.05737251521279
20
1.5631940186722204e-11
30
0
11
199.19445750506043
21
1.5631940186722204e-11
31
0
0
LINE
5
220
100
AcDbEntity
8
0
100
AcDbLine
10
170.05737251521256
20
5.0000000000164135
30
0
11
140.92028752536496
21
5.0000000000164135
31
0
0
LINE
5
221
100
AcDbEntity
8
0
100
AcDbLine
10
140.92028752536504
20
1.5702994460298214e-11
30
0
11
130.92028752536532
21
1.5916157281026244e-11
31
0
0
LINE
5
222
100
AcDbEntity
8
0
100
AcDbLine
10
286.60571247460308
20
5.0000000000154188
30
0
11
286.60571247460314
21
1.5560885913146194e-11
31
0
0
LINE
5
223
100
AcDbEntity
8
0
100
AcDbLine
10
140.92028752536496
20
5.0000000000164135
30
0
11
140.92028752536504
21
1.5702994460298214e-11
31
0
0
LINE
5
224
100
AcDbEntity
8
0
100
AcDbLine
10
170.05737251521279
20
1.5631940186722204e-11
30
0
11
170.05737251521256
21
5.0000000000164135
31
0
0
LINE
5
225
100
AcDbEntity
8
0
100
AcDbLine
10
423.49491062946606
20
121.18837689591206
30
0
11
416.42384281760064
21
114.11730908404657
31
0
0
LINE
5
226
100
AcDbEntity
8
0
100
AcDbLine
10
412.88830891166799
20
117.65284298997912
30
0
11
392.28527853133733
21
97.049812609649706
31
0
0
LINE
5
227
100
AcDbEntity
8
0
100
AcDbLine
10
392.28527853133733
20
97.049812609649706
30
0
11
395.8208124372706
21
93.514278703716514
31
0
0
LINE
5
228
100
AcDbEntity
8
0
100
AcDbLine
10
375.21778205694062
20
72.911248323386502
30
0
11
395.8208124372706
21
93.514278703716514
31
0
0
LINE
5
229
100
AcDbEntity
8
0
100
AcDbLine
10
334.01172129628065
20
31.705187562726636
30
0
11
354.61475167661064
21
52.308217943056654
31
0
0
LINE
5
230
100
AcDbEntity
8
0
100
AcDbLine
10
330.47618739034715
20
35.240721468659757
30
0
11
309.87315701001717
21
14.637691088329667
31
0
0
LINE
5
231
100
AcDbEntity
8
0
100
AcDbLine
10
313.4086909159505
20
11.10215718239651
30
0
11
306.33762310408508
21
4.0310893705313688
31
0
0
LINE
5
232
100
AcDbEntity
8
0
100
AcDbLine
10
412.88830891166799
20
117.65284298997912
30
0
11
416.42384281760064
21
114.11730908404657
31
0
0
LINE
5
233
100
AcDbEntity
8
0
100
AcDbLine
10
309.87315701001717
20
14.637691088329667
30
0
11
313.4086909159505
21
11.10215718239651
31
0
0
LINE
5
234
100
AcDbEntity
8
0
100
AcDbLine
10
334.01172129628065
20
31.705187562726636
30
0
11
330.47618739034715
21
35.240721468659757
31
0
0
LWPOLYLINE
5
235
100
AcDbEntity
8
0
100
AcDbPolyline
90
4
70
1
43
0.0
10
309.7630000000209
20
287.95639701731056
10
117.76300000002084
20
287.95639701731056
10
117.76300000002084
20
397.95639701731056
10
309.7630000000209
20
397.95639701731056
0
LINE
5
236
100
AcDbEntity
8
0
100
AcDbLine
10
249.75038168869773
20
268.85897087665194
30
0
11
249.75038168868662
21
225.85897087665185
31
0
0
LINE
5
237
100
AcDbEntity
8
0
100
AcDbLine
10
249.75038168868662
20
225.85897087665185
30
0
11
176.77607114039034
21
210.85897087662477
31
0
0
LINE
5
238
100
AcDbEntity
8
0
100
AcDbLine
10
176.77607114039034
20
210.85897087662477
30
0
11
176.77607114039031
21
283.85897087662488
31
0
0
LINE
5
239
100
AcDbEntity
8
0
100
AcDbLine
10
176.77607114039031
20
283.85897087662488
30
0
11
249.75038168869773
21
268.85897087665194
31
0
0
LINE
5
240
100
AcDbEntity
8
0
100
AcDbLine
10
176.77607114039031
20
247.35897087662482
30
0
11
249.75038168869216
21
247.35897087665194
31
0
0
LINE
5
241
100
AcDbEntity
8
0
100
AcDbLine
10
213.76300000003911
20
276.25624152262208
30
0
11
213.76299999998591
21
218.46170023064519
31
0
0
CIRCLE
5
242
100
AcDbEntity
8
0
100
AcDbCircle
10
176.77607114039031
20
283.85897087662488
30
0
40
1.6000000000000039
0
CIRCLE
5
243
100
AcDbEntity
8
0
100
AcDbCircle
10
249.75038168869773
20
268.85897087665194
30
0
40
1.5999999999999956
0
CIRCLE
5
244
100
AcDbEntity
8
0
100
AcDbCircle
10
249.75038168868656
20
225.85897087665188
30
0
40
1.6000000000000036
0
CIRCLE
5
245
100
AcDbEntity
8
0
100
AcDbCircle
10
176.77607114039034
20
210.85897087662482
30
0
40
1.6000000000000036
0
LINE
5
246
100
AcDbEntity
8
0
100
AcDbLine
10
233.75908410692978
20
88.14248278159171
30
0
11
233.75908410692978
21
92.142482781591738
31
0
0
CIRCLE
5
247
100
AcDbEntity
8
0
100
AcDbCircle
10
273.72812459956424
20
191.1424827815917
30
0
40
1.6000000000000003
0
CIRCLE
5
248
100
AcDbEntity
8
0
100
AcDbCircle
10
223.75908410692978
20
95.14248278159171
30
0
40
1.6000000000000003
0
LWPOLYLINE
5
249
100
AcDbEntity
8
0
100
AcDbPolyline
90
8
70
1
43
0.0
10
298.76313724267919
20
92.142485201815475
42
-0.41421370414585823
10
293.76313724267976
20
87.142482781603121
10
133.75908410693211
20
87.142482781595163
42
-0.41421356237310125
10
128.75908410693211
20
92.142482781595291
10
128.75908410693398
20
175.14248278159124
42
-0.41421356237309193
10
133.75908410693648
20
180.1424827815936
10
293.76309706715278
20
180.14248278159172
42
-0.41421342060034189
10
298.76309706715449
20
175.14248520180172
0
LWPOLYLINE
5
250
100
AcDbEntity
8
0
100
AcDbPolyline
90
8
70
1
43
0.0
10
128.75908410693143
20
175.14248278158914
42
-0.4142135623730992
10
133.75908410693395
20
180.14248278159172
10
293.75908410692182
20
180.14248278159172
42
-0.41421356237309087
10
298.75908410693074
20
175.14248278158283
10
298.75908410693165
20
93.142482781591866
42
-0.41421356237309814
10
293.75908410693154
20
88.14248278159171
10
133.75908410693233
20
88.14248278159171
42
-0.41421356237309193
10
128.75908410693231
20
93.142482781591696
0
LINE
5
251
100
AcDbEntity
8
0
100
AcDbLine
10
193.75908410692995
20
92.142482781591355
30
0
11
193.75908410692978
21
88.14248278159171
31
0
0
LWPOLYLINE
5
252
100
AcDbEntity
8
0
100
AcDbPolyline
90
4
70
1
43
0.0
10
196.50000000000017
20
108.14248278159508
42
-0.99999999999999989
10
196.50000000000017
20
121.14248278159511
10
233.50000000000011
20
121.14248278159509
42
-0.99999999999999989
10
233.50000000000011
20
108.14248278159505
0
LINE
5
253
100
AcDbEntity
8
0
100
AcDbLine
10
233.75908410692978
20
92.142482781591738
30
0
11
193.75908410692995
21
92.142482781591355
31
0
0
CIRCLE
5
254
100
AcDbEntity
8
0
100
AcDbCircle
10
273.72812459956424
20
169.1424827815917
30
0
40
1.6000000000000003
0
CIRCLE
5
255
100
AcDbEntity
8
0
100
AcDbCircle
10
257.72812459956418
20
191.1424827815917
30
0
40
1.6000000000000003
0
CIRCLE
5
256
100
AcDbEntity
8
0
100
AcDbCircle
10
203.7590841069273
20
101.37310862367417
30
0
40
1.6500000000000001
0
LINE
5
257
100
AcDbEntity
8
0
100
AcDbLine
10
190.00000000000014
20
114.64248278159509
30
0
11
240.00000000000014
21
114.64248278159508
31
0
0
CIRCLE
5
258
100
AcDbEntity
8
0
100
AcDbCircle
10
257.72812459956418
20
169.1424827815917
30
0
40
1.6000000000000003
0
LINE
5
259
100
AcDbEntity
8
0
100
AcDbLine
10
334.01172129628065
20
31.705187562726636
30
0
11
330.47618739034715
21
35.240721468659757
31
0
0
LINE
5
260
100
AcDbEntity
8
0
100
AcDbLine
10
354.61475167661064
20
52.308217943056654
30
0
11
351.07921777067713
21
55.843751848989776
31
0
0
LINE
5
261
100
AcDbEntity
8
0
100
AcDbLine
10
375.21778205694062
20
72.911248323386502
30
0
11
371.68224815100712
21
76.446782229319609
31
0
0
LINE
5
262
100
AcDbEntity
8
0
100
AcDbLine
10
351.07921777067713
20
55.843751848989776
30
0
11
371.68224815100712
21
76.446782229319794
31
0
0
CIRCLE
5
263
100
AcDbEntity
8
0
100
AcDbCircle
10
169.79787540045118
20
191.14248278158897
30
0
40
1.6000000000000003
0
CIRCLE
5
264
100
AcDbEntity
8
0
100
AcDbCircle
10
153.79787540045112
20
191.14248278158797
30
0
40
1.6000000000000003
0
CIRCLE
5
265
100
AcDbEntity
8
0
100
AcDbCircle
10
153.79787540045248
20
169.14248278158797
30
0
40
1.6000000000000003
0
CIRCLE
5
266
100
AcDbEntity
8
0
100
AcDbCircle
10
169.79787540045251
20
169.14248278158897
30
0
40
1.6000000000000003
0
ENDSEC
0
SECTION
2
OBJECTS
0
DICTIONARY
5
C
100
AcDbDictionary
3
ACAD_GROUP
350
D
3
ACAD_MLINESTYLE
350
17
0
DICTIONARY
5
D
100
AcDbDictionary
0
DICTIONARY
5
1A
330
C
100
AcDbDictionary
0
DICTIONARY
5
17
100
AcDbDictionary
0
ENDSEC
0
EOF
