0
SECTION
2
HEADER
9
$INSUNITS
70
4
9
$ACADVER
1
AC1014
9
$HANDSEED
5
FFFF
0
ENDSEC
0
SECTION
2
TABLES
0
TABLE
2
VPORT
5
8
100
AcDbSymbolTable
0
ENDTAB
0
TABLE
2
LTYPE
5
5
100
AcDbSymbolTable
0
LTYPE
5
14
100
AcDbSymbolTableRecord
100
AcDbLinetypeTableRecord
2
BYBLOCK
70
0
0
LTYPE
5
15
100
AcDbSymbolTableRecord
100
AcDbLinetypeTableRecord
2
BYLAYER
70
0
0
ENDTAB
0
TABLE
2
LAYER
5
2
100
AcDbSymbolTable
70
2
0
LAYER
5
50
100
AcDbSymbolTableRecord
100
AcDbLayerTableRecord
2
0
70
0
6
CONTINUOUS
0
ENDTAB
0
TABLE
2
STYLE
5
3
100
AcDbSymbolTable
70
1
0
STYLE
5
11
100
AcDbSymbolTableRecord
100
AcDbTextStyleTableRecord
2
STANDARD
70
0
0
ENDTAB
0
TABLE
2
VIEW
5
6
100
AcDbSymbolTable
70
0
0
ENDTAB
0
TABLE
2
UCS
5
7
100
AcDbSymbolTable
70
0
0
ENDTAB
0
TABLE
2
APPID
5
9
100
AcDbSymbolTable
70
2
0
APPID
5
12
100
AcDbSymbolTableRecord
100
AcDbRegAppTableRecord
2
ACAD
70
0
0
ENDTAB
0
TABLE
2
DIMSTYLE
5
A
100
AcDbSymbolTable
70
1
0
ENDTAB
0
TABLE
2
BLOCK_RECORD
5
1
100
AcDbSymbolTable
70
1
0
BLOCK_RECORD
5
1F
100
AcDbSymbolTableRecord
100
AcDbBlockTableRecord
2
*MODEL_SPACE
0
BLOCK_RECORD
5
1B
100
AcDbSymbolTableRecord
100
AcDbBlockTableRecord
2
*PAPER_SPACE
0
ENDTAB
0
ENDSEC
0
SECTION
2
BLOCKS
0
BLOCK
5
20
100
AcDbEntity
100
AcDbBlockBegin
2
*MODEL_SPACE
0
ENDBLK
5
21
100
AcDbEntity
100
AcDbBlockEnd
0
BLOCK
5
1C
100
AcDbEntity
100
AcDbBlockBegin
2
*PAPER_SPACE
0
ENDBLK
5
1D
100
AcDbEntity
100
AcDbBlockEnd
0
ENDSEC
0
SECTION
2
ENTITIES
0
LINE
5
100
100
AcDbEntity
8
0
100
AcDbLine
10
12.022176033104103
20
-352.60843581773554
30
0
11
6.0221760330899929
21
-352.60843581773321
31
0
0
LINE
5
101
100
AcDbEntity
8
0
100
AcDbLine
10
284.02217603309862
20
-306.6084358177385
30
0
11
284.02217603310373
21
-312.60843581773378
31
0
0
LINE
5
102
100
AcDbEntity
8
0
100
AcDbLine
10
43.522176033128616
20
-418.60843581785622
30
0
11
88.522176033130506
21
-418.60843581784138
31
0
0
LINE
5
103
100
AcDbEntity
8
0
100
AcDbLine
10
210.02217603311689
20
-372.60843581782814
30
0
11
216.02217603311831
21
-372.60843581782751
31
0
0
LINE
5
104
100
AcDbEntity
8
0
100
AcDbLine
10
250.02217603309717
20
-306.60843581776737
30
0
11
216.02217603309728
21
-306.60843581779625
31
0
0
LINE
5
105
100
AcDbEntity
8
0
100
AcDbLine
10
210.02217603310694
20
-332.60843581782444
30
0
11
216.02217603311431
21
-332.60843581781853
31
0
0
LINE
5
106
100
AcDbEntity
8
0
100
AcDbLine
10
210.02217603310694
20
-332.60843581782444
30
0
11
216.02217603317746
21
-332.60843581783575
31
0
0
LINE
5
107
100
AcDbEntity
8
0
100
AcDbLine
10
216.02217603311604
20
-352.60843581782751
30
0
11
210.02217603311749
21
-352.60843581783718
31
0
0
LINE
5
108
100
AcDbEntity
8
0
100
AcDbLine
10
216.02217432656403
20
-372.60843581782717
30
0
11
216.02217603311988
21
-392.60843581782814
31
0
0
LINE
5
109
100
AcDbEntity
8
0
100
AcDbLine
10
6.0221760330663345
20
-372.60843581773321
30
0
11
12.022176033108988
21
-372.60843581774031
31
0
0
LINE
5
110
100
AcDbEntity
8
0
100
AcDbLine
10
178.52217603310328
20
-312.60843581780398
30
0
11
178.52217603311036
21
-306.60843581769757
31
0
0
LINE
5
111
100
AcDbEntity
8
0
100
AcDbLine
10
133.52217603311036
20
-306.60843581764431
30
0
11
133.52217603310814
21
-312.60843581778653
31
0
0
LINE
5
112
100
AcDbEntity
8
0
100
AcDbLine
10
43.522176033447337
20
-306.60843581771712
30
0
11
43.522176033449675
21
-312.60843581771718
31
0
0
LINE
5
113
100
AcDbEntity
8
0
100
AcDbLine
10
133.52217603312465
20
-418.60843581784036
30
0
11
178.52217603322339
21
-418.60843581779989
31
0
0
LINE
5
114
100
AcDbEntity
8
0
100
AcDbLine
10
88.522176033108124
20
-312.60843581776902
30
0
11
88.522176033110014
21
-306.60843581773327
31
0
0
LINE
5
115
100
AcDbEntity
8
0
100
AcDbLine
10
43.522176033126279
20
-412.60843581784655
30
0
11
43.522176033128616
21
-418.60843581785622
31
0
0
LINE
5
116
100
AcDbEntity
8
0
100
AcDbLine
10
88.522176033110014
20
-306.60843581773327
30
0
11
43.522176033447337
21
-306.60843581771712
31
0
0
LINE
5
117
100
AcDbEntity
8
0
100
AcDbLine
10
133.52217603310814
20
-312.60843581778653
30
0
11
88.522176033108124
21
-312.60843581776902
31
0
0
LINE
5
118
100
AcDbEntity
8
0
100
AcDbLine
10
12.022176032854194
20
-332.60843581774196
30
0
11
12.022176033104103
21
-352.60843581773554
31
0
0
LINE
5
119
100
AcDbEntity
8
0
100
AcDbLine
10
6.0221760330899929
20
-352.60843581773321
30
0
11
6.0221760330663345
21
-372.60843581773321
31
0
0
LINE
5
120
100
AcDbEntity
8
0
100
AcDbLine
10
178.52217603311036
20
-306.60843581769757
30
0
11
133.52217603311036
21
-306.60843581764431
31
0
0
LINE
5
121
100
AcDbEntity
8
0
100
AcDbLine
10
178.52217603322339
20
-418.60843581779989
30
0
11
178.52217603321901
21
-412.60843581779989
31
0
0
LINE
5
122
100
AcDbEntity
8
0
100
AcDbLine
10
6.0221760330433014
20
-392.60843581773139
30
0
11
6.0221760330199405
21
-412.6084358177319
31
0
0
LINE
5
123
100
AcDbEntity
8
0
100
AcDbLine
10
6.0221760331262795
20
-412.60843581785053
30
0
11
43.522176033126279
21
-412.60843581784655
31
0
0
LINE
5
124
100
AcDbEntity
8
0
100
AcDbLine
10
12.022176033108988
20
-372.60843581774031
30
0
11
12.022176033101125
21
-392.60843581773474
31
0
0
LINE
5
125
100
AcDbEntity
8
0
100
AcDbLine
10
88.522176033130506
20
-418.60843581784138
30
0
11
88.52217603312485
21
-412.60843581784201
31
0
0
LINE
5
126
100
AcDbEntity
8
0
100
AcDbLine
10
210.02217603311988
20
-392.60843581782865
30
0
11
210.02217603311689
21
-372.60843581782814
31
0
0
LINE
5
127
100
AcDbEntity
8
0
100
AcDbLine
10
210.02217603311689
20
-372.60843581782814
30
0
11
216.02217432656403
21
-372.60843581782717
31
0
0
LINE
5
128
100
AcDbEntity
8
0
100
AcDbLine
10
284.02217603310373
20
-312.60843581773378
30
0
11
250.02217603310379
21
-312.60843581776749
31
0
0
LINE
5
129
100
AcDbEntity
8
0
100
AcDbLine
10
216.02217603311988
20
-392.60843581782814
30
0
11
210.02217603313005
21
-392.60843625856739
31
0
0
LINE
5
130
100
AcDbEntity
8
0
100
AcDbLine
10
210.02217603311749
20
-352.60843581783718
30
0
11
210.02217603310694
21
-332.60843581782444
31
0
0
LINE
5
131
100
AcDbEntity
8
0
100
AcDbLine
10
216.02217603317746
20
-332.60843581783575
30
0
11
216.02217603311604
21
-352.60843581782751
31
0
0
LINE
5
132
100
AcDbEntity
8
0
100
AcDbLine
10
216.02217603309728
20
-306.60843581779625
30
0
11
216.02217603310328
21
-312.60843581781853
31
0
0
LINE
5
133
100
AcDbEntity
8
0
100
AcDbLine
10
178.52217603321901
20
-412.60843581779989
30
0
11
216.02217603312141
21
-412.60843581782814
31
0
0
LINE
5
134
100
AcDbEntity
8
0
100
AcDbLine
10
210.02217603313005
20
-392.60843625856739
30
0
11
210.02217603311689
21
-372.60843581782814
31
0
0
LINE
5
135
100
AcDbEntity
8
0
100
AcDbLine
10
250.02217603310379
20
-312.60843581776749
30
0
11
250.02217603309717
21
-306.60843581776737
31
0
0
LINE
5
136
100
AcDbEntity
8
0
100
AcDbLine
10
216.02217603310328
20
-312.60843581781853
30
0
11
178.52217603310328
21
-312.60843581780398
31
0
0
LINE
5
137
100
AcDbEntity
8
0
100
AcDbLine
10
318.02217603310334
20
-318.60843581770962
30
0
11
318.02217603309862
21
-306.60843581770962
31
0
0
LINE
5
138
100
AcDbEntity
8
0
100
AcDbLine
10
318.02217603309862
20
-306.60843581770962
30
0
11
284.02217603309862
21
-306.6084358177385
31
0
0
LINE
5
139
100
AcDbEntity
8
0
100
AcDbLine
10
210.02217603311394
20
-352.60843581782444
30
0
11
210.02217603310694
21
-332.60843581782444
31
0
0
LINE
5
140
100
AcDbEntity
8
0
100
AcDbLine
10
216.02217603311988
20
-392.60843581782814
30
0
11
210.02217603311988
21
-392.60843581782865
31
0
0
LINE
5
141
100
AcDbEntity
8
0
100
AcDbLine
10
216.02217603311604
20
-352.60843581782751
30
0
11
210.02217603311394
21
-352.60843581782444
31
0
0
LINE
5
142
100
AcDbEntity
8
0
100
AcDbLine
10
12.022176033101125
20
-392.60843581773474
30
0
11
6.0221760330433014
21
-392.60843581773139
31
0
0
LINE
5
143
100
AcDbEntity
8
0
100
AcDbLine
10
6.0221760331066045
20
-312.60843581773651
30
0
11
6.0221760328541896
21
-332.60843581773963
31
0
0
LINE
5
144
100
AcDbEntity
8
0
100
AcDbLine
10
6.0221760328541896
20
-332.60843581773963
30
0
11
12.022176032854194
21
-332.60843581774196
31
0
0
LINE
5
145
100
AcDbEntity
8
0
100
AcDbLine
10
43.522176033449675
20
-312.60843581771718
30
0
11
6.0221760331066045
21
-312.60843581773651
31
0
0
LINE
5
146
100
AcDbEntity
8
0
100
AcDbLine
10
88.52217603312485
20
-412.60843581784201
30
0
11
133.52217603312411
21
-412.60843581783695
31
0
0
LINE
5
147
100
AcDbEntity
8
0
100
AcDbLine
10
133.52217603312411
20
-412.60843581783695
30
0
11
133.52217603312465
21
-418.60843581784036
31
0
0
LINE
5
148
100
AcDbEntity
8
0
100
AcDbLine
10
216.02217603310328
20
-312.60843581781853
30
0
11
216.0221760331662
21
-402.60843581781853
31
0
0
LINE
5
149
100
AcDbEntity
8
0
100
AcDbLine
10
318.02217603310334
20
-318.60843581770962
30
0
11
216.0221760331662
21
-402.60843581781853
31
0
0
LINE
5
150
100
AcDbEntity
8
0
100
AcDbLine
10
318.02217603310334
20
-318.60843581770962
30
0
11
314.20793251593238
21
-313.97685440401096
31
0
0
LINE
5
151
100
AcDbEntity
8
0
100
AcDbLine
10
314.20793251593238
20
-313.97685440401096
30
0
11
294.90967662552112
21
-329.86953572555655
31
0
0
LINE
5
152
100
AcDbEntity
8
0
100
AcDbLine
10
294.90967662552112
20
-329.86953572555655
30
0
11
298.72392014269201
21
-334.50111713925526
31
0
0
LINE
5
153
100
AcDbEntity
8
0
100
AcDbLine
10
279.42566425228074
20
-350.39379846080078
30
0
11
275.61142073510956
21
-345.7622170471019
31
0
0
LINE
5
154
100
AcDbEntity
8
0
100
AcDbLine
10
275.61142073510956
20
-345.7622170471019
30
0
11
256.31316484469829
21
-361.65489836864759
31
0
0
LINE
5
155
100
AcDbEntity
8
0
100
AcDbLine
10
256.31316484469829
20
-361.65489836864759
30
0
11
260.1274083618693
21
-366.28647978234648
31
0
0
LINE
5
156
100
AcDbEntity
8
0
100
AcDbLine
10
240.82915247145797
20
-382.17916110389211
30
0
11
237.01490895428722
21
-377.54757969019317
31
0
0
LINE
5
157
100
AcDbEntity
8
0
100
AcDbLine
10
237.01490895428722
20
-377.54757969019317
30
0
11
216.02217603316075
21
-394.83571268409264
31
0
0
LINE
5
158
100
AcDbEntity
8
0
100
AcDbLine
10
216.02217603316075
20
-394.83571268409264
30
0
11
216.0221760331662
21
-402.60843581781853
31
0
0
LINE
5
159
100
AcDbEntity
8
0
100
AcDbLine
10
240.82915247145797
20
-382.17916110389211
30
0
11
260.1274083618693
21
-366.28647978234648
31
0
0
LINE
5
160
100
AcDbEntity
8
0
100
AcDbLine
10
279.42566425228074
20
-350.39379846080078
30
0
11
298.72392014269201
21
-334.50111713925526
31
0
0
LINE
5
161
100
AcDbEntity
8
0
100
AcDbLine
10
216.02217603312141
20
-412.60843581782814
30
0
11
216.0221760331662
21
-402.60843581781853
31
0
0
CIRCLE
5
162
100
AcDbEntity
8
0
100
AcDbCircle
10
139.10981261261963
20
-356.07908839152594
30
0
40
2
210
0
220
0
230
1
0
CIRCLE
5
163
100
AcDbEntity
8
0
100
AcDbCircle
10
179.23177594380854
20
-385.24050225426208
30
0
40
2
210
0
220
0
230
1
0
CIRCLE
5
164
100
AcDbEntity
8
0
100
AcDbCircle
10
159.17079427821437
20
-370.65979532289407
30
0
40
14.500000000000002
210
0
220
0
230
1
0
LINE
5
165
100
AcDbEntity
8
0
100
AcDbLine
10
139.10981261261963
20
-356.07908839152594
30
0
11
179.23177594380854
21
-385.24050225426208
31
0
0
CIRCLE
5
166
100
AcDbEntity
8
0
100
AcDbCircle
10
73.419433072779285
20
-329.93986078500654
30
0
40
2
210
0
220
0
230
1
0
CIRCLE
5
167
100
AcDbEntity
8
0
100
AcDbCircle
10
73.419433072779285
20
-367.93986078500654
30
0
40
2
210
0
220
0
230
1
0
LWPOLYLINE
5
168
100
AcDbEntity
8
0
100
AcDbPolyline
90
4
70
1
43
0.0
10
35.41943307277927
20
-367.93986078500654
10
35.41943307277927
20
-329.93986078500649
10
73.41943307277927
20
-329.93986078500632
10
73.41943307277927
20
-367.93986078500654
0
CIRCLE
5
169
100
AcDbEntity
8
0
100
AcDbCircle
10
35.41943307277927
20
-367.93986078500654
30
0
40
2
210
0
220
0
230
1
0
CIRCLE
5
170
100
AcDbEntity
8
0
100
AcDbCircle
10
35.41943307277927
20
-329.93986078500654
30
0
40
2
210
0
220
0
230
1
0
LWPOLYLINE
5
171
100
AcDbEntity
8
0
100
AcDbPolyline
90
4
70
1
43
0.0
10
29.419433072779277
20
-373.93986078500643
10
79.41943307277927
20
-373.93986078500643
10
79.41943307277927
20
-323.93986078500643
10
29.419433072779277
20
-323.93986078500643
0
CIRCLE
5
172
100
AcDbEntity
8
0
100
AcDbCircle
10
54.419433072779277
20
-348.93986078500643
30
0
40
19.999999999999986
210
0
220
0
230
1
0
ENDSEC
0
SECTION
2
OBJECTS
0
DICTIONARY
5
C
100
AcDbDictionary
3
ACAD_GROUP
350
D
3
ACAD_MLINESTYLE
350
17
0
DICTIONARY
5
D
100
AcDbDictionary
0
DICTIONARY
5
1A
330
C
100
AcDbDictionary
0
DICTIONARY
5
17
100
AcDbDictionary
0
ENDSEC
0
EOF
