0
SECTION
2
HEADER
9
$INSUNITS
70
4
9
$ACADVER
1
AC1014
9
$HANDSEED
5
FFFF
0
ENDSEC
0
SECTION
2
TABLES
0
TABLE
2
VPORT
5
8
100
AcDbSymbolTable
0
ENDTAB
0
TABLE
2
LTYPE
5
5
100
AcDbSymbolTable
0
LTYPE
5
14
100
AcDbSymbolTableRecord
100
AcDbLinetypeTableRecord
2
BYBLOCK
70
0
0
LTYPE
5
15
100
AcDbSymbolTableRecord
100
AcDbLinetypeTableRecord
2
BYLAYER
70
0
0
ENDTAB
0
TABLE
2
LAYER
5
2
100
AcDbSymbolTable
70
2
0
LAYER
5
50
100
AcDbSymbolTableRecord
100
AcDbLayerTableRecord
2
0
70
0
6
CONTINUOUS
0
ENDTAB
0
TABLE
2
STYLE
5
3
100
AcDbSymbolTable
70
1
0
STYLE
5
11
100
AcDbSymbolTableRecord
100
AcDbTextStyleTableRecord
2
STANDARD
70
0
0
ENDTAB
0
TABLE
2
VIEW
5
6
100
AcDbSymbolTable
70
0
0
ENDTAB
0
TABLE
2
UCS
5
7
100
AcDbSymbolTable
70
0
0
ENDTAB
0
TABLE
2
APPID
5
9
100
AcDbSymbolTable
70
2
0
APPID
5
12
100
AcDbSymbolTableRecord
100
AcDbRegAppTableRecord
2
ACAD
70
0
0
ENDTAB
0
TABLE
2
DIMSTYLE
5
A
100
AcDbSymbolTable
70
1
0
ENDTAB
0
TABLE
2
BLOCK_RECORD
5
1
100
AcDbSymbolTable
70
1
0
BLOCK_RECORD
5
1F
100
AcDbSymbolTableRecord
100
AcDbBlockTableRecord
2
*MODEL_SPACE
0
BLOCK_RECORD
5
1B
100
AcDbSymbolTableRecord
100
AcDbBlockTableRecord
2
*PAPER_SPACE
0
ENDTAB
0
ENDSEC
0
SECTION
2
BLOCKS
0
BLOCK
5
20
100
AcDbEntity
100
AcDbBlockBegin
2
*MODEL_SPACE
0
ENDBLK
5
21
100
AcDbEntity
100
AcDbBlockEnd
0
BLOCK
5
1C
100
AcDbEntity
100
AcDbBlockBegin
2
*PAPER_SPACE
0
ENDBLK
5
1D
100
AcDbEntity
100
AcDbBlockEnd
0
ENDSEC
0
SECTION
2
ENTITIES
0
LINE
5
100
100
AcDbEntity
8
0
100
AcDbLine
10
-182.78699878996193
20
-172.7926100569162
30
0
11
-176.78699878994706
21
-172.79261005691433
31
0
0
LINE
5
101
100
AcDbEntity
8
0
100
AcDbLine
10
-176.78699878994644
20
-82.79261005691626
30
0
11
-176.78699878994672
21
-127.79261005691595
31
0
0
LINE
5
102
100
AcDbEntity
8
0
100
AcDbLine
10
-116.78699878996768
20
-204.29261005953609
30
0
11
-116.78699878996684
21
-210.29261006149878
31
0
0
LINE
5
103
100
AcDbEntity
8
0
100
AcDbLine
10
-116.78699878996684
20
-210.29261006149878
30
0
11
-96.786998789966816
21
-210.29261006149878
31
0
0
LWPOLYLINE
5
104
100
AcDbEntity
8
0
100
AcDbPolyline
90
4
70
1
43
0.0
10
-134.01780494812758
20
-168.69040659510219
10
-94.017804948127576
20
-168.69040659510219
10
-94.017804948127576
20
-138.69040659510219
10
-134.01780494812758
20
-138.69040659510219
0
LINE
5
105
100
AcDbEntity
8
0
100
AcDbLine
10
-176.78699878994672
20
-127.79261005691595
30
0
11
-182.78699878996042
21
-127.79261005691615
31
0
0
LINE
5
106
100
AcDbEntity
8
0
100
AcDbLine
10
-76.786998789947319
20
-127.79261005951716
30
0
11
-76.786998789946139
21
-82.792610059517159
31
0
0
LINE
5
107
100
AcDbEntity
8
0
100
AcDbLine
10
-156.78699879055611
20
-210.29261005071038
30
0
11
-136.78699879055611
21
-210.29261005267108
31
0
0
LINE
5
108
100
AcDbEntity
8
0
100
AcDbLine
10
-76.78699878994523
20
-6.2926100595197987
30
0
11
-96.786998789945216
21
-6.2926100601028683
31
0
0
LINE
5
109
100
AcDbEntity
8
0
100
AcDbLine
10
-136.78699878994547
20
-0.29261005980440313
30
0
11
-156.78699878994559
21
-0.29261005980346833
31
0
0
LINE
5
110
100
AcDbEntity
8
0
100
AcDbLine
10
-182.78699878995508
20
-82.792610056894404
30
0
11
-176.78699878994644
21
-82.79261005691626
31
0
0
LINE
5
111
100
AcDbEntity
8
0
100
AcDbLine
10
-70.78699878993541
20
-37.792610059514416
30
0
11
-76.786998789944974
21
-37.792610059519873
31
0
0
LINE
5
112
100
AcDbEntity
8
0
100
AcDbLine
10
-182.78699878994971
20
-37.792610056894411
30
0
11
-182.78699878995508
21
-82.792610056894404
31
0
0
LINE
5
113
100
AcDbEntity
8
0
100
AcDbLine
10
-70.786998789936618
20
-82.792610059514203
30
0
11
-70.78699878993541
21
-37.792610059514416
31
0
0
LINE
5
114
100
AcDbEntity
8
0
100
AcDbLine
10
-136.78699879055611
20
-210.29261005267108
30
0
11
-136.7869987899677
21
-204.29261005953552
31
0
0
LINE
5
115
100
AcDbEntity
8
0
100
AcDbLine
10
-70.786998789958119
20
-172.79261005952304
30
0
11
-70.786998789947347
21
-127.79261005952284
31
0
0
LINE
5
116
100
AcDbEntity
8
0
100
AcDbLine
10
-96.786998789966816
20
-210.29261006149878
30
0
11
-96.786998789965708
21
-204.29261005951685
31
0
0
LINE
5
117
100
AcDbEntity
8
0
100
AcDbLine
10
-96.786998789965708
20
-204.29261005951685
30
0
11
-76.786998789965708
21
-204.29261005952168
31
0
0
LINE
5
118
100
AcDbEntity
8
0
100
AcDbLine
10
-70.786998789947347
20
-127.79261005952284
30
0
11
-76.786998789947319
21
-127.79261005951716
31
0
0
LINE
5
119
100
AcDbEntity
8
0
100
AcDbLine
10
-136.7869987899677
20
-204.29261005953552
30
0
11
-116.78699878996768
21
-204.29261005953609
31
0
0
LINE
5
120
100
AcDbEntity
8
0
100
AcDbLine
10
-176.78699878994706
20
-172.79261005691433
30
0
11
-176.78699878994721
21
-204.29261005691885
31
0
0
LINE
5
121
100
AcDbEntity
8
0
100
AcDbLine
10
-76.786998789965708
20
-204.29261005952168
30
0
11
-76.786998789958133
21
-172.79261005952162
31
0
0
LINE
5
122
100
AcDbEntity
8
0
100
AcDbLine
10
-76.786998789958133
20
-172.79261005952162
30
0
11
-70.786998789958119
21
-172.79261005952304
31
0
0
LINE
5
123
100
AcDbEntity
8
0
100
AcDbLine
10
-182.78699878996042
20
-127.79261005691615
30
0
11
-182.78699878996193
21
-172.7926100569162
31
0
0
LINE
5
124
100
AcDbEntity
8
0
100
AcDbLine
10
-156.78699878996767
20
-204.29261005071038
30
0
11
-156.78699879055611
21
-210.29261005071038
31
0
0
LINE
5
125
100
AcDbEntity
8
0
100
AcDbLine
10
-176.78699878996767
20
-204.29261004874886
30
0
11
-156.78699878996767
21
-204.29261005071038
31
0
0
LINE
5
126
100
AcDbEntity
8
0
100
AcDbLine
10
-96.786998789945216
20
-6.2926100601028683
30
0
11
-96.786998789945244
21
-0.29261006010286711
31
0
0
LINE
5
127
100
AcDbEntity
8
0
100
AcDbLine
10
-76.786998789944974
20
-37.792610059519873
30
0
11
-76.78699878994523
21
-6.2926100595197987
31
0
0
LINE
5
128
100
AcDbEntity
8
0
100
AcDbLine
10
-176.78699878994618
20
-6.2926100568949215
30
0
11
-176.78699878994968
21
-37.792610056894922
31
0
0
LINE
5
129
100
AcDbEntity
8
0
100
AcDbLine
10
-76.786998789946139
20
-82.792610059517159
30
0
11
-70.786998789936618
21
-82.792610059514203
31
0
0
LINE
5
130
100
AcDbEntity
8
0
100
AcDbLine
10
-136.7869987899453
20
-6.2926100568959873
30
0
11
-136.78699878994547
21
-0.29261005980440313
31
0
0
LINE
5
131
100
AcDbEntity
8
0
100
AcDbLine
10
-116.78699878994529
20
-0.2926100598114097
30
0
11
-116.78699878994527
21
-6.2926100568959873
31
0
0
LINE
5
132
100
AcDbEntity
8
0
100
AcDbLine
10
-156.78699878994559
20
-0.29261005980346833
30
0
11
-156.78699878994624
21
-6.2926100568951346
31
0
0
LINE
5
133
100
AcDbEntity
8
0
100
AcDbLine
10
-116.78699878994527
20
-6.2926100568959873
30
0
11
-136.7869987899453
21
-6.2926100568959873
31
0
0
LINE
5
134
100
AcDbEntity
8
0
100
AcDbLine
10
-156.78699878994624
20
-6.2926100568951346
30
0
11
-176.78699878994618
21
-6.2926100568949215
31
0
0
LINE
5
135
100
AcDbEntity
8
0
100
AcDbLine
10
-96.786998789945244
20
-0.29261006010286711
30
0
11
-116.78699878994529
21
-0.2926100598114097
31
0
0
LINE
5
136
100
AcDbEntity
8
0
100
AcDbLine
10
-176.78699878994968
20
-37.792610056894922
30
0
11
-182.78699878994971
21
-37.792610056894411
31
0
0
ENDSEC
0
SECTION
2
OBJECTS
0
DICTIONARY
5
C
100
AcDbDictionary
3
ACAD_GROUP
350
D
3
ACAD_MLINESTYLE
350
17
0
DICTIONARY
5
D
100
AcDbDictionary
0
DICTIONARY
5
1A
330
C
100
AcDbDictionary
0
DICTIONARY
5
17
100
AcDbDictionary
0
ENDSEC
0
EOF
