0
SECTION
2
HEADER
9
$INSUNITS
70
4
9
$ACADVER
1
AC1014
9
$HANDSEED
5
FFFF
0
ENDSEC
0
SECTION
2
TABLES
0
TABLE
2
VPORT
5
8
100
AcDbSymbolTable
0
ENDTAB
0
TABLE
2
LTYPE
5
5
100
AcDbSymbolTable
0
LTYPE
5
14
100
AcDbSymbolTableRecord
100
AcDbLinetypeTableRecord
2
BYBLOCK
70
0
0
LTYPE
5
15
100
AcDbSymbolTableRecord
100
AcDbLinetypeTableRecord
2
BYLAYER
70
0
0
ENDTAB
0
TABLE
2
LAYER
5
2
100
AcDbSymbolTable
70
2
0
LAYER
5
50
100
AcDbSymbolTableRecord
100
AcDbLayerTableRecord
2
0
70
0
6
CONTINUOUS
0
ENDTAB
0
TABLE
2
STYLE
5
3
100
AcDbSymbolTable
70
1
0
STYLE
5
11
100
AcDbSymbolTableRecord
100
AcDbTextStyleTableRecord
2
STANDARD
70
0
0
ENDTAB
0
TABLE
2
VIEW
5
6
100
AcDbSymbolTable
70
0
0
ENDTAB
0
TABLE
2
UCS
5
7
100
AcDbSymbolTable
70
0
0
ENDTAB
0
TABLE
2
APPID
5
9
100
AcDbSymbolTable
70
2
0
APPID
5
12
100
AcDbSymbolTableRecord
100
AcDbRegAppTableRecord
2
ACAD
70
0
0
ENDTAB
0
TABLE
2
DIMSTYLE
5
A
100
AcDbSymbolTable
70
1
0
ENDTAB
0
TABLE
2
BLOCK_RECORD
5
1
100
AcDbSymbolTable
70
1
0
BLOCK_RECORD
5
1F
100
AcDbSymbolTableRecord
100
AcDbBlockTableRecord
2
*MODEL_SPACE
0
BLOCK_RECORD
5
1B
100
AcDbSymbolTableRecord
100
AcDbBlockTableRecord
2
*PAPER_SPACE
0
ENDTAB
0
ENDSEC
0
SECTION
2
BLOCKS
0
BLOCK
5
20
100
AcDbEntity
100
AcDbBlockBegin
2
*MODEL_SPACE
0
ENDBLK
5
21
100
AcDbEntity
100
AcDbBlockEnd
0
BLOCK
5
1C
100
AcDbEntity
100
AcDbBlockBegin
2
*PAPER_SPACE
0
ENDBLK
5
1D
100
AcDbEntity
100
AcDbBlockEnd
0
ENDSEC
0
SECTION
2
ENTITIES
0
LWPOLYLINE
5
100
100
AcDbEntity
8
0
100
AcDbPolyline
90
20
70
1
43
0.0
10
722.81798718513164
20
283.95793628720048
10
716.81798718508162
20
283.95793628719832
10
716.81798718508162
20
328.35793628719836
10
722.81798718511493
20
328.35793628719847
10
722.81798718508014
20
372.7579362871985
10
716.81798718505308
20
372.75793628720152
10
716.81798718505104
20
417.15793628721178
10
722.81798718505115
20
417.15793628720695
10
722.81798718503353
20
461.55793628720687
10
498.81798718503342
20
461.55793628708557
10
498.81810314379607
20
417.15793628723702
10
504.81810314385035
20
417.15795195733477
10
504.81821910259106
20
372.75795195748623
10
498.81821910258861
20
372.75793628738478
10
498.81833506132728
20
328.35793628695762
10
504.81833506133177
20
328.35795195705913
10
504.81845102005849
20
283.95795195721058
10
498.81845102007895
20
283.95793628710885
10
498.81856630844061
20
239.55793628725849
10
722.81798718513187
20
239.5579362872005
0
LWPOLYLINE
5
101
100
AcDbEntity
8
0
100
AcDbPolyline
90
24
70
1
43
0.0
10
501.60968658005538
20
-208.02444983231962
10
495.60968658004629
20
-208.02444983231962
10
495.60968658004629
20
-252.42444983232139
10
719.60968658004629
20
-252.42444983232159
10
719.60968658004629
20
-208.02444983232164
10
713.60968658007789
20
-208.02444983232164
10
713.60968658004379
20
-163.62444983232149
10
719.6096865800439
20
-163.62444983232143
10
719.60968658004629
20
-119.22444983232384
10
713.60968658000968
20
-119.22444983231442
10
713.60968658004379
20
-74.824449832313945
10
719.60968658005572
20
-74.824449832318578
10
719.60968658005868
20
-30.424449832318579
10
661.10968658006072
20
-30.424449832314981
10
661.10968658005959
20
-70.424449832311055
10
554.10968658005959
20
-70.424449832308838
10
554.10968658006061
20
-30.424449832308831
10
495.60968658004788
20
-30.424449832311584
10
495.60968658005544
20
-74.824449832313334
10
501.60968658006573
20
-74.824449832313334
10
501.60968658006277
20
-119.2244498323177
10
495.6096865800555
20
-119.22444983231767
10
495.60968658005544
20
-163.62444983231939
10
501.60968658005538
20
-163.62444983231939
0
LWPOLYLINE
5
102
100
AcDbEntity
8
0
100
AcDbPolyline
90
20
70
1
43
0.0
10
932.95390684824395
20
4.8883617730017193
10
932.9538895692757
20
10.888361772976236
10
977.35388956909151
20
10.888489637366447
10
977.35327328578421
20
224.88848963648792
10
932.95327328563201
20
224.88848963647374
10
932.95327328563235
20
230.88848963645418
10
888.55327328548015
20
230.88848963645663
10
888.55327328547503
20
224.88848963646177
10
844.15327328532294
20
224.8884896364618
10
844.15327328532317
20
230.88848963645606
10
799.75327328517108
20
230.88848963645853
10
799.75327328516528
20
224.88848963645847
10
755.3532732850133
20
224.88848963645538
10
755.35388957001248
20
10.887850315472551
10
799.75388956982829
20
10.887978179838756
10
799.75390684879608
20
4.8879781799427695
10
844.15390684861245
20
4.8881060443014235
10
844.15388956964364
20
10.888106044205511
10
888.55388956945944
20
10.888233908592603
10
888.55390684842791
20
4.888233908660407
0
LWPOLYLINE
5
103
100
AcDbEntity
8
0
100
AcDbPolyline
90
20
70
1
43
0.0
10
291.05005013778828
20
222.77585144356277
10
291.02002380147161
20
216.7759265757725
10
246.62057977982437
20
216.99812146451367
10
245.54964045120721
20
3.0008011799960195
10
289.94908447285479
20
2.7786062912548806
10
289.91905813653807
20
-3.2213185765349097
10
334.31850215818565
20
-3.4435134652761885
10
334.34852849450181
20
2.5564114025137457
10
378.74797251614939
20
2.3342165137726045
10
378.71794617983261
20
-3.6657083540174629
10
423.11739020148019
20
-3.8879032427587439
10
423.14741653779669
20
2.1120216250314701
10
467.54686055944427
20
1.8898267362903098
10
468.61779988806188
20
215.88714702080756
10
424.21835586641436
20
216.10934190954882
10
424.24838220273074
20
222.10926677733875
10
379.84893818108321
20
222.33146166608006
10
379.81891184476689
20
216.3315367982901
10
335.41946782311931
20
216.5537316870313
10
335.44949415943586
20
222.55365655482137
0
LINE
5
104
100
AcDbEntity
8
0
100
AcDbLine
10
256.62045455947458
20
216.94807757065306
30
0
11
255.54951523085737
21
2.9507572861354037
31
0
0
LINE
5
105
100
AcDbEntity
8
0
100
AcDbLine
10
958.81302828593175
20
224.88848963648567
30
0
11
958.81364456932954
21
10.888436244638495
31
0
0
LINE
5
106
100
AcDbEntity
8
0
100
AcDbLine
10
495.60968658004629
20
-242.42444983232116
30
0
11
719.60968658004629
21
-242.42444983232139
31
0
0
LINE
5
107
100
AcDbEntity
8
0
100
AcDbLine
10
498.81801330187756
20
451.55793628707409
30
0
11
722.81798718503751
21
451.55793628712752
31
0
0
ENDSEC
0
SECTION
2
OBJECTS
0
DICTIONARY
5
C
100
AcDbDictionary
3
ACAD_GROUP
350
D
3
ACAD_MLINESTYLE
350
17
0
DICTIONARY
5
D
100
AcDbDictionary
0
DICTIONARY
5
1A
330
C
100
AcDbDictionary
0
DICTIONARY
5
17
100
AcDbDictionary
0
ENDSEC
0
EOF
