0
SECTION
2
HEADER
9
$INSUNITS
70
4
9
$ACADVER
1
AC1014
9
$HANDSEED
5
FFFF
0
ENDSEC
0
SECTION
2
TABLES
0
TABLE
2
VPORT
5
8
100
AcDbSymbolTable
0
ENDTAB
0
TABLE
2
LTYPE
5
5
100
AcDbSymbolTable
0
LTYPE
5
14
100
AcDbSymbolTableRecord
100
AcDbLinetypeTableRecord
2
BYBLOCK
70
0
0
LTYPE
5
15
100
AcDbSymbolTableRecord
100
AcDbLinetypeTableRecord
2
BYLAYER
70
0
0
ENDTAB
0
TABLE
2
LAYER
5
2
100
AcDbSymbolTable
70
2
0
LAYER
5
50
100
AcDbSymbolTableRecord
100
AcDbLayerTableRecord
2
0
70
0
6
CONTINUOUS
0
ENDTAB
0
TABLE
2
STYLE
5
3
100
AcDbSymbolTable
70
1
0
STYLE
5
11
100
AcDbSymbolTableRecord
100
AcDbTextStyleTableRecord
2
STANDARD
70
0
0
ENDTAB
0
TABLE
2
VIEW
5
6
100
AcDbSymbolTable
70
0
0
ENDTAB
0
TABLE
2
UCS
5
7
100
AcDbSymbolTable
70
0
0
ENDTAB
0
TABLE
2
APPID
5
9
100
AcDbSymbolTable
70
2
0
APPID
5
12
100
AcDbSymbolTableRecord
100
AcDbRegAppTableRecord
2
ACAD
70
0
0
ENDTAB
0
TABLE
2
DIMSTYLE
5
A
100
AcDbSymbolTable
70
1
0
ENDTAB
0
TABLE
2
BLOCK_RECORD
5
1
100
AcDbSymbolTable
70
1
0
BLOCK_RECORD
5
1F
100
AcDbSymbolTableRecord
100
AcDbBlockTableRecord
2
*MODEL_SPACE
0
BLOCK_RECORD
5
1B
100
AcDbSymbolTableRecord
100
AcDbBlockTableRecord
2
*PAPER_SPACE
0
ENDTAB
0
ENDSEC
0
SECTION
2
BLOCKS
0
BLOCK
5
20
100
AcDbEntity
100
AcDbBlockBegin
2
*MODEL_SPACE
0
ENDBLK
5
21
100
AcDbEntity
100
AcDbBlockEnd
0
BLOCK
5
1C
100
AcDbEntity
100
AcDbBlockBegin
2
*PAPER_SPACE
0
ENDBLK
5
1D
100
AcDbEntity
100
AcDbBlockEnd
0
ENDSEC
0
SECTION
2
ENTITIES
0
LINE
5
100
100
AcDbEntity
8
0
100
AcDbLine
10
497.21300121018044
20
8.8218826940553612
30
0
11
542.61300121018041
21
8.8218826940553612
31
0
0
LINE
5
101
100
AcDbEntity
8
0
100
AcDbLine
10
542.61300121018041
20
8.8218826940553612
30
0
11
542.61300121018041
21
2.8218826940553599
31
0
0
LINE
5
102
100
AcDbEntity
8
0
100
AcDbLine
10
542.61300121018041
20
2.8218826940553599
30
0
11
588.01300121018039
21
2.8218826940553612
31
0
0
LINE
5
103
100
AcDbEntity
8
0
100
AcDbLine
10
588.01300121018039
20
2.8218826940553612
30
0
11
588.01300121018039
21
8.8218826940553559
31
0
0
LINE
5
104
100
AcDbEntity
8
0
100
AcDbLine
10
588.01300121018039
20
8.8218826940553559
30
0
11
633.41300121018048
21
8.8218826940553541
31
0
0
LINE
5
105
100
AcDbEntity
8
0
100
AcDbLine
10
633.41300121018048
20
8.8218826940553541
30
0
11
633.41300121018048
21
2.8218826940553581
31
0
0
LINE
5
106
100
AcDbEntity
8
0
100
AcDbLine
10
633.41300121018048
20
2.8218826940553581
30
0
11
678.81300121018046
21
2.8218826940553559
31
0
0
LINE
5
107
100
AcDbEntity
8
0
100
AcDbLine
10
678.81300121018046
20
2.8218826940553559
30
0
11
678.81300121018046
21
8.8218826940553488
31
0
0
LINE
5
108
100
AcDbEntity
8
0
100
AcDbLine
10
678.81300121018046
20
8.8218826940553488
30
0
11
724.21300121018044
21
8.8218826940553434
31
0
0
LINE
5
109
100
AcDbEntity
8
0
100
AcDbLine
10
724.21300121018044
20
8.8218826940553434
30
0
11
724.21300121018066
21
54.221882694055353
31
0
0
LINE
5
110
100
AcDbEntity
8
0
100
AcDbLine
10
724.21300121018066
20
54.221882694055353
30
0
11
730.21300121018055
21
54.221882694055353
31
0
0
LINE
5
111
100
AcDbEntity
8
0
100
AcDbLine
10
730.21300121018055
20
54.221882694055353
30
0
11
730.21300121018032
21
99.621882694055358
31
0
0
LINE
5
112
100
AcDbEntity
8
0
100
AcDbLine
10
730.21300121018032
20
99.621882694055358
30
0
11
724.21300121018078
21
99.621882694055358
31
0
0
LINE
5
113
100
AcDbEntity
8
0
100
AcDbLine
10
724.21300121018078
20
99.621882694055358
30
0
11
724.21300121018078
21
145.02188269405536
31
0
0
LINE
5
114
100
AcDbEntity
8
0
100
AcDbLine
10
724.21300121018078
20
145.02188269405536
30
0
11
730.21300121017998
21
145.02188269405536
31
0
0
LINE
5
115
100
AcDbEntity
8
0
100
AcDbLine
10
730.21300121017998
20
145.02188269405536
30
0
11
730.21300121017998
21
190.42188269405534
31
0
0
LINE
5
116
100
AcDbEntity
8
0
100
AcDbLine
10
730.21300121017998
20
190.42188269405534
30
0
11
724.21300121018078
21
190.42188269405531
31
0
0
LINE
5
117
100
AcDbEntity
8
0
100
AcDbLine
10
724.21300121018078
20
190.42188269405531
30
0
11
724.21300121018089
21
235.82188269405532
31
0
0
LINE
5
118
100
AcDbEntity
8
0
100
AcDbLine
10
633.41300121018116
20
241.82188269405515
30
0
11
633.41300121018162
21
235.82188269405532
31
0
0
LINE
5
119
100
AcDbEntity
8
0
100
AcDbLine
10
724.21300121018089
20
235.82188269405532
30
0
11
678.8130012101808
21
235.82188269405532
31
0
0
LINE
5
120
100
AcDbEntity
8
0
100
AcDbLine
10
497.2130012101818
20
190.42188269405517
30
0
11
491.2130012101818
21
190.42188269405526
31
0
0
LINE
5
121
100
AcDbEntity
8
0
100
AcDbLine
10
678.81300121018114
20
241.82188269405532
30
0
11
633.41300121018116
21
241.82188269405515
31
0
0
LINE
5
122
100
AcDbEntity
8
0
100
AcDbLine
10
633.41300121018162
20
235.82188269405532
30
0
11
588.01300121018153
21
235.82188269405532
31
0
0
LINE
5
123
100
AcDbEntity
8
0
100
AcDbLine
10
542.61300121018201
20
235.82188269405523
30
0
11
497.21300121018197
21
235.8218826940552
31
0
0
LINE
5
124
100
AcDbEntity
8
0
100
AcDbLine
10
588.01300121018153
20
241.82188269405515
30
0
11
542.61300121018155
21
241.82188269405515
31
0
0
LINE
5
125
100
AcDbEntity
8
0
100
AcDbLine
10
491.21300121018152
20
99.621882694055273
30
0
11
491.21300121018157
21
54.221882694055203
31
0
0
LINE
5
126
100
AcDbEntity
8
0
100
AcDbLine
10
497.2130012101814
20
54.221882694055303
30
0
11
497.21300121018123
21
8.8218826940552795
31
0
0
LINE
5
127
100
AcDbEntity
8
0
100
AcDbLine
10
497.21300121018169
20
145.02188269405525
30
0
11
497.21300121018152
21
99.621882694055216
31
0
0
LINE
5
128
100
AcDbEntity
8
0
100
AcDbLine
10
497.21300121018152
20
99.621882694055216
30
0
11
491.21300121018152
21
99.621882694055273
31
0
0
LINE
5
129
100
AcDbEntity
8
0
100
AcDbLine
10
497.21300121018197
20
235.8218826940552
30
0
11
497.2130012101818
21
190.42188269405517
31
0
0
LINE
5
130
100
AcDbEntity
8
0
100
AcDbLine
10
491.21300121018157
20
54.221882694055203
30
0
11
497.2130012101814
21
54.221882694055303
31
0
0
LINE
5
131
100
AcDbEntity
8
0
100
AcDbLine
10
491.2130012101818
20
190.42188269405526
30
0
11
491.21300121018174
21
145.02188269405525
31
0
0
LINE
5
132
100
AcDbEntity
8
0
100
AcDbLine
10
542.61300121018155
20
241.82188269405515
30
0
11
542.61300121018201
21
235.82188269405523
31
0
0
LINE
5
133
100
AcDbEntity
8
0
100
AcDbLine
10
491.21300121018174
20
145.02188269405525
30
0
11
497.21300121018169
21
145.02188269405525
31
0
0
LINE
5
134
100
AcDbEntity
8
0
100
AcDbLine
10
678.8130012101808
20
235.82188269405532
30
0
11
678.81300121018114
21
241.82188269405532
31
0
0
LINE
5
135
100
AcDbEntity
8
0
100
AcDbLine
10
588.01300121018153
20
235.82188269405532
30
0
11
588.01300121018153
21
241.82188269405515
31
0
0
LINE
5
136
100
AcDbEntity
8
0
100
AcDbLine
10
727.6728424676952
20
322.29072360655368
30
0
11
733.67284246769509
21
322.29072360655368
31
0
0
LINE
5
137
100
AcDbEntity
8
0
100
AcDbLine
10
733.67284246769532
20
347.29072360656198
30
0
11
727.67284246769532
21
347.2907236065617
31
0
0
LINE
5
138
100
AcDbEntity
8
0
100
AcDbLine
10
727.67284246769532
20
347.2907236065617
30
0
11
727.6728424676952
21
322.29072360655368
31
0
0
LINE
5
139
100
AcDbEntity
8
0
100
AcDbLine
10
733.67284246769532
20
372.29072360656994
30
0
11
733.67284246769532
21
347.29072360656198
31
0
0
LINE
5
140
100
AcDbEntity
8
0
100
AcDbLine
10
733.67284246769532
20
397.29072360657801
30
0
11
727.67284246769532
21
397.29072360657818
31
0
0
LINE
5
141
100
AcDbEntity
8
0
100
AcDbLine
10
727.67284246769532
20
372.29072360657023
30
0
11
733.67284246769532
21
372.29072360656994
31
0
0
LINE
5
142
100
AcDbEntity
8
0
100
AcDbLine
10
733.67284246769532
20
422.29072360658597
30
0
11
733.67284246769532
21
397.29072360657801
31
0
0
LINE
5
143
100
AcDbEntity
8
0
100
AcDbLine
10
727.67284246769532
20
397.29072360657818
30
0
11
727.67284246769532
21
372.29072360657023
31
0
0
LINE
5
144
100
AcDbEntity
8
0
100
AcDbLine
10
733.67284246769509
20
322.29072360655368
30
0
11
733.67284246769509
21
297.29072360654567
31
0
0
LINE
5
145
100
AcDbEntity
8
0
100
AcDbLine
10
546.07284246769495
20
303.29072360654482
30
0
11
546.07284246769507
21
297.29072360654635
31
0
0
LINE
5
146
100
AcDbEntity
8
0
100
AcDbLine
10
591.47284246769527
20
297.29072360654629
30
0
11
591.47284246769493
21
303.29072360654521
31
0
0
LINE
5
147
100
AcDbEntity
8
0
100
AcDbLine
10
591.47284246769493
20
303.29072360654521
30
0
11
546.07284246769495
21
303.29072360654482
31
0
0
LINE
5
148
100
AcDbEntity
8
0
100
AcDbLine
10
636.87284246769536
20
297.29072360654612
30
0
11
591.47284246769527
21
297.29072360654629
31
0
0
LINE
5
149
100
AcDbEntity
8
0
100
AcDbLine
10
682.27284246769511
20
297.29072360654595
30
0
11
682.27284246769511
21
303.29072360654601
31
0
0
LINE
5
150
100
AcDbEntity
8
0
100
AcDbLine
10
636.87284246769525
20
303.29072360654567
30
0
11
636.87284246769536
21
297.29072360654612
31
0
0
LINE
5
151
100
AcDbEntity
8
0
100
AcDbLine
10
733.67284246769509
20
297.29072360654567
30
0
11
682.27284246769511
21
297.29072360654595
31
0
0
LINE
5
152
100
AcDbEntity
8
0
100
AcDbLine
10
682.27284246769511
20
303.29072360654601
30
0
11
636.87284246769525
21
303.29072360654567
31
0
0
LINE
5
153
100
AcDbEntity
8
0
100
AcDbLine
10
546.07284246769507
20
297.29072360654635
30
0
11
494.67284246769515
21
297.29072360654646
31
0
0
LINE
5
154
100
AcDbEntity
8
0
100
AcDbLine
10
500.67284246769611
20
397.29072360654584
30
0
11
494.67284246769628
21
397.2907236065459
31
0
0
LINE
5
155
100
AcDbEntity
8
0
100
AcDbLine
10
494.672842467696
20
372.29072360654629
30
0
11
500.67284246769589
21
372.29072360654584
31
0
0
LINE
5
156
100
AcDbEntity
8
0
100
AcDbLine
10
500.67284246769589
20
372.29072360654584
30
0
11
500.67284246769611
21
397.29072360654584
31
0
0
LINE
5
157
100
AcDbEntity
8
0
100
AcDbLine
10
494.67284246769572
20
347.29072360654629
30
0
11
494.672842467696
21
372.29072360654629
31
0
0
LINE
5
158
100
AcDbEntity
8
0
100
AcDbLine
10
494.67284246769543
20
322.29072360654646
30
0
11
500.67284246769543
21
322.29072360654629
31
0
0
LINE
5
159
100
AcDbEntity
8
0
100
AcDbLine
10
500.67284246769555
20
347.29072360654629
30
0
11
494.67284246769572
21
347.29072360654629
31
0
0
LINE
5
160
100
AcDbEntity
8
0
100
AcDbLine
10
494.67284246769515
20
297.29072360654646
30
0
11
494.67284246769543
21
322.29072360654646
31
0
0
LINE
5
161
100
AcDbEntity
8
0
100
AcDbLine
10
500.67284246769543
20
322.29072360654629
30
0
11
500.67284246769555
21
347.29072360654629
31
0
0
LINE
5
162
100
AcDbEntity
8
0
100
AcDbLine
10
494.67284246769628
20
397.2907236065459
30
0
11
494.67284246769657
21
422.29072360654584
31
0
0
LWPOLYLINE
5
163
100
AcDbEntity
8
0
100
AcDbPolyline
90
4
70
1
43
0.0
10
591.47284246769618
20
402.29072360654521
10
546.0728424676962
20
402.29072360654521
10
546.0728424676962
20
396.29072360654516
10
591.47284246769618
20
396.29072360654516
0
LWPOLYLINE
5
164
100
AcDbEntity
8
0
100
AcDbPolyline
90
4
70
1
43
0.0
10
682.27284246769614
20
402.29072360654521
10
636.87284246769616
20
402.29072360654521
10
636.87284246769616
20
396.29072360654516
10
682.27284246769614
20
396.29072360654516
0
LINE
5
165
100
AcDbEntity
8
0
100
AcDbLine
10
494.67284246769657
20
422.29072360654584
30
0
11
733.67284246769532
21
422.29072360658597
31
0
0
LINE
5
166
100
AcDbEntity
8
0
100
AcDbLine
10
546.4247699053368
20
-61.943916198107104
30
0
11
591.82476990533678
21
-61.943916198109925
31
0
0
LINE
5
167
100
AcDbEntity
8
0
100
AcDbLine
10
495.02476990534376
20
-155.94391619813084
30
0
11
501.02476990534376
21
-155.94391619813084
31
0
0
LINE
5
168
100
AcDbEntity
8
0
100
AcDbLine
10
501.02476990534376
20
-155.94391619813084
30
0
11
501.02476990533705
21
-130.94391619811049
31
0
0
LINE
5
169
100
AcDbEntity
8
0
100
AcDbLine
10
495.02476990533683
20
-80.943916198109918
30
0
11
495.02476990533683
21
-55.943916198109918
31
0
0
LINE
5
170
100
AcDbEntity
8
0
100
AcDbLine
10
591.82476990533644
20
-55.943916198110308
30
0
11
637.22476990533642
21
-55.943916198110486
31
0
0
LINE
5
171
100
AcDbEntity
8
0
100
AcDbLine
10
495.02476990533683
20
-130.9439161981102
30
0
11
495.02476990533683
21
-105.9439161981102
31
0
0
LWPOLYLINE
5
172
100
AcDbEntity
8
0
100
AcDbPolyline
90
4
70
1
43
0.0
10
546.42476990533635
20
-154.94391619810955
10
546.42476990533635
20
-160.94391619810955
10
591.82476990533632
20
-160.94391619810955
10
591.82476990533632
20
-154.94391619810955
0
LINE
5
173
100
AcDbEntity
8
0
100
AcDbLine
10
546.4247699053368
20
-55.943916198107118
30
0
11
546.4247699053368
21
-61.943916198107104
31
0
0
LINE
5
174
100
AcDbEntity
8
0
100
AcDbLine
10
734.02476990533523
20
-180.9439161981102
30
0
11
495.024769905337
21
-180.94391619813081
31
0
0
LINE
5
175
100
AcDbEntity
8
0
100
AcDbLine
10
495.02476990533683
20
-55.943916198109918
30
0
11
546.4247699053368
21
-55.943916198107118
31
0
0
LINE
5
176
100
AcDbEntity
8
0
100
AcDbLine
10
501.02476990533705
20
-130.94391619811049
30
0
11
495.02476990533683
21
-130.9439161981102
31
0
0
LINE
5
177
100
AcDbEntity
8
0
100
AcDbLine
10
501.02476990533705
20
-105.94391619810992
30
0
11
501.02476990533705
21
-80.943916198109918
31
0
0
LINE
5
178
100
AcDbEntity
8
0
100
AcDbLine
10
682.62476990533673
20
-55.943916198110571
30
0
11
734.02476990533671
21
-55.943916198110685
31
0
0
LWPOLYLINE
5
179
100
AcDbEntity
8
0
100
AcDbPolyline
90
4
70
1
43
0.0
10
682.62476990533628
20
-160.94391619810955
10
682.62476990533639
20
-154.94391619810955
10
637.22476990533642
20
-154.94391619810955
10
637.22476990533642
20
-160.94391619810952
0
LINE
5
180
100
AcDbEntity
8
0
100
AcDbLine
10
734.02476990533671
20
-55.943916198110685
30
0
11
734.02476990533853
21
-80.943916198110657
31
0
0
LINE
5
181
100
AcDbEntity
8
0
100
AcDbLine
10
728.0247699053366
20
-105.94391619811061
30
0
11
734.02476990533614
21
-105.94391619811063
31
0
0
LINE
5
182
100
AcDbEntity
8
0
100
AcDbLine
10
728.02476990533637
20
-155.9439161981102
30
0
11
734.02476990533557
21
-155.9439161981102
31
0
0
LINE
5
183
100
AcDbEntity
8
0
100
AcDbLine
10
682.62476990533696
20
-61.943916198109143
30
0
11
682.62476990533673
21
-55.943916198110571
31
0
0
LINE
5
184
100
AcDbEntity
8
0
100
AcDbLine
10
728.02476990533864
20
-80.943916198110628
30
0
11
728.0247699053366
21
-105.94391619811061
31
0
0
LINE
5
185
100
AcDbEntity
8
0
100
AcDbLine
10
637.22476990533687
20
-61.943916198109534
30
0
11
682.62476990533696
21
-61.943916198109143
31
0
0
LINE
5
186
100
AcDbEntity
8
0
100
AcDbLine
10
734.02476990533557
20
-155.9439161981102
30
0
11
734.02476990533523
21
-180.9439161981102
31
0
0
LINE
5
187
100
AcDbEntity
8
0
100
AcDbLine
10
734.02476990533614
20
-105.94391619811063
30
0
11
734.02476990533592
21
-130.94391619811063
31
0
0
LINE
5
188
100
AcDbEntity
8
0
100
AcDbLine
10
734.02476990533853
20
-80.943916198110657
30
0
11
728.02476990533864
21
-80.943916198110628
31
0
0
LINE
5
189
100
AcDbEntity
8
0
100
AcDbLine
10
728.02476990533648
20
-130.9439161981102
30
0
11
728.02476990533637
21
-155.9439161981102
31
0
0
LINE
5
190
100
AcDbEntity
8
0
100
AcDbLine
10
495.024769905337
20
-180.94391619813081
30
0
11
495.02476990534376
21
-155.94391619813084
31
0
0
LINE
5
191
100
AcDbEntity
8
0
100
AcDbLine
10
637.22476990533642
20
-55.943916198110486
30
0
11
637.22476990533687
21
-61.943916198109534
31
0
0
LINE
5
192
100
AcDbEntity
8
0
100
AcDbLine
10
734.02476990533592
20
-130.94391619811063
30
0
11
728.02476990533648
21
-130.9439161981102
31
0
0
LINE
5
193
100
AcDbEntity
8
0
100
AcDbLine
10
591.82476990533678
20
-61.943916198109925
30
0
11
591.82476990533644
21
-55.943916198110308
31
0
0
LINE
5
194
100
AcDbEntity
8
0
100
AcDbLine
10
495.02476990533683
20
-105.9439161981102
30
0
11
501.02476990533705
21
-105.94391619810992
31
0
0
LINE
5
195
100
AcDbEntity
8
0
100
AcDbLine
10
501.02476990533705
20
-80.943916198109918
30
0
11
495.02476990533683
21
-80.943916198109918
31
0
0
CIRCLE
5
196
100
AcDbEntity
8
0
100
AcDbCircle
10
557.21300121018135
20
103.82188269405535
30
0
40
20
210
0
220
0
230
1
0
LINE
5
197
100
AcDbEntity
8
0
100
AcDbLine
10
811.35677899774191
20
48.28716331688112
30
0
11
811.35677899774214
21
93.687163316881126
31
0
0
LINE
5
198
100
AcDbEntity
8
0
100
AcDbLine
10
905.35677899774271
20
2.8871633168851845
30
0
11
905.35677899774112
21
-3.1128366831148364
31
0
0
LINE
5
199
100
AcDbEntity
8
0
100
AcDbLine
10
905.35677899774112
20
-3.1128366831148364
30
0
11
880.35677899774112
21
-3.1128366831160741
31
0
0
LINE
5
200
100
AcDbEntity
8
0
100
AcDbLine
10
830.35677899774203
20
2.8871633168824182
30
0
11
805.35677899774203
21
2.8871633168812765
31
0
0
LINE
5
201
100
AcDbEntity
8
0
100
AcDbLine
10
805.35677899774259
20
93.687163316881339
30
0
11
805.35677899774316
21
139.08716331688134
31
0
0
LINE
5
202
100
AcDbEntity
8
0
100
AcDbLine
10
880.35677899774657
20
2.8871633168843855
30
0
11
855.35677899774646
21
2.8871633168836413
31
0
0
LWPOLYLINE
5
203
100
AcDbEntity
8
0
100
AcDbPolyline
90
4
70
1
43
0.0
10
904.35677899775783
20
48.285828281839585
10
910.35660256665437
20
48.239815861755694
10
910.35660256658912
20
93.639815861757342
10
904.35677899774998
20
93.685828281839591
0
LINE
5
204
100
AcDbEntity
8
0
100
AcDbLine
10
805.35677899774203
20
48.287163316881305
30
0
11
811.35677899774191
21
48.28716331688112
31
0
0
LINE
5
205
100
AcDbEntity
8
0
100
AcDbLine
10
930.35677899776397
20
229.88716331688039
30
0
11
930.35677899774271
21
2.8871633168859621
31
0
0
LINE
5
206
100
AcDbEntity
8
0
100
AcDbLine
10
805.35677899774203
20
2.8871633168812765
30
0
11
805.35677899774203
21
48.287163316881305
31
0
0
LINE
5
207
100
AcDbEntity
8
0
100
AcDbLine
10
880.35677899774112
20
-3.1128366831160741
30
0
11
880.35677899774657
21
2.8871633168843855
31
0
0
LINE
5
208
100
AcDbEntity
8
0
100
AcDbLine
10
855.35677899774328
20
-3.1128366831143306
30
0
11
830.35677899774271
21
-3.1128366831127039
31
0
0
LINE
5
209
100
AcDbEntity
8
0
100
AcDbLine
10
805.35677899775055
20
184.48716331687851
30
0
11
805.35677899775453
21
229.88716331687851
31
0
0
LWPOLYLINE
5
210
100
AcDbEntity
8
0
100
AcDbPolyline
90
4
70
1
43
0.0
10
910.35660256658207
20
184.48716331687962
10
904.35677899773282
20
184.48716331688007
10
904.35677899774214
20
139.08716331688009
10
910.35660256658139
20
139.04115089679811
0
LINE
5
211
100
AcDbEntity
8
0
100
AcDbLine
10
805.35677899775453
20
229.88716331687851
30
0
11
830.35677899775453
21
229.88716331688025
31
0
0
LINE
5
212
100
AcDbEntity
8
0
100
AcDbLine
10
855.35677899776101
20
235.88716331687888
30
0
11
855.35677899776056
21
229.88716331688028
31
0
0
LINE
5
213
100
AcDbEntity
8
0
100
AcDbLine
10
905.35677899776158
20
235.88716331687604
30
0
11
905.35677899776397
21
229.88716331688036
31
0
0
LINE
5
214
100
AcDbEntity
8
0
100
AcDbLine
10
811.35677899774237
20
184.48716331687984
30
0
11
805.35677899775055
21
184.48716331687851
31
0
0
LINE
5
215
100
AcDbEntity
8
0
100
AcDbLine
10
830.35677899775942
20
235.88716331688028
30
0
11
855.35677899776101
21
235.88716331687888
31
0
0
LINE
5
216
100
AcDbEntity
8
0
100
AcDbLine
10
811.35677899774225
20
139.08716331687981
30
0
11
811.35677899774237
21
184.48716331687984
31
0
0
LINE
5
217
100
AcDbEntity
8
0
100
AcDbLine
10
905.35677899776397
20
229.88716331688036
30
0
11
930.35677899776397
21
229.88716331688039
31
0
0
LINE
5
218
100
AcDbEntity
8
0
100
AcDbLine
10
855.35677899776056
20
229.88716331688028
30
0
11
880.35677899776056
21
229.88716331688033
31
0
0
LINE
5
219
100
AcDbEntity
8
0
100
AcDbLine
10
830.35677899775453
20
229.88716331688025
30
0
11
830.35677899775942
21
235.88716331688028
31
0
0
LINE
5
220
100
AcDbEntity
8
0
100
AcDbLine
10
880.35677899776056
20
235.88716331687746
30
0
11
905.35677899776158
21
235.88716331687604
31
0
0
LINE
5
221
100
AcDbEntity
8
0
100
AcDbLine
10
930.35677899774271
20
2.8871633168859621
30
0
11
905.35677899774271
21
2.8871633168851845
31
0
0
LINE
5
222
100
AcDbEntity
8
0
100
AcDbLine
10
805.35677899774316
20
139.08716331688134
30
0
11
811.35677899774225
21
139.08716331687981
31
0
0
LINE
5
223
100
AcDbEntity
8
0
100
AcDbLine
10
880.35677899776056
20
229.88716331688033
30
0
11
880.35677899776056
21
235.88716331687746
31
0
0
LINE
5
224
100
AcDbEntity
8
0
100
AcDbLine
10
811.35677899774214
20
93.687163316881126
30
0
11
805.35677899774259
21
93.687163316881339
31
0
0
LINE
5
225
100
AcDbEntity
8
0
100
AcDbLine
10
855.35677899774646
20
2.8871633168836413
30
0
11
855.35677899774328
21
-3.1128366831143306
31
0
0
LINE
5
226
100
AcDbEntity
8
0
100
AcDbLine
10
830.35677899774271
20
-3.1128366831127039
30
0
11
830.35677899774203
21
2.8871633168824182
31
0
0
LWPOLYLINE
5
227
100
AcDbEntity
8
0
100
AcDbPolyline
90
4
70
1
43
0.0
10
845.15589899489692
20
87.887163316876382
10
815.15589899489692
20
87.887163316876382
10
815.15589899489692
20
194.88716331687638
10
845.15589899489692
20
194.88716331687638
0
LWPOLYLINE
5
228
100
AcDbEntity
8
0
100
AcDbPolyline
90
4
70
1
43
0.0
10
900.15589899489692
20
187.88716331688028
10
875.15589899489692
20
187.88716331688028
10
875.15589899489692
20
100.88716331688025
10
900.15589899489692
20
100.88716331688025
0
LWPOLYLINE
5
229
100
AcDbEntity
8
0
100
AcDbPolyline
90
4
70
1
43
0.0
10
314.74706504240589
20
190.91915087523856
10
314.74706504241522
20
145.51915087523861
10
320.74688861125429
20
145.47313845515629
10
320.74688861124503
20
190.87313845515627
0
LWPOLYLINE
5
230
100
AcDbEntity
8
0
100
AcDbPolyline
90
4
70
1
43
0.0
10
320.74688861126361
20
100.07180342011577
10
314.74706504242442
20
100.11781584019778
10
314.7470650424338
20
54.671803420116234
10
320.74688861127294
20
54.671803420115772
0
LINE
5
231
100
AcDbEntity
8
0
100
AcDbLine
10
319.74688861128567
20
236.271803420087
30
0
11
319.74688861128726
21
242.271803420087
31
0
0
LINE
5
232
100
AcDbEntity
8
0
100
AcDbLine
10
413.74688861126492
20
190.87180342009023
30
0
11
413.74688861126373
21
145.4718034200902
31
0
0
LINE
5
233
100
AcDbEntity
8
0
100
AcDbLine
10
319.74688861128726
20
242.271803420087
30
0
11
344.74688861126793
21
242.27180342008825
31
0
0
LINE
5
234
100
AcDbEntity
8
0
100
AcDbLine
10
369.74688861126583
20
242.27180342008648
30
0
11
394.74688861126538
21
242.27180342008484
31
0
0
LINE
5
235
100
AcDbEntity
8
0
100
AcDbLine
10
394.74688861126538
20
242.27180342008484
30
0
11
394.74688861126401
21
236.27180342008933
31
0
0
LINE
5
236
100
AcDbEntity
8
0
100
AcDbLine
10
369.74688861126396
20
3.2718034200922901
30
0
11
369.74688861126447
21
9.27180342011596
31
0
0
LINE
5
237
100
AcDbEntity
8
0
100
AcDbLine
10
394.74688861126396
20
9.2718034198134145
30
0
11
394.74688861126396
21
3.2718034198134136
31
0
0
LINE
5
238
100
AcDbEntity
8
0
100
AcDbLine
10
419.74688861126504
20
190.87180342009017
30
0
11
413.74688861126492
21
190.87180342009023
31
0
0
LINE
5
239
100
AcDbEntity
8
0
100
AcDbLine
10
413.74688861126373
20
145.4718034200902
30
0
11
419.74688861126401
21
145.47180342008997
31
0
0
LINE
5
240
100
AcDbEntity
8
0
100
AcDbLine
10
394.74688861126401
20
236.27180342008933
30
0
11
419.74688861126396
21
236.27180342009015
31
0
0
LINE
5
241
100
AcDbEntity
8
0
100
AcDbLine
10
419.74688861126396
20
100.07180342008995
30
0
11
413.74688861126356
21
100.07180342009151
31
0
0
LINE
5
242
100
AcDbEntity
8
0
100
AcDbLine
10
319.74688861126441
20
3.2718034200895634
30
0
11
319.7468886112643
21
9.271803420115889
31
0
0
LINE
5
243
100
AcDbEntity
8
0
100
AcDbLine
10
419.74688861126401
20
145.47180342008997
30
0
11
419.74688861126396
21
100.07180342008995
31
0
0
LINE
5
244
100
AcDbEntity
8
0
100
AcDbLine
10
419.74688861126396
20
236.27180342009015
30
0
11
419.74688861126504
21
190.87180342009017
31
0
0
LINE
5
245
100
AcDbEntity
8
0
100
AcDbLine
10
369.74688861126333
20
236.27180342008845
30
0
11
369.74688861126583
21
242.27180342008648
31
0
0
LINE
5
246
100
AcDbEntity
8
0
100
AcDbLine
10
344.74688861126793
20
242.27180342008825
30
0
11
344.74688861126333
21
236.27180342008768
31
0
0
LINE
5
247
100
AcDbEntity
8
0
100
AcDbLine
10
294.74688861128607
20
236.27180342008614
30
0
11
319.74688861128567
21
236.271803420087
31
0
0
LINE
5
248
100
AcDbEntity
8
0
100
AcDbLine
10
344.74688861126333
20
236.27180342008768
30
0
11
369.74688861126333
21
236.27180342008845
31
0
0
LINE
5
249
100
AcDbEntity
8
0
100
AcDbLine
10
294.7468886112643
20
9.2718034201158552
30
0
11
294.74688861128607
21
236.27180342008614
31
0
0
LINE
5
250
100
AcDbEntity
8
0
100
AcDbLine
10
413.74688861126344
20
54.6718034200915
30
0
11
419.74688861126401
21
54.671803420090967
31
0
0
LINE
5
251
100
AcDbEntity
8
0
100
AcDbLine
10
369.74688861126447
20
9.27180342011596
30
0
11
344.74688861126435
21
9.2718034201159263
31
0
0
LINE
5
252
100
AcDbEntity
8
0
100
AcDbLine
10
419.74688861126401
20
54.671803420090967
30
0
11
419.74688861126401
21
9.2718034200909543
31
0
0
LINE
5
253
100
AcDbEntity
8
0
100
AcDbLine
10
344.74688861126435
20
3.2718034200881907
30
0
11
319.74688861126441
21
3.2718034200895634
31
0
0
LINE
5
254
100
AcDbEntity
8
0
100
AcDbLine
10
413.74688861126356
20
100.07180342009151
30
0
11
413.74688861126344
21
54.6718034200915
31
0
0
LINE
5
255
100
AcDbEntity
8
0
100
AcDbLine
10
394.74688861126396
20
3.2718034198134136
30
0
11
369.74688861126396
21
3.2718034200922901
31
0
0
LINE
5
256
100
AcDbEntity
8
0
100
AcDbLine
10
419.74688861126401
20
9.2718034200909543
30
0
11
394.74688861126396
21
9.2718034198134145
31
0
0
LINE
5
257
100
AcDbEntity
8
0
100
AcDbLine
10
344.74688861126435
20
9.2718034201159263
30
0
11
344.74688861126435
21
3.2718034200881907
31
0
0
LINE
5
258
100
AcDbEntity
8
0
100
AcDbLine
10
319.7468886112643
20
9.271803420115889
30
0
11
294.7468886112643
21
9.2718034201158552
31
0
0
LINE
5
259
100
AcDbEntity
8
0
100
AcDbLine
10
730.15672791825568
20
-400.37107796846925
30
0
11
724.15672791825546
21
-400.37107796846925
31
0
0
LINE
5
260
100
AcDbEntity
8
0
100
AcDbLine
10
587.95672791825518
20
-497.17107796846926
30
0
11
587.95672791825518
21
-491.17107796846926
31
0
0
LINE
5
261
100
AcDbEntity
8
0
100
AcDbLine
10
497.15672791825
20
-445.77107796846963
30
0
11
497.15672791824989
21
-491.1710779684696
31
0
0
LINE
5
262
100
AcDbEntity
8
0
100
AcDbLine
10
542.55672791825396
20
-258.1710779684696
30
0
11
542.5567279182535
21
-264.17107796846938
31
0
0
LINE
5
263
100
AcDbEntity
8
0
100
AcDbLine
10
497.15672791825176
20
-309.57107796846935
30
0
11
491.15672791825176
21
-309.57107796846958
31
0
0
LINE
5
264
100
AcDbEntity
8
0
100
AcDbLine
10
587.95672791825405
20
-264.17107796846926
30
0
11
587.95672791825405
21
-258.17107796846949
31
0
0
LINE
5
265
100
AcDbEntity
8
0
100
AcDbLine
10
542.55672791825521
20
-497.17107796846926
30
0
11
587.95672791825518
21
-497.17107796846926
31
0
0
LINE
5
266
100
AcDbEntity
8
0
100
AcDbLine
10
497.15672791825517
20
-491.17107796846926
30
0
11
542.55672791825521
21
-491.17107796846926
31
0
0
LINE
5
267
100
AcDbEntity
8
0
100
AcDbLine
10
497.15672791825028
20
-354.97107796846956
30
0
11
497.15672791825011
21
-400.37107796846954
31
0
0
LINE
5
268
100
AcDbEntity
8
0
100
AcDbLine
10
542.5567279182535
20
-264.17107796846938
30
0
11
497.15672791825341
21
-264.17107796846938
31
0
0
LINE
5
269
100
AcDbEntity
8
0
100
AcDbLine
10
491.1567279182558
20
-400.37107796846954
30
0
11
491.15672791825591
21
-445.77107796846951
31
0
0
LINE
5
270
100
AcDbEntity
8
0
100
AcDbLine
10
497.15672791825011
20
-400.37107796846954
30
0
11
491.1567279182558
21
-400.37107796846954
31
0
0
LINE
5
271
100
AcDbEntity
8
0
100
AcDbLine
10
724.15672791825546
20
-400.37107796846925
30
0
11
724.15672791825546
21
-354.97107796846927
31
0
0
LINE
5
272
100
AcDbEntity
8
0
100
AcDbLine
10
491.15672791825591
20
-445.77107796846951
30
0
11
497.15672791825
21
-445.77107796846963
31
0
0
LINE
5
273
100
AcDbEntity
8
0
100
AcDbLine
10
587.95672791825518
20
-491.17107796846926
30
0
11
633.35672791825527
21
-491.17107796846926
31
0
0
LINE
5
274
100
AcDbEntity
8
0
100
AcDbLine
10
491.15672791825386
20
-354.97107796846956
30
0
11
497.15672791825028
21
-354.97107796846956
31
0
0
LINE
5
275
100
AcDbEntity
8
0
100
AcDbLine
10
730.1567279182558
20
-354.97107796846927
30
0
11
730.15672791825591
21
-309.5710779684693
31
0
0
LINE
5
276
100
AcDbEntity
8
0
100
AcDbLine
10
497.15672791825341
20
-264.17107796846938
30
0
11
497.15672791825176
21
-309.57107796846935
31
0
0
LINE
5
277
100
AcDbEntity
8
0
100
AcDbLine
10
491.15672791825176
20
-309.57107796846958
30
0
11
491.15672791825386
21
-354.97107796846956
31
0
0
LINE
5
278
100
AcDbEntity
8
0
100
AcDbLine
10
730.15672791825591
20
-309.5710779684693
30
0
11
724.15672791825523
21
-309.57107796846924
31
0
0
LINE
5
279
100
AcDbEntity
8
0
100
AcDbLine
10
633.35672791825414
20
-264.17107796846926
30
0
11
587.95672791825405
21
-264.17107796846926
31
0
0
LINE
5
280
100
AcDbEntity
8
0
100
AcDbLine
10
587.95672791825405
20
-258.17107796846949
30
0
11
542.55672791825396
21
-258.1710779684696
31
0
0
LINE
5
281
100
AcDbEntity
8
0
100
AcDbLine
10
724.15672791825523
20
-309.57107796846924
30
0
11
724.15672791825523
21
-264.17107796846926
31
0
0
CIRCLE
5
282
100
AcDbEntity
8
0
100
AcDbCircle
10
557.15672791825011
20
-396.17107796846926
30
0
40
15
210
0
220
0
230
1
0
LINE
5
283
100
AcDbEntity
8
0
100
AcDbLine
10
724.15672791825523
20
-264.17107796846926
30
0
11
678.75672791825514
21
-264.17107796844306
31
0
0
LINE
5
284
100
AcDbEntity
8
0
100
AcDbLine
10
633.35672791825448
20
-258.17107796846943
30
0
11
633.35672791825414
21
-264.17107796846926
31
0
0
LINE
5
285
100
AcDbEntity
8
0
100
AcDbLine
10
678.7567279182548
20
-258.17107796844306
30
0
11
633.35672791825448
21
-258.17107796846943
31
0
0
LINE
5
286
100
AcDbEntity
8
0
100
AcDbLine
10
678.75672791825514
20
-264.17107796844306
30
0
11
678.7567279182548
21
-258.17107796844306
31
0
0
LINE
5
287
100
AcDbEntity
8
0
100
AcDbLine
10
542.55672791825521
20
-491.17107796846926
30
0
11
542.55672791825521
21
-497.17107796846926
31
0
0
LINE
5
288
100
AcDbEntity
8
0
100
AcDbLine
10
633.35672791825527
20
-491.17107796846926
30
0
11
633.35672791825527
21
-497.17107796846926
31
0
0
LINE
5
289
100
AcDbEntity
8
0
100
AcDbLine
10
730.15672791825534
20
-445.77107796846923
30
0
11
730.15672791825568
21
-400.37107796846925
31
0
0
LINE
5
290
100
AcDbEntity
8
0
100
AcDbLine
10
724.15672791825546
20
-354.97107796846927
30
0
11
730.1567279182558
21
-354.97107796846927
31
0
0
LINE
5
291
100
AcDbEntity
8
0
100
AcDbLine
10
678.75672791825525
20
-497.17107796846926
30
0
11
678.75672791825525
21
-491.17107796846926
31
0
0
LINE
5
292
100
AcDbEntity
8
0
100
AcDbLine
10
724.15672791825546
20
-445.77107796846923
30
0
11
730.15672791825534
21
-445.77107796846923
31
0
0
LINE
5
293
100
AcDbEntity
8
0
100
AcDbLine
10
724.15672791825523
20
-491.17107796846926
30
0
11
724.15672791825546
21
-445.77107796846923
31
0
0
LINE
5
294
100
AcDbEntity
8
0
100
AcDbLine
10
678.75672791825525
20
-491.17107796846926
30
0
11
724.15672791825523
21
-491.17107796846926
31
0
0
LINE
5
295
100
AcDbEntity
8
0
100
AcDbLine
10
633.35672791825527
20
-497.17107796846926
30
0
11
678.75672791825525
21
-497.17107796846926
31
0
0
LWPOLYLINE
5
296
100
AcDbEntity
8
0
100
AcDbPolyline
90
4
70
1
43
0.0
10
568.883957792111
20
334.74035314695743
10
544.883957792111
20
334.74035314695743
10
544.883957792111
20
320.74035314695743
10
568.883957792111
20
320.74035314695743
0
ENDSEC
0
SECTION
2
OBJECTS
0
DICTIONARY
5
C
100
AcDbDictionary
3
ACAD_GROUP
350
D
3
ACAD_MLINESTYLE
350
17
0
DICTIONARY
5
D
100
AcDbDictionary
0
DICTIONARY
5
1A
330
C
100
AcDbDictionary
0
DICTIONARY
5
17
100
AcDbDictionary
0
ENDSEC
0
EOF
