  0
SECTION
  2
HEADER
  9
$ACADVER
  1
AC1014
  9
$HANDSEED
  5
FFFF
  9
$MEASUREMENT
 70
     1
  0
ENDSEC
  0
SECTION
  2
TABLES
  0
TABLE
  2
VPORT
  5
8
330
0
100
AcDbSymbolTable
 70
     4
  0
VPORT
  5
2E
330
8
100
AcDbSymbolTableRecord
100
AcDbViewportTableRecord
  2
*ACTIVE
 70
     0
 10
0.0
 20
0.0
 11
1.0
 21
1.0
 12
210.0
 22
148.5
 13
0.0
 23
0.0
 14
10.0
 24
10.0
 15
10.0
 25
10.0
 16
0.0
 26
0.0
 36
1.0
 17
0.0
 27
0.0
 37
0.0
 40
341.0
 41
1.24
 42
50.0
 43
0.0
 44
0.0
 50
0.0
 51
0.0
 71
     0
 72
   100
 73
     1
 74
     3
 75
     0
 76
     0
 77
     0
 78
     0
  0
ENDTAB
  0
TABLE
  2
LTYPE
  5
5
330
0
100
AcDbSymbolTable
 70
     1
  0
LTYPE
  5
14
330
5
100
AcDbSymbolTableRecord
100
AcDbLinetypeTableRecord
  2
BYBLOCK
 70
     0
  3

 72
    65
 73
     0
 40
0.0
  0
LTYPE
  5
15
330
5
100
AcDbSymbolTableRecord
100
AcDbLinetypeTableRecord
  2
BYLAYER
 70
     0
  3

 72
    65
 73
     0
 40
0.0
  0
LTYPE
  5
16
330
5
100
AcDbSymbolTableRecord
100
AcDbLinetypeTableRecord
  2
CONTINUOUS
 70
     0
  3
Solid line
 72
    65
 73
     0
 40
0.0
  0
ENDTAB
  0
TABLE
  2
LAYER
  5
2
100
AcDbSymbolTable
 70
2
  0
LAYER
  5
50
100
AcDbSymbolTableRecord
100
AcDbLayerTableRecord
  2
0
 70
0
  6
CONTINUOUS
  0
LAYER
  5
51
100
AcDbSymbolTableRecord
100
AcDbLayerTableRecord
  2
Layer_1
 70
0
  6
CONTINUOUS
  0
ENDTAB
  0
TABLE
  2
STYLE
  5
3
330
0
100
AcDbSymbolTable
 70
     1
  0
STYLE
  5
11
330
3
100
AcDbSymbolTableRecord
100
AcDbTextStyleTableRecord
  2
STANDARD
 70
     0
 40
0.0
 41
1.0
 50
0.0
 71
     0
 42
2.5
  3
txt
  4

  0
ENDTAB
  0
TABLE
  2
VIEW
  5
6
330
0
100
AcDbSymbolTable
 70
     0
  0
ENDTAB
  0
TABLE
  2
UCS
  5
7
330
0
100
AcDbSymbolTable
 70
     0
  0
ENDTAB
  0
TABLE
  2
APPID
  5
9
330
0
100
AcDbSymbolTable
 70
     2
  0
APPID
  5
12
330
9
100
AcDbSymbolTableRecord
100
AcDbRegAppTableRecord
  2
ACAD
 70
     0
  0
ENDTAB
  0
TABLE
  2
DIMSTYLE
  5
A
330
0
100
AcDbSymbolTable
 70
     1
  0
DIMSTYLE
105
27
330
A
100
AcDbSymbolTableRecord
100
AcDbDimStyleTableRecord
  2
ISO-25
 70
     0
  3

  4

  5

  6

  7

 40
1.0
 41
2.5
 42
0.625
 43
3.75
 44
1.25
 45
0.0
 46
0.0
 47
0.0
 48
0.0
140
2.5
141
2.5
142
0.0
143
0.03937007874016
144
1.0
145
0.0
146
1.0
147
0.625
 71
     0
 72
     0
 73
     0
 74
     0
 75
     0
 76
     0
 77
     1
 78
     8
170
     0
171
     3
172
     1
173
     0
174
     0
175
     0
176
     0
177
     0
178
     0
270
     2
271
     2
272
     2
273
     2
274
     3
340
11
275
     0
280
     0
281
     0
282
     0
283
     0
284
     8
285
     0
286
     0
287
     3
288
     0
  0
ENDTAB
  0
TABLE
  2
BLOCK_RECORD
  5
1
330
0
100
AcDbSymbolTable
 70
     1
  0
BLOCK_RECORD
  5
1F
330
1
100
AcDbSymbolTableRecord
100
AcDbBlockTableRecord
  2
*MODEL_SPACE
  0
BLOCK_RECORD
  5
1B
330
1
100
AcDbSymbolTableRecord
100
AcDbBlockTableRecord
  2
*PAPER_SPACE
  0
ENDTAB
  0
ENDSEC
  0
SECTION
  2
BLOCKS
  0
BLOCK
  5
20
330
1F
100
AcDbEntity
  8
0
100
AcDbBlockBegin
  2
*MODEL_SPACE
 70
     0
 10
0.0
 20
0.0
 30
0.0
  3
*MODEL_SPACE
  1

  0
ENDBLK
  5
21
330
1F
100
AcDbEntity
  8
0
100
AcDbBlockEnd
  0
BLOCK
  5
1C
330
1B
100
AcDbEntity
 67
     1
  8
0
100
AcDbBlockBegin
  2
*PAPER_SPACE
  1

  0
ENDBLK
  5
1D
330
1B
100
AcDbEntity
 67
     1
  8
0
100
AcDbBlockEnd
  0
ENDSEC
  0
SECTION
  2
ENTITIES
  0
SPLINE
  5
100
100
AcDbEntity
  8
Layer_1
 62
7
100
AcDbSpline
 70
8
 71
3
 72
8
 73
4
 74
0
 40
0
 40
0
 40
0
 40
0
 40
1
 40
1
 40
1
 40
1
 10
39.455992
 20
942.158115
 30
0.0
 10
29.109040
 20
942.158117
 30
0.0
 10
19.185871
 20
938.047808
 30
0.0
 10
11.869470
 20
930.731408
 30
0.0
  0
SPLINE
  5
101
100
AcDbEntity
  8
Layer_1
 62
7
100
AcDbSpline
 70
8
 71
3
 72
8
 73
4
 74
0
 40
0
 40
0
 40
0
 40
0
 40
1
 40
1
 40
1
 40
1
 10
536.701981
 20
930.731408
 30
0.0
 10
529.385586
 20
938.047802
 30
0.0
 10
519.462426
 20
942.158111
 30
0.0
 10
509.115481
 20
942.158115
 30
0.0
  0
SPLINE
  5
102
100
AcDbEntity
  8
Layer_1
 62
7
100
AcDbSpline
 70
8
 71
3
 72
8
 73
4
 74
0
 40
0
 40
0
 40
0
 40
0
 40
1
 40
1
 40
1
 40
1
 10
880.228077
 20
571.045497
 30
0.0
 10
880.228079
 20
581.392447
 30
0.0
 10
876.117773
 20
591.315614
 30
0.0
 10
868.801377
 20
598.632015
 30
0.0
  0
SPLINE
  5
103
100
AcDbEntity
  8
Layer_1
 62
7
100
AcDbSpline
 70
8
 71
3
 72
8
 73
4
 74
0
 40
0
 40
0
 40
0
 40
0
 40
1
 40
1
 40
1
 40
1
 10
868.801377
 20
73.799516
 30
0.0
 10
876.117772
 20
81.115917
 30
0.0
 10
880.228078
 20
91.039082
 30
0.0
 10
880.228077
 20
101.386031
 30
0.0
  0
SPLINE
  5
104
100
AcDbEntity
  8
Layer_1
 62
7
100
AcDbSpline
 70
8
 71
3
 72
8
 73
4
 74
0
 40
0
 40
0
 40
0
 40
0
 40
1
 40
1
 40
1
 40
1
 10
509.115481
 20
-269.726602
 30
0.0
 10
519.462425
 20
-269.726600
 30
0.0
 10
529.385584
 20
-265.616293
 30
0.0
 10
536.701981
 20
-258.299902
 30
0.0
  0
SPLINE
  5
105
100
AcDbEntity
  8
Layer_1
 62
7
100
AcDbSpline
 70
8
 71
3
 72
8
 73
4
 74
0
 40
0
 40
0
 40
0
 40
0
 40
1
 40
1
 40
1
 40
1
 10
11.869470
 20
-258.299902
 30
0.0
 10
19.185872
 20
-265.616299
 30
0.0
 10
29.109041
 20
-269.726606
 30
0.0
 10
39.455992
 20
-269.726602
 30
0.0
  0
SPLINE
  5
106
100
AcDbEntity
  8
Layer_1
 62
7
100
AcDbSpline
 70
8
 71
3
 72
8
 73
4
 74
0
 40
0
 40
0
 40
0
 40
0
 40
1
 40
1
 40
1
 40
1
 10
-331.656633
 20
101.386031
 30
0.0
 10
-331.656632
 20
91.039081
 30
0.0
 10
-327.546322
 20
81.115915
 30
0.0
 10
-320.229923
 20
73.799516
 30
0.0
  0
SPLINE
  5
107
100
AcDbEntity
  8
Layer_1
 62
7
100
AcDbSpline
 70
8
 71
3
 72
8
 73
4
 74
0
 40
0
 40
0
 40
0
 40
0
 40
1
 40
1
 40
1
 40
1
 10
-320.229923
 20
598.632015
 30
0.0
 10
-327.546323
 20
591.315616
 30
0.0
 10
-331.656633
 20
581.392448
 30
0.0
 10
-331.656633
 20
571.045497
 30
0.0
  0
SPLINE
  5
108
100
AcDbEntity
  8
Layer_1
 62
7
100
AcDbSpline
 70
8
 71
3
 72
8
 73
4
 74
0
 40
0
 40
0
 40
0
 40
0
 40
1
 40
1
 40
1
 40
1
 10
523.630306
 20
927.921751
 30
0.0
 10
523.636133
 20
929.444697
 30
0.0
 10
522.826996
 20
930.854458
 30
0.0
 10
521.509048
 20
931.617618
 30
0.0
  0
SPLINE
  5
109
100
AcDbEntity
  8
Layer_1
 62
7
100
AcDbSpline
 70
8
 71
3
 72
8
 73
4
 74
0
 40
0
 40
0
 40
0
 40
0
 40
1
 40
1
 40
1
 40
1
 10
521.509048
 20
931.617618
 30
0.0
 10
520.191100
 20
932.380778
 30
0.0
 10
518.565637
 20
932.380778
 30
0.0
 10
517.247690
 20
931.617618
 30
0.0
  0
SPLINE
  5
10a
100
AcDbEntity
  8
Layer_1
 62
7
100
AcDbSpline
 70
8
 71
3
 72
8
 73
4
 74
0
 40
0
 40
0
 40
0
 40
0
 40
1
 40
1
 40
1
 40
1
 10
517.247690
 20
931.617618
 30
0.0
 10
515.929742
 20
930.854458
 30
0.0
 10
515.120604
 20
929.444697
 30
0.0
 10
515.126431
 20
927.921751
 30
0.0
  0
SPLINE
  5
10b
100
AcDbEntity
  8
Layer_1
 62
7
100
AcDbSpline
 70
8
 71
3
 72
8
 73
4
 74
0
 40
0
 40
0
 40
0
 40
0
 40
1
 40
1
 40
1
 40
1
 10
515.126431
 20
927.921751
 30
0.0
 10
515.120604
 20
926.398804
 30
0.0
 10
515.929742
 20
924.989044
 30
0.0
 10
517.247690
 20
924.225883
 30
0.0
  0
SPLINE
  5
10c
100
AcDbEntity
  8
Layer_1
 62
7
100
AcDbSpline
 70
8
 71
3
 72
8
 73
4
 74
0
 40
0
 40
0
 40
0
 40
0
 40
1
 40
1
 40
1
 40
1
 10
517.247690
 20
924.225883
 30
0.0
 10
518.565637
 20
923.462723
 30
0.0
 10
520.191100
 20
923.462723
 30
0.0
 10
521.509048
 20
924.225883
 30
0.0
  0
SPLINE
  5
10d
100
AcDbEntity
  8
Layer_1
 62
7
100
AcDbSpline
 70
8
 71
3
 72
8
 73
4
 74
0
 40
0
 40
0
 40
0
 40
0
 40
1
 40
1
 40
1
 40
1
 10
521.509048
 20
924.225883
 30
0.0
 10
522.826996
 20
924.989044
 30
0.0
 10
523.636133
 20
926.398804
 30
0.0
 10
523.630306
 20
927.921751
 30
0.0
  0
SPLINE
  5
10e
100
AcDbEntity
  8
Layer_1
 62
7
100
AcDbSpline
 70
8
 71
3
 72
8
 73
4
 74
0
 40
0
 40
0
 40
0
 40
0
 40
1
 40
1
 40
1
 40
1
 10
33.445042
 20
927.921751
 30
0.0
 10
33.445945
 20
929.441434
 30
0.0
 10
32.635722
 20
930.846065
 30
0.0
 10
31.319788
 20
931.606168
 30
0.0
  0
SPLINE
  5
10f
100
AcDbEntity
  8
Layer_1
 62
7
100
AcDbSpline
 70
8
 71
3
 72
8
 73
4
 74
0
 40
0
 40
0
 40
0
 40
0
 40
1
 40
1
 40
1
 40
1
 10
31.319788
 20
931.606168
 30
0.0
 10
30.003854
 20
932.366270
 30
0.0
 10
28.382296
 20
932.366270
 30
0.0
 10
27.066362
 20
931.606168
 30
0.0
  0
SPLINE
  5
110
100
AcDbEntity
  8
Layer_1
 62
7
100
AcDbSpline
 70
8
 71
3
 72
8
 73
4
 74
0
 40
0
 40
0
 40
0
 40
0
 40
1
 40
1
 40
1
 40
1
 10
27.066362
 20
931.606168
 30
0.0
 10
25.750428
 20
930.846065
 30
0.0
 10
24.940205
 20
929.441434
 30
0.0
 10
24.941107
 20
927.921751
 30
0.0
  0
SPLINE
  5
111
100
AcDbEntity
  8
Layer_1
 62
7
100
AcDbSpline
 70
8
 71
3
 72
8
 73
4
 74
0
 40
0
 40
0
 40
0
 40
0
 40
1
 40
1
 40
1
 40
1
 10
24.941107
 20
927.921751
 30
0.0
 10
24.940205
 20
926.402067
 30
0.0
 10
25.750428
 20
924.997436
 30
0.0
 10
27.066362
 20
924.237334
 30
0.0
  0
SPLINE
  5
112
100
AcDbEntity
  8
Layer_1
 62
7
100
AcDbSpline
 70
8
 71
3
 72
8
 73
4
 74
0
 40
0
 40
0
 40
0
 40
0
 40
1
 40
1
 40
1
 40
1
 10
27.066362
 20
924.237334
 30
0.0
 10
28.382296
 20
923.477231
 30
0.0
 10
30.003854
 20
923.477231
 30
0.0
 10
31.319788
 20
924.237334
 30
0.0
  0
SPLINE
  5
113
100
AcDbEntity
  8
Layer_1
 62
7
100
AcDbSpline
 70
8
 71
3
 72
8
 73
4
 74
0
 40
0
 40
0
 40
0
 40
0
 40
1
 40
1
 40
1
 40
1
 10
31.319788
 20
924.237334
 30
0.0
 10
32.635722
 20
924.997436
 30
0.0
 10
33.445945
 20
926.402067
 30
0.0
 10
33.445042
 20
927.921751
 30
0.0
  0
LWPOLYLINE
  5
114
100
AcDbEntity
  8
Layer_1
 62
7
100
AcDbPolyline
 90
1
 70
1
 10
523.630306
 20
927.921751
 30
0.0
  0
SPLINE
  5
115
100
AcDbEntity
  8
Layer_1
 62
7
100
AcDbSpline
 70
8
 71
3
 72
8
 73
4
 74
0
 40
0
 40
0
 40
0
 40
0
 40
1
 40
1
 40
1
 40
1
 10
-313.168298
 20
581.308409
 30
0.0
 10
-313.168298
 20
582.827491
 30
0.0
 10
-313.978718
 20
584.231181
 30
0.0
 10
-315.294282
 20
584.990722
 30
0.0
  0
SPLINE
  5
116
100
AcDbEntity
  8
Layer_1
 62
7
100
AcDbSpline
 70
8
 71
3
 72
8
 73
4
 74
0
 40
0
 40
0
 40
0
 40
0
 40
1
 40
1
 40
1
 40
1
 10
-315.294282
 20
584.990722
 30
0.0
 10
-316.609846
 20
585.750263
 30
0.0
 10
-318.230687
 20
585.750263
 30
0.0
 10
-319.546251
 20
584.990722
 30
0.0
  0
SPLINE
  5
117
100
AcDbEntity
  8
Layer_1
 62
7
100
AcDbSpline
 70
8
 71
3
 72
8
 73
4
 74
0
 40
0
 40
0
 40
0
 40
0
 40
1
 40
1
 40
1
 40
1
 10
-319.546251
 20
584.990722
 30
0.0
 10
-320.861814
 20
584.231181
 30
0.0
 10
-321.672235
 20
582.827491
 30
0.0
 10
-321.672235
 20
581.308409
 30
0.0
  0
SPLINE
  5
118
100
AcDbEntity
  8
Layer_1
 62
7
100
AcDbSpline
 70
8
 71
3
 72
8
 73
4
 74
0
 40
0
 40
0
 40
0
 40
0
 40
1
 40
1
 40
1
 40
1
 10
-321.672235
 20
581.308409
 30
0.0
 10
-321.672235
 20
579.789327
 30
0.0
 10
-320.861814
 20
578.385637
 30
0.0
 10
-319.546251
 20
577.626096
 30
0.0
  0
SPLINE
  5
119
100
AcDbEntity
  8
Layer_1
 62
7
100
AcDbSpline
 70
8
 71
3
 72
8
 73
4
 74
0
 40
0
 40
0
 40
0
 40
0
 40
1
 40
1
 40
1
 40
1
 10
-319.546251
 20
577.626096
 30
0.0
 10
-318.230687
 20
576.866555
 30
0.0
 10
-316.609846
 20
576.866555
 30
0.0
 10
-315.294282
 20
577.626096
 30
0.0
  0
SPLINE
  5
11a
100
AcDbEntity
  8
Layer_1
 62
7
100
AcDbSpline
 70
8
 71
3
 72
8
 73
4
 74
0
 40
0
 40
0
 40
0
 40
0
 40
1
 40
1
 40
1
 40
1
 10
-315.294282
 20
577.626096
 30
0.0
 10
-313.978718
 20
578.385637
 30
0.0
 10
-313.168298
 20
579.789327
 30
0.0
 10
-313.168298
 20
581.308409
 30
0.0
  0
LWPOLYLINE
  5
11b
100
AcDbEntity
  8
Layer_1
 62
7
100
AcDbPolyline
 90
1
 70
1
 10
33.445042
 20
927.921751
 30
0.0
  0
SPLINE
  5
11c
100
AcDbEntity
  8
Layer_1
 62
7
100
AcDbSpline
 70
8
 71
3
 72
8
 73
4
 74
0
 40
0
 40
0
 40
0
 40
0
 40
1
 40
1
 40
1
 40
1
 10
-313.168298
 20
91.123121
 30
0.0
 10
-313.168298
 20
92.642203
 30
0.0
 10
-313.978718
 20
94.045893
 30
0.0
 10
-315.294282
 20
94.805434
 30
0.0
  0
SPLINE
  5
11d
100
AcDbEntity
  8
Layer_1
 62
7
100
AcDbSpline
 70
8
 71
3
 72
8
 73
4
 74
0
 40
0
 40
0
 40
0
 40
0
 40
1
 40
1
 40
1
 40
1
 10
-315.294282
 20
94.805434
 30
0.0
 10
-316.609846
 20
95.564975
 30
0.0
 10
-318.230687
 20
95.564975
 30
0.0
 10
-319.546251
 20
94.805434
 30
0.0
  0
SPLINE
  5
11e
100
AcDbEntity
  8
Layer_1
 62
7
100
AcDbSpline
 70
8
 71
3
 72
8
 73
4
 74
0
 40
0
 40
0
 40
0
 40
0
 40
1
 40
1
 40
1
 40
1
 10
-319.546251
 20
94.805434
 30
0.0
 10
-320.861814
 20
94.045893
 30
0.0
 10
-321.672235
 20
92.642203
 30
0.0
 10
-321.672235
 20
91.123121
 30
0.0
  0
SPLINE
  5
11f
100
AcDbEntity
  8
Layer_1
 62
7
100
AcDbSpline
 70
8
 71
3
 72
8
 73
4
 74
0
 40
0
 40
0
 40
0
 40
0
 40
1
 40
1
 40
1
 40
1
 10
-321.672235
 20
91.123121
 30
0.0
 10
-321.672235
 20
89.604039
 30
0.0
 10
-320.861814
 20
88.200349
 30
0.0
 10
-319.546251
 20
87.440808
 30
0.0
  0
SPLINE
  5
120
100
AcDbEntity
  8
Layer_1
 62
7
100
AcDbSpline
 70
8
 71
3
 72
8
 73
4
 74
0
 40
0
 40
0
 40
0
 40
0
 40
1
 40
1
 40
1
 40
1
 10
-319.546251
 20
87.440808
 30
0.0
 10
-318.230687
 20
86.681267
 30
0.0
 10
-316.609846
 20
86.681267
 30
0.0
 10
-315.294282
 20
87.440808
 30
0.0
  0
SPLINE
  5
121
100
AcDbEntity
  8
Layer_1
 62
7
100
AcDbSpline
 70
8
 71
3
 72
8
 73
4
 74
0
 40
0
 40
0
 40
0
 40
0
 40
1
 40
1
 40
1
 40
1
 10
-315.294282
 20
87.440808
 30
0.0
 10
-313.978718
 20
88.200349
 30
0.0
 10
-313.168298
 20
89.604039
 30
0.0
 10
-313.168298
 20
91.123121
 30
0.0
  0
LWPOLYLINE
  5
122
100
AcDbEntity
  8
Layer_1
 62
7
100
AcDbPolyline
 90
1
 70
1
 10
-313.168298
 20
581.308409
 30
0.0
  0
SPLINE
  5
123
100
AcDbEntity
  8
Layer_1
 62
7
100
AcDbSpline
 70
8
 71
3
 72
8
 73
4
 74
0
 40
0
 40
0
 40
0
 40
0
 40
1
 40
1
 40
1
 40
1
 10
33.445042
 20
-255.490252
 30
0.0
 10
33.445945
 20
-253.970569
 30
0.0
 10
32.635722
 20
-252.565937
 30
0.0
 10
31.319788
 20
-251.805835
 30
0.0
  0
SPLINE
  5
124
100
AcDbEntity
  8
Layer_1
 62
7
100
AcDbSpline
 70
8
 71
3
 72
8
 73
4
 74
0
 40
0
 40
0
 40
0
 40
0
 40
1
 40
1
 40
1
 40
1
 10
31.319788
 20
-251.805835
 30
0.0
 10
30.003854
 20
-251.045733
 30
0.0
 10
28.382296
 20
-251.045733
 30
0.0
 10
27.066362
 20
-251.805835
 30
0.0
  0
SPLINE
  5
125
100
AcDbEntity
  8
Layer_1
 62
7
100
AcDbSpline
 70
8
 71
3
 72
8
 73
4
 74
0
 40
0
 40
0
 40
0
 40
0
 40
1
 40
1
 40
1
 40
1
 10
27.066362
 20
-251.805835
 30
0.0
 10
25.750428
 20
-252.565937
 30
0.0
 10
24.940205
 20
-253.970569
 30
0.0
 10
24.941107
 20
-255.490252
 30
0.0
  0
SPLINE
  5
126
100
AcDbEntity
  8
Layer_1
 62
7
100
AcDbSpline
 70
8
 71
3
 72
8
 73
4
 74
0
 40
0
 40
0
 40
0
 40
0
 40
1
 40
1
 40
1
 40
1
 10
24.941107
 20
-255.490252
 30
0.0
 10
24.940205
 20
-257.009935
 30
0.0
 10
25.750428
 20
-258.414567
 30
0.0
 10
27.066362
 20
-259.174669
 30
0.0
  0
SPLINE
  5
127
100
AcDbEntity
  8
Layer_1
 62
7
100
AcDbSpline
 70
8
 71
3
 72
8
 73
4
 74
0
 40
0
 40
0
 40
0
 40
0
 40
1
 40
1
 40
1
 40
1
 10
27.066362
 20
-259.174669
 30
0.0
 10
28.382296
 20
-259.934771
 30
0.0
 10
30.003854
 20
-259.934771
 30
0.0
 10
31.319788
 20
-259.174669
 30
0.0
  0
SPLINE
  5
128
100
AcDbEntity
  8
Layer_1
 62
7
100
AcDbSpline
 70
8
 71
3
 72
8
 73
4
 74
0
 40
0
 40
0
 40
0
 40
0
 40
1
 40
1
 40
1
 40
1
 10
31.319788
 20
-259.174669
 30
0.0
 10
32.635722
 20
-258.414567
 30
0.0
 10
33.445945
 20
-257.009935
 30
0.0
 10
33.445042
 20
-255.490252
 30
0.0
  0
LWPOLYLINE
  5
129
100
AcDbEntity
  8
Layer_1
 62
7
100
AcDbPolyline
 90
1
 70
1
 10
-313.168298
 20
91.123121
 30
0.0
  0
SPLINE
  5
12a
100
AcDbEntity
  8
Layer_1
 62
7
100
AcDbSpline
 70
8
 71
3
 72
8
 73
4
 74
0
 40
0
 40
0
 40
0
 40
0
 40
1
 40
1
 40
1
 40
1
 10
523.630306
 20
-255.490252
 30
0.0
 10
523.636133
 20
-253.967306
 30
0.0
 10
522.826996
 20
-252.557545
 30
0.0
 10
521.509048
 20
-251.794385
 30
0.0
  0
SPLINE
  5
12b
100
AcDbEntity
  8
Layer_1
 62
7
100
AcDbSpline
 70
8
 71
3
 72
8
 73
4
 74
0
 40
0
 40
0
 40
0
 40
0
 40
1
 40
1
 40
1
 40
1
 10
521.509048
 20
-251.794385
 30
0.0
 10
520.191100
 20
-251.031224
 30
0.0
 10
518.565637
 20
-251.031224
 30
0.0
 10
517.247690
 20
-251.794385
 30
0.0
  0
SPLINE
  5
12c
100
AcDbEntity
  8
Layer_1
 62
7
100
AcDbSpline
 70
8
 71
3
 72
8
 73
4
 74
0
 40
0
 40
0
 40
0
 40
0
 40
1
 40
1
 40
1
 40
1
 10
517.247690
 20
-251.794385
 30
0.0
 10
515.929742
 20
-252.557545
 30
0.0
 10
515.120604
 20
-253.967306
 30
0.0
 10
515.126431
 20
-255.490252
 30
0.0
  0
SPLINE
  5
12d
100
AcDbEntity
  8
Layer_1
 62
7
100
AcDbSpline
 70
8
 71
3
 72
8
 73
4
 74
0
 40
0
 40
0
 40
0
 40
0
 40
1
 40
1
 40
1
 40
1
 10
515.126431
 20
-255.490252
 30
0.0
 10
515.120604
 20
-257.013199
 30
0.0
 10
515.929742
 20
-258.422959
 30
0.0
 10
517.247690
 20
-259.186119
 30
0.0
  0
SPLINE
  5
12e
100
AcDbEntity
  8
Layer_1
 62
7
100
AcDbSpline
 70
8
 71
3
 72
8
 73
4
 74
0
 40
0
 40
0
 40
0
 40
0
 40
1
 40
1
 40
1
 40
1
 10
517.247690
 20
-259.186119
 30
0.0
 10
518.565637
 20
-259.949280
 30
0.0
 10
520.191100
 20
-259.949280
 30
0.0
 10
521.509048
 20
-259.186119
 30
0.0
  0
SPLINE
  5
12f
100
AcDbEntity
  8
Layer_1
 62
7
100
AcDbSpline
 70
8
 71
3
 72
8
 73
4
 74
0
 40
0
 40
0
 40
0
 40
0
 40
1
 40
1
 40
1
 40
1
 10
521.509048
 20
-259.186119
 30
0.0
 10
522.826996
 20
-258.422959
 30
0.0
 10
523.636133
 20
-257.013199
 30
0.0
 10
523.630306
 20
-255.490252
 30
0.0
  0
LWPOLYLINE
  5
130
100
AcDbEntity
  8
Layer_1
 62
7
100
AcDbPolyline
 90
1
 70
1
 10
33.445042
 20
-255.490252
 30
0.0
  0
SPLINE
  5
131
100
AcDbEntity
  8
Layer_1
 62
7
100
AcDbSpline
 70
8
 71
3
 72
8
 73
4
 74
0
 40
0
 40
0
 40
0
 40
0
 40
1
 40
1
 40
1
 40
1
 10
870.243702
 20
91.123121
 30
0.0
 10
870.243702
 20
92.642205
 30
0.0
 10
869.433280
 20
94.045897
 30
0.0
 10
868.117714
 20
94.805439
 30
0.0
  0
SPLINE
  5
132
100
AcDbEntity
  8
Layer_1
 62
7
100
AcDbSpline
 70
8
 71
3
 72
8
 73
4
 74
0
 40
0
 40
0
 40
0
 40
0
 40
1
 40
1
 40
1
 40
1
 10
868.117714
 20
94.805439
 30
0.0
 10
866.802149
 20
95.564982
 30
0.0
 10
865.181305
 20
95.564982
 30
0.0
 10
863.865739
 20
94.805439
 30
0.0
  0
SPLINE
  5
133
100
AcDbEntity
  8
Layer_1
 62
7
100
AcDbSpline
 70
8
 71
3
 72
8
 73
4
 74
0
 40
0
 40
0
 40
0
 40
0
 40
1
 40
1
 40
1
 40
1
 10
863.865739
 20
94.805439
 30
0.0
 10
862.550174
 20
94.045897
 30
0.0
 10
861.739752
 20
92.642205
 30
0.0
 10
861.739752
 20
91.123121
 30
0.0
  0
SPLINE
  5
134
100
AcDbEntity
  8
Layer_1
 62
7
100
AcDbSpline
 70
8
 71
3
 72
8
 73
4
 74
0
 40
0
 40
0
 40
0
 40
0
 40
1
 40
1
 40
1
 40
1
 10
861.739752
 20
91.123121
 30
0.0
 10
861.739752
 20
89.604037
 30
0.0
 10
862.550174
 20
88.200345
 30
0.0
 10
863.865739
 20
87.440803
 30
0.0
  0
SPLINE
  5
135
100
AcDbEntity
  8
Layer_1
 62
7
100
AcDbSpline
 70
8
 71
3
 72
8
 73
4
 74
0
 40
0
 40
0
 40
0
 40
0
 40
1
 40
1
 40
1
 40
1
 10
863.865739
 20
87.440803
 30
0.0
 10
865.181305
 20
86.681261
 30
0.0
 10
866.802149
 20
86.681261
 30
0.0
 10
868.117714
 20
87.440803
 30
0.0
  0
SPLINE
  5
136
100
AcDbEntity
  8
Layer_1
 62
7
100
AcDbSpline
 70
8
 71
3
 72
8
 73
4
 74
0
 40
0
 40
0
 40
0
 40
0
 40
1
 40
1
 40
1
 40
1
 10
868.117714
 20
87.440803
 30
0.0
 10
869.433280
 20
88.200345
 30
0.0
 10
870.243702
 20
89.604037
 30
0.0
 10
870.243702
 20
91.123121
 30
0.0
  0
LWPOLYLINE
  5
137
100
AcDbEntity
  8
Layer_1
 62
7
100
AcDbPolyline
 90
1
 70
1
 10
523.630306
 20
-255.490252
 30
0.0
  0
SPLINE
  5
138
100
AcDbEntity
  8
Layer_1
 62
7
100
AcDbSpline
 70
8
 71
3
 72
8
 73
4
 74
0
 40
0
 40
0
 40
0
 40
0
 40
1
 40
1
 40
1
 40
1
 10
870.243702
 20
581.308409
 30
0.0
 10
870.243702
 20
582.827493
 30
0.0
 10
869.433280
 20
584.231185
 30
0.0
 10
868.117714
 20
584.990727
 30
0.0
  0
SPLINE
  5
139
100
AcDbEntity
  8
Layer_1
 62
7
100
AcDbSpline
 70
8
 71
3
 72
8
 73
4
 74
0
 40
0
 40
0
 40
0
 40
0
 40
1
 40
1
 40
1
 40
1
 10
868.117714
 20
584.990727
 30
0.0
 10
866.802149
 20
585.750269
 30
0.0
 10
865.181305
 20
585.750269
 30
0.0
 10
863.865739
 20
584.990727
 30
0.0
  0
SPLINE
  5
13a
100
AcDbEntity
  8
Layer_1
 62
7
100
AcDbSpline
 70
8
 71
3
 72
8
 73
4
 74
0
 40
0
 40
0
 40
0
 40
0
 40
1
 40
1
 40
1
 40
1
 10
863.865739
 20
584.990727
 30
0.0
 10
862.550174
 20
584.231185
 30
0.0
 10
861.739752
 20
582.827493
 30
0.0
 10
861.739752
 20
581.308409
 30
0.0
  0
SPLINE
  5
13b
100
AcDbEntity
  8
Layer_1
 62
7
100
AcDbSpline
 70
8
 71
3
 72
8
 73
4
 74
0
 40
0
 40
0
 40
0
 40
0
 40
1
 40
1
 40
1
 40
1
 10
861.739752
 20
581.308409
 30
0.0
 10
861.739752
 20
579.789325
 30
0.0
 10
862.550174
 20
578.385633
 30
0.0
 10
863.865739
 20
577.626091
 30
0.0
  0
SPLINE
  5
13c
100
AcDbEntity
  8
Layer_1
 62
7
100
AcDbSpline
 70
8
 71
3
 72
8
 73
4
 74
0
 40
0
 40
0
 40
0
 40
0
 40
1
 40
1
 40
1
 40
1
 10
863.865739
 20
577.626091
 30
0.0
 10
865.181305
 20
576.866548
 30
0.0
 10
866.802149
 20
576.866548
 30
0.0
 10
868.117714
 20
577.626091
 30
0.0
  0
SPLINE
  5
13d
100
AcDbEntity
  8
Layer_1
 62
7
100
AcDbSpline
 70
8
 71
3
 72
8
 73
4
 74
0
 40
0
 40
0
 40
0
 40
0
 40
1
 40
1
 40
1
 40
1
 10
868.117714
 20
577.626091
 30
0.0
 10
869.433280
 20
578.385633
 30
0.0
 10
870.243702
 20
579.789325
 30
0.0
 10
870.243702
 20
581.308409
 30
0.0
  0
LWPOLYLINE
  5
13e
100
AcDbEntity
  8
Layer_1
 62
7
100
AcDbPolyline
 90
1
 70
1
 10
870.243702
 20
91.123121
 30
0.0
  0
LWPOLYLINE
  5
13f
100
AcDbEntity
  8
Layer_1
 62
7
100
AcDbPolyline
 90
1
 70
1
 10
870.243702
 20
581.308409
 30
0.0
  0
LWPOLYLINE
  5
140
100
AcDbEntity
  8
Layer_1
 62
7
100
AcDbPolyline
 90
2
 70
0
 10
880.228077
 20
571.045497
 30
0.0
 10
880.228077
 20
542.699041
 30
0.0
  0
LWPOLYLINE
  5
141
100
AcDbEntity
  8
Layer_1
 62
7
100
AcDbPolyline
 90
3
 70
0
 10
866.054877
 20
542.699041
 30
0.0
 10
866.054877
 20
460.105731
 30
0.0
 10
880.228077
 20
460.105731
 30
0.0
  0
LWPOLYLINE
  5
142
100
AcDbEntity
  8
Layer_1
 62
7
100
AcDbPolyline
 90
4
 70
0
 10
880.228077
 20
377.512417
 30
0.0
 10
866.054877
 20
377.512417
 30
0.0
 10
866.054877
 20
294.919111
 30
0.0
 10
880.228077
 20
294.919111
 30
0.0
  0
LWPOLYLINE
  5
143
100
AcDbEntity
  8
Layer_1
 62
7
100
AcDbPolyline
 90
4
 70
0
 10
880.228077
 20
212.325797
 30
0.0
 10
866.054877
 20
212.325797
 30
0.0
 10
866.054877
 20
129.732491
 30
0.0
 10
880.228077
 20
129.732491
 30
0.0
  0
LWPOLYLINE
  5
144
100
AcDbEntity
  8
Layer_1
 62
7
100
AcDbPolyline
 90
2
 70
0
 10
866.054877
 20
542.699041
 30
0.0
 10
880.228077
 20
542.699041
 30
0.0
  0
LWPOLYLINE
  5
145
100
AcDbEntity
  8
Layer_1
 62
7
100
AcDbPolyline
 90
2
 70
0
 10
880.228077
 20
212.325797
 30
0.0
 10
880.228077
 20
294.919111
 30
0.0
  0
LWPOLYLINE
  5
146
100
AcDbEntity
  8
Layer_1
 62
7
100
AcDbPolyline
 90
2
 70
0
 10
880.228077
 20
377.512417
 30
0.0
 10
880.228077
 20
460.105731
 30
0.0
  0
LWPOLYLINE
  5
147
100
AcDbEntity
  8
Layer_1
 62
7
100
AcDbPolyline
 90
2
 70
0
 10
880.228077
 20
129.732491
 30
0.0
 10
880.228077
 20
101.386031
 30
0.0
  0
LWPOLYLINE
  5
148
100
AcDbEntity
  8
Layer_1
 62
7
100
AcDbPolyline
 90
2
 70
0
 10
536.701981
 20
930.731408
 30
0.0
 10
556.745956
 20
910.687433
 30
0.0
  0
LWPOLYLINE
  5
149
100
AcDbEntity
  8
Layer_1
 62
7
100
AcDbPolyline
 90
3
 70
0
 10
546.723931
 20
900.665453
 30
0.0
 10
605.126280
 20
842.263164
 30
0.0
 10
615.148230
 20
852.285144
 30
0.0
  0
LWPOLYLINE
  5
14a
100
AcDbEntity
  8
Layer_1
 62
7
100
AcDbPolyline
 90
2
 70
0
 10
673.550504
 20
793.882855
 30
0.0
 10
615.148230
 20
852.285144
 30
0.0
  0
LWPOLYLINE
  5
14b
100
AcDbEntity
  8
Layer_1
 62
7
100
AcDbPolyline
 90
4
 70
0
 10
673.550504
 20
793.882855
 30
0.0
 10
663.528554
 20
783.860875
 30
0.0
 10
721.930829
 20
725.458578
 30
0.0
 10
731.952779
 20
735.480565
 30
0.0
  0
LWPOLYLINE
  5
14c
100
AcDbEntity
  8
Layer_1
 62
7
100
AcDbPolyline
 90
2
 70
0
 10
790.355128
 20
677.078276
 30
0.0
 10
731.952779
 20
735.480565
 30
0.0
  0
LWPOLYLINE
  5
14d
100
AcDbEntity
  8
Layer_1
 62
7
100
AcDbPolyline
 90
2
 70
0
 10
780.333103
 20
667.056289
 30
0.0
 10
838.735377
 20
608.654001
 30
0.0
  0
LWPOLYLINE
  5
14e
100
AcDbEntity
  8
Layer_1
 62
7
100
AcDbPolyline
 90
2
 70
0
 10
848.757402
 20
618.675987
 30
0.0
 10
868.801377
 20
598.632015
 30
0.0
  0
LWPOLYLINE
  5
14f
100
AcDbEntity
  8
Layer_1
 62
7
100
AcDbPolyline
 90
2
 70
0
 10
546.723931
 20
900.665453
 30
0.0
 10
556.745956
 20
910.687433
 30
0.0
  0
LWPOLYLINE
  5
150
100
AcDbEntity
  8
Layer_1
 62
7
100
AcDbPolyline
 90
2
 70
0
 10
838.735377
 20
608.654001
 30
0.0
 10
848.757402
 20
618.675987
 30
0.0
  0
LWPOLYLINE
  5
151
100
AcDbEntity
  8
Layer_1
 62
7
100
AcDbPolyline
 90
2
 70
0
 10
790.355128
 20
677.078276
 30
0.0
 10
780.333103
 20
667.056289
 30
0.0
  0
LWPOLYLINE
  5
152
100
AcDbEntity
  8
Layer_1
 62
7
100
AcDbPolyline
 90
2
 70
0
 10
39.455992
 20
942.158115
 30
0.0
 10
67.802444
 20
942.158115
 30
0.0
  0
LWPOLYLINE
  5
153
100
AcDbEntity
  8
Layer_1
 62
7
100
AcDbPolyline
 90
3
 70
0
 10
67.802444
 20
927.984893
 30
0.0
 10
150.395758
 20
927.984893
 30
0.0
 10
150.395758
 20
942.158115
 30
0.0
  0
LWPOLYLINE
  5
154
100
AcDbEntity
  8
Layer_1
 62
7
100
AcDbPolyline
 90
2
 70
0
 10
232.989065
 20
942.158115
 30
0.0
 10
150.395758
 20
942.158115
 30
0.0
  0
LWPOLYLINE
  5
155
100
AcDbEntity
  8
Layer_1
 62
7
100
AcDbPolyline
 90
4
 70
0
 10
232.989065
 20
942.158115
 30
0.0
 10
232.989065
 20
927.984893
 30
0.0
 10
315.582379
 20
927.984893
 30
0.0
 10
315.582379
 20
942.158115
 30
0.0
  0
LWPOLYLINE
  5
156
100
AcDbEntity
  8
Layer_1
 62
7
100
AcDbPolyline
 90
2
 70
0
 10
398.175685
 20
942.158115
 30
0.0
 10
315.582379
 20
942.158115
 30
0.0
  0
LWPOLYLINE
  5
157
100
AcDbEntity
  8
Layer_1
 62
7
100
AcDbPolyline
 90
2
 70
0
 10
398.175685
 20
927.984893
 30
0.0
 10
480.769007
 20
927.984893
 30
0.0
  0
LWPOLYLINE
  5
158
100
AcDbEntity
  8
Layer_1
 62
7
100
AcDbPolyline
 90
2
 70
0
 10
480.769007
 20
942.158115
 30
0.0
 10
509.115481
 20
942.158115
 30
0.0
  0
LWPOLYLINE
  5
159
100
AcDbEntity
  8
Layer_1
 62
7
100
AcDbPolyline
 90
2
 70
0
 10
67.802444
 20
927.984893
 30
0.0
 10
67.802444
 20
942.158115
 30
0.0
  0
LWPOLYLINE
  5
15a
100
AcDbEntity
  8
Layer_1
 62
7
100
AcDbPolyline
 90
2
 70
0
 10
480.769007
 20
927.984893
 30
0.0
 10
480.769007
 20
942.158115
 30
0.0
  0
LWPOLYLINE
  5
15b
100
AcDbEntity
  8
Layer_1
 62
7
100
AcDbPolyline
 90
2
 70
0
 10
398.175685
 20
942.158115
 30
0.0
 10
398.175685
 20
927.984893
 30
0.0
  0
LWPOLYLINE
  5
15c
100
AcDbEntity
  8
Layer_1
 62
7
100
AcDbPolyline
 90
2
 70
0
 10
-320.229923
 20
598.632015
 30
0.0
 10
-300.185952
 20
618.675987
 30
0.0
  0
LWPOLYLINE
  5
15d
100
AcDbEntity
  8
Layer_1
 62
7
100
AcDbPolyline
 90
3
 70
0
 10
-290.163966
 20
608.654001
 30
0.0
 10
-231.761674
 20
667.056289
 30
0.0
 10
-241.783662
 20
677.078276
 30
0.0
  0
LWPOLYLINE
  5
15e
100
AcDbEntity
  8
Layer_1
 62
7
100
AcDbPolyline
 90
2
 70
0
 10
-183.381372
 20
735.480565
 30
0.0
 10
-241.783662
 20
677.078276
 30
0.0
  0
LWPOLYLINE
  5
15f
100
AcDbEntity
  8
Layer_1
 62
7
100
AcDbPolyline
 90
4
 70
0
 10
-183.381372
 20
735.480565
 30
0.0
 10
-173.359385
 20
725.458578
 30
0.0
 10
-114.957096
 20
783.860875
 30
0.0
 10
-124.979083
 20
793.882855
 30
0.0
  0
LWPOLYLINE
  5
160
100
AcDbEntity
  8
Layer_1
 62
7
100
AcDbPolyline
 90
2
 70
0
 10
-66.576794
 20
852.285144
 30
0.0
 10
-124.979083
 20
793.882855
 30
0.0
  0
LWPOLYLINE
  5
161
100
AcDbEntity
  8
Layer_1
 62
7
100
AcDbPolyline
 90
2
 70
0
 10
-56.554807
 20
842.263164
 30
0.0
 10
1.847483
 20
900.665453
 30
0.0
  0
LWPOLYLINE
  5
162
100
AcDbEntity
  8
Layer_1
 62
7
100
AcDbPolyline
 90
2
 70
0
 10
-8.174505
 20
910.687433
 30
0.0
 10
11.869470
 20
930.731408
 30
0.0
  0
LWPOLYLINE
  5
163
100
AcDbEntity
  8
Layer_1
 62
7
100
AcDbPolyline
 90
2
 70
0
 10
-290.163966
 20
608.654001
 30
0.0
 10
-300.185952
 20
618.675987
 30
0.0
  0
LWPOLYLINE
  5
164
100
AcDbEntity
  8
Layer_1
 62
7
100
AcDbPolyline
 90
2
 70
0
 10
1.847483
 20
900.665453
 30
0.0
 10
-8.174505
 20
910.687433
 30
0.0
  0
LWPOLYLINE
  5
165
100
AcDbEntity
  8
Layer_1
 62
7
100
AcDbPolyline
 90
2
 70
0
 10
-66.576794
 20
852.285144
 30
0.0
 10
-56.554807
 20
842.263164
 30
0.0
  0
LWPOLYLINE
  5
166
100
AcDbEntity
  8
Layer_1
 62
7
100
AcDbPolyline
 90
2
 70
0
 10
-331.656633
 20
101.386031
 30
0.0
 10
-331.656633
 20
129.732491
 30
0.0
  0
LWPOLYLINE
  5
167
100
AcDbEntity
  8
Layer_1
 62
7
100
AcDbPolyline
 90
3
 70
0
 10
-317.483405
 20
129.732491
 30
0.0
 10
-317.483405
 20
212.325797
 30
0.0
 10
-331.656633
 20
212.325797
 30
0.0
  0
LWPOLYLINE
  5
168
100
AcDbEntity
  8
Layer_1
 62
7
100
AcDbPolyline
 90
2
 70
0
 10
-331.656633
 20
294.919111
 30
0.0
 10
-331.656633
 20
212.325797
 30
0.0
  0
LWPOLYLINE
  5
169
100
AcDbEntity
  8
Layer_1
 62
7
100
AcDbPolyline
 90
4
 70
0
 10
-331.656633
 20
294.919111
 30
0.0
 10
-317.483405
 20
294.919111
 30
0.0
 10
-317.483405
 20
377.512417
 30
0.0
 10
-331.656633
 20
377.512417
 30
0.0
  0
LWPOLYLINE
  5
16a
100
AcDbEntity
  8
Layer_1
 62
7
100
AcDbPolyline
 90
2
 70
0
 10
-331.656633
 20
460.105731
 30
0.0
 10
-331.656633
 20
377.512417
 30
0.0
  0
LWPOLYLINE
  5
16b
100
AcDbEntity
  8
Layer_1
 62
7
100
AcDbPolyline
 90
2
 70
0
 10
-317.483405
 20
460.105731
 30
0.0
 10
-317.483405
 20
542.699041
 30
0.0
  0
LWPOLYLINE
  5
16c
100
AcDbEntity
  8
Layer_1
 62
7
100
AcDbPolyline
 90
2
 70
0
 10
-331.656633
 20
542.699041
 30
0.0
 10
-331.656633
 20
571.045497
 30
0.0
  0
LWPOLYLINE
  5
16d
100
AcDbEntity
  8
Layer_1
 62
7
100
AcDbPolyline
 90
2
 70
0
 10
-317.483405
 20
129.732491
 30
0.0
 10
-331.656633
 20
129.732491
 30
0.0
  0
LWPOLYLINE
  5
16e
100
AcDbEntity
  8
Layer_1
 62
7
100
AcDbPolyline
 90
2
 70
0
 10
-317.483405
 20
542.699041
 30
0.0
 10
-331.656633
 20
542.699041
 30
0.0
  0
LWPOLYLINE
  5
16f
100
AcDbEntity
  8
Layer_1
 62
7
100
AcDbPolyline
 90
2
 70
0
 10
-331.656633
 20
460.105731
 30
0.0
 10
-317.483405
 20
460.105731
 30
0.0
  0
LWPOLYLINE
  5
170
100
AcDbEntity
  8
Layer_1
 62
7
100
AcDbPolyline
 90
2
 70
0
 10
11.869470
 20
-258.299902
 30
0.0
 10
-8.174505
 20
-238.255927
 30
0.0
  0
LWPOLYLINE
  5
171
100
AcDbEntity
  8
Layer_1
 62
7
100
AcDbPolyline
 90
3
 70
0
 10
1.847483
 20
-228.233902
 30
0.0
 10
-56.554807
 20
-169.831636
 30
0.0
 10
-66.576794
 20
-179.853653
 30
0.0
  0
LWPOLYLINE
  5
172
100
AcDbEntity
  8
Layer_1
 62
7
100
AcDbPolyline
 90
2
 70
0
 10
-124.979083
 20
-121.451326
 30
0.0
 10
-66.576794
 20
-179.853653
 30
0.0
  0
LWPOLYLINE
  5
173
100
AcDbEntity
  8
Layer_1
 62
7
100
AcDbPolyline
 90
4
 70
0
 10
-124.979083
 20
-121.451326
 30
0.0
 10
-114.957096
 20
-111.429346
 30
0.0
 10
-173.359385
 20
-53.027050
 30
0.0
 10
-183.381372
 20
-63.049037
 30
0.0
  0
LWPOLYLINE
  5
174
100
AcDbEntity
  8
Layer_1
 62
7
100
AcDbPolyline
 90
2
 70
0
 10
-241.783662
 20
-4.646748
 30
0.0
 10
-183.381372
 20
-63.049037
 30
0.0
  0
LWPOLYLINE
  5
175
100
AcDbEntity
  8
Layer_1
 62
7
100
AcDbPolyline
 90
2
 70
0
 10
-231.761674
 20
5.375240
 30
0.0
 10
-290.163966
 20
63.777529
 30
0.0
  0
LWPOLYLINE
  5
176
100
AcDbEntity
  8
Layer_1
 62
7
100
AcDbPolyline
 90
2
 70
0
 10
-300.185952
 20
53.755542
 30
0.0
 10
-320.229923
 20
73.799516
 30
0.0
  0
LWPOLYLINE
  5
177
100
AcDbEntity
  8
Layer_1
 62
7
100
AcDbPolyline
 90
2
 70
0
 10
1.847483
 20
-228.233902
 30
0.0
 10
-8.174505
 20
-238.255927
 30
0.0
  0
LWPOLYLINE
  5
178
100
AcDbEntity
  8
Layer_1
 62
7
100
AcDbPolyline
 90
2
 70
0
 10
-290.163966
 20
63.777529
 30
0.0
 10
-300.185952
 20
53.755542
 30
0.0
  0
LWPOLYLINE
  5
179
100
AcDbEntity
  8
Layer_1
 62
7
100
AcDbPolyline
 90
2
 70
0
 10
-241.783662
 20
-4.646748
 30
0.0
 10
-231.761674
 20
5.375240
 30
0.0
  0
LWPOLYLINE
  5
17a
100
AcDbEntity
  8
Layer_1
 62
7
100
AcDbPolyline
 90
2
 70
0
 10
509.115481
 20
-269.726602
 30
0.0
 10
480.769007
 20
-269.726602
 30
0.0
  0
LWPOLYLINE
  5
17b
100
AcDbEntity
  8
Layer_1
 62
7
100
AcDbPolyline
 90
3
 70
0
 10
480.769007
 20
-255.553327
 30
0.0
 10
398.175685
 20
-255.553327
 30
0.0
 10
398.175685
 20
-269.726602
 30
0.0
  0
LWPOLYLINE
  5
17c
100
AcDbEntity
  8
Layer_1
 62
7
100
AcDbPolyline
 90
2
 70
0
 10
315.582379
 20
-269.726602
 30
0.0
 10
398.175685
 20
-269.726602
 30
0.0
  0
LWPOLYLINE
  5
17d
100
AcDbEntity
  8
Layer_1
 62
7
100
AcDbPolyline
 90
4
 70
0
 10
315.582379
 20
-269.726602
 30
0.0
 10
315.582379
 20
-255.553327
 30
0.0
 10
232.989065
 20
-255.553327
 30
0.0
 10
232.989065
 20
-269.726602
 30
0.0
  0
LWPOLYLINE
  5
17e
100
AcDbEntity
  8
Layer_1
 62
7
100
AcDbPolyline
 90
2
 70
0
 10
150.395758
 20
-269.726602
 30
0.0
 10
232.989065
 20
-269.726602
 30
0.0
  0
LWPOLYLINE
  5
17f
100
AcDbEntity
  8
Layer_1
 62
7
100
AcDbPolyline
 90
2
 70
0
 10
150.395758
 20
-255.553327
 30
0.0
 10
67.802444
 20
-255.553327
 30
0.0
  0
LWPOLYLINE
  5
180
100
AcDbEntity
  8
Layer_1
 62
7
100
AcDbPolyline
 90
2
 70
0
 10
67.802444
 20
-269.726602
 30
0.0
 10
39.455992
 20
-269.726602
 30
0.0
  0
LWPOLYLINE
  5
181
100
AcDbEntity
  8
Layer_1
 62
7
100
AcDbPolyline
 90
2
 70
0
 10
480.769007
 20
-255.553327
 30
0.0
 10
480.769007
 20
-269.726602
 30
0.0
  0
LWPOLYLINE
  5
182
100
AcDbEntity
  8
Layer_1
 62
7
100
AcDbPolyline
 90
2
 70
0
 10
67.802444
 20
-255.553327
 30
0.0
 10
67.802444
 20
-269.726602
 30
0.0
  0
LWPOLYLINE
  5
183
100
AcDbEntity
  8
Layer_1
 62
7
100
AcDbPolyline
 90
2
 70
0
 10
150.395758
 20
-269.726602
 30
0.0
 10
150.395758
 20
-255.553327
 30
0.0
  0
LWPOLYLINE
  5
184
100
AcDbEntity
  8
Layer_1
 62
7
100
AcDbPolyline
 90
2
 70
0
 10
868.801377
 20
73.799516
 30
0.0
 10
848.757402
 20
53.755542
 30
0.0
  0
LWPOLYLINE
  5
185
100
AcDbEntity
  8
Layer_1
 62
7
100
AcDbPolyline
 90
3
 70
0
 10
838.735377
 20
63.777529
 30
0.0
 10
780.333103
 20
5.375240
 30
0.0
 10
790.355128
 20
-4.646748
 30
0.0
  0
LWPOLYLINE
  5
186
100
AcDbEntity
  8
Layer_1
 62
7
100
AcDbPolyline
 90
2
 70
0
 10
731.952779
 20
-63.049037
 30
0.0
 10
790.355128
 20
-4.646748
 30
0.0
  0
LWPOLYLINE
  5
187
100
AcDbEntity
  8
Layer_1
 62
7
100
AcDbPolyline
 90
4
 70
0
 10
731.952779
 20
-63.049037
 30
0.0
 10
721.930829
 20
-53.027050
 30
0.0
 10
663.528554
 20
-111.429346
 30
0.0
 10
673.550504
 20
-121.451326
 30
0.0
  0
LWPOLYLINE
  5
188
100
AcDbEntity
  8
Layer_1
 62
7
100
AcDbPolyline
 90
2
 70
0
 10
615.148230
 20
-179.853653
 30
0.0
 10
673.550504
 20
-121.451326
 30
0.0
  0
LWPOLYLINE
  5
189
100
AcDbEntity
  8
Layer_1
 62
7
100
AcDbPolyline
 90
2
 70
0
 10
605.126280
 20
-169.831636
 30
0.0
 10
546.723931
 20
-228.233902
 30
0.0
  0
LWPOLYLINE
  5
18a
100
AcDbEntity
  8
Layer_1
 62
7
100
AcDbPolyline
 90
2
 70
0
 10
556.745956
 20
-238.255927
 30
0.0
 10
536.701981
 20
-258.299902
 30
0.0
  0
LWPOLYLINE
  5
18b
100
AcDbEntity
  8
Layer_1
 62
7
100
AcDbPolyline
 90
2
 70
0
 10
838.735377
 20
63.777529
 30
0.0
 10
848.757402
 20
53.755542
 30
0.0
  0
LWPOLYLINE
  5
18c
100
AcDbEntity
  8
Layer_1
 62
7
100
AcDbPolyline
 90
2
 70
0
 10
546.723931
 20
-228.233902
 30
0.0
 10
556.745956
 20
-238.255927
 30
0.0
  0
LWPOLYLINE
  5
18d
100
AcDbEntity
  8
Layer_1
 62
7
100
AcDbPolyline
 90
2
 70
0
 10
615.148230
 20
-179.853653
 30
0.0
 10
605.126280
 20
-169.831636
 30
0.0
  0
SPLINE
  5
18e
100
AcDbEntity
  8
Layer_1
 62
7
100
AcDbSpline
 70
8
 71
3
 72
8
 73
4
 74
0
 40
0
 40
0
 40
0
 40
0
 40
1
 40
1
 40
1
 40
1
 10
531.645556
 20
-18.138093
 30
0.0
 10
547.898126
 20
-5.753287
 30
0.0
 10
570.484364
 20
-5.982959
 30
0.0
 10
586.481725
 20
-18.695703
 30
0.0
  0
SPLINE
  5
18f
100
AcDbEntity
  8
Layer_1
 62
7
100
AcDbSpline
 70
8
 71
3
 72
8
 73
4
 74
0
 40
0
 40
0
 40
0
 40
0
 40
1
 40
1
 40
1
 40
1
 10
586.481725
 20
-18.695703
 30
0.0
 10
602.479086
 20
-31.408447
 30
0.0
 10
607.804070
 20
-53.359198
 30
0.0
 10
599.410028
 20
-71.988999
 30
0.0
  0
SPLINE
  5
190
100
AcDbEntity
  8
Layer_1
 62
7
100
AcDbSpline
 70
8
 71
3
 72
8
 73
4
 74
0
 40
0
 40
0
 40
0
 40
0
 40
1
 40
1
 40
1
 40
1
 10
599.410028
 20
-71.988999
 30
0.0
 10
591.015986
 20
-90.618799
 30
0.0
 10
571.045588
 20
-101.172192
 30
0.0
 10
550.924746
 20
-97.611133
 30
0.0
  0
SPLINE
  5
191
100
AcDbEntity
  8
Layer_1
 62
7
100
AcDbSpline
 70
8
 71
3
 72
8
 73
4
 74
0
 40
0
 40
0
 40
0
 40
0
 40
1
 40
1
 40
1
 40
1
 10
550.924746
 20
-97.611133
 30
0.0
 10
530.803904
 20
-94.050074
 30
0.0
 10
515.668682
 20
-77.283562
 30
0.0
 10
514.178581
 20
-56.904430
 30
0.0
  0
LWPOLYLINE
  5
192
100
AcDbEntity
  8
Layer_1
 62
7
100
AcDbPolyline
 90
2
 70
0
 10
514.178581
 20
-56.904430
 30
0.0
 10
531.645556
 20
-18.138093
 30
0.0
  0
LWPOLYLINE
  5
193
100
AcDbEntity
  8
Layer_1
 62
7
100
AcDbPolyline
 90
1
 70
1
 10
514.178581
 20
-56.904430
 30
0.0
  0
LWPOLYLINE
  5
194
100
AcDbEntity
  8
Layer_1
 62
7
100
AcDbPolyline
 90
4
 70
1
 10
-117.507898
 20
431.726527
 30
0.0
 10
-225.224434
 20
431.726527
 30
0.0
 10
-225.224434
 20
644.324948
 30
0.0
 10
-117.507898
 20
644.324948
 30
0.0
  0
SPLINE
  5
195
100
AcDbEntity
  8
Layer_1
 62
7
100
AcDbSpline
 70
8
 71
3
 72
8
 73
4
 74
0
 40
0
 40
0
 40
0
 40
0
 40
1
 40
1
 40
1
 40
1
 10
338.773908
 20
-92.067017
 30
0.0
 10
338.778878
 20
-69.024294
 30
0.0
 10
326.488587
 20
-47.729813
 30
0.0
 10
306.533831
 20
-36.207017
 30
0.0
  0
SPLINE
  5
196
100
AcDbEntity
  8
Layer_1
 62
7
100
AcDbSpline
 70
8
 71
3
 72
8
 73
4
 74
0
 40
0
 40
0
 40
0
 40
0
 40
1
 40
1
 40
1
 40
1
 10
306.533831
 20
-36.207017
 30
0.0
 10
286.579076
 20
-24.684220
 30
0.0
 10
261.992368
 20
-24.684220
 30
0.0
 10
242.037613
 20
-36.207017
 30
0.0
  0
SPLINE
  5
197
100
AcDbEntity
  8
Layer_1
 62
7
100
AcDbSpline
 70
8
 71
3
 72
8
 73
4
 74
0
 40
0
 40
0
 40
0
 40
0
 40
1
 40
1
 40
1
 40
1
 10
242.037613
 20
-36.207017
 30
0.0
 10
222.082857
 20
-47.729813
 30
0.0
 10
209.792565
 20
-69.024294
 30
0.0
 10
209.797535
 20
-92.067017
 30
0.0
  0
SPLINE
  5
198
100
AcDbEntity
  8
Layer_1
 62
7
100
AcDbSpline
 70
8
 71
3
 72
8
 73
4
 74
0
 40
0
 40
0
 40
0
 40
0
 40
1
 40
1
 40
1
 40
1
 10
209.797535
 20
-92.067017
 30
0.0
 10
209.792565
 20
-115.109740
 30
0.0
 10
222.082857
 20
-136.404220
 30
0.0
 10
242.037613
 20
-147.927017
 30
0.0
  0
SPLINE
  5
199
100
AcDbEntity
  8
Layer_1
 62
7
100
AcDbSpline
 70
8
 71
3
 72
8
 73
4
 74
0
 40
0
 40
0
 40
0
 40
0
 40
1
 40
1
 40
1
 40
1
 10
242.037613
 20
-147.927017
 30
0.0
 10
261.992368
 20
-159.449813
 30
0.0
 10
286.579076
 20
-159.449813
 30
0.0
 10
306.533831
 20
-147.927017
 30
0.0
  0
SPLINE
  5
19a
100
AcDbEntity
  8
Layer_1
 62
7
100
AcDbSpline
 70
8
 71
3
 72
8
 73
4
 74
0
 40
0
 40
0
 40
0
 40
0
 40
1
 40
1
 40
1
 40
1
 10
306.533831
 20
-147.927017
 30
0.0
 10
326.488587
 20
-136.404220
 30
0.0
 10
338.778878
 20
-115.109740
 30
0.0
 10
338.773908
 20
-92.067017
 30
0.0
  0
LWPOLYLINE
  5
19b
100
AcDbEntity
  8
Layer_1
 62
7
100
AcDbPolyline
 90
4
 70
1
 10
773.795878
 20
644.324948
 30
0.0
 10
666.079304
 20
644.324948
 30
0.0
 10
666.079304
 20
431.726527
 30
0.0
 10
773.795878
 20
431.726527
 30
0.0
  0
SPLINE
  5
19c
100
AcDbEntity
  8
Layer_1
 62
7
100
AcDbSpline
 70
8
 71
3
 72
8
 73
4
 74
0
 40
0
 40
0
 40
0
 40
0
 40
1
 40
1
 40
1
 40
1
 10
278.821152
 20
-11.846545
 30
0.0
 10
278.823017
 20
-10.224950
 30
0.0
 10
277.958977
 20
-8.725735
 30
0.0
 10
276.554944
 20
-7.914398
 30
0.0
  0
SPLINE
  5
19d
100
AcDbEntity
  8
Layer_1
 62
7
100
AcDbSpline
 70
8
 71
3
 72
8
 73
4
 74
0
 40
0
 40
0
 40
0
 40
0
 40
1
 40
1
 40
1
 40
1
 10
276.554944
 20
-7.914398
 30
0.0
 10
275.150911
 20
-7.103061
 30
0.0
 10
273.420533
 20
-7.103061
 30
0.0
 10
272.016500
 20
-7.914398
 30
0.0
  0
SPLINE
  5
19e
100
AcDbEntity
  8
Layer_1
 62
7
100
AcDbSpline
 70
8
 71
3
 72
8
 73
4
 74
0
 40
0
 40
0
 40
0
 40
0
 40
1
 40
1
 40
1
 40
1
 10
272.016500
 20
-7.914398
 30
0.0
 10
270.612467
 20
-8.725735
 30
0.0
 10
269.748427
 20
-10.224950
 30
0.0
 10
269.750292
 20
-11.846545
 30
0.0
  0
SPLINE
  5
19f
100
AcDbEntity
  8
Layer_1
 62
7
100
AcDbSpline
 70
8
 71
3
 72
8
 73
4
 74
0
 40
0
 40
0
 40
0
 40
0
 40
1
 40
1
 40
1
 40
1
 10
269.750292
 20
-11.846545
 30
0.0
 10
269.748427
 20
-13.468141
 30
0.0
 10
270.612467
 20
-14.967355
 30
0.0
 10
272.016500
 20
-15.778692
 30
0.0
  0
SPLINE
  5
1a0
100
AcDbEntity
  8
Layer_1
 62
7
100
AcDbSpline
 70
8
 71
3
 72
8
 73
4
 74
0
 40
0
 40
0
 40
0
 40
0
 40
1
 40
1
 40
1
 40
1
 10
272.016500
 20
-15.778692
 30
0.0
 10
273.420533
 20
-16.590029
 30
0.0
 10
275.150911
 20
-16.590029
 30
0.0
 10
276.554944
 20
-15.778692
 30
0.0
  0
SPLINE
  5
1a1
100
AcDbEntity
  8
Layer_1
 62
7
100
AcDbSpline
 70
8
 71
3
 72
8
 73
4
 74
0
 40
0
 40
0
 40
0
 40
0
 40
1
 40
1
 40
1
 40
1
 10
276.554944
 20
-15.778692
 30
0.0
 10
277.958977
 20
-14.967355
 30
0.0
 10
278.823017
 20
-13.468141
 30
0.0
 10
278.821152
 20
-11.846545
 30
0.0
  0
LWPOLYLINE
  5
1a2
100
AcDbEntity
  8
Layer_1
 62
7
100
AcDbPolyline
 90
1
 70
1
 10
338.773908
 20
-92.067017
 30
0.0
  0
SPLINE
  5
1a3
100
AcDbEntity
  8
Layer_1
 62
7
100
AcDbSpline
 70
8
 71
3
 72
8
 73
4
 74
0
 40
0
 40
0
 40
0
 40
0
 40
1
 40
1
 40
1
 40
1
 10
209.348188
 20
-132.177256
 30
0.0
 10
209.348188
 20
-130.556902
 30
0.0
 10
208.483739
 20
-129.059633
 30
0.0
 10
207.080471
 20
-128.249455
 30
0.0
  0
SPLINE
  5
1a4
100
AcDbEntity
  8
Layer_1
 62
7
100
AcDbSpline
 70
8
 71
3
 72
8
 73
4
 74
0
 40
0
 40
0
 40
0
 40
0
 40
1
 40
1
 40
1
 40
1
 10
207.080471
 20
-128.249455
 30
0.0
 10
205.677203
 20
-127.439278
 30
0.0
 10
203.948305
 20
-127.439278
 30
0.0
 10
202.545037
 20
-128.249455
 30
0.0
  0
SPLINE
  5
1a5
100
AcDbEntity
  8
Layer_1
 62
7
100
AcDbSpline
 70
8
 71
3
 72
8
 73
4
 74
0
 40
0
 40
0
 40
0
 40
0
 40
1
 40
1
 40
1
 40
1
 10
202.545037
 20
-128.249455
 30
0.0
 10
201.141769
 20
-129.059633
 30
0.0
 10
200.277320
 20
-130.556902
 30
0.0
 10
200.277320
 20
-132.177256
 30
0.0
  0
SPLINE
  5
1a6
100
AcDbEntity
  8
Layer_1
 62
7
100
AcDbSpline
 70
8
 71
3
 72
8
 73
4
 74
0
 40
0
 40
0
 40
0
 40
0
 40
1
 40
1
 40
1
 40
1
 10
200.277320
 20
-132.177256
 30
0.0
 10
200.277320
 20
-133.797611
 30
0.0
 10
201.141769
 20
-135.294880
 30
0.0
 10
202.545037
 20
-136.105057
 30
0.0
  0
SPLINE
  5
1a7
100
AcDbEntity
  8
Layer_1
 62
7
100
AcDbSpline
 70
8
 71
3
 72
8
 73
4
 74
0
 40
0
 40
0
 40
0
 40
0
 40
1
 40
1
 40
1
 40
1
 10
202.545037
 20
-136.105057
 30
0.0
 10
203.948305
 20
-136.915234
 30
0.0
 10
205.677203
 20
-136.915234
 30
0.0
 10
207.080471
 20
-136.105057
 30
0.0
  0
SPLINE
  5
1a8
100
AcDbEntity
  8
Layer_1
 62
7
100
AcDbSpline
 70
8
 71
3
 72
8
 73
4
 74
0
 40
0
 40
0
 40
0
 40
0
 40
1
 40
1
 40
1
 40
1
 10
207.080471
 20
-136.105057
 30
0.0
 10
208.483739
 20
-135.294880
 30
0.0
 10
209.348188
 20
-133.797611
 30
0.0
 10
209.348188
 20
-132.177256
 30
0.0
  0
LWPOLYLINE
  5
1a9
100
AcDbEntity
  8
Layer_1
 62
7
100
AcDbPolyline
 90
1
 70
1
 10
278.821152
 20
-11.846545
 30
0.0
  0
SPLINE
  5
1aa
100
AcDbEntity
  8
Layer_1
 62
7
100
AcDbSpline
 70
8
 71
3
 72
8
 73
4
 74
0
 40
0
 40
0
 40
0
 40
0
 40
1
 40
1
 40
1
 40
1
 10
348.294123
 20
-132.177256
 30
0.0
 10
348.294124
 20
-130.556902
 30
0.0
 10
347.429675
 20
-129.059632
 30
0.0
 10
346.026407
 20
-128.249455
 30
0.0
  0
SPLINE
  5
1ab
100
AcDbEntity
  8
Layer_1
 62
7
100
AcDbSpline
 70
8
 71
3
 72
8
 73
4
 74
0
 40
0
 40
0
 40
0
 40
0
 40
1
 40
1
 40
1
 40
1
 10
346.026407
 20
-128.249455
 30
0.0
 10
344.623139
 20
-127.439277
 30
0.0
 10
342.894241
 20
-127.439277
 30
0.0
 10
341.490973
 20
-128.249455
 30
0.0
  0
SPLINE
  5
1ac
100
AcDbEntity
  8
Layer_1
 62
7
100
AcDbSpline
 70
8
 71
3
 72
8
 73
4
 74
0
 40
0
 40
0
 40
0
 40
0
 40
1
 40
1
 40
1
 40
1
 10
341.490973
 20
-128.249455
 30
0.0
 10
340.087704
 20
-129.059632
 30
0.0
 10
339.223256
 20
-130.556902
 30
0.0
 10
339.223256
 20
-132.177256
 30
0.0
  0
SPLINE
  5
1ad
100
AcDbEntity
  8
Layer_1
 62
7
100
AcDbSpline
 70
8
 71
3
 72
8
 73
4
 74
0
 40
0
 40
0
 40
0
 40
0
 40
1
 40
1
 40
1
 40
1
 10
339.223256
 20
-132.177256
 30
0.0
 10
339.223256
 20
-133.797611
 30
0.0
 10
340.087704
 20
-135.294880
 30
0.0
 10
341.490973
 20
-136.105058
 30
0.0
  0
SPLINE
  5
1ae
100
AcDbEntity
  8
Layer_1
 62
7
100
AcDbSpline
 70
8
 71
3
 72
8
 73
4
 74
0
 40
0
 40
0
 40
0
 40
0
 40
1
 40
1
 40
1
 40
1
 10
341.490973
 20
-136.105058
 30
0.0
 10
342.894241
 20
-136.915235
 30
0.0
 10
344.623139
 20
-136.915235
 30
0.0
 10
346.026407
 20
-136.105058
 30
0.0
  0
SPLINE
  5
1af
100
AcDbEntity
  8
Layer_1
 62
7
100
AcDbSpline
 70
8
 71
3
 72
8
 73
4
 74
0
 40
0
 40
0
 40
0
 40
0
 40
1
 40
1
 40
1
 40
1
 10
346.026407
 20
-136.105058
 30
0.0
 10
347.429675
 20
-135.294880
 30
0.0
 10
348.294124
 20
-133.797611
 30
0.0
 10
348.294123
 20
-132.177256
 30
0.0
  0
LWPOLYLINE
  5
1b0
100
AcDbEntity
  8
Layer_1
 62
7
100
AcDbPolyline
 90
1
 70
1
 10
209.348188
 20
-132.177256
 30
0.0
  0
SPLINE
  5
1b1
100
AcDbEntity
  8
Layer_1
 62
7
100
AcDbSpline
 70
8
 71
3
 72
8
 73
4
 74
0
 40
0
 40
0
 40
0
 40
0
 40
1
 40
1
 40
1
 40
1
 10
-234.932254
 20
609.131426
 30
0.0
 10
-234.931149
 20
610.651245
 30
0.0
 10
-235.741327
 20
612.056088
 30
0.0
 10
-237.057345
 20
612.816317
 30
0.0
  0
SPLINE
  5
1b2
100
AcDbEntity
  8
Layer_1
 62
7
100
AcDbSpline
 70
8
 71
3
 72
8
 73
4
 74
0
 40
0
 40
0
 40
0
 40
0
 40
1
 40
1
 40
1
 40
1
 10
-237.057345
 20
612.816317
 30
0.0
 10
-238.373362
 20
613.576545
 30
0.0
 10
-239.995081
 20
613.576545
 30
0.0
 10
-241.311099
 20
612.816317
 30
0.0
  0
SPLINE
  5
1b3
100
AcDbEntity
  8
Layer_1
 62
7
100
AcDbSpline
 70
8
 71
3
 72
8
 73
4
 74
0
 40
0
 40
0
 40
0
 40
0
 40
1
 40
1
 40
1
 40
1
 10
-241.311099
 20
612.816317
 30
0.0
 10
-242.627116
 20
612.056088
 30
0.0
 10
-243.437295
 20
610.651245
 30
0.0
 10
-243.436189
 20
609.131426
 30
0.0
  0
SPLINE
  5
1b4
100
AcDbEntity
  8
Layer_1
 62
7
100
AcDbSpline
 70
8
 71
3
 72
8
 73
4
 74
0
 40
0
 40
0
 40
0
 40
0
 40
1
 40
1
 40
1
 40
1
 10
-243.436189
 20
609.131426
 30
0.0
 10
-243.437295
 20
607.611608
 30
0.0
 10
-242.627116
 20
606.206765
 30
0.0
 10
-241.311099
 20
605.446536
 30
0.0
  0
SPLINE
  5
1b5
100
AcDbEntity
  8
Layer_1
 62
7
100
AcDbSpline
 70
8
 71
3
 72
8
 73
4
 74
0
 40
0
 40
0
 40
0
 40
0
 40
1
 40
1
 40
1
 40
1
 10
-241.311099
 20
605.446536
 30
0.0
 10
-239.995081
 20
604.686308
 30
0.0
 10
-238.373362
 20
604.686308
 30
0.0
 10
-237.057345
 20
605.446536
 30
0.0
  0
SPLINE
  5
1b6
100
AcDbEntity
  8
Layer_1
 62
7
100
AcDbSpline
 70
8
 71
3
 72
8
 73
4
 74
0
 40
0
 40
0
 40
0
 40
0
 40
1
 40
1
 40
1
 40
1
 10
-237.057345
 20
605.446536
 30
0.0
 10
-235.741327
 20
606.206765
 30
0.0
 10
-234.931149
 20
607.611608
 30
0.0
 10
-234.932254
 20
609.131426
 30
0.0
  0
LWPOLYLINE
  5
1b7
100
AcDbEntity
  8
Layer_1
 62
7
100
AcDbPolyline
 90
1
 70
1
 10
348.294123
 20
-132.177256
 30
0.0
  0
SPLINE
  5
1b8
100
AcDbEntity
  8
Layer_1
 62
7
100
AcDbSpline
 70
8
 71
3
 72
8
 73
4
 74
0
 40
0
 40
0
 40
0
 40
0
 40
1
 40
1
 40
1
 40
1
 10
-105.714576
 20
610.567178
 30
0.0
 10
-105.713673
 20
612.086861
 30
0.0
 10
-106.523896
 20
613.491493
 30
0.0
 10
-107.839830
 20
614.251595
 30
0.0
  0
SPLINE
  5
1b9
100
AcDbEntity
  8
Layer_1
 62
7
100
AcDbSpline
 70
8
 71
3
 72
8
 73
4
 74
0
 40
0
 40
0
 40
0
 40
0
 40
1
 40
1
 40
1
 40
1
 10
-107.839830
 20
614.251595
 30
0.0
 10
-109.155764
 20
615.011698
 30
0.0
 10
-110.777322
 20
615.011698
 30
0.0
 10
-112.093256
 20
614.251595
 30
0.0
  0
SPLINE
  5
1ba
100
AcDbEntity
  8
Layer_1
 62
7
100
AcDbSpline
 70
8
 71
3
 72
8
 73
4
 74
0
 40
0
 40
0
 40
0
 40
0
 40
1
 40
1
 40
1
 40
1
 10
-112.093256
 20
614.251595
 30
0.0
 10
-113.409190
 20
613.491493
 30
0.0
 10
-114.219413
 20
612.086861
 30
0.0
 10
-114.218511
 20
610.567178
 30
0.0
  0
SPLINE
  5
1bb
100
AcDbEntity
  8
Layer_1
 62
7
100
AcDbSpline
 70
8
 71
3
 72
8
 73
4
 74
0
 40
0
 40
0
 40
0
 40
0
 40
1
 40
1
 40
1
 40
1
 10
-114.218511
 20
610.567178
 30
0.0
 10
-114.219413
 20
609.047495
 30
0.0
 10
-113.409190
 20
607.642864
 30
0.0
 10
-112.093256
 20
606.882761
 30
0.0
  0
SPLINE
  5
1bc
100
AcDbEntity
  8
Layer_1
 62
7
100
AcDbSpline
 70
8
 71
3
 72
8
 73
4
 74
0
 40
0
 40
0
 40
0
 40
0
 40
1
 40
1
 40
1
 40
1
 10
-112.093256
 20
606.882761
 30
0.0
 10
-110.777322
 20
606.122659
 30
0.0
 10
-109.155764
 20
606.122659
 30
0.0
 10
-107.839830
 20
606.882761
 30
0.0
  0
SPLINE
  5
1bd
100
AcDbEntity
  8
Layer_1
 62
7
100
AcDbSpline
 70
8
 71
3
 72
8
 73
4
 74
0
 40
0
 40
0
 40
0
 40
0
 40
1
 40
1
 40
1
 40
1
 10
-107.839830
 20
606.882761
 30
0.0
 10
-106.523896
 20
607.642864
 30
0.0
 10
-105.713673
 20
609.047495
 30
0.0
 10
-105.714576
 20
610.567178
 30
0.0
  0
LWPOLYLINE
  5
1be
100
AcDbEntity
  8
Layer_1
 62
7
100
AcDbPolyline
 90
1
 70
1
 10
-234.932254
 20
609.131426
 30
0.0
  0
SPLINE
  5
1bf
100
AcDbEntity
  8
Layer_1
 62
7
100
AcDbSpline
 70
8
 71
3
 72
8
 73
4
 74
0
 40
0
 40
0
 40
0
 40
0
 40
1
 40
1
 40
1
 40
1
 10
-40.885349
 20
384.801442
 30
0.0
 10
-40.885349
 20
386.320525
 30
0.0
 10
-41.695770
 20
387.724216
 30
0.0
 10
-43.011335
 20
388.483757
 30
0.0
  0
SPLINE
  5
1c0
100
AcDbEntity
  8
Layer_1
 62
7
100
AcDbSpline
 70
8
 71
3
 72
8
 73
4
 74
0
 40
0
 40
0
 40
0
 40
0
 40
1
 40
1
 40
1
 40
1
 10
-43.011335
 20
388.483757
 30
0.0
 10
-44.326899
 20
389.243299
 30
0.0
 10
-45.947742
 20
389.243299
 30
0.0
 10
-47.263306
 20
388.483757
 30
0.0
  0
SPLINE
  5
1c1
100
AcDbEntity
  8
Layer_1
 62
7
100
AcDbSpline
 70
8
 71
3
 72
8
 73
4
 74
0
 40
0
 40
0
 40
0
 40
0
 40
1
 40
1
 40
1
 40
1
 10
-47.263306
 20
388.483757
 30
0.0
 10
-48.578870
 20
387.724216
 30
0.0
 10
-49.389292
 20
386.320525
 30
0.0
 10
-49.389292
 20
384.801442
 30
0.0
  0
SPLINE
  5
1c2
100
AcDbEntity
  8
Layer_1
 62
7
100
AcDbSpline
 70
8
 71
3
 72
8
 73
4
 74
0
 40
0
 40
0
 40
0
 40
0
 40
1
 40
1
 40
1
 40
1
 10
-49.389292
 20
384.801442
 30
0.0
 10
-49.389292
 20
383.282359
 30
0.0
 10
-48.578870
 20
381.878669
 30
0.0
 10
-47.263306
 20
381.119127
 30
0.0
  0
SPLINE
  5
1c3
100
AcDbEntity
  8
Layer_1
 62
7
100
AcDbSpline
 70
8
 71
3
 72
8
 73
4
 74
0
 40
0
 40
0
 40
0
 40
0
 40
1
 40
1
 40
1
 40
1
 10
-47.263306
 20
381.119127
 30
0.0
 10
-45.947742
 20
380.359586
 30
0.0
 10
-44.326899
 20
380.359586
 30
0.0
 10
-43.011335
 20
381.119127
 30
0.0
  0
SPLINE
  5
1c4
100
AcDbEntity
  8
Layer_1
 62
7
100
AcDbSpline
 70
8
 71
3
 72
8
 73
4
 74
0
 40
0
 40
0
 40
0
 40
0
 40
1
 40
1
 40
1
 40
1
 10
-43.011335
 20
381.119127
 30
0.0
 10
-41.695770
 20
381.878669
 30
0.0
 10
-40.885349
 20
383.282359
 30
0.0
 10
-40.885349
 20
384.801442
 30
0.0
  0
LWPOLYLINE
  5
1c5
100
AcDbEntity
  8
Layer_1
 62
7
100
AcDbPolyline
 90
1
 70
1
 10
-105.714576
 20
610.567178
 30
0.0
  0
SPLINE
  5
1c6
100
AcDbEntity
  8
Layer_1
 62
7
100
AcDbSpline
 70
8
 71
3
 72
8
 73
4
 74
0
 40
0
 40
0
 40
0
 40
0
 40
1
 40
1
 40
1
 40
1
 10
-197.971775
 20
312.804113
 30
0.0
 10
-197.970872
 20
314.323796
 30
0.0
 10
-198.781095
 20
315.728428
 30
0.0
 10
-200.097029
 20
316.488530
 30
0.0
  0
SPLINE
  5
1c7
100
AcDbEntity
  8
Layer_1
 62
7
100
AcDbSpline
 70
8
 71
3
 72
8
 73
4
 74
0
 40
0
 40
0
 40
0
 40
0
 40
1
 40
1
 40
1
 40
1
 10
-200.097029
 20
316.488530
 30
0.0
 10
-201.412963
 20
317.248633
 30
0.0
 10
-203.034521
 20
317.248633
 30
0.0
 10
-204.350455
 20
316.488530
 30
0.0
  0
SPLINE
  5
1c8
100
AcDbEntity
  8
Layer_1
 62
7
100
AcDbSpline
 70
8
 71
3
 72
8
 73
4
 74
0
 40
0
 40
0
 40
0
 40
0
 40
1
 40
1
 40
1
 40
1
 10
-204.350455
 20
316.488530
 30
0.0
 10
-205.666389
 20
315.728428
 30
0.0
 10
-206.476612
 20
314.323796
 30
0.0
 10
-206.475710
 20
312.804113
 30
0.0
  0
SPLINE
  5
1c9
100
AcDbEntity
  8
Layer_1
 62
7
100
AcDbSpline
 70
8
 71
3
 72
8
 73
4
 74
0
 40
0
 40
0
 40
0
 40
0
 40
1
 40
1
 40
1
 40
1
 10
-206.475710
 20
312.804113
 30
0.0
 10
-206.476612
 20
311.284430
 30
0.0
 10
-205.666389
 20
309.879799
 30
0.0
 10
-204.350455
 20
309.119696
 30
0.0
  0
SPLINE
  5
1ca
100
AcDbEntity
  8
Layer_1
 62
7
100
AcDbSpline
 70
8
 71
3
 72
8
 73
4
 74
0
 40
0
 40
0
 40
0
 40
0
 40
1
 40
1
 40
1
 40
1
 10
-204.350455
 20
309.119696
 30
0.0
 10
-203.034521
 20
308.359594
 30
0.0
 10
-201.412963
 20
308.359594
 30
0.0
 10
-200.097029
 20
309.119696
 30
0.0
  0
SPLINE
  5
1cb
100
AcDbEntity
  8
Layer_1
 62
7
100
AcDbSpline
 70
8
 71
3
 72
8
 73
4
 74
0
 40
0
 40
0
 40
0
 40
0
 40
1
 40
1
 40
1
 40
1
 10
-200.097029
 20
309.119696
 30
0.0
 10
-198.781095
 20
309.879799
 30
0.0
 10
-197.970872
 20
311.284430
 30
0.0
 10
-197.971775
 20
312.804113
 30
0.0
  0
LWPOLYLINE
  5
1cc
100
AcDbEntity
  8
Layer_1
 62
7
100
AcDbPolyline
 90
1
 70
1
 10
-40.885349
 20
384.801442
 30
0.0
  0
SPLINE
  5
1cd
100
AcDbEntity
  8
Layer_1
 62
7
100
AcDbSpline
 70
8
 71
3
 72
8
 73
4
 74
0
 40
0
 40
0
 40
0
 40
0
 40
1
 40
1
 40
1
 40
1
 10
792.007603
 20
609.131426
 30
0.0
 10
792.013395
 20
610.654349
 30
0.0
 10
791.204249
 20
612.064073
 30
0.0
 10
789.886316
 20
612.827212
 30
0.0
  0
SPLINE
  5
1ce
100
AcDbEntity
  8
Layer_1
 62
7
100
AcDbSpline
 70
8
 71
3
 72
8
 73
4
 74
0
 40
0
 40
0
 40
0
 40
0
 40
1
 40
1
 40
1
 40
1
 10
789.886316
 20
612.827212
 30
0.0
 10
788.568383
 20
613.590350
 30
0.0
 10
786.942948
 20
613.590350
 30
0.0
 10
785.625015
 20
612.827212
 30
0.0
  0
SPLINE
  5
1cf
100
AcDbEntity
  8
Layer_1
 62
7
100
AcDbSpline
 70
8
 71
3
 72
8
 73
4
 74
0
 40
0
 40
0
 40
0
 40
0
 40
1
 40
1
 40
1
 40
1
 10
785.625015
 20
612.827212
 30
0.0
 10
784.307082
 20
612.064073
 30
0.0
 10
783.497936
 20
610.654349
 30
0.0
 10
783.503728
 20
609.131426
 30
0.0
  0
SPLINE
  5
1d0
100
AcDbEntity
  8
Layer_1
 62
7
100
AcDbSpline
 70
8
 71
3
 72
8
 73
4
 74
0
 40
0
 40
0
 40
0
 40
0
 40
1
 40
1
 40
1
 40
1
 10
783.503728
 20
609.131426
 30
0.0
 10
783.497936
 20
607.608503
 30
0.0
 10
784.307082
 20
606.198780
 30
0.0
 10
785.625015
 20
605.435641
 30
0.0
  0
SPLINE
  5
1d1
100
AcDbEntity
  8
Layer_1
 62
7
100
AcDbSpline
 70
8
 71
3
 72
8
 73
4
 74
0
 40
0
 40
0
 40
0
 40
0
 40
1
 40
1
 40
1
 40
1
 10
785.625015
 20
605.435641
 30
0.0
 10
786.942948
 20
604.672503
 30
0.0
 10
788.568383
 20
604.672503
 30
0.0
 10
789.886316
 20
605.435641
 30
0.0
  0
SPLINE
  5
1d2
100
AcDbEntity
  8
Layer_1
 62
7
100
AcDbSpline
 70
8
 71
3
 72
8
 73
4
 74
0
 40
0
 40
0
 40
0
 40
0
 40
1
 40
1
 40
1
 40
1
 10
789.886316
 20
605.435641
 30
0.0
 10
791.204249
 20
606.198780
 30
0.0
 10
792.013395
 20
607.608503
 30
0.0
 10
792.007603
 20
609.131426
 30
0.0
  0
LWPOLYLINE
  5
1d3
100
AcDbEntity
  8
Layer_1
 62
7
100
AcDbPolyline
 90
1
 70
1
 10
-197.971775
 20
312.804113
 30
0.0
  0
SPLINE
  5
1d4
100
AcDbEntity
  8
Layer_1
 62
7
100
AcDbSpline
 70
8
 71
3
 72
8
 73
4
 74
0
 40
0
 40
0
 40
0
 40
0
 40
1
 40
1
 40
1
 40
1
 10
662.789954
 20
610.567178
 30
0.0
 10
662.789954
 20
612.086263
 30
0.0
 10
661.979533
 20
613.489954
 30
0.0
 10
660.663967
 20
614.249497
 30
0.0
  0
SPLINE
  5
1d5
100
AcDbEntity
  8
Layer_1
 62
7
100
AcDbSpline
 70
8
 71
3
 72
8
 73
4
 74
0
 40
0
 40
0
 40
0
 40
0
 40
1
 40
1
 40
1
 40
1
 10
660.663967
 20
614.249497
 30
0.0
 10
659.348401
 20
615.009039
 30
0.0
 10
657.727558
 20
615.009039
 30
0.0
 10
656.411992
 20
614.249497
 30
0.0
  0
SPLINE
  5
1d6
100
AcDbEntity
  8
Layer_1
 62
7
100
AcDbSpline
 70
8
 71
3
 72
8
 73
4
 74
0
 40
0
 40
0
 40
0
 40
0
 40
1
 40
1
 40
1
 40
1
 10
656.411992
 20
614.249497
 30
0.0
 10
655.096426
 20
613.489954
 30
0.0
 10
654.286005
 20
612.086263
 30
0.0
 10
654.286005
 20
610.567178
 30
0.0
  0
SPLINE
  5
1d7
100
AcDbEntity
  8
Layer_1
 62
7
100
AcDbSpline
 70
8
 71
3
 72
8
 73
4
 74
0
 40
0
 40
0
 40
0
 40
0
 40
1
 40
1
 40
1
 40
1
 10
654.286005
 20
610.567178
 30
0.0
 10
654.286004
 20
609.048094
 30
0.0
 10
655.096426
 20
607.644402
 30
0.0
 10
656.411992
 20
606.884859
 30
0.0
  0
SPLINE
  5
1d8
100
AcDbEntity
  8
Layer_1
 62
7
100
AcDbSpline
 70
8
 71
3
 72
8
 73
4
 74
0
 40
0
 40
0
 40
0
 40
0
 40
1
 40
1
 40
1
 40
1
 10
656.411992
 20
606.884859
 30
0.0
 10
657.727558
 20
606.125317
 30
0.0
 10
659.348401
 20
606.125317
 30
0.0
 10
660.663967
 20
606.884859
 30
0.0
  0
SPLINE
  5
1d9
100
AcDbEntity
  8
Layer_1
 62
7
100
AcDbSpline
 70
8
 71
3
 72
8
 73
4
 74
0
 40
0
 40
0
 40
0
 40
0
 40
1
 40
1
 40
1
 40
1
 10
660.663967
 20
606.884859
 30
0.0
 10
661.979533
 20
607.644402
 30
0.0
 10
662.789955
 20
609.048094
 30
0.0
 10
662.789954
 20
610.567178
 30
0.0
  0
LWPOLYLINE
  5
1da
100
AcDbEntity
  8
Layer_1
 62
7
100
AcDbPolyline
 90
1
 70
1
 10
792.007603
 20
609.131426
 30
0.0
  0
SPLINE
  5
1db
100
AcDbEntity
  8
Layer_1
 62
7
100
AcDbSpline
 70
8
 71
3
 72
8
 73
4
 74
0
 40
0
 40
0
 40
0
 40
0
 40
1
 40
1
 40
1
 40
1
 10
597.960705
 20
384.801442
 30
0.0
 10
597.966532
 20
386.324389
 30
0.0
 10
597.157395
 20
387.734149
 30
0.0
 10
595.839447
 20
388.497310
 30
0.0
  0
SPLINE
  5
1dc
100
AcDbEntity
  8
Layer_1
 62
7
100
AcDbSpline
 70
8
 71
3
 72
8
 73
4
 74
0
 40
0
 40
0
 40
0
 40
0
 40
1
 40
1
 40
1
 40
1
 10
595.839447
 20
388.497310
 30
0.0
 10
594.521499
 20
389.260470
 30
0.0
 10
592.896036
 20
389.260470
 30
0.0
 10
591.578089
 20
388.497310
 30
0.0
  0
SPLINE
  5
1dd
100
AcDbEntity
  8
Layer_1
 62
7
100
AcDbSpline
 70
8
 71
3
 72
8
 73
4
 74
0
 40
0
 40
0
 40
0
 40
0
 40
1
 40
1
 40
1
 40
1
 10
591.578089
 20
388.497310
 30
0.0
 10
590.260141
 20
387.734149
 30
0.0
 10
589.451003
 20
386.324389
 30
0.0
 10
589.456830
 20
384.801442
 30
0.0
  0
SPLINE
  5
1de
100
AcDbEntity
  8
Layer_1
 62
7
100
AcDbSpline
 70
8
 71
3
 72
8
 73
4
 74
0
 40
0
 40
0
 40
0
 40
0
 40
1
 40
1
 40
1
 40
1
 10
589.456830
 20
384.801442
 30
0.0
 10
589.451003
 20
383.278496
 30
0.0
 10
590.260141
 20
381.868735
 30
0.0
 10
591.578089
 20
381.105575
 30
0.0
  0
SPLINE
  5
1df
100
AcDbEntity
  8
Layer_1
 62
7
100
AcDbSpline
 70
8
 71
3
 72
8
 73
4
 74
0
 40
0
 40
0
 40
0
 40
0
 40
1
 40
1
 40
1
 40
1
 10
591.578089
 20
381.105575
 30
0.0
 10
592.896036
 20
380.342415
 30
0.0
 10
594.521499
 20
380.342415
 30
0.0
 10
595.839447
 20
381.105575
 30
0.0
  0
SPLINE
  5
1e0
100
AcDbEntity
  8
Layer_1
 62
7
100
AcDbSpline
 70
8
 71
3
 72
8
 73
4
 74
0
 40
0
 40
0
 40
0
 40
0
 40
1
 40
1
 40
1
 40
1
 10
595.839447
 20
381.105575
 30
0.0
 10
597.157395
 20
381.868735
 30
0.0
 10
597.966532
 20
383.278496
 30
0.0
 10
597.960705
 20
384.801442
 30
0.0
  0
LWPOLYLINE
  5
1e1
100
AcDbEntity
  8
Layer_1
 62
7
100
AcDbPolyline
 90
1
 70
1
 10
662.789954
 20
610.567178
 30
0.0
  0
SPLINE
  5
1e2
100
AcDbEntity
  8
Layer_1
 62
7
100
AcDbSpline
 70
8
 71
3
 72
8
 73
4
 74
0
 40
0
 40
0
 40
0
 40
0
 40
1
 40
1
 40
1
 40
1
 10
755.047153
 20
312.804113
 30
0.0
 10
755.047153
 20
314.323198
 30
0.0
 10
754.236731
 20
315.726889
 30
0.0
 10
752.921166
 20
316.486432
 30
0.0
  0
SPLINE
  5
1e3
100
AcDbEntity
  8
Layer_1
 62
7
100
AcDbSpline
 70
8
 71
3
 72
8
 73
4
 74
0
 40
0
 40
0
 40
0
 40
0
 40
1
 40
1
 40
1
 40
1
 10
752.921166
 20
316.486432
 30
0.0
 10
751.605600
 20
317.245974
 30
0.0
 10
749.984756
 20
317.245974
 30
0.0
 10
748.669191
 20
316.486432
 30
0.0
  0
SPLINE
  5
1e4
100
AcDbEntity
  8
Layer_1
 62
7
100
AcDbSpline
 70
8
 71
3
 72
8
 73
4
 74
0
 40
0
 40
0
 40
0
 40
0
 40
1
 40
1
 40
1
 40
1
 10
748.669191
 20
316.486432
 30
0.0
 10
747.353625
 20
315.726889
 30
0.0
 10
746.543203
 20
314.323198
 30
0.0
 10
746.543203
 20
312.804113
 30
0.0
  0
SPLINE
  5
1e5
100
AcDbEntity
  8
Layer_1
 62
7
100
AcDbSpline
 70
8
 71
3
 72
8
 73
4
 74
0
 40
0
 40
0
 40
0
 40
0
 40
1
 40
1
 40
1
 40
1
 10
746.543203
 20
312.804113
 30
0.0
 10
746.543203
 20
311.285029
 30
0.0
 10
747.353625
 20
309.881337
 30
0.0
 10
748.669191
 20
309.121795
 30
0.0
  0
SPLINE
  5
1e6
100
AcDbEntity
  8
Layer_1
 62
7
100
AcDbSpline
 70
8
 71
3
 72
8
 73
4
 74
0
 40
0
 40
0
 40
0
 40
0
 40
1
 40
1
 40
1
 40
1
 10
748.669191
 20
309.121795
 30
0.0
 10
749.984756
 20
308.362253
 30
0.0
 10
751.605600
 20
308.362253
 30
0.0
 10
752.921166
 20
309.121795
 30
0.0
  0
SPLINE
  5
1e7
100
AcDbEntity
  8
Layer_1
 62
7
100
AcDbSpline
 70
8
 71
3
 72
8
 73
4
 74
0
 40
0
 40
0
 40
0
 40
0
 40
1
 40
1
 40
1
 40
1
 10
752.921166
 20
309.121795
 30
0.0
 10
754.236731
 20
309.881337
 30
0.0
 10
755.047153
 20
311.285029
 30
0.0
 10
755.047153
 20
312.804113
 30
0.0
  0
LWPOLYLINE
  5
1e8
100
AcDbEntity
  8
Layer_1
 62
7
100
AcDbPolyline
 90
1
 70
1
 10
597.960705
 20
384.801442
 30
0.0
  0
LWPOLYLINE
  5
1e9
100
AcDbEntity
  8
Layer_1
 62
7
100
AcDbPolyline
 90
1
 70
1
 10
755.047153
 20
312.804113
 30
0.0
  0
LWPOLYLINE
  5
1ea
100
AcDbEntity
  8
Layer_1
 62
7
100
AcDbPolyline
 90
2
 70
0
 10
-117.507898
 20
461.787786
 30
0.0
 10
-117.507898
 20
620.444976
 30
0.0
  0
SPLINE
  5
1eb
100
AcDbEntity
  8
Layer_1
 62
7
100
AcDbSpline
 70
8
 71
3
 72
8
 73
4
 74
0
 40
0
 40
0
 40
0
 40
0
 40
1
 40
1
 40
1
 40
1
 10
480.948257
 20
53.219734
 30
0.0
 10
480.948257
 20
54.738818
 30
0.0
 10
480.137835
 20
56.142510
 30
0.0
 10
478.822269
 20
56.902052
 30
0.0
  0
SPLINE
  5
1ec
100
AcDbEntity
  8
Layer_1
 62
7
100
AcDbSpline
 70
8
 71
3
 72
8
 73
4
 74
0
 40
0
 40
0
 40
0
 40
0
 40
1
 40
1
 40
1
 40
1
 10
478.822269
 20
56.902052
 30
0.0
 10
477.506704
 20
57.661595
 30
0.0
 10
475.885860
 20
57.661595
 30
0.0
 10
474.570294
 20
56.902052
 30
0.0
  0
SPLINE
  5
1ed
100
AcDbEntity
  8
Layer_1
 62
7
100
AcDbSpline
 70
8
 71
3
 72
8
 73
4
 74
0
 40
0
 40
0
 40
0
 40
0
 40
1
 40
1
 40
1
 40
1
 10
474.570294
 20
56.902052
 30
0.0
 10
473.254729
 20
56.142510
 30
0.0
 10
472.444307
 20
54.738818
 30
0.0
 10
472.444307
 20
53.219734
 30
0.0
  0
SPLINE
  5
1ee
100
AcDbEntity
  8
Layer_1
 62
7
100
AcDbSpline
 70
8
 71
3
 72
8
 73
4
 74
0
 40
0
 40
0
 40
0
 40
0
 40
1
 40
1
 40
1
 40
1
 10
472.444307
 20
53.219734
 30
0.0
 10
472.444307
 20
51.700650
 30
0.0
 10
473.254729
 20
50.296958
 30
0.0
 10
474.570294
 20
49.537416
 30
0.0
  0
SPLINE
  5
1ef
100
AcDbEntity
  8
Layer_1
 62
7
100
AcDbSpline
 70
8
 71
3
 72
8
 73
4
 74
0
 40
0
 40
0
 40
0
 40
0
 40
1
 40
1
 40
1
 40
1
 10
474.570294
 20
49.537416
 30
0.0
 10
475.885860
 20
48.777874
 30
0.0
 10
477.506704
 20
48.777874
 30
0.0
 10
478.822269
 20
49.537416
 30
0.0
  0
SPLINE
  5
1f0
100
AcDbEntity
  8
Layer_1
 62
7
100
AcDbSpline
 70
8
 71
3
 72
8
 73
4
 74
0
 40
0
 40
0
 40
0
 40
0
 40
1
 40
1
 40
1
 40
1
 10
478.822269
 20
49.537416
 30
0.0
 10
480.137835
 20
50.296958
 30
0.0
 10
480.948257
 20
51.700650
 30
0.0
 10
480.948257
 20
53.219734
 30
0.0
  0
LWPOLYLINE
  5
1f1
100
AcDbEntity
  8
Layer_1
 62
7
100
AcDbPolyline
 90
7
 70
1
 10
-12.280102
 20
284.981169
 30
0.0
 10
-12.280102
 20
293.485111
 30
0.0
 10
594.334080
 20
293.485111
 30
0.0
 10
594.334080
 20
87.235481
 30
0.0
 10
72.759269
 20
87.235481
 30
0.0
 10
1.893128
 20
112.067786
 30
0.0
 10
1.893128
 20
284.981169
 30
0.0
  0
SPLINE
  5
1f2
100
AcDbEntity
  8
Layer_1
 62
7
100
AcDbSpline
 70
8
 71
3
 72
8
 73
4
 74
0
 40
0
 40
0
 40
0
 40
0
 40
1
 40
1
 40
1
 40
1
 10
626.932455
 20
273.642586
 30
0.0
 10
626.938247
 20
275.165509
 30
0.0
 10
626.129101
 20
276.575233
 30
0.0
 10
624.811168
 20
277.338371
 30
0.0
  0
SPLINE
  5
1f3
100
AcDbEntity
  8
Layer_1
 62
7
100
AcDbSpline
 70
8
 71
3
 72
8
 73
4
 74
0
 40
0
 40
0
 40
0
 40
0
 40
1
 40
1
 40
1
 40
1
 10
624.811168
 20
277.338371
 30
0.0
 10
623.493235
 20
278.101510
 30
0.0
 10
621.867800
 20
278.101510
 30
0.0
 10
620.549867
 20
277.338371
 30
0.0
  0
SPLINE
  5
1f4
100
AcDbEntity
  8
Layer_1
 62
7
100
AcDbSpline
 70
8
 71
3
 72
8
 73
4
 74
0
 40
0
 40
0
 40
0
 40
0
 40
1
 40
1
 40
1
 40
1
 10
620.549867
 20
277.338371
 30
0.0
 10
619.231934
 20
276.575233
 30
0.0
 10
618.422788
 20
275.165509
 30
0.0
 10
618.428580
 20
273.642586
 30
0.0
  0
SPLINE
  5
1f5
100
AcDbEntity
  8
Layer_1
 62
7
100
AcDbSpline
 70
8
 71
3
 72
8
 73
4
 74
0
 40
0
 40
0
 40
0
 40
0
 40
1
 40
1
 40
1
 40
1
 10
618.428580
 20
273.642586
 30
0.0
 10
618.422788
 20
272.119663
 30
0.0
 10
619.231934
 20
270.709940
 30
0.0
 10
620.549867
 20
269.946801
 30
0.0
  0
SPLINE
  5
1f6
100
AcDbEntity
  8
Layer_1
 62
7
100
AcDbSpline
 70
8
 71
3
 72
8
 73
4
 74
0
 40
0
 40
0
 40
0
 40
0
 40
1
 40
1
 40
1
 40
1
 10
620.549867
 20
269.946801
 30
0.0
 10
621.867800
 20
269.183663
 30
0.0
 10
623.493235
 20
269.183663
 30
0.0
 10
624.811168
 20
269.946801
 30
0.0
  0
SPLINE
  5
1f7
100
AcDbEntity
  8
Layer_1
 62
7
100
AcDbSpline
 70
8
 71
3
 72
8
 73
4
 74
0
 40
0
 40
0
 40
0
 40
0
 40
1
 40
1
 40
1
 40
1
 10
624.811168
 20
269.946801
 30
0.0
 10
626.129101
 20
270.709940
 30
0.0
 10
626.938247
 20
272.119663
 30
0.0
 10
626.932455
 20
273.642586
 30
0.0
  0
LWPOLYLINE
  5
1f8
100
AcDbEntity
  8
Layer_1
 62
7
100
AcDbPolyline
 90
1
 70
1
 10
480.948257
 20
53.219734
 30
0.0
  0
SPLINE
  5
1f9
100
AcDbEntity
  8
Layer_1
 62
7
100
AcDbSpline
 70
8
 71
3
 72
8
 73
4
 74
0
 40
0
 40
0
 40
0
 40
0
 40
1
 40
1
 40
1
 40
1
 10
-22.201364
 20
273.642586
 30
0.0
 10
-22.200462
 20
275.162269
 30
0.0
 10
-23.010685
 20
276.566901
 30
0.0
 10
-24.326619
 20
277.327003
 30
0.0
  0
SPLINE
  5
1fa
100
AcDbEntity
  8
Layer_1
 62
7
100
AcDbSpline
 70
8
 71
3
 72
8
 73
4
 74
0
 40
0
 40
0
 40
0
 40
0
 40
1
 40
1
 40
1
 40
1
 10
-24.326619
 20
277.327003
 30
0.0
 10
-25.642553
 20
278.087106
 30
0.0
 10
-27.264111
 20
278.087106
 30
0.0
 10
-28.580045
 20
277.327003
 30
0.0
  0
SPLINE
  5
1fb
100
AcDbEntity
  8
Layer_1
 62
7
100
AcDbSpline
 70
8
 71
3
 72
8
 73
4
 74
0
 40
0
 40
0
 40
0
 40
0
 40
1
 40
1
 40
1
 40
1
 10
-28.580045
 20
277.327003
 30
0.0
 10
-29.895979
 20
276.566901
 30
0.0
 10
-30.706202
 20
275.162269
 30
0.0
 10
-30.705299
 20
273.642586
 30
0.0
  0
SPLINE
  5
1fc
100
AcDbEntity
  8
Layer_1
 62
7
100
AcDbSpline
 70
8
 71
3
 72
8
 73
4
 74
0
 40
0
 40
0
 40
0
 40
0
 40
1
 40
1
 40
1
 40
1
 10
-30.705299
 20
273.642586
 30
0.0
 10
-30.706202
 20
272.122903
 30
0.0
 10
-29.895979
 20
270.718272
 30
0.0
 10
-28.580045
 20
269.958169
 30
0.0
  0
SPLINE
  5
1fd
100
AcDbEntity
  8
Layer_1
 62
7
100
AcDbSpline
 70
8
 71
3
 72
8
 73
4
 74
0
 40
0
 40
0
 40
0
 40
0
 40
1
 40
1
 40
1
 40
1
 10
-28.580045
 20
269.958169
 30
0.0
 10
-27.264111
 20
269.198067
 30
0.0
 10
-25.642553
 20
269.198067
 30
0.0
 10
-24.326619
 20
269.958169
 30
0.0
  0
SPLINE
  5
1fe
100
AcDbEntity
  8
Layer_1
 62
7
100
AcDbSpline
 70
8
 71
3
 72
8
 73
4
 74
0
 40
0
 40
0
 40
0
 40
0
 40
1
 40
1
 40
1
 40
1
 10
-24.326619
 20
269.958169
 30
0.0
 10
-23.010685
 20
270.718272
 30
0.0
 10
-22.200462
 20
272.122903
 30
0.0
 10
-22.201364
 20
273.642586
 30
0.0
  0
LWPOLYLINE
  5
1ff
100
AcDbEntity
  8
Layer_1
 62
7
100
AcDbPolyline
 90
1
 70
1
 10
626.932455
 20
273.642586
 30
0.0
  0
SPLINE
  5
200
100
AcDbEntity
  8
Layer_1
 62
7
100
AcDbSpline
 70
8
 71
3
 72
8
 73
4
 74
0
 40
0
 40
0
 40
0
 40
0
 40
1
 40
1
 40
1
 40
1
 10
123.782886
 20
53.219734
 30
0.0
 10
123.783992
 20
54.739552
 30
0.0
 10
122.973813
 20
56.144396
 30
0.0
 10
121.657796
 20
56.904624
 30
0.0
  0
SPLINE
  5
201
100
AcDbEntity
  8
Layer_1
 62
7
100
AcDbSpline
 70
8
 71
3
 72
8
 73
4
 74
0
 40
0
 40
0
 40
0
 40
0
 40
1
 40
1
 40
1
 40
1
 10
121.657796
 20
56.904624
 30
0.0
 10
120.341778
 20
57.664853
 30
0.0
 10
118.720059
 20
57.664853
 30
0.0
 10
117.404042
 20
56.904624
 30
0.0
  0
SPLINE
  5
202
100
AcDbEntity
  8
Layer_1
 62
7
100
AcDbSpline
 70
8
 71
3
 72
8
 73
4
 74
0
 40
0
 40
0
 40
0
 40
0
 40
1
 40
1
 40
1
 40
1
 10
117.404042
 20
56.904624
 30
0.0
 10
116.088024
 20
56.144396
 30
0.0
 10
115.277846
 20
54.739552
 30
0.0
 10
115.278951
 20
53.219734
 30
0.0
  0
SPLINE
  5
203
100
AcDbEntity
  8
Layer_1
 62
7
100
AcDbSpline
 70
8
 71
3
 72
8
 73
4
 74
0
 40
0
 40
0
 40
0
 40
0
 40
1
 40
1
 40
1
 40
1
 10
115.278951
 20
53.219734
 30
0.0
 10
115.277846
 20
51.699916
 30
0.0
 10
116.088024
 20
50.295072
 30
0.0
 10
117.404042
 20
49.534844
 30
0.0
  0
SPLINE
  5
204
100
AcDbEntity
  8
Layer_1
 62
7
100
AcDbSpline
 70
8
 71
3
 72
8
 73
4
 74
0
 40
0
 40
0
 40
0
 40
0
 40
1
 40
1
 40
1
 40
1
 10
117.404042
 20
49.534844
 30
0.0
 10
118.720059
 20
48.774615
 30
0.0
 10
120.341778
 20
48.774615
 30
0.0
 10
121.657796
 20
49.534844
 30
0.0
  0
SPLINE
  5
205
100
AcDbEntity
  8
Layer_1
 62
7
100
AcDbSpline
 70
8
 71
3
 72
8
 73
4
 74
0
 40
0
 40
0
 40
0
 40
0
 40
1
 40
1
 40
1
 40
1
 10
121.657796
 20
49.534844
 30
0.0
 10
122.973813
 20
50.295072
 30
0.0
 10
123.783992
 20
51.699916
 30
0.0
 10
123.782886
 20
53.219734
 30
0.0
  0
LWPOLYLINE
  5
206
100
AcDbEntity
  8
Layer_1
 62
7
100
AcDbPolyline
 90
1
 70
1
 10
-22.201364
 20
273.642586
 30
0.0
  0
SPLINE
  5
207
100
AcDbEntity
  8
Layer_1
 62
7
100
AcDbSpline
 70
8
 71
3
 72
8
 73
4
 74
0
 40
0
 40
0
 40
0
 40
0
 40
1
 40
1
 40
1
 40
1
 10
120.368714
 20
609.013556
 30
0.0
 10
120.370175
 20
611.004020
 30
0.0
 10
119.309114
 20
612.843910
 30
0.0
 10
117.585564
 20
613.839564
 30
0.0
  0
SPLINE
  5
208
100
AcDbEntity
  8
Layer_1
 62
7
100
AcDbSpline
 70
8
 71
3
 72
8
 73
4
 74
0
 40
0
 40
0
 40
0
 40
0
 40
1
 40
1
 40
1
 40
1
 10
117.585564
 20
613.839564
 30
0.0
 10
115.862015
 20
614.835218
 30
0.0
 10
113.738093
 20
614.835218
 30
0.0
 10
112.014543
 20
613.839564
 30
0.0
  0
SPLINE
  5
209
100
AcDbEntity
  8
Layer_1
 62
7
100
AcDbSpline
 70
8
 71
3
 72
8
 73
4
 74
0
 40
0
 40
0
 40
0
 40
0
 40
1
 40
1
 40
1
 40
1
 10
112.014543
 20
613.839564
 30
0.0
 10
110.290994
 20
612.843910
 30
0.0
 10
109.229933
 20
611.004020
 30
0.0
 10
109.231394
 20
609.013556
 30
0.0
  0
SPLINE
  5
20a
100
AcDbEntity
  8
Layer_1
 62
7
100
AcDbSpline
 70
8
 71
3
 72
8
 73
4
 74
0
 40
0
 40
0
 40
0
 40
0
 40
1
 40
1
 40
1
 40
1
 10
109.231394
 20
609.013556
 30
0.0
 10
109.229933
 20
607.023091
 30
0.0
 10
110.290994
 20
605.183201
 30
0.0
 10
112.014543
 20
604.187547
 30
0.0
  0
SPLINE
  5
20b
100
AcDbEntity
  8
Layer_1
 62
7
100
AcDbSpline
 70
8
 71
3
 72
8
 73
4
 74
0
 40
0
 40
0
 40
0
 40
0
 40
1
 40
1
 40
1
 40
1
 10
112.014543
 20
604.187547
 30
0.0
 10
113.738093
 20
603.191893
 30
0.0
 10
115.862015
 20
603.191893
 30
0.0
 10
117.585564
 20
604.187547
 30
0.0
  0
SPLINE
  5
20c
100
AcDbEntity
  8
Layer_1
 62
7
100
AcDbSpline
 70
8
 71
3
 72
8
 73
4
 74
0
 40
0
 40
0
 40
0
 40
0
 40
1
 40
1
 40
1
 40
1
 10
117.585564
 20
604.187547
 30
0.0
 10
119.309114
 20
605.183201
 30
0.0
 10
120.370175
 20
607.023091
 30
0.0
 10
120.368714
 20
609.013556
 30
0.0
  0
LWPOLYLINE
  5
20d
100
AcDbEntity
  8
Layer_1
 62
7
100
AcDbPolyline
 90
1
 70
1
 10
123.782886
 20
53.219734
 30
0.0
  0
SPLINE
  5
20e
100
AcDbEntity
  8
Layer_1
 62
7
100
AcDbSpline
 70
8
 71
3
 72
8
 73
4
 74
0
 40
0
 40
0
 40
0
 40
0
 40
1
 40
1
 40
1
 40
1
 10
264.751084
 20
610.903166
 30
0.0
 10
264.752545
 20
612.893630
 30
0.0
 10
263.691484
 20
614.733520
 30
0.0
 10
261.967935
 20
615.729174
 30
0.0
  0
SPLINE
  5
20f
100
AcDbEntity
  8
Layer_1
 62
7
100
AcDbSpline
 70
8
 71
3
 72
8
 73
4
 74
0
 40
0
 40
0
 40
0
 40
0
 40
1
 40
1
 40
1
 40
1
 10
261.967935
 20
615.729174
 30
0.0
 10
260.244386
 20
616.724829
 30
0.0
 10
258.120463
 20
616.724829
 30
0.0
 10
256.396914
 20
615.729174
 30
0.0
  0
SPLINE
  5
210
100
AcDbEntity
  8
Layer_1
 62
7
100
AcDbSpline
 70
8
 71
3
 72
8
 73
4
 74
0
 40
0
 40
0
 40
0
 40
0
 40
1
 40
1
 40
1
 40
1
 10
256.396914
 20
615.729174
 30
0.0
 10
254.673365
 20
614.733520
 30
0.0
 10
253.612304
 20
612.893630
 30
0.0
 10
253.613765
 20
610.903166
 30
0.0
  0
SPLINE
  5
211
100
AcDbEntity
  8
Layer_1
 62
7
100
AcDbSpline
 70
8
 71
3
 72
8
 73
4
 74
0
 40
0
 40
0
 40
0
 40
0
 40
1
 40
1
 40
1
 40
1
 10
253.613765
 20
610.903166
 30
0.0
 10
253.612304
 20
608.912702
 30
0.0
 10
254.673365
 20
607.072812
 30
0.0
 10
256.396914
 20
606.077158
 30
0.0
  0
SPLINE
  5
212
100
AcDbEntity
  8
Layer_1
 62
7
100
AcDbSpline
 70
8
 71
3
 72
8
 73
4
 74
0
 40
0
 40
0
 40
0
 40
0
 40
1
 40
1
 40
1
 40
1
 10
256.396914
 20
606.077158
 30
0.0
 10
258.120463
 20
605.081504
 30
0.0
 10
260.244386
 20
605.081504
 30
0.0
 10
261.967935
 20
606.077158
 30
0.0
  0
SPLINE
  5
213
100
AcDbEntity
  8
Layer_1
 62
7
100
AcDbSpline
 70
8
 71
3
 72
8
 73
4
 74
0
 40
0
 40
0
 40
0
 40
0
 40
1
 40
1
 40
1
 40
1
 10
261.967935
 20
606.077158
 30
0.0
 10
263.691484
 20
607.072812
 30
0.0
 10
264.752545
 20
608.912702
 30
0.0
 10
264.751084
 20
610.903166
 30
0.0
  0
LWPOLYLINE
  5
214
100
AcDbEntity
  8
Layer_1
 62
7
100
AcDbPolyline
 90
1
 70
1
 10
120.368714
 20
609.013556
 30
0.0
  0
SPLINE
  5
215
100
AcDbEntity
  8
Layer_1
 62
7
100
AcDbSpline
 70
8
 71
3
 72
8
 73
4
 74
0
 40
0
 40
0
 40
0
 40
0
 40
1
 40
1
 40
1
 40
1
 10
30.397447
 20
450.252629
 30
0.0
 10
30.398908
 20
452.243093
 30
0.0
 10
29.337847
 20
454.082983
 30
0.0
 10
27.614298
 20
455.078637
 30
0.0
  0
SPLINE
  5
216
100
AcDbEntity
  8
Layer_1
 62
7
100
AcDbSpline
 70
8
 71
3
 72
8
 73
4
 74
0
 40
0
 40
0
 40
0
 40
0
 40
1
 40
1
 40
1
 40
1
 10
27.614298
 20
455.078637
 30
0.0
 10
25.890749
 20
456.074291
 30
0.0
 10
23.766826
 20
456.074291
 30
0.0
 10
22.043277
 20
455.078637
 30
0.0
  0
SPLINE
  5
217
100
AcDbEntity
  8
Layer_1
 62
7
100
AcDbSpline
 70
8
 71
3
 72
8
 73
4
 74
0
 40
0
 40
0
 40
0
 40
0
 40
1
 40
1
 40
1
 40
1
 10
22.043277
 20
455.078637
 30
0.0
 10
20.319728
 20
454.082983
 30
0.0
 10
19.258667
 20
452.243093
 30
0.0
 10
19.260128
 20
450.252629
 30
0.0
  0
SPLINE
  5
218
100
AcDbEntity
  8
Layer_1
 62
7
100
AcDbSpline
 70
8
 71
3
 72
8
 73
4
 74
0
 40
0
 40
0
 40
0
 40
0
 40
1
 40
1
 40
1
 40
1
 10
19.260128
 20
450.252629
 30
0.0
 10
19.258667
 20
448.262165
 30
0.0
 10
20.319728
 20
446.422275
 30
0.0
 10
22.043277
 20
445.426621
 30
0.0
  0
SPLINE
  5
219
100
AcDbEntity
  8
Layer_1
 62
7
100
AcDbSpline
 70
8
 71
3
 72
8
 73
4
 74
0
 40
0
 40
0
 40
0
 40
0
 40
1
 40
1
 40
1
 40
1
 10
22.043277
 20
445.426621
 30
0.0
 10
23.766826
 20
444.430967
 30
0.0
 10
25.890749
 20
444.430967
 30
0.0
 10
27.614298
 20
445.426621
 30
0.0
  0
SPLINE
  5
21a
100
AcDbEntity
  8
Layer_1
 62
7
100
AcDbSpline
 70
8
 71
3
 72
8
 73
4
 74
0
 40
0
 40
0
 40
0
 40
0
 40
1
 40
1
 40
1
 40
1
 10
27.614298
 20
445.426621
 30
0.0
 10
29.337847
 20
446.422275
 30
0.0
 10
30.398908
 20
448.262165
 30
0.0
 10
30.397447
 20
450.252629
 30
0.0
  0
LWPOLYLINE
  5
21b
100
AcDbEntity
  8
Layer_1
 62
7
100
AcDbPolyline
 90
1
 70
1
 10
264.751084
 20
610.903166
 30
0.0
  0
SPLINE
  5
21c
100
AcDbEntity
  8
Layer_1
 62
7
100
AcDbSpline
 70
8
 71
3
 72
8
 73
4
 74
0
 40
0
 40
0
 40
0
 40
0
 40
1
 40
1
 40
1
 40
1
 10
477.636557
 20
450.311557
 30
0.0
 10
477.636557
 20
452.301052
 30
0.0
 10
476.575173
 20
454.139423
 30
0.0
 10
474.852219
 20
455.134171
 30
0.0
  0
SPLINE
  5
21d
100
AcDbEntity
  8
Layer_1
 62
7
100
AcDbSpline
 70
8
 71
3
 72
8
 73
4
 74
0
 40
0
 40
0
 40
0
 40
0
 40
1
 40
1
 40
1
 40
1
 10
474.852219
 20
455.134171
 30
0.0
 10
473.129265
 20
456.128918
 30
0.0
 10
471.006498
 20
456.128918
 30
0.0
 10
469.283544
 20
455.134171
 30
0.0
  0
SPLINE
  5
21e
100
AcDbEntity
  8
Layer_1
 62
7
100
AcDbSpline
 70
8
 71
3
 72
8
 73
4
 74
0
 40
0
 40
0
 40
0
 40
0
 40
1
 40
1
 40
1
 40
1
 10
469.283544
 20
455.134171
 30
0.0
 10
467.560590
 20
454.139423
 30
0.0
 10
466.499207
 20
452.301052
 30
0.0
 10
466.499207
 20
450.311557
 30
0.0
  0
SPLINE
  5
21f
100
AcDbEntity
  8
Layer_1
 62
7
100
AcDbSpline
 70
8
 71
3
 72
8
 73
4
 74
0
 40
0
 40
0
 40
0
 40
0
 40
1
 40
1
 40
1
 40
1
 10
466.499207
 20
450.311557
 30
0.0
 10
466.499207
 20
448.322061
 30
0.0
 10
467.560590
 20
446.483691
 30
0.0
 10
469.283544
 20
445.488943
 30
0.0
  0
SPLINE
  5
220
100
AcDbEntity
  8
Layer_1
 62
7
100
AcDbSpline
 70
8
 71
3
 72
8
 73
4
 74
0
 40
0
 40
0
 40
0
 40
0
 40
1
 40
1
 40
1
 40
1
 10
469.283544
 20
445.488943
 30
0.0
 10
471.006498
 20
444.494195
 30
0.0
 10
473.129265
 20
444.494195
 30
0.0
 10
474.852219
 20
445.488943
 30
0.0
  0
SPLINE
  5
221
100
AcDbEntity
  8
Layer_1
 62
7
100
AcDbSpline
 70
8
 71
3
 72
8
 73
4
 74
0
 40
0
 40
0
 40
0
 40
0
 40
1
 40
1
 40
1
 40
1
 10
474.852219
 20
445.488943
 30
0.0
 10
476.575173
 20
446.483691
 30
0.0
 10
477.636557
 20
448.322061
 30
0.0
 10
477.636557
 20
450.311557
 30
0.0
  0
LWPOLYLINE
  5
222
100
AcDbEntity
  8
Layer_1
 62
7
100
AcDbPolyline
 90
1
 70
1
 10
30.397447
 20
450.252629
 30
0.0
  0
SPLINE
  5
223
100
AcDbEntity
  8
Layer_1
 62
7
100
AcDbSpline
 70
8
 71
3
 72
8
 73
4
 74
0
 40
0
 40
0
 40
0
 40
0
 40
1
 40
1
 40
1
 40
1
 10
185.565568
 20
849.958434
 30
0.0
 10
185.565568
 20
851.947926
 30
0.0
 10
184.504187
 20
853.786292
 30
0.0
 10
182.781236
 20
854.781038
 30
0.0
  0
SPLINE
  5
224
100
AcDbEntity
  8
Layer_1
 62
7
100
AcDbSpline
 70
8
 71
3
 72
8
 73
4
 74
0
 40
0
 40
0
 40
0
 40
0
 40
1
 40
1
 40
1
 40
1
 10
182.781236
 20
854.781038
 30
0.0
 10
181.058286
 20
855.775784
 30
0.0
 10
178.935523
 20
855.775784
 30
0.0
 10
177.212572
 20
854.781038
 30
0.0
  0
SPLINE
  5
225
100
AcDbEntity
  8
Layer_1
 62
7
100
AcDbSpline
 70
8
 71
3
 72
8
 73
4
 74
0
 40
0
 40
0
 40
0
 40
0
 40
1
 40
1
 40
1
 40
1
 10
177.212572
 20
854.781038
 30
0.0
 10
175.489622
 20
853.786292
 30
0.0
 10
174.428241
 20
851.947926
 30
0.0
 10
174.428241
 20
849.958434
 30
0.0
  0
SPLINE
  5
226
100
AcDbEntity
  8
Layer_1
 62
7
100
AcDbSpline
 70
8
 71
3
 72
8
 73
4
 74
0
 40
0
 40
0
 40
0
 40
0
 40
1
 40
1
 40
1
 40
1
 10
174.428241
 20
849.958434
 30
0.0
 10
174.428241
 20
847.968942
 30
0.0
 10
175.489622
 20
846.130576
 30
0.0
 10
177.212572
 20
845.135830
 30
0.0
  0
SPLINE
  5
227
100
AcDbEntity
  8
Layer_1
 62
7
100
AcDbSpline
 70
8
 71
3
 72
8
 73
4
 74
0
 40
0
 40
0
 40
0
 40
0
 40
1
 40
1
 40
1
 40
1
 10
177.212572
 20
845.135830
 30
0.0
 10
178.935523
 20
844.141084
 30
0.0
 10
181.058286
 20
844.141084
 30
0.0
 10
182.781236
 20
845.135830
 30
0.0
  0
SPLINE
  5
228
100
AcDbEntity
  8
Layer_1
 62
7
100
AcDbSpline
 70
8
 71
3
 72
8
 73
4
 74
0
 40
0
 40
0
 40
0
 40
0
 40
1
 40
1
 40
1
 40
1
 10
182.781236
 20
845.135830
 30
0.0
 10
184.504187
 20
846.130576
 30
0.0
 10
185.565568
 20
847.968942
 30
0.0
 10
185.565568
 20
849.958434
 30
0.0
  0
LWPOLYLINE
  5
229
100
AcDbEntity
  8
Layer_1
 62
7
100
AcDbPolyline
 90
1
 70
1
 10
477.636557
 20
450.311557
 30
0.0
  0
SPLINE
  5
22a
100
AcDbEntity
  8
Layer_1
 62
7
100
AcDbSpline
 70
8
 71
3
 72
8
 73
4
 74
0
 40
0
 40
0
 40
0
 40
0
 40
1
 40
1
 40
1
 40
1
 10
348.110718
 20
686.589671
 30
0.0
 10
348.111824
 20
688.109489
 30
0.0
 10
347.301645
 20
689.514333
 30
0.0
 10
345.985628
 20
690.274561
 30
0.0
  0
SPLINE
  5
22b
100
AcDbEntity
  8
Layer_1
 62
7
100
AcDbSpline
 70
8
 71
3
 72
8
 73
4
 74
0
 40
0
 40
0
 40
0
 40
0
 40
1
 40
1
 40
1
 40
1
 10
345.985628
 20
690.274561
 30
0.0
 10
344.669611
 20
691.034790
 30
0.0
 10
343.047891
 20
691.034790
 30
0.0
 10
341.731874
 20
690.274561
 30
0.0
  0
SPLINE
  5
22c
100
AcDbEntity
  8
Layer_1
 62
7
100
AcDbSpline
 70
8
 71
3
 72
8
 73
4
 74
0
 40
0
 40
0
 40
0
 40
0
 40
1
 40
1
 40
1
 40
1
 10
341.731874
 20
690.274561
 30
0.0
 10
340.415856
 20
689.514333
 30
0.0
 10
339.605678
 20
688.109489
 30
0.0
 10
339.606783
 20
686.589671
 30
0.0
  0
SPLINE
  5
22d
100
AcDbEntity
  8
Layer_1
 62
7
100
AcDbSpline
 70
8
 71
3
 72
8
 73
4
 74
0
 40
0
 40
0
 40
0
 40
0
 40
1
 40
1
 40
1
 40
1
 10
339.606783
 20
686.589671
 30
0.0
 10
339.605678
 20
685.069853
 30
0.0
 10
340.415856
 20
683.665009
 30
0.0
 10
341.731874
 20
682.904781
 30
0.0
  0
SPLINE
  5
22e
100
AcDbEntity
  8
Layer_1
 62
7
100
AcDbSpline
 70
8
 71
3
 72
8
 73
4
 74
0
 40
0
 40
0
 40
0
 40
0
 40
1
 40
1
 40
1
 40
1
 10
341.731874
 20
682.904781
 30
0.0
 10
343.047891
 20
682.144552
 30
0.0
 10
344.669611
 20
682.144552
 30
0.0
 10
345.985628
 20
682.904781
 30
0.0
  0
SPLINE
  5
22f
100
AcDbEntity
  8
Layer_1
 62
7
100
AcDbSpline
 70
8
 71
3
 72
8
 73
4
 74
0
 40
0
 40
0
 40
0
 40
0
 40
1
 40
1
 40
1
 40
1
 10
345.985628
 20
682.904781
 30
0.0
 10
347.301645
 20
683.665009
 30
0.0
 10
348.111824
 20
685.069853
 30
0.0
 10
348.110718
 20
686.589671
 30
0.0
  0
LWPOLYLINE
  5
230
100
AcDbEntity
  8
Layer_1
 62
7
100
AcDbPolyline
 90
1
 70
1
 10
185.565568
 20
849.958434
 30
0.0
  0
SPLINE
  5
231
100
AcDbEntity
  8
Layer_1
 62
7
100
AcDbSpline
 70
8
 71
3
 72
8
 73
4
 74
0
 40
0
 40
0
 40
0
 40
0
 40
1
 40
1
 40
1
 40
1
 10
495.754607
 20
834.233567
 30
0.0
 10
495.754607
 20
835.752651
 30
0.0
 10
494.944185
 20
837.156343
 30
0.0
 10
493.628619
 20
837.915885
 30
0.0
  0
SPLINE
  5
232
100
AcDbEntity
  8
Layer_1
 62
7
100
AcDbSpline
 70
8
 71
3
 72
8
 73
4
 74
0
 40
0
 40
0
 40
0
 40
0
 40
1
 40
1
 40
1
 40
1
 10
493.628619
 20
837.915885
 30
0.0
 10
492.313053
 20
838.675427
 30
0.0
 10
490.692210
 20
838.675427
 30
0.0
 10
489.376644
 20
837.915885
 30
0.0
  0
SPLINE
  5
233
100
AcDbEntity
  8
Layer_1
 62
7
100
AcDbSpline
 70
8
 71
3
 72
8
 73
4
 74
0
 40
0
 40
0
 40
0
 40
0
 40
1
 40
1
 40
1
 40
1
 10
489.376644
 20
837.915885
 30
0.0
 10
488.061078
 20
837.156343
 30
0.0
 10
487.250657
 20
835.752651
 30
0.0
 10
487.250657
 20
834.233567
 30
0.0
  0
SPLINE
  5
234
100
AcDbEntity
  8
Layer_1
 62
7
100
AcDbSpline
 70
8
 71
3
 72
8
 73
4
 74
0
 40
0
 40
0
 40
0
 40
0
 40
1
 40
1
 40
1
 40
1
 10
487.250657
 20
834.233567
 30
0.0
 10
487.250657
 20
832.714482
 30
0.0
 10
488.061078
 20
831.310791
 30
0.0
 10
489.376644
 20
830.551248
 30
0.0
  0
SPLINE
  5
235
100
AcDbEntity
  8
Layer_1
 62
7
100
AcDbSpline
 70
8
 71
3
 72
8
 73
4
 74
0
 40
0
 40
0
 40
0
 40
0
 40
1
 40
1
 40
1
 40
1
 10
489.376644
 20
830.551248
 30
0.0
 10
490.692210
 20
829.791706
 30
0.0
 10
492.313053
 20
829.791706
 30
0.0
 10
493.628619
 20
830.551248
 30
0.0
  0
SPLINE
  5
236
100
AcDbEntity
  8
Layer_1
 62
7
100
AcDbSpline
 70
8
 71
3
 72
8
 73
4
 74
0
 40
0
 40
0
 40
0
 40
0
 40
1
 40
1
 40
1
 40
1
 10
493.628619
 20
830.551248
 30
0.0
 10
494.944185
 20
831.310791
 30
0.0
 10
495.754607
 20
832.714482
 30
0.0
 10
495.754607
 20
834.233567
 30
0.0
  0
LWPOLYLINE
  5
237
100
AcDbEntity
  8
Layer_1
 62
7
100
AcDbPolyline
 90
1
 70
1
 10
348.110718
 20
686.589671
 30
0.0
  0
SPLINE
  5
238
100
AcDbEntity
  8
Layer_1
 62
7
100
AcDbSpline
 70
8
 71
3
 72
8
 73
4
 74
0
 40
0
 40
0
 40
0
 40
0
 40
1
 40
1
 40
1
 40
1
 10
667.591604
 20
662.396599
 30
0.0
 10
667.591604
 20
663.915683
 30
0.0
 10
666.781183
 20
665.319375
 30
0.0
 10
665.465617
 20
666.078917
 30
0.0
  0
SPLINE
  5
239
100
AcDbEntity
  8
Layer_1
 62
7
100
AcDbSpline
 70
8
 71
3
 72
8
 73
4
 74
0
 40
0
 40
0
 40
0
 40
0
 40
1
 40
1
 40
1
 40
1
 10
665.465617
 20
666.078917
 30
0.0
 10
664.150051
 20
666.838459
 30
0.0
 10
662.529208
 20
666.838459
 30
0.0
 10
661.213642
 20
666.078917
 30
0.0
  0
SPLINE
  5
23a
100
AcDbEntity
  8
Layer_1
 62
7
100
AcDbSpline
 70
8
 71
3
 72
8
 73
4
 74
0
 40
0
 40
0
 40
0
 40
0
 40
1
 40
1
 40
1
 40
1
 10
661.213642
 20
666.078917
 30
0.0
 10
659.898076
 20
665.319375
 30
0.0
 10
659.087654
 20
663.915683
 30
0.0
 10
659.087654
 20
662.396599
 30
0.0
  0
SPLINE
  5
23b
100
AcDbEntity
  8
Layer_1
 62
7
100
AcDbSpline
 70
8
 71
3
 72
8
 73
4
 74
0
 40
0
 40
0
 40
0
 40
0
 40
1
 40
1
 40
1
 40
1
 10
659.087654
 20
662.396599
 30
0.0
 10
659.087654
 20
660.877515
 30
0.0
 10
659.898076
 20
659.473823
 30
0.0
 10
661.213642
 20
658.714281
 30
0.0
  0
SPLINE
  5
23c
100
AcDbEntity
  8
Layer_1
 62
7
100
AcDbSpline
 70
8
 71
3
 72
8
 73
4
 74
0
 40
0
 40
0
 40
0
 40
0
 40
1
 40
1
 40
1
 40
1
 10
661.213642
 20
658.714281
 30
0.0
 10
662.529208
 20
657.954738
 30
0.0
 10
664.150051
 20
657.954738
 30
0.0
 10
665.465617
 20
658.714281
 30
0.0
  0
SPLINE
  5
23d
100
AcDbEntity
  8
Layer_1
 62
7
100
AcDbSpline
 70
8
 71
3
 72
8
 73
4
 74
0
 40
0
 40
0
 40
0
 40
0
 40
1
 40
1
 40
1
 40
1
 10
665.465617
 20
658.714281
 30
0.0
 10
666.781183
 20
659.473823
 30
0.0
 10
667.591604
 20
660.877515
 30
0.0
 10
667.591604
 20
662.396599
 30
0.0
  0
LWPOLYLINE
  5
23e
100
AcDbEntity
  8
Layer_1
 62
7
100
AcDbPolyline
 90
1
 70
1
 10
495.754607
 20
834.233567
 30
0.0
  0
SPLINE
  5
23f
100
AcDbEntity
  8
Layer_1
 62
7
100
AcDbSpline
 70
8
 71
3
 72
8
 73
4
 74
0
 40
0
 40
0
 40
0
 40
0
 40
1
 40
1
 40
1
 40
1
 10
519.947656
 20
514.752704
 30
0.0
 10
519.953448
 20
516.275627
 30
0.0
 10
519.144303
 20
517.685351
 30
0.0
 10
517.826369
 20
518.448489
 30
0.0
  0
SPLINE
  5
240
100
AcDbEntity
  8
Layer_1
 62
7
100
AcDbSpline
 70
8
 71
3
 72
8
 73
4
 74
0
 40
0
 40
0
 40
0
 40
0
 40
1
 40
1
 40
1
 40
1
 10
517.826369
 20
518.448489
 30
0.0
 10
516.508436
 20
519.211628
 30
0.0
 10
514.883001
 20
519.211628
 30
0.0
 10
513.565068
 20
518.448489
 30
0.0
  0
SPLINE
  5
241
100
AcDbEntity
  8
Layer_1
 62
7
100
AcDbSpline
 70
8
 71
3
 72
8
 73
4
 74
0
 40
0
 40
0
 40
0
 40
0
 40
1
 40
1
 40
1
 40
1
 10
513.565068
 20
518.448489
 30
0.0
 10
512.247135
 20
517.685351
 30
0.0
 10
511.437989
 20
516.275627
 30
0.0
 10
511.443781
 20
514.752704
 30
0.0
  0
SPLINE
  5
242
100
AcDbEntity
  8
Layer_1
 62
7
100
AcDbSpline
 70
8
 71
3
 72
8
 73
4
 74
0
 40
0
 40
0
 40
0
 40
0
 40
1
 40
1
 40
1
 40
1
 10
511.443781
 20
514.752704
 30
0.0
 10
511.437989
 20
513.229781
 30
0.0
 10
512.247135
 20
511.820057
 30
0.0
 10
513.565068
 20
511.056919
 30
0.0
  0
SPLINE
  5
243
100
AcDbEntity
  8
Layer_1
 62
7
100
AcDbSpline
 70
8
 71
3
 72
8
 73
4
 74
0
 40
0
 40
0
 40
0
 40
0
 40
1
 40
1
 40
1
 40
1
 10
513.565068
 20
511.056919
 30
0.0
 10
514.883001
 20
510.293780
 30
0.0
 10
516.508436
 20
510.293780
 30
0.0
 10
517.826369
 20
511.056919
 30
0.0
  0
SPLINE
  5
244
100
AcDbEntity
  8
Layer_1
 62
7
100
AcDbSpline
 70
8
 71
3
 72
8
 73
4
 74
0
 40
0
 40
0
 40
0
 40
0
 40
1
 40
1
 40
1
 40
1
 10
517.826369
 20
511.056919
 30
0.0
 10
519.144303
 20
511.820057
 30
0.0
 10
519.953448
 20
513.229781
 30
0.0
 10
519.947656
 20
514.752704
 30
0.0
  0
LWPOLYLINE
  5
245
100
AcDbEntity
  8
Layer_1
 62
7
100
AcDbPolyline
 90
1
 70
1
 10
667.591604
 20
662.396599
 30
0.0
  0
LWPOLYLINE
  5
246
100
AcDbEntity
  8
Layer_1
 62
7
100
AcDbPolyline
 90
1
 70
1
 10
519.947656
 20
514.752704
 30
0.0
  0
ENDSEC
  0
SECTION
  2
OBJECTS
  0
DICTIONARY
  5
C
330
0
100
AcDbDictionary
  3
ACAD_GROUP
350
D
  3
ACAD_MLINESTYLE
350
17
  0
DICTIONARY
  5
D
330
C
100
AcDbDictionary
  0
DICTIONARY
  5
1A
330
C
100
AcDbDictionary
  0
DICTIONARY
  5
17
330
C
100
AcDbDictionary
  3
STANDARD
350
18
  0
DICTIONARY
  5
19
330
C
100
AcDbDictionary
  0
ENDSEC
  0
EOF
