  0
SECTION
  2
HEADER
  9
$ACADVER
  1
AC1014
  9
$HANDSEED
  5
FFFF
  9
$MEASUREMENT
 70
     1
  0
ENDSEC
  0
SECTION
  2
TABLES
  0
TABLE
  2
VPORT
  5
8
330
0
100
AcDbSymbolTable
 70
     4
  0
VPORT
  5
2E
330
8
100
AcDbSymbolTableRecord
100
AcDbViewportTableRecord
  2
*ACTIVE
 70
     0
 10
0.0
 20
0.0
 11
1.0
 21
1.0
 12
210.0
 22
148.5
 13
0.0
 23
0.0
 14
10.0
 24
10.0
 15
10.0
 25
10.0
 16
0.0
 26
0.0
 36
1.0
 17
0.0
 27
0.0
 37
0.0
 40
341.0
 41
1.24
 42
50.0
 43
0.0
 44
0.0
 50
0.0
 51
0.0
 71
     0
 72
   100
 73
     1
 74
     3
 75
     0
 76
     0
 77
     0
 78
     0
  0
ENDTAB
  0
TABLE
  2
LTYPE
  5
5
330
0
100
AcDbSymbolTable
 70
     1
  0
LTYPE
  5
14
330
5
100
AcDbSymbolTableRecord
100
AcDbLinetypeTableRecord
  2
BYBLOCK
 70
     0
  3

 72
    65
 73
     0
 40
0.0
  0
LTYPE
  5
15
330
5
100
AcDbSymbolTableRecord
100
AcDbLinetypeTableRecord
  2
BYLAYER
 70
     0
  3

 72
    65
 73
     0
 40
0.0
  0
LTYPE
  5
16
330
5
100
AcDbSymbolTableRecord
100
AcDbLinetypeTableRecord
  2
CONTINUOUS
 70
     0
  3
Solid line
 72
    65
 73
     0
 40
0.0
  0
ENDTAB
  0
TABLE
  2
LAYER
  5
2
100
AcDbSymbolTable
 70
1
  0
LAYER
  5
50
100
AcDbSymbolTableRecord
100
AcDbLayerTableRecord
  2
0
 70
0
  6
CONTINUOUS
  0
ENDTAB
  0
TABLE
  2
STYLE
  5
3
330
0
100
AcDbSymbolTable
 70
     1
  0
STYLE
  5
11
330
3
100
AcDbSymbolTableRecord
100
AcDbTextStyleTableRecord
  2
STANDARD
 70
     0
 40
0.0
 41
1.0
 50
0.0
 71
     0
 42
2.5
  3
txt
  4

  0
ENDTAB
  0
TABLE
  2
VIEW
  5
6
330
0
100
AcDbSymbolTable
 70
     0
  0
ENDTAB
  0
TABLE
  2
UCS
  5
7
330
0
100
AcDbSymbolTable
 70
     0
  0
ENDTAB
  0
TABLE
  2
APPID
  5
9
330
0
100
AcDbSymbolTable
 70
     2
  0
APPID
  5
12
330
9
100
AcDbSymbolTableRecord
100
AcDbRegAppTableRecord
  2
ACAD
 70
     0
  0
ENDTAB
  0
TABLE
  2
DIMSTYLE
  5
A
330
0
100
AcDbSymbolTable
 70
     1
  0
DIMSTYLE
105
27
330
A
100
AcDbSymbolTableRecord
100
AcDbDimStyleTableRecord
  2
ISO-25
 70
     0
  3

  4

  5

  6

  7

 40
1.0
 41
2.5
 42
0.625
 43
3.75
 44
1.25
 45
0.0
 46
0.0
 47
0.0
 48
0.0
140
2.5
141
2.5
142
0.0
143
0.03937007874016
144
1.0
145
0.0
146
1.0
147
0.625
 71
     0
 72
     0
 73
     0
 74
     0
 75
     0
 76
     0
 77
     1
 78
     8
170
     0
171
     3
172
     1
173
     0
174
     0
175
     0
176
     0
177
     0
178
     0
270
     2
271
     2
272
     2
273
     2
274
     3
340
11
275
     0
280
     0
281
     0
282
     0
283
     0
284
     8
285
     0
286
     0
287
     3
288
     0
  0
ENDTAB
  0
TABLE
  2
BLOCK_RECORD
  5
1
330
0
100
AcDbSymbolTable
 70
     1
  0
BLOCK_RECORD
  5
1F
330
1
100
AcDbSymbolTableRecord
100
AcDbBlockTableRecord
  2
*MODEL_SPACE
  0
BLOCK_RECORD
  5
1B
330
1
100
AcDbSymbolTableRecord
100
AcDbBlockTableRecord
  2
*PAPER_SPACE
  0
ENDTAB
  0
ENDSEC
  0
SECTION
  2
BLOCKS
  0
BLOCK
  5
20
330
1F
100
AcDbEntity
  8
0
100
AcDbBlockBegin
  2
*MODEL_SPACE
 70
     0
 10
0.0
 20
0.0
 30
0.0
  3
*MODEL_SPACE
  1

  0
ENDBLK
  5
21
330
1F
100
AcDbEntity
  8
0
100
AcDbBlockEnd
  0
BLOCK
  5
1C
330
1B
100
AcDbEntity
 67
     1
  8
0
100
AcDbBlockBegin
  2
*PAPER_SPACE
  1

  0
ENDBLK
  5
1D
330
1B
100
AcDbEntity
 67
     1
  8
0
100
AcDbBlockEnd
  0
ENDSEC
  0
SECTION
  2
ENTITIES
  0
SPLINE
  5
100
100
AcDbEntity
  8
0
 62
7
100
AcDbSpline
 70
8
 71
3
 72
8
 73
4
 74
0
 40
0
 40
0
 40
0
 40
0
 40
1
 40
1
 40
1
 40
1
 10
371.112626
 20
1211.884724
 30
0.0
 10
360.765675
 20
1211.884724
 30
0.0
 10
350.842507
 20
1207.774414
 30
0.0
 10
343.526107
 20
1200.458015
 30
0.0
  0
SPLINE
  5
101
100
AcDbEntity
  8
0
 62
7
100
AcDbSpline
 70
8
 71
3
 72
8
 73
4
 74
0
 40
0
 40
0
 40
0
 40
0
 40
1
 40
1
 40
1
 40
1
 10
868.358617
 20
1200.458015
 30
0.0
 10
861.042217
 20
1207.774414
 30
0.0
 10
851.119050
 20
1211.884724
 30
0.0
 10
840.772098
 20
1211.884724
 30
0.0
  0
SPLINE
  5
102
100
AcDbEntity
  8
0
 62
7
100
AcDbSpline
 70
8
 71
3
 72
8
 73
4
 74
0
 40
0
 40
0
 40
0
 40
0
 40
1
 40
1
 40
1
 40
1
 10
1211.884724
 20
840.772099
 30
0.0
 10
1211.884724
 20
851.119050
 30
0.0
 10
1207.774414
 20
861.042217
 30
0.0
 10
1200.458014
 20
868.358617
 30
0.0
  0
SPLINE
  5
103
100
AcDbEntity
  8
0
 62
7
100
AcDbSpline
 70
8
 71
3
 72
8
 73
4
 74
0
 40
0
 40
0
 40
0
 40
0
 40
1
 40
1
 40
1
 40
1
 10
1200.458014
 20
343.526108
 30
0.0
 10
1207.774414
 20
350.842507
 30
0.0
 10
1211.884724
 20
360.765674
 30
0.0
 10
1211.884724
 20
371.112626
 30
0.0
  0
SPLINE
  5
104
100
AcDbEntity
  8
0
 62
7
100
AcDbSpline
 70
8
 71
3
 72
8
 73
4
 74
0
 40
0
 40
0
 40
0
 40
0
 40
1
 40
1
 40
1
 40
1
 10
840.772098
 20
0.000000
 30
0.0
 10
851.119050
 20
-0.000000
 30
0.0
 10
861.042217
 20
4.110310
 30
0.0
 10
868.358617
 20
11.426710
 30
0.0
  0
SPLINE
  5
105
100
AcDbEntity
  8
0
 62
7
100
AcDbSpline
 70
8
 71
3
 72
8
 73
4
 74
0
 40
0
 40
0
 40
0
 40
0
 40
1
 40
1
 40
1
 40
1
 10
343.526107
 20
11.426710
 30
0.0
 10
350.842507
 20
4.110310
 30
0.0
 10
360.765675
 20
-0.000000
 30
0.0
 10
371.112626
 20
0.000000
 30
0.0
  0
SPLINE
  5
106
100
AcDbEntity
  8
0
 62
7
100
AcDbSpline
 70
8
 71
3
 72
8
 73
4
 74
0
 40
0
 40
0
 40
0
 40
0
 40
1
 40
1
 40
1
 40
1
 10
-0.000000
 20
371.112626
 30
0.0
 10
-0.000000
 20
360.765675
 30
0.0
 10
4.110310
 20
350.842507
 30
0.0
 10
11.426710
 20
343.526108
 30
0.0
  0
SPLINE
  5
107
100
AcDbEntity
  8
0
 62
7
100
AcDbSpline
 70
8
 71
3
 72
8
 73
4
 74
0
 40
0
 40
0
 40
0
 40
0
 40
1
 40
1
 40
1
 40
1
 10
11.426710
 20
868.358617
 30
0.0
 10
4.110310
 20
861.042217
 30
0.0
 10
-0.000000
 20
851.119050
 30
0.0
 10
-0.000000
 20
840.772098
 30
0.0
  0
SPLINE
  5
108
100
AcDbEntity
  8
0
 62
7
100
AcDbSpline
 70
8
 71
3
 72
8
 73
4
 74
0
 40
0
 40
0
 40
0
 40
0
 40
1
 40
1
 40
1
 40
1
 10
855.286979
 20
1197.648358
 30
0.0
 10
855.286979
 20
1199.167440
 30
0.0
 10
854.476558
 20
1200.571129
 30
0.0
 10
853.160995
 20
1201.330670
 30
0.0
  0
SPLINE
  5
109
100
AcDbEntity
  8
0
 62
7
100
AcDbSpline
 70
8
 71
3
 72
8
 73
4
 74
0
 40
0
 40
0
 40
0
 40
0
 40
1
 40
1
 40
1
 40
1
 10
853.160995
 20
1201.330670
 30
0.0
 10
851.845431
 20
1202.090211
 30
0.0
 10
850.224590
 20
1202.090211
 30
0.0
 10
848.909026
 20
1201.330670
 30
0.0
  0
SPLINE
  5
10a
100
AcDbEntity
  8
0
 62
7
100
AcDbSpline
 70
8
 71
3
 72
8
 73
4
 74
0
 40
0
 40
0
 40
0
 40
0
 40
1
 40
1
 40
1
 40
1
 10
848.909026
 20
1201.330670
 30
0.0
 10
847.593463
 20
1200.571129
 30
0.0
 10
846.783042
 20
1199.167440
 30
0.0
 10
846.783043
 20
1197.648358
 30
0.0
  0
SPLINE
  5
10b
100
AcDbEntity
  8
0
 62
7
100
AcDbSpline
 70
8
 71
3
 72
8
 73
4
 74
0
 40
0
 40
0
 40
0
 40
0
 40
1
 40
1
 40
1
 40
1
 10
846.783043
 20
1197.648358
 30
0.0
 10
846.783043
 20
1196.129276
 30
0.0
 10
847.593463
 20
1194.725586
 30
0.0
 10
848.909027
 20
1193.966045
 30
0.0
  0
SPLINE
  5
10c
100
AcDbEntity
  8
0
 62
7
100
AcDbSpline
 70
8
 71
3
 72
8
 73
4
 74
0
 40
0
 40
0
 40
0
 40
0
 40
1
 40
1
 40
1
 40
1
 10
848.909027
 20
1193.966045
 30
0.0
 10
850.224590
 20
1193.206504
 30
0.0
 10
851.845431
 20
1193.206504
 30
0.0
 10
853.160995
 20
1193.966045
 30
0.0
  0
SPLINE
  5
10d
100
AcDbEntity
  8
0
 62
7
100
AcDbSpline
 70
8
 71
3
 72
8
 73
4
 74
0
 40
0
 40
0
 40
0
 40
0
 40
1
 40
1
 40
1
 40
1
 10
853.160995
 20
1193.966045
 30
0.0
 10
854.476558
 20
1194.725586
 30
0.0
 10
855.286979
 20
1196.129276
 30
0.0
 10
855.286979
 20
1197.648358
 30
0.0
  0
SPLINE
  5
10e
100
AcDbEntity
  8
0
 62
7
100
AcDbSpline
 70
8
 71
3
 72
8
 73
4
 74
0
 40
0
 40
0
 40
0
 40
0
 40
1
 40
1
 40
1
 40
1
 10
365.101682
 20
1197.648358
 30
0.0
 10
365.101682
 20
1199.167440
 30
0.0
 10
364.291262
 20
1200.571129
 30
0.0
 10
362.975698
 20
1201.330670
 30
0.0
  0
SPLINE
  5
10f
100
AcDbEntity
  8
0
 62
7
100
AcDbSpline
 70
8
 71
3
 72
8
 73
4
 74
0
 40
0
 40
0
 40
0
 40
0
 40
1
 40
1
 40
1
 40
1
 10
362.975698
 20
1201.330670
 30
0.0
 10
361.660135
 20
1202.090211
 30
0.0
 10
360.039293
 20
1202.090211
 30
0.0
 10
358.723730
 20
1201.330670
 30
0.0
  0
SPLINE
  5
110
100
AcDbEntity
  8
0
 62
7
100
AcDbSpline
 70
8
 71
3
 72
8
 73
4
 74
0
 40
0
 40
0
 40
0
 40
0
 40
1
 40
1
 40
1
 40
1
 10
358.723730
 20
1201.330670
 30
0.0
 10
357.408166
 20
1200.571129
 30
0.0
 10
356.597746
 20
1199.167440
 30
0.0
 10
356.597746
 20
1197.648358
 30
0.0
  0
SPLINE
  5
111
100
AcDbEntity
  8
0
 62
7
100
AcDbSpline
 70
8
 71
3
 72
8
 73
4
 74
0
 40
0
 40
0
 40
0
 40
0
 40
1
 40
1
 40
1
 40
1
 10
356.597746
 20
1197.648358
 30
0.0
 10
356.597746
 20
1196.129276
 30
0.0
 10
357.408166
 20
1194.725586
 30
0.0
 10
358.723730
 20
1193.966045
 30
0.0
  0
SPLINE
  5
112
100
AcDbEntity
  8
0
 62
7
100
AcDbSpline
 70
8
 71
3
 72
8
 73
4
 74
0
 40
0
 40
0
 40
0
 40
0
 40
1
 40
1
 40
1
 40
1
 10
358.723730
 20
1193.966045
 30
0.0
 10
360.039293
 20
1193.206504
 30
0.0
 10
361.660135
 20
1193.206504
 30
0.0
 10
362.975698
 20
1193.966045
 30
0.0
  0
SPLINE
  5
113
100
AcDbEntity
  8
0
 62
7
100
AcDbSpline
 70
8
 71
3
 72
8
 73
4
 74
0
 40
0
 40
0
 40
0
 40
0
 40
1
 40
1
 40
1
 40
1
 10
362.975698
 20
1193.966045
 30
0.0
 10
364.291262
 20
1194.725586
 30
0.0
 10
365.101682
 20
1196.129276
 30
0.0
 10
365.101682
 20
1197.648358
 30
0.0
  0
LWPOLYLINE
  5
114
100
AcDbEntity
  8
0
 62
7
100
AcDbPolyline
 90
1
 70
1
 10
855.286979
 20
1197.648358
 30
0.0
  0
SPLINE
  5
115
100
AcDbEntity
  8
0
 62
7
100
AcDbSpline
 70
8
 71
3
 72
8
 73
4
 74
0
 40
0
 40
0
 40
0
 40
0
 40
1
 40
1
 40
1
 40
1
 10
18.488335
 20
851.035010
 30
0.0
 10
18.488335
 20
852.554092
 30
0.0
 10
17.677915
 20
853.957782
 30
0.0
 10
16.362351
 20
854.717323
 30
0.0
  0
SPLINE
  5
116
100
AcDbEntity
  8
0
 62
7
100
AcDbSpline
 70
8
 71
3
 72
8
 73
4
 74
0
 40
0
 40
0
 40
0
 40
0
 40
1
 40
1
 40
1
 40
1
 10
16.362351
 20
854.717323
 30
0.0
 10
15.046787
 20
855.476864
 30
0.0
 10
13.425946
 20
855.476864
 30
0.0
 10
12.110383
 20
854.717323
 30
0.0
  0
SPLINE
  5
117
100
AcDbEntity
  8
0
 62
7
100
AcDbSpline
 70
8
 71
3
 72
8
 73
4
 74
0
 40
0
 40
0
 40
0
 40
0
 40
1
 40
1
 40
1
 40
1
 10
12.110383
 20
854.717323
 30
0.0
 10
10.794819
 20
853.957782
 30
0.0
 10
9.984399
 20
852.554092
 30
0.0
 10
9.984399
 20
851.035010
 30
0.0
  0
SPLINE
  5
118
100
AcDbEntity
  8
0
 62
7
100
AcDbSpline
 70
8
 71
3
 72
8
 73
4
 74
0
 40
0
 40
0
 40
0
 40
0
 40
1
 40
1
 40
1
 40
1
 10
9.984399
 20
851.035010
 30
0.0
 10
9.984399
 20
849.515928
 30
0.0
 10
10.794819
 20
848.112239
 30
0.0
 10
12.110383
 20
847.352698
 30
0.0
  0
SPLINE
  5
119
100
AcDbEntity
  8
0
 62
7
100
AcDbSpline
 70
8
 71
3
 72
8
 73
4
 74
0
 40
0
 40
0
 40
0
 40
0
 40
1
 40
1
 40
1
 40
1
 10
12.110383
 20
847.352698
 30
0.0
 10
13.425946
 20
846.593157
 30
0.0
 10
15.046788
 20
846.593157
 30
0.0
 10
16.362351
 20
847.352698
 30
0.0
  0
SPLINE
  5
11a
100
AcDbEntity
  8
0
 62
7
100
AcDbSpline
 70
8
 71
3
 72
8
 73
4
 74
0
 40
0
 40
0
 40
0
 40
0
 40
1
 40
1
 40
1
 40
1
 10
16.362351
 20
847.352698
 30
0.0
 10
17.677915
 20
848.112239
 30
0.0
 10
18.488335
 20
849.515928
 30
0.0
 10
18.488335
 20
851.035010
 30
0.0
  0
LWPOLYLINE
  5
11b
100
AcDbEntity
  8
0
 62
7
100
AcDbPolyline
 90
1
 70
1
 10
365.101682
 20
1197.648358
 30
0.0
  0
SPLINE
  5
11c
100
AcDbEntity
  8
0
 62
7
100
AcDbSpline
 70
8
 71
3
 72
8
 73
4
 74
0
 40
0
 40
0
 40
0
 40
0
 40
1
 40
1
 40
1
 40
1
 10
18.488335
 20
360.849714
 30
0.0
 10
18.488335
 20
362.368796
 30
0.0
 10
17.677915
 20
363.772486
 30
0.0
 10
16.362351
 20
364.532027
 30
0.0
  0
SPLINE
  5
11d
100
AcDbEntity
  8
0
 62
7
100
AcDbSpline
 70
8
 71
3
 72
8
 73
4
 74
0
 40
0
 40
0
 40
0
 40
0
 40
1
 40
1
 40
1
 40
1
 10
16.362351
 20
364.532027
 30
0.0
 10
15.046787
 20
365.291568
 30
0.0
 10
13.425946
 20
365.291568
 30
0.0
 10
12.110383
 20
364.532027
 30
0.0
  0
SPLINE
  5
11e
100
AcDbEntity
  8
0
 62
7
100
AcDbSpline
 70
8
 71
3
 72
8
 73
4
 74
0
 40
0
 40
0
 40
0
 40
0
 40
1
 40
1
 40
1
 40
1
 10
12.110383
 20
364.532027
 30
0.0
 10
10.794819
 20
363.772486
 30
0.0
 10
9.984399
 20
362.368796
 30
0.0
 10
9.984399
 20
360.849714
 30
0.0
  0
SPLINE
  5
11f
100
AcDbEntity
  8
0
 62
7
100
AcDbSpline
 70
8
 71
3
 72
8
 73
4
 74
0
 40
0
 40
0
 40
0
 40
0
 40
1
 40
1
 40
1
 40
1
 10
9.984399
 20
360.849714
 30
0.0
 10
9.984399
 20
359.330632
 30
0.0
 10
10.794819
 20
357.926942
 30
0.0
 10
12.110383
 20
357.167402
 30
0.0
  0
SPLINE
  5
120
100
AcDbEntity
  8
0
 62
7
100
AcDbSpline
 70
8
 71
3
 72
8
 73
4
 74
0
 40
0
 40
0
 40
0
 40
0
 40
1
 40
1
 40
1
 40
1
 10
12.110383
 20
357.167402
 30
0.0
 10
13.425946
 20
356.407861
 30
0.0
 10
15.046788
 20
356.407861
 30
0.0
 10
16.362351
 20
357.167402
 30
0.0
  0
SPLINE
  5
121
100
AcDbEntity
  8
0
 62
7
100
AcDbSpline
 70
8
 71
3
 72
8
 73
4
 74
0
 40
0
 40
0
 40
0
 40
0
 40
1
 40
1
 40
1
 40
1
 10
16.362351
 20
357.167402
 30
0.0
 10
17.677915
 20
357.926942
 30
0.0
 10
18.488335
 20
359.330632
 30
0.0
 10
18.488335
 20
360.849714
 30
0.0
  0
LWPOLYLINE
  5
122
100
AcDbEntity
  8
0
 62
7
100
AcDbPolyline
 90
1
 70
1
 10
18.488335
 20
851.035010
 30
0.0
  0
SPLINE
  5
123
100
AcDbEntity
  8
0
 62
7
100
AcDbSpline
 70
8
 71
3
 72
8
 73
4
 74
0
 40
0
 40
0
 40
0
 40
0
 40
1
 40
1
 40
1
 40
1
 10
365.101682
 20
14.236367
 30
0.0
 10
365.101682
 20
15.755448
 30
0.0
 10
364.291262
 20
17.159138
 30
0.0
 10
362.975698
 20
17.918679
 30
0.0
  0
SPLINE
  5
124
100
AcDbEntity
  8
0
 62
7
100
AcDbSpline
 70
8
 71
3
 72
8
 73
4
 74
0
 40
0
 40
0
 40
0
 40
0
 40
1
 40
1
 40
1
 40
1
 10
362.975698
 20
17.918679
 30
0.0
 10
361.660135
 20
18.678220
 30
0.0
 10
360.039293
 20
18.678220
 30
0.0
 10
358.723730
 20
17.918679
 30
0.0
  0
SPLINE
  5
125
100
AcDbEntity
  8
0
 62
7
100
AcDbSpline
 70
8
 71
3
 72
8
 73
4
 74
0
 40
0
 40
0
 40
0
 40
0
 40
1
 40
1
 40
1
 40
1
 10
358.723730
 20
17.918679
 30
0.0
 10
357.408166
 20
17.159138
 30
0.0
 10
356.597746
 20
15.755448
 30
0.0
 10
356.597746
 20
14.236367
 30
0.0
  0
SPLINE
  5
126
100
AcDbEntity
  8
0
 62
7
100
AcDbSpline
 70
8
 71
3
 72
8
 73
4
 74
0
 40
0
 40
0
 40
0
 40
0
 40
1
 40
1
 40
1
 40
1
 10
356.597746
 20
14.236367
 30
0.0
 10
356.597746
 20
12.717285
 30
0.0
 10
357.408166
 20
11.313595
 30
0.0
 10
358.723730
 20
10.554054
 30
0.0
  0
SPLINE
  5
127
100
AcDbEntity
  8
0
 62
7
100
AcDbSpline
 70
8
 71
3
 72
8
 73
4
 74
0
 40
0
 40
0
 40
0
 40
0
 40
1
 40
1
 40
1
 40
1
 10
358.723730
 20
10.554054
 30
0.0
 10
360.039293
 20
9.794513
 30
0.0
 10
361.660135
 20
9.794513
 30
0.0
 10
362.975698
 20
10.554054
 30
0.0
  0
SPLINE
  5
128
100
AcDbEntity
  8
0
 62
7
100
AcDbSpline
 70
8
 71
3
 72
8
 73
4
 74
0
 40
0
 40
0
 40
0
 40
0
 40
1
 40
1
 40
1
 40
1
 10
362.975698
 20
10.554054
 30
0.0
 10
364.291262
 20
11.313595
 30
0.0
 10
365.101682
 20
12.717285
 30
0.0
 10
365.101682
 20
14.236367
 30
0.0
  0
LWPOLYLINE
  5
129
100
AcDbEntity
  8
0
 62
7
100
AcDbPolyline
 90
1
 70
1
 10
18.488335
 20
360.849714
 30
0.0
  0
SPLINE
  5
12a
100
AcDbEntity
  8
0
 62
7
100
AcDbSpline
 70
8
 71
3
 72
8
 73
4
 74
0
 40
0
 40
0
 40
0
 40
0
 40
1
 40
1
 40
1
 40
1
 10
855.286979
 20
14.236367
 30
0.0
 10
855.286979
 20
15.755448
 30
0.0
 10
854.476558
 20
17.159138
 30
0.0
 10
853.160995
 20
17.918679
 30
0.0
  0
SPLINE
  5
12b
100
AcDbEntity
  8
0
 62
7
100
AcDbSpline
 70
8
 71
3
 72
8
 73
4
 74
0
 40
0
 40
0
 40
0
 40
0
 40
1
 40
1
 40
1
 40
1
 10
853.160995
 20
17.918679
 30
0.0
 10
851.845431
 20
18.678220
 30
0.0
 10
850.224590
 20
18.678220
 30
0.0
 10
848.909026
 20
17.918679
 30
0.0
  0
SPLINE
  5
12c
100
AcDbEntity
  8
0
 62
7
100
AcDbSpline
 70
8
 71
3
 72
8
 73
4
 74
0
 40
0
 40
0
 40
0
 40
0
 40
1
 40
1
 40
1
 40
1
 10
848.909026
 20
17.918679
 30
0.0
 10
847.593463
 20
17.159138
 30
0.0
 10
846.783042
 20
15.755448
 30
0.0
 10
846.783043
 20
14.236367
 30
0.0
  0
SPLINE
  5
12d
100
AcDbEntity
  8
0
 62
7
100
AcDbSpline
 70
8
 71
3
 72
8
 73
4
 74
0
 40
0
 40
0
 40
0
 40
0
 40
1
 40
1
 40
1
 40
1
 10
846.783043
 20
14.236367
 30
0.0
 10
846.783043
 20
12.717285
 30
0.0
 10
847.593463
 20
11.313595
 30
0.0
 10
848.909027
 20
10.554054
 30
0.0
  0
SPLINE
  5
12e
100
AcDbEntity
  8
0
 62
7
100
AcDbSpline
 70
8
 71
3
 72
8
 73
4
 74
0
 40
0
 40
0
 40
0
 40
0
 40
1
 40
1
 40
1
 40
1
 10
848.909027
 20
10.554054
 30
0.0
 10
850.224590
 20
9.794513
 30
0.0
 10
851.845431
 20
9.794513
 30
0.0
 10
853.160995
 20
10.554054
 30
0.0
  0
SPLINE
  5
12f
100
AcDbEntity
  8
0
 62
7
100
AcDbSpline
 70
8
 71
3
 72
8
 73
4
 74
0
 40
0
 40
0
 40
0
 40
0
 40
1
 40
1
 40
1
 40
1
 10
853.160995
 20
10.554054
 30
0.0
 10
854.476558
 20
11.313595
 30
0.0
 10
855.286979
 20
12.717285
 30
0.0
 10
855.286979
 20
14.236367
 30
0.0
  0
LWPOLYLINE
  5
130
100
AcDbEntity
  8
0
 62
7
100
AcDbPolyline
 90
1
 70
1
 10
365.101682
 20
14.236367
 30
0.0
  0
SPLINE
  5
131
100
AcDbEntity
  8
0
 62
7
100
AcDbSpline
 70
8
 71
3
 72
8
 73
4
 74
0
 40
0
 40
0
 40
0
 40
0
 40
1
 40
1
 40
1
 40
1
 10
1201.900326
 20
360.849714
 30
0.0
 10
1201.900326
 20
362.368796
 30
0.0
 10
1201.089905
 20
363.772486
 30
0.0
 10
1199.774342
 20
364.532027
 30
0.0
  0
SPLINE
  5
132
100
AcDbEntity
  8
0
 62
7
100
AcDbSpline
 70
8
 71
3
 72
8
 73
4
 74
0
 40
0
 40
0
 40
0
 40
0
 40
1
 40
1
 40
1
 40
1
 10
1199.774342
 20
364.532027
 30
0.0
 10
1198.458778
 20
365.291568
 30
0.0
 10
1196.837937
 20
365.291568
 30
0.0
 10
1195.522373
 20
364.532027
 30
0.0
  0
SPLINE
  5
133
100
AcDbEntity
  8
0
 62
7
100
AcDbSpline
 70
8
 71
3
 72
8
 73
4
 74
0
 40
0
 40
0
 40
0
 40
0
 40
1
 40
1
 40
1
 40
1
 10
1195.522373
 20
364.532027
 30
0.0
 10
1194.206810
 20
363.772486
 30
0.0
 10
1193.396389
 20
362.368796
 30
0.0
 10
1193.396389
 20
360.849714
 30
0.0
  0
SPLINE
  5
134
100
AcDbEntity
  8
0
 62
7
100
AcDbSpline
 70
8
 71
3
 72
8
 73
4
 74
0
 40
0
 40
0
 40
0
 40
0
 40
1
 40
1
 40
1
 40
1
 10
1193.396389
 20
360.849714
 30
0.0
 10
1193.396389
 20
359.330632
 30
0.0
 10
1194.206810
 20
357.926942
 30
0.0
 10
1195.522373
 20
357.167402
 30
0.0
  0
SPLINE
  5
135
100
AcDbEntity
  8
0
 62
7
100
AcDbSpline
 70
8
 71
3
 72
8
 73
4
 74
0
 40
0
 40
0
 40
0
 40
0
 40
1
 40
1
 40
1
 40
1
 10
1195.522373
 20
357.167402
 30
0.0
 10
1196.837937
 20
356.407861
 30
0.0
 10
1198.458778
 20
356.407861
 30
0.0
 10
1199.774342
 20
357.167402
 30
0.0
  0
SPLINE
  5
136
100
AcDbEntity
  8
0
 62
7
100
AcDbSpline
 70
8
 71
3
 72
8
 73
4
 74
0
 40
0
 40
0
 40
0
 40
0
 40
1
 40
1
 40
1
 40
1
 10
1199.774342
 20
357.167402
 30
0.0
 10
1201.089905
 20
357.926942
 30
0.0
 10
1201.900326
 20
359.330632
 30
0.0
 10
1201.900326
 20
360.849714
 30
0.0
  0
LWPOLYLINE
  5
137
100
AcDbEntity
  8
0
 62
7
100
AcDbPolyline
 90
1
 70
1
 10
855.286979
 20
14.236367
 30
0.0
  0
SPLINE
  5
138
100
AcDbEntity
  8
0
 62
7
100
AcDbSpline
 70
8
 71
3
 72
8
 73
4
 74
0
 40
0
 40
0
 40
0
 40
0
 40
1
 40
1
 40
1
 40
1
 10
1201.900326
 20
851.035010
 30
0.0
 10
1201.900326
 20
852.554092
 30
0.0
 10
1201.089905
 20
853.957782
 30
0.0
 10
1199.774342
 20
854.717323
 30
0.0
  0
SPLINE
  5
139
100
AcDbEntity
  8
0
 62
7
100
AcDbSpline
 70
8
 71
3
 72
8
 73
4
 74
0
 40
0
 40
0
 40
0
 40
0
 40
1
 40
1
 40
1
 40
1
 10
1199.774342
 20
854.717323
 30
0.0
 10
1198.458778
 20
855.476864
 30
0.0
 10
1196.837937
 20
855.476864
 30
0.0
 10
1195.522373
 20
854.717323
 30
0.0
  0
SPLINE
  5
13a
100
AcDbEntity
  8
0
 62
7
100
AcDbSpline
 70
8
 71
3
 72
8
 73
4
 74
0
 40
0
 40
0
 40
0
 40
0
 40
1
 40
1
 40
1
 40
1
 10
1195.522373
 20
854.717323
 30
0.0
 10
1194.206810
 20
853.957782
 30
0.0
 10
1193.396389
 20
852.554092
 30
0.0
 10
1193.396389
 20
851.035010
 30
0.0
  0
SPLINE
  5
13b
100
AcDbEntity
  8
0
 62
7
100
AcDbSpline
 70
8
 71
3
 72
8
 73
4
 74
0
 40
0
 40
0
 40
0
 40
0
 40
1
 40
1
 40
1
 40
1
 10
1193.396389
 20
851.035010
 30
0.0
 10
1193.396389
 20
849.515928
 30
0.0
 10
1194.206810
 20
848.112239
 30
0.0
 10
1195.522373
 20
847.352698
 30
0.0
  0
SPLINE
  5
13c
100
AcDbEntity
  8
0
 62
7
100
AcDbSpline
 70
8
 71
3
 72
8
 73
4
 74
0
 40
0
 40
0
 40
0
 40
0
 40
1
 40
1
 40
1
 40
1
 10
1195.522373
 20
847.352698
 30
0.0
 10
1196.837937
 20
846.593157
 30
0.0
 10
1198.458778
 20
846.593157
 30
0.0
 10
1199.774342
 20
847.352698
 30
0.0
  0
SPLINE
  5
13d
100
AcDbEntity
  8
0
 62
7
100
AcDbSpline
 70
8
 71
3
 72
8
 73
4
 74
0
 40
0
 40
0
 40
0
 40
0
 40
1
 40
1
 40
1
 40
1
 10
1199.774342
 20
847.352698
 30
0.0
 10
1201.089905
 20
848.112239
 30
0.0
 10
1201.900326
 20
849.515928
 30
0.0
 10
1201.900326
 20
851.035010
 30
0.0
  0
LWPOLYLINE
  5
13e
100
AcDbEntity
  8
0
 62
7
100
AcDbPolyline
 90
1
 70
1
 10
1201.900326
 20
360.849714
 30
0.0
  0
LWPOLYLINE
  5
13f
100
AcDbEntity
  8
0
 62
7
100
AcDbPolyline
 90
1
 70
1
 10
1201.900326
 20
851.035010
 30
0.0
  0
LWPOLYLINE
  5
140
100
AcDbEntity
  8
0
 62
7
100
AcDbPolyline
 90
2
 70
0
 10
1211.884724
 20
840.772098
 30
0.0
 10
1211.884724
 20
812.425642
 30
0.0
  0
LWPOLYLINE
  5
141
100
AcDbEntity
  8
0
 62
7
100
AcDbPolyline
 90
3
 70
0
 10
1197.711496
 20
812.425642
 30
0.0
 10
1197.711496
 20
729.832330
 30
0.0
 10
1211.884724
 20
729.832330
 30
0.0
  0
LWPOLYLINE
  5
142
100
AcDbEntity
  8
0
 62
7
100
AcDbPolyline
 90
4
 70
0
 10
1211.884724
 20
647.239018
 30
0.0
 10
1197.711496
 20
647.239018
 30
0.0
 10
1197.711496
 20
564.645707
 30
0.0
 10
1211.884724
 20
564.645707
 30
0.0
  0
LWPOLYLINE
  5
143
100
AcDbEntity
  8
0
 62
7
100
AcDbPolyline
 90
4
 70
0
 10
1211.884724
 20
482.052395
 30
0.0
 10
1197.711496
 20
482.052395
 30
0.0
 10
1197.711496
 20
399.459083
 30
0.0
 10
1211.884724
 20
399.459083
 30
0.0
  0
LWPOLYLINE
  5
144
100
AcDbEntity
  8
0
 62
7
100
AcDbPolyline
 90
2
 70
0
 10
1197.711496
 20
812.425642
 30
0.0
 10
1211.884724
 20
812.425642
 30
0.0
  0
LWPOLYLINE
  5
145
100
AcDbEntity
  8
0
 62
7
100
AcDbPolyline
 90
2
 70
0
 10
1211.884724
 20
482.052395
 30
0.0
 10
1211.884724
 20
564.645707
 30
0.0
  0
LWPOLYLINE
  5
146
100
AcDbEntity
  8
0
 62
7
100
AcDbPolyline
 90
2
 70
0
 10
1211.884724
 20
647.239018
 30
0.0
 10
1211.884724
 20
729.832330
 30
0.0
  0
LWPOLYLINE
  5
147
100
AcDbEntity
  8
0
 62
7
100
AcDbPolyline
 90
2
 70
0
 10
1211.884724
 20
399.459083
 30
0.0
 10
1211.884724
 20
371.112626
 30
0.0
  0
LWPOLYLINE
  5
148
100
AcDbEntity
  8
0
 62
7
100
AcDbPolyline
 90
2
 70
0
 10
868.358617
 20
1200.458015
 30
0.0
 10
888.402589
 20
1180.414043
 30
0.0
  0
LWPOLYLINE
  5
149
100
AcDbEntity
  8
0
 62
7
100
AcDbPolyline
 90
3
 70
0
 10
878.380603
 20
1170.392057
 30
0.0
 10
936.782894
 20
1111.989766
 30
0.0
 10
946.804879
 20
1122.011752
 30
0.0
  0
LWPOLYLINE
  5
14a
100
AcDbEntity
  8
0
 62
7
100
AcDbPolyline
 90
2
 70
0
 10
1005.207170
 20
1063.609461
 30
0.0
 10
946.804879
 20
1122.011752
 30
0.0
  0
LWPOLYLINE
  5
14b
100
AcDbEntity
  8
0
 62
7
100
AcDbPolyline
 90
4
 70
0
 10
1005.207170
 20
1063.609461
 30
0.0
 10
995.185184
 20
1053.587475
 30
0.0
 10
1053.587475
 20
995.185184
 30
0.0
 10
1063.609461
 20
1005.207170
 30
0.0
  0
LWPOLYLINE
  5
14c
100
AcDbEntity
  8
0
 62
7
100
AcDbPolyline
 90
2
 70
0
 10
1122.011752
 20
946.804880
 30
0.0
 10
1063.609461
 20
1005.207170
 30
0.0
  0
LWPOLYLINE
  5
14d
100
AcDbEntity
  8
0
 62
7
100
AcDbPolyline
 90
2
 70
0
 10
1111.989766
 20
936.782894
 30
0.0
 10
1170.392057
 20
878.380603
 30
0.0
  0
LWPOLYLINE
  5
14e
100
AcDbEntity
  8
0
 62
7
100
AcDbPolyline
 90
2
 70
0
 10
1180.414043
 20
888.402589
 30
0.0
 10
1200.458014
 20
868.358617
 30
0.0
  0
LWPOLYLINE
  5
14f
100
AcDbEntity
  8
0
 62
7
100
AcDbPolyline
 90
2
 70
0
 10
878.380603
 20
1170.392057
 30
0.0
 10
888.402589
 20
1180.414043
 30
0.0
  0
LWPOLYLINE
  5
150
100
AcDbEntity
  8
0
 62
7
100
AcDbPolyline
 90
2
 70
0
 10
1170.392057
 20
878.380603
 30
0.0
 10
1180.414043
 20
888.402589
 30
0.0
  0
LWPOLYLINE
  5
151
100
AcDbEntity
  8
0
 62
7
100
AcDbPolyline
 90
2
 70
0
 10
1122.011752
 20
946.804880
 30
0.0
 10
1111.989766
 20
936.782894
 30
0.0
  0
LWPOLYLINE
  5
152
100
AcDbEntity
  8
0
 62
7
100
AcDbPolyline
 90
2
 70
0
 10
371.112626
 20
1211.884724
 30
0.0
 10
399.459083
 20
1211.884724
 30
0.0
  0
LWPOLYLINE
  5
153
100
AcDbEntity
  8
0
 62
7
100
AcDbPolyline
 90
3
 70
0
 10
399.459083
 20
1197.711496
 30
0.0
 10
482.052394
 20
1197.711496
 30
0.0
 10
482.052394
 20
1211.884724
 30
0.0
  0
LWPOLYLINE
  5
154
100
AcDbEntity
  8
0
 62
7
100
AcDbPolyline
 90
2
 70
0
 10
564.645706
 20
1211.884724
 30
0.0
 10
482.052394
 20
1211.884724
 30
0.0
  0
LWPOLYLINE
  5
155
100
AcDbEntity
  8
0
 62
7
100
AcDbPolyline
 90
4
 70
0
 10
564.645706
 20
1211.884724
 30
0.0
 10
564.645706
 20
1197.711496
 30
0.0
 10
647.239018
 20
1197.711496
 30
0.0
 10
647.239018
 20
1211.884724
 30
0.0
  0
LWPOLYLINE
  5
156
100
AcDbEntity
  8
0
 62
7
100
AcDbPolyline
 90
2
 70
0
 10
729.832330
 20
1211.884724
 30
0.0
 10
647.239018
 20
1211.884724
 30
0.0
  0
LWPOLYLINE
  5
157
100
AcDbEntity
  8
0
 62
7
100
AcDbPolyline
 90
2
 70
0
 10
729.832330
 20
1197.711496
 30
0.0
 10
812.425642
 20
1197.711496
 30
0.0
  0
LWPOLYLINE
  5
158
100
AcDbEntity
  8
0
 62
7
100
AcDbPolyline
 90
2
 70
0
 10
812.425642
 20
1211.884724
 30
0.0
 10
840.772098
 20
1211.884724
 30
0.0
  0
LWPOLYLINE
  5
159
100
AcDbEntity
  8
0
 62
7
100
AcDbPolyline
 90
2
 70
0
 10
399.459083
 20
1197.711496
 30
0.0
 10
399.459083
 20
1211.884724
 30
0.0
  0
LWPOLYLINE
  5
15a
100
AcDbEntity
  8
0
 62
7
100
AcDbPolyline
 90
2
 70
0
 10
812.425642
 20
1197.711496
 30
0.0
 10
812.425642
 20
1211.884724
 30
0.0
  0
LWPOLYLINE
  5
15b
100
AcDbEntity
  8
0
 62
7
100
AcDbPolyline
 90
2
 70
0
 10
729.832330
 20
1211.884724
 30
0.0
 10
729.832330
 20
1197.711496
 30
0.0
  0
LWPOLYLINE
  5
15c
100
AcDbEntity
  8
0
 62
7
100
AcDbPolyline
 90
2
 70
0
 10
11.426710
 20
868.358617
 30
0.0
 10
31.470682
 20
888.402589
 30
0.0
  0
LWPOLYLINE
  5
15d
100
AcDbEntity
  8
0
 62
7
100
AcDbPolyline
 90
3
 70
0
 10
41.492668
 20
878.380603
 30
0.0
 10
99.894959
 20
936.782894
 30
0.0
 10
89.872973
 20
946.804880
 30
0.0
  0
LWPOLYLINE
  5
15e
100
AcDbEntity
  8
0
 62
7
100
AcDbPolyline
 90
2
 70
0
 10
148.275263
 20
1005.207170
 30
0.0
 10
89.872973
 20
946.804880
 30
0.0
  0
LWPOLYLINE
  5
15f
100
AcDbEntity
  8
0
 62
7
100
AcDbPolyline
 90
4
 70
0
 10
148.275263
 20
1005.207170
 30
0.0
 10
158.297249
 20
995.185184
 30
0.0
 10
216.699540
 20
1053.587475
 30
0.0
 10
206.677554
 20
1063.609461
 30
0.0
  0
LWPOLYLINE
  5
160
100
AcDbEntity
  8
0
 62
7
100
AcDbPolyline
 90
2
 70
0
 10
265.079846
 20
1122.011752
 30
0.0
 10
206.677554
 20
1063.609461
 30
0.0
  0
LWPOLYLINE
  5
161
100
AcDbEntity
  8
0
 62
7
100
AcDbPolyline
 90
2
 70
0
 10
275.101831
 20
1111.989766
 30
0.0
 10
333.504121
 20
1170.392057
 30
0.0
  0
LWPOLYLINE
  5
162
100
AcDbEntity
  8
0
 62
7
100
AcDbPolyline
 90
2
 70
0
 10
323.482136
 20
1180.414043
 30
0.0
 10
343.526107
 20
1200.458015
 30
0.0
  0
LWPOLYLINE
  5
163
100
AcDbEntity
  8
0
 62
7
100
AcDbPolyline
 90
2
 70
0
 10
41.492668
 20
878.380603
 30
0.0
 10
31.470682
 20
888.402589
 30
0.0
  0
LWPOLYLINE
  5
164
100
AcDbEntity
  8
0
 62
7
100
AcDbPolyline
 90
2
 70
0
 10
333.504121
 20
1170.392057
 30
0.0
 10
323.482136
 20
1180.414043
 30
0.0
  0
LWPOLYLINE
  5
165
100
AcDbEntity
  8
0
 62
7
100
AcDbPolyline
 90
2
 70
0
 10
265.079846
 20
1122.011752
 30
0.0
 10
275.101831
 20
1111.989766
 30
0.0
  0
LWPOLYLINE
  5
166
100
AcDbEntity
  8
0
 62
7
100
AcDbPolyline
 90
2
 70
0
 10
0.000000
 20
371.112626
 30
0.0
 10
0.000000
 20
399.459083
 30
0.0
  0
LWPOLYLINE
  5
167
100
AcDbEntity
  8
0
 62
7
100
AcDbPolyline
 90
3
 70
0
 10
14.173229
 20
399.459083
 30
0.0
 10
14.173229
 20
482.052395
 30
0.0
 10
0.000000
 20
482.052395
 30
0.0
  0
LWPOLYLINE
  5
168
100
AcDbEntity
  8
0
 62
7
100
AcDbPolyline
 90
2
 70
0
 10
0.000000
 20
564.645707
 30
0.0
 10
0.000000
 20
482.052395
 30
0.0
  0
LWPOLYLINE
  5
169
100
AcDbEntity
  8
0
 62
7
100
AcDbPolyline
 90
4
 70
0
 10
0.000000
 20
564.645707
 30
0.0
 10
14.173229
 20
564.645707
 30
0.0
 10
14.173229
 20
647.239018
 30
0.0
 10
0.000000
 20
647.239018
 30
0.0
  0
LWPOLYLINE
  5
16a
100
AcDbEntity
  8
0
 62
7
100
AcDbPolyline
 90
2
 70
0
 10
0.000000
 20
729.832330
 30
0.0
 10
0.000000
 20
647.239018
 30
0.0
  0
LWPOLYLINE
  5
16b
100
AcDbEntity
  8
0
 62
7
100
AcDbPolyline
 90
2
 70
0
 10
14.173229
 20
729.832330
 30
0.0
 10
14.173229
 20
812.425642
 30
0.0
  0
LWPOLYLINE
  5
16c
100
AcDbEntity
  8
0
 62
7
100
AcDbPolyline
 90
2
 70
0
 10
0.000000
 20
812.425642
 30
0.0
 10
0.000000
 20
840.772098
 30
0.0
  0
LWPOLYLINE
  5
16d
100
AcDbEntity
  8
0
 62
7
100
AcDbPolyline
 90
2
 70
0
 10
14.173229
 20
399.459083
 30
0.0
 10
0.000000
 20
399.459083
 30
0.0
  0
LWPOLYLINE
  5
16e
100
AcDbEntity
  8
0
 62
7
100
AcDbPolyline
 90
2
 70
0
 10
14.173229
 20
812.425642
 30
0.0
 10
0.000000
 20
812.425642
 30
0.0
  0
LWPOLYLINE
  5
16f
100
AcDbEntity
  8
0
 62
7
100
AcDbPolyline
 90
2
 70
0
 10
0.000000
 20
729.832330
 30
0.0
 10
14.173229
 20
729.832330
 30
0.0
  0
LWPOLYLINE
  5
170
100
AcDbEntity
  8
0
 62
7
100
AcDbPolyline
 90
2
 70
0
 10
343.526107
 20
11.426710
 30
0.0
 10
323.482136
 20
31.470682
 30
0.0
  0
LWPOLYLINE
  5
171
100
AcDbEntity
  8
0
 62
7
100
AcDbPolyline
 90
3
 70
0
 10
333.504121
 20
41.492668
 30
0.0
 10
275.101831
 20
99.894959
 30
0.0
 10
265.079846
 20
89.872973
 30
0.0
  0
LWPOLYLINE
  5
172
100
AcDbEntity
  8
0
 62
7
100
AcDbPolyline
 90
2
 70
0
 10
206.677554
 20
148.275263
 30
0.0
 10
265.079846
 20
89.872973
 30
0.0
  0
LWPOLYLINE
  5
173
100
AcDbEntity
  8
0
 62
7
100
AcDbPolyline
 90
4
 70
0
 10
206.677554
 20
148.275263
 30
0.0
 10
216.699540
 20
158.297249
 30
0.0
 10
158.297249
 20
216.699540
 30
0.0
 10
148.275263
 20
206.677554
 30
0.0
  0
LWPOLYLINE
  5
174
100
AcDbEntity
  8
0
 62
7
100
AcDbPolyline
 90
2
 70
0
 10
89.872973
 20
265.079845
 30
0.0
 10
148.275263
 20
206.677554
 30
0.0
  0
LWPOLYLINE
  5
175
100
AcDbEntity
  8
0
 62
7
100
AcDbPolyline
 90
2
 70
0
 10
99.894959
 20
275.101831
 30
0.0
 10
41.492668
 20
333.504122
 30
0.0
  0
LWPOLYLINE
  5
176
100
AcDbEntity
  8
0
 62
7
100
AcDbPolyline
 90
2
 70
0
 10
31.470682
 20
323.482136
 30
0.0
 10
11.426710
 20
343.526108
 30
0.0
  0
LWPOLYLINE
  5
177
100
AcDbEntity
  8
0
 62
7
100
AcDbPolyline
 90
2
 70
0
 10
333.504121
 20
41.492668
 30
0.0
 10
323.482136
 20
31.470682
 30
0.0
  0
LWPOLYLINE
  5
178
100
AcDbEntity
  8
0
 62
7
100
AcDbPolyline
 90
2
 70
0
 10
41.492668
 20
333.504122
 30
0.0
 10
31.470682
 20
323.482136
 30
0.0
  0
LWPOLYLINE
  5
179
100
AcDbEntity
  8
0
 62
7
100
AcDbPolyline
 90
2
 70
0
 10
89.872973
 20
265.079845
 30
0.0
 10
99.894959
 20
275.101831
 30
0.0
  0
LWPOLYLINE
  5
17a
100
AcDbEntity
  8
0
 62
7
100
AcDbPolyline
 90
2
 70
0
 10
840.772098
 20
0.000000
 30
0.0
 10
812.425642
 20
0.000000
 30
0.0
  0
LWPOLYLINE
  5
17b
100
AcDbEntity
  8
0
 62
7
100
AcDbPolyline
 90
3
 70
0
 10
812.425642
 20
14.173229
 30
0.0
 10
729.832330
 20
14.173229
 30
0.0
 10
729.832330
 20
0.000000
 30
0.0
  0
LWPOLYLINE
  5
17c
100
AcDbEntity
  8
0
 62
7
100
AcDbPolyline
 90
2
 70
0
 10
647.239018
 20
0.000000
 30
0.0
 10
729.832330
 20
0.000000
 30
0.0
  0
LWPOLYLINE
  5
17d
100
AcDbEntity
  8
0
 62
7
100
AcDbPolyline
 90
4
 70
0
 10
647.239018
 20
0.000000
 30
0.0
 10
647.239018
 20
14.173229
 30
0.0
 10
564.645706
 20
14.173229
 30
0.0
 10
564.645706
 20
0.000000
 30
0.0
  0
LWPOLYLINE
  5
17e
100
AcDbEntity
  8
0
 62
7
100
AcDbPolyline
 90
2
 70
0
 10
482.052394
 20
0.000000
 30
0.0
 10
564.645706
 20
0.000000
 30
0.0
  0
LWPOLYLINE
  5
17f
100
AcDbEntity
  8
0
 62
7
100
AcDbPolyline
 90
2
 70
0
 10
482.052394
 20
14.173229
 30
0.0
 10
399.459083
 20
14.173229
 30
0.0
  0
LWPOLYLINE
  5
180
100
AcDbEntity
  8
0
 62
7
100
AcDbPolyline
 90
2
 70
0
 10
399.459083
 20
0.000000
 30
0.0
 10
371.112626
 20
0.000000
 30
0.0
  0
LWPOLYLINE
  5
181
100
AcDbEntity
  8
0
 62
7
100
AcDbPolyline
 90
2
 70
0
 10
812.425642
 20
14.173229
 30
0.0
 10
812.425642
 20
0.000000
 30
0.0
  0
LWPOLYLINE
  5
182
100
AcDbEntity
  8
0
 62
7
100
AcDbPolyline
 90
2
 70
0
 10
399.459083
 20
14.173229
 30
0.0
 10
399.459083
 20
0.000000
 30
0.0
  0
LWPOLYLINE
  5
183
100
AcDbEntity
  8
0
 62
7
100
AcDbPolyline
 90
2
 70
0
 10
482.052394
 20
0.000000
 30
0.0
 10
482.052394
 20
14.173229
 30
0.0
  0
LWPOLYLINE
  5
184
100
AcDbEntity
  8
0
 62
7
100
AcDbPolyline
 90
2
 70
0
 10
1200.458014
 20
343.526108
 30
0.0
 10
1180.414043
 20
323.482136
 30
0.0
  0
LWPOLYLINE
  5
185
100
AcDbEntity
  8
0
 62
7
100
AcDbPolyline
 90
3
 70
0
 10
1170.392057
 20
333.504122
 30
0.0
 10
1111.989766
 20
275.101831
 30
0.0
 10
1122.011752
 20
265.079845
 30
0.0
  0
LWPOLYLINE
  5
186
100
AcDbEntity
  8
0
 62
7
100
AcDbPolyline
 90
2
 70
0
 10
1063.609461
 20
206.677554
 30
0.0
 10
1122.011752
 20
265.079845
 30
0.0
  0
LWPOLYLINE
  5
187
100
AcDbEntity
  8
0
 62
7
100
AcDbPolyline
 90
4
 70
0
 10
1063.609461
 20
206.677554
 30
0.0
 10
1053.587475
 20
216.699540
 30
0.0
 10
995.185184
 20
158.297249
 30
0.0
 10
1005.207170
 20
148.275263
 30
0.0
  0
LWPOLYLINE
  5
188
100
AcDbEntity
  8
0
 62
7
100
AcDbPolyline
 90
2
 70
0
 10
946.804879
 20
89.872973
 30
0.0
 10
1005.207170
 20
148.275263
 30
0.0
  0
LWPOLYLINE
  5
189
100
AcDbEntity
  8
0
 62
7
100
AcDbPolyline
 90
2
 70
0
 10
936.782894
 20
99.894959
 30
0.0
 10
878.380603
 20
41.492668
 30
0.0
  0
LWPOLYLINE
  5
18a
100
AcDbEntity
  8
0
 62
7
100
AcDbPolyline
 90
2
 70
0
 10
888.402589
 20
31.470682
 30
0.0
 10
868.358617
 20
11.426710
 30
0.0
  0
LWPOLYLINE
  5
18b
100
AcDbEntity
  8
0
 62
7
100
AcDbPolyline
 90
2
 70
0
 10
1170.392057
 20
333.504122
 30
0.0
 10
1180.414043
 20
323.482136
 30
0.0
  0
LWPOLYLINE
  5
18c
100
AcDbEntity
  8
0
 62
7
100
AcDbPolyline
 90
2
 70
0
 10
878.380603
 20
41.492668
 30
0.0
 10
888.402589
 20
31.470682
 30
0.0
  0
SPLINE
  5
18d
100
AcDbEntity
  8
0
 62
7
100
AcDbSpline
 70
8
 71
3
 72
8
 73
4
 74
0
 40
0
 40
0
 40
0
 40
0
 40
1
 40
1
 40
1
 40
1
 10
909.009899
 20
259.591424
 30
0.0
 10
909.009899
 20
259.591424
 30
0.0
 10
870.243563
 20
277.058387
 30
0.0
 10
870.243562
 20
277.058387
 30
0.0
  0
SPLINE
  5
18e
100
AcDbEntity
  8
0
 62
7
100
AcDbSpline
 70
8
 71
3
 72
8
 73
4
 74
0
 40
0
 40
0
 40
0
 40
0
 40
1
 40
1
 40
1
 40
1
 10
870.243562
 20
277.058387
 30
0.0
 10
857.858751
 20
293.310953
 30
0.0
 10
858.088416
 20
315.897192
 30
0.0
 10
870.801156
 20
331.894558
 30
0.0
  0
SPLINE
  5
18f
100
AcDbEntity
  8
0
 62
7
100
AcDbSpline
 70
8
 71
3
 72
8
 73
4
 74
0
 40
0
 40
0
 40
0
 40
0
 40
1
 40
1
 40
1
 40
1
 10
870.801156
 20
331.894558
 30
0.0
 10
883.513896
 20
347.891923
 30
0.0
 10
905.464645
 20
353.216914
 30
0.0
 10
924.094449
 20
344.822876
 30
0.0
  0
SPLINE
  5
190
100
AcDbEntity
  8
0
 62
7
100
AcDbSpline
 70
8
 71
3
 72
8
 73
4
 74
0
 40
0
 40
0
 40
0
 40
0
 40
1
 40
1
 40
1
 40
1
 10
924.094449
 20
344.822876
 30
0.0
 10
942.724253
 20
336.428839
 30
0.0
 10
953.277651
 20
316.458442
 30
0.0
 10
949.716596
 20
296.337599
 30
0.0
  0
SPLINE
  5
191
100
AcDbEntity
  8
0
 62
7
100
AcDbSpline
 70
8
 71
3
 72
8
 73
4
 74
0
 40
0
 40
0
 40
0
 40
0
 40
1
 40
1
 40
1
 40
1
 10
949.716596
 20
296.337599
 30
0.0
 10
946.155541
 20
276.216755
 30
0.0
 10
929.389031
 20
261.081528
 30
0.0
 10
909.009898
 20
259.591424
 30
0.0
  0
LWPOLYLINE
  5
192
100
AcDbEntity
  8
0
 62
7
100
AcDbPolyline
 90
2
 70
0
 10
946.804879
 20
89.872973
 30
0.0
 10
936.782894
 20
99.894959
 30
0.0
  0
LWPOLYLINE
  5
193
100
AcDbEntity
  8
0
 62
7
100
AcDbPolyline
 90
1
 70
1
 10
909.009898
 20
259.591424
 30
0.0
  0
LWPOLYLINE
  5
194
100
AcDbEntity
  8
0
 62
7
100
AcDbPolyline
 90
8
 70
1
 10
900.957654
 20
486.440698
 30
0.0
 10
900.957654
 20
665.023375
 30
0.0
 10
915.130883
 20
665.023375
 30
0.0
 10
915.130883
 20
673.527312
 30
0.0
 10
305.682064
 20
673.527312
 30
0.0
 10
305.682064
 20
463.763532
 30
0.0
 10
830.091512
 20
463.763532
 30
0.0
 10
900.957654
 20
486.440698
 30
0.0
  0
LWPOLYLINE
  5
195
100
AcDbEntity
  8
0
 62
7
100
AcDbPolyline
 90
5
 70
1
 10
167.244095
 20
609.448819
 30
0.0
 10
99.212599
 20
609.448819
 30
0.0
 10
99.212599
 20
822.047244
 30
0.0
 10
167.244095
 20
822.047244
 30
0.0
 10
167.244095
 20
609.448819
 30
0.0
  0
SPLINE
  5
196
100
AcDbEntity
  8
0
 62
7
100
AcDbSpline
 70
8
 71
3
 72
8
 73
4
 74
0
 40
0
 40
0
 40
0
 40
0
 40
1
 40
1
 40
1
 40
1
 10
651.296693
 20
182.365086
 30
0.0
 10
651.296693
 20
198.568628
 30
0.0
 10
642.652207
 20
213.541318
 30
0.0
 10
628.619528
 20
221.643089
 30
0.0
  0
SPLINE
  5
197
100
AcDbEntity
  8
0
 62
7
100
AcDbSpline
 70
8
 71
3
 72
8
 73
4
 74
0
 40
0
 40
0
 40
0
 40
0
 40
1
 40
1
 40
1
 40
1
 10
628.619528
 20
221.643089
 30
0.0
 10
614.586849
 20
229.744859
 30
0.0
 10
597.297876
 20
229.744859
 30
0.0
 10
583.265197
 20
221.643089
 30
0.0
  0
SPLINE
  5
198
100
AcDbEntity
  8
0
 62
7
100
AcDbSpline
 70
8
 71
3
 72
8
 73
4
 74
0
 40
0
 40
0
 40
0
 40
0
 40
1
 40
1
 40
1
 40
1
 10
583.265197
 20
221.643089
 30
0.0
 10
569.232518
 20
213.541318
 30
0.0
 10
560.588032
 20
198.568628
 30
0.0
 10
560.588032
 20
182.365086
 30
0.0
  0
SPLINE
  5
199
100
AcDbEntity
  8
0
 62
7
100
AcDbSpline
 70
8
 71
3
 72
8
 73
4
 74
0
 40
0
 40
0
 40
0
 40
0
 40
1
 40
1
 40
1
 40
1
 10
560.588032
 20
182.365086
 30
0.0
 10
560.588032
 20
166.161544
 30
0.0
 10
569.232518
 20
151.188854
 30
0.0
 10
583.265197
 20
143.087083
 30
0.0
  0
SPLINE
  5
19a
100
AcDbEntity
  8
0
 62
7
100
AcDbSpline
 70
8
 71
3
 72
8
 73
4
 74
0
 40
0
 40
0
 40
0
 40
0
 40
1
 40
1
 40
1
 40
1
 10
583.265197
 20
143.087083
 30
0.0
 10
597.297876
 20
134.985313
 30
0.0
 10
614.586849
 20
134.985313
 30
0.0
 10
628.619528
 20
143.087083
 30
0.0
  0
SPLINE
  5
19b
100
AcDbEntity
  8
0
 62
7
100
AcDbSpline
 70
8
 71
3
 72
8
 73
4
 74
0
 40
0
 40
0
 40
0
 40
0
 40
1
 40
1
 40
1
 40
1
 10
628.619528
 20
143.087083
 30
0.0
 10
642.652207
 20
151.188854
 30
0.0
 10
651.296693
 20
166.161544
 30
0.0
 10
651.296693
 20
182.365086
 30
0.0
  0
LWPOLYLINE
  5
19c
100
AcDbEntity
  8
0
 62
7
100
AcDbPolyline
 90
5
 70
1
 10
1112.672126
 20
822.047244
 30
0.0
 10
1044.640630
 20
822.047244
 30
0.0
 10
1044.640630
 20
609.448819
 30
0.0
 10
1112.672126
 20
609.448819
 30
0.0
 10
1112.672126
 20
822.047244
 30
0.0
  0
SPLINE
  5
19d
100
AcDbEntity
  8
0
 62
7
100
AcDbSpline
 70
8
 71
3
 72
8
 73
4
 74
0
 40
0
 40
0
 40
0
 40
0
 40
1
 40
1
 40
1
 40
1
 10
610.477796
 20
239.057999
 30
0.0
 10
610.477796
 20
240.678353
 30
0.0
 10
609.613347
 20
242.175622
 30
0.0
 10
608.210079
 20
242.985799
 30
0.0
  0
SPLINE
  5
19e
100
AcDbEntity
  8
0
 62
7
100
AcDbSpline
 70
8
 71
3
 72
8
 73
4
 74
0
 40
0
 40
0
 40
0
 40
0
 40
1
 40
1
 40
1
 40
1
 10
608.210079
 20
242.985799
 30
0.0
 10
606.806811
 20
243.795977
 30
0.0
 10
605.077914
 20
243.795977
 30
0.0
 10
603.674646
 20
242.985799
 30
0.0
  0
SPLINE
  5
19f
100
AcDbEntity
  8
0
 62
7
100
AcDbSpline
 70
8
 71
3
 72
8
 73
4
 74
0
 40
0
 40
0
 40
0
 40
0
 40
1
 40
1
 40
1
 40
1
 10
603.674646
 20
242.985799
 30
0.0
 10
602.271378
 20
242.175622
 30
0.0
 10
601.406930
 20
240.678353
 30
0.0
 10
601.406930
 20
239.057999
 30
0.0
  0
SPLINE
  5
1a0
100
AcDbEntity
  8
0
 62
7
100
AcDbSpline
 70
8
 71
3
 72
8
 73
4
 74
0
 40
0
 40
0
 40
0
 40
0
 40
1
 40
1
 40
1
 40
1
 10
601.406930
 20
239.057999
 30
0.0
 10
601.406929
 20
237.437645
 30
0.0
 10
602.271378
 20
235.940376
 30
0.0
 10
603.674646
 20
235.130198
 30
0.0
  0
SPLINE
  5
1a1
100
AcDbEntity
  8
0
 62
7
100
AcDbSpline
 70
8
 71
3
 72
8
 73
4
 74
0
 40
0
 40
0
 40
0
 40
0
 40
1
 40
1
 40
1
 40
1
 10
603.674646
 20
235.130198
 30
0.0
 10
605.077914
 20
234.320021
 30
0.0
 10
606.806811
 20
234.320021
 30
0.0
 10
608.210079
 20
235.130198
 30
0.0
  0
SPLINE
  5
1a2
100
AcDbEntity
  8
0
 62
7
100
AcDbSpline
 70
8
 71
3
 72
8
 73
4
 74
0
 40
0
 40
0
 40
0
 40
0
 40
1
 40
1
 40
1
 40
1
 10
608.210079
 20
235.130198
 30
0.0
 10
609.613347
 20
235.940376
 30
0.0
 10
610.477796
 20
237.437645
 30
0.0
 10
610.477796
 20
239.057999
 30
0.0
  0
LWPOLYLINE
  5
1a3
100
AcDbEntity
  8
0
 62
7
100
AcDbPolyline
 90
1
 70
1
 10
651.296693
 20
182.365086
 30
0.0
  0
SPLINE
  5
1a4
100
AcDbEntity
  8
0
 62
7
100
AcDbSpline
 70
8
 71
3
 72
8
 73
4
 74
0
 40
0
 40
0
 40
0
 40
0
 40
1
 40
1
 40
1
 40
1
 10
561.380292
 20
154.018630
 30
0.0
 10
561.380292
 20
155.638984
 30
0.0
 10
560.515843
 20
157.136253
 30
0.0
 10
559.112576
 20
157.946430
 30
0.0
  0
SPLINE
  5
1a5
100
AcDbEntity
  8
0
 62
7
100
AcDbSpline
 70
8
 71
3
 72
8
 73
4
 74
0
 40
0
 40
0
 40
0
 40
0
 40
1
 40
1
 40
1
 40
1
 10
559.112576
 20
157.946430
 30
0.0
 10
557.709308
 20
158.756607
 30
0.0
 10
555.980410
 20
158.756607
 30
0.0
 10
554.577143
 20
157.946430
 30
0.0
  0
SPLINE
  5
1a6
100
AcDbEntity
  8
0
 62
7
100
AcDbSpline
 70
8
 71
3
 72
8
 73
4
 74
0
 40
0
 40
0
 40
0
 40
0
 40
1
 40
1
 40
1
 40
1
 10
554.577143
 20
157.946430
 30
0.0
 10
553.173875
 20
157.136253
 30
0.0
 10
552.309426
 20
155.638984
 30
0.0
 10
552.309426
 20
154.018630
 30
0.0
  0
SPLINE
  5
1a7
100
AcDbEntity
  8
0
 62
7
100
AcDbSpline
 70
8
 71
3
 72
8
 73
4
 74
0
 40
0
 40
0
 40
0
 40
0
 40
1
 40
1
 40
1
 40
1
 10
552.309426
 20
154.018630
 30
0.0
 10
552.309426
 20
152.398276
 30
0.0
 10
553.173875
 20
150.901007
 30
0.0
 10
554.577143
 20
150.090830
 30
0.0
  0
SPLINE
  5
1a8
100
AcDbEntity
  8
0
 62
7
100
AcDbSpline
 70
8
 71
3
 72
8
 73
4
 74
0
 40
0
 40
0
 40
0
 40
0
 40
1
 40
1
 40
1
 40
1
 10
554.577143
 20
150.090830
 30
0.0
 10
555.980410
 20
149.280653
 30
0.0
 10
557.709308
 20
149.280653
 30
0.0
 10
559.112576
 20
150.090830
 30
0.0
  0
SPLINE
  5
1a9
100
AcDbEntity
  8
0
 62
7
100
AcDbSpline
 70
8
 71
3
 72
8
 73
4
 74
0
 40
0
 40
0
 40
0
 40
0
 40
1
 40
1
 40
1
 40
1
 10
559.112576
 20
150.090830
 30
0.0
 10
560.515843
 20
150.901007
 30
0.0
 10
561.380292
 20
152.398276
 30
0.0
 10
561.380292
 20
154.018630
 30
0.0
  0
LWPOLYLINE
  5
1aa
100
AcDbEntity
  8
0
 62
7
100
AcDbPolyline
 90
1
 70
1
 10
610.477796
 20
239.057999
 30
0.0
  0
SPLINE
  5
1ab
100
AcDbEntity
  8
0
 62
7
100
AcDbSpline
 70
8
 71
3
 72
8
 73
4
 74
0
 40
0
 40
0
 40
0
 40
0
 40
1
 40
1
 40
1
 40
1
 10
659.575298
 20
154.018630
 30
0.0
 10
659.575299
 20
155.638984
 30
0.0
 10
658.710850
 20
157.136253
 30
0.0
 10
657.307582
 20
157.946431
 30
0.0
  0
SPLINE
  5
1ac
100
AcDbEntity
  8
0
 62
7
100
AcDbSpline
 70
8
 71
3
 72
8
 73
4
 74
0
 40
0
 40
0
 40
0
 40
0
 40
1
 40
1
 40
1
 40
1
 10
657.307582
 20
157.946431
 30
0.0
 10
655.904314
 20
158.756608
 30
0.0
 10
654.175416
 20
158.756608
 30
0.0
 10
652.772149
 20
157.946431
 30
0.0
  0
SPLINE
  5
1ad
100
AcDbEntity
  8
0
 62
7
100
AcDbSpline
 70
8
 71
3
 72
8
 73
4
 74
0
 40
0
 40
0
 40
0
 40
0
 40
1
 40
1
 40
1
 40
1
 10
652.772149
 20
157.946431
 30
0.0
 10
651.368881
 20
157.136253
 30
0.0
 10
650.504432
 20
155.638984
 30
0.0
 10
650.504432
 20
154.018630
 30
0.0
  0
SPLINE
  5
1ae
100
AcDbEntity
  8
0
 62
7
100
AcDbSpline
 70
8
 71
3
 72
8
 73
4
 74
0
 40
0
 40
0
 40
0
 40
0
 40
1
 40
1
 40
1
 40
1
 10
650.504432
 20
154.018630
 30
0.0
 10
650.504432
 20
152.398275
 30
0.0
 10
651.368881
 20
150.901006
 30
0.0
 10
652.772149
 20
150.090829
 30
0.0
  0
SPLINE
  5
1af
100
AcDbEntity
  8
0
 62
7
100
AcDbSpline
 70
8
 71
3
 72
8
 73
4
 74
0
 40
0
 40
0
 40
0
 40
0
 40
1
 40
1
 40
1
 40
1
 10
652.772149
 20
150.090829
 30
0.0
 10
654.175416
 20
149.280652
 30
0.0
 10
655.904314
 20
149.280652
 30
0.0
 10
657.307582
 20
150.090829
 30
0.0
  0
SPLINE
  5
1b0
100
AcDbEntity
  8
0
 62
7
100
AcDbSpline
 70
8
 71
3
 72
8
 73
4
 74
0
 40
0
 40
0
 40
0
 40
0
 40
1
 40
1
 40
1
 40
1
 10
657.307582
 20
150.090829
 30
0.0
 10
658.710850
 20
150.901006
 30
0.0
 10
659.575299
 20
152.398275
 30
0.0
 10
659.575298
 20
154.018630
 30
0.0
  0
LWPOLYLINE
  5
1b1
100
AcDbEntity
  8
0
 62
7
100
AcDbPolyline
 90
1
 70
1
 10
561.380292
 20
154.018630
 30
0.0
  0
LWPOLYLINE
  5
1b2
100
AcDbEntity
  8
0
 62
7
100
AcDbPolyline
 90
1
 70
1
 10
659.575298
 20
154.018630
 30
0.0
  0
ENDSEC
  0
SECTION
  2
OBJECTS
  0
DICTIONARY
  5
C
330
0
100
AcDbDictionary
  3
ACAD_GROUP
350
D
  3
ACAD_MLINESTYLE
350
17
  0
DICTIONARY
  5
D
330
C
100
AcDbDictionary
  0
DICTIONARY
  5
1A
330
C
100
AcDbDictionary
  0
DICTIONARY
  5
17
330
C
100
AcDbDictionary
  3
STANDARD
350
18
  0
DICTIONARY
  5
19
330
C
100
AcDbDictionary
  0
ENDSEC
  0
EOF
