  0
SECTION
  2
HEADER
  9
$ACADVER
  1
AC1014
  9
$HANDSEED
  5
FFFF
  9
$MEASUREMENT
 70
     1
  0
ENDSEC
  0
SECTION
  2
TABLES
  0
TABLE
  2
VPORT
  5
8
330
0
100
AcDbSymbolTable
 70
     4
  0
VPORT
  5
2E
330
8
100
AcDbSymbolTableRecord
100
AcDbViewportTableRecord
  2
*ACTIVE
 70
     0
 10
0.0
 20
0.0
 11
1.0
 21
1.0
 12
210.0
 22
148.5
 13
0.0
 23
0.0
 14
10.0
 24
10.0
 15
10.0
 25
10.0
 16
0.0
 26
0.0
 36
1.0
 17
0.0
 27
0.0
 37
0.0
 40
341.0
 41
1.24
 42
50.0
 43
0.0
 44
0.0
 50
0.0
 51
0.0
 71
     0
 72
   100
 73
     1
 74
     3
 75
     0
 76
     0
 77
     0
 78
     0
  0
ENDTAB
  0
TABLE
  2
LTYPE
  5
5
330
0
100
AcDbSymbolTable
 70
     1
  0
LTYPE
  5
14
330
5
100
AcDbSymbolTableRecord
100
AcDbLinetypeTableRecord
  2
BYBLOCK
 70
     0
  3

 72
    65
 73
     0
 40
0.0
  0
LTYPE
  5
15
330
5
100
AcDbSymbolTableRecord
100
AcDbLinetypeTableRecord
  2
BYLAYER
 70
     0
  3

 72
    65
 73
     0
 40
0.0
  0
LTYPE
  5
16
330
5
100
AcDbSymbolTableRecord
100
AcDbLinetypeTableRecord
  2
CONTINUOUS
 70
     0
  3
Solid line
 72
    65
 73
     0
 40
0.0
  0
ENDTAB
  0
TABLE
  2
LAYER
  5
2
100
AcDbSymbolTable
 70
1
  0
LAYER
  5
50
100
AcDbSymbolTableRecord
100
AcDbLayerTableRecord
  2
0
 70
0
  6
CONTINUOUS
  0
ENDTAB
  0
TABLE
  2
STYLE
  5
3
330
0
100
AcDbSymbolTable
 70
     1
  0
STYLE
  5
11
330
3
100
AcDbSymbolTableRecord
100
AcDbTextStyleTableRecord
  2
STANDARD
 70
     0
 40
0.0
 41
1.0
 50
0.0
 71
     0
 42
2.5
  3
txt
  4

  0
ENDTAB
  0
TABLE
  2
VIEW
  5
6
330
0
100
AcDbSymbolTable
 70
     0
  0
ENDTAB
  0
TABLE
  2
UCS
  5
7
330
0
100
AcDbSymbolTable
 70
     0
  0
ENDTAB
  0
TABLE
  2
APPID
  5
9
330
0
100
AcDbSymbolTable
 70
     2
  0
APPID
  5
12
330
9
100
AcDbSymbolTableRecord
100
AcDbRegAppTableRecord
  2
ACAD
 70
     0
  0
ENDTAB
  0
TABLE
  2
DIMSTYLE
  5
A
330
0
100
AcDbSymbolTable
 70
     1
  0
DIMSTYLE
105
27
330
A
100
AcDbSymbolTableRecord
100
AcDbDimStyleTableRecord
  2
ISO-25
 70
     0
  3

  4

  5

  6

  7

 40
1.0
 41
2.5
 42
0.625
 43
3.75
 44
1.25
 45
0.0
 46
0.0
 47
0.0
 48
0.0
140
2.5
141
2.5
142
0.0
143
0.03937007874016
144
1.0
145
0.0
146
1.0
147
0.625
 71
     0
 72
     0
 73
     0
 74
     0
 75
     0
 76
     0
 77
     1
 78
     8
170
     0
171
     3
172
     1
173
     0
174
     0
175
     0
176
     0
177
     0
178
     0
270
     2
271
     2
272
     2
273
     2
274
     3
340
11
275
     0
280
     0
281
     0
282
     0
283
     0
284
     8
285
     0
286
     0
287
     3
288
     0
  0
ENDTAB
  0
TABLE
  2
BLOCK_RECORD
  5
1
330
0
100
AcDbSymbolTable
 70
     1
  0
BLOCK_RECORD
  5
1F
330
1
100
AcDbSymbolTableRecord
100
AcDbBlockTableRecord
  2
*MODEL_SPACE
  0
BLOCK_RECORD
  5
1B
330
1
100
AcDbSymbolTableRecord
100
AcDbBlockTableRecord
  2
*PAPER_SPACE
  0
ENDTAB
  0
ENDSEC
  0
SECTION
  2
BLOCKS
  0
BLOCK
  5
20
330
1F
100
AcDbEntity
  8
0
100
AcDbBlockBegin
  2
*MODEL_SPACE
 70
     0
 10
0.0
 20
0.0
 30
0.0
  3
*MODEL_SPACE
  1

  0
ENDBLK
  5
21
330
1F
100
AcDbEntity
  8
0
100
AcDbBlockEnd
  0
BLOCK
  5
1C
330
1B
100
AcDbEntity
 67
     1
  8
0
100
AcDbBlockBegin
  2
*PAPER_SPACE
  1

  0
ENDBLK
  5
1D
330
1B
100
AcDbEntity
 67
     1
  8
0
100
AcDbBlockEnd
  0
ENDSEC
  0
SECTION
  2
ENTITIES
  0
SPLINE
  5
100
100
AcDbEntity
  8
0
 62
7
100
AcDbSpline
 70
8
 71
3
 72
8
 73
4
 74
0
 40
0
 40
0
 40
0
 40
0
 40
1
 40
1
 40
1
 40
1
 10
371.112626
 20
1211.884724
 30
0.0
 10
360.765675
 20
1211.884724
 30
0.0
 10
350.842507
 20
1207.774414
 30
0.0
 10
343.526107
 20
1200.458015
 30
0.0
  0
SPLINE
  5
101
100
AcDbEntity
  8
0
 62
7
100
AcDbSpline
 70
8
 71
3
 72
8
 73
4
 74
0
 40
0
 40
0
 40
0
 40
0
 40
1
 40
1
 40
1
 40
1
 10
868.358617
 20
1200.458015
 30
0.0
 10
861.042217
 20
1207.774414
 30
0.0
 10
851.119050
 20
1211.884724
 30
0.0
 10
840.772098
 20
1211.884724
 30
0.0
  0
SPLINE
  5
102
100
AcDbEntity
  8
0
 62
7
100
AcDbSpline
 70
8
 71
3
 72
8
 73
4
 74
0
 40
0
 40
0
 40
0
 40
0
 40
1
 40
1
 40
1
 40
1
 10
1211.884724
 20
840.772099
 30
0.0
 10
1211.884724
 20
851.119050
 30
0.0
 10
1207.774414
 20
861.042217
 30
0.0
 10
1200.458014
 20
868.358617
 30
0.0
  0
SPLINE
  5
103
100
AcDbEntity
  8
0
 62
7
100
AcDbSpline
 70
8
 71
3
 72
8
 73
4
 74
0
 40
0
 40
0
 40
0
 40
0
 40
1
 40
1
 40
1
 40
1
 10
1200.458014
 20
343.526108
 30
0.0
 10
1207.774414
 20
350.842507
 30
0.0
 10
1211.884724
 20
360.765674
 30
0.0
 10
1211.884724
 20
371.112626
 30
0.0
  0
SPLINE
  5
104
100
AcDbEntity
  8
0
 62
7
100
AcDbSpline
 70
8
 71
3
 72
8
 73
4
 74
0
 40
0
 40
0
 40
0
 40
0
 40
1
 40
1
 40
1
 40
1
 10
840.772098
 20
0.000000
 30
0.0
 10
851.119050
 20
-0.000000
 30
0.0
 10
861.042217
 20
4.110310
 30
0.0
 10
868.358617
 20
11.426710
 30
0.0
  0
SPLINE
  5
105
100
AcDbEntity
  8
0
 62
7
100
AcDbSpline
 70
8
 71
3
 72
8
 73
4
 74
0
 40
0
 40
0
 40
0
 40
0
 40
1
 40
1
 40
1
 40
1
 10
343.526107
 20
11.426710
 30
0.0
 10
350.842507
 20
4.110310
 30
0.0
 10
360.765675
 20
-0.000000
 30
0.0
 10
371.112626
 20
0.000000
 30
0.0
  0
SPLINE
  5
106
100
AcDbEntity
  8
0
 62
7
100
AcDbSpline
 70
8
 71
3
 72
8
 73
4
 74
0
 40
0
 40
0
 40
0
 40
0
 40
1
 40
1
 40
1
 40
1
 10
-0.000000
 20
371.112626
 30
0.0
 10
-0.000000
 20
360.765675
 30
0.0
 10
4.110310
 20
350.842507
 30
0.0
 10
11.426710
 20
343.526108
 30
0.0
  0
SPLINE
  5
107
100
AcDbEntity
  8
0
 62
7
100
AcDbSpline
 70
8
 71
3
 72
8
 73
4
 74
0
 40
0
 40
0
 40
0
 40
0
 40
1
 40
1
 40
1
 40
1
 10
11.426710
 20
868.358617
 30
0.0
 10
4.110310
 20
861.042217
 30
0.0
 10
-0.000000
 20
851.119050
 30
0.0
 10
-0.000000
 20
840.772098
 30
0.0
  0
SPLINE
  5
108
100
AcDbEntity
  8
0
 62
7
100
AcDbSpline
 70
8
 71
3
 72
8
 73
4
 74
0
 40
0
 40
0
 40
0
 40
0
 40
1
 40
1
 40
1
 40
1
 10
839.800630
 20
827.592937
 30
0.0
 10
839.800630
 20
827.592937
 30
0.0
 10
372.084094
 20
827.592937
 30
0.0
 10
372.084095
 20
827.592937
 30
0.0
  0
SPLINE
  5
109
100
AcDbEntity
  8
0
 62
7
100
AcDbSpline
 70
8
 71
3
 72
8
 73
4
 74
0
 40
0
 40
0
 40
0
 40
0
 40
1
 40
1
 40
1
 40
1
 10
372.084095
 20
827.592937
 30
0.0
 10
371.301329
 20
827.592937
 30
0.0
 10
370.666772
 20
828.227493
 30
0.0
 10
370.666772
 20
829.010259
 30
0.0
  0
SPLINE
  5
10a
100
AcDbEntity
  8
0
 62
7
100
AcDbSpline
 70
8
 71
3
 72
8
 73
4
 74
0
 40
0
 40
0
 40
0
 40
0
 40
1
 40
1
 40
1
 40
1
 10
370.666772
 20
829.010259
 30
0.0
 10
370.666772
 20
829.010259
 30
0.0
 10
370.666771
 20
1115.309472
 30
0.0
 10
370.666772
 20
1115.309472
 30
0.0
  0
SPLINE
  5
10b
100
AcDbEntity
  8
0
 62
7
100
AcDbSpline
 70
8
 71
3
 72
8
 73
4
 74
0
 40
0
 40
0
 40
0
 40
0
 40
1
 40
1
 40
1
 40
1
 10
370.666772
 20
1115.309472
 30
0.0
 10
370.666772
 20
1115.685369
 30
0.0
 10
370.816096
 20
1116.045871
 30
0.0
 10
371.081896
 20
1116.311671
 30
0.0
  0
SPLINE
  5
10c
100
AcDbEntity
  8
0
 62
7
100
AcDbSpline
 70
8
 71
3
 72
8
 73
4
 74
0
 40
0
 40
0
 40
0
 40
0
 40
1
 40
1
 40
1
 40
1
 10
371.081896
 20
1116.311671
 30
0.0
 10
371.347695
 20
1116.577470
 30
0.0
 10
371.708197
 20
1116.726795
 30
0.0
 10
372.084095
 20
1116.726795
 30
0.0
  0
SPLINE
  5
10d
100
AcDbEntity
  8
0
 62
7
100
AcDbSpline
 70
8
 71
3
 72
8
 73
4
 74
0
 40
0
 40
0
 40
0
 40
0
 40
1
 40
1
 40
1
 40
1
 10
839.800630
 20
1116.726795
 30
0.0
 10
840.176527
 20
1116.726795
 30
0.0
 10
840.537029
 20
1116.577470
 30
0.0
 10
840.802828
 20
1116.311671
 30
0.0
  0
SPLINE
  5
10e
100
AcDbEntity
  8
0
 62
7
100
AcDbSpline
 70
8
 71
3
 72
8
 73
4
 74
0
 40
0
 40
0
 40
0
 40
0
 40
1
 40
1
 40
1
 40
1
 10
840.802828
 20
1116.311671
 30
0.0
 10
841.068628
 20
1116.045871
 30
0.0
 10
841.217953
 20
1115.685369
 30
0.0
 10
841.217953
 20
1115.309472
 30
0.0
  0
SPLINE
  5
10f
100
AcDbEntity
  8
0
 62
7
100
AcDbSpline
 70
8
 71
3
 72
8
 73
4
 74
0
 40
0
 40
0
 40
0
 40
0
 40
1
 40
1
 40
1
 40
1
 10
841.217953
 20
1115.309472
 30
0.0
 10
841.217953
 20
1115.309472
 30
0.0
 10
841.217953
 20
829.010259
 30
0.0
 10
841.217953
 20
829.010259
 30
0.0
  0
SPLINE
  5
110
100
AcDbEntity
  8
0
 62
7
100
AcDbSpline
 70
8
 71
3
 72
8
 73
4
 74
0
 40
0
 40
0
 40
0
 40
0
 40
1
 40
1
 40
1
 40
1
 10
841.217953
 20
829.010259
 30
0.0
 10
841.217952
 20
828.227493
 30
0.0
 10
840.583395
 20
827.592937
 30
0.0
 10
839.800630
 20
827.592937
 30
0.0
  0
LWPOLYLINE
  5
111
100
AcDbEntity
  8
0
 62
7
100
AcDbPolyline
 90
2
 70
0
 10
372.084095
 20
1116.726795
 30
0.0
 10
839.800630
 20
1116.726795
 30
0.0
  0
SPLINE
  5
112
100
AcDbEntity
  8
0
 62
7
100
AcDbSpline
 70
8
 71
3
 72
8
 73
4
 74
0
 40
0
 40
0
 40
0
 40
0
 40
1
 40
1
 40
1
 40
1
 10
620.115590
 20
701.175035
 30
0.0
 10
620.116755
 20
706.239419
 30
0.0
 10
617.415608
 20
710.919600
 30
0.0
 10
613.029918
 20
713.452128
 30
0.0
  0
SPLINE
  5
113
100
AcDbEntity
  8
0
 62
7
100
AcDbSpline
 70
8
 71
3
 72
8
 73
4
 74
0
 40
0
 40
0
 40
0
 40
0
 40
1
 40
1
 40
1
 40
1
 10
613.029918
 20
713.452128
 30
0.0
 10
608.644227
 20
715.984656
 30
0.0
 10
603.240497
 20
715.984656
 30
0.0
 10
598.854807
 20
713.452128
 30
0.0
  0
SPLINE
  5
114
100
AcDbEntity
  8
0
 62
7
100
AcDbSpline
 70
8
 71
3
 72
8
 73
4
 74
0
 40
0
 40
0
 40
0
 40
0
 40
1
 40
1
 40
1
 40
1
 10
598.854807
 20
713.452128
 30
0.0
 10
594.469116
 20
710.919600
 30
0.0
 10
591.767969
 20
706.239419
 30
0.0
 10
591.769134
 20
701.175035
 30
0.0
  0
SPLINE
  5
115
100
AcDbEntity
  8
0
 62
7
100
AcDbSpline
 70
8
 71
3
 72
8
 73
4
 74
0
 40
0
 40
0
 40
0
 40
0
 40
1
 40
1
 40
1
 40
1
 10
591.769134
 20
701.175035
 30
0.0
 10
591.767969
 20
696.110652
 30
0.0
 10
594.469116
 20
691.430470
 30
0.0
 10
598.854807
 20
688.897942
 30
0.0
  0
SPLINE
  5
116
100
AcDbEntity
  8
0
 62
7
100
AcDbSpline
 70
8
 71
3
 72
8
 73
4
 74
0
 40
0
 40
0
 40
0
 40
0
 40
1
 40
1
 40
1
 40
1
 10
598.854807
 20
688.897942
 30
0.0
 10
603.240497
 20
686.365414
 30
0.0
 10
608.644227
 20
686.365414
 30
0.0
 10
613.029918
 20
688.897942
 30
0.0
  0
SPLINE
  5
117
100
AcDbEntity
  8
0
 62
7
100
AcDbSpline
 70
8
 71
3
 72
8
 73
4
 74
0
 40
0
 40
0
 40
0
 40
0
 40
1
 40
1
 40
1
 40
1
 10
613.029918
 20
688.897942
 30
0.0
 10
617.415608
 20
691.430470
 30
0.0
 10
620.116755
 20
696.110652
 30
0.0
 10
620.115590
 20
701.175035
 30
0.0
  0
LWPOLYLINE
  5
118
100
AcDbEntity
  8
0
 62
7
100
AcDbPolyline
 90
1
 70
1
 10
839.800630
 20
827.592937
 30
0.0
  0
SPLINE
  5
119
100
AcDbEntity
  8
0
 62
7
100
AcDbSpline
 70
8
 71
3
 72
8
 73
4
 74
0
 40
0
 40
0
 40
0
 40
0
 40
1
 40
1
 40
1
 40
1
 10
855.286979
 20
1197.648358
 30
0.0
 10
855.286979
 20
1199.167440
 30
0.0
 10
854.476558
 20
1200.571129
 30
0.0
 10
853.160995
 20
1201.330670
 30
0.0
  0
SPLINE
  5
11a
100
AcDbEntity
  8
0
 62
7
100
AcDbSpline
 70
8
 71
3
 72
8
 73
4
 74
0
 40
0
 40
0
 40
0
 40
0
 40
1
 40
1
 40
1
 40
1
 10
853.160995
 20
1201.330670
 30
0.0
 10
851.845431
 20
1202.090211
 30
0.0
 10
850.224590
 20
1202.090211
 30
0.0
 10
848.909026
 20
1201.330670
 30
0.0
  0
SPLINE
  5
11b
100
AcDbEntity
  8
0
 62
7
100
AcDbSpline
 70
8
 71
3
 72
8
 73
4
 74
0
 40
0
 40
0
 40
0
 40
0
 40
1
 40
1
 40
1
 40
1
 10
848.909026
 20
1201.330670
 30
0.0
 10
847.593463
 20
1200.571129
 30
0.0
 10
846.783042
 20
1199.167440
 30
0.0
 10
846.783043
 20
1197.648358
 30
0.0
  0
SPLINE
  5
11c
100
AcDbEntity
  8
0
 62
7
100
AcDbSpline
 70
8
 71
3
 72
8
 73
4
 74
0
 40
0
 40
0
 40
0
 40
0
 40
1
 40
1
 40
1
 40
1
 10
846.783043
 20
1197.648358
 30
0.0
 10
846.783043
 20
1196.129276
 30
0.0
 10
847.593463
 20
1194.725586
 30
0.0
 10
848.909027
 20
1193.966045
 30
0.0
  0
SPLINE
  5
11d
100
AcDbEntity
  8
0
 62
7
100
AcDbSpline
 70
8
 71
3
 72
8
 73
4
 74
0
 40
0
 40
0
 40
0
 40
0
 40
1
 40
1
 40
1
 40
1
 10
848.909027
 20
1193.966045
 30
0.0
 10
850.224590
 20
1193.206504
 30
0.0
 10
851.845431
 20
1193.206504
 30
0.0
 10
853.160995
 20
1193.966045
 30
0.0
  0
SPLINE
  5
11e
100
AcDbEntity
  8
0
 62
7
100
AcDbSpline
 70
8
 71
3
 72
8
 73
4
 74
0
 40
0
 40
0
 40
0
 40
0
 40
1
 40
1
 40
1
 40
1
 10
853.160995
 20
1193.966045
 30
0.0
 10
854.476558
 20
1194.725586
 30
0.0
 10
855.286979
 20
1196.129276
 30
0.0
 10
855.286979
 20
1197.648358
 30
0.0
  0
LWPOLYLINE
  5
11f
100
AcDbEntity
  8
0
 62
7
100
AcDbPolyline
 90
1
 70
1
 10
620.115590
 20
701.175035
 30
0.0
  0
SPLINE
  5
120
100
AcDbEntity
  8
0
 62
7
100
AcDbSpline
 70
8
 71
3
 72
8
 73
4
 74
0
 40
0
 40
0
 40
0
 40
0
 40
1
 40
1
 40
1
 40
1
 10
365.101682
 20
1197.648358
 30
0.0
 10
365.101682
 20
1199.167440
 30
0.0
 10
364.291262
 20
1200.571129
 30
0.0
 10
362.975698
 20
1201.330670
 30
0.0
  0
SPLINE
  5
121
100
AcDbEntity
  8
0
 62
7
100
AcDbSpline
 70
8
 71
3
 72
8
 73
4
 74
0
 40
0
 40
0
 40
0
 40
0
 40
1
 40
1
 40
1
 40
1
 10
362.975698
 20
1201.330670
 30
0.0
 10
361.660135
 20
1202.090211
 30
0.0
 10
360.039293
 20
1202.090211
 30
0.0
 10
358.723730
 20
1201.330670
 30
0.0
  0
SPLINE
  5
122
100
AcDbEntity
  8
0
 62
7
100
AcDbSpline
 70
8
 71
3
 72
8
 73
4
 74
0
 40
0
 40
0
 40
0
 40
0
 40
1
 40
1
 40
1
 40
1
 10
358.723730
 20
1201.330670
 30
0.0
 10
357.408166
 20
1200.571129
 30
0.0
 10
356.597746
 20
1199.167440
 30
0.0
 10
356.597746
 20
1197.648358
 30
0.0
  0
SPLINE
  5
123
100
AcDbEntity
  8
0
 62
7
100
AcDbSpline
 70
8
 71
3
 72
8
 73
4
 74
0
 40
0
 40
0
 40
0
 40
0
 40
1
 40
1
 40
1
 40
1
 10
356.597746
 20
1197.648358
 30
0.0
 10
356.597746
 20
1196.129276
 30
0.0
 10
357.408166
 20
1194.725586
 30
0.0
 10
358.723730
 20
1193.966045
 30
0.0
  0
SPLINE
  5
124
100
AcDbEntity
  8
0
 62
7
100
AcDbSpline
 70
8
 71
3
 72
8
 73
4
 74
0
 40
0
 40
0
 40
0
 40
0
 40
1
 40
1
 40
1
 40
1
 10
358.723730
 20
1193.966045
 30
0.0
 10
360.039293
 20
1193.206504
 30
0.0
 10
361.660135
 20
1193.206504
 30
0.0
 10
362.975698
 20
1193.966045
 30
0.0
  0
SPLINE
  5
125
100
AcDbEntity
  8
0
 62
7
100
AcDbSpline
 70
8
 71
3
 72
8
 73
4
 74
0
 40
0
 40
0
 40
0
 40
0
 40
1
 40
1
 40
1
 40
1
 10
362.975698
 20
1193.966045
 30
0.0
 10
364.291262
 20
1194.725586
 30
0.0
 10
365.101682
 20
1196.129276
 30
0.0
 10
365.101682
 20
1197.648358
 30
0.0
  0
LWPOLYLINE
  5
126
100
AcDbEntity
  8
0
 62
7
100
AcDbPolyline
 90
1
 70
1
 10
855.286979
 20
1197.648358
 30
0.0
  0
SPLINE
  5
127
100
AcDbEntity
  8
0
 62
7
100
AcDbSpline
 70
8
 71
3
 72
8
 73
4
 74
0
 40
0
 40
0
 40
0
 40
0
 40
1
 40
1
 40
1
 40
1
 10
18.488335
 20
851.035010
 30
0.0
 10
18.488335
 20
852.554092
 30
0.0
 10
17.677915
 20
853.957782
 30
0.0
 10
16.362351
 20
854.717323
 30
0.0
  0
SPLINE
  5
128
100
AcDbEntity
  8
0
 62
7
100
AcDbSpline
 70
8
 71
3
 72
8
 73
4
 74
0
 40
0
 40
0
 40
0
 40
0
 40
1
 40
1
 40
1
 40
1
 10
16.362351
 20
854.717323
 30
0.0
 10
15.046787
 20
855.476864
 30
0.0
 10
13.425946
 20
855.476864
 30
0.0
 10
12.110383
 20
854.717323
 30
0.0
  0
SPLINE
  5
129
100
AcDbEntity
  8
0
 62
7
100
AcDbSpline
 70
8
 71
3
 72
8
 73
4
 74
0
 40
0
 40
0
 40
0
 40
0
 40
1
 40
1
 40
1
 40
1
 10
12.110383
 20
854.717323
 30
0.0
 10
10.794819
 20
853.957782
 30
0.0
 10
9.984399
 20
852.554092
 30
0.0
 10
9.984399
 20
851.035010
 30
0.0
  0
SPLINE
  5
12a
100
AcDbEntity
  8
0
 62
7
100
AcDbSpline
 70
8
 71
3
 72
8
 73
4
 74
0
 40
0
 40
0
 40
0
 40
0
 40
1
 40
1
 40
1
 40
1
 10
9.984399
 20
851.035010
 30
0.0
 10
9.984399
 20
849.515928
 30
0.0
 10
10.794819
 20
848.112239
 30
0.0
 10
12.110383
 20
847.352698
 30
0.0
  0
SPLINE
  5
12b
100
AcDbEntity
  8
0
 62
7
100
AcDbSpline
 70
8
 71
3
 72
8
 73
4
 74
0
 40
0
 40
0
 40
0
 40
0
 40
1
 40
1
 40
1
 40
1
 10
12.110383
 20
847.352698
 30
0.0
 10
13.425946
 20
846.593157
 30
0.0
 10
15.046788
 20
846.593157
 30
0.0
 10
16.362351
 20
847.352698
 30
0.0
  0
SPLINE
  5
12c
100
AcDbEntity
  8
0
 62
7
100
AcDbSpline
 70
8
 71
3
 72
8
 73
4
 74
0
 40
0
 40
0
 40
0
 40
0
 40
1
 40
1
 40
1
 40
1
 10
16.362351
 20
847.352698
 30
0.0
 10
17.677915
 20
848.112239
 30
0.0
 10
18.488335
 20
849.515928
 30
0.0
 10
18.488335
 20
851.035010
 30
0.0
  0
LWPOLYLINE
  5
12d
100
AcDbEntity
  8
0
 62
7
100
AcDbPolyline
 90
1
 70
1
 10
365.101682
 20
1197.648358
 30
0.0
  0
SPLINE
  5
12e
100
AcDbEntity
  8
0
 62
7
100
AcDbSpline
 70
8
 71
3
 72
8
 73
4
 74
0
 40
0
 40
0
 40
0
 40
0
 40
1
 40
1
 40
1
 40
1
 10
18.488335
 20
360.849714
 30
0.0
 10
18.488335
 20
362.368796
 30
0.0
 10
17.677915
 20
363.772486
 30
0.0
 10
16.362351
 20
364.532027
 30
0.0
  0
SPLINE
  5
12f
100
AcDbEntity
  8
0
 62
7
100
AcDbSpline
 70
8
 71
3
 72
8
 73
4
 74
0
 40
0
 40
0
 40
0
 40
0
 40
1
 40
1
 40
1
 40
1
 10
16.362351
 20
364.532027
 30
0.0
 10
15.046787
 20
365.291568
 30
0.0
 10
13.425946
 20
365.291568
 30
0.0
 10
12.110383
 20
364.532027
 30
0.0
  0
SPLINE
  5
130
100
AcDbEntity
  8
0
 62
7
100
AcDbSpline
 70
8
 71
3
 72
8
 73
4
 74
0
 40
0
 40
0
 40
0
 40
0
 40
1
 40
1
 40
1
 40
1
 10
12.110383
 20
364.532027
 30
0.0
 10
10.794819
 20
363.772486
 30
0.0
 10
9.984399
 20
362.368796
 30
0.0
 10
9.984399
 20
360.849714
 30
0.0
  0
SPLINE
  5
131
100
AcDbEntity
  8
0
 62
7
100
AcDbSpline
 70
8
 71
3
 72
8
 73
4
 74
0
 40
0
 40
0
 40
0
 40
0
 40
1
 40
1
 40
1
 40
1
 10
9.984399
 20
360.849714
 30
0.0
 10
9.984399
 20
359.330632
 30
0.0
 10
10.794819
 20
357.926942
 30
0.0
 10
12.110383
 20
357.167402
 30
0.0
  0
SPLINE
  5
132
100
AcDbEntity
  8
0
 62
7
100
AcDbSpline
 70
8
 71
3
 72
8
 73
4
 74
0
 40
0
 40
0
 40
0
 40
0
 40
1
 40
1
 40
1
 40
1
 10
12.110383
 20
357.167402
 30
0.0
 10
13.425946
 20
356.407861
 30
0.0
 10
15.046788
 20
356.407861
 30
0.0
 10
16.362351
 20
357.167402
 30
0.0
  0
SPLINE
  5
133
100
AcDbEntity
  8
0
 62
7
100
AcDbSpline
 70
8
 71
3
 72
8
 73
4
 74
0
 40
0
 40
0
 40
0
 40
0
 40
1
 40
1
 40
1
 40
1
 10
16.362351
 20
357.167402
 30
0.0
 10
17.677915
 20
357.926942
 30
0.0
 10
18.488335
 20
359.330632
 30
0.0
 10
18.488335
 20
360.849714
 30
0.0
  0
LWPOLYLINE
  5
134
100
AcDbEntity
  8
0
 62
7
100
AcDbPolyline
 90
1
 70
1
 10
18.488335
 20
851.035010
 30
0.0
  0
SPLINE
  5
135
100
AcDbEntity
  8
0
 62
7
100
AcDbSpline
 70
8
 71
3
 72
8
 73
4
 74
0
 40
0
 40
0
 40
0
 40
0
 40
1
 40
1
 40
1
 40
1
 10
365.101682
 20
14.236367
 30
0.0
 10
365.101682
 20
15.755448
 30
0.0
 10
364.291262
 20
17.159138
 30
0.0
 10
362.975698
 20
17.918679
 30
0.0
  0
SPLINE
  5
136
100
AcDbEntity
  8
0
 62
7
100
AcDbSpline
 70
8
 71
3
 72
8
 73
4
 74
0
 40
0
 40
0
 40
0
 40
0
 40
1
 40
1
 40
1
 40
1
 10
362.975698
 20
17.918679
 30
0.0
 10
361.660135
 20
18.678220
 30
0.0
 10
360.039293
 20
18.678220
 30
0.0
 10
358.723730
 20
17.918679
 30
0.0
  0
SPLINE
  5
137
100
AcDbEntity
  8
0
 62
7
100
AcDbSpline
 70
8
 71
3
 72
8
 73
4
 74
0
 40
0
 40
0
 40
0
 40
0
 40
1
 40
1
 40
1
 40
1
 10
358.723730
 20
17.918679
 30
0.0
 10
357.408166
 20
17.159138
 30
0.0
 10
356.597746
 20
15.755448
 30
0.0
 10
356.597746
 20
14.236367
 30
0.0
  0
SPLINE
  5
138
100
AcDbEntity
  8
0
 62
7
100
AcDbSpline
 70
8
 71
3
 72
8
 73
4
 74
0
 40
0
 40
0
 40
0
 40
0
 40
1
 40
1
 40
1
 40
1
 10
356.597746
 20
14.236367
 30
0.0
 10
356.597746
 20
12.717285
 30
0.0
 10
357.408166
 20
11.313595
 30
0.0
 10
358.723730
 20
10.554054
 30
0.0
  0
SPLINE
  5
139
100
AcDbEntity
  8
0
 62
7
100
AcDbSpline
 70
8
 71
3
 72
8
 73
4
 74
0
 40
0
 40
0
 40
0
 40
0
 40
1
 40
1
 40
1
 40
1
 10
358.723730
 20
10.554054
 30
0.0
 10
360.039293
 20
9.794513
 30
0.0
 10
361.660135
 20
9.794513
 30
0.0
 10
362.975698
 20
10.554054
 30
0.0
  0
SPLINE
  5
13a
100
AcDbEntity
  8
0
 62
7
100
AcDbSpline
 70
8
 71
3
 72
8
 73
4
 74
0
 40
0
 40
0
 40
0
 40
0
 40
1
 40
1
 40
1
 40
1
 10
362.975698
 20
10.554054
 30
0.0
 10
364.291262
 20
11.313595
 30
0.0
 10
365.101682
 20
12.717285
 30
0.0
 10
365.101682
 20
14.236367
 30
0.0
  0
LWPOLYLINE
  5
13b
100
AcDbEntity
  8
0
 62
7
100
AcDbPolyline
 90
1
 70
1
 10
18.488335
 20
360.849714
 30
0.0
  0
SPLINE
  5
13c
100
AcDbEntity
  8
0
 62
7
100
AcDbSpline
 70
8
 71
3
 72
8
 73
4
 74
0
 40
0
 40
0
 40
0
 40
0
 40
1
 40
1
 40
1
 40
1
 10
855.286979
 20
14.236367
 30
0.0
 10
855.286979
 20
15.755448
 30
0.0
 10
854.476558
 20
17.159138
 30
0.0
 10
853.160995
 20
17.918679
 30
0.0
  0
SPLINE
  5
13d
100
AcDbEntity
  8
0
 62
7
100
AcDbSpline
 70
8
 71
3
 72
8
 73
4
 74
0
 40
0
 40
0
 40
0
 40
0
 40
1
 40
1
 40
1
 40
1
 10
853.160995
 20
17.918679
 30
0.0
 10
851.845431
 20
18.678220
 30
0.0
 10
850.224590
 20
18.678220
 30
0.0
 10
848.909026
 20
17.918679
 30
0.0
  0
SPLINE
  5
13e
100
AcDbEntity
  8
0
 62
7
100
AcDbSpline
 70
8
 71
3
 72
8
 73
4
 74
0
 40
0
 40
0
 40
0
 40
0
 40
1
 40
1
 40
1
 40
1
 10
848.909026
 20
17.918679
 30
0.0
 10
847.593463
 20
17.159138
 30
0.0
 10
846.783042
 20
15.755448
 30
0.0
 10
846.783043
 20
14.236367
 30
0.0
  0
SPLINE
  5
13f
100
AcDbEntity
  8
0
 62
7
100
AcDbSpline
 70
8
 71
3
 72
8
 73
4
 74
0
 40
0
 40
0
 40
0
 40
0
 40
1
 40
1
 40
1
 40
1
 10
846.783043
 20
14.236367
 30
0.0
 10
846.783043
 20
12.717285
 30
0.0
 10
847.593463
 20
11.313595
 30
0.0
 10
848.909027
 20
10.554054
 30
0.0
  0
SPLINE
  5
140
100
AcDbEntity
  8
0
 62
7
100
AcDbSpline
 70
8
 71
3
 72
8
 73
4
 74
0
 40
0
 40
0
 40
0
 40
0
 40
1
 40
1
 40
1
 40
1
 10
848.909027
 20
10.554054
 30
0.0
 10
850.224590
 20
9.794513
 30
0.0
 10
851.845431
 20
9.794513
 30
0.0
 10
853.160995
 20
10.554054
 30
0.0
  0
SPLINE
  5
141
100
AcDbEntity
  8
0
 62
7
100
AcDbSpline
 70
8
 71
3
 72
8
 73
4
 74
0
 40
0
 40
0
 40
0
 40
0
 40
1
 40
1
 40
1
 40
1
 10
853.160995
 20
10.554054
 30
0.0
 10
854.476558
 20
11.313595
 30
0.0
 10
855.286979
 20
12.717285
 30
0.0
 10
855.286979
 20
14.236367
 30
0.0
  0
LWPOLYLINE
  5
142
100
AcDbEntity
  8
0
 62
7
100
AcDbPolyline
 90
1
 70
1
 10
365.101682
 20
14.236367
 30
0.0
  0
SPLINE
  5
143
100
AcDbEntity
  8
0
 62
7
100
AcDbSpline
 70
8
 71
3
 72
8
 73
4
 74
0
 40
0
 40
0
 40
0
 40
0
 40
1
 40
1
 40
1
 40
1
 10
1201.900326
 20
360.849714
 30
0.0
 10
1201.900326
 20
362.368796
 30
0.0
 10
1201.089905
 20
363.772486
 30
0.0
 10
1199.774342
 20
364.532027
 30
0.0
  0
SPLINE
  5
144
100
AcDbEntity
  8
0
 62
7
100
AcDbSpline
 70
8
 71
3
 72
8
 73
4
 74
0
 40
0
 40
0
 40
0
 40
0
 40
1
 40
1
 40
1
 40
1
 10
1199.774342
 20
364.532027
 30
0.0
 10
1198.458778
 20
365.291568
 30
0.0
 10
1196.837937
 20
365.291568
 30
0.0
 10
1195.522373
 20
364.532027
 30
0.0
  0
SPLINE
  5
145
100
AcDbEntity
  8
0
 62
7
100
AcDbSpline
 70
8
 71
3
 72
8
 73
4
 74
0
 40
0
 40
0
 40
0
 40
0
 40
1
 40
1
 40
1
 40
1
 10
1195.522373
 20
364.532027
 30
0.0
 10
1194.206810
 20
363.772486
 30
0.0
 10
1193.396389
 20
362.368796
 30
0.0
 10
1193.396389
 20
360.849714
 30
0.0
  0
SPLINE
  5
146
100
AcDbEntity
  8
0
 62
7
100
AcDbSpline
 70
8
 71
3
 72
8
 73
4
 74
0
 40
0
 40
0
 40
0
 40
0
 40
1
 40
1
 40
1
 40
1
 10
1193.396389
 20
360.849714
 30
0.0
 10
1193.396389
 20
359.330632
 30
0.0
 10
1194.206810
 20
357.926942
 30
0.0
 10
1195.522373
 20
357.167402
 30
0.0
  0
SPLINE
  5
147
100
AcDbEntity
  8
0
 62
7
100
AcDbSpline
 70
8
 71
3
 72
8
 73
4
 74
0
 40
0
 40
0
 40
0
 40
0
 40
1
 40
1
 40
1
 40
1
 10
1195.522373
 20
357.167402
 30
0.0
 10
1196.837937
 20
356.407861
 30
0.0
 10
1198.458778
 20
356.407861
 30
0.0
 10
1199.774342
 20
357.167402
 30
0.0
  0
SPLINE
  5
148
100
AcDbEntity
  8
0
 62
7
100
AcDbSpline
 70
8
 71
3
 72
8
 73
4
 74
0
 40
0
 40
0
 40
0
 40
0
 40
1
 40
1
 40
1
 40
1
 10
1199.774342
 20
357.167402
 30
0.0
 10
1201.089905
 20
357.926942
 30
0.0
 10
1201.900326
 20
359.330632
 30
0.0
 10
1201.900326
 20
360.849714
 30
0.0
  0
LWPOLYLINE
  5
149
100
AcDbEntity
  8
0
 62
7
100
AcDbPolyline
 90
1
 70
1
 10
855.286979
 20
14.236367
 30
0.0
  0
SPLINE
  5
14a
100
AcDbEntity
  8
0
 62
7
100
AcDbSpline
 70
8
 71
3
 72
8
 73
4
 74
0
 40
0
 40
0
 40
0
 40
0
 40
1
 40
1
 40
1
 40
1
 10
1201.900326
 20
851.035010
 30
0.0
 10
1201.900326
 20
852.554092
 30
0.0
 10
1201.089905
 20
853.957782
 30
0.0
 10
1199.774342
 20
854.717323
 30
0.0
  0
SPLINE
  5
14b
100
AcDbEntity
  8
0
 62
7
100
AcDbSpline
 70
8
 71
3
 72
8
 73
4
 74
0
 40
0
 40
0
 40
0
 40
0
 40
1
 40
1
 40
1
 40
1
 10
1199.774342
 20
854.717323
 30
0.0
 10
1198.458778
 20
855.476864
 30
0.0
 10
1196.837937
 20
855.476864
 30
0.0
 10
1195.522373
 20
854.717323
 30
0.0
  0
SPLINE
  5
14c
100
AcDbEntity
  8
0
 62
7
100
AcDbSpline
 70
8
 71
3
 72
8
 73
4
 74
0
 40
0
 40
0
 40
0
 40
0
 40
1
 40
1
 40
1
 40
1
 10
1195.522373
 20
854.717323
 30
0.0
 10
1194.206810
 20
853.957782
 30
0.0
 10
1193.396389
 20
852.554092
 30
0.0
 10
1193.396389
 20
851.035010
 30
0.0
  0
SPLINE
  5
14d
100
AcDbEntity
  8
0
 62
7
100
AcDbSpline
 70
8
 71
3
 72
8
 73
4
 74
0
 40
0
 40
0
 40
0
 40
0
 40
1
 40
1
 40
1
 40
1
 10
1193.396389
 20
851.035010
 30
0.0
 10
1193.396389
 20
849.515928
 30
0.0
 10
1194.206810
 20
848.112239
 30
0.0
 10
1195.522373
 20
847.352698
 30
0.0
  0
SPLINE
  5
14e
100
AcDbEntity
  8
0
 62
7
100
AcDbSpline
 70
8
 71
3
 72
8
 73
4
 74
0
 40
0
 40
0
 40
0
 40
0
 40
1
 40
1
 40
1
 40
1
 10
1195.522373
 20
847.352698
 30
0.0
 10
1196.837937
 20
846.593157
 30
0.0
 10
1198.458778
 20
846.593157
 30
0.0
 10
1199.774342
 20
847.352698
 30
0.0
  0
SPLINE
  5
14f
100
AcDbEntity
  8
0
 62
7
100
AcDbSpline
 70
8
 71
3
 72
8
 73
4
 74
0
 40
0
 40
0
 40
0
 40
0
 40
1
 40
1
 40
1
 40
1
 10
1199.774342
 20
847.352698
 30
0.0
 10
1201.089905
 20
848.112239
 30
0.0
 10
1201.900326
 20
849.515928
 30
0.0
 10
1201.900326
 20
851.035010
 30
0.0
  0
LWPOLYLINE
  5
150
100
AcDbEntity
  8
0
 62
7
100
AcDbPolyline
 90
1
 70
1
 10
1201.900326
 20
360.849714
 30
0.0
  0
LWPOLYLINE
  5
151
100
AcDbEntity
  8
0
 62
7
100
AcDbPolyline
 90
1
 70
1
 10
1201.900326
 20
851.035010
 30
0.0
  0
LWPOLYLINE
  5
152
100
AcDbEntity
  8
0
 62
7
100
AcDbPolyline
 90
2
 70
0
 10
1211.884724
 20
840.772098
 30
0.0
 10
1211.884724
 20
812.425642
 30
0.0
  0
LWPOLYLINE
  5
153
100
AcDbEntity
  8
0
 62
7
100
AcDbPolyline
 90
3
 70
0
 10
1197.711496
 20
812.425642
 30
0.0
 10
1197.711496
 20
729.832330
 30
0.0
 10
1211.884724
 20
729.832330
 30
0.0
  0
LWPOLYLINE
  5
154
100
AcDbEntity
  8
0
 62
7
100
AcDbPolyline
 90
4
 70
0
 10
1211.884724
 20
647.239018
 30
0.0
 10
1197.711496
 20
647.239018
 30
0.0
 10
1197.711496
 20
564.645707
 30
0.0
 10
1211.884724
 20
564.645707
 30
0.0
  0
LWPOLYLINE
  5
155
100
AcDbEntity
  8
0
 62
7
100
AcDbPolyline
 90
4
 70
0
 10
1211.884724
 20
482.052395
 30
0.0
 10
1197.711496
 20
482.052395
 30
0.0
 10
1197.711496
 20
399.459083
 30
0.0
 10
1211.884724
 20
399.459083
 30
0.0
  0
LWPOLYLINE
  5
156
100
AcDbEntity
  8
0
 62
7
100
AcDbPolyline
 90
2
 70
0
 10
1197.711496
 20
812.425642
 30
0.0
 10
1211.884724
 20
812.425642
 30
0.0
  0
LWPOLYLINE
  5
157
100
AcDbEntity
  8
0
 62
7
100
AcDbPolyline
 90
2
 70
0
 10
1211.884724
 20
482.052395
 30
0.0
 10
1211.884724
 20
564.645707
 30
0.0
  0
LWPOLYLINE
  5
158
100
AcDbEntity
  8
0
 62
7
100
AcDbPolyline
 90
2
 70
0
 10
1211.884724
 20
647.239018
 30
0.0
 10
1211.884724
 20
729.832330
 30
0.0
  0
LWPOLYLINE
  5
159
100
AcDbEntity
  8
0
 62
7
100
AcDbPolyline
 90
2
 70
0
 10
1211.884724
 20
399.459083
 30
0.0
 10
1211.884724
 20
371.112626
 30
0.0
  0
LWPOLYLINE
  5
15a
100
AcDbEntity
  8
0
 62
7
100
AcDbPolyline
 90
2
 70
0
 10
868.358617
 20
1200.458015
 30
0.0
 10
888.402589
 20
1180.414043
 30
0.0
  0
LWPOLYLINE
  5
15b
100
AcDbEntity
  8
0
 62
7
100
AcDbPolyline
 90
3
 70
0
 10
878.380603
 20
1170.392057
 30
0.0
 10
936.782894
 20
1111.989766
 30
0.0
 10
946.804879
 20
1122.011752
 30
0.0
  0
LWPOLYLINE
  5
15c
100
AcDbEntity
  8
0
 62
7
100
AcDbPolyline
 90
2
 70
0
 10
1005.207170
 20
1063.609461
 30
0.0
 10
946.804879
 20
1122.011752
 30
0.0
  0
LWPOLYLINE
  5
15d
100
AcDbEntity
  8
0
 62
7
100
AcDbPolyline
 90
4
 70
0
 10
1005.207170
 20
1063.609461
 30
0.0
 10
995.185184
 20
1053.587475
 30
0.0
 10
1053.587475
 20
995.185184
 30
0.0
 10
1063.609461
 20
1005.207170
 30
0.0
  0
LWPOLYLINE
  5
15e
100
AcDbEntity
  8
0
 62
7
100
AcDbPolyline
 90
2
 70
0
 10
1122.011752
 20
946.804880
 30
0.0
 10
1063.609461
 20
1005.207170
 30
0.0
  0
LWPOLYLINE
  5
15f
100
AcDbEntity
  8
0
 62
7
100
AcDbPolyline
 90
2
 70
0
 10
1111.989766
 20
936.782894
 30
0.0
 10
1170.392057
 20
878.380603
 30
0.0
  0
LWPOLYLINE
  5
160
100
AcDbEntity
  8
0
 62
7
100
AcDbPolyline
 90
2
 70
0
 10
1180.414043
 20
888.402589
 30
0.0
 10
1200.458014
 20
868.358617
 30
0.0
  0
LWPOLYLINE
  5
161
100
AcDbEntity
  8
0
 62
7
100
AcDbPolyline
 90
2
 70
0
 10
878.380603
 20
1170.392057
 30
0.0
 10
888.402589
 20
1180.414043
 30
0.0
  0
LWPOLYLINE
  5
162
100
AcDbEntity
  8
0
 62
7
100
AcDbPolyline
 90
2
 70
0
 10
1170.392057
 20
878.380603
 30
0.0
 10
1180.414043
 20
888.402589
 30
0.0
  0
LWPOLYLINE
  5
163
100
AcDbEntity
  8
0
 62
7
100
AcDbPolyline
 90
2
 70
0
 10
1122.011752
 20
946.804880
 30
0.0
 10
1111.989766
 20
936.782894
 30
0.0
  0
LWPOLYLINE
  5
164
100
AcDbEntity
  8
0
 62
7
100
AcDbPolyline
 90
2
 70
0
 10
371.112626
 20
1211.884724
 30
0.0
 10
399.459083
 20
1211.884724
 30
0.0
  0
LWPOLYLINE
  5
165
100
AcDbEntity
  8
0
 62
7
100
AcDbPolyline
 90
3
 70
0
 10
399.459083
 20
1197.711496
 30
0.0
 10
482.052394
 20
1197.711496
 30
0.0
 10
482.052394
 20
1211.884724
 30
0.0
  0
LWPOLYLINE
  5
166
100
AcDbEntity
  8
0
 62
7
100
AcDbPolyline
 90
2
 70
0
 10
564.645706
 20
1211.884724
 30
0.0
 10
482.052394
 20
1211.884724
 30
0.0
  0
LWPOLYLINE
  5
167
100
AcDbEntity
  8
0
 62
7
100
AcDbPolyline
 90
4
 70
0
 10
564.645706
 20
1211.884724
 30
0.0
 10
564.645706
 20
1197.711496
 30
0.0
 10
647.239018
 20
1197.711496
 30
0.0
 10
647.239018
 20
1211.884724
 30
0.0
  0
LWPOLYLINE
  5
168
100
AcDbEntity
  8
0
 62
7
100
AcDbPolyline
 90
2
 70
0
 10
729.832330
 20
1211.884724
 30
0.0
 10
647.239018
 20
1211.884724
 30
0.0
  0
LWPOLYLINE
  5
169
100
AcDbEntity
  8
0
 62
7
100
AcDbPolyline
 90
2
 70
0
 10
729.832330
 20
1197.711496
 30
0.0
 10
812.425642
 20
1197.711496
 30
0.0
  0
LWPOLYLINE
  5
16a
100
AcDbEntity
  8
0
 62
7
100
AcDbPolyline
 90
2
 70
0
 10
812.425642
 20
1211.884724
 30
0.0
 10
840.772098
 20
1211.884724
 30
0.0
  0
LWPOLYLINE
  5
16b
100
AcDbEntity
  8
0
 62
7
100
AcDbPolyline
 90
2
 70
0
 10
399.459083
 20
1197.711496
 30
0.0
 10
399.459083
 20
1211.884724
 30
0.0
  0
LWPOLYLINE
  5
16c
100
AcDbEntity
  8
0
 62
7
100
AcDbPolyline
 90
2
 70
0
 10
812.425642
 20
1197.711496
 30
0.0
 10
812.425642
 20
1211.884724
 30
0.0
  0
LWPOLYLINE
  5
16d
100
AcDbEntity
  8
0
 62
7
100
AcDbPolyline
 90
2
 70
0
 10
729.832330
 20
1211.884724
 30
0.0
 10
729.832330
 20
1197.711496
 30
0.0
  0
LWPOLYLINE
  5
16e
100
AcDbEntity
  8
0
 62
7
100
AcDbPolyline
 90
2
 70
0
 10
11.426710
 20
868.358617
 30
0.0
 10
31.470682
 20
888.402589
 30
0.0
  0
LWPOLYLINE
  5
16f
100
AcDbEntity
  8
0
 62
7
100
AcDbPolyline
 90
3
 70
0
 10
41.492668
 20
878.380603
 30
0.0
 10
99.894959
 20
936.782894
 30
0.0
 10
89.872973
 20
946.804880
 30
0.0
  0
LWPOLYLINE
  5
170
100
AcDbEntity
  8
0
 62
7
100
AcDbPolyline
 90
2
 70
0
 10
148.275263
 20
1005.207170
 30
0.0
 10
89.872973
 20
946.804880
 30
0.0
  0
LWPOLYLINE
  5
171
100
AcDbEntity
  8
0
 62
7
100
AcDbPolyline
 90
4
 70
0
 10
148.275263
 20
1005.207170
 30
0.0
 10
158.297249
 20
995.185184
 30
0.0
 10
216.699540
 20
1053.587475
 30
0.0
 10
206.677554
 20
1063.609461
 30
0.0
  0
LWPOLYLINE
  5
172
100
AcDbEntity
  8
0
 62
7
100
AcDbPolyline
 90
2
 70
0
 10
265.079846
 20
1122.011752
 30
0.0
 10
206.677554
 20
1063.609461
 30
0.0
  0
LWPOLYLINE
  5
173
100
AcDbEntity
  8
0
 62
7
100
AcDbPolyline
 90
2
 70
0
 10
275.101831
 20
1111.989766
 30
0.0
 10
333.504121
 20
1170.392057
 30
0.0
  0
LWPOLYLINE
  5
174
100
AcDbEntity
  8
0
 62
7
100
AcDbPolyline
 90
2
 70
0
 10
323.482136
 20
1180.414043
 30
0.0
 10
343.526107
 20
1200.458015
 30
0.0
  0
LWPOLYLINE
  5
175
100
AcDbEntity
  8
0
 62
7
100
AcDbPolyline
 90
2
 70
0
 10
41.492668
 20
878.380603
 30
0.0
 10
31.470682
 20
888.402589
 30
0.0
  0
LWPOLYLINE
  5
176
100
AcDbEntity
  8
0
 62
7
100
AcDbPolyline
 90
2
 70
0
 10
333.504121
 20
1170.392057
 30
0.0
 10
323.482136
 20
1180.414043
 30
0.0
  0
LWPOLYLINE
  5
177
100
AcDbEntity
  8
0
 62
7
100
AcDbPolyline
 90
2
 70
0
 10
265.079846
 20
1122.011752
 30
0.0
 10
275.101831
 20
1111.989766
 30
0.0
  0
LWPOLYLINE
  5
178
100
AcDbEntity
  8
0
 62
7
100
AcDbPolyline
 90
2
 70
0
 10
0.000000
 20
371.112626
 30
0.0
 10
0.000000
 20
399.459083
 30
0.0
  0
LWPOLYLINE
  5
179
100
AcDbEntity
  8
0
 62
7
100
AcDbPolyline
 90
3
 70
0
 10
14.173229
 20
399.459083
 30
0.0
 10
14.173229
 20
482.052395
 30
0.0
 10
0.000000
 20
482.052395
 30
0.0
  0
LWPOLYLINE
  5
17a
100
AcDbEntity
  8
0
 62
7
100
AcDbPolyline
 90
2
 70
0
 10
0.000000
 20
564.645707
 30
0.0
 10
0.000000
 20
482.052395
 30
0.0
  0
LWPOLYLINE
  5
17b
100
AcDbEntity
  8
0
 62
7
100
AcDbPolyline
 90
4
 70
0
 10
0.000000
 20
564.645707
 30
0.0
 10
14.173229
 20
564.645707
 30
0.0
 10
14.173229
 20
647.239018
 30
0.0
 10
0.000000
 20
647.239018
 30
0.0
  0
LWPOLYLINE
  5
17c
100
AcDbEntity
  8
0
 62
7
100
AcDbPolyline
 90
2
 70
0
 10
0.000000
 20
729.832330
 30
0.0
 10
0.000000
 20
647.239018
 30
0.0
  0
LWPOLYLINE
  5
17d
100
AcDbEntity
  8
0
 62
7
100
AcDbPolyline
 90
2
 70
0
 10
14.173229
 20
729.832330
 30
0.0
 10
14.173229
 20
812.425642
 30
0.0
  0
LWPOLYLINE
  5
17e
100
AcDbEntity
  8
0
 62
7
100
AcDbPolyline
 90
2
 70
0
 10
0.000000
 20
812.425642
 30
0.0
 10
0.000000
 20
840.772098
 30
0.0
  0
LWPOLYLINE
  5
17f
100
AcDbEntity
  8
0
 62
7
100
AcDbPolyline
 90
2
 70
0
 10
14.173229
 20
399.459083
 30
0.0
 10
0.000000
 20
399.459083
 30
0.0
  0
LWPOLYLINE
  5
180
100
AcDbEntity
  8
0
 62
7
100
AcDbPolyline
 90
2
 70
0
 10
14.173229
 20
812.425642
 30
0.0
 10
0.000000
 20
812.425642
 30
0.0
  0
LWPOLYLINE
  5
181
100
AcDbEntity
  8
0
 62
7
100
AcDbPolyline
 90
2
 70
0
 10
0.000000
 20
729.832330
 30
0.0
 10
14.173229
 20
729.832330
 30
0.0
  0
LWPOLYLINE
  5
182
100
AcDbEntity
  8
0
 62
7
100
AcDbPolyline
 90
2
 70
0
 10
343.526107
 20
11.426710
 30
0.0
 10
323.482136
 20
31.470682
 30
0.0
  0
LWPOLYLINE
  5
183
100
AcDbEntity
  8
0
 62
7
100
AcDbPolyline
 90
3
 70
0
 10
333.504121
 20
41.492668
 30
0.0
 10
275.101831
 20
99.894959
 30
0.0
 10
265.079846
 20
89.872973
 30
0.0
  0
LWPOLYLINE
  5
184
100
AcDbEntity
  8
0
 62
7
100
AcDbPolyline
 90
2
 70
0
 10
206.677554
 20
148.275263
 30
0.0
 10
265.079846
 20
89.872973
 30
0.0
  0
LWPOLYLINE
  5
185
100
AcDbEntity
  8
0
 62
7
100
AcDbPolyline
 90
4
 70
0
 10
206.677554
 20
148.275263
 30
0.0
 10
216.699540
 20
158.297249
 30
0.0
 10
158.297249
 20
216.699540
 30
0.0
 10
148.275263
 20
206.677554
 30
0.0
  0
LWPOLYLINE
  5
186
100
AcDbEntity
  8
0
 62
7
100
AcDbPolyline
 90
2
 70
0
 10
89.872973
 20
265.079845
 30
0.0
 10
148.275263
 20
206.677554
 30
0.0
  0
LWPOLYLINE
  5
187
100
AcDbEntity
  8
0
 62
7
100
AcDbPolyline
 90
2
 70
0
 10
99.894959
 20
275.101831
 30
0.0
 10
41.492668
 20
333.504122
 30
0.0
  0
LWPOLYLINE
  5
188
100
AcDbEntity
  8
0
 62
7
100
AcDbPolyline
 90
2
 70
0
 10
31.470682
 20
323.482136
 30
0.0
 10
11.426710
 20
343.526108
 30
0.0
  0
LWPOLYLINE
  5
189
100
AcDbEntity
  8
0
 62
7
100
AcDbPolyline
 90
2
 70
0
 10
333.504121
 20
41.492668
 30
0.0
 10
323.482136
 20
31.470682
 30
0.0
  0
LWPOLYLINE
  5
18a
100
AcDbEntity
  8
0
 62
7
100
AcDbPolyline
 90
2
 70
0
 10
41.492668
 20
333.504122
 30
0.0
 10
31.470682
 20
323.482136
 30
0.0
  0
LWPOLYLINE
  5
18b
100
AcDbEntity
  8
0
 62
7
100
AcDbPolyline
 90
2
 70
0
 10
89.872973
 20
265.079845
 30
0.0
 10
99.894959
 20
275.101831
 30
0.0
  0
LWPOLYLINE
  5
18c
100
AcDbEntity
  8
0
 62
7
100
AcDbPolyline
 90
2
 70
0
 10
840.772098
 20
0.000000
 30
0.0
 10
812.425642
 20
0.000000
 30
0.0
  0
LWPOLYLINE
  5
18d
100
AcDbEntity
  8
0
 62
7
100
AcDbPolyline
 90
3
 70
0
 10
812.425642
 20
14.173229
 30
0.0
 10
729.832330
 20
14.173229
 30
0.0
 10
729.832330
 20
0.000000
 30
0.0
  0
LWPOLYLINE
  5
18e
100
AcDbEntity
  8
0
 62
7
100
AcDbPolyline
 90
2
 70
0
 10
647.239018
 20
0.000000
 30
0.0
 10
729.832330
 20
0.000000
 30
0.0
  0
LWPOLYLINE
  5
18f
100
AcDbEntity
  8
0
 62
7
100
AcDbPolyline
 90
4
 70
0
 10
647.239018
 20
0.000000
 30
0.0
 10
647.239018
 20
14.173229
 30
0.0
 10
564.645706
 20
14.173229
 30
0.0
 10
564.645706
 20
0.000000
 30
0.0
  0
LWPOLYLINE
  5
190
100
AcDbEntity
  8
0
 62
7
100
AcDbPolyline
 90
2
 70
0
 10
482.052394
 20
0.000000
 30
0.0
 10
564.645706
 20
0.000000
 30
0.0
  0
LWPOLYLINE
  5
191
100
AcDbEntity
  8
0
 62
7
100
AcDbPolyline
 90
2
 70
0
 10
482.052394
 20
14.173229
 30
0.0
 10
399.459083
 20
14.173229
 30
0.0
  0
LWPOLYLINE
  5
192
100
AcDbEntity
  8
0
 62
7
100
AcDbPolyline
 90
2
 70
0
 10
399.459083
 20
0.000000
 30
0.0
 10
371.112626
 20
0.000000
 30
0.0
  0
LWPOLYLINE
  5
193
100
AcDbEntity
  8
0
 62
7
100
AcDbPolyline
 90
2
 70
0
 10
812.425642
 20
14.173229
 30
0.0
 10
812.425642
 20
0.000000
 30
0.0
  0
LWPOLYLINE
  5
194
100
AcDbEntity
  8
0
 62
7
100
AcDbPolyline
 90
2
 70
0
 10
399.459083
 20
14.173229
 30
0.0
 10
399.459083
 20
0.000000
 30
0.0
  0
LWPOLYLINE
  5
195
100
AcDbEntity
  8
0
 62
7
100
AcDbPolyline
 90
2
 70
0
 10
482.052394
 20
0.000000
 30
0.0
 10
482.052394
 20
14.173229
 30
0.0
  0
LWPOLYLINE
  5
196
100
AcDbEntity
  8
0
 62
7
100
AcDbPolyline
 90
2
 70
0
 10
1200.458014
 20
343.526108
 30
0.0
 10
1180.414043
 20
323.482136
 30
0.0
  0
LWPOLYLINE
  5
197
100
AcDbEntity
  8
0
 62
7
100
AcDbPolyline
 90
3
 70
0
 10
1170.392057
 20
333.504122
 30
0.0
 10
1111.989766
 20
275.101831
 30
0.0
 10
1122.011752
 20
265.079845
 30
0.0
  0
LWPOLYLINE
  5
198
100
AcDbEntity
  8
0
 62
7
100
AcDbPolyline
 90
2
 70
0
 10
1063.609461
 20
206.677554
 30
0.0
 10
1122.011752
 20
265.079845
 30
0.0
  0
LWPOLYLINE
  5
199
100
AcDbEntity
  8
0
 62
7
100
AcDbPolyline
 90
2
 70
0
 10
946.804879
 20
89.872973
 30
0.0
 10
1005.207170
 20
148.275263
 30
0.0
  0
LWPOLYLINE
  5
19a
100
AcDbEntity
  8
0
 62
7
100
AcDbPolyline
 90
2
 70
0
 10
936.782894
 20
99.894959
 30
0.0
 10
878.380603
 20
41.492668
 30
0.0
  0
LWPOLYLINE
  5
19b
100
AcDbEntity
  8
0
 62
7
100
AcDbPolyline
 90
2
 70
0
 10
888.402589
 20
31.470682
 30
0.0
 10
868.358617
 20
11.426710
 30
0.0
  0
LWPOLYLINE
  5
19c
100
AcDbEntity
  8
0
 62
7
100
AcDbPolyline
 90
2
 70
0
 10
1170.392057
 20
333.504122
 30
0.0
 10
1180.414043
 20
323.482136
 30
0.0
  0
LWPOLYLINE
  5
19d
100
AcDbEntity
  8
0
 62
7
100
AcDbPolyline
 90
2
 70
0
 10
878.380603
 20
41.492668
 30
0.0
 10
888.402589
 20
31.470682
 30
0.0
  0
SPLINE
  5
19e
100
AcDbEntity
  8
0
 62
7
100
AcDbSpline
 70
8
 71
3
 72
8
 73
4
 74
0
 40
0
 40
0
 40
0
 40
0
 40
1
 40
1
 40
1
 40
1
 10
505.632958
 20
804.639602
 30
0.0
 10
505.632958
 20
806.259957
 30
0.0
 10
504.768509
 20
807.757226
 30
0.0
 10
503.365241
 20
808.567403
 30
0.0
  0
SPLINE
  5
19f
100
AcDbEntity
  8
0
 62
7
100
AcDbSpline
 70
8
 71
3
 72
8
 73
4
 74
0
 40
0
 40
0
 40
0
 40
0
 40
1
 40
1
 40
1
 40
1
 10
503.365241
 20
808.567403
 30
0.0
 10
501.961973
 20
809.377580
 30
0.0
 10
500.233076
 20
809.377580
 30
0.0
 10
498.829808
 20
808.567403
 30
0.0
  0
SPLINE
  5
1a0
100
AcDbEntity
  8
0
 62
7
100
AcDbSpline
 70
8
 71
3
 72
8
 73
4
 74
0
 40
0
 40
0
 40
0
 40
0
 40
1
 40
1
 40
1
 40
1
 10
498.829808
 20
808.567403
 30
0.0
 10
497.426540
 20
807.757226
 30
0.0
 10
496.562092
 20
806.259957
 30
0.0
 10
496.562092
 20
804.639602
 30
0.0
  0
SPLINE
  5
1a1
100
AcDbEntity
  8
0
 62
7
100
AcDbSpline
 70
8
 71
3
 72
8
 73
4
 74
0
 40
0
 40
0
 40
0
 40
0
 40
1
 40
1
 40
1
 40
1
 10
496.562092
 20
804.639602
 30
0.0
 10
496.562092
 20
803.019248
 30
0.0
 10
497.426540
 20
801.521979
 30
0.0
 10
498.829808
 20
800.711802
 30
0.0
  0
SPLINE
  5
1a2
100
AcDbEntity
  8
0
 62
7
100
AcDbSpline
 70
8
 71
3
 72
8
 73
4
 74
0
 40
0
 40
0
 40
0
 40
0
 40
1
 40
1
 40
1
 40
1
 10
498.829808
 20
800.711802
 30
0.0
 10
500.233076
 20
799.901624
 30
0.0
 10
501.961973
 20
799.901624
 30
0.0
 10
503.365241
 20
800.711802
 30
0.0
  0
SPLINE
  5
1a3
100
AcDbEntity
  8
0
 62
7
100
AcDbSpline
 70
8
 71
3
 72
8
 73
4
 74
0
 40
0
 40
0
 40
0
 40
0
 40
1
 40
1
 40
1
 40
1
 10
503.365241
 20
800.711802
 30
0.0
 10
504.768509
 20
801.521979
 30
0.0
 10
505.632958
 20
803.019248
 30
0.0
 10
505.632958
 20
804.639602
 30
0.0
  0
LWPOLYLINE
  5
1a4
100
AcDbEntity
  8
0
 62
7
100
AcDbPolyline
 90
2
 70
0
 10
946.804879
 20
89.872973
 30
0.0
 10
936.782894
 20
99.894959
 30
0.0
  0
SPLINE
  5
1a5
100
AcDbEntity
  8
0
 62
7
100
AcDbSpline
 70
8
 71
3
 72
8
 73
4
 74
0
 40
0
 40
0
 40
0
 40
0
 40
1
 40
1
 40
1
 40
1
 10
712.489271
 20
762.119918
 30
0.0
 10
712.489271
 20
763.740272
 30
0.0
 10
711.624822
 20
765.237541
 30
0.0
 10
710.221554
 20
766.047718
 30
0.0
  0
SPLINE
  5
1a6
100
AcDbEntity
  8
0
 62
7
100
AcDbSpline
 70
8
 71
3
 72
8
 73
4
 74
0
 40
0
 40
0
 40
0
 40
0
 40
1
 40
1
 40
1
 40
1
 10
710.221554
 20
766.047718
 30
0.0
 10
708.818287
 20
766.857895
 30
0.0
 10
707.089389
 20
766.857895
 30
0.0
 10
705.686121
 20
766.047718
 30
0.0
  0
SPLINE
  5
1a7
100
AcDbEntity
  8
0
 62
7
100
AcDbSpline
 70
8
 71
3
 72
8
 73
4
 74
0
 40
0
 40
0
 40
0
 40
0
 40
1
 40
1
 40
1
 40
1
 10
705.686121
 20
766.047718
 30
0.0
 10
704.282854
 20
765.237541
 30
0.0
 10
703.418405
 20
763.740272
 30
0.0
 10
703.418405
 20
762.119918
 30
0.0
  0
SPLINE
  5
1a8
100
AcDbEntity
  8
0
 62
7
100
AcDbSpline
 70
8
 71
3
 72
8
 73
4
 74
0
 40
0
 40
0
 40
0
 40
0
 40
1
 40
1
 40
1
 40
1
 10
703.418405
 20
762.119918
 30
0.0
 10
703.418405
 20
760.499563
 30
0.0
 10
704.282854
 20
759.002294
 30
0.0
 10
705.686122
 20
758.192117
 30
0.0
  0
SPLINE
  5
1a9
100
AcDbEntity
  8
0
 62
7
100
AcDbSpline
 70
8
 71
3
 72
8
 73
4
 74
0
 40
0
 40
0
 40
0
 40
0
 40
1
 40
1
 40
1
 40
1
 10
705.686122
 20
758.192117
 30
0.0
 10
707.089389
 20
757.381940
 30
0.0
 10
708.818287
 20
757.381940
 30
0.0
 10
710.221555
 20
758.192117
 30
0.0
  0
SPLINE
  5
1aa
100
AcDbEntity
  8
0
 62
7
100
AcDbSpline
 70
8
 71
3
 72
8
 73
4
 74
0
 40
0
 40
0
 40
0
 40
0
 40
1
 40
1
 40
1
 40
1
 10
710.221555
 20
758.192117
 30
0.0
 10
711.624822
 20
759.002294
 30
0.0
 10
712.489271
 20
760.499563
 30
0.0
 10
712.489271
 20
762.119918
 30
0.0
  0
LWPOLYLINE
  5
1ab
100
AcDbEntity
  8
0
 62
7
100
AcDbPolyline
 90
1
 70
1
 10
505.632958
 20
804.639602
 30
0.0
  0
SPLINE
  5
1ac
100
AcDbEntity
  8
0
 62
7
100
AcDbSpline
 70
8
 71
3
 72
8
 73
4
 74
0
 40
0
 40
0
 40
0
 40
0
 40
1
 40
1
 40
1
 40
1
 10
712.489271
 20
640.230154
 30
0.0
 10
712.489271
 20
641.850508
 30
0.0
 10
711.624822
 20
643.347777
 30
0.0
 10
710.221554
 20
644.157954
 30
0.0
  0
SPLINE
  5
1ad
100
AcDbEntity
  8
0
 62
7
100
AcDbSpline
 70
8
 71
3
 72
8
 73
4
 74
0
 40
0
 40
0
 40
0
 40
0
 40
1
 40
1
 40
1
 40
1
 10
710.221554
 20
644.157954
 30
0.0
 10
708.818287
 20
644.968131
 30
0.0
 10
707.089389
 20
644.968131
 30
0.0
 10
705.686121
 20
644.157954
 30
0.0
  0
SPLINE
  5
1ae
100
AcDbEntity
  8
0
 62
7
100
AcDbSpline
 70
8
 71
3
 72
8
 73
4
 74
0
 40
0
 40
0
 40
0
 40
0
 40
1
 40
1
 40
1
 40
1
 10
705.686121
 20
644.157954
 30
0.0
 10
704.282854
 20
643.347777
 30
0.0
 10
703.418405
 20
641.850508
 30
0.0
 10
703.418405
 20
640.230154
 30
0.0
  0
SPLINE
  5
1af
100
AcDbEntity
  8
0
 62
7
100
AcDbSpline
 70
8
 71
3
 72
8
 73
4
 74
0
 40
0
 40
0
 40
0
 40
0
 40
1
 40
1
 40
1
 40
1
 10
703.418405
 20
640.230154
 30
0.0
 10
703.418405
 20
638.609800
 30
0.0
 10
704.282854
 20
637.112531
 30
0.0
 10
705.686122
 20
636.302354
 30
0.0
  0
SPLINE
  5
1b0
100
AcDbEntity
  8
0
 62
7
100
AcDbSpline
 70
8
 71
3
 72
8
 73
4
 74
0
 40
0
 40
0
 40
0
 40
0
 40
1
 40
1
 40
1
 40
1
 10
705.686122
 20
636.302354
 30
0.0
 10
707.089389
 20
635.492177
 30
0.0
 10
708.818287
 20
635.492177
 30
0.0
 10
710.221555
 20
636.302354
 30
0.0
  0
SPLINE
  5
1b1
100
AcDbEntity
  8
0
 62
7
100
AcDbSpline
 70
8
 71
3
 72
8
 73
4
 74
0
 40
0
 40
0
 40
0
 40
0
 40
1
 40
1
 40
1
 40
1
 10
710.221555
 20
636.302354
 30
0.0
 10
711.624822
 20
637.112531
 30
0.0
 10
712.489271
 20
638.609800
 30
0.0
 10
712.489271
 20
640.230154
 30
0.0
  0
LWPOLYLINE
  5
1b2
100
AcDbEntity
  8
0
 62
7
100
AcDbPolyline
 90
1
 70
1
 10
712.489271
 20
762.119918
 30
0.0
  0
SPLINE
  5
1b3
100
AcDbEntity
  8
0
 62
7
100
AcDbSpline
 70
8
 71
3
 72
8
 73
4
 74
0
 40
0
 40
0
 40
0
 40
0
 40
1
 40
1
 40
1
 40
1
 10
505.632958
 20
597.710468
 30
0.0
 10
505.632958
 20
599.330823
 30
0.0
 10
504.768509
 20
600.828092
 30
0.0
 10
503.365241
 20
601.638269
 30
0.0
  0
SPLINE
  5
1b4
100
AcDbEntity
  8
0
 62
7
100
AcDbSpline
 70
8
 71
3
 72
8
 73
4
 74
0
 40
0
 40
0
 40
0
 40
0
 40
1
 40
1
 40
1
 40
1
 10
503.365241
 20
601.638269
 30
0.0
 10
501.961973
 20
602.448446
 30
0.0
 10
500.233076
 20
602.448446
 30
0.0
 10
498.829808
 20
601.638269
 30
0.0
  0
SPLINE
  5
1b5
100
AcDbEntity
  8
0
 62
7
100
AcDbSpline
 70
8
 71
3
 72
8
 73
4
 74
0
 40
0
 40
0
 40
0
 40
0
 40
1
 40
1
 40
1
 40
1
 10
498.829808
 20
601.638269
 30
0.0
 10
497.426540
 20
600.828092
 30
0.0
 10
496.562092
 20
599.330823
 30
0.0
 10
496.562092
 20
597.710468
 30
0.0
  0
SPLINE
  5
1b6
100
AcDbEntity
  8
0
 62
7
100
AcDbSpline
 70
8
 71
3
 72
8
 73
4
 74
0
 40
0
 40
0
 40
0
 40
0
 40
1
 40
1
 40
1
 40
1
 10
496.562092
 20
597.710468
 30
0.0
 10
496.562092
 20
596.090114
 30
0.0
 10
497.426540
 20
594.592845
 30
0.0
 10
498.829808
 20
593.782668
 30
0.0
  0
SPLINE
  5
1b7
100
AcDbEntity
  8
0
 62
7
100
AcDbSpline
 70
8
 71
3
 72
8
 73
4
 74
0
 40
0
 40
0
 40
0
 40
0
 40
1
 40
1
 40
1
 40
1
 10
498.829808
 20
593.782668
 30
0.0
 10
500.233076
 20
592.972490
 30
0.0
 10
501.961973
 20
592.972490
 30
0.0
 10
503.365241
 20
593.782668
 30
0.0
  0
SPLINE
  5
1b8
100
AcDbEntity
  8
0
 62
7
100
AcDbSpline
 70
8
 71
3
 72
8
 73
4
 74
0
 40
0
 40
0
 40
0
 40
0
 40
1
 40
1
 40
1
 40
1
 10
503.365241
 20
593.782668
 30
0.0
 10
504.768509
 20
594.592845
 30
0.0
 10
505.632958
 20
596.090114
 30
0.0
 10
505.632958
 20
597.710468
 30
0.0
  0
LWPOLYLINE
  5
1b9
100
AcDbEntity
  8
0
 62
7
100
AcDbPolyline
 90
1
 70
1
 10
712.489271
 20
640.230154
 30
0.0
  0
LWPOLYLINE
  5
1ba
100
AcDbEntity
  8
0
 62
7
100
AcDbPolyline
 90
1
 70
1
 10
505.632958
 20
597.710468
 30
0.0
  0
SPLINE
  5
1bb
100
AcDbEntity
  8
0
 62
7
100
AcDbSpline
 70
8
 71
3
 72
8
 73
4
 74
0
 40
0
 40
0
 40
0
 40
0
 40
1
 40
1
 40
1
 40
1
 10
780.457676
 20
542.131064
 30
0.0
 10
780.457676
 20
543.751418
 30
0.0
 10
779.593228
 20
545.248687
 30
0.0
 10
778.189960
 20
546.058864
 30
0.0
  0
SPLINE
  5
1bc
100
AcDbEntity
  8
0
 62
7
100
AcDbSpline
 70
8
 71
3
 72
8
 73
4
 74
0
 40
0
 40
0
 40
0
 40
0
 40
1
 40
1
 40
1
 40
1
 10
778.189960
 20
546.058864
 30
0.0
 10
776.786692
 20
546.869042
 30
0.0
 10
775.057795
 20
546.869042
 30
0.0
 10
773.654527
 20
546.058864
 30
0.0
  0
SPLINE
  5
1bd
100
AcDbEntity
  8
0
 62
7
100
AcDbSpline
 70
8
 71
3
 72
8
 73
4
 74
0
 40
0
 40
0
 40
0
 40
0
 40
1
 40
1
 40
1
 40
1
 10
773.654527
 20
546.058864
 30
0.0
 10
772.251259
 20
545.248687
 30
0.0
 10
771.386810
 20
543.751418
 30
0.0
 10
771.386810
 20
542.131064
 30
0.0
  0
SPLINE
  5
1be
100
AcDbEntity
  8
0
 62
7
100
AcDbSpline
 70
8
 71
3
 72
8
 73
4
 74
0
 40
0
 40
0
 40
0
 40
0
 40
1
 40
1
 40
1
 40
1
 10
771.386810
 20
542.131064
 30
0.0
 10
771.386810
 20
540.510710
 30
0.0
 10
772.251259
 20
539.013441
 30
0.0
 10
773.654527
 20
538.203264
 30
0.0
  0
SPLINE
  5
1bf
100
AcDbEntity
  8
0
 62
7
100
AcDbSpline
 70
8
 71
3
 72
8
 73
4
 74
0
 40
0
 40
0
 40
0
 40
0
 40
1
 40
1
 40
1
 40
1
 10
773.654527
 20
538.203264
 30
0.0
 10
775.057795
 20
537.393087
 30
0.0
 10
776.786692
 20
537.393087
 30
0.0
 10
778.189960
 20
538.203264
 30
0.0
  0
SPLINE
  5
1c0
100
AcDbEntity
  8
0
 62
7
100
AcDbSpline
 70
8
 71
3
 72
8
 73
4
 74
0
 40
0
 40
0
 40
0
 40
0
 40
1
 40
1
 40
1
 40
1
 10
778.189960
 20
538.203264
 30
0.0
 10
779.593228
 20
539.013441
 30
0.0
 10
780.457676
 20
540.510710
 30
0.0
 10
780.457676
 20
542.131064
 30
0.0
  0
LWPOLYLINE
  5
1c1
100
AcDbEntity
  8
0
 62
7
100
AcDbPolyline
 90
2
 70
0
 10
662.624176
 20
250.162560
 30
0.0
 10
662.624176
 20
261.501143
 30
0.0
  0
SPLINE
  5
1c2
100
AcDbEntity
  8
0
 62
7
100
AcDbSpline
 70
8
 71
3
 72
8
 73
4
 74
0
 40
0
 40
0
 40
0
 40
0
 40
1
 40
1
 40
1
 40
1
 10
638.813152
 20
270.005080
 30
0.0
 10
638.813152
 20
271.625434
 30
0.0
 10
637.948703
 20
273.122703
 30
0.0
 10
636.545435
 20
273.932880
 30
0.0
  0
SPLINE
  5
1c3
100
AcDbEntity
  8
0
 62
7
100
AcDbSpline
 70
8
 71
3
 72
8
 73
4
 74
0
 40
0
 40
0
 40
0
 40
0
 40
1
 40
1
 40
1
 40
1
 10
636.545435
 20
273.932880
 30
0.0
 10
635.142167
 20
274.743057
 30
0.0
 10
633.413270
 20
274.743057
 30
0.0
 10
632.010002
 20
273.932880
 30
0.0
  0
SPLINE
  5
1c4
100
AcDbEntity
  8
0
 62
7
100
AcDbSpline
 70
8
 71
3
 72
8
 73
4
 74
0
 40
0
 40
0
 40
0
 40
0
 40
1
 40
1
 40
1
 40
1
 10
632.010002
 20
273.932880
 30
0.0
 10
630.606734
 20
273.122703
 30
0.0
 10
629.742286
 20
271.625434
 30
0.0
 10
629.742286
 20
270.005080
 30
0.0
  0
SPLINE
  5
1c5
100
AcDbEntity
  8
0
 62
7
100
AcDbSpline
 70
8
 71
3
 72
8
 73
4
 74
0
 40
0
 40
0
 40
0
 40
0
 40
1
 40
1
 40
1
 40
1
 10
629.742286
 20
270.005080
 30
0.0
 10
629.742285
 20
268.384725
 30
0.0
 10
630.606734
 20
266.887456
 30
0.0
 10
632.010002
 20
266.077279
 30
0.0
  0
SPLINE
  5
1c6
100
AcDbEntity
  8
0
 62
7
100
AcDbSpline
 70
8
 71
3
 72
8
 73
4
 74
0
 40
0
 40
0
 40
0
 40
0
 40
1
 40
1
 40
1
 40
1
 10
632.010002
 20
266.077279
 30
0.0
 10
633.413270
 20
265.267102
 30
0.0
 10
635.142168
 20
265.267102
 30
0.0
 10
636.545435
 20
266.077279
 30
0.0
  0
SPLINE
  5
1c7
100
AcDbEntity
  8
0
 62
7
100
AcDbSpline
 70
8
 71
3
 72
8
 73
4
 74
0
 40
0
 40
0
 40
0
 40
0
 40
1
 40
1
 40
1
 40
1
 10
636.545435
 20
266.077279
 30
0.0
 10
637.948703
 20
266.887456
 30
0.0
 10
638.813152
 20
268.384725
 30
0.0
 10
638.813152
 20
270.005080
 30
0.0
  0
LWPOLYLINE
  5
1c8
100
AcDbEntity
  8
0
 62
7
100
AcDbPolyline
 90
1
 70
1
 10
780.457676
 20
542.131064
 30
0.0
  0
SPLINE
  5
1c9
100
AcDbEntity
  8
0
 62
7
100
AcDbSpline
 70
8
 71
3
 72
8
 73
4
 74
0
 40
0
 40
0
 40
0
 40
0
 40
1
 40
1
 40
1
 40
1
 10
846.887633
 20
261.501149
 30
0.0
 10
846.887635
 20
257.742174
 30
0.0
 10
845.394389
 20
254.137156
 30
0.0
 10
842.736393
 20
251.479159
 30
0.0
  0
SPLINE
  5
1ca
100
AcDbEntity
  8
0
 62
7
100
AcDbSpline
 70
8
 71
3
 72
8
 73
4
 74
0
 40
0
 40
0
 40
0
 40
0
 40
1
 40
1
 40
1
 40
1
 10
842.736393
 20
251.479159
 30
0.0
 10
840.078397
 20
248.821162
 30
0.0
 10
836.473380
 20
247.327914
 30
0.0
 10
832.714405
 20
247.327914
 30
0.0
  0
LWPOLYLINE
  5
1cb
100
AcDbEntity
  8
0
 62
7
100
AcDbPolyline
 90
1
 70
1
 10
638.813152
 20
270.005080
 30
0.0
  0
SPLINE
  5
1cc
100
AcDbEntity
  8
0
 62
7
100
AcDbSpline
 70
8
 71
3
 72
8
 73
4
 74
0
 40
0
 40
0
 40
0
 40
0
 40
1
 40
1
 40
1
 40
1
 10
379.159609
 20
247.327914
 30
0.0
 10
375.400635
 20
247.327914
 30
0.0
 10
371.795619
 20
248.821161
 30
0.0
 10
369.137623
 20
251.479157
 30
0.0
  0
SPLINE
  5
1cd
100
AcDbEntity
  8
0
 62
7
100
AcDbSpline
 70
8
 71
3
 72
8
 73
4
 74
0
 40
0
 40
0
 40
0
 40
0
 40
1
 40
1
 40
1
 40
1
 10
369.137623
 20
251.479157
 30
0.0
 10
366.479627
 20
254.137152
 30
0.0
 10
364.986380
 20
257.742169
 30
0.0
 10
364.986380
 20
261.501143
 30
0.0
  0
SPLINE
  5
1ce
100
AcDbEntity
  8
0
 62
7
100
AcDbSpline
 70
8
 71
3
 72
8
 73
4
 74
0
 40
0
 40
0
 40
0
 40
0
 40
1
 40
1
 40
1
 40
1
 10
364.986380
 20
261.501143
 30
0.0
 10
364.986380
 20
261.501143
 30
0.0
 10
364.986380
 20
496.776734
 30
0.0
 10
364.986380
 20
496.776734
 30
0.0
  0
SPLINE
  5
1cf
100
AcDbEntity
  8
0
 62
7
100
AcDbSpline
 70
8
 71
3
 72
8
 73
4
 74
0
 40
0
 40
0
 40
0
 40
0
 40
1
 40
1
 40
1
 40
1
 10
364.986380
 20
496.776734
 30
0.0
 10
364.986381
 20
504.604391
 30
0.0
 10
371.331951
 20
510.949961
 30
0.0
 10
379.159609
 20
510.949961
 30
0.0
  0
SPLINE
  5
1d0
100
AcDbEntity
  8
0
 62
7
100
AcDbSpline
 70
8
 71
3
 72
8
 73
4
 74
0
 40
0
 40
0
 40
0
 40
0
 40
1
 40
1
 40
1
 40
1
 10
379.159609
 20
510.949961
 30
0.0
 10
379.159609
 20
510.949961
 30
0.0
 10
832.714291
 20
510.949961
 30
0.0
 10
832.714291
 20
510.949961
 30
0.0
  0
SPLINE
  5
1d1
100
AcDbEntity
  8
0
 62
7
100
AcDbSpline
 70
8
 71
3
 72
8
 73
4
 74
0
 40
0
 40
0
 40
0
 40
0
 40
1
 40
1
 40
1
 40
1
 10
832.714291
 20
510.949961
 30
0.0
 10
840.541946
 20
510.949961
 30
0.0
 10
846.887515
 20
504.604395
 30
0.0
 10
846.887519
 20
496.776740
 30
0.0
  0
LWPOLYLINE
  5
1d2
100
AcDbEntity
  8
0
 62
7
100
AcDbPolyline
 90
2
 70
0
 10
832.714405
 20
247.327914
 30
0.0
 10
379.159609
 20
247.327914
 30
0.0
  0
SPLINE
  5
1d3
100
AcDbEntity
  8
0
 62
7
100
AcDbSpline
 70
8
 71
3
 72
8
 73
4
 74
0
 40
0
 40
0
 40
0
 40
0
 40
1
 40
1
 40
1
 40
1
 10
364.986380
 20
496.776734
 30
0.0
 10
364.986381
 20
504.604391
 30
0.0
 10
371.331951
 20
510.949961
 30
0.0
 10
379.159609
 20
510.949961
 30
0.0
  0
SPLINE
  5
1d4
100
AcDbEntity
  8
0
 62
7
100
AcDbSpline
 70
8
 71
3
 72
8
 73
4
 74
0
 40
0
 40
0
 40
0
 40
0
 40
1
 40
1
 40
1
 40
1
 10
379.159609
 20
510.949961
 30
0.0
 10
379.159609
 20
510.949961
 30
0.0
 10
832.702916
 20
510.949961
 30
0.0
 10
832.702916
 20
510.949961
 30
0.0
  0
SPLINE
  5
1d5
100
AcDbEntity
  8
0
 62
7
100
AcDbSpline
 70
8
 71
3
 72
8
 73
4
 74
0
 40
0
 40
0
 40
0
 40
0
 40
1
 40
1
 40
1
 40
1
 10
832.702916
 20
510.949961
 30
0.0
 10
840.530573
 20
510.949961
 30
0.0
 10
846.876144
 20
504.604391
 30
0.0
 10
846.876144
 20
496.776734
 30
0.0
  0
SPLINE
  5
1d6
100
AcDbEntity
  8
0
 62
7
100
AcDbSpline
 70
8
 71
3
 72
8
 73
4
 74
0
 40
0
 40
0
 40
0
 40
0
 40
1
 40
1
 40
1
 40
1
 10
846.876144
 20
496.776734
 30
0.0
 10
846.876144
 20
496.776734
 30
0.0
 10
846.876144
 20
264.335789
 30
0.0
 10
846.876144
 20
264.335789
 30
0.0
  0
SPLINE
  5
1d7
100
AcDbEntity
  8
0
 62
7
100
AcDbSpline
 70
8
 71
3
 72
8
 73
4
 74
0
 40
0
 40
0
 40
0
 40
0
 40
1
 40
1
 40
1
 40
1
 10
846.876144
 20
264.335789
 30
0.0
 10
846.876144
 20
260.576815
 30
0.0
 10
845.382897
 20
256.971798
 30
0.0
 10
842.724901
 20
254.313803
 30
0.0
  0
SPLINE
  5
1d8
100
AcDbEntity
  8
0
 62
7
100
AcDbSpline
 70
8
 71
3
 72
8
 73
4
 74
0
 40
0
 40
0
 40
0
 40
0
 40
1
 40
1
 40
1
 40
1
 10
842.724901
 20
254.313803
 30
0.0
 10
840.066906
 20
251.655807
 30
0.0
 10
836.461889
 20
250.162560
 30
0.0
 10
832.702916
 20
250.162560
 30
0.0
  0
LWPOLYLINE
  5
1d9
100
AcDbEntity
  8
0
 62
7
100
AcDbPolyline
 90
3
 70
0
 10
846.887519
 20
496.776740
 30
0.0
 10
846.887633
 20
261.501149
 30
0.0
 10
846.887633
 20
261.501149
 30
0.0
  0
SPLINE
  5
1da
100
AcDbEntity
  8
0
 62
7
100
AcDbSpline
 70
8
 71
3
 72
8
 73
4
 74
0
 40
0
 40
0
 40
0
 40
0
 40
1
 40
1
 40
1
 40
1
 10
379.159609
 20
250.162560
 30
0.0
 10
375.400635
 20
250.162560
 30
0.0
 10
371.795619
 20
251.655807
 30
0.0
 10
369.137623
 20
254.313803
 30
0.0
  0
SPLINE
  5
1db
100
AcDbEntity
  8
0
 62
7
100
AcDbSpline
 70
8
 71
3
 72
8
 73
4
 74
0
 40
0
 40
0
 40
0
 40
0
 40
1
 40
1
 40
1
 40
1
 10
369.137623
 20
254.313803
 30
0.0
 10
366.479627
 20
256.971798
 30
0.0
 10
364.986380
 20
260.576815
 30
0.0
 10
364.986380
 20
264.335789
 30
0.0
  0
LWPOLYLINE
  5
1dc
100
AcDbEntity
  8
0
 62
7
100
AcDbPolyline
 90
2
 70
0
 10
832.702916
 20
250.162560
 30
0.0
 10
379.159609
 20
250.162560
 30
0.0
  0
LWPOLYLINE
  5
1dd
100
AcDbEntity
  8
0
 62
7
100
AcDbPolyline
 90
3
 70
0
 10
364.986380
 20
264.335789
 30
0.0
 10
364.986380
 20
496.776734
 30
0.0
 10
364.986380
 20
496.776734
 30
0.0
  0
SPLINE
  5
1de
100
AcDbEntity
  8
0
 62
7
100
AcDbSpline
 70
8
 71
3
 72
8
 73
4
 74
0
 40
0
 40
0
 40
0
 40
0
 40
1
 40
1
 40
1
 40
1
 10
557.007874
 20
306.855473
 30
0.0
 10
550.425185
 20
306.855473
 30
0.0
 10
544.342530
 20
310.367296
 30
0.0
 10
541.051185
 20
316.068072
 30
0.0
  0
SPLINE
  5
1df
100
AcDbEntity
  8
0
 62
7
100
AcDbSpline
 70
8
 71
3
 72
8
 73
4
 74
0
 40
0
 40
0
 40
0
 40
0
 40
1
 40
1
 40
1
 40
1
 10
541.051185
 20
316.068072
 30
0.0
 10
537.759841
 20
321.768847
 30
0.0
 10
537.759841
 20
328.792493
 30
0.0
 10
541.051185
 20
334.493268
 30
0.0
  0
SPLINE
  5
1e0
100
AcDbEntity
  8
0
 62
7
100
AcDbSpline
 70
8
 71
3
 72
8
 73
4
 74
0
 40
0
 40
0
 40
0
 40
0
 40
1
 40
1
 40
1
 40
1
 10
541.051185
 20
334.493268
 30
0.0
 10
544.342530
 20
340.194044
 30
0.0
 10
550.425185
 20
343.705867
 30
0.0
 10
557.007874
 20
343.705867
 30
0.0
  0
LWPOLYLINE
  5
1e1
100
AcDbEntity
  8
0
 62
7
100
AcDbPolyline
 90
2
 70
0
 10
549.238349
 20
261.501143
 30
0.0
 10
549.238349
 20
250.162560
 30
0.0
  0
SPLINE
  5
1e2
100
AcDbEntity
  8
0
 62
7
100
AcDbSpline
 70
8
 71
3
 72
8
 73
4
 74
0
 40
0
 40
0
 40
0
 40
0
 40
1
 40
1
 40
1
 40
1
 10
661.889764
 20
343.705867
 30
0.0
 10
668.472453
 20
343.705867
 30
0.0
 10
674.555108
 20
340.194044
 30
0.0
 10
677.846452
 20
334.493268
 30
0.0
  0
SPLINE
  5
1e3
100
AcDbEntity
  8
0
 62
7
100
AcDbSpline
 70
8
 71
3
 72
8
 73
4
 74
0
 40
0
 40
0
 40
0
 40
0
 40
1
 40
1
 40
1
 40
1
 10
677.846452
 20
334.493268
 30
0.0
 10
681.137797
 20
328.792493
 30
0.0
 10
681.137797
 20
321.768847
 30
0.0
 10
677.846452
 20
316.068072
 30
0.0
  0
SPLINE
  5
1e4
100
AcDbEntity
  8
0
 62
7
100
AcDbSpline
 70
8
 71
3
 72
8
 73
4
 74
0
 40
0
 40
0
 40
0
 40
0
 40
1
 40
1
 40
1
 40
1
 10
677.846452
 20
316.068072
 30
0.0
 10
674.555108
 20
310.367296
 30
0.0
 10
668.472453
 20
306.855473
 30
0.0
 10
661.889764
 20
306.855473
 30
0.0
  0
LWPOLYLINE
  5
1e5
100
AcDbEntity
  8
0
 62
7
100
AcDbPolyline
 90
2
 70
0
 10
557.007874
 20
343.705867
 30
0.0
 10
661.889764
 20
343.705867
 30
0.0
  0
LWPOLYLINE
  5
1e6
100
AcDbEntity
  8
0
 62
7
100
AcDbPolyline
 90
3
 70
0
 10
661.889764
 20
306.855473
 30
0.0
 10
557.007874
 20
306.855473
 30
0.0
 10
557.007874
 20
306.855473
 30
0.0
  0
SPLINE
  5
1e7
100
AcDbEntity
  8
0
 62
7
100
AcDbSpline
 70
8
 71
3
 72
8
 73
4
 74
0
 40
0
 40
0
 40
0
 40
0
 40
1
 40
1
 40
1
 40
1
 10
780.457676
 20
479.768859
 30
0.0
 10
780.457676
 20
481.389213
 30
0.0
 10
779.593228
 20
482.886482
 30
0.0
 10
778.189960
 20
483.696659
 30
0.0
  0
SPLINE
  5
1e8
100
AcDbEntity
  8
0
 62
7
100
AcDbSpline
 70
8
 71
3
 72
8
 73
4
 74
0
 40
0
 40
0
 40
0
 40
0
 40
1
 40
1
 40
1
 40
1
 10
778.189960
 20
483.696659
 30
0.0
 10
776.786692
 20
484.506836
 30
0.0
 10
775.057795
 20
484.506836
 30
0.0
 10
773.654527
 20
483.696659
 30
0.0
  0
SPLINE
  5
1e9
100
AcDbEntity
  8
0
 62
7
100
AcDbSpline
 70
8
 71
3
 72
8
 73
4
 74
0
 40
0
 40
0
 40
0
 40
0
 40
1
 40
1
 40
1
 40
1
 10
773.654527
 20
483.696659
 30
0.0
 10
772.251259
 20
482.886482
 30
0.0
 10
771.386810
 20
481.389213
 30
0.0
 10
771.386810
 20
479.768859
 30
0.0
  0
SPLINE
  5
1ea
100
AcDbEntity
  8
0
 62
7
100
AcDbSpline
 70
8
 71
3
 72
8
 73
4
 74
0
 40
0
 40
0
 40
0
 40
0
 40
1
 40
1
 40
1
 40
1
 10
771.386810
 20
479.768859
 30
0.0
 10
771.386810
 20
478.148505
 30
0.0
 10
772.251259
 20
476.651236
 30
0.0
 10
773.654527
 20
475.841059
 30
0.0
  0
SPLINE
  5
1eb
100
AcDbEntity
  8
0
 62
7
100
AcDbSpline
 70
8
 71
3
 72
8
 73
4
 74
0
 40
0
 40
0
 40
0
 40
0
 40
1
 40
1
 40
1
 40
1
 10
773.654527
 20
475.841059
 30
0.0
 10
775.057795
 20
475.030882
 30
0.0
 10
776.786692
 20
475.030882
 30
0.0
 10
778.189960
 20
475.841059
 30
0.0
  0
SPLINE
  5
1ec
100
AcDbEntity
  8
0
 62
7
100
AcDbSpline
 70
8
 71
3
 72
8
 73
4
 74
0
 40
0
 40
0
 40
0
 40
0
 40
1
 40
1
 40
1
 40
1
 10
778.189960
 20
475.841059
 30
0.0
 10
779.593228
 20
476.651236
 30
0.0
 10
780.457676
 20
478.148505
 30
0.0
 10
780.457676
 20
479.768859
 30
0.0
  0
LWPOLYLINE
  5
1ed
100
AcDbEntity
  8
0
 62
7
100
AcDbPolyline
 90
2
 70
0
 10
662.624176
 20
261.501143
 30
0.0
 10
549.238349
 20
261.501143
 30
0.0
  0
SPLINE
  5
1ee
100
AcDbEntity
  8
0
 62
7
100
AcDbSpline
 70
8
 71
3
 72
8
 73
4
 74
0
 40
0
 40
0
 40
0
 40
0
 40
1
 40
1
 40
1
 40
1
 10
735.103346
 20
542.131064
 30
0.0
 10
735.103346
 20
543.751419
 30
0.0
 10
734.238897
 20
545.248688
 30
0.0
 10
732.835629
 20
546.058865
 30
0.0
  0
SPLINE
  5
1ef
100
AcDbEntity
  8
0
 62
7
100
AcDbSpline
 70
8
 71
3
 72
8
 73
4
 74
0
 40
0
 40
0
 40
0
 40
0
 40
1
 40
1
 40
1
 40
1
 10
732.835629
 20
546.058865
 30
0.0
 10
731.432361
 20
546.869042
 30
0.0
 10
729.703464
 20
546.869042
 30
0.0
 10
728.300196
 20
546.058865
 30
0.0
  0
SPLINE
  5
1f0
100
AcDbEntity
  8
0
 62
7
100
AcDbSpline
 70
8
 71
3
 72
8
 73
4
 74
0
 40
0
 40
0
 40
0
 40
0
 40
1
 40
1
 40
1
 40
1
 10
728.300196
 20
546.058865
 30
0.0
 10
726.896928
 20
545.248688
 30
0.0
 10
726.032479
 20
543.751419
 30
0.0
 10
726.032480
 20
542.131064
 30
0.0
  0
SPLINE
  5
1f1
100
AcDbEntity
  8
0
 62
7
100
AcDbSpline
 70
8
 71
3
 72
8
 73
4
 74
0
 40
0
 40
0
 40
0
 40
0
 40
1
 40
1
 40
1
 40
1
 10
726.032480
 20
542.131064
 30
0.0
 10
726.032479
 20
540.510710
 30
0.0
 10
726.896928
 20
539.013441
 30
0.0
 10
728.300196
 20
538.203263
 30
0.0
  0
SPLINE
  5
1f2
100
AcDbEntity
  8
0
 62
7
100
AcDbSpline
 70
8
 71
3
 72
8
 73
4
 74
0
 40
0
 40
0
 40
0
 40
0
 40
1
 40
1
 40
1
 40
1
 10
728.300196
 20
538.203263
 30
0.0
 10
729.703464
 20
537.393086
 30
0.0
 10
731.432361
 20
537.393086
 30
0.0
 10
732.835629
 20
538.203263
 30
0.0
  0
SPLINE
  5
1f3
100
AcDbEntity
  8
0
 62
7
100
AcDbSpline
 70
8
 71
3
 72
8
 73
4
 74
0
 40
0
 40
0
 40
0
 40
0
 40
1
 40
1
 40
1
 40
1
 10
732.835629
 20
538.203263
 30
0.0
 10
734.238897
 20
539.013441
 30
0.0
 10
735.103346
 20
540.510710
 30
0.0
 10
735.103346
 20
542.131064
 30
0.0
  0
LWPOLYLINE
  5
1f4
100
AcDbEntity
  8
0
 62
7
100
AcDbPolyline
 90
1
 70
1
 10
780.457676
 20
479.768859
 30
0.0
  0
SPLINE
  5
1f5
100
AcDbEntity
  8
0
 62
7
100
AcDbSpline
 70
8
 71
3
 72
8
 73
4
 74
0
 40
0
 40
0
 40
0
 40
0
 40
1
 40
1
 40
1
 40
1
 10
582.120239
 20
270.005080
 30
0.0
 10
582.120239
 20
271.625434
 30
0.0
 10
581.255790
 20
273.122703
 30
0.0
 10
579.852522
 20
273.932880
 30
0.0
  0
SPLINE
  5
1f6
100
AcDbEntity
  8
0
 62
7
100
AcDbSpline
 70
8
 71
3
 72
8
 73
4
 74
0
 40
0
 40
0
 40
0
 40
0
 40
1
 40
1
 40
1
 40
1
 10
579.852522
 20
273.932880
 30
0.0
 10
578.449254
 20
274.743057
 30
0.0
 10
576.720357
 20
274.743057
 30
0.0
 10
575.317089
 20
273.932880
 30
0.0
  0
SPLINE
  5
1f7
100
AcDbEntity
  8
0
 62
7
100
AcDbSpline
 70
8
 71
3
 72
8
 73
4
 74
0
 40
0
 40
0
 40
0
 40
0
 40
1
 40
1
 40
1
 40
1
 10
575.317089
 20
273.932880
 30
0.0
 10
573.913821
 20
273.122703
 30
0.0
 10
573.049373
 20
271.625434
 30
0.0
 10
573.049373
 20
270.005080
 30
0.0
  0
SPLINE
  5
1f8
100
AcDbEntity
  8
0
 62
7
100
AcDbSpline
 70
8
 71
3
 72
8
 73
4
 74
0
 40
0
 40
0
 40
0
 40
0
 40
1
 40
1
 40
1
 40
1
 10
573.049373
 20
270.005080
 30
0.0
 10
573.049372
 20
268.384726
 30
0.0
 10
573.913821
 20
266.887456
 30
0.0
 10
575.317089
 20
266.077279
 30
0.0
  0
SPLINE
  5
1f9
100
AcDbEntity
  8
0
 62
7
100
AcDbSpline
 70
8
 71
3
 72
8
 73
4
 74
0
 40
0
 40
0
 40
0
 40
0
 40
1
 40
1
 40
1
 40
1
 10
575.317089
 20
266.077279
 30
0.0
 10
576.720357
 20
265.267102
 30
0.0
 10
578.449254
 20
265.267102
 30
0.0
 10
579.852522
 20
266.077279
 30
0.0
  0
SPLINE
  5
1fa
100
AcDbEntity
  8
0
 62
7
100
AcDbSpline
 70
8
 71
3
 72
8
 73
4
 74
0
 40
0
 40
0
 40
0
 40
0
 40
1
 40
1
 40
1
 40
1
 10
579.852522
 20
266.077279
 30
0.0
 10
581.255790
 20
266.887456
 30
0.0
 10
582.120239
 20
268.384726
 30
0.0
 10
582.120239
 20
270.005080
 30
0.0
  0
LWPOLYLINE
  5
1fb
100
AcDbEntity
  8
0
 62
7
100
AcDbPolyline
 90
1
 70
1
 10
735.103346
 20
542.131064
 30
0.0
  0
SPLINE
  5
1fc
100
AcDbEntity
  8
0
 62
7
100
AcDbSpline
 70
8
 71
3
 72
8
 73
4
 74
0
 40
0
 40
0
 40
0
 40
0
 40
1
 40
1
 40
1
 40
1
 10
735.103346
 20
479.768859
 30
0.0
 10
735.103346
 20
481.389213
 30
0.0
 10
734.238897
 20
482.886483
 30
0.0
 10
732.835629
 20
483.696660
 30
0.0
  0
SPLINE
  5
1fd
100
AcDbEntity
  8
0
 62
7
100
AcDbSpline
 70
8
 71
3
 72
8
 73
4
 74
0
 40
0
 40
0
 40
0
 40
0
 40
1
 40
1
 40
1
 40
1
 10
732.835629
 20
483.696660
 30
0.0
 10
731.432361
 20
484.506837
 30
0.0
 10
729.703464
 20
484.506837
 30
0.0
 10
728.300196
 20
483.696660
 30
0.0
  0
SPLINE
  5
1fe
100
AcDbEntity
  8
0
 62
7
100
AcDbSpline
 70
8
 71
3
 72
8
 73
4
 74
0
 40
0
 40
0
 40
0
 40
0
 40
1
 40
1
 40
1
 40
1
 10
728.300196
 20
483.696660
 30
0.0
 10
726.896928
 20
482.886483
 30
0.0
 10
726.032479
 20
481.389213
 30
0.0
 10
726.032480
 20
479.768859
 30
0.0
  0
SPLINE
  5
1ff
100
AcDbEntity
  8
0
 62
7
100
AcDbSpline
 70
8
 71
3
 72
8
 73
4
 74
0
 40
0
 40
0
 40
0
 40
0
 40
1
 40
1
 40
1
 40
1
 10
726.032480
 20
479.768859
 30
0.0
 10
726.032479
 20
478.148505
 30
0.0
 10
726.896928
 20
476.651235
 30
0.0
 10
728.300196
 20
475.841058
 30
0.0
  0
SPLINE
  5
200
100
AcDbEntity
  8
0
 62
7
100
AcDbSpline
 70
8
 71
3
 72
8
 73
4
 74
0
 40
0
 40
0
 40
0
 40
0
 40
1
 40
1
 40
1
 40
1
 10
728.300196
 20
475.841058
 30
0.0
 10
729.703464
 20
475.030881
 30
0.0
 10
731.432361
 20
475.030881
 30
0.0
 10
732.835629
 20
475.841058
 30
0.0
  0
SPLINE
  5
201
100
AcDbEntity
  8
0
 62
7
100
AcDbSpline
 70
8
 71
3
 72
8
 73
4
 74
0
 40
0
 40
0
 40
0
 40
0
 40
1
 40
1
 40
1
 40
1
 10
732.835629
 20
475.841058
 30
0.0
 10
734.238897
 20
476.651235
 30
0.0
 10
735.103346
 20
478.148505
 30
0.0
 10
735.103346
 20
479.768859
 30
0.0
  0
LWPOLYLINE
  5
202
100
AcDbEntity
  8
0
 62
7
100
AcDbPolyline
 90
1
 70
1
 10
582.120239
 20
270.005080
 30
0.0
  0
LWPOLYLINE
  5
203
100
AcDbEntity
  8
0
 62
7
100
AcDbPolyline
 90
1
 70
1
 10
735.103346
 20
479.768859
 30
0.0
  0
LWPOLYLINE
  5
204
100
AcDbEntity
  8
0
 62
7
100
AcDbPolyline
 90
2
 70
0
 10
946.804879
 20
89.872973
 30
0.0
 10
936.782894
 20
99.894959
 30
0.0
  0
LWPOLYLINE
  5
205
100
AcDbEntity
  8
0
 62
7
100
AcDbPolyline
 90
2
 70
0
 10
1005.207170
 20
148.275263
 30
0.0
 10
995.185184
 20
158.297249
 30
0.0
  0
LWPOLYLINE
  5
206
100
AcDbEntity
  8
0
 62
7
100
AcDbPolyline
 90
2
 70
0
 10
1063.609461
 20
206.677554
 30
0.0
 10
1053.587475
 20
216.699540
 30
0.0
  0
SPLINE
  5
207
100
AcDbEntity
  8
0
 62
7
100
AcDbSpline
 70
8
 71
3
 72
8
 73
4
 74
0
 40
0
 40
0
 40
0
 40
0
 40
1
 40
1
 40
1
 40
1
 10
485.852245
 20
542.131064
 30
0.0
 10
485.852245
 20
543.751418
 30
0.0
 10
484.987796
 20
545.248687
 30
0.0
 10
483.584529
 20
546.058864
 30
0.0
  0
SPLINE
  5
208
100
AcDbEntity
  8
0
 62
7
100
AcDbSpline
 70
8
 71
3
 72
8
 73
4
 74
0
 40
0
 40
0
 40
0
 40
0
 40
1
 40
1
 40
1
 40
1
 10
483.584529
 20
546.058864
 30
0.0
 10
482.181261
 20
546.869042
 30
0.0
 10
480.452363
 20
546.869042
 30
0.0
 10
479.049096
 20
546.058864
 30
0.0
  0
SPLINE
  5
209
100
AcDbEntity
  8
0
 62
7
100
AcDbSpline
 70
8
 71
3
 72
8
 73
4
 74
0
 40
0
 40
0
 40
0
 40
0
 40
1
 40
1
 40
1
 40
1
 10
479.049096
 20
546.058864
 30
0.0
 10
477.645828
 20
545.248687
 30
0.0
 10
476.781379
 20
543.751418
 30
0.0
 10
476.781379
 20
542.131064
 30
0.0
  0
SPLINE
  5
20a
100
AcDbEntity
  8
0
 62
7
100
AcDbSpline
 70
8
 71
3
 72
8
 73
4
 74
0
 40
0
 40
0
 40
0
 40
0
 40
1
 40
1
 40
1
 40
1
 10
476.781379
 20
542.131064
 30
0.0
 10
476.781379
 20
540.510710
 30
0.0
 10
477.645828
 20
539.013441
 30
0.0
 10
479.049096
 20
538.203264
 30
0.0
  0
SPLINE
  5
20b
100
AcDbEntity
  8
0
 62
7
100
AcDbSpline
 70
8
 71
3
 72
8
 73
4
 74
0
 40
0
 40
0
 40
0
 40
0
 40
1
 40
1
 40
1
 40
1
 10
479.049096
 20
538.203264
 30
0.0
 10
480.452364
 20
537.393087
 30
0.0
 10
482.181261
 20
537.393087
 30
0.0
 10
483.584529
 20
538.203264
 30
0.0
  0
SPLINE
  5
20c
100
AcDbEntity
  8
0
 62
7
100
AcDbSpline
 70
8
 71
3
 72
8
 73
4
 74
0
 40
0
 40
0
 40
0
 40
0
 40
1
 40
1
 40
1
 40
1
 10
483.584529
 20
538.203264
 30
0.0
 10
484.987797
 20
539.013441
 30
0.0
 10
485.852245
 20
540.510710
 30
0.0
 10
485.852245
 20
542.131064
 30
0.0
  0
LWPOLYLINE
  5
20d
100
AcDbEntity
  8
0
 62
7
100
AcDbPolyline
 90
2
 70
0
 10
995.185184
 20
158.297249
 30
0.0
 10
1053.587475
 20
216.699540
 30
0.0
  0
SPLINE
  5
20e
100
AcDbEntity
  8
0
 62
7
100
AcDbSpline
 70
8
 71
3
 72
8
 73
4
 74
0
 40
0
 40
0
 40
0
 40
0
 40
1
 40
1
 40
1
 40
1
 10
440.497915
 20
542.131064
 30
0.0
 10
440.497915
 20
543.751418
 30
0.0
 10
439.633466
 20
545.248687
 30
0.0
 10
438.230198
 20
546.058864
 30
0.0
  0
SPLINE
  5
20f
100
AcDbEntity
  8
0
 62
7
100
AcDbSpline
 70
8
 71
3
 72
8
 73
4
 74
0
 40
0
 40
0
 40
0
 40
0
 40
1
 40
1
 40
1
 40
1
 10
438.230198
 20
546.058864
 30
0.0
 10
436.826930
 20
546.869042
 30
0.0
 10
435.098033
 20
546.869042
 30
0.0
 10
433.694765
 20
546.058864
 30
0.0
  0
SPLINE
  5
210
100
AcDbEntity
  8
0
 62
7
100
AcDbSpline
 70
8
 71
3
 72
8
 73
4
 74
0
 40
0
 40
0
 40
0
 40
0
 40
1
 40
1
 40
1
 40
1
 10
433.694765
 20
546.058864
 30
0.0
 10
432.291497
 20
545.248687
 30
0.0
 10
431.427049
 20
543.751418
 30
0.0
 10
431.427049
 20
542.131064
 30
0.0
  0
SPLINE
  5
211
100
AcDbEntity
  8
0
 62
7
100
AcDbSpline
 70
8
 71
3
 72
8
 73
4
 74
0
 40
0
 40
0
 40
0
 40
0
 40
1
 40
1
 40
1
 40
1
 10
431.427049
 20
542.131064
 30
0.0
 10
431.427049
 20
540.510710
 30
0.0
 10
432.291497
 20
539.013441
 30
0.0
 10
433.694765
 20
538.203264
 30
0.0
  0
SPLINE
  5
212
100
AcDbEntity
  8
0
 62
7
100
AcDbSpline
 70
8
 71
3
 72
8
 73
4
 74
0
 40
0
 40
0
 40
0
 40
0
 40
1
 40
1
 40
1
 40
1
 10
433.694765
 20
538.203264
 30
0.0
 10
435.098033
 20
537.393087
 30
0.0
 10
436.826930
 20
537.393087
 30
0.0
 10
438.230198
 20
538.203264
 30
0.0
  0
SPLINE
  5
213
100
AcDbEntity
  8
0
 62
7
100
AcDbSpline
 70
8
 71
3
 72
8
 73
4
 74
0
 40
0
 40
0
 40
0
 40
0
 40
1
 40
1
 40
1
 40
1
 10
438.230198
 20
538.203264
 30
0.0
 10
439.633466
 20
539.013441
 30
0.0
 10
440.497915
 20
540.510710
 30
0.0
 10
440.497915
 20
542.131064
 30
0.0
  0
LWPOLYLINE
  5
214
100
AcDbEntity
  8
0
 62
7
100
AcDbPolyline
 90
1
 70
1
 10
485.852245
 20
542.131064
 30
0.0
  0
SPLINE
  5
215
100
AcDbEntity
  8
0
 62
7
100
AcDbSpline
 70
8
 71
3
 72
8
 73
4
 74
0
 40
0
 40
0
 40
0
 40
0
 40
1
 40
1
 40
1
 40
1
 10
440.497915
 20
479.768859
 30
0.0
 10
440.497915
 20
481.389213
 30
0.0
 10
439.633466
 20
482.886482
 30
0.0
 10
438.230198
 20
483.696659
 30
0.0
  0
SPLINE
  5
216
100
AcDbEntity
  8
0
 62
7
100
AcDbSpline
 70
8
 71
3
 72
8
 73
4
 74
0
 40
0
 40
0
 40
0
 40
0
 40
1
 40
1
 40
1
 40
1
 10
438.230198
 20
483.696659
 30
0.0
 10
436.826930
 20
484.506836
 30
0.0
 10
435.098033
 20
484.506836
 30
0.0
 10
433.694765
 20
483.696659
 30
0.0
  0
SPLINE
  5
217
100
AcDbEntity
  8
0
 62
7
100
AcDbSpline
 70
8
 71
3
 72
8
 73
4
 74
0
 40
0
 40
0
 40
0
 40
0
 40
1
 40
1
 40
1
 40
1
 10
433.694765
 20
483.696659
 30
0.0
 10
432.291497
 20
482.886482
 30
0.0
 10
431.427049
 20
481.389213
 30
0.0
 10
431.427049
 20
479.768859
 30
0.0
  0
SPLINE
  5
218
100
AcDbEntity
  8
0
 62
7
100
AcDbSpline
 70
8
 71
3
 72
8
 73
4
 74
0
 40
0
 40
0
 40
0
 40
0
 40
1
 40
1
 40
1
 40
1
 10
431.427049
 20
479.768859
 30
0.0
 10
431.427049
 20
478.148505
 30
0.0
 10
432.291497
 20
476.651236
 30
0.0
 10
433.694765
 20
475.841059
 30
0.0
  0
SPLINE
  5
219
100
AcDbEntity
  8
0
 62
7
100
AcDbSpline
 70
8
 71
3
 72
8
 73
4
 74
0
 40
0
 40
0
 40
0
 40
0
 40
1
 40
1
 40
1
 40
1
 10
433.694765
 20
475.841059
 30
0.0
 10
435.098033
 20
475.030882
 30
0.0
 10
436.826930
 20
475.030882
 30
0.0
 10
438.230198
 20
475.841059
 30
0.0
  0
SPLINE
  5
21a
100
AcDbEntity
  8
0
 62
7
100
AcDbSpline
 70
8
 71
3
 72
8
 73
4
 74
0
 40
0
 40
0
 40
0
 40
0
 40
1
 40
1
 40
1
 40
1
 10
438.230198
 20
475.841059
 30
0.0
 10
439.633466
 20
476.651236
 30
0.0
 10
440.497915
 20
478.148505
 30
0.0
 10
440.497915
 20
479.768859
 30
0.0
  0
LWPOLYLINE
  5
21b
100
AcDbEntity
  8
0
 62
7
100
AcDbPolyline
 90
1
 70
1
 10
440.497915
 20
542.131064
 30
0.0
  0
SPLINE
  5
21c
100
AcDbEntity
  8
0
 62
7
100
AcDbSpline
 70
8
 71
3
 72
8
 73
4
 74
0
 40
0
 40
0
 40
0
 40
0
 40
1
 40
1
 40
1
 40
1
 10
485.852245
 20
479.768859
 30
0.0
 10
485.852245
 20
481.389213
 30
0.0
 10
484.987796
 20
482.886482
 30
0.0
 10
483.584529
 20
483.696659
 30
0.0
  0
SPLINE
  5
21d
100
AcDbEntity
  8
0
 62
7
100
AcDbSpline
 70
8
 71
3
 72
8
 73
4
 74
0
 40
0
 40
0
 40
0
 40
0
 40
1
 40
1
 40
1
 40
1
 10
483.584529
 20
483.696659
 30
0.0
 10
482.181261
 20
484.506836
 30
0.0
 10
480.452363
 20
484.506836
 30
0.0
 10
479.049096
 20
483.696659
 30
0.0
  0
SPLINE
  5
21e
100
AcDbEntity
  8
0
 62
7
100
AcDbSpline
 70
8
 71
3
 72
8
 73
4
 74
0
 40
0
 40
0
 40
0
 40
0
 40
1
 40
1
 40
1
 40
1
 10
479.049096
 20
483.696659
 30
0.0
 10
477.645828
 20
482.886482
 30
0.0
 10
476.781379
 20
481.389213
 30
0.0
 10
476.781379
 20
479.768859
 30
0.0
  0
SPLINE
  5
21f
100
AcDbEntity
  8
0
 62
7
100
AcDbSpline
 70
8
 71
3
 72
8
 73
4
 74
0
 40
0
 40
0
 40
0
 40
0
 40
1
 40
1
 40
1
 40
1
 10
476.781379
 20
479.768859
 30
0.0
 10
476.781379
 20
478.148505
 30
0.0
 10
477.645828
 20
476.651236
 30
0.0
 10
479.049096
 20
475.841059
 30
0.0
  0
SPLINE
  5
220
100
AcDbEntity
  8
0
 62
7
100
AcDbSpline
 70
8
 71
3
 72
8
 73
4
 74
0
 40
0
 40
0
 40
0
 40
0
 40
1
 40
1
 40
1
 40
1
 10
479.049096
 20
475.841059
 30
0.0
 10
480.452364
 20
475.030882
 30
0.0
 10
482.181261
 20
475.030882
 30
0.0
 10
483.584529
 20
475.841059
 30
0.0
  0
SPLINE
  5
221
100
AcDbEntity
  8
0
 62
7
100
AcDbSpline
 70
8
 71
3
 72
8
 73
4
 74
0
 40
0
 40
0
 40
0
 40
0
 40
1
 40
1
 40
1
 40
1
 10
483.584529
 20
475.841059
 30
0.0
 10
484.987797
 20
476.651236
 30
0.0
 10
485.852245
 20
478.148505
 30
0.0
 10
485.852245
 20
479.768859
 30
0.0
  0
LWPOLYLINE
  5
222
100
AcDbEntity
  8
0
 62
7
100
AcDbPolyline
 90
1
 70
1
 10
440.497915
 20
479.768859
 30
0.0
  0
LWPOLYLINE
  5
223
100
AcDbEntity
  8
0
 62
7
100
AcDbPolyline
 90
1
 70
1
 10
485.852245
 20
479.768859
 30
0.0
  0
ENDSEC
  0
SECTION
  2
OBJECTS
  0
DICTIONARY
  5
C
330
0
100
AcDbDictionary
  3
ACAD_GROUP
350
D
  3
ACAD_MLINESTYLE
350
17
  0
DICTIONARY
  5
D
330
C
100
AcDbDictionary
  0
DICTIONARY
  5
1A
330
C
100
AcDbDictionary
  0
DICTIONARY
  5
17
330
C
100
AcDbDictionary
  3
STANDARD
350
18
  0
DICTIONARY
  5
19
330
C
100
AcDbDictionary
  0
ENDSEC
  0
EOF
